<?xml version="1.0" encoding="utf-8"?>
<!-- Generator: Adobe Illustrator 24.0.1, SVG Export Plug-In . SVG Version: 6.00 Build 0)  -->
<svg version="1.1" id="Слой_1" xmlns="http://www.w3.org/2000/svg" xmlns:xlink="http://www.w3.org/1999/xlink" x="0px" y="0px"
	 viewBox="0 0 303 200" style="enable-background:new 0 0 303 200;" xml:space="preserve">
<style type="text/css">
	.st0{fill:#F7F6F4;}
	.st1{fill:#FDFDFD;}
	.st2{fill:#787878;}
	.st3{fill:#979797;}
	.st4{fill:#5A5A5A;}
	.st5{fill:#292929;}
	.st6{fill:#FBFBFB;}
	.st7{fill:#8C8C8B;}
	.st8{fill:#CDCDCE;}
	.st9{fill:#605F5F;}
	.st10{fill:#808080;}
	.st11{fill:#93938C;}
	.st12{fill:#A5A6A5;}
	.st13{fill:#4C4C4C;}
	.st14{fill:#9E9E9E;}
	.st15{fill:#A2A3A3;}
	.st16{fill:#A4A39C;}
	.st17{fill:#9A9A9A;}
	.st18{fill:#3D3D3D;}
	.st19{fill:#949493;}
	.st20{fill:#A4A4A4;}
	.st21{fill:#878787;}
	.st22{fill:#828181;}
	.st23{fill:#595959;}
	.st24{fill:#858585;}
	.st25{fill:#4A4A49;}
	.st26{fill:#4D4D4D;}
	.st27{fill:#848483;}
	.st28{fill:#777776;}
	.st29{fill:#6D6D6E;}
	.st30{fill:#969696;}
	.st31{fill:#7A7A79;}
	.st32{fill:#707070;}
	.st33{fill:#919291;}
	.st34{fill:#7F7F7F;}
	.st35{fill:#7A7A7A;}
	.st36{fill:#494948;}
	.st37{fill:#555555;}
	.st38{fill:#8E8E8D;}
	.st39{fill:#7C7C7C;}
	.st40{fill:#919191;}
	.st41{fill:#848E91;}
	.st42{fill:#ECECEE;}
	.st43{fill:#8E8D8E;}
	.st44{fill:#5D5D5E;}
	.st45{fill:#5C5C5D;}
	.st46{fill:#626263;}
	.st47{fill:#5A5958;}
	.st48{fill:#4B4A4B;}
	.st49{fill:#747474;}
	.st50{fill:#515151;}
	.st51{fill:#565656;}
	.st52{fill:#757574;}
	.st53{fill:#3C3C3C;}
	.st54{fill:#A3A2A2;}
	.st55{fill:#474848;}
	.st56{fill:#353534;}
	.st57{fill:#4F4F4F;}
	.st58{fill:#93938F;}
	.st59{fill:#D0D0D0;}
	.st60{fill:#A4A3A3;}
	.st61{fill:#A6A6A5;}
	.st62{fill:#A2A2A2;}
	.st63{fill:#A6A6A6;}
	.st64{fill:#959595;}
	.st65{fill:#737373;}
	.st66{fill:#AAAAAA;}
	.st67{fill:#E7E7E7;}
	.st68{fill:#E7E6E7;}
	.st69{fill:#C3C3AD;}
	.st70{fill:#C2D5E1;}
	.st71{fill:#9F9F9F;}
	.st72{fill:#C0C1BF;}
	.st73{fill:#B3B3B3;}
	.st74{fill:#BFBFBF;}
	.st75{fill:#5B5F63;}
	.st76{fill:#656566;}
	.st77{fill:#5E6567;}
	.st78{fill:#A2A198;}
	.st79{fill:#F4EFCF;}
	.st80{fill:#CDCDCD;}
	.st81{fill:#B2B2B2;}
	.st82{fill:#F1EDD1;}
	.st83{fill:#646463;}
	.st84{fill:#989898;}
	.st85{fill:#65727C;}
	.st86{fill:#EBEBED;}
	.st87{fill:#B4B4B4;}
	.st88{fill:#A1A1A1;}
	.st89{fill:#505050;}
	.st90{fill:#444444;}
	.st91{fill:#ECE8CC;}
	.st92{fill:#CCCCCC;}
	.st93{fill:#B6B6A5;}
	.st94{fill:#CFCFCF;}
	.st95{fill:#B5B5B4;}
	.st96{fill:#CFCECE;}
	.st97{fill:#6F6F6C;}
	.st98{fill:#7C7C7B;}
	.st99{fill:#999999;}
	.st100{fill:#929292;}
	.st101{fill:#5D5D5D;}
	.st102{fill:#EEE9CD;}
	.st103{fill:#AFAFAF;}
	.st104{fill:#7B7B7B;}
	.st105{fill:#A9A79F;}
	.st106{fill:#7C7C77;}
	.st107{fill:#9F9E93;}
	.st108{fill:#8C8C8C;}
	.st109{fill:#909090;}
	.st110{fill:#80807E;}
	.st111{fill:#C3C2AE;}
	.st112{fill:#E7E6E6;}
	.st113{fill:#6C6C6B;}
	.st114{fill:#9C9C98;}
	.st115{fill:#C3D9E6;}
	.st116{fill:#8A918C;}
	.st117{fill:#B2B29F;}
	.st118{fill:#A1A198;}
	.st119{fill:#A0A099;}
	.st120{fill:#BEBEBE;}
	.st121{fill:#838382;}
	.st122{fill:#DEDEDE;}
	.st123{fill:#7A7A7B;}
	.st124{fill:#CDCDCC;}
	.st125{fill:#CBCBCB;}
	.st126{fill:#CECECE;}
	.st127{fill:#6B6B6B;}
	.st128{fill:#717171;}
	.st129{fill:#535353;}
	.st130{fill:#B8B7AB;}
	.st131{fill:#9C9C9C;}
	.st132{fill:#787875;}
	.st133{fill:#CDCCCC;}
	.st134{fill:#999895;}
	.st135{fill:#434342;}
	.st136{fill:#737371;}
	.st137{fill:#D2D2D2;}
	.st138{fill:#A2A3A0;}
	.st139{fill:#B1B0B1;}
	.st140{fill:#E6E6E6;}
	.st141{fill:#E2E2E1;}
	.st142{fill:#E0E0E0;}
	.st143{fill:#8F8F8F;}
	.st144{fill:#C8C8C8;}
	.st145{fill:#8F908C;}
	.st146{fill:#E1E1E0;}
	.st147{fill:#616162;}
	.st148{fill:#CECECF;}
	.st149{fill:#B5B5B5;}
	.st150{fill:#C4C4C4;}
	.st151{fill:#868E8F;}
	.st152{fill:#818B93;}
	.st153{fill:#BED0DB;}
	.st154{fill:#676767;}
	.st155{fill:#767676;}
	.st156{fill:#D0E0E5;}
	.st157{fill:#9C9C99;}
	.st158{fill:#98988F;}
	.st159{fill:#9A9A92;}
	.st160{fill:#636363;}
	.st161{fill:#D9D9D8;}
	.st162{fill:#B6B6B5;}
	.st163{fill:#ABABAB;}
	.st164{fill:#747473;}
	.st165{fill:#D3D3D3;}
	.st166{fill:#959695;}
	.st167{fill:#B3B2B1;}
	.st168{fill:#E1E0CC;}
	.st169{fill:#6E6E6E;}
	.st170{fill:#A4A3A4;}
	.st171{fill:#7B7C7C;}
	.st172{fill:#B8B8B8;}
	.st173{fill:#A3A4A4;}
	.st174{fill:#606060;}
	.st175{fill:#B6B6B6;}
	.st176{fill:#B6B5B4;}
	.st177{fill:#BABABA;}
	.st178{fill:#D5D5D5;}
	.st179{fill:#686868;}
	.st180{fill:#716E67;}
	.st181{fill:#838279;}
	.st182{fill:#6F6F6F;}
	.st183{fill:#C7C7C7;}
	.st184{fill:#636362;}
	.st185{fill:#939393;}
	.st186{fill:#D8D8D8;}
	.st187{fill:#D6D6D6;}
	.st188{fill:#CBCBCC;}
	.st189{fill:#585958;}
	.st190{fill:#757575;}
	.st191{fill:#50514F;}
	.st192{fill:#B0B0B0;}
	.st193{fill:#B7B7B6;}
	.st194{fill:#9B9B9B;}
	.st195{fill:#D1D1D0;}
	.st196{fill:#777673;}
	.st197{fill:#E8E8E9;}
	.st198{fill:#C8D9E7;}
	.st199{fill:#E1E0E0;}
	.st200{fill:#BBBBBB;}
	.st201{fill:#A5A5A3;}
	.st202{fill:#AEAEAE;}
	.st203{fill:#B1B1B1;}
	.st204{fill:#C3D6E2;}
	.st205{fill:#7F8686;}
	.st206{fill:#8B8B7D;}
	.st207{fill:#7E8684;}
	.st208{fill:#848484;}
	.st209{fill:#A9A9A9;}
	.st210{fill:#A4A4A3;}
	.st211{fill:#ADAEAE;}
	.st212{fill:#B7B7B7;}
</style>
<g>
	<path class="st0" d="M181,0.1c0.3,0,0.7,0,1,0c8.5,1.4,16.9,3.1,25.1,5.6c3,0.8,6,1.5,9,2.4c5.9,1.8,12,2.9,17.8,4.9
		c2.2,0.8,4.5,0.9,6.7,1.6c5.7,1.4,11.2,3.8,17.2,4.1c1,0.1,2,0.2,2.9,0.6c2.9,2.1,6.1,2.9,9.6,3c1.6,0.2,3.2,0.4,4.7,1.1
		c2.8,2,6.2,2.2,9.4,3.1c2.3-0.2,4.2,1,6.3,1.5c1.9,1,4.1,1.3,6.1,1.9c1.1,0.3,2.9,0.5,1.7,2.5c-1.3,0.3-2.5,1-3.9,0.9
		c-4.8,0.4-9.6,1.4-14.5,1c-3.1,0.1-6.2-0.4-9.2,0.6c-4.1,0.8-8.4-0.3-12.5,1.1c-2.5,0.3-5,0.6-7.5,0.7c-4.7,0-9.4,1-14.1,0.7
		c-4.3,0.5-8.5,1.3-12.8,1c-7.7-0.1-15.3,1.1-22.9,1.5c-2.4,0.2-5,1.5-7.2-0.6c-0.2-0.5-0.3-1.1-0.3-1.7c-0.5-4.8-0.7-9.7-0.1-14.6
		c0.2-1.6,0.5-2.8,1.9-3.7c4.2-1.5,8.6-0.7,12.8-0.9c2.1-0.1,2.8,1.5,3.7,2.8c2.1,1.9,4.1,4.4,7.3,1.8c2.8-2.4,2.7-4.9,0-7.3
		c-1.9-1.4-3.8-2.3-5.6,0.2c-0.9,1.1-1.8,2.3-3.3,2.6c-4.4-0.2-8.9-0.3-13.3,0.1c-1.8,0.2-3.3,0.3-3.6,2.5
		c-0.9,5.9-0.4,11.8-0.3,17.7c-1.7,1.9-4.1,1.4-6.2,2.2c-2.5,0.4-4.9,1.2-7.5,0.9c-7.5,0.3-15,0-22.5,0.9c-4.3,1-8.8-0.3-13.1,1
		c-3.1,0.8-6.3,0.7-9.5,0.7c-3.3-0.7-6.6-0.3-9.8-0.4c-3.2-0.1-6.3,0.2-9.5-0.3c-0.8-0.1-1.6-0.6-2.4-0.6c-4.9,0.2-6.4-2.5-5.8-6.8
		c-0.3,2.2,0.8,4.6-1.7,6.1c-2.4,0.8-4.9,0.6-7.3,0.2c-4.2-1.3-8.7-0.1-12.9-1c-4.9-1.3-9.9-0.4-14.8-0.6c-2.1,0-4.1,0-6.2,0
		c-3.2-0.1-6.4,0.1-9.6-0.2c-2.2-0.6-4.5-1-6.8-0.8c-3.8-0.1-7.7,0.2-11.5-0.2c-5.5-1.7-11.2-0.2-16.8-1.1c-2.2-0.8-4.5-0.6-6.8-0.7
		c-1.7-0.1-3.7,0.1-4.6-2c2-2.5,5-2.3,7.7-2.7c2.9-0.2,5.8-0.9,8.6-1.6c4-0.7,7.7-2.2,11.8-2.4c7.7-1.1,15.3-3.4,23-4.6
		c5.6-0.7,11-2.6,16.6-3.4c2.9-0.2,5.6-1,8.4-1.6c2.6-0.4,5-1.3,7.6-1.6c2.7-1,5.7-0.5,8.4-1.4c3-0.7,6.1-1.2,9.1-2
		c2.6-0.4,5.2-1.4,7.9-1.4c6.6-1.1,13.2-2.9,19.8-4c6.7-0.8,13.1-3,19.7-4c2.9-0.2,5.6-1,8.4-1.6c2.5-0.4,4.9-1.3,7.4-1.5
		C175.1,1.4,178.6,2.8,181,0.1z"/>
	<path class="st1" d="M0.1,37.1C0.1,25.9,0.2,14.7,0,3.6C-0.1,0.6,0.6,0,3.6,0C61.7,0.1,119.9,0.1,178,0.1c-0.8,3.4-4.3,1.9-6.2,3.4
		c-2.6-0.1-4.9,1-7.4,1.4C163.7,5,163,5.1,162.3,5c-3.6-2.3-6.2-0.1-8.9,1.8c-6.1,1.4-12.3,2.8-18.5,3.6c-6.5,1.4-13,3.2-19.6,3.9
		c-2.3,0.3-4.5,1.1-6.8,1.5c-1.9,0.4-3.8,0.8-5.8,1.2c-1.9,0.1-3.8,0-5.7-0.6c-2.3-0.7-4.1,0.1-5.1,2.3c-0.3,0.4-0.7,0.6-1.2,0.8
		c-2.5,0-4.8,1.3-7.4,1.4c-3,1-6.2,0.8-9.3,1.5c-5.2,1.4-10.4,2.3-15.7,3.4C52.7,26.4,47.4,28.3,42,29c-3.4,0.3-7.2-1.8-10.1,1.6
		c-3,1.3-6.3,1.7-9.4,2.4c-2.7,0.8-5.6,0.9-8.3,1.4c-2.5,0.5-5,0.9-7.3,1.9C4.6,36.9,2.5,38,0.1,37.1z"/>
	<path class="st1" d="M261,20.1c-0.8,0-1.7,0-2.5,0c-5.6-1.6-11.3-2.6-16.7-4.5c-2.1-0.4-4-1.5-6.2-1.6c-0.5-0.1-0.9-0.3-1.3-0.6
		c-3.3-4.7-8.1-3.8-12.8-3.4c-2-0.3-3.9-0.7-5.7-1.4c-2-0.4-3.9-0.8-5.6-2c-0.7-1.5-2-2-3.5-2.4c-2-0.6-3.2-1.9-1.7-4.1
		c31.5,0,63,0.1,94.4-0.1c3,0,3.7,0.6,3.6,3.6c-0.2,9.2-0.1,18.3-0.1,27.5c-0.8,0.8-1.8,1-2.9,0.6c-2.9-2.3-7-0.9-9.8-3.4
		c-1.8,1.2-3.5-1.6-5.2-0.1c-2.7-2.7-6.8-1.7-9.8-3.9c-1.7-0.3-3.5,0.1-5-1.2C267.2,22.1,263.6,22.7,261,20.1z"/>
	<path class="st0" d="M205,0.1c-0.1,1.9,0.6,3.1,2.7,3c2.2,0,3.3,1.1,3.1,3.3c-1.3,0.7-2.6,0-3.9-0.1C201.7,5,196.5,3.5,191.2,2
		c-1.1-0.3-3.3,0.5-3.3-2C193.6,0.1,199.3,0.1,205,0.1z"/>
	<path class="st2" d="M188,0.1c6.3,2,12.7,3.9,19,5.9c0.3,0.2,0.4,0.4,0.3,0.6c-0.1,0.2-0.2,0.3-0.3,0.3c-5.3-1.3-10.5-2.6-15.8-3.9
		c-2.4-0.6-4.7-1.4-7.3-0.9c-1.4,0.3-2.2-0.4-1.9-2C184,0.1,186,0.1,188,0.1z"/>
	<path class="st3" d="M8.3,36.3c3.4,2,7.5-0.3,11,1.6c-0.7,1.2-1.9,1.5-3.1,1.9c-1.4,0.4-2.8,0.5-4.2,0.2c-1.1-0.1-2-0.7-3.1-0.8
		C6,39.2,3,39.1,0.1,39c0-0.3,0-0.7,0-1c1.6-1.4,3.8-0.6,5.5-1.7C6.5,36.2,7.4,35.3,8.3,36.3z"/>
	<path class="st4" d="M171.6,2.8c1.8-1.6,5-0.1,6.3-2.7c1,0,2,0,3,0c-0.9,5.1-5.6,2.2-8.1,3.8C172.5,3.6,171.8,3.5,171.6,2.8z"/>
	<path class="st5" d="M6,36.9c-1.7,1.5-3.9,1-5.9,1.2c0-0.3,0-0.7,0-1c2-0.6,4-1.2,6-1.8C6.7,35.8,6.7,36.4,6,36.9z"/>
	<path class="st4" d="M299.9,31c1,0,2,0.1,3,0.1c0,0.7,0,1.3,0,2c-1.6,0.1-3.2,0.1-4.7,0.2c-0.6,0.3-1.2,0.7-1.9,0.6
		c-0.5-0.1-0.9-0.2-1.3-0.5c-0.2-0.3-0.3-0.5-0.3-0.8c0.1-0.3,0.1-0.4,0.2-0.4c1.2-0.1,2.4-0.2,3.7-0.3
		C299.1,31.7,299.4,31.1,299.9,31z"/>
	<path class="st6" d="M294.9,33.2c0.3,0.1,0.5,0.1,0.8,0c2.8,1.2,1.6,3.8,1.6,5.7c0.1,33.4,0.1,66.8,0.1,100.3c0,6.8,0,6.8-6.8,4.7
		c-0.5-0.3-1-0.6-1.6-0.9c-3-0.2-5.8-1.3-8.6-2.2c-4.3-2.3-9.7-1.9-13.7-5.2c3.6-4.9,9.3-7.3,13.7-11.1c3-2.7,7.2-4,9-8
		c-0.5-4.4,1.6-9.1-1.4-13.2c-4.3-1.5-9-1.3-13.3-2.7c-3.7-1.2-8.5-0.1-10.6-4.9c-0.3,0.9-0.6,1.7-1.5,2.1c-4.7,1.2-9-1.3-13.5-1.5
		c-0.6-0.1-1.1-0.2-1.6-0.3c-15.6-3-31.2-5.7-46.9-8.5c-2.5-0.5-4.9-0.8-6.8-2.7c-0.4-0.5-0.7-1-0.9-1.6c-0.8-6.1-0.2-12.3-0.4-18.5
		c0-6.6,0-13.2,0-19.8c0-2.1-0.4-4.4,1.8-5.9c1.8,1.2,3.6-0.5,5.4,0c8.1-0.3,16.2-0.7,24.3-1.4c4.4-0.2,8.8,0.1,13-1
		c4.7-0.1,9.3-0.1,14-0.6c2-1.5,4.4-0.9,6.6-1c5.1-0.1,10.1-0.4,15.1-0.9c3.4-0.2,6.8,0.4,10.2-0.4C287,33.9,290.9,32.8,294.9,33.2z
		"/>
	<path class="st7" d="M105,155.9c-2.5-3.6-6.8-4.5-10.3-6.4c-14.2-7.6-28.5-15-42.7-22.4c-0.9-0.4-1.8-0.7-2.8-1
		c-1-1-0.6-1.7,0.4-2.4c3.8,0.4,6.6,2.9,10,4.2c15.5,8.4,30.9,16.9,46.9,24.2c1.4-2-0.9-2.7-0.5-4c0.7-1.1,1.9-1.8,2.9-1.3
		c3.2,1.6,5.6-0.4,8.4-1.3c1.1,0.3,1.5,1.1,1.5,2.1c0.8,1.1-2.9,2.3,0,3.2c1.8,0.6,3.3,0,3.7-2.1c0.2-1.1-0.5-1.9-0.8-2.8
		c0.1-2,1-3.6,2.2-5.2c0.9-0.6,1.8-0.6,2.8-0.4c2.4,0.7,3.3,2.3,2.9,4.8c-0.1,0.5-1.2,2.1,0.9,1.7c1.5,0.5,2.6,1.4,2.8,3.1
		c-1.7,1.7,1.7,1.3,1,2.6c-2.2,3.4-6.2,4-9.3,6.1c-4.7-0.1-8.1-4.2-12.9-4.3c0,1.9,1.3,2,2.3,2.5c22.1,11.4,44.2,22.9,66.2,34.6
		c1.2,0.6,2.4,1.1,3.7,1.3c0.5,0.1,0.9,0.2,1.4,0.3c0.5,0.1,0.9,0.4,1.3,0.6c0.2,0.3,0.3,0.5,0.2,0.8c-0.1,0.3-0.2,0.4-0.2,0.4
		c-2.4,2.8-4.5,0.5-6.6-0.6c-23-11.9-45.9-23.9-68.8-35.9c-1.6-0.8-3.3-1.4-5-2.1C106,156.4,105.5,156.3,105,155.9z"/>
	<path class="st8" d="M187,194c-0.3,0-0.6-0.1-0.9-0.1c-2.4-3.3-1.3-5.9,1.6-8.1c3.2-2.4,6.6-4.4,9.6-7.1c3.8-2,7.1-4.8,10.5-7.4
		c4.4-3,8.8-5.9,13.2-9c3.5-2.5,5-2,7,1.9c1.6,2.6-0.7,1.6-1.7,1.9c-3.1-0.2-4,3-6.3,4l0,0c-4,3-8.2,5.7-12,9l0,0
		c-1.9,1.8-4.9,2.3-5.9,5.1c-1.3,2.2-4.3,2-5.8,3.9C193,189.6,190.3,192.4,187,194z"/>
	<path class="st9" d="M8.9,39.2c0.8-1.5,1.5-1.5,2.3,0c1.6,1.8,1.5,4,1.5,6.1c0,25.6,0,51.2,0,76.8c0,1.7,0,3.3-0.6,4.9
		c-0.4,1-1.2,1.6-2.1,2.1c-1.3-1.8-0.7-3.8-0.7-5.8c0-26.4,0-52.8,0-79.2C9.3,42.5,9,40.9,8.9,39.2z"/>
	<path class="st10" d="M290.6,143.9c1.1,0.1,2.4-0.1,3.4,0.3c2.1,0.8,2.7-0.1,2.7-2c0-0.5,0-1,0-1.5c0-34.2,0-68.5,0-102.7
		c0-1.6,0.3-3.4-1-4.8c0.8,0,1.6,0,2.5,0c0,35.7-0.1,71.3-0.2,107c0,2,1.2,5.1-0.9,5.9C295.1,147,292.4,145.9,290.6,143.9z"/>
	<path class="st11" d="M228,164.1c-2.3-3.1-4.6-2.3-7.3-0.3c-4,3-8,6.3-12.7,8.2c-0.1-0.2-0.2-0.4-0.3-0.6c1.9-4.5,6.6-5.7,10-8.3
		c2.7-2.1,2.7-3.3-0.2-4.7c-0.8-0.9-1.6-1.9-0.6-3c1.1-1.3,2.4,0,3.5,0.3c3.3,1.8,6.1,1.1,9.1-1.2c2.8-2.1,5.2-5.3,9.4-4.7
		c0.8,2.6-1.4,3.4-2.9,4.5c-2.4,1.7-4.8,3.4-7.6,5.7c4.2-0.7,6-5.2,10.1-4.4c0.2,0.2,0.3,0.3,0.5,0.5
		C235.7,159.2,232.3,162.3,228,164.1z"/>
	<path class="st12" d="M264.9,137c-4.4,4.4-9.4,7.8-14.7,11.1c-0.4,0.3-0.9,0.3-1.4,0.1c-0.2-0.5-0.3-1.1,0-1.4c5-4.2,9.5-8.9,16-11
		c0.3,0.3,0.4,0.5,0.3,0.8C265.1,136.9,265,137,264.9,137z"/>
	<path class="st13" d="M34.1,121.1c0.3,0.5,0.6,1.1,0.9,1.6c-5.3,1.4-10.7,2.8-16,4.3c-0.4-0.4-0.5-0.9-0.4-1.5
		C23.5,122.6,28.3,120.1,34.1,121.1z"/>
	<path class="st10" d="M264.9,137c0.1-0.3,0.1-0.6,0.1-1c0.2-0.8,0.7-1.2,1.4-1.3c0.2,0.1,0.4,0.2,0.7,0.2c4.1,2.9,9.3,3.1,13.8,5.1
		c0.1,0.9,0,1.5-1.1,1C274.8,139.8,269.9,138.4,264.9,137z"/>
	<path class="st14" d="M208,179c3.2-4.1,7.2-7.2,12-9C216.8,174.1,212.3,176.4,208,179z"/>
	<path class="st15" d="M249,148c0.4,0,0.8,0.1,1.3,0.1c-3.3,3.2-7,5.9-11.1,8c0,0-0.2-0.1-0.2-0.1C240.1,150.6,244.3,149,249,148z"
		/>
	<path class="st16" d="M187,194c2.7-2.7,5.5-5.1,9.3-6c-2.8,2.8-5.7,5.3-9.3,6.8C186.9,194.5,187,194.2,187,194z"/>
	<path class="st17" d="M279.7,141.1c0.4-0.3,0.8-0.7,1.1-1c2.7,1,5.9,0.8,8.2,2.9C285.5,144.6,282.8,142,279.7,141.1z"/>
	<path class="st18" d="M19.1,125.9c0,0.4,0,0.7,0,1.1c-3,0.7-5.7,2.7-9.1,2.2c0.4-0.4,0.9-0.9,1.3-1.3
		C13.5,125.8,15.9,124.3,19.1,125.9z"/>
	<path class="st19" d="M220,170c0.6-2,2.8-2.8,3.8-4.5c1.3-2.2,1.5,1.1,2.5,0.5C224.4,167.7,222.6,169.5,220,170z"/>
	<path class="st20" d="M202.1,184.1c0.1-3.9,3.5-3.9,5.9-5.1C206.7,181.4,204,182.4,202.1,184.1z"/>
	<path class="st6" d="M135.3,44.1c2.4-1.6,5.1-0.2,7.6-1c5.1-0.2,10.2-0.4,15.2-0.8c7.2,0.1,14.4-0.7,21.6-1.1
		c2.4-0.4,4.8-0.7,7.2-1.1c6.1,0.1,6.2,0.1,6.1,6.2c-0.1,12.8,0.5,25.6-0.4,38.3c-1.8,2-4,0.9-6,0.5c-7.1-1.5-14.2-2.5-21.3-3.7
		c-1.9-0.2-3.8-0.9-5.8-1.1c-7.1-1.8-14.4-2.2-21.5-3.9c-2.4-0.6-5-0.6-6.7-2.8c-1.4-8.7-0.6-17.4-0.5-26.1
		C130.9,44.8,132.8,43.9,135.3,44.1z"/>
	<path class="st21" d="M191.9,84.9c0.1-13.9,0.2-27.9,0.4-41.8c0-1.5-0.5-2.1-2-2.1c-1.2,0-2.7,0.8-3.5-0.9c1.9-0.4,3.8-0.7,5.7-1.1
		c0.5-0.5,0.9-0.4,1.3,0.2c0.2-0.1,0.3-0.1,0.5-0.1c-0.2,8.7-0.3,17.4-0.5,26.1c-0.6,6.3-0.9,12.6,0.1,18.9l0.2-0.1
		c0.2,0.4,0.2,0.8,0.1,1.2c-0.3,0.6-0.8,1-1.4,1.2c-0.4,0-0.8-0.1-1.2-0.4C191.5,85.6,191.6,85.2,191.9,84.9z"/>
	<path class="st22" d="M135.3,44.1c-2.5,0.8-3.5,2.2-3.4,5c0.3,8.3,0.1,16.6,0.2,24.9c-3.2-0.5-2.3-3.1-2.4-5.1
		c-0.4-7.1,0.6-14.2-0.6-21.3c-0.9-1.6-3-1.6-4.1-3.1c-0.3-0.5-0.3-0.9,0-1.4C128.4,43.3,131.9,42.6,135.3,44.1z"/>
	<path class="st23" d="M105.9,41.8c0-2.7,0-5.5,0.1-8.2c0-1.2,0.8-1.8,1.9-1.5c1.4,0.4,1.2,1.2,0.1,1.9c-1.1,3.5-0.5,7,0.4,10.5
		c0.1,9.4,0.9,18.8-0.5,28.2c-0.5,0.8-1,1.8-2.2,1c-1-1.2-1.2-2.7-1.2-4.2c0.1-8.7-0.7-17.4,0.4-26.1
		C105.2,42.9,105.6,42.4,105.9,41.8z"/>
	<path class="st24" d="M179.7,41.1c-7.1,1.9-14.4,1.9-21.8,1.8c-0.4-0.3-1.1-0.4-1.2-1C164.4,41.1,172,39.9,179.7,41.1z"/>
	<path class="st10" d="M224,38.2c-8.1,0.9-16.1,1.8-24.2,0.8c8-1.5,16.1-1.6,24.2-1.9c0.3,0.2,0.5,0.4,0.4,0.7
		C224.2,38.1,224.1,38.2,224,38.2z"/>
	<path class="st23" d="M41.4,28.2c5.6-1,11.1-1.9,16.7-2.9c0.5,0.3,1.2,0.3,1.3,1c-7.8,1.5-15.6,3.1-23.4,4.6
		c-0.7-0.3-1.4-0.7-1.1-1.7C36.9,27.4,39.4,29,41.4,28.2z"/>
	<path class="st25" d="M115,14.1c6.7-1.3,13.3-2.7,20-4c1-0.6,1.9-0.9,2,0.9c-6.7,1.3-13.3,2.6-20,3.9
		C116.4,14.4,115.5,14.8,115,14.1z"/>
	<path class="st26" d="M137,10.9c-0.7-0.3-1.3-0.6-2-0.9c6.3-1.4,12.7-2.8,19-4.1c0.6-0.4,1.3-0.6,2-0.5c0.7,0.3,1.2,0.7,1,1.5
		C150.3,8.3,143.6,9.6,137,10.9z"/>
	<path class="st27" d="M192.8,20.2c1.1,0,2.3,0.1,3.4,0.1c-1.8,0.9-2.2,2.5-2.2,4.4c0.1,4.8-0.1,9.6-0.2,14.4
		c-0.4-0.1-0.9-0.1-1.3-0.2C192.3,32.7,192.1,26.4,192.8,20.2z"/>
	<path class="st28" d="M216,8.2c1.9,0.3,3.9,0.7,5.8,1c4.7,0.1,9.1,1.6,13.2,3.8l-0.1,0.2c0.3,0.9,0,1.4-1,1c-6-1.7-12-3.3-17.9-5
		c-0.3-0.3-0.4-0.5-0.3-0.7C215.7,8.3,215.8,8.2,216,8.2z"/>
	<path class="st29" d="M16.1,38.9c0.8-1.1,2.1-0.6,3.1-1c5.6,0.5,11.4-0.8,16.9,1.3c0.2,0.7,0,1.2-0.6,1.5
		C28.9,41.3,22.4,41.4,16.1,38.9z"/>
	<path class="st30" d="M85,40.8c4.4,0.7,8.9-0.5,13.2,1.1c-1.4,1.8-3.6,1.4-5.4,2.1c-3.6,0.3-7.3,1.3-10.7-0.9
		c-0.6-0.9-0.2-1.6,0.5-2.2C83.4,40.5,84.2,40.5,85,40.8z"/>
	<path class="st26" d="M59.4,26.3c-0.4-0.3-0.9-0.7-1.3-1c5.3-1.1,10.6-2.1,16-3.2c1.1-0.6,2-0.9,2,0.9C70.5,24.1,65,25.2,59.4,26.3
		z"/>
	<path class="st31" d="M241.1,14.9c5.8,1.8,12,2.1,17.4,5.2c-6.5,0.1-12.3-2.8-18.5-4.1C239.8,15.1,240,14.6,241.1,14.9z"/>
	<path class="st32" d="M83,41.1c-0.4,0.3-0.7,0.7-1.1,1c-5.9,2.2-11.7,2.2-17.5-0.4c-0.5-0.4-0.6-1-0.4-1.6c1.9,0,3.9,0,5.8,0
		C74.2,41.4,78.7,39.6,83,41.1z"/>
	<path class="st33" d="M107.2,44.3c0-3.4-1.7-7,0.8-10.2c-0.5,6.8-0.5,6.8,7.1,8.9c-0.5,1-1.4,1.6-2.5,1.9
		C110.8,45.3,108.9,45.6,107.2,44.3z"/>
	<path class="st32" d="M294.9,33.2c-3.9,1.5-7.9,0.6-11.9,1c-1.1,0-2.7,1.4-3-1c5-0.3,9.9-0.7,14.9-1
		C294.9,32.5,294.9,32.9,294.9,33.2z"/>
	<path class="st34" d="M156.7,41.9c0.4,0.3,0.8,0.7,1.2,1c-5-0.2-10.1,2-15.1,0.1C147.4,41.3,152.1,42.2,156.7,41.9z"/>
	<path class="st14" d="M280,33.2c0.8,1,2,0.6,3,1c-3.3,1.4-6.8,0.8-10.2,0.8c-0.6-0.7-1.8-0.1-2.2-1.1
		C273.7,32.5,276.9,33.1,280,33.2z"/>
	<path class="st35" d="M270.7,33.9c0.7,0.4,1.4,0.7,2.2,1.1c-5-0.4-10.1,2-15.1,0.1C261.9,33.3,266.4,34.3,270.7,33.9z"/>
	<path class="st36" d="M34.8,29.9c0.4,0.3,0.8,0.7,1.2,1c-3.9,0.7-7.9,1.5-11.8,2.2c-1,0.3-2.1,0.9-2.1-0.9c3.3-0.8,6.6-1.5,9.9-2.3
		C33,29.3,33.9,29.2,34.8,29.9z"/>
	<path class="st37" d="M251.1,36.1c-4.6,1.6-9.4,0.8-14.1,1.1c-0.2-0.2-0.3-0.4-0.2-0.7c0.1-0.2,0.2-0.3,0.3-0.3
		C241.7,36.8,246.4,34.5,251.1,36.1z"/>
	<path class="st38" d="M275.2,24.2c3.3,1.1,7.6-0.1,9.8,3.9C281.8,26.6,277.6,27.7,275.2,24.2z"/>
	<path class="st39" d="M237,36.2c0,0.3,0,0.7,0,1c-4.2,1.6-8.6,0.7-13,1c0-0.3,0-0.7,0-1C228.3,36.8,232.6,36.5,237,36.2z"/>
	<path class="st40" d="M299.9,31c-0.4,0.3-0.9,0.6-1.3,0.9c-2.5-1.8-6.7,0.2-8.4-3.6C293.5,29,297,28.9,299.9,31z"/>
	<path class="st41" d="M220,24.2"/>
	<path class="st41" d="M218.7,15.2c0.4-0.6,0.9-0.6,1.5-0.2"/>
	<path class="st42" d="M83,41.1c-4.4-0.7-8.9,0.6-13.2-1c5,0.2,10.2-1,15.1,0.7C84.3,40.9,83.7,41,83,41.1z"/>
	<path class="st43" d="M261,20.1c3,1.3,6.6,0.8,9.3,3C266.7,23.4,263.2,24,261,20.1z"/>
	<path class="st44" d="M76,23c-0.7-0.3-1.3-0.6-2-0.9c3-0.6,6-1.2,9-1.8c0.4,0.3,1.1,0.4,1.2,1.1C81.7,22.5,78.8,22.7,76,23z"/>
	<path class="st45" d="M157,7c-0.4-0.4-0.8-0.7-1.2-1.1c1.4-3.7,4.6-0.5,6.6-1.7c0.6,0,1.1,0,1.7,0c0.4,0.3,1,0.4,1.2,1
		C162.6,6.5,159.8,6.6,157,7z"/>
	<path class="st13" d="M102.2,16.1c2-0.3,3.9-0.6,5.9-0.9c0.4,0.3,1,0.3,1.2,0.9c-2.8,1.3-5.9,1.8-9,2c-1,0.5-1.3,0-1.5-0.9
		C99.6,16,101.2,17,102.2,16.1z"/>
	<path class="st46" d="M22.2,32.3c0.7,0.3,1.4,0.6,2.1,0.9c-2.6,1.3-5.4,1.5-8.2,1.7c-0.6-0.5-1.6-0.1-2-0.9
		C16.5,32.6,19.5,33.1,22.2,32.3z"/>
	<path class="st47" d="M99,17.2c0.4,0.3,0.8,0.7,1.2,1c-2.8,0.6-5.5,1.1-8.3,1.7c-0.4-0.3-1.1-0.4-1.2-1c0.1-0.2,0.2-0.5,0.3-0.7
		C93.5,16.4,96.1,15.4,99,17.2z"/>
	<path class="st48" d="M14,34c0.7,0.3,1.3,0.6,2,0.9c-2.6,0.5-5.2,0.9-7.8,1.4c-0.8,0.2-1.5,0.4-2.3,0.6c0-0.5,0-1.1,0-1.6
		C8.7,34.8,11.3,34.4,14,34z"/>
	<path class="st49" d="M93.1,42.9c1.5-1.4,3.5-0.4,5.1-1c2.6,0,5.1-0.1,7.7-0.1c0,0.5-0.1,1-0.1,1.6C101.5,45,97.2,45.6,93.1,42.9z"
		/>
	<path class="st50" d="M36.1,39.9c0-0.2,0-0.4,0-0.7c4,0,7.9,0,11.9,0c0.1,1.2-0.8,1.5-1.6,1.8C42.9,41.4,39.3,42.5,36.1,39.9z"/>
	<path class="st34" d="M47,40.1c0.3-0.3,0.6-0.6,1-0.9C50.1,39,52.1,39,54,40c0.3,0.6,0.2,1.1-0.3,1.5C51.2,42.3,48.6,43.6,47,40.1z
		"/>
	<path class="st51" d="M113.1,43.9c0.7-0.3,1.3-0.6,2-0.9c3.3,0.1,6.6,0.2,9.8,0.2c0,0.3,0,0.6,0.1,0.9
		C121,46.3,117,46.5,113.1,43.9z"/>
	<path class="st52" d="M216,8.2c0,0.4,0,0.7-0.1,1.1c-3-0.8-6-1.6-8.9-2.4c0-0.3,0-0.6,0-0.9c1.3,0.1,2.6,0.3,3.8,0.4
		C212.5,7,214.2,7.6,216,8.2z"/>
	<path class="st53" d="M165.2,5.2c-0.4-0.3-0.8-0.7-1.2-1c2.5-0.5,5.1-0.9,7.6-1.4c0.4,0.4,0.9,0.7,1.3,1.1
		C170.4,4.4,167.8,4.8,165.2,5.2z"/>
	<path class="st54" d="M241.1,14.9c-0.4,0.4-0.7,0.7-1.1,1.1c-2-0.8-4.4-0.3-6.2-1.8c0.3-0.3,0.7-0.7,1-1
		C237.1,13.1,239.2,13.8,241.1,14.9z"/>
	<path class="st55" d="M109.2,16.2c-0.4-0.3-0.8-0.6-1.2-0.9c2.3-0.4,4.6-0.8,6.9-1.2c0.7,0.3,1.3,0.5,2,0.8
		C114.4,15.3,111.8,15.7,109.2,16.2z"/>
	<path class="st56" d="M90.8,18.9c0.4,0.3,0.8,0.7,1.2,1c-2.6,0.5-5.1,0.9-7.7,1.4c-0.4-0.4-0.8-0.7-1.2-1.1
		C85.7,19.8,88.2,19.3,90.8,18.9z"/>
	<path class="st57" d="M54.1,40.9c0-0.3,0-0.6-0.1-0.9c3.3,0.1,6.7,0.1,10,0.2c0,0.3,0,0.6,0,0.9C60.7,43.2,57.4,43.3,54.1,40.9z"/>
	<path class="st0" d="M99,17.2c-2.7,0.3-5.3,0.7-8,1c0.6-3.7,3.2-3.8,5.8-3c1.8,0.5,3.5,0.9,5.3,1C101.1,16.5,100.1,16.8,99,17.2z"
		/>
	<path class="st0" d="M34.8,29.9c-0.9,0-1.8,0-2.7,0c-0.1-2.4,0.8-3,3.3-2.5c1.9,0.4,4.1-0.1,6.1,0.7C39.2,28.8,37,29.3,34.8,29.9z"
		/>
	<path class="st0" d="M162.4,4.2c-2.2,0.6-4.4,1.1-6.6,1.7c-0.6,0-1.1,0-1.7,0C156,1.3,159,2,162.4,4.2z"/>
	<path class="st0" d="M235,12.9c-4.6-0.6-8.9-2.1-13.2-3.8C226.9,7.8,232,6.7,235,12.9z"/>
	<path class="st42" d="M54.1,40.9c3.3,0.1,6.6,0.1,9.9,0.2c5.9,1.6,11.9,0.7,17.8,1.1c3.7,1.4,7.4,0.7,11.2,0.7
		c4.2,0.2,8.5,0.4,12.7,0.5c0.1,10.2,0.2,20.4,0.2,30.6c0.6,0.7,0.6,1.4,0.4,2.2c-2,3.7-5.5,4.8-9.4,5.4
		c-11.6,2.5-23.4,4.2-35.1,6.7C49,91,35.9,93.1,23,96c-3.1,2.8-0.9,6.4-1.5,9.6c0,1.7-0.2,3.6,1.5,4.4c3.3,1.6,3.4,4.6,3.7,7.5
		c0.3,0.5,0.6,1,1.1,1.4c1.8,0.5,3.7-0.5,5.5,0.4c0.6,0.4,1.1,0.8,0.8,1.6l0.1,0.2c-5.1,1.3-10.2,2.7-15.1,4.8
		c-2.6,0.7-5.2,1.3-7.8,2c0-29.5,0-59.1-0.1-88.6c1.6-0.1,3.3-0.2,4.9-0.3c6.7,0.3,13.3,0.6,20,0.9c3.6,0.1,7.3,0.2,10.9,0.2
		C49.3,41.4,51.7,41.1,54.1,40.9z"/>
	<path class="st58" d="M288.9,102c2.2-0.1,2.2,1.5,2.1,3c-0.1,4.3-0.2,8.6-0.3,12.8c-0.3,0.4-0.7,0.4-1.1,0.2
		c-1.7-1.2-2.8,0.2-4,0.9c-1.6,0.9-3,2.2-5,1c-7.3-3.5-15.3-4.3-23-6.2c-9.2-2.3-18.3-4.8-27.6-6.5c-1.1-0.3-2-0.8-2.4-1.9
		c0-2,1.1-2.9,3-2.9c1.5,0.3,2.7,1.3,4.2,1.6c16.5,4.1,32.9,8.3,50.4,11.6c-0.5-2.5-3.1-2.9-2.3-4.8c1.5-1.6,5.8,1,5.2-2.7
		c-0.3-2-3.3,0.5-5.2,0.1c-9.7-1.9-19.7-2.4-28.8-6.8c-0.6-2,0.9-2.4,2.1-2.1c2.2,0.5,4-0.6,6.1-0.9c0.5,0.1,0.9,0.3,1.1,0.7
		c0.5,1.5,1.8,1.7,3.1,2c4.7,0.9,9.3,1.8,14,2.8c2.4,0.5,4.5,0.1,6.5-1.2C287.6,102.4,288.3,102.4,288.9,102z"/>
	<path class="st59" d="M248.4,94.9L248.4,94.9c1.8,0.5,2.2,2.1,2.8,3.6c-0.1,0.5-0.4,0.9-0.8,1.1c-0.7,0.3-1.4,0.5-2.2,0.5
		c-6.7-1.5-13.5-2.2-20.1-4.1c-3.2-1-6.6-1.4-9.9-1.9c-0.5-0.1-1-0.2-1.6-0.3c-7-1.8-14.1-2.9-21.1-4.7c-0.9-0.6-2.2-0.9-1.4-2.5
		c4.9-1.1,9.4,0.7,14.1,1.5C221.7,90.2,234.9,93.5,248.4,94.9z"/>
	<path class="st60" d="M248.4,94.9c-6.7,1.2-12.8-1.5-19.2-2.4c-11.7-1.5-23.2-5.1-35.1-5.5c-0.8-0.6-0.7-1.3-0.2-2.1
		c0.1-0.4,0.2-0.8,0.2-1.1c7.4,3.1,15.3,3.5,23,5.1C227.6,91,238.1,92.3,248.4,94.9z"/>
	<path class="st61" d="M281.2,125.2c-4.6,3.4-8.7,7.6-14.1,9.7c0,0-0.2,0.1-0.2,0.1c-0.7-2.3,1.3-3.3,2.6-4.3
		c3.2-2.5,6.4-5.3,10.6-6.3C280.6,124.5,280.9,124.8,281.2,125.2z"/>
	<path class="st62" d="M263,97.2c0.4-0.8,0.7-2.2,1.3-2.4c1.1-0.4,0.6,1.2,1.1,1.6c2.8,2.4,6.4,1.9,9.6,2.8c0.2,0.6,0.1,1.1-0.5,1.4
		c-4.1,1.3-7.9,0.5-11.5-1.6l0.1,0.1c-0.3-0.2-0.5-0.5-0.6-0.9C262.4,97.7,262.6,97.4,263,97.2z"/>
	<path class="st63" d="M274.9,100.2c0-0.3,0-0.6,0-0.9c4.7,0.9,9.3,1.9,14,2.8c-0.3,0.3-0.7,0.6-1,1
		C283.1,104.1,278.5,104.3,274.9,100.2z"/>
	<path class="st64" d="M263,97.2c-0.1,0.2-0.1,0.4,0,0.6c-4,2.5-8-0.1-12,0.2c-2.5,0.3-1.5-2.2-2.5-3.1
		C253.3,95.7,258.1,96.5,263,97.2z"/>
	<path class="st65" d="M194,84c-1.7-6.3-1.4-12.6-0.1-18.9C193.9,71.4,194,77.7,194,84z"/>
	<path class="st66" d="M289.9,118c0.3,0,0.5-0.1,0.8-0.1c-2.7,3-6.1,5.2-9.5,7.3c0,0-0.3-0.3-0.3-0.3
		C282.2,120.3,285.6,117.7,289.9,118z"/>
	<path class="st67" d="M184.8,193.8c-7.5-1.8-13.7-6.4-20.4-9.8c-17.3-8.7-34.4-17.8-51.5-26.8c-1.3-0.7-4.2-0.7-3.1-3.3
		c1.2-2.9,3.5-1.4,5.4-0.5c3.3,1.6,6.6,3.1,9.8,4.6c0.8,0,1.5,0,2.2,0.3c18.1,8.8,36,18,54.1,26.9
		C185.4,187.1,186.5,189.8,184.8,193.8z"/>
	<path class="st68" d="M105.9,148.1c0.2,0.2,0.4,0.5,0.6,0.7c0.9,1.1,3.9,0.5,2.8,3.1c-1,2.3-3,2-5,0.9c-15-8-30.1-15.9-45.1-23.9
		c0.6-4.5,3.6-2.3,5.9-2.2c2.7,0.7,4.8,2.4,7.2,3.6c4.7,3.2,9.9,5.3,14.9,7.9c3.8,2.1,7.7,3.9,11.6,5.9c1.1,0.6,2.2,1.3,3.5,1.7
		c1.2,0.4,2.4,0.8,3.3,1.8C105.7,147.7,105.8,147.9,105.9,148.1z"/>
	<path class="st69" d="M126,158.9c-0.3-0.3-0.7-0.6-1-0.9c2.1-3.4,6.4-3.4,9.1-5.9c0.9-1.8,2.9-2.3,4.3-3.5c0.4-0.3,0.8-0.5,1.2-0.8
		c2.5-1.3,5.1-2.4,7.5-3.8c4.8-2.9,9.4-2.6,13.8,0.8c0.3,0.5,0.3,0.9,0.1,1.4c-6.7,3.6-13.3,7.4-19.8,11.5
		c-4.4,2.7-8.8,0.3-13.1,0.8C127.4,158.5,126.7,158.5,126,158.9z"/>
	<path class="st16" d="M126,158.9c0.3-0.3,0.7-0.7,1-1c2.5-0.4,4.5,1,6.6,2c15.3,7.7,30.7,15.2,45.9,23.1c4.1,2.1,7.3,2.1,10.9-0.9
		c2-1.7,3.9-3.8,6.9-3.6c0.2,0.1,0.4,0.3,0.6,0.4c-1.5,3.2-4.7,4.5-7.4,6.2c-3.4,2.1-5.4,4.6-4.4,8.8c-0.4,0-0.8,0-1.2,0
		c0.8-4-1-6.1-4.6-7.9C162.1,177.1,144.1,167.9,126,158.9z"/>
	<path class="st70" d="M133.1,149.8c-1-1-2-2-3-3c-1.7-2.7-0.7-5,1.1-7.1c0.4-0.3,0.9-0.6,1.4-0.7c6.3-0.2,8.5,1.6,9,7.3
		c-0.5,1.3-1.9,1.6-2.7,2.6l0,0C137.2,149.9,135.4,151.9,133.1,149.8z"/>
	<path class="st71" d="M124.1,141c0.4,2.1-1.2,3.4-2.1,5c-0.6,2-1.5,0.7-2.3,0.2c-0.8-2-1.9-0.8-3-0.3c-1.8,2.5-3.9,4.2-7,2.1
		c-1.4-1-2.5,0.1-3.8,0.1c0,0,0.1,0,0.1,0c-2.8-2.7-0.1-3.8,1.6-4.6c4.3-2.1,8.6-4.1,13.2-5.1c1.2,0,1.6,1.2,2.4,1.8
		C123.6,140.4,123.9,140.7,124.1,141z"/>
	<path class="st72" d="M65,128c-2-0.1-4.4-2.3-5.9,0.9c-3.2-1.3-6.3-2.7-9-4.8c0.3,0,0.6-0.1,0.8-0.2c1.1-1.8,2.7-2,4.6-1.7
		c0.9,0.2,1.8,0.6,2.7,1c1.1,0.4,2.3,0.6,3.4,0.8C63.5,124.6,65.4,125.3,65,128z"/>
	<path class="st73" d="M120.1,146c0.6,0.1,1.2,1.1,1.9,0c2.5,0.3,2.1,2.1,1.9,3.7c-0.3,1.9-2,2.6-3.6,2.9c-1.7,0.3-3.5-0.7-4.3-1.9
		c-1.1-1.6,1.7-1.4,2-2.6C118.8,147.4,119,146.2,120.1,146z"/>
	<path class="st74" d="M124.1,141c-0.3,0-0.7-0.1-1-0.1c1.6-3.8,5.8-3.6,8.6-5.6c3.4-1,6.4-2.7,9.3-4.7c0.5-0.1,0.9,0,1.4,0.3
		c2.1,2.8,0.1,4-2,5.1c-2.7,1.4-5.8,2-8.3,3.9l0.1-0.1c-1.5,1.3-3.3,1.1-5.1,1C126,140.9,125,141,124.1,141z"/>
	<path class="st75" d="M126.9,140.9c1.5-1.4,3.5-0.5,5.1-1c-1.8,2-2.5,4.3-2,7c-1.3,0.6-2.3,0-1.9-1.4
		C128.7,143.5,128.7,142.1,126.9,140.9z"/>
	<path class="st76" d="M120.1,146c0,1.4-0.8,2-2.1,2c0-1-0.3-1.8-1.3-2.1c0.7-1.1,0.6-3.2,2.2-3.1
		C120.3,142.9,119.7,144.9,120.1,146z"/>
	<path class="st77" d="M133.1,149.8c2.1,0.5,4-0.5,5.9-0.9c-0.9,2.3-3.2,2.3-4.9,3.2c-0.8-0.6-2.2-0.4-2.2-1.8
		C131.9,150.1,132.7,150,133.1,149.8z"/>
	<path class="st78" d="M208,172c-2.8,3.1-5.8,5.9-10.1,6.9c0,0,0-0.1,0-0.1c1.9-4.3,5-6.8,9.8-7.1L208,172z"/>
	<path class="st79" d="M207.7,171.8c-3.7,1.8-6.9,4.2-9.8,7.1c-3.5,1-5.9,3.6-8.7,5.6c-2.8,2-4.9,2.2-8,0.6
		c-18-9.2-36.1-18.2-54.1-27.2c0.6-1.1,1.7-1.2,2.6-0.9c9.1,3.2,15-3.4,21.9-7.1c3-1.6,5.7-3.9,9.4-4c1.9-1.3,3.5,0,5.1,0.7
		c6.9,2.8,13.8,5.9,20.7,8.5c5,2.5,10.4,4.2,15.5,6.7c2.4,1.1,4.4,0.8,6.5-0.5c2.3-1.3,4.4-3,6.9-3.8c0.8-0.1,1.5,0.1,2.1,0.5
		c1.6,0.7,3.5,0.9,4.8,2.6C217.7,164.3,212.7,168,207.7,171.8z"/>
	<path class="st80" d="M289.9,118c-4.2,0.8-6.7,3.8-9,7c-5.3,2.5-10.3,5.4-14,10.1c-0.6,0.3-1.3,0.7-1.9,1
		c-5.5,3.7-11.1,7.4-16,11.9c-3.5,2.5-7.7,4.1-10,8c-3.7,0.4-5.7,3.7-8.8,5.2c-1.3,0.6-2.5,1.4-3.4-0.2c-0.7-1.4,0.8-1.9,1.6-2.6
		c3.5-2.9,7.9-4.7,10.7-8.5c0.9-3,3.6-3.9,5.9-5.4c6.3-3.3,11.8-7.9,17.6-11.9c2.3-1.4,4.5-2.8,6.5-4.7c0.3-0.3,0.7-0.6,1.1-0.8
		c3.6-1.9,6.5-4.9,10.1-6.9c0.2,0,0.5-0.1,0.7-0.1c2.6-0.3,4.3-2.3,6.4-3.6C289.3,115,290.2,115.5,289.9,118z"/>
	<path class="st81" d="M218,157.8c-0.7,0-1.3,0.1-2,0.1c-0.4-0.3-0.6-0.7-0.5-1.1c-2.2-2.8-6.1-2.1-8.5-4.3
		c-0.4-0.2-0.8-0.4-1.3-0.2c-0.2,0.1-0.2,0.2-0.2,0.3c0.4,0.4,0.8-0.1,1.2,0c2.7,1.8,6.2,1.7,8.7,3.9c-2,3.8-5.1,4.9-9.1,3.2
		c-2.1-0.9-4.3-1.6-6.4-2.6c-5.9-2.7-6.1-3.5-1.9-7.9c-0.2-0.8-0.5-1.6-0.2-2.4c0.5-0.8,1.2-1.2,2.2-1.1c0.9,0.5,1.2,1.6,2.1,2
		c1.4-0.1,1.7-1.6,2.8-2c0.4-0.1,0.9-0.2,1.3-0.1c2.1,1.1,4.3,2.2,6.2,3.8c0.9,0.8,1.9,1,3.1,0.7c0.6-0.1,1.2-0.1,1.8,0.1
		c0.4,0.1,0.8,0.4,1.2,0.5c0-0.6-0.8-0.6-0.8-1.2c0.7-1.1-2-2-0.2-3.2c3.9-0.5,7.2,1,10.4,3.1c1,2.5-1.1,3-2.5,3.9
		c-1.7,1.2-3.5,2.3-5.3,3.4c-1.1,0.2-1.5-1.8-2.8-0.9C217.2,156,217.8,157.2,218,157.8z"/>
	<path class="st82" d="M220.1,156.8c1-4,6-3.7,7.7-7c-0.2-0.5,0-1,0.4-1.3c1-0.7,2.1-1,3.2-1.2c1.8-0.4,3.1-0.7,2-3.2
		c-0.9-1.9,0.1-3.7,2.3-4.1c3.9-0.6,7.8-1.7,11.8-1.3c1.3,0.1,2.9,0.1,3.4,1.5c0.6,1.7-1.3,2-2.3,2.7c-1,0.9-2,1.7-3.4,1.9
		c-2,1.7-4,3.3-6.1,5c-3.3,0.9-5.9,3.1-8.3,5.2C227.4,158,224.1,159.1,220.1,156.8z"/>
	<path class="st81" d="M34,120.9c-0.4-0.4-0.8-0.8-1.2-1.2c-0.1-1.1,0.4-1.8,1.2-2.4c3.1-1,6.3-2,9.2-3.6c3.3-1.5,6.7-2.7,10.4-2.6
		c2.9,0.9,2.7,3.3,2.8,5.5c0,1.2-0.2,2.3-0.7,3.3c-1.8,2-3.7,3.4-6.5,1.8c-1.9,0.6-2.8,2.7-5,2.7c-0.8,0-1.5,0.4-2.3-0.2
		C39.3,122.2,36.7,121.1,34,120.9z"/>
	<path class="st83" d="M49.2,121.8c2.2,0.3,4-0.8,5.7-1.9c0.2-0.1,0.4-0.2,0.6-0.3c0.5,0.1,0.8,0.4,1.1,0.9c0.3,1,0.2,1.9-0.6,2.7
		c-1.7,0.2-3.4,0.5-5.1,0.7C50.6,123,49.1,123,49.2,121.8z"/>
	<path class="st40" d="M160,79.1c1.8-0.4,3.4,0.7,5,1.1c1.3,0.5,1.8,1.4,1.3,2.8c-0.6,0.7-1.9,1.4-0.2,2.4c0.8,0.5,1.5,1.2,0.5,2.2
		c-1,0.7-2.2,0.7-3.4,0.8c-1.2,0-2.4,0.2-3.6,0.2c-1.4-0.3-2.9-0.6-4.4-0.1c-9.3,3.3-18.9,5.7-27.9,9.8c-2.1,0.4-3.9,1.3-5.9,2
		c-4,0.5-8,3.4-12.2,0.6c0.8-2.5-1.2-3.4-2.6-4.6c-0.1-0.4-0.1-0.9,0-1.3c2.6-3,6.8-1.7,9.9-3.6c5.1-2.6,10.8-3.4,16.2-5.3
		c1.3-0.5,1.3-1.1,1.1-2.1c0.9-0.9,2-1.1,3.2-1c7.4,0.4,14.4-1.8,21.6-2.9C159.3,79.8,159.6,79.4,160,79.1z"/>
	<path class="st84" d="M160,79.1c0,0.3,0,0.6,0,0.9c-0.9,1.6-2.3,1.5-3.9,1.3c-3.8-0.4-7.6-0.9-11.4-1c-2.8,0.3-5.6-1.8-8.4,0
		c-1.2,0.5-2.4,0.1-3.5-0.5c-0.8-0.5-1.6-1-2.4-1.5c-1.7-1.4-3.4-0.6-5.2-0.2c-4.3,1.1-8.5,2.3-13,2.5c-2.1,0.1-4,0.2-5.4-1.6
		c-0.3-1.2,0.3-2,1.2-2.6c0.5-0.2,1-0.3,1.6-0.4c4.3-0.5,8.5-1.3,12.8-2.2c5.7-1.2,6.1-1.6,6.1-7.7c0-5.2,0-10.3,0-15.5
		c0-2-0.1-4,1.3-5.7c1.8,1.1,1.1,3,1.1,4.5c0.1,6.6,0,13.2,0.1,19.8c0,1.6-0.7,3.4,1,4.6C141.4,75.7,150.7,77.4,160,79.1z"/>
	<path class="st40" d="M166,83c-0.3-0.9-0.6-1.9-1-2.8c9.1,1,18,2.6,26.9,4.7c0,0.3,0.1,0.7,0.1,1c0.4,1.9-1,1.7-2,1.5
		c-1.4-0.3-2.7-0.8-4.1-0.8c-3-1.6-6.1-0.4-9.1-0.1c-2.8-0.8-5.7-1.5-8.6-1.8C167.2,84.5,165.7,84.9,166,83z"/>
	<path class="st17" d="M166,83c3.6,1.2,7.9-0.2,11,3c3-1.2,5.9,0.2,8.9,0.1c1-1.3,2.2-1.1,3.3-0.2c0.9,0.7,1.8,1.6,2.8,0.1
		c0.3,0.1,0.6,0.1,0.9,0.1c0.6,2.1,1.4,4.2-0.6,6.1c-1.3,0.6-4-1.3-3.5,2.2c-0.6,0.3-1.3,0.4-2,0.1c-2.6-2.6-5.9-3.2-9.4-3.4
		c-3.8-0.3-7.4-1.4-10.5-3.8c-0.6-0.4-1.3-0.9-1.9-1.3c-0.9-0.5-2.7-0.6-2.4-1.9C163,82.3,164.8,83.3,166,83z"/>
	<path class="st65" d="M191.9,92.1c1.3-1.9,0.4-4.1,1-6c0.3-0.3,0.7-0.7,1-1c0.1,0.7,0.1,1.4,0.2,2.1c0.2,0.8,1,0.9,1.7,1.1
		c0.5,0.8-0.1,1.5-0.3,2.2c0,1,0.6,1.8,0.8,2.7c0,0.7-0.3,1.2-0.7,1.7c-0.8,0.7-1.4,1.7-2.7,1.4c-0.9-0.8-1.1-1.8-1.3-2.9
		C191.5,92.8,191.6,92.4,191.9,92.1z"/>
	<path class="st85" d="M216.5,22.5"/>
	<path class="st85" d="M216.4,17.6"/>
	<path class="st86" d="M129.9,45.1c0.1,8.6,0.2,17.2,0.3,25.8c0,1.3,0.2,2.8-1.7,3.1c-6.5,1.3-12.7,3.8-19.5,3
		c1.3-2.2,0.6-3.5-1.8-4.2c0-9.5,0-19.1,0-28.6c2-0.1,3.9-0.3,5.9-0.4c4,0.1,7.9,0.1,11.9,0.2C126.5,45,128.3,44.8,129.9,45.1z"/>
	<path class="st30" d="M107.2,72.8c1.7-0.1,3.3-1.7,5.3-0.2c-0.3,2.1-2.1,3.1-3.5,4.4c-0.4,0-0.9,0.1-1.3,0.1
		c-0.6,0.1-1.1,0-1.5-0.4c-0.2-0.3-0.4-0.6-0.4-1c0.1-0.6,0.2-1.1,0.3-1.7C106.4,73.6,106.8,73.2,107.2,72.8z"/>
	<path class="st87" d="M25.9,119.1c-1-3.4-0.8-7.2-5-9c-1.3-0.6-0.7-2.7-0.7-4.1c0.9-0.7,1.6-0.4,2.2,0.5c0.4,2.7,2.1,2.7,4.2,1.9
		c5-0.6,9.6-2.7,14.6-3.2c4.4,0.6,8.7-0.1,12.9-1.5c-1.6,0.5-3.2,1-4.9,1.2c-0.9,0.1-2,1-2.4-0.6c-0.3-1.2,0.7-1.7,1.7-2.1
		c2.3-1,4.9-0.9,7-2.3c2.4-0.3,4.5-1.5,6.8-2.2c1.4,0.3,1.2,1.6,1.4,2.6c0.1,0.4,0.1,0.8,0.1,1.2c0.1,1.7,0.5,3.4-1.4,4.5
		c-0.4,0.2-0.8,0.4-1.2,0.6c-2.6,2.7-6,4.1-9.5,5.1c-3.2,1.2-6.8,1-9.7,3.2C36.5,115.8,31.4,118.3,25.9,119.1z"/>
	<path class="st88" d="M21.9,94.9c11.5-2.3,23-4.7,34.5-6.8c12.5-2.3,24.8-5.7,37.5-6.5c1.1-0.1,2.1-0.8,3.2-1.3
		c1.3,1.3,4.3-1.5,4.7,2c-3,2-6.4,2.1-9.8,2.5c-5.4-0.8-10.4,1.2-15.4,2.4c-15.4,2.6-30.6,5.7-45.9,8.7c-2.5,0.5-4.9,0.8-7.4,0.2
		C22.7,95.7,22.3,95.4,21.9,94.9z"/>
	<path class="st34" d="M21.9,94.9c0.3,0.1,0.6,0.2,1,0.1c1,1,2.9,0.7,3.4,2.4c-0.2,0.7-0.7,1.1-1.3,1.4c-0.9,0.5-1.8,1.1-1.2,2.3
		c0.6,1.1,1.7,0.9,2.7,0.7c3.4-0.8,6.9-1.4,10.2-2.2c2.1-0.5,4.2-1.1,6.4-0.4c0.5,0.2,0.8,0.5,1.1,0.9c-0.6,2.6-2.9,2.4-4.7,2.8
		c-5,1-9.8,2.4-14.8,3.4c-0.2,0.4-0.4,0.8-0.8,1.1c-0.7,0.2-1.3,0.2-1.8-0.5c-0.7-0.3-1.4-0.6-2-0.9c0-2.7,0.1-5.4,0.1-8.2
		C20.3,96.5,20.1,95.1,21.9,94.9z"/>
	<path class="st89" d="M25.9,119.1c4.8-3.3,10.7-3.6,16.1-5.2c1.1-0.5,1.3,0.1,1.1,1c-2.4,2.4-5.9,2.1-8.7,3.4
		c-2.5,0.2-4.9,1.1-7.3,1.8C26.6,119.7,26.2,119.4,25.9,119.1z"/>
	<path class="st30" d="M102,82c-1.2-1.9-3.6-0.2-4.9-1.8c3.7,0.1,6.2-2.1,8.6-4.5c0.2,0.2,0.4,0.4,0.5,0.6
		c-0.3,3.4,2.7,7.1-1.1,10.2c-2.2-0.3-2.3-2.4-3.2-3.8C102,82.5,102,82.2,102,82z"/>
	<path class="st90" d="M27,120.1c2.3-1.1,4.3-3.7,7.3-1.8c-0.5,0.5-1,0.9-1.5,1.4C30.9,119.5,29,120.8,27,120.1z"/>
	<path class="st91" d="M230.1,106.1c16.7,3.1,33.1,7.6,49.6,11.5c1.6,0.4,1.9,1,1.2,2.3c0,0,0-0.1,0-0.1c-3.7,2.6-7.3,5.4-11,8l0,0
		c-2.4,1.7-4.6,3.5-7.3,4.8c-5.1,4.9-10.7,7.5-18.2,6.9c-8.5-0.7-11.3-0.7-19.5-4c-4-1.6-8.4-2.1-12.6-3c-2.1-1.9-6-1.2-6.8-4.8
		c0.5-0.8,0.5-1.5-0.4-2.1c-1.2-3.3-0.4-6,2.5-7.8C214.8,113.6,222,109,230.1,106.1z"/>
	<path class="st92" d="M282.9,111c0.9,2.3,3.2,1.9,5.6,2.3c-2.6,3-4.8,4-8.6,3c-15.3-4-30.6-7.5-46-11.2c0.3-3,2.6-3,4.7-3.1
		c2.1-0.1,4.3,0.3,6.4,0.5c12,3.4,24.3,5.6,36.5,8C282.1,110.4,282.5,110.6,282.9,111z"/>
	<path class="st87" d="M282.9,111c-0.4,0-0.7,0-1.1,0c-9-1.2-17.8-3.7-26.7-5.4c-3.2-0.6-2.9-2-1.9-4.1c0.2-0.2,0.4-0.4,0.6-0.6
		c9.2,2,18.3,4,27.5,6c2.9,0.6,5.5-0.8,7.9-2.4C290.5,112.4,290.1,112.8,282.9,111z"/>
	<path class="st93" d="M230.1,106.1c-6.4,5-14,7.9-20.9,12c-3.3,2-4,4.3-3.1,7.6c-0.7,0.8-1.5,0.7-2.4,0.2c-1.7-3-1.3-6.1-0.6-9.2
		c4.5-4.9,11-6.7,16.5-9.9c1.7-1,3.6-1.8,5.4-2.5c1.1-0.3,2.1-0.2,2.9,0.6C228.4,105.8,229.2,106,230.1,106.1z"/>
	<path class="st94" d="M274.9,100.2c4.1,1.8,8.6,2.4,13,2.8c-2,2.3-4.2,3.1-7.4,2.2c-5.1-1.4-10.3-2.4-15.5-3.1
		c-2.6-0.3-2.5-1.4-2.1-3.1C266.9,99.4,270.9,99.8,274.9,100.2z"/>
	<path class="st95" d="M245,103c-1.7,1.2-3.4,0.7-5.2,0.2c-2.2-0.6-4.3-0.1-5.9,1.8c-1.4-0.1-2.4-0.8-3-2.1
		c-0.2-0.9,0.4-1.3,1.1-1.7c0.7-0.6,2.7-0.1,2.3-0.9c-2.2-4.7,1-3,3-2.8c4.1,0.2,7.9,1.8,11.9,2.3c1.5,1,2.8,2.7,1.5,4
		C249,105.7,246.9,103.5,245,103z"/>
	<path class="st96" d="M251,98.1c0.1-1.2,0.5-1.5,1.9-1.3c3.4,0.4,6.6,1.8,10.1,1.1c0,0.4,0,0.8,0,1.2c-2.6,2.6-6.2,0.7-9.1,1.9
		c0,0,0,0,0,0c-2.1,1-3.1,0.3-3-2C250.9,98.7,250.9,98.4,251,98.1z"/>
	<path class="st97" d="M231.9,102c-0.4,0.3-0.7,0.6-1.1,0.9c-1.4,0-2.4,0.7-2.9,2c-1,0.1-2,0.2-3,0.3
		C226.3,100.8,228.9,99.6,231.9,102z"/>
	<path class="st98" d="M231.9,102c-3.3-0.9-5.3,0.8-7,3.3c-6.8,3.9-13.5,7.8-20.9,10.6c-2.5-3-1.5-6.4-1.1-9.7
		c0.2-0.5,0.5-0.9,0.8-1.3c7.2-2.6,14-6,21-9c1.1-0.2,1.8-1.5,3.1-0.9c7,1.4,14,2.7,20.9,4.1c0.3,0.2,0.3,0.4,0.3,0.6
		c-0.1,0.2-0.2,0.3-0.2,0.3c-4.8-0.8-9.6-1.6-14.5-2.4c-0.5,2.3,1.9,2.5,2.8,4.4C235.3,102,233.6,102,231.9,102z"/>
	<path class="st99" d="M228,95c-0.7,0.7-1.4,1.3-2.1,2c-3.3-1.1-5.2,2.6-8.2,2.3c-3.5,0.5-6.5,2.4-9.8,3.6c-4,1.5-5,0.7-5.3-4
		c4.6-3.2,9.8-4.8,15.3-5.9C221.4,92.8,224.8,93.5,228,95z"/>
	<path class="st99" d="M194.8,94.2c0.4-0.4,0.7-0.7,1.1-1.1c1.6-1.8,3.6-1,5.6-0.8c2.3,0.2,4.7,1.5,7.9-0.4c-0.2,0.1-1.2-0.5-0.8,0
		c0.1,0.2,0.1,0.4-0.2,0.4c-5,1-9.7-0.5-14.3-2.2c0.6-0.6,1.1-1.3,1.7-1.9c7.2,1.3,14.3,2.4,21.3,4.6c-5,2.7-10.7,3.9-15.8,6.4
		C198.1,98.8,195.7,97.4,194.8,94.2z"/>
	<path class="st100" d="M248.9,99.9c0-0.3,0-0.6,0-0.9c0.7,0,1.4-0.1,2-0.1c0.6,1.2,1.5,2,3,2c-1.2,4.9,2.6,4.4,5.3,5
		c7.5,1.7,15.1,3.4,22.6,5c-3.2,2-5.9-0.5-8.8-1c-8.1-1.5-16.2-3.3-24.3-4.9c-1.5-0.3-2.9-0.6-3.8-2c1.6,0.3,3.2,0.6,5,0.9
		C250.6,102.3,249.4,101.2,248.9,99.9z"/>
	<path class="st101" d="M200.9,99c5.1-2.8,10.5-4.7,16.2-6.2c0.3,0.1,0.6,0.1,0.8,0.2c-4.6,3-9.9,4.1-14.8,6.1
		c-0.5,0.4-1.1,0.6-1.7,0.3C201.2,99.3,201.1,99.2,200.9,99z"/>
	<path class="st102" d="M65,128c-0.8-1.6-1.9-2.8-3.7-3.1c-0.3-2.2,1.7-2,2.9-2.5c7-3.3,14.5-5.4,21.7-8.1c4.9-0.4,8.6,3.1,13.1,3.9
		c4.5,2.2,9.1,4.1,13.7,6c2.5,1.1,3.7,2.6,0.5,4.4c-2.9,1.4-6,2-8.8,3.6c-2,2.9-0.7,6.1-1,9.2c-0.3,3.1-1.3,4.7-4.7,3.5
		c-4.1-1.5-7.9-3.5-11.6-5.7c-4.6-3.6-10.3-5.3-15.3-8.3C69.1,130.9,67.6,128.2,65,128z"/>
	<path class="st103" d="M98.7,145c2.5-0.3,3.5-1.3,3.6-4.2c0.1-3.3-2-7.2,1.7-9.9c0.3,0.4,0.5,0.8,0.6,1.3c-0.1,1.7-0.3,3.3-0.9,4.9
		c0.2,1.4,0,3,2.4,2c3.2-1.4,6.5-2.6,10.3-4.1c-3.3,1.1-5.9,2.5-8.8,3.3c-1.6,0.5-3.3,1.4-3.7-1.3c2.3-3.2,6.3-3.3,9.4-4.9
		c1.9-0.9,4-1.4,5.9-2.6c1.6-0.5,3-0.1,4.2,1.1c1.6,3.3,0.3,5.3-2.8,6.7c-1.5,0.7-3.1,1.3-4.6,1.7c-5.2,1.5-9.8,4.1-13.7,7.9
		C101,146.2,99.8,145.6,98.7,145z"/>
	<path class="st104" d="M102.2,146.8c2.8-8.3,11.3-7.5,17.3-10.4c2.8-1.4,3.9-2.6,3.3-5.4c0.7-0.8,1.6-0.8,2.6-0.6
		c2.6,4.3-0.7,6.3-3.4,8.5c-4.7,1.9-9.4,3.7-14,5.7c-1.5,0.6-3.2,1.3-1.9,3.5C104.7,147.6,103.5,147.2,102.2,146.8z"/>
	<path class="st105" d="M71.8,130.9c5.6,1.5,10.3,4.7,15.4,7.2c0.1,0.1-0.1,0.7-0.2,1.1C81.9,136.6,76.2,135,71.8,130.9z"/>
	<path class="st106" d="M139,148.9c-0.3-1.5,0.4-2,1.8-2.1c3-4.6,8.2-5.2,12.8-6.7c2.5,0.3,4.6,1.6,6.7,2.9c0.4,0.3,0.7,0.7,0.9,1.2
		c0,0.2-0.1,0.5-0.1,0.7C152.5,139.8,146.2,147.2,139,148.9z"/>
	<path class="st107" d="M186.8,156.2c-8.6-3.4-17.2-6.9-25.7-10.3c0-0.3,0-0.7,0-1c0,0,0,0.1,0,0.1c0.6-0.6,1.5-1,2.2-0.7
		c8.1,3.1,16.5,5.5,23.8,10.6C187.3,155.3,187.2,155.8,186.8,156.2z"/>
	<path class="st108" d="M154,141c-4.6,1.6-9.1,3.3-13.3,5.9c-0.5-5.5-2-6.7-8.7-6.8c1.1-3.7,4.8-3.4,7.4-4.8c1.8-1,3.8-1.5,2.7-4.2
		c1-1.3,2.3-1.6,3.8-1.4c1.3,2.2,2.9,3.4,5.5,1.7c0.8-0.5,1.9-0.2,2.8,0.3c0.9,0.8,1.3,1.9,1.6,3c0,1.6,0.9,2.6,2.3,3.3
		c1.2,0.6,2.8,1.3,1.9,3.2C157.9,142.9,156,140,154,141z"/>
	<path class="st109" d="M122,138.9c-0.1-0.2-0.2-0.4-0.2-0.4c2.1-2.1,2.9-5,4.2-7.5c2-1.8,4.5,0.9,6.5-0.9c1.8-0.1,3.5,0.3,4.7,1.8
		c0,3.5-4,2.5-5.2,4.6c-3,1.5-6,3-8.9,4.5C121.2,141.1,121.6,140,122,138.9z"/>
	<path class="st110" d="M56.1,119.9c-0.4,0-0.8,0-1.2,0c0.1-1,0.2-2,0.3-3c1-2.4,3-3.3,5.3-4.1c3.8-1.2,7.6-2.4,11.3-3.8
		c1.6-0.6,3.2-1.1,3.3-3.2c0.1-0.7,0.2-1.4,0.4-2c0.3-0.6,0.7-1.2,1.2-1.7c3.8-1.9,7.6,0.1,8.9,4.5c-0.1,2,0.1,4.1-0.8,6
		c-0.2,0.4-0.5,0.8-0.8,1.1c-6.2,3.4-13.2,4.7-19.8,7.2c-2.1,0.8-4.4,1.4-6.1,3c-0.8,0-1.6-0.1-2-0.9C56.1,122,56.1,121,56.1,119.9
		c7.9-3.9,16.7-5.2,24.8-8.5C72.8,114.5,64,115.9,56.1,119.9z"/>
	<path class="st111" d="M58.1,124c-1.3-2.7,1.2-2.5,2.5-3c7.8-2.7,15.7-5.2,23.5-7.8c1.1,0,2.2,0,2,1.6c-7.8,4.5-16.8,5.9-24.7,10
		C60.2,124.9,58.9,125.2,58.1,124z"/>
	<path class="st112" d="M137,132.2c-1.6-0.5-3.2-0.9-4.8-1.4c-3.6-1.1-8-0.9-9.7-5.5c1.3-3,4.8-2.6,6.8-4.5c0.1-0.7,0-1.4-0.5-2
		c-1-0.8-2.2-0.8-3.3-1.2c-0.6-0.3-1.1-0.8-1.4-1.4c-0.6-1.2-0.6-2.3,0.8-3c2-0.8,4.1-1.3,6.1-2.1c0.7-0.3,1.4-0.5,2.2-0.7
		c3.4-1,6.8-0.8,10.2-0.5c1.8,0.5,3.4,1.4,4.6,2.9c0.3,0.5,0.2,0.9,0,1.4c-1.8,1-3.7,0.8-5.7,0.2c1.9,0.8,3.7,0.8,5.6,0.2
		c3.8,0,7.6,0.1,11.3-0.6c2.9-0.6-0.8-1.6,0.3-2.2c0.1-0.5,0.3-0.9,0.7-1.2c2.6-0.9,5.4-1,8.1-0.9c3.3,0.6,6.6,1,9.6,2.7
		c0.6,0.5,0.8,1.2,0.7,2c-0.4,1.6-1.7,2-3,2.6c-1.1,0.5-0.2,0.8,0.3,1.1c0.3,0.1,0.7,0.3,0.8,0.6c0.1,1-1.1,2.5,1.4,2
		c1.7-0.3,3.6,0.2,5.2,1.1c0.9,0.5,1.6,1.1,2,2.1c-0.2,3.1-3.2,3.4-4.9,4.9c-3.8,2.2-7.5,5-12.3,3.6c-1.1,0-2,0.6-3,0.9
		c-0.9,0.1-1.7-0.2-2.5-0.6c-0.6-0.3-1.1-0.8-1.5-1.3c-2-1.9-4.1-2.3-6.3-0.6c-2.9,1.6-5.5-2-8.4-0.6c-1.4,0.3-2.7,0.5-4.1,0.8
		c-0.4,0-0.9,0.1-1.3,0.1C139.7,131.9,138.7,133.1,137,132.2z"/>
	<path class="st113" d="M137,132.2c1.2-0.4,2.5-0.7,3.7-1.1c-1.6,4-5.8,3.5-8.8,5.3C132.7,133.9,136.1,134.5,137,132.2z"/>
	<path class="st114" d="M215.9,156.8c0,0.4,0,0.8,0,1.2c-2.6,1.8-5.2,3.5-7.8,5.3c-1.4,1-2.8,1.1-4.3,0.5c-5.8-2.5-11.5-5-17.2-7.5
		c0.1-0.1,0.2-0.3,0.3-0.4c1.1-2.1-1-1.9-1.8-2.5c-1.3-1-3.6-1-3.4-3.4c0.5-0.4,1.2-0.8,1.7-0.6c4.6,1.8,4.8-0.6,4-4.1
		c0.2-1.5,0.9-2.8,2.3-3.5c1.5-0.1,2.2,0.7,2.5,2.1c-0.1,5.7-0.1,5.7,6.5,5.2c1,1.6,1,2.3-0.3,2.3c-1.6,0-2.8,0.7-2.9,2
		c-0.1,1.3,1.6,1.4,2.6,1.9c2.2,1.1,4.7,1.8,6.8,3c3.7,2.1,6.9,1.7,9.9-1.2C215.3,156.4,215.6,156.4,215.9,156.8z"/>
	<path class="st115" d="M188,179.2c-2.8,1.5-5.9,2-8.3-0.4c-1.6-1.5-1.1-4.2-0.4-6.1c1.2-2.8,3.7-4,6.8-3.8
		C190.6,173.2,190.8,174.2,188,179.2z"/>
	<path class="st116" d="M188,179.2c1.8-3.9,0.3-7.1-1.9-10.2C191.7,171.6,192.4,175.1,188,179.2z"/>
	<path class="st117" d="M212,132c7.2-0.3,13.7,1.5,19.3,6c1.9,1.5,3.5,2.3,5.8,1.5c0.9-0.3,2-0.5,2.9-0.4c8.7,1.1,16.4-1,22.9-6.9
		c0.3,0.2,0.4,0.4,0.3,0.7c-0.1,0.2-0.2,0.3-0.3,0.3c-4.7,4.9-11,7.7-16.1,12.1c-0.3,0.2-1.2-0.3-1.8-0.4c1.7-1.4,3.5-2.8,5.5-4.5
		c-5.3-1.3-9.9,0.5-14.6,0.6c-0.9,0-1.7,0.3-1.9,1.2c-0.3,1.3,0,2.3,1.4,2.7c0.9,0.3,2.1,0.6,1.6,2c-0.3,0.9-1.3,0.9-2.1,1
		c-2.3,0.4-4.5,0.8-6.8,1.2c-1.2-0.5-1.5-1.6-1.7-2.7c0-0.4,0-0.9,0.1-1.3c0.2-1.9,0.6-3.9-0.3-5.7c-5.6-1.1-10.9-3-16.3-4.7
		c-1.4-0.7-2.7-1.4-3.1-3.1C208.7,129,210.3,131,212,132z"/>
	<path class="st118" d="M269.9,128c3-3.6,6.8-6.2,11-8C278,123.6,274.2,126.2,269.9,128z"/>
	<path class="st119" d="M263,133.1c0-0.3,0-0.7,0-1c2.3-1.4,4.1-3.7,7-4.2C268.3,130.6,265.8,132.1,263,133.1z"/>
	<path class="st120" d="M199,148.9c-2.2,0.3-3.7,3.9-6,2.1c-2-1.6-3.1-4.3-1-7c1.6-2,1.2-4.4,1.6-6.7c-0.3-2.7,0.5-5.5-0.9-8
		c-0.8-1.7-0.5-3.3,0.8-4.7c0.8-0.6,1.6-1.1,2.7-0.7c1.5,1.9,1,4.3,1.4,6.5c0.5,2.6,1.3-0.9,1.9,0.1c1.7,0.4,2.4,1.6,2.4,3.2
		c-0.7,2.3,0.3,4.7-0.3,7c-2.6,1.2-1.9,4.3-3.3,6.1C198.3,147.5,198.7,148.2,199,148.9z"/>
	<path class="st121" d="M207,132c1,0.7,2,1.3,3,2c0.5,0.5,0.9,1,1.3,1.5c4.4,2.5,8.8,5,14.1,4.3c0.6-0.8,0.9-2,2.3-1.8
		c-0.1,2.7,1.2,5.6-0.8,8.1c-4-2.4-8.8-2.5-12.8-4.7c4,2.3,8.8,2.5,12.9,4.7c0.4,1.1,0.8,2.1,1.2,3.2c-0.1,0.2-0.2,0.5-0.4,0.7
		c-3.6-1-7.2-2-10.9-3c-3.5,0.4-6.4-0.9-9.2-2.7c0-3.9-0.7-7.7-1.2-11.5C206.6,132.3,206.8,132.2,207,132z"/>
	<path class="st3" d="M207.5,143.9c3.3,0.3,6.4,1.4,9.3,2.9c-0.3,1,2.3,0.8,1,2.3c-1,0.4-2.4,0.4-2.8,1.8c-1.8,2-2.8,1.1-3.3-1
		c-1-2.6-3.8-2.6-5.8-3.8c-0.4,0-0.7,0-1.1-0.1c-0.1-0.2-0.1-0.5-0.2-0.7C205.3,143.9,206,143.2,207.5,143.9z"/>
	<path class="st122" d="M200.9,141c0-2.4-2.4-4.9,0.3-7.2c0.5-0.7,0-2.2,1.6-2c0.7,0.4,1.1,1.1,1.3,1.9c0.8,4-1.3,8-0.3,12.1
		c0.3,1.2-0.4,2.6-1.9,3.1c-2.2,0-1.9-1.5-1.9-2.9C199.2,144.1,199.6,142.5,200.9,141z"/>
	<path class="st3" d="M201.8,148.8c0.4-5.3,0.8-10.6,1.2-15.9c0.6-0.3,1.1-0.2,1.5,0.4c1.8,4.1,0.6,8.4,0.5,12.6c0,0,0,0,0,0
		C203.8,146.8,204.8,149.9,201.8,148.8z"/>
	<path class="st123" d="M200.9,141c0.2,1.7,0.4,3.5-1,4.9c-0.6,0.3-1.3,0.6-1.9,0.9c0-1.7-0.1-3.3,0-5
		C198.1,138.6,199.7,140.5,200.9,141z"/>
	<path class="st124" d="M215.9,156.8l-0.5,0.1c0,0-0.5,0-0.5,0c-3-1.3-5.9-2.7-8.9-4c-0.5-0.7-0.1-1,0.6-1.1
		C209.4,154.2,213.9,153.3,215.9,156.8z"/>
	<path class="st125" d="M215.1,150.8c-0.8-3.3,1.4-1.9,2.8-1.8c0.8,1.2,2.7,1,3.3,2.6C218.9,152.5,217.2,150.7,215.1,150.8z"/>
	<path class="st126" d="M206,146c2.6,0.2,5.9-0.6,5.8,3.8C209.9,148.6,207.2,148.4,206,146z"/>
	<path class="st127" d="M206.7,151.8c-0.2,0.4-0.4,0.7-0.6,1.1c-0.2,0.7-0.2,1.7-0.7,2.2c-0.5,0.5-1.2-0.2-1.3-0.9
		c-0.1-1.3-0.9-3,0.9-3.8C205.8,150,206.3,151,206.7,151.8z"/>
	<path class="st128" d="M76.1,106c0.4,2.7-1.2,3.3-3.4,4.1c-5.8,2.3-12.3,2.9-17.4,6.8c-0.7-1.7,1.4-4.6-2.2-5.1
		c-0.4-0.3-1.1-0.4-1.1-1.1c2.9-2.2,7-2.5,9.2-5.7c0.8,1.3,3.6,0.6,3.1,3.2c-1.7,0.8-3.7,1.2-5.3,1.9c4.4-1.1,8.4-3.6,13-4.3
		C73.3,105.5,74.7,104.8,76.1,106z"/>
	<path class="st129" d="M51.8,110.7c0.4,0.4,0.8,0.7,1.1,1.1c-3.3,1-6.6,2.1-9.9,3.1c-0.4-0.3-0.7-0.7-1.1-1
		C44.8,111.5,48.6,112,51.8,110.7z"/>
	<path class="st98" d="M144.1,79c3.8-0.4,7.5,0.6,11.2,1.4c1.7,0.4,3.2,0.5,4.7-0.4c-0.2,1.4-1,2-2.3,2c-7.4,0.2-14.5,3.4-22,2.1
		c-0.5-0.1-1.1,0.6-1.7,0.9c-5.8,3.5-12.6,4-19,5.7c-1,0.3-2.2,0.1-2.9,0.7c1.6,0,3.4-1.7,4.9,0.6c-2.8,2.6-6.9,1.1-9.9,3
		c-1.7-1.6-1.4-3.4-0.9-5.4c1.3-2.3,3.8-2.5,6-2.8c5.1-0.7,9.7-3,14.7-3.9c2.6-0.5,3.4-3.5,6-4.1c1,0.4,2.1,0.7,3.1,1.1
		C138.6,78.5,141.6,81.1,144.1,79z"/>
	<path class="st130" d="M122.2,99c1.5-1,3-1.9,4.9-1.1c5.2-3.4,11.3-4.1,16.9-6.3c3.3-1.3,6.8-2.4,10.3-3.4c1.5-0.5,3.1-1.6,4.2,0.6
		c-0.1,2-1.6,2.9-3.1,3.4c-12.1,3.8-23.7,9-35.9,12.4c-1.6,0-3.1-0.3-4.3-1.5C116.1,99.3,120.1,100.7,122.2,99z"/>
	<path class="st131" d="M117,92c-2.8-1.3-5.3,0.9-8.2,0.3c8-3.7,16.8-4.8,25.2-7.3c0.4,1.4,0.5,1.5-0.2,1.7c-4.1,1.4-8.2,3.2-12.4,4
		C119.8,91,118.6,92,117,92z"/>
	<path class="st132" d="M158,88.9c-1.6-1.6-3.1-0.3-4.6,0.2c-8.8,2.9-17.6,5.9-26.4,8.8c0-2.2,2-2,3.2-2.5c8.3-2.9,16.7-5.6,25-8.4
		c1.9-0.7,3.4-0.8,4.7,1.1c1.4-0.8,2.2-0.7,2,1.2C160.6,90.2,159.2,90.1,158,88.9z"/>
	<path class="st133" d="M167,87.2c5.4,1.6,11,2.9,16.6,3.5c2,0.2,2.3,2,3.2,3.3c-0.6,0.7-1.4,0.9-2.2,0.9
		c-6.1-1.4-12.1-3.2-18.2-4.5c-1.7-0.4-3.8-0.6-3.4-3.2C164.4,87.1,165.7,87.2,167,87.2z"/>
	<path class="st134" d="M163.1,87.1c0.6,1.8,2.1,1.7,3.5,2c6.2,1.4,12.4,2.5,18.3,4.9c0.3,0.6,0.2,1-0.3,1.4
		c-7.5,0-14.4-2.8-21.5-4.5c-0.8-0.2-1.4-0.9-1.2-1.9c-0.4-0.8-1.2-0.9-2-1C160.7,86.8,162,87,163.1,87.1z"/>
	<path class="st135" d="M107.1,89c0,2,0,4,0,6.1c-0.1,0.2-0.2,0.5-0.2,0.8c-2.1,0.2-2.3-1.8-3.4-2.9c0.3-2.3-2.5-4.9,0.5-7.1
		c2,0.3,2.3-1.1,1.9-2.4c-0.8-2.5,0-4.8,0.4-7.1c0.5,0.3,0.9,0.5,1.4,0.8c-0.2,0.6-0.3,1.3-0.5,1.9c1.4,1.8,1.1,3.9,1.2,5.9
		C108.4,86.4,108.8,88,107.1,89z"/>
	<path class="st136" d="M122.2,99c-1.9,2.3-5.4,1.6-7.2,4c-0.2,0.1-0.3,0.3-0.5,0.4c-1.7,0.8-3.8-0.5-5.5,0.9
		c-0.4,0.1-0.9,0.1-1.3-0.1c-2.6-1.6-4.4-3.5-2-6.6c1.7-0.2,2.6,0.8,3.1,2.3C113.5,102.5,117.8,98.9,122.2,99z"/>
	<path class="st137" d="M108.9,99.9c-1-0.7-1.9-1.5-2.9-2.2c-2.5-0.8-3.5-2.2-1.9-4.7c2.5-0.6,1.3,2.4,2.8,2.8
		c2.1-0.2,2.9,1.9,4.8,2.5C110.6,98.9,109.7,99.4,108.9,99.9z"/>
	<path class="st100" d="M107.2,86c0-2.3,0-4.7-0.1-7c6.9,1.7,13.3-0.9,19.7-2.6c2.2-0.6,3.3-0.7,4.1,1.5c0.4,2.1-1.3,3.4-2.6,3.7
		C121.4,83.2,114.7,86.4,107.2,86z"/>
	<path class="st138" d="M107.2,86c5.2-1.5,10.3-3.3,15.7-4c3.1-0.4,6.2-1.1,8.1-4c0.6,0.3,1.3,0.6,1.9,1c-1.3,3.7-4,4.9-7.8,5.8
		c-6,1.5-11.8,3.6-18,4.3C107.1,88,107.2,87,107.2,86z"/>
	<path class="st139" d="M144.1,79c-2.4,2.8-5.3,1.8-8.1,0.9c0.2-2.3,1.8-2.1,3.3-1.7C140.9,78.8,142.5,79,144.1,79z"/>
	<path class="st40" d="M185.9,86c-3,2.7-5.9-0.8-8.9-0.1C180,84.4,183,83.1,185.9,86z"/>
	<path class="st140" d="M191.9,92.1c0,0.3,0.1,0.6,0.2,0.9c0.4,1,0.5,2-0.8,2.3c-1.1,0.3-1.8-0.3-2.2-1.4c-0.9-1.1-1.8-2.2-2.8-3.5
		C188.9,89.1,190.3,91,191.9,92.1z"/>
	<path class="st40" d="M189.1,94c1.4,1,2.8,1.8,3-1c1,0.7,0.8,1.8,0.8,2.8c0.8,0.6,1.6,1.2,1,2.4c-0.4,0.3-0.9,0.4-1.4,0.4
		c-2.6-1.1-5.5-1.5-7.6-3.8c0-0.3,0-0.6,0-0.8c0.6,0,1.2,0,1.9-0.1C187.6,93.9,188.3,93.9,189.1,94z"/>
	<path class="st87" d="M194.1,90.1c5.2-0.5,9.9,1.7,15.5,2.2c-4.8,3.7-9.3-0.1-13.7,0.8C194.7,92.4,193.9,91.5,194.1,90.1z"/>
	<path class="st141" d="M193.8,98.1c-0.3-0.8-0.6-1.5-0.9-2.3c1.4,0.3,1-1.4,1.9-1.6c2,1.6,4.1,3.2,6.1,4.9c0,0,0.1-0.1,0.1-0.1
		c0.2,0.2,0.3,0.5,0.3,0.8c0,0.3-0.1,0.4-0.1,0.4c-0.8,0.9-1.9,1.3-3.1,1.5c-0.5,0-0.9-0.1-1.3-0.2
		C195.5,100.6,193.8,100.1,193.8,98.1z"/>
	<path class="st142" d="M77.1,103c-0.3,0.4-0.7,0.7-1,1.1c-4.5,1.7-8.4,0.3-12.1-2.2c-0.4-0.3-0.7-0.7-0.9-1.1c0-0.2,0-0.4,0-0.7
		c1-2.5,4.4-2.6,5.4-5.2c1.4-0.6,0.9-2.1,1.3-3.1c0.6-0.7,1.4-1.1,2.3-1.4c0.5-0.1,0.9-0.1,1.4,0c3.7,0.5,7.3,1.5,11,2.3
		c3.3,0.7,6-2.1,9.1-0.4c0.4,0.2,0.7,0.6,0.9,1c0,2.8,1.8,4.9,3.2,7.1c2.3,2.3,2.8,4.4-0.5,6.2c-2.8,0-5.7,0.2-7.7-2.4
		c-0.3-1.2,0-2.2,1.8-3.4c-5.9,1.1-10.9-0.4-15.8,0.2C76.4,101.4,77.5,101.6,77.1,103z"/>
	<path class="st143" d="M69.3,95c0,4.2-4,3.6-6.2,5.1c-1.2-0.6-0.4-1.4-0.2-2.2c-3.2-5.6-8.5-3.6-13.3-3.8c-0.6-0.5-1-1.1-0.8-2
		c6-2,12.3-3,18.5-4c1.3,0.2,2.6,0.5,3.8,1c0.7,0.5,1.3,1,0.9,1.9C71.7,92,70.9,92,70,92c-0.9,1.1-2,1.5-3.1,1.4
		c-0.9-0.1-0.3,0.6-0.2,0.5C68,93.2,69.1,93.1,69.3,95z"/>
	<path class="st144" d="M50.2,94.1c3-1.6,5.9-1.8,9.3-0.9c2.8,0.8,3.5,2.3,3.4,4.7c-2.4,0.7-4.3,3.2-7.2,2.2
		c-0.9,0.7-1.8,0.7-2.9,0.4c-1-0.3-1.9-0.8-2.6-1.6C49.1,97.4,48.4,95.8,50.2,94.1z"/>
	<path class="st2" d="M53,99.9c0.9,0.1,1.8,0.2,2.8,0.3c-1.7,3.6-6,1.1-8.3,3.7c2.7,1.1,5-1.5,7.6-0.3c-4.6,1-8.9,4.2-14,2.4
		c-0.9-0.5-1.8-1.1-0.9-2.4C44.2,101.5,48.5,100.3,53,99.9z"/>
	<path class="st143" d="M64,101.1c3.8,2,7.9,2.6,12.1,3c0,0.6,0,1.3,0,1.9c-1.4,0.3-2.8,0.6-4.1,0.9c-2.8-0.8-5.2,1.7-8,0.9
		c-0.7-1.2-3.2-0.6-2.9-2.8c0.4,0.1,0.8,0.1,1.3,0.2C66.6,105.4,62.7,102.2,64,101.1z"/>
	<path class="st145" d="M40.1,104c0.3,0.6,0.7,1.3,1,1.9c-5,1.1-9.7,3.9-15,3.1c-1.1-0.1-2-0.4-2-1.7c0-0.4,0-0.8,0-1.2
		c3.9-0.2,7.6-1.6,11.5-2.4C37.1,103.4,38.7,102.6,40.1,104z"/>
	<path class="st146" d="M24,107.3c0.7,0.6,1.3,1.2,2,1.7c-0.8,1.9-2,1.7-3.4,0.8c-1.2-0.8-1.9-1.7-0.5-3
		C22.8,106.9,23.4,107.1,24,107.3z"/>
	<path class="st147" d="M64,101.1c0.1,2.1,1,3.3,3.4,3.4c-1.9-0.2-3.3,1.8-5.1,0.6c2.1-1.1-0.9-3.2,0.8-4.4
		C63.4,100.9,63.7,101,64,101.1z"/>
	<path class="st148" d="M68.1,89c-6.5,0.4-12.8,2.1-19.1,3.9c-0.3,0.4-0.7,0.8-1.2,1c-2.7,0.6-5.4,1.1-8,2.1
		c-3.9,0.6-7.7,1.7-11.6,2.1c-0.8-0.1-1.6-0.3-2.2-0.9c-1.4-0.2-2.3-1-3.1-2.1c5.9,0.4,11.4-1.6,17.1-2.5c12.4-2,24.5-5.4,37-6.5
		c0.5-0.5,0.9-0.4,1.3,0.1c-0.7,2.7-3.3,1.9-5,2.7C71.5,89.1,69.8,88.9,68.1,89z"/>
	<path class="st30" d="M72.9,87.8c1.4-1.6,3.9-0.1,5.2-1.8c4.5-0.8,8.9-3,13.7-2.2c3.4-0.6,6.9-1.2,10.3-1.8c0,0,0,0,0,0
		c1.1,2.6-0.6,4.3-1.8,6.2c-0.7,0.4-2,0.8-2.3,0.3c-2.1-4-5.1-2.1-8-1.5c-4.9,1-9.8,2.1-14.7,2.5C74.2,89.3,73.3,88.9,72.9,87.8z"/>
	<path class="st80" d="M91.7,83.8c-4.7-0.2-8.9,2.5-13.7,2.2c-0.4,0-0.7,0-1.1,0C81.8,84.5,86.4,82.1,91.7,83.8z"/>
	<path class="st99" d="M39.9,94.8c2.6-1.4,5.3-2,8.2-1.7c2.9,4.8,1.6,6.6-5,7c-5.4-0.1-10.3,2.2-15.5,2.8c-1.7,0.2-4.3,3.2-5.6-0.9
		c-1.1-3.7,1.6-4,3.9-4.7c0.7,0,1.5,0,2.2,0c3.6,0.4,7.2-1,10.9-0.4C40,96.8,40.9,96,39.9,94.8z"/>
	<path class="st149" d="M40.1,104c-3.6,0.8-7.3,1.5-10.9,2.5c-1.9,0.6-3.5,0.3-5.2-0.5c4.1-2.9,9-2.7,13.5-4c2.2-0.6,4.6-0.6,6.5-2
		c2.4-0.2,4.5-2.5,7.1-1c0.8,0,1.4,0.2,1.8,0.9C49.1,102.5,44.4,102.7,40.1,104z"/>
	<path class="st65" d="M51.3,99c-2.4,0.3-4.8,0.7-7.1,1c0,0-0.5,0-0.5,0s-0.5,0-0.5,0c2.3-1.9,8.4-1,5-7c0.3,0,0.6-0.1,0.9-0.1
		c0.4,0.4,0.8,0.8,1.3,1.3C49.9,95.9,50,97.6,51.3,99z"/>
	<path class="st150" d="M100,88c-0.4-2.4,1.9-3.8,2-6c0.7,1.3,3.3,1.6,1.9,3.8c-0.2,2.4,1.3,4.7,0.1,7.1c-0.3,2,0.8,3.3,1.9,4.7
		c-1.4,2.8,0.6,4.4,2.3,6.1c1.3,1.4,2.2,2.9,1.5,4.9c-0.3,0.7-0.8,1.2-1.5,1.6c-0.6,0.2-1.5,0.2-1.8-0.4c-1.5-3-3.7-2.1-5.9-1.1
		c-1.7-0.2-2.9-0.8-2.8-2.8c1.5-1.9-0.1-3.3-0.8-4.9c1.6-2.2,1.3-4.9,1.7-7.4c0-1,0-1.9,0.1-2.9C98.9,89.7,99.3,88.8,100,88z"/>
	<path class="st151" d="M242.9,126c-1.2,4-3.9,5.8-7.9,4.3c-2.7-1-5.1-2.8-2.8-6.4c2.8-2.1,5.6-1.5,8.5-0.2
		C241.6,124.3,242.1,125.2,242.9,126z"/>
	<path class="st121" d="M203.9,132.9c-0.3,0-0.6,0-0.9,0c-0.3-0.3-0.6-0.5-0.8-0.8c-1.5-0.9-2.3-2-1.2-3.7c1.2-1.8,2.9-2.8,5.1-1.5
		c-0.3,2.5,1.8,2.3,3.2,2.8c1.2,0.4,2.7,0.3,2.8,2.1c-1.7,0.4-3.4-2.5-5.1,0c0,0,0,0,0,0C206.1,132.6,205,132.8,203.9,132.9z"/>
	<path class="st152" d="M240.8,125c-2.7-1.7-5.7-0.7-8.6-1c-2.7-2.8,0-3.7,1.8-4.9c1.4,1.2,3.4,0.9,5,1.9
		C240.4,121.9,242.3,122.6,240.8,125z"/>
	<path class="st153" d="M240.8,125c0.4-2.2-1-2.6-2.8-3.2c-1.5-0.5-3.8-0.2-4-2.7c6.7-0.2,8.8,1.5,8.9,7
		C242,126,241.1,126,240.8,125z"/>
	<path class="st154" d="M206.1,127c-3.3,0.2-5.7,1.1-3.9,5.2c-0.3,0.5-0.7,1.1-1,1.6c-0.2-1.2-0.7-2.3-2-2.9c-1.1-4.2,0-5.4,4.7-5.1
		c0.7,0,1.4,0,2.2,0C206.8,126.2,207.1,126.6,206.1,127z"/>
	<path class="st125" d="M203.9,125.8c-2.7,0.7-5,1.7-4.7,5.1c-1.1,0.8-2.4,2.2-2.9-0.4c-0.4-2.2-0.4-4.5-0.5-6.7
		c-0.4-0.4-0.6-0.8-0.8-1.3c-0.7-2.9,0.1-5.9-0.8-8.7c-2-5,0.7-8.8,3.5-12.5c1.1-0.4,2.1-0.8,3.2-1.2c2.2,0.9,3.1,2.8,3.2,5
		c0,3.6,0,7.2,0,10.9C204,119.2,204,122.5,203.9,125.8z"/>
	<path class="st125" d="M217.8,98.8c2.8,0,4.8-4,8.1-1.8c-6.1,2.6-12.1,5.3-18.2,7.8c-0.9,0.4-1.9,1.6-3,0.2
		C208.2,101.1,213,100,217.8,98.8z"/>
	<path class="st155" d="M217.8,98.8c-4.3,2.2-9.2,3.2-13.1,6.2c-0.2,0-0.4,0-0.6,0c-1.1-1.7-2.2-3.3-3.2-5c0.1-0.3,0.1-0.7,0.2-1
		c0.7,0,1.4,0.1,2.1,0.1c0.2,3.5,1.6,4,4.8,2.6C211,100.3,213.9,97.7,217.8,98.8z"/>
	<path class="st156" d="M215,54c-0.2-0.2-0.4-0.4-0.6-0.6c0,0,0.2-0.2,0.3-0.3c0,0,0.4-0.1,0.4-0.1C215.3,53.4,215.3,53.7,215,54z"
		/>
	<path class="st157" d="M123.1,125.4c2.2,3.2,6.5,3,9.2,5.4c-2,2.8-4.1,0.6-6.2,0.1c-1.1,0-2.1,0-3.2,0c-1.1-0.7-2.3-1.1-3.6-0.9
		c-0.5-0.3-0.7-0.9-1.1-1.4c-1.4-0.6-2.9,0.5-4.3,0c-0.4-0.2-0.7-0.4-1-0.8c1.2-0.9,1.8-1.6-0.3-2.4c-4.7-1.8-9.5-3.4-13.8-6.2
		c0.1-0.2,0.2-0.4,0.4-0.6c4.6-1,8,2.2,12,3.5c1.8,0.6,3.7,2.6,5.7,0.3c2.4-0.4,4.6,0,6.5,1.6C123.6,124.5,123.5,125,123.1,125.4z"
		/>
	<path class="st158" d="M86,114.9c-0.7-0.5-1.3-1.1-2-1.6c0.1-0.5,0.1-0.9,0.2-1.4c1-0.3,1.9-0.2,2.8,0.1c4,2.4,9.4,2.2,12.1,6.8
		c-0.1,0.1-0.3,0.3-0.4,0.4C94.6,117.8,90.3,116.3,86,114.9z"/>
	<path class="st159" d="M104,131.8c0-0.3-0.1-0.6-0.1-1c3-1,6-2,9-3.1c0,0,0.1,0.2,0.1,0.2c-1,4.4-5.5,3.5-8.1,5.3
		C104.1,133.1,103.4,132.9,104,131.8z"/>
	<path class="st160" d="M104,131.8c0.4,0.3,0.8,0.6,1.1,0.9c4.8-2,9.4-4.7,14.8-5c-0.2,0.8-0.5,1.5-0.7,2.3
		c-4.5,3.6-10.3,4.4-15.3,6.9c-0.3,0.5-0.5,0.5-0.7,0C103.3,135.2,102.5,133.3,104,131.8z"/>
	<path class="st104" d="M103.2,136.9c0.2,0,0.5,0,0.7,0c2.1,2.4,4,0,5.8-0.5c3.3-0.8,6.2-2.9,9.6-3.3c0.2,0.4,0.3,0.8,0.5,1.2
		c-5.1,2-10,4.2-15.2,5.7C101.8,140.8,103.8,137.9,103.2,136.9z"/>
	<path class="st161" d="M181.7,149.9c1.9,1.7,4.3,2.4,6.6,3.3c0.7,0.3,1.7,0.8,1.4,1.8c-0.4,1.3-1.6,0.8-2.5,0.8
		c-8.4-4.4-17-8.3-26.1-10.8c-0.3-0.4-0.6-0.7-0.9-1.1c-0.6-0.5-0.7-1.1-0.5-1.8c0.4-0.5,0.9-1,1.4-1.4c1.1-0.3,2.1,0.1,3.2,0.3
		c0.4,0.1,0.8,0.3,1.2,0.4c0.8,0.4,1.5,0.8,2.2,1.4c2.1,2.1,4.9,2.5,7.6,3.2C177.5,147,180.1,147.6,181.7,149.9z"/>
	<path class="st162" d="M160,141.9c0,0.7,0,1.3,0.1,2c-2-1-4-2-6-2.9c2-2.2,4,0.7,6,0c0.3,0.2,0.4,0.4,0.3,0.7
		C160.2,141.8,160.1,141.9,160,141.9z"/>
	<path class="st163" d="M160,141.9c0-0.3,0-0.7,0-1c-0.7-1.8-2.4-1.9-3.9-2.4c-2.2-0.8-2-2.1-1-3.7c2.5-1.3-1.1-1.4-0.4-2.3
		c0-0.5,0.2-0.9,0.7-1.1c2.2-0.1,4.3-1.4,6.6-0.5c0.3,0.3,0.6,0.7,0.9,1c-0.2,3.1,2.3,6.7-1.7,9C160.8,141.3,160.4,141.6,160,141.9z
		"/>
	<path class="st164" d="M146.2,130.2c1.1-2.2,2.7-1.5,4.4-0.9c1.1,0.4,2,2.1,3.4,0.6c1.7,0,1.7,0.8,0.9,2l0-0.1
		c-0.3,0.5-0.6,0.6-0.9,0.1c-2.8-0.4-4.8,1.9-7.4,2.3C145.1,133.1,147.5,131.5,146.2,130.2z"/>
	<path class="st161" d="M154,132c0.3-0.1,0.6-0.1,0.9-0.1c0.8,1.9,3.8,1.3,4.4,3.6c-1.6,1-2.9,0-4.2-0.7
		C154.8,133.9,154.4,132.9,154,132z"/>
	<path class="st165" d="M77.1,103c-0.9-1.7-3.3-0.4-4.4-2.6c7.4,0,14.5,0,22.1,0c-0.9,2.6-4.8,0.5-4.7,3.6c-0.6,1.4,0.4,3.2-1.1,4.3
		c-1.8,0.8-3.1,0.3-4.1-1.3C83.9,103.6,79.7,101.5,77.1,103z"/>
	<path class="st166" d="M56.1,119.9c2.3-4,6.8-3.2,10.3-4.5c5.2-2,10.4-3.8,16-4.4C74,114.9,65,117.3,56.1,119.9
		C56.2,119.9,56.1,119.9,56.1,119.9z"/>
	<path class="st167" d="M84.8,107.1c1.4,0.3,2.8,0.6,4.2,0.8c2.8,0.3,5.4,1,7.4,3.3c0.1,0.4,0.2,0.9,0.1,1.4c-0.2,0.4-0.5,0.7-1,0.8
		c-1.5,0-3,0.5-4.5,0.4c-1.6,0-2.9-1.9-4.7-1.1c-0.7-0.3-1.4-0.6-2.1-0.9C84.4,110.3,84.6,108.7,84.8,107.1z"/>
	<path class="st168" d="M185,94.8c2.8,0.6,5.6,1.2,7.9,3.2c-0.3,2-0.5,4.7-2.5,5.1c-7.3,1.4-13.6,5.9-21,6.8c-3.2-0.5-6.2,0.7-9.2,1
		L160,111c-2.2,5-5.9,1.3-8.9,1.5c-1.2-0.3-2.2-0.8-1.7-1.7c0,0.3-0.4,1.2-1,1.9c-0.2,0.1-0.4,0.2-0.6,0.3c-1.7,0.1-2.5-1.5-3.9-2.1
		c-3.5-0.6-7-1.5-10.5-0.3c-3.4-0.7-7.5,0.5-9.5-3.8c0.4-0.3,0.8-0.4,1.3-0.5c0.2,0-0.2-0.2-0.3-0.2c-2.1-0.3-4.6,0.1-5.8-2.4
		c11.4-4.2,22.7-8.7,34.3-12.2c1.7-0.5,3.5-1.1,4.6-2.7c1.3,0,2.6,0.1,4,0.1C169.5,91.7,177.3,93,185,94.8z"/>
	<path class="st169" d="M197.7,101.2c1.8,3.1-3.6,3.9-2.3,7.2c0.2,0.5-0.3,3-0.2,4.6c0.9,3.3-0.3,6.8,0.7,10.2
		c-0.1,0.2-0.1,0.3-0.1,0.5c-0.6,0.5-1.1,1-1.7,1.4c-0.7-0.1-1.2-0.5-1.5-1.1c-0.2-0.4-0.3-0.8-0.3-1.2c-1-1.3-0.8-3.1-1.8-4.5
		c-3.2,0.5-5.1,2.9-7.6,4.4c-1.1-0.3-2.3-0.9-3.3-0.8c-2.7,0.3-4.3-0.5-4.6-3.3c-0.2-1.9,1.1-2.2,2.5-2.4c1.1,0.6,1.9-0.1,2.7-0.5
		c2.9-1.7,6.4-1.7,9.1-3.6c-1.3,0.6-2.5,1.6-4.1,1.4c-1.1-2.2-1.1-2.1,1.5-3.9c2.2-1.5,5.4-2.4,4-6.3c1.6-2,3.6-3,6.2-2.4
		C197.2,101.2,197.4,101.2,197.7,101.2z"/>
	<path class="st3" d="M180,116.9c-0.7,0.2-1.4,1.2-2.2,0c-0.5-0.7,0.1-1.4,0-2.1c0-0.7,0.1-1.3,0.1-2c-1.5-1.2-4.8-0.6-4.8-2.4
		c0-2.8,3.4-2.7,5.4-3.2c4.2-1,7.7-4.6,12.5-3.5c2.5,1.8,2,3.4-0.4,4.8c-2,1.2-4.1,2.5-6.1,3.8c0,0,0,0.3,0.1,0.4
		c0.1,0.1,0.2,0.2,0.4,0.3C184.3,115.7,181.1,114.9,180,116.9z"/>
	<path class="st170" d="M109,109c-0.2-1.7-0.5-3.5-0.7-5.2c0.3,0.1,0.5,0.2,0.8,0.3c0.4-0.3,0.8-0.5,1.4-0.5c3.3,0.9,6.7,1.6,10,2.7
		c3,1.2,5.6,3.2,9,3.5c1.1,0.1,2.1,0.9,1.6,2.4c-1.8,1.4-3.9,2.1-6.2,1.8C118.5,115.8,113.3,113.9,109,109z"/>
	<path class="st87" d="M141.3,127.9c-1.4,0-2.1,0-2.8,0c-1,0-2.2,0-2.2-1.3c-0.1-1.4,1.1-1.5,2.1-1.5c2.8-0.1,5.7-0.2,8.5-0.1
		c6.5,0.3,12.9-0.7,19.4-0.9c1.2,0,3.1-0.3,3,1.6c-0.1,1.4-1.7,1.3-2.9,1.3C157.7,127.2,149.1,126.4,141.3,127.9z"/>
	<path class="st171" d="M167,130.9c5.1,2.2,8.9-1.2,13-3c2.3-0.9,4.5-0.5,6.6,0.4c0.4,0.3,0.6,0.7,0.7,1.2c-0.4,1-1.3,1.9,0.3,2.7
		c1.2,0.6,2,1.6,1.7,3.1c-0.5,1-1.4,1.4-2.4,1.6c-2.4,0.2-4.5-0.7-6.7-1.4c-3-0.9-6-1.5-9.2-0.6c-1.7-0.1-3.2-0.5-4.4-1.8
		C166.3,132.4,166.4,131.7,167,130.9z"/>
	<path class="st83" d="M191,103.8c-6.1,1.2-11.4,4.9-17.9,5.9c1.7,2,4.2,1,4.9,3.1c-3.4-0.2-6.7-1.1-9.9-2.3c0-0.5,0.2-0.8,0.7-1
		c4.3-1,7.9-3.6,12.2-4.7c1.5-0.4,3.2-0.9,4.9-1.4c3-0.9,5.8-2.2,7.1-5.5c0.3,0.1,0.6,0.1,0.9,0.1c0.9,1.2,2.8,1.3,3.1,3.1
		C195.2,102.5,192.5,101.9,191,103.8z"/>
	<path class="st172" d="M151,111.9c0.8-1.2,2.2-1.4,2.9-0.7c2.3,2.6,4.1,1.2,6.1-0.3c0.1,3.2,3.4,1,5,3.5c-5.9,0.6-11.3,2.6-17,0.6
		c-0.5-0.4-0.5-0.9,0-1.3c0-0.3-0.1-0.6-0.1-0.8c0,0,0.5-0.1,0.5-0.1C148.9,111.9,150.3,112.7,151,111.9z"/>
	<path class="st110" d="M183,122.9c0.7-4,4.5-4.4,7.3-5.9c1.9-1.1,1.8,0.8,2,1.7c0.4,1.4,0.5,2.9,0.8,4.3c-2.4,2.4-5,4-8.2,1.1
		C184.2,123.6,183.6,123.2,183,122.9z"/>
	<path class="st71" d="M184.9,124c2.9,1.2,5.4-0.9,8.2-1.1c0,0.3-0.1,0.6-0.1,0.9c-1.1,2.7-2.4,5.2-5.9,5.1
		c-2.4,0.4-4.7-0.4-6.9-0.9C181.2,126.1,184.2,126.5,184.9,124z"/>
	<path class="st173" d="M167,130.9c0,0.6,0,1.3,0.1,1.9c0.1,1.5,1.5,2.7,1,4.3c-0.1,3.3,3.1,2.1,4.5,3.3c1.8,1.4,6,1.8,5,4.2
		c-1.2,2.7-4.3-0.2-6.5-0.6c-2.1-0.4-3.5-2.5-5.9-1.9c-0.4-0.1-0.8-0.1-1.1-0.2c-0.8-3.1-1.5-6.3,0.9-9.1
		C165.6,132.2,166.3,131.6,167,130.9z"/>
	<path class="st174" d="M109,109c2.6-0.4,3.4,2.4,5.6,3.1c3.4,1.1,6.8,1.2,10.2,1.8c-1.3,0.8,0.4,1.4,0.1,2.1
		c-0.3,0.7-0.7,1.3-1.5,1.5c-5.6-1.2-11-2.8-15.6-6.2c-0.2-0.5-0.2-1,0.2-1.4C108.3,109.6,108.7,109.3,109,109z"/>
	<path class="st175" d="M168.2,114.2c1.5,2.5,3,5,4.4,7.5c0.2,0.4,0.1,1.4-0.2,1.8c-0.5,0.6-1.3,0.2-1.6-0.4
		C169.3,120.4,167.3,118,168.2,114.2z"/>
	<path class="st176" d="M147.9,113.8c0,0.4,0,0.9,0,1.3c-2.6,2.8-5.4,0.4-8.2,0.4c-0.2,0-0.6-0.8-0.5-1.2c0.1-1,1-1.3,1.8-1.2
		C143.4,113.3,145.7,113.6,147.9,113.8z"/>
	<path class="st177" d="M133.1,126.5c0.5-3.6,0.8-6.2,1.2-8.7c0.1-0.8,0.6-1.7,1.7-1.4c1.1,0.3,1,1.3,0.7,2
		C135.5,120.7,136.7,123.8,133.1,126.5z"/>
	<path class="st165" d="M154.9,131.9c-0.1-0.8-0.1-1.6-0.9-2c3.1-3.1,5.6-1.9,8,1C159.8,132.5,157.4,132.5,154.9,131.9z"/>
	<path class="st178" d="M164.9,132.9c-1.5,2.9-0.4,6.1-0.9,9.1c-0.9-0.3-1.8-0.6-2.8-0.9c2.5-2.6-1-6.4,1.7-9
		C163.5,132.3,164.2,132.6,164.9,132.9z"/>
	<path class="st179" d="M131,112.1c-2.8-3.6-7.9-2.2-11.1-5.1c1.1-1.1,2.3-1.1,3.5-0.1c3,1.9,6.4,2.1,9.7,2.8c0.4,0.7,0.4,1.4-0.3,2
		C132.3,111.8,131.7,111.9,131,112.1z"/>
	<path class="st180" d="M168.8,109.6c-0.2,0.3-0.4,0.6-0.7,1c-2.7,0.6-5.3,0.5-8,0.3C162.9,110.2,165.5,107.4,168.8,109.6z"/>
	<path class="st181" d="M132.9,111.7c0.1-0.7,0.2-1.3,0.3-2c3.7-1.2,7.2-0.3,10.7,1.3C140.3,111.5,136.5,110,132.9,111.7z"/>
	<path class="st182" d="M123.1,125.4c-0.1-0.5-0.2-1.1-0.3-1.6c-0.2-0.3-0.3-0.7-0.3-1.1c0.1-0.2,0.1-0.4,0.2-0.6
		c0.1-0.1,0.3-0.3,0.5-0.4c0.9-0.3,1.9-0.3,2.9-0.6c0.4-0.1,0.8-0.1,1.1-0.2c1-0.1,1.9-0.1,2.9,0c0.6,0.2,1.4-0.3,1.7,0.6
		c0.3,1.2-0.8,1.4-1.5,1.4C127.4,122.6,125.3,124.2,123.1,125.4z"/>
	<path class="st183" d="M126.8,121.7c-0.2,0-0.4,0-0.6,0c-3.5-1.4-3.5-1.9-0.1-4.8c1.5-0.1,2.8,0.2,4,1.1
		C129.9,120.2,128,120.6,126.8,121.7z"/>
	<path class="st184" d="M177.9,114.9c1.4,0.7,0.1,1.4,0,2.1c-1.3,0-2.3,0.7-2.9,1.8c-1.1,0-2.5,0.9-2.8-0.9c-0.2-1.2,1-1.6,1.9-1.9
		C175.4,115.6,176.6,115.3,177.9,114.9z"/>
	<path class="st185" d="M126.1,116.9c0.3,1.6-3.9,3.2,0.1,4.8c-1,0.8-2,1.1-3.1,0.3c-2.3-2.1-1.8-3.7,0.9-4.9c0.3-0.4,0.7-0.8,1-1.2
		C125.3,116.3,125.7,116.6,126.1,116.9z"/>
	<path class="st185" d="M126.8,121.7c-0.4-2.6,2-2.6,3.3-3.6c1.6,1-0.1,1.9-0.1,2.9C129.1,122.1,128,122,126.8,121.7z"/>
	<path class="st186" d="M165.1,142.2c1.9-2.6,3.5,0,5.2,0.4c2.3,0.6,4.5,1.6,6.9,2.1c-2.9-2.5-6.5-3.7-10-4.8c-1-0.3-2-0.9-1.7-2
		c0.3-1.2,1.7-0.7,2.6-0.9c0.2,0,0.4,0,0.7,0c2.4,0.5,4.6,1.5,6.9,2.1c0.4,0.1,0.8,0.3,1.3,0.5c2.5,1.2,5.1,2,7.8,2.5
		c1.4,0.8,3.7,0.4,3.4,3c3.3,1.4-0.3,4.4,1.4,6.3c-1.8,1.3-3-0.5-4.5-0.8c-1.1-0.2-2.2-0.4-3.4-0.6c-2.4-0.4-4.3-1.8-6.4-2.9
		c-2.6-1.5-6.1-1.2-8.1-3.9C166.5,142.8,165.8,142.5,165.1,142.2z"/>
	<path class="st14" d="M170.9,134.1c3.7-2,7.2-0.4,10.8,0.6c1.7,0.5,3.4,0.9,5.2,1.3c2.7,0.4,5.3,1,8,0.8c0.5,2.4-1.1,4.6-0.7,7.1
		c0.2,1.3-1.4,0-2.2,0c-0.6-0.7-1.3-1.3-1.9-2C183.2,140.4,176.3,139.1,170.9,134.1z"/>
	<path class="st187" d="M170.9,134.1c6.2,3.1,13.2,4.3,19.2,7.9c-0.7,1-1.3,2.1-2,3.1c-0.8-1.5-2.7-1-3.7-2.1
		c-2.7-1.2-5.7-1.8-8.4-3l0,0c-2.5-1.4-5.4-2-8-3c0,0,0,0,0,0c-0.6-1.3-3.6-2-1-4.1C168.3,133.3,169.6,133.7,170.9,134.1z"/>
	<path class="st188" d="M191.2,154.3c6.1,1.6,11.2,4,16.6,6.3C203.9,162.3,194.6,158.9,191.2,154.3z"/>
	<path class="st189" d="M209.9,135.8c0-0.6,0-1.2,0-1.8c2.2,0.5,4.6,0.6,6.6,1.5c3.6,1.7,7.4,2,11.2,2.4c-0.6,0.8-1.3,1.5-1.9,2.3
		C220,140.7,215.1,137.6,209.9,135.8z"/>
	<path class="st190" d="M194.8,136.9c-3,3.1-5.4,0-8-0.8c0.9-0.1,1.7-0.2,2.2-1.1c0.3-0.4,0.8-0.6,1.1-0.9c-5-4.2,0-3.5,2.1-4.4
		c0.6-0.3,1.3-0.2,1.8-0.7C195.8,131.4,194.2,134.3,194.8,136.9z"/>
	<path class="st191" d="M194,129c-0.4,0.4-0.8,0.8-1.2,1.2c-1.9,0.3-3.9,0.4-5.8-0.2c0-0.3,0-0.7-0.1-1c2-1.7,4-3.4,5.9-5.1
		c0.4,0.4,0.8,0.9,1.3,1.3C193.5,126.4,192.1,127.6,194,129z"/>
	<path class="st183" d="M203.9,132.9c0.2-2.8,1.8-1.4,3.1-1c1.6,3.9,3.3,7.8,0.6,11.9c-1.2,0.2-2.1,0.9-2.6,2.1
		C202.9,141.7,204.6,137.2,203.9,132.9z"/>
	<path class="st192" d="M227,145.9c-6-0.2-11.1-3.3-16.5-5.2c3.7-1.8,6.4,0.9,9.5,1.8C222.3,143.3,225.8,142.4,227,145.9
		C226.9,146,227,145.9,227,145.9z"/>
	<path class="st103" d="M209.9,135.8c5.6,0.5,10.5,3.4,15.9,4.4c0.1,0.7,1.5,2.5,0.1,2C220.5,140.4,214.4,140.1,209.9,135.8z"/>
	<path class="st193" d="M64,107.8c2.7-0.3,5.1-2.5,8-0.9c-5,1.4-10,2.9-14.9,4.3C58.8,108.8,61.4,108.4,64,107.8z"/>
	<path class="st136" d="M123.5,106.9c-1.2,0-2.4,0.1-3.5,0.1c-3.5-0.7-7.2-0.9-10.2-3.2c1.5-1.7,3.8,0.9,5.3-0.9c0,0,0,0.1,0,0.1
		c1.4,0.3,2.7,0.5,4.1,0.8c2.6,0.8,5.2,1.7,8.8,2.8C125.8,106.8,124.6,106.8,123.5,106.9z"/>
	<path class="st150" d="M115,103c0,0.7,1.3,2.1-0.7,1.6c-1.5-0.4-3-0.8-4.6-0.7c-0.3,0-0.5,0.1-0.7,0.1
		C110.3,99.6,113.2,104.3,115,103z"/>
	<path class="st187" d="M124,117.1c-1.8,1.3-1.3,3.1-0.9,4.9c0,0-0.1-0.1-0.1-0.1c-0.9,0.6-2,0.5-2.9,0.2c-8.1-3.2-16.5-5.7-24-10.2
		c-1.8-2.3-5.5-1.2-7-3.9c0.2-1.4-0.5-2.9,1-3.9c2.4,1.4,5.1,1.4,7.7,1.9c0.7,1.2,1.6,2.1,3.1,2.1c2.6,0.3,5,1.3,7.1,2.9
		C113.4,113,118.7,115.1,124,117.1z"/>
	<path class="st194" d="M100,88c0,1,0,2,0,3c-1.3,2.2-3.2,2.4-5.5,1.8c-0.9-0.4-1.9-0.6-2.7-1.1c-0.5-0.4-0.9-0.9-1.1-1.5
		c-2.2-0.7-4.4,0.2-6.4,0.7c-3.9,1-7.7,1-11.5,0.2c-0.2,0.1-0.4,0.1-0.6,0.1c-0.4-0.4-0.8-0.8-1.1-1.1c0.7-2.6,2.5-1.4,4-1
		c6.6-2.5,13.8-2.3,20.5-4.8c1.2-0.4,4.3-1.4,2.3,2.4C96.9,88.3,99.1,87.7,100,88z"/>
	<path class="st35" d="M92,91c0.7,0.4,1.4,0.8,2.1,1.2c0.2,0.2,0.3,0.4,0.2,0.6c-0.1,0.2-0.2,0.3-0.2,0.3c-3.7-1.2-6.8,1.6-10.9,0.8
		c-3.6-0.6-6.8-2.4-10.3-2.9c6.9,0.3,13.5-2.5,21-3c-1.3,0.8-2.1,1.3-2.9,1.8c-2.2,2-5.3,0.8-7.9,2.1c-0.5,0.1,0.4,0.7,0,0.1
		c-0.1-0.2,0-0.4,0.3-0.4C86.3,91.6,89,90.3,92,91z"/>
	<path class="st195" d="M100,94.1c-1.5,2.1,1.3,6.1-3,6.9c-1.4-2.2-4.5-3.6-3.1-7C96,93.4,98,92.1,100,94.1z"/>
	<path class="st196" d="M100,94.1c-2-0.7-4.1,1-6.1-0.1c0.2-0.3,0.2-0.6,0.1-0.9c0-0.3,0-0.6,0-0.9c2-0.1,4.1,0,6-1.1
		C100,92,100,93.1,100,94.1z"/>
	<path class="st197" d="M69.3,95c-1-1-2.3-1-3.7-1.3c1.5-0.7,2.6-2.1,4.4-1.8C70.1,93.1,72.7,94.7,69.3,95z"/>
	<path class="st104" d="M75,89c-1.4,0.1-2.9-0.4-4,1c-1.1-0.1-2.2,0.1-2.9-1c1.3-1.5,3.2-0.7,4.8-1.2C73.7,88,74.5,88.1,75,89z"/>
	<path class="st34" d="M39.9,94.8c0.6,0.3,2,0.3,1.3,1.4c-0.6,1-1.6,3.3-2.5,2.5c-3.3-2.8-7.3,0.7-10.5-1.6
		C32.1,96.3,36,95.5,39.9,94.8z"/>
	<path class="st35" d="M108,110.9c-2.5-0.7-5.2-0.8-7.1-2.9c3.9-5.2,5-0.1,7,1.9C108,110.2,108,110.6,108,110.9z"/>
	<path class="st198" d="M232.7,126.8c3-0.4,5.3-1.1,7.4,0.5C236.7,129.5,236.7,129.5,232.7,126.8z"/>
	<path class="st120" d="M195.9,123.2c-1.5-3.3-0.8-6.8-0.7-10.2C196.8,116.3,195.7,119.8,195.9,123.2z"/>
	<path class="st199" d="M86.3,112.8c1.6-1.8,3,0.5,4.6,0.3c2.7,0.7,5.5,1.3,8.2,1.8c0.7,0.1,1.4,0.3,2,0.7c4.3,3.4,9.7,4.4,14.4,6.9
		c0.1,0.2,0.3,0.4,0.4,0.6c0.1,1.1,2.1,0.9,1.6,2.1c-0.6,1.3-1.7,0.3-2.5,0c-5.4-1.9-10.3-4.9-15.9-6.2
		C94.9,116.8,90.6,114.8,86.3,112.8z"/>
	<path class="st199" d="M101.2,116.1c-0.7,0-1.3-0.1-2-0.1c-1.4-1.2-4.2-0.4-4.3-3.3c0.4,0,0.8,0.1,1.2,0.1c4.5-0.3,7.9,2.6,11.9,4
		c5.1,1.8,10.2,3.6,14.9,6.2c0.1,0.2,0.1,0.4,0,0.7c-2.4,1.1-4.5-1.1-6.8-0.8c0,0,0,0,0,0C111.2,120.5,105.5,119.7,101.2,116.1z"/>
	<path class="st200" d="M120,127.7c-4.9,1.7-9.9,3.4-14.8,5c1.6-3.3,6.1-1.7,7.9-4.8C115.4,128.6,117.6,125.7,120,127.7z"/>
	<path class="st201" d="M167.2,143.1c2.5,1.8,5.8,1.6,8.1,3.9C172.3,146.3,168.7,146.9,167.2,143.1z"/>
	<path class="st202" d="M122.8,123.1c-8.9-3.4-17.8-6.8-26.8-10.2c0-0.3,0-0.7,0-1c9.3,2.3,17.8,7.1,26.9,10
		C122.9,122.3,122.9,122.7,122.8,123.1z"/>
	<path class="st203" d="M94.9,112.7c0.8,1.9,3.3,1.6,4.3,3.3c-3.1-0.1-5.8-1.2-8.3-3C92.3,113.4,93.4,111.4,94.9,112.7z"/>
	<path class="st204" d="M153,104.9c-1.2-2.7-3.5-5.3-0.5-8.4c2.4-2.5,4.8-2.3,7.4-0.5c2.8,3.5,2.7,6.7-1.2,9.4
		C156.7,106,154.8,106.3,153,104.9z"/>
	<path class="st205" d="M158.7,104.9c3.3-2.6,2.2-5.7,1.1-8.9c3.9,3.4,3.9,4.9,0.3,9.1C159.6,105.5,159.2,105.4,158.7,104.9z"/>
	<path class="st206" d="M151,111.9c-0.6,1.1-1.7,1-2.7,1c0.6-3.2,0.6-3.2,2.7-5.6C152.4,108.8,148.8,110.4,151,111.9z"/>
	<path class="st207" d="M158.7,104.9c0.5,0.1,1,0.1,1.4,0.2c-2.5,2.1-4.9,3.3-7.2-0.2C154.9,104.9,156.8,104.9,158.7,104.9z"/>
	<path class="st74" d="M180,116.9c0.2-3.2,3.6-2.1,5-3.8c2.4-1,4.8-2,7.1-2.9C188.8,113.9,184.5,115.6,180,116.9z"/>
	<path class="st208" d="M123.2,110.3c-3.9,0.5-7-1.3-10.1-3.3C116.5,108,119.8,109.2,123.2,110.3z"/>
	<path class="st209" d="M187,129.9c2-0.8,3.9-0.7,5.8,0.2c-0.4,3.6-3.2-0.4-4.2,1.5c1.2,0.7,2.5,1.4,4.1,2.4
		c-1.2,1.4-2.6,0.8-3.7,0.9c-0.5-1.1-1.4-1.7-2.6-1.9c-1.1-0.1-2.5-0.1-2.1-1.8C184.5,129.6,186,130.2,187,129.9z"/>
	<path class="st210" d="M168,137c3.1-0.2,5.8,0.9,8,3C173.1,139.6,170.2,139,168,137z"/>
	<path class="st71" d="M176,139.9c3.1,0.3,5.9,1.1,8.4,3C181.3,142.8,178.3,142.2,176,139.9z"/>
	<path class="st211" d="M113.1,115.6c-2.3-0.1-4.5-0.6-6.7-2.2C109.5,112.5,111.3,114.3,113.1,115.6z"/>
	<path class="st212" d="M92,91c-3,0.8-5.9,1.6-9.5,0.7c3-1.3,5.7-1.7,8.4-1.9C91.3,90.2,91.6,90.6,92,91z"/>
	<path class="st192" d="M101.2,116.1c4.7,2.8,10.5,3.3,14.8,6.9C110.6,121.7,105.1,120.6,101.2,116.1z"/>
</g>
</svg>
