<?xml version="1.0" encoding="utf-8"?>
<!-- Generator: Adobe Illustrator 24.0.1, SVG Export Plug-In . SVG Version: 6.00 Build 0)  -->
<svg version="1.1" id="Слой_1" xmlns="http://www.w3.org/2000/svg" xmlns:xlink="http://www.w3.org/1999/xlink" x="0px" y="0px"
	 viewBox="0 0 325 224" style="enable-background:new 0 0 325 224;" xml:space="preserve">
<style type="text/css">
	.st0{fill:#FDFDFD;}
	.st1{fill:#F7F6F4;}
	.st2{fill:#787878;}
	.st3{fill:#979797;}
	.st4{fill:#5A5A5A;}
	.st5{fill:#292929;}
	.st6{fill:#FBFBFB;}
	.st7{fill:#8C8C8B;}
	.st8{fill:#CDCDCE;}
	.st9{fill:#605F5F;}
	.st10{fill:#808080;}
	.st11{fill:#93938C;}
	.st12{fill:#333434;}
	.st13{fill:#A5A6A5;}
	.st14{fill:#777776;}
	.st15{fill:#4C4C4C;}
	.st16{fill:#7A7A79;}
	.st17{fill:#9E9E9E;}
	.st18{fill:#A2A3A3;}
	.st19{fill:#8E8E8D;}
	.st20{fill:#919191;}
	.st21{fill:#9A9A9A;}
	.st22{fill:#A4A39C;}
	.st23{fill:#8E8D8E;}
	.st24{fill:#949493;}
	.st25{fill:#757574;}
	.st26{fill:#3D3D3D;}
	.st27{fill:#A3A2A2;}
	.st28{fill:#A4A4A4;}
	.st29{fill:#878787;}
	.st30{fill:#828181;}
	.st31{fill:#595959;}
	.st32{fill:#858585;}
	.st33{fill:#4A4A49;}
	.st34{fill:#4D4D4D;}
	.st35{fill:#848483;}
	.st36{fill:#5A5B5A;}
	.st37{fill:#6D6D6E;}
	.st38{fill:#969696;}
	.st39{fill:#707070;}
	.st40{fill:#919291;}
	.st41{fill:#7A7A7A;}
	.st42{fill:#7F7F7F;}
	.st43{fill:#555555;}
	.st44{fill:#494948;}
	.st45{fill:#7C7C7C;}
	.st46{fill:#ECECEE;}
	.st47{fill:#626263;}
	.st48{fill:#5D5D5E;}
	.st49{fill:#5C5C5D;}
	.st50{fill:#5A5958;}
	.st51{fill:#747474;}
	.st52{fill:#4B4A4B;}
	.st53{fill:#515151;}
	.st54{fill:#565656;}
	.st55{fill:#3C3C3C;}
	.st56{fill:#474848;}
	.st57{fill:#4F4F4F;}
	.st58{fill:#353534;}
	.st59{fill:#93938F;}
	.st60{fill:#D0D0D0;}
	.st61{fill:#A4A3A3;}
	.st62{fill:#A6A6A5;}
	.st63{fill:#A2A2A2;}
	.st64{fill:#A6A6A6;}
	.st65{fill:#959595;}
	.st66{fill:#737373;}
	.st67{fill:#AAAAAA;}
	.st68{fill:#E7E7E7;}
	.st69{fill:#E7E6E7;}
	.st70{fill:#C3C3AD;}
	.st71{fill:#9F9F9F;}
	.st72{fill:#C2D5E1;}
	.st73{fill:#C0C1BF;}
	.st74{fill:#B3B3B3;}
	.st75{fill:#BFBFBF;}
	.st76{fill:#5B5F63;}
	.st77{fill:#656566;}
	.st78{fill:#5E6567;}
	.st79{fill:#A2A198;}
	.st80{fill:#F4EFCF;}
	.st81{fill:#CDCDCD;}
	.st82{fill:#F1EDD1;}
	.st83{fill:#B2B2B2;}
	.st84{fill:#646463;}
	.st85{fill:#989898;}
	.st86{fill:#ECEBED;}
	.st87{fill:#B4B4B4;}
	.st88{fill:#A1A1A1;}
	.st89{fill:#505050;}
	.st90{fill:#444444;}
	.st91{fill:#ECE7CC;}
	.st92{fill:#CCCCCC;}
	.st93{fill:#B6B6A5;}
	.st94{fill:#CFCFCF;}
	.st95{fill:#B5B5B4;}
	.st96{fill:#CFCECE;}
	.st97{fill:#6F6F6C;}
	.st98{fill:#7C7C7B;}
	.st99{fill:#999999;}
	.st100{fill:#929292;}
	.st101{fill:#5D5D5D;}
	.st102{fill:#EEE9CD;}
	.st103{fill:#AFAFAF;}
	.st104{fill:#7B7B7B;}
	.st105{fill:#A9A79F;}
	.st106{fill:#9F9E93;}
	.st107{fill:#7C7C77;}
	.st108{fill:#909090;}
	.st109{fill:#8C8C8C;}
	.st110{fill:#80807E;}
	.st111{fill:#C3C2AE;}
	.st112{fill:#E7E6E6;}
	.st113{fill:#6C6C6B;}
	.st114{fill:#9C9C98;}
	.st115{fill:#C3D9E6;}
	.st116{fill:#8A918C;}
	.st117{fill:#B2B29F;}
	.st118{fill:#A1A198;}
	.st119{fill:#A0A099;}
	.st120{fill:#838382;}
	.st121{fill:#BEBEBE;}
	.st122{fill:#DEDEDE;}
	.st123{fill:#7A7A7B;}
	.st124{fill:#CBCBCB;}
	.st125{fill:#CECECE;}
	.st126{fill:#6B6B6B;}
	.st127{fill:#717171;}
	.st128{fill:#535353;}
	.st129{fill:#B8B7AB;}
	.st130{fill:#9C9C9C;}
	.st131{fill:#787875;}
	.st132{fill:#CDCCCC;}
	.st133{fill:#434342;}
	.st134{fill:#999895;}
	.st135{fill:#737371;}
	.st136{fill:#D2D2D2;}
	.st137{fill:#A2A3A0;}
	.st138{fill:#B1B0B1;}
	.st139{fill:#E6E6E6;}
	.st140{fill:#E2E2E1;}
	.st141{fill:#E0E0E0;}
	.st142{fill:#8F8F8F;}
	.st143{fill:#C8C8C8;}
	.st144{fill:#8F908C;}
	.st145{fill:#E1E1E0;}
	.st146{fill:#616162;}
	.st147{fill:#CECECF;}
	.st148{fill:#C4C4C4;}
	.st149{fill:#868E8F;}
	.st150{fill:#818B93;}
	.st151{fill:#BED0DB;}
	.st152{fill:#676767;}
	.st153{fill:#767676;}
	.st154{fill:#9C9C99;}
	.st155{fill:#98988F;}
	.st156{fill:#9A9A92;}
	.st157{fill:#636363;}
	.st158{fill:#D9D9D8;}
	.st159{fill:#B6B6B5;}
	.st160{fill:#ABABAB;}
	.st161{fill:#747473;}
	.st162{fill:#D3D3D3;}
	.st163{fill:#959695;}
	.st164{fill:#B3B2B1;}
	.st165{fill:#E1E0CC;}
	.st166{fill:#6E6E6E;}
	.st167{fill:#A4A3A4;}
	.st168{fill:#7B7C7C;}
	.st169{fill:#B8B8B8;}
	.st170{fill:#A3A4A4;}
	.st171{fill:#606060;}
	.st172{fill:#B6B6B6;}
	.st173{fill:#B6B5B4;}
	.st174{fill:#BABABA;}
	.st175{fill:#D5D5D5;}
	.st176{fill:#686868;}
	.st177{fill:#838279;}
	.st178{fill:#716E67;}
	.st179{fill:#6F6F6F;}
	.st180{fill:#C7C7C7;}
	.st181{fill:#636362;}
	.st182{fill:#939393;}
	.st183{fill:#D8D8D8;}
	.st184{fill:#D6D6D6;}
	.st185{fill:#CBCBCC;}
	.st186{fill:#585958;}
	.st187{fill:#B0B0B0;}
	.st188{fill:#757575;}
	.st189{fill:#50514F;}
	.st190{fill:#B7B7B6;}
	.st191{fill:#9B9B9B;}
	.st192{fill:#D1D1D0;}
	.st193{fill:#777673;}
	.st194{fill:#E8E8E9;}
	.st195{fill:#C8D9E7;}
	.st196{fill:#E1E0E0;}
	.st197{fill:#BBBBBB;}
	.st198{fill:#A5A5A3;}
	.st199{fill:#AEAEAE;}
	.st200{fill:#B1B1B1;}
	.st201{fill:#C3D6E2;}
	.st202{fill:#7F8686;}
	.st203{fill:#8B8B7D;}
	.st204{fill:#7E8684;}
	.st205{fill:#848484;}
	.st206{fill:#A9A9A9;}
	.st207{fill:#A4A4A3;}
	.st208{fill:#ADAEAE;}
	.st209{fill:#B7B7B7;}
</style>
<g>
	<path class="st0" d="M65.4,144.9c-0.3,3.1,0.2,6.1,1,9.1c0.3,0.6,0.5,1.1,0.6,1.6c0.3,1,0.6,2.1,0.7,3.2c0.2,0.7,0.4,1.4,0.6,2.2
		c0.4,0.1,0.9,0.1,1.3,0.2c2.6,0.4,4.2,3.8,3.5,6.2c-0.8,2.8-0.4,3.2,2.4,4.2c4.1,1.4,8.8,1.2,13,1c6.3-0.3,12.9-1.1,19.1-2.6
		c1.7-0.9,3.6-1.3,5.7-1.4c1.5-0.1,2.6,0.4,3.4,1.1c0.3-0.4,0.5-0.9,0.6-1.4c-0.4-1.4-1.5-2.1-2.7-2.8
		c-16.3-9.1-33.1-17.3-49.4-26.2c-1.4-0.8-3.4-2-4.5,0.7c0,0.1,0,0.1,0,0.2C63.4,140.3,65.6,142.1,65.4,144.9z"/>
	<path class="st0" d="M315.5,16.6c0-3-0.6-3.6-3.6-3.6c-31.4,0.1-62.8,0.1-94.1,0.1c-2.3,1.7-0.9,2.9,0.7,3.7c1.5,0.8,3,1.4,3.7,3
		c1.4,1.6,3.4,2,5.3,2.5c1.9,0.4,3.8,1.1,5.8,0.8c4.7-0.7,9.4-1.7,12.6,3.3c0.4,0.2,0.8,0.4,1.3,0.6c2,0.7,4,1.3,6,2.1
		c5.3,2.1,11,2.5,16.3,4.8c1,0.3,1.9,0.5,2.9,0.7c2,0.6,3.9,0.9,6,0.4c5.1-1.3,9.7-1.1,13.3,3.4c1.4,1.2,3.2,1.9,4.6,2.9
		c1.7,0.6,3.5,0.7,5.3,1.1c2.9,0.8,5.9,0.9,8.7,2.1c0,1.5-2.1,1.7-2,3.3c-0.4,2.5-0.2,5-0.2,7.4c0,31.7,0,63.4,0,95
		c0,1.5,0.1,3-0.1,4.5c-0.3,2.7-1.8,2.9-3.8,1.9c-1-0.5-2-1-3-1.2c-3.5,0.2-6.6-1.2-9.7-2.5c-4.7-1.7-9.3-3.6-14.4-3.7
		c-5.6,3.1-10.2,7.7-15.6,11.1c-3.5,2.9-7.4,5.3-11,8.1c-3.5,2.8-7.2,5.3-10.7,8.1c0.5,2.1-1.4,1.4-2.3,1.9
		c-1.9,1.1-3.7,2.5-5.7,3.6c-0.4,0.2-0.7,0.5-1.1,0.8c-3.2,3.2-7.2,5.4-10.7,8.1c-0.4,0.2-0.7,0.5-1.1,0.8c-1.8,1.7-3.9,2.9-5.7,4.5
		c-1.9,1.6-4.3,2.2-6,4.1c-2.9,2.4-5.6,5.1-9.2,6.5c-1.9,0.9-3.5-0.1-5.2-0.9c-18.9-9.6-37.5-19.7-56.2-29.5c-5.8-3-11.2-7-17.9-8.1
		c-0.6,0.4-1.2,0.9-1.7,1.3c0.4,0.4,0.7,0.8,0.9,1.3c0,0,0.1,0.1,0.1,0.1c3.7,2.7,2.9,9.5-2.5,9.3c-0.4,0-0.8,0-1.2,0.1
		c-0.8,4.7-4.5,8.2-9.8,9.4c-1.1,1.1-2.5,1.8-4,2c-1.6,0.2-3.6-1.1-4.3-2.5c-1.1-2.2-1.6-4-1.7-6.5c0-0.3,0-0.6,0.1-0.8
		c-14.6,1.4-30.8,0-31.7-11.4c-0.5-0.1-1.1-0.3-1.5-0.6c-3.6-0.2-7.2-0.4-10.8-0.9c-4-0.6-4.5-5.9-2.2-8.4c2-2.2,4.9-4.2,8-5
		c-0.3-1.1-0.6-2.1-0.9-3c-1.3-3.8-1.1-7,0.7-10.5c0.9-1.8,2.9-2.5,4.8-2.4c-0.4-1.8-1.9-2-4.1-1.1c-2.9,1.2-5.1,0.8-6.8-2.1
		c-0.5-0.9-1.4-1.4-2.3-1.8c-5.7-0.7-10.4,2.8-15.8,3.5c-1.9,0.4-3.7,1.1-5.6,1.7c-1.3,0.4-2.6,0.9-3.1-1c-0.2-26.7,0-53.4-0.1-80.1
		c0-2.4,0.4-5-1.1-7.2c-3.1-1.9-6.2-1.8-9.3,0.1c0,53.6,0,107.2,0,160.9c99.6,0,199.2,0,298.8,0.1c3.4,0,4.1-0.7,4.1-4.1
		C315.4,144.8,315.4,80.7,315.5,16.6z M268.6,196.5c-1.2,1.7-2.7,3-4.4,4c-1.2,2.4-4.3,3.8-6.7,2.6c-1.1,0.3-2.3,0.5-3.4,0.7
		c-5.5,1-8.8-6-3.9-9.1c1.4-0.9,2.9-1.5,4.6-2c-1.5-0.8-2.6-2.2-2.6-4c-1.6-0.2-3.2-0.5-4.8-0.9c-3.6-1-4.9-5.7-2.2-8.4
		c3.4-3.3,7.7-2.7,11.8-3.3c0.8-0.4,1.7-0.6,2.6-0.6c1.4-0.4,3.2,0.1,4.5,1.1c3.1-1.5,6.9,0.1,7.2,4.3
		C271.8,186.2,271.8,192,268.6,196.5z"/>
	<path class="st1" d="M308.7,43.5c-2.3-0.8-5-0.3-6.9-2.2c-1.7,0.2-3.4-1.3-5.2-0.1c-1.7-1.7-4.1-1.8-6.3-2.4
		c0.9,0.2,1.6,0.1,2.2-0.6c-4.3-5.5-8.1-6.5-14-3.8c-2.4,1.7-4.2,0.5-5.9-1.2c-0.8,0-1.7,0-2.5,0c-6-1.5-12-2.9-17.8-4.7
		c-2.1-1.1-4.6-1-6.7-2.1c-5.7-2.8-12-2.8-17.9-4.6c-3.1-0.4-5.8-2.1-8.8-3c-8.2-2.5-16.6-4.3-25-5.7h-1c-2.3,2.7-5.9,1.3-8.6,2.6
		c-2.5,0.3-4.9,1.1-7.4,1.5c-2.8,0.6-5.5,1.4-8.4,1.6c-6.6,1-13,3.1-19.7,4c-6.6,1-13.1,2.8-19.7,4c-2.7,0-5.2,1-7.8,1.4
		c-3,0.8-6.1,1.4-9.1,2c-2.7,0.9-5.7,0.4-8.4,1.4c-2.6,0.3-5,1.1-7.6,1.6c-2.8,0.6-5.5,1.4-8.4,1.6c-5.6,0.8-10.9,2.6-16.5,3.4
		c-7.7,1.2-15.2,3.4-22.9,4.6c-4.1,0.2-7.8,1.7-11.8,2.4c-2.8,0.7-5.7,1.4-8.6,1.6c-2.7,0.4-5.7,0.2-7.7,2.7c0.9,2.1,2.9,1.9,4.6,2
		c2.3,0.1,4.6-0.1,6.8,0.7c5.5,0.9,11.2-0.5,16.7,1.1c3.8,0.4,7.7,0.1,11.5,0.2c2.3-0.2,4.6,0.2,6.8,0.8c3.2,0.3,6.4,0.1,9.6,0.2
		c2,0,4.1,0,6.1,0c4.9,0.3,9.9-0.6,14.8,0.6c4.3,0.9,8.7-0.4,12.9,1c2.5,0.4,4.9,0.6,7.3-0.2c1.4-0.8,1.7-1.9,1.7-3.2
		c0.4,2.5,2.2,4,5.8,3.8c0.8,0,1.6,0.5,2.4,0.6c3.1,0.5,6.3,0.2,9.4,0.3c3.3,0.1,6.6-0.3,9.8,0.4c3.2-0.1,6.4,0,9.5-0.7
		c4.3-1.4,8.7-0.1,13-1c7.5-0.9,15-0.7,22.5-0.9c2.6,0.2,5-0.6,7.5-0.9c2-0.9,4.5-0.4,6.1-2.2c0-2.2-0.2-4.4-0.2-6.6
		c0.1,1.8,0.2,3.5,0.4,5.3c0,0.6,0.1,1.1,0.3,1.7c2.2,2.1,4.8,0.8,7.2,0.6c7.6-0.5,15.2-1.6,22.9-1.5c4.3,0.3,8.5-0.4,12.8-1
		c4.7,0.4,9.4-0.7,14.1-0.7c2.5-0.1,5-0.3,7.5-0.7c4.1-1.3,8.4-0.2,12.5-1.1c3-1,6.1-0.5,9.2-0.6c4.9,0.4,9.7-0.6,14.5-1
		c1.4,0.1,2.6-0.7,4-1C311.3,43.5,309.6,43.8,308.7,43.5z M119.1,50.2c0-0.1,0-0.3,0-0.4C119.2,49.9,119.2,50,119.1,50.2z
		 M240.3,38.6h-0.4c-0.8,1.3-2.1,2.4-4.1,2.5c-2.3,0.2-4.4,0-6.4-0.5c-1.8-0.2-3.5-0.6-5.2-1c-0.7,0.1-1.4,0.1-2.3-0.2
		c-0.9-0.3-1.9-0.6-2.8-0.8h-0.9c-1.5,0-2.7-0.6-3.5-1.4c-1-0.4-2-0.8-3-1.3c-1.7-0.9-2.4-2.4-2.4-4c-0.7,0.1-1.4,0.3-2,0.5
		c-1.4,0.8-1.7,2.1-1.9,3.7c-0.3,1.8-0.4,3.5-0.4,5.3c0-2.4,0.2-4.8,0.5-7.1c0.3-2.1,1.8-2.3,3.6-2.5c0.1,0,0.2,0,0.3,0
		c0.1-2.6,2-5.2,5-5.2c2.3,0,4.6,0.2,6.8,0.8c0.8-1,2.1-1.7,3.8-1.8c5.9-0.3,11.4,1.1,16.9,3.2C246.7,30.7,246.3,38.6,240.3,38.6z"
		/>
	<path class="st0" d="M12.6,50.1c0-11.2,0.1-22.3-0.1-33.5c-0.1-3,0.6-3.6,3.6-3.6C74,13.1,132,13.1,189.9,13.1
		c-0.8,3.4-4.3,1.9-6.2,3.4c-2.6-0.1-4.9,1-7.4,1.4c-0.7,0.2-1.4,0.2-2.1,0.2c-3.6-2.3-6.2-0.1-8.9,1.8c-6.1,1.4-12.2,2.8-18.5,3.6
		c-6.5,1.4-12.9,3.2-19.6,3.9c-2.3,0.3-4.5,1.1-6.8,1.5c-1.9,0.4-3.8,0.8-5.8,1.2c-1.9,0.1-3.8,0-5.7-0.6c-2.3-0.7-4.1,0.1-5.1,2.3
		c-0.3,0.4-0.7,0.6-1.2,0.8c-2.5,0-4.8,1.3-7.3,1.4c-3,1-6.2,0.8-9.3,1.5c-5.2,1.4-10.4,2.3-15.6,3.4C65,39.4,59.8,41.3,54.3,42
		c-3.4,0.3-7.2-1.8-10.1,1.6c-3,1.3-6.2,1.7-9.4,2.4c-2.7,0.8-5.5,0.9-8.3,1.4c-2.5,0.5-4.9,0.9-7.3,1.9
		C17.1,49.9,14.9,51,12.6,50.1z"/>
	<path class="st1" d="M217.8,13.1c-0.9,1.8-0.2,2.8,1.7,3c2.1,0.2,3.3,1.1,3.1,3.4c-1.3,0.7-2.6,0-3.9-0.1
		c-5.2-1.4-10.4-2.9-15.6-4.4c-1.1-0.3-3.3,0.5-3.3-2C205.8,13.1,211.8,13.1,217.8,13.1z"/>
	<path class="st2" d="M199.9,13.1c6.3,2,12.6,3.9,18.9,5.9c0.3,0.2,0.4,0.4,0.3,0.6c-0.1,0.2-0.2,0.3-0.3,0.3
		c-5.3-1.3-10.5-2.6-15.8-3.9c-2.4-0.6-4.7-1.4-7.3-0.9c-1.4,0.3-2.2-0.4-1.9-2C195.9,13.1,197.9,13.1,199.9,13.1z"/>
	<path class="st3" d="M20.7,49.3c3.4,2,7.5-0.3,10.9,1.6c-0.7,1.2-1.9,1.5-3,1.9c-1.4,0.4-2.8,0.5-4.1,0.2c-1.1-0.1-2-0.7-3.1-0.8
		c-2.9-0.1-5.9-0.1-8.8-0.2c0-0.3,0-0.7,0-1c1.6-1.4,3.8-0.6,5.5-1.7C19,49.2,19.8,48.3,20.7,49.3z"/>
	<path class="st4" d="M183.6,15.8c1.8-1.6,5-0.1,6.3-2.7c1,0,2,0,3,0c-0.9,5.1-5.5,2.2-8,3.8C184.4,16.6,183.7,16.5,183.6,15.8z"/>
	<path class="st5" d="M18.5,49.9c-1.7,1.5-3.9,1-5.9,1.2c0-0.3,0-0.7,0-1c2-0.6,4-1.2,5.9-1.8C19.2,48.8,19.2,49.4,18.5,49.9z"/>
	<path class="st6" d="M308.4,46.7c-0.4-0.5-0.9-0.8-1.5-0.9c-4,0.6-8.1,0.9-12.2,0.9c-3.4,0.8-6.8,0.2-10.2,0.4
		c-5,0.5-10,0.8-15.1,0.9c-2.2,0.2-4.6-0.4-6.6,1c-4.6,0.5-9.3,0.5-13.9,0.6c-4.3,1.1-8.6,0.8-13,1c-8.1,0.6-16.1,1-24.2,1.4
		c-1.8-0.5-3.6,1.2-5.4,0c-2.1,1.5-1.7,3.8-1.8,5.9c-0.1,6.6,0,13.2,0,19.8c0.2,6.2-0.4,12.3,0.4,18.5c0.2,0.6,0.5,1.1,0.9,1.6
		c1.9,1.8,4.3,2.2,6.8,2.7c15.6,2.9,31.2,5.6,46.7,8.5c0.5,0.2,1.1,0.3,1.6,0.3c4.5,0.2,8.8,2.7,13.5,1.5c0.7-0.3,1.1-0.9,1.3-1.5
		c-0.4-0.2-0.8-0.4-1.2-0.6c-2.5-1.4-2.9-4.3-1.9-6.5c-0.1-2.6,1.4-5.2,4.1-7.3c-1.9-1.7-2.6-4.8-0.3-7.1c2-2,4.5-3.1,6.9-3.4
		c1.1-0.5,2.1-1.1,3.1-1.9c2.2-1.7,5.6-0.3,6.8,1.8c1,1.6,1.4,3.2,1.5,4.7c1.1,0.8,1.9,2.1,1.7,3.8c-0.2,2.1-0.6,4.2-1.7,6
		c-1.2,1.9-3.4,2.5-5.4,2.2c-1.3,0.9-2.6,1.7-3.8,2.7c0.9,2.9-0.7,6.6-4.6,6.5c-1.7,0-3.2-0.3-4.7-0.8c2.2,3.8,6.7,3,10.2,4.1
		c4.3,1.4,9,1.2,13.3,2.7c3,4.1,0.9,8.8,1.4,13.2c-1.8,4-5.9,5.4-8.9,8c-4.5,3.8-10.1,6.2-13.7,11.1c4,3.2,9.3,2.9,13.6,5.2
		c2.8,0.9,5.6,2.1,8.6,2.2c0.5,0.3,1,0.6,1.6,0.9c6.7,2.1,6.7,2.1,6.7-4.7c0-33.2,0-66.4,0-99.6C308.9,50.6,309.3,48.6,308.4,46.7z
		 M237.6,74.9c-0.3-0.2-0.6-0.4-0.8-0.6c0,0,0,0,0,0h-5.5c-0.9,0-1.7-0.2-2.3-0.5c-2.5,0.1-5,0.4-7.4,0.9c-5.3,1-9.2-6.4-3.9-9.1
		c-1.4-2.7,0.5-5.9,3.2-7c5.3-2.2,11.5-0.3,16.4,2c1.9,0.9,2.6,2.7,2.4,4.4c0.5,0.3,0.9,0.6,1.2,1c1.4,0.2,2.6,0.7,3.6,1.7
		c0.6,0.6,1.2,1.4,1.6,2.2c0.5,0.8,0.7,1.6,0.7,2.5c-0.1,0.4-0.1,0.9-0.2,1.3c-0.3,1.3-1.2,2.3-2.3,3c-0.6,0.4-1.2,0.6-1.9,0.6
		c-0.7,0.1-1.3,0.1-2-0.1c-0.7-0.2-1.2-0.5-1.7-0.9C238.3,75.8,237.9,75.4,237.6,74.9z M261.4,92.8c-0.1,0-0.1,0.1-0.2,0.1
		c-0.4,0.5-0.9,1-1.5,1.3c0.3,3.1-2.6,6-6.2,5.4c-3.3-0.6-6.3-1.8-9.2-3.5c-0.7-0.4-1.2-1-1.6-1.6c-2.3-0.5-3.3-2.5-3.2-4.6
		c-0.2-0.8-0.2-1.6,0-2.3c-0.5-1.2-0.8-2.4-1-3.5c-0.4-2.7,0.7-5.4,3.5-6.2c2.4-0.7,5.7,0.8,6.2,3.5c0,0.2,0.1,0.5,0.2,0.8
		c0.4,0.1,0.9,0.3,1.2,0.5c0-0.1,0-0.1,0-0.2c-1.6-6.2,8-8.9,9.6-2.7c0.5,1.7,0.9,3.2,1,4.6c0.2,0.2,0.4,0.4,0.6,0.7
		C263.1,86.9,263.7,90.7,261.4,92.8z"/>
	<path class="st7" d="M198.8,207.8c-2.4,2.8-4.5,0.5-6.5-0.6c-22.9-11.9-45.7-23.9-68.6-35.9c-1.6-0.8-3.3-1.4-5-2.1
		c-0.6,0.2-1.1,0.1-1.6-0.3c-2.5-3.6-6.8-4.5-10.3-6.4c-14.1-7.6-28.4-15-42.6-22.4c-0.9-0.4-1.8-0.7-2.8-1c-1-1-0.6-1.7,0.4-2.4
		c3.7,0.4,6.6,2.9,9.9,4.2c15.4,8.4,30.8,16.9,46.7,24.2c1.4-2-0.9-2.7-0.5-4c0.7-1.1,1.8-1.8,2.9-1.3c3.2,1.6,5.6-0.4,8.3-1.3
		c1.1,0.3,1.5,1.1,1.5,2.1c0.8,1.1-2.9,2.3,0,3.2c1.8,0.6,3.3,0,3.7-2.1c0.2-1.1-0.5-1.9-0.8-2.8c0.1-2,1-3.6,2.2-5.2
		c0.9-0.6,1.8-0.6,2.8-0.4c2.4,0.7,3.3,2.3,2.9,4.8c-0.1,0.5-1.2,2.1,0.9,1.7c1.5,0.5,2.6,1.4,2.8,3.1c-1.7,1.7,1.7,1.3,1,2.6
		c-2.2,3.4-6.2,4-9.3,6.1c-4.7-0.1-8.1-4.2-12.9-4.3c0,1.9,1.3,2,2.3,2.5c22.1,11.4,44.1,22.9,66,34.6c1.2,0.6,2.4,1.1,3.7,1.3
		c0.5,0.1,0.9,0.2,1.4,0.3c0.5,0.1,0.9,0.4,1.2,0.6c0.2,0.3,0.3,0.5,0.2,0.8C199,207.6,198.9,207.8,198.8,207.8z"/>
	<path class="st8" d="M198.9,207c-0.3,0-0.6-0.1-0.9-0.1c-2.4-3.3-1.3-5.9,1.6-8.1c3.2-2.4,6.6-4.4,9.6-7.1c3.8-2,7.1-4.8,10.5-7.4
		c4.4-3,8.8-5.9,13.1-9c3.5-2.5,5-2,7,1.9c1.5,2.6-0.7,1.6-1.7,1.9c-3.1-0.2-4,3-6.3,4l0,0c-4,3-8.2,5.7-12,9l0,0
		c-1.9,1.8-4.9,2.3-5.9,5.1c-1.3,2.2-4.3,2-5.8,3.9C204.8,202.6,202.2,205.4,198.9,207z"/>
	<path class="st9" d="M21.4,52.2c0.8-1.5,1.5-1.5,2.3,0c1.6,1.8,1.5,4,1.5,6.1c0,25.6,0,51.2,0,76.8c0,1.7,0,3.3-0.6,4.9
		c-0.4,1-1.2,1.6-2.1,2.1c-1.3-1.8-0.7-3.8-0.7-5.8c0-26.4,0-52.8,0-79.2C21.7,55.5,21.5,53.9,21.4,52.2z"/>
	<path class="st10" d="M302.2,156.9c1.1,0.1,2.4-0.1,3.4,0.3c2.1,0.8,2.7-0.1,2.6-2c0-0.5,0-1,0-1.5c0-34.2,0-68.5,0-102.7
		c0-1.6,0.3-3.4-1-4.8c0.8-0.8,1.6-0.8,2.4,0c0,35.8,0,71.6-0.1,107.4c0,1.9,1.1,4.8-0.8,5.5C306.6,159.9,303.9,158.9,302.2,156.9z"
		/>
	<path class="st11" d="M239.7,177.1c-2.3-3.1-4.5-2.3-7.2-0.3c-4,3-7.9,6.3-12.7,8.2c-0.1-0.2-0.2-0.4-0.3-0.6
		c1.9-4.5,6.6-5.7,10-8.3c2.7-2.1,2.7-3.3-0.2-4.7c-0.8-0.9-1.6-1.9-0.6-3c1.1-1.3,2.4,0,3.5,0.3c3.3,1.8,6.1,1.1,9.1-1.2
		c2.8-2.1,5.2-5.3,9.3-4.7c0.8,2.6-1.3,3.4-2.8,4.5c-2.4,1.7-4.8,3.4-7.5,5.7c4.2-0.7,6-5.2,10.1-4.3c0.2,0.2,0.3,0.3,0.5,0.5
		C247.5,172.2,244.1,175.3,239.7,177.1z"/>
	<path class="st12" d="M48.7,136.4c1.2,6.6,5.1,5.4,9.3,3.3c0.7-0.3,1.4-0.8,2.4-0.1c0,0.1,0,0.2,0,0.3c0.4,0,0.7,0.1,1.1,0.1
		c0-0.4,0-0.7,0-1.1c-0.1-0.9-0.4-1.8,1-2c0.4,0.3,0.8,0.3,1.2-0.1c0-1.4-1-2.1-1.9-2.8c-2.4-0.7-4.3,3.6-6.1,1.3
		c-2.5-3.3-5.5-1.7-8.3-2.1c-0.5,0.2-0.8,0.5-1,0.9c0,0.8,0.5,1.3,1.2,1.5C47.9,135.9,48.6,136.1,48.7,136.4z"/>
	<path class="st1" d="M233.5,22.2c5.2-1.4,10.2-2.3,13.2,3.8C241.9,26.3,237.5,24.8,233.5,22.2z"/>
	<path class="st13" d="M276.6,150c-4.3,4.4-9.4,7.8-14.6,11.1c-0.4,0.3-0.9,0.3-1.4,0.1c-0.2-0.5-0.3-1.1,0-1.4
		c4.9-4.2,9.5-8.9,15.9-11c0.3,0.3,0.4,0.5,0.3,0.8C276.7,149.9,276.6,150,276.6,150z"/>
	<path class="st14" d="M233.5,22.2c4.3,1.7,8.6,3.1,13.2,3.8c0,0-0.2,0.2-0.2,0.2c0.3,0.9,0,1.4-1,1c-6-1.7-11.9-3.3-17.9-5
		c-0.3-0.3-0.4-0.5-0.3-0.7c0.1-0.2,0.2-0.3,0.4-0.3C229.7,21.5,231.6,21.8,233.5,22.2z"/>
	<path class="st15" d="M46.5,134.1c0.3,0.5,0.6,1.1,0.9,1.6c-5.3,1.4-10.6,2.8-15.9,4.3c-0.4-0.4-0.5-0.9-0.4-1.5
		C35.9,135.6,40.7,133.1,46.5,134.1z"/>
	<path class="st16" d="M270.1,33.1c-6.5,0.1-12.3-2.8-18.4-4.1c-0.2-0.9,0-1.4,1.1-1.1C258.5,29.8,264.7,30.1,270.1,33.1z"/>
	<path class="st10" d="M276.6,150c0.1-0.3,0.1-0.6,0.1-1c0.2-0.8,0.7-1.2,1.4-1.3c0.2,0.1,0.4,0.2,0.6,0.2c4.1,2.9,9.3,3.1,13.7,5.1
		c0.1,0.9,0,1.5-1.1,1C286.4,152.8,281.5,151.4,276.6,150z"/>
	<path class="st17" d="M219.8,192c3.1-4.1,7.1-7.2,12-9C228.6,187.1,224.1,189.4,219.8,192z"/>
	<path class="st18" d="M260.7,161c0.4,0,0.8,0.1,1.3,0.1c-3.3,3.2-7,5.9-11.1,8c0,0-0.2-0.1-0.2-0.1C251.8,163.6,256,162,260.7,161z
		"/>
	<path class="st19" d="M296.6,41.1c-3.2-0.8-6.4-1.7-10.6-2.7c2.9-1.5,4.7,0.2,6.5-0.3C293.6,39.5,296.8,38,296.6,41.1z"/>
	<path class="st20" d="M310.2,44.8c-2.6-1.6-6.7,0.1-8.4-3.6c3.3,0.8,6.8,0.6,9.7,2.7C311.6,45.1,311.4,45.7,310.2,44.8z"/>
	<path class="st21" d="M291.3,154.1c0.4-0.3,0.7-0.7,1.1-1c2.7,1,5.8,0.8,8.2,2.9C297.1,157.6,294.3,155,291.3,154.1z"/>
	<path class="st22" d="M198.9,207c2.7-2.7,5.5-5.1,9.3-6c-2.8,2.8-5.7,5.3-9.3,6.8C198.8,207.5,198.8,207.2,198.9,207z"/>
	<path class="st23" d="M278.5,34.3c0.6,1.1,2.7,0.1,2.9,2.6c-3.1-1.3-6.9,0.1-8.8-3.8C274.6,33.5,276.5,33.9,278.5,34.3z"/>
	<path class="st24" d="M231.7,183c0.6-2,2.8-2.8,3.8-4.5c1.3-2.2,1.5,1.1,2.5,0.5C236.2,180.7,234.4,182.5,231.7,183z"/>
	<path class="st25" d="M227.7,21.2c0,0.4,0,0.7-0.1,1.1c-3-0.8-5.9-1.6-8.9-2.4c0-0.3,0-0.6,0-0.9c1.3,0.1,2.6,0.3,3.8,0.4
		C224.3,20,226,20.6,227.7,21.2z"/>
	<path class="st26" d="M31.5,138.9c0,0.4,0,0.7,0,1.1c-3,0.7-5.7,2.7-9,2.2c0.4-0.4,0.9-0.9,1.3-1.3C26,138.8,28.3,137.3,31.5,138.9
		z"/>
	<path class="st4" d="M310.2,44.8c0.4-0.3,0.8-0.6,1.2-0.9c1,0.2,3-0.2,2.6,1.1c-0.6,2-2.9,0.6-4.4,1.2c-0.8,0-1.6,0-2.4,0
		c0,0-0.4,0.1-0.4,0.1l-0.4-0.1c-0.2-0.2-0.3-0.4-0.2-0.7c0.1-0.2,0.2-0.3,0.2-0.3C307.7,45.1,309,45,310.2,44.8z"/>
	<path class="st27" d="M252.8,27.9c-0.4,0.4-0.7,0.7-1.1,1.1c-2-0.8-4.3-0.3-6.1-1.8c0.3-0.3,0.7-0.7,1-1
		C248.8,26.1,250.9,26.8,252.8,27.9z"/>
	<path class="st28" d="M213.9,197.1c0.1-3.9,3.5-3.9,5.9-5.1C218.5,194.4,215.9,195.4,213.9,197.1z"/>
	<path class="st6" d="M147.3,57.1c2.3-1.6,5.1-0.2,7.5-1c5.1-0.2,10.1-0.4,15.2-0.8c7.2,0.1,14.4-0.7,21.6-1.1
		c2.4-0.4,4.8-0.7,7.1-1.1c6.1,0.1,6.1,0.1,6.1,6.2c-0.1,12.8,0.5,25.6-0.4,38.3c-1.8,2-4,0.9-6,0.5c-7.1-1.5-14.2-2.5-21.3-3.7
		c-1.9-0.2-3.8-0.9-5.8-1.1c-7-1.8-14.3-2.2-21.4-3.9c-2.4-0.6-5-0.6-6.7-2.8c-1.4-8.7-0.6-17.4-0.5-26.1
		C142.9,57.8,144.9,56.9,147.3,57.1z"/>
	<path class="st29" d="M203.8,97.9c0.1-13.9,0.2-27.9,0.4-41.8c0-1.5-0.5-2.1-2-2.1c-1.2,0-2.7,0.8-3.5-0.9c1.9-0.4,3.8-0.7,5.7-1.1
		c0.5-0.5,0.9-0.4,1.3,0.2c0.2-0.1,0.3-0.1,0.5-0.1c-0.2,8.7-0.3,17.4-0.5,26.1c-0.6,6.3-0.9,12.6,0.1,18.9l0.2-0.1
		c0.2,0.4,0.2,0.8,0.1,1.2c-0.3,0.6-0.8,1-1.4,1.2c-0.4,0-0.8-0.1-1.2-0.4C203.4,98.6,203.5,98.2,203.8,97.9z"/>
	<path class="st30" d="M147.3,57.1c-2.5,0.8-3.4,2.2-3.3,5c0.3,8.3,0.1,16.6,0.2,24.9c-3.2-0.5-2.3-3.1-2.4-5.1
		c-0.4-7.1,0.6-14.2-0.6-21.3c-0.9-1.6-3-1.6-4.1-3.1c-0.3-0.5-0.3-0.9,0-1.4C140.5,56.3,144,55.6,147.3,57.1z"/>
	<path class="st31" d="M118.1,54.8c0-2.7,0-5.5,0.1-8.2c0-1.2,0.8-1.8,1.9-1.5c1.4,0.4,1.2,1.2,0.1,1.9c-1.1,3.5-0.5,7,0.4,10.5
		c0.1,9.4,0.9,18.8-0.4,28.2c-0.5,0.8-1,1.8-2.2,1c-1-1.2-1.2-2.7-1.2-4.2c0.1-8.7-0.6-17.4,0.4-26.1
		C117.4,55.9,117.7,55.4,118.1,54.8z"/>
	<path class="st32" d="M191.6,54.1c-7.1,1.9-14.4,1.9-21.7,1.8c-0.4-0.3-1.1-0.4-1.2-1C176.3,54.1,183.9,52.9,191.6,54.1z"/>
	<path class="st31" d="M53.8,41.2c5.5-1,11.1-1.9,16.6-2.9c0.5,0.3,1.2,0.3,1.3,1c-7.8,1.5-15.5,3.1-23.3,4.6
		c-0.7-0.3-1.4-0.7-1.1-1.7C49.3,40.4,51.7,42,53.8,41.2z"/>
	<path class="st10" d="M235.8,51.2c-8,0.9-16.1,1.8-24.2,0.8c8-1.5,16-1.6,24.1-1.9c0.3,0.2,0.5,0.4,0.4,0.7
		C236,51.1,235.9,51.2,235.8,51.2z"/>
	<path class="st33" d="M127.1,27.1c6.6-1.3,13.3-2.7,19.9-4c1-0.6,1.9-0.9,2,0.9c-6.6,1.3-13.3,2.6-19.9,3.9
		C128.5,27.4,127.6,27.8,127.1,27.1z"/>
	<path class="st34" d="M149,23.9c-0.7-0.3-1.3-0.6-2-0.9c6.3-1.4,12.6-2.8,18.9-4.1c0.6-0.4,1.3-0.6,2-0.5c0.7,0.3,1.2,0.7,1,1.5
		C162.3,21.3,155.7,22.6,149,23.9z"/>
	<path class="st35" d="M205.7,52.1c-0.4-0.1-0.9-0.1-1.3-0.2c-0.2-6.3-0.5-12.5,0.3-18.7c1.2-1,2.3-1,3.4,0.1
		c-1.8,0.9-2.2,2.5-2.2,4.4C206,42.5,205.8,47.3,205.7,52.1z"/>
	<path class="st36" d="M209.4,30.9c-0.5,0-0.9-0.1-1.4-0.1c-1.8-0.2-3.9-0.7-3.3,2.4c1.1,0,2.3,0.1,3.4,0.1c0.4-0.2,0.9-0.3,1.3-0.4
		C209.2,32.2,209.3,31.6,209.4,30.9z"/>
	<path class="st37" d="M28.6,51.9c0.8-1.1,2.1-0.6,3.1-1c5.6,0.5,11.3-0.8,16.8,1.3c0.2,0.7,0,1.2-0.6,1.5
		C41.3,54.3,34.8,54.4,28.6,51.9z"/>
	<path class="st38" d="M97.2,53.8c4.4,0.7,8.9-0.5,13.2,1.1c-1.4,1.8-3.6,1.4-5.3,2.1c-3.6,0.3-7.3,1.3-10.7-0.9
		c-0.6-0.9-0.2-1.6,0.5-2.2C95.6,53.5,96.4,53.5,97.2,53.8z"/>
	<path class="st34" d="M71.7,39.3c-0.4-0.3-0.9-0.7-1.3-1c5.3-1.1,10.6-2.1,15.9-3.2c1.1-0.6,2-0.9,2,0.9
		C82.8,37.1,77.2,38.2,71.7,39.3z"/>
	<path class="st39" d="M95.2,54.1c-0.4,0.3-0.7,0.7-1.1,1c-5.9,2.2-11.7,2.2-17.4-0.4c-0.5-0.4-0.6-1-0.4-1.6c1.9,0,3.9,0,5.8,0
		C86.4,54.4,90.9,52.6,95.2,54.1z"/>
	<path class="st40" d="M119.4,57.3c0-3.4-1.7-7,0.8-10.2c-0.5,6.8-0.5,6.8,7.1,8.9c-0.5,1-1.4,1.6-2.5,1.9
		C122.9,58.3,121,58.6,119.4,57.3z"/>
	<path class="st39" d="M306.5,45.2c0,0.3,0,0.7,0,1c-3.8,1.5-7.9,0.6-11.8,1c-1.1,0-2.7,1.4-3-1C296.6,45.9,301.5,45.5,306.5,45.2z"
		/>
	<path class="st41" d="M284.5,48c-5-0.4-10,2-15.1,0.1c4.2-1.7,8.6-0.7,13-1.2C283.3,46.7,284.6,46,284.5,48z"/>
	<path class="st17" d="M284.5,48c-0.7-0.4-1.4-0.7-2.1-1.1c3-1.4,6.2-0.7,9.3-0.7c0.8,1,2,0.6,3,1C291.3,48.6,287.9,48,284.5,48z"/>
	<path class="st42" d="M168.7,54.9c0.4,0.3,0.8,0.7,1.2,1c-5-0.2-10,2-15.1,0.1C159.4,54.3,164.1,55.2,168.7,54.9z"/>
	<path class="st43" d="M262.8,49.1c-4.6,1.6-9.4,0.8-14.1,1.1c-0.2-0.2-0.3-0.4-0.2-0.7c0.1-0.2,0.2-0.3,0.3-0.3
		C253.4,49.8,258.1,47.5,262.8,49.1z"/>
	<path class="st44" d="M47.2,42.9c0.4,0.3,0.8,0.7,1.2,1c-3.9,0.7-7.8,1.5-11.7,2.2c-1,0.3-2,0.9-2.1-0.9c3.3-0.8,6.6-1.5,9.9-2.3
		C45.4,42.3,46.3,42.2,47.2,42.9z"/>
	<path class="st45" d="M248.7,49.2c0,0.3,0,0.7,0,1c-4.2,1.6-8.6,0.7-12.9,1c0-0.3,0-0.7,0-1C240.1,49.8,244.4,49.5,248.7,49.2z"/>
	<path class="st46" d="M95.2,54.1c-4.3-0.7-8.8,0.6-13.1-1c5,0.2,10.1-1,15.1,0.7C96.5,53.9,95.9,54,95.2,54.1z"/>
	<path class="st47" d="M34.6,45.3c0.7,0.3,1.4,0.6,2.1,0.9c-2.6,1.3-5.4,1.5-8.2,1.7c-0.6-0.5-1.5-0.1-2-0.9
		C29,45.6,31.9,46.1,34.6,45.3z"/>
	<path class="st48" d="M88.3,36c-0.7-0.3-1.3-0.6-2-0.9c3-0.6,6-1.2,9-1.8c0.4,0.3,1.1,0.4,1.2,1.1C93.9,35.5,91.1,35.7,88.3,36z"/>
	<path class="st49" d="M169,20c-0.4-0.4-0.8-0.7-1.2-1.1c1.4-3.7,4.6-0.5,6.6-1.7c0.6,0,1.1,0,1.7,0c0.4,0.3,1,0.4,1.2,1
		C174.6,19.5,171.7,19.6,169,20z"/>
	<path class="st15" d="M114.3,29.1c2-0.3,3.9-0.6,5.9-0.9c0.4,0.3,1,0.3,1.2,0.9c-2.8,1.3-5.9,1.8-8.9,2c-1,0.5-1.3,0-1.4-0.9
		C111.8,29,113.4,30,114.3,29.1z"/>
	<path class="st50" d="M111.2,30.2c0.4,0.3,0.8,0.7,1.2,1c-2.8,0.6-5.5,1.1-8.3,1.7c-0.4-0.3-1.1-0.4-1.2-1c0.1-0.2,0.2-0.5,0.3-0.7
		C105.7,29.4,108.3,28.4,111.2,30.2z"/>
	<path class="st51" d="M105.3,55.9c1.5-1.4,3.4-0.4,5.1-1c2.6,0,5.1-0.1,7.7-0.1c0,0.5-0.1,1-0.1,1.6
		C113.6,58,109.4,58.6,105.3,55.9z"/>
	<path class="st52" d="M26.4,47c0.7,0.3,1.3,0.6,2,0.9c-2.6,0.5-5.2,0.9-7.7,1.4c-0.8,0.2-1.5,0.4-2.3,0.6c0-0.5,0-1.1,0-1.6
		C21.2,47.8,23.8,47.4,26.4,47z"/>
	<path class="st53" d="M48.5,52.9c0-0.2,0-0.4,0-0.7c3.9,0,7.9,0,11.8,0c0.1,1.2-0.8,1.5-1.6,1.8C55.2,54.4,51.6,55.5,48.5,52.9z"/>
	<path class="st42" d="M59.3,53.1c0.3-0.3,0.6-0.6,1-0.9c2.1-0.3,4.1-0.3,6.1,0.8c0.3,0.6,0.2,1.1-0.3,1.5
		C63.6,55.3,60.9,56.6,59.3,53.1z"/>
	<path class="st54" d="M125.2,56.9c0.7-0.3,1.3-0.6,2-0.9c3.3,0.1,6.5,0.2,9.8,0.2c0,0.3,0,0.6,0.1,0.9
		C133.1,59.3,129.2,59.5,125.2,56.9z"/>
	<path class="st55" d="M177.2,18.2c-0.4-0.3-0.8-0.7-1.2-1c2.5-0.5,5.1-0.9,7.6-1.4c0.4,0.4,0.8,0.7,1.3,1.1
		C182.3,17.4,179.7,17.8,177.2,18.2z"/>
	<path class="st56" d="M121.4,29.2c-0.4-0.3-0.8-0.6-1.2-0.9c2.3-0.4,4.6-0.8,6.9-1.2c0.7,0.3,1.3,0.5,2,0.8
		C126.5,28.3,123.9,28.7,121.4,29.2z"/>
	<path class="st57" d="M66.4,53.9c0-0.3,0-0.6-0.1-0.9c3.3,0.1,6.6,0.1,9.9,0.2c0,0.3,0,0.6,0,0.9C73,56.2,69.7,56.3,66.4,53.9z"/>
	<path class="st58" d="M103,31.9c0.4,0.3,0.8,0.7,1.2,1c-2.5,0.5-5.1,0.9-7.6,1.4c-0.4-0.4-0.8-0.7-1.2-1.1
		C97.9,32.8,100.4,32.3,103,31.9z"/>
	<path class="st1" d="M111.2,30.2c-2.6,0.3-5.3,0.7-7.9,1c0.6-3.7,3.2-3.8,5.8-3c1.7,0.5,3.4,0.9,5.2,1
		C113.3,29.5,112.3,29.8,111.2,30.2z"/>
	<path class="st1" d="M174.3,17.2c-2.2,0.6-4.4,1.1-6.6,1.7c-0.6,0-1.1,0-1.7,0C167.9,14.3,171,15,174.3,17.2z"/>
	<path class="st1" d="M47.2,42.9c-0.9,0-1.8,0-2.7,0c-0.1-2.4,0.8-3,3.3-2.5c1.9,0.4,4.1-0.1,6.1,0.7C51.6,41.8,49.4,42.3,47.2,42.9
		z"/>
	<path class="st46" d="M66.4,53.9c3.3,0.1,6.6,0.1,9.9,0.2c5.8,1.6,11.9,0.7,17.8,1.1c3.6,1.4,7.4,0.7,11.2,0.7
		c4.2,0.2,8.4,0.4,12.6,0.5c0.1,10.2,0.2,20.4,0.2,30.6c0.6,0.7,0.6,1.4,0.4,2.2c-2,3.7-5.5,4.8-9.3,5.4c-11.6,2.5-23.4,4.2-35,6.7
		c-12.9,2.7-25.9,4.8-38.8,7.7c-3,2.8-0.9,6.4-1.5,9.6c0,1.7-0.2,3.6,1.5,4.4c3.3,1.6,3.4,4.6,3.7,7.5c0.3,0.5,0.6,1,1.1,1.4
		c1.8,0.5,3.7-0.5,5.5,0.4c0.6,0.4,1.1,0.8,0.8,1.6l0.1,0.2c-5.1,1.3-10.2,2.7-15,4.8c-2.6,0.7-5.2,1.3-7.7,2
		c0-29.5,0-59.1-0.1-88.6c1.6-0.1,3.3-0.2,4.9-0.3c6.6,0.3,13.3,0.6,19.9,0.9c3.6,0.1,7.2,0.2,10.9,0.2C61.6,54.4,64,54.1,66.4,53.9
		z"/>
	<path class="st59" d="M300.5,115c2.2-0.1,2.1,1.5,2.1,3c-0.1,4.3-0.2,8.6-0.3,12.8c-0.3,0.4-0.7,0.4-1.1,0.2
		c-1.7-1.2-2.7,0.2-4,0.9c-1.6,0.9-3,2.2-5,1c-7.3-3.5-15.3-4.3-22.9-6.2c-9.1-2.3-18.2-4.8-27.5-6.5c-1.1-0.3-2-0.8-2.4-1.9
		c0-2,1.1-2.9,3-2.9c1.5,0.3,2.7,1.3,4.2,1.6c16.4,4.1,32.8,8.3,50.2,11.6c-0.5-2.5-3.1-2.9-2.3-4.8c1.5-1.6,5.8,1,5.2-2.7
		c-0.3-2-3.3,0.5-5.2,0.1c-9.7-1.9-19.6-2.4-28.7-6.8c-0.6-2,0.9-2.4,2.1-2.1c2.2,0.5,4-0.6,6-0.9c0.5,0.1,0.8,0.4,1.1,0.7
		c0.5,1.5,1.8,1.7,3.1,2c4.7,0.9,9.3,1.8,13.9,2.8c2.4,0.5,4.5,0.1,6.5-1.2C299.1,115.4,299.9,115.4,300.5,115z"/>
	<path class="st60" d="M260.1,107.9L260.1,107.9c1.8,0.5,2.2,2.1,2.8,3.6c-0.1,0.5-0.4,0.9-0.8,1.1c-0.7,0.3-1.4,0.5-2.2,0.5
		c-6.7-1.5-13.5-2.2-20.1-4.1c-3.2-1-6.5-1.4-9.9-1.9c-0.5-0.1-1-0.2-1.6-0.3c-7-1.8-14.1-2.9-21-4.7c-0.9-0.6-2.2-0.9-1.4-2.5
		c4.9-1.1,9.4,0.7,14.1,1.5C233.5,103.2,246.6,106.5,260.1,107.9z"/>
	<path class="st61" d="M260.1,107.9c-6.6,1.2-12.8-1.5-19.2-2.4c-11.7-1.5-23.1-5.1-35-5.5c-0.8-0.6-0.7-1.3-0.2-2.1
		c0.1-0.4,0.2-0.8,0.2-1.1c7.3,3.1,15.3,3.5,22.9,5.1C239.3,104,249.9,105.3,260.1,107.9z"/>
	<path class="st62" d="M292.8,138.2c-4.6,3.4-8.6,7.6-14.1,9.7c0,0-0.2,0.1-0.2,0.1c-0.7-2.3,1.3-3.3,2.6-4.3
		c3.2-2.5,6.4-5.3,10.6-6.3C292.2,137.5,292.5,137.8,292.8,138.2z"/>
	<path class="st63" d="M277.5,109.9c-0.8-0.2-1.6-0.5-2.4-0.9c-0.2,0.4-0.3,0.9-0.5,1.3c-0.3,0.2-0.5,0.5-0.6,0.9
		c0.1,0.4,0.2,0.6,0.5,0.9c3.6,2.1,7.4,3,11.4,1.6c0.6-0.3,0.8-0.8,0.5-1.4C283.5,111.4,280.2,111.7,277.5,109.9z"/>
	<path class="st64" d="M286.5,113.2c0-0.3,0-0.6,0-0.9c4.7,0.9,9.3,1.9,14,2.8c-0.3,0.3-0.7,0.6-1,1
		C294.7,117.1,290.1,117.3,286.5,113.2z"/>
	<path class="st65" d="M274.6,110.2c-0.1,0.2-0.1,0.4,0,0.6c-3.9,2.5-8-0.1-12,0.2c-2.4,0.3-1.5-2.2-2.5-3.1
		C264.9,108.7,269.8,109.5,274.6,110.2z"/>
	<path class="st66" d="M205.9,97c-1.7-6.3-1.4-12.6-0.1-18.9C205.8,84.4,205.8,90.7,205.9,97z"/>
	<path class="st67" d="M301.5,131c0.3,0,0.5-0.1,0.8-0.1c-2.7,3-6.1,5.2-9.5,7.3c0,0-0.3-0.3-0.3-0.3
		C293.8,133.3,297.1,130.7,301.5,131z"/>
	<path class="st68" d="M196.7,206.8c-7.5-1.8-13.7-6.4-20.4-9.8c-17.2-8.7-34.3-17.8-51.4-26.8c-1.3-0.7-4.2-0.7-3.1-3.3
		c1.2-2.9,3.5-1.4,5.4-0.5c3.3,1.6,6.5,3.1,9.8,4.6c0.8,0,1.5,0,2.2,0.3c18.1,8.8,35.9,18,53.9,26.9
		C197.3,200.1,198.4,202.8,196.7,206.8z"/>
	<path class="st69" d="M118,161.1c0.2,0.2,0.4,0.5,0.6,0.7c0.9,1.1,3.9,0.5,2.8,3.1c-1,2.3-3,2-5,0.9c-15-8-30-15.9-45-23.9
		c0.6-4.5,3.6-2.3,5.9-2.2c2.6,0.7,4.8,2.4,7.2,3.6c4.7,3.2,9.9,5.3,14.9,7.9c3.8,2.1,7.7,3.9,11.6,5.9c1.1,0.6,2.2,1.3,3.5,1.7
		c1.2,0.4,2.4,0.8,3.3,1.8C117.9,160.7,117.9,160.9,118,161.1z"/>
	<path class="st70" d="M138.1,171.9c-0.3-0.3-0.7-0.6-1-0.9c2.1-3.4,6.4-3.4,9-5.9c0.9-1.8,2.9-2.3,4.3-3.5c0.4-0.3,0.8-0.5,1.2-0.8
		c2.5-1.3,5.1-2.4,7.5-3.8c4.8-2.9,9.4-2.6,13.8,0.8c0.3,0.5,0.3,0.9,0.1,1.4c-6.7,3.6-13.3,7.4-19.7,11.5
		c-4.3,2.7-8.7,0.3-13.1,0.8C139.5,171.5,138.8,171.5,138.1,171.9z"/>
	<path class="st22" d="M138.1,171.9c0.3-0.3,0.7-0.7,1-1c2.5-0.4,4.5,1,6.5,2c15.3,7.7,30.6,15.2,45.8,23.1
		c4.1,2.1,7.3,2.1,10.8-0.9c1.9-1.7,3.9-3.8,6.9-3.6c0.2,0.1,0.4,0.3,0.6,0.4c-1.5,3.2-4.7,4.5-7.4,6.2c-3.4,2.1-5.4,4.6-4.4,8.8
		c-0.4,0-0.8,0-1.2,0c0.8-4-1-6.1-4.6-7.9C174,190.1,156.1,180.9,138.1,171.9z"/>
	<path class="st71" d="M136.2,154c0.4,2.1-1.2,3.4-2,5c-0.6,2-1.5,0.7-2.3,0.2c-0.8-2-1.9-0.8-3-0.3c-1.8,2.5-3.9,4.2-7,2.1
		c-1.4-1-2.5,0.1-3.8,0.1c0,0,0.1,0,0.1,0c-2.8-2.7-0.1-3.8,1.6-4.6c4.2-2.1,8.5-4.1,13.2-5.1c1.2,0,1.6,1.2,2.4,1.8
		C135.7,153.4,136,153.7,136.2,154z"/>
	<path class="st72" d="M145.2,162.8c-1-1-2-2-3-3c-1.7-2.7-0.7-5,1.1-7.1c0.4-0.3,0.9-0.6,1.4-0.7c6.3-0.2,8.5,1.6,9,7.3
		c-0.5,1.3-1.9,1.6-2.7,2.6l0,0C149.2,162.9,147.5,164.9,145.2,162.8z"/>
	<path class="st73" d="M77.3,141c-2-0.1-4.4-2.3-5.9,0.9c-3.2-1.3-6.3-2.7-9-4.8c0.3,0,0.5-0.1,0.8-0.2c1.1-1.8,2.7-2,4.5-1.7
		c0.9,0.2,1.8,0.6,2.7,1c1.1,0.4,2.2,0.6,3.4,0.8C75.8,137.6,77.7,138.3,77.3,141z"/>
	<path class="st74" d="M132.2,159c0.6,0.1,1.2,1.1,1.9,0c2.5,0.3,2.1,2.1,1.9,3.7c-0.3,1.9-2,2.6-3.6,2.9c-1.7,0.3-3.5-0.7-4.3-1.9
		c-1.1-1.6,1.7-1.4,2-2.6C130.9,160.4,131.1,159.2,132.2,159z"/>
	<path class="st75" d="M136.2,154c-0.3,0-0.7-0.1-1-0.1c1.6-3.8,5.8-3.6,8.6-5.6c3.4-1,6.4-2.7,9.3-4.7c0.5-0.1,0.9,0,1.4,0.3
		c2.1,2.8,0.1,4-2,5.1c-2.7,1.4-5.8,2-8.3,3.9l0.1-0.1c-1.5,1.3-3.3,1.1-5.1,1C138.1,153.9,137.1,154,136.2,154z"/>
	<path class="st76" d="M139,153.9c1.5-1.4,3.4-0.5,5.1-1c-1.8,2-2.5,4.3-2,7c-1.3,0.6-2.3,0-1.9-1.4
		C140.7,156.5,140.8,155.1,139,153.9z"/>
	<path class="st77" d="M132.2,159c0,1.4-0.8,2-2.1,2c0-1-0.3-1.8-1.3-2.1c0.7-1.1,0.6-3.2,2.2-3.1
		C132.4,155.9,131.8,157.9,132.2,159z"/>
	<path class="st78" d="M145.2,162.8c2.1,0.5,3.9-0.5,5.9-0.9c-0.9,2.3-3.2,2.3-4.9,3.2c-0.8-0.6-2.2-0.4-2.2-1.8
		C143.9,163.1,144.7,163,145.2,162.8z"/>
	<path class="st79" d="M219.8,185c-2.8,3.1-5.8,5.9-10,6.9c0,0,0-0.1,0-0.1c1.9-4.3,5-6.8,9.8-7.1L219.8,185z"/>
	<path class="st80" d="M219.5,184.8c-3.7,1.8-6.9,4.2-9.8,7.1c-3.5,1-5.9,3.6-8.6,5.6c-2.7,2-4.9,2.2-8,0.6
		c-17.9-9.2-36-18.2-53.9-27.2c0.6-1.1,1.7-1.2,2.6-0.9c9.1,3.2,15-3.4,21.8-7.1c3-1.6,5.7-3.9,9.4-4c1.9-1.3,3.5,0,5.1,0.7
		c6.9,2.8,13.7,5.9,20.7,8.5c5,2.5,10.4,4.2,15.5,6.7c2.3,1.1,4.3,0.8,6.5-0.5c2.3-1.3,4.4-3,6.9-3.8c0.8-0.1,1.5,0.1,2.1,0.5
		c1.6,0.7,3.2,1.4,5.2,2.2C229.5,177.3,224.5,181,219.5,184.8z"/>
	<path class="st81" d="M301.5,131c-4.2,0.8-6.7,3.8-9,7c-5.3,2.5-10.3,5.4-14,10.1c-0.6,0.3-1.3,0.7-1.9,1
		c-5.5,3.7-11.1,7.4-16,11.9c-3.5,2.5-7.6,4.1-10,8c-3.7,0.4-5.7,3.7-8.8,5.2c-1.2,0.6-2.5,1.4-3.4-0.2c-0.7-1.4,0.8-1.9,1.6-2.6
		c3.5-2.9,7.9-4.7,10.7-8.5c0.9-3,3.6-3.9,5.8-5.4c6.3-3.3,11.7-7.9,17.5-11.9c2.3-1.4,4.5-2.8,6.5-4.7c0.3-0.3,0.7-0.6,1.1-0.8
		c3.6-1.9,6.5-4.9,10.1-6.9c0.2,0,0.5-0.1,0.7-0.1c2.6-0.3,4.3-2.3,6.3-3.6C300.8,128,301.8,128.5,301.5,131z"/>
	<path class="st74" d="M229.8,170.9c-0.7,0-1.3,0.1-2,0.1c-5.6,4.3-10.9,1.6-16.1-0.8c-6-2.7-6.2-3.5-1.9-8
		c-0.2-0.8-0.5-1.6-0.2-2.4c0.5-0.8,1.2-1.2,2.2-1.1c0.9,0.5,1.2,1.6,2.1,2c1.4-0.1,1.7-1.6,2.8-2c0.4-0.1,0.9-0.2,1.3-0.1
		c2.1,1.1,4.3,2.2,6.1,3.8c0.9,0.8,1.9,1,3.1,0.7c0.6-0.1,1.2-0.1,1.8,0.1c0.4,0.1,0.8,0.4,1.2,0.5c0-0.6-0.8-0.6-0.8-1.2
		c0.7-1.1-2-2-0.2-3.2c3.9-0.5,7.2,1,10.4,3.1c1,2.5-1.1,3-2.5,3.9c-1.7,1.2-3.5,2.3-5.2,3.4c-1.1,0.2-1.5-1.8-2.8-0.9
		C229,169,229.5,170.2,229.8,170.9z"/>
	<path class="st82" d="M231.9,169.8c1-4,5.9-3.7,7.6-7c-0.2-0.5,0-1,0.4-1.3c1-0.7,2.1-1,3.2-1.2c1.8-0.4,3.1-0.7,2-3.2
		c-0.9-1.9,0.1-3.7,2.3-4.1c3.9-0.6,7.7-1.7,11.7-1.3c1.3,0.1,2.9,0.1,3.4,1.5c0.5,1.7-1.3,2-2.3,2.7c-1,0.9-2,1.7-3.4,1.9
		c-2,1.7-4,3.3-6.1,5c-3.3,0.9-5.9,3.1-8.3,5.2C239.1,171,235.9,172.1,231.9,169.8z"/>
	<path class="st83" d="M46.4,133.9c-0.4-0.4-0.8-0.8-1.2-1.2c-0.1-1.1,0.4-1.8,1.2-2.4c3.1-1,6.3-2,9.1-3.6
		c3.3-1.5,6.7-2.7,10.4-2.6c2.8,0.9,2.7,3.3,2.7,5.5c0,1.2-0.2,2.3-0.7,3.3c-1.8,2-3.7,3.4-6.5,1.8c-1.8,0.6-2.8,2.7-5,2.7
		c-0.8,0-1.5,0.4-2.3-0.2C51.6,135.2,49.1,134.1,46.4,133.9z"/>
	<path class="st84" d="M61.5,134.8c2.2,0.3,4-0.8,5.7-1.9c0.2-0.1,0.4-0.2,0.6-0.3c0.5,0.1,0.8,0.4,1.1,0.9c0.3,1,0.2,1.9-0.6,2.7
		c-1.7,0.2-3.4,0.5-5.1,0.7C62.9,136,61.4,136,61.5,134.8z"/>
	<path class="st20" d="M172,92.1c1.8-0.4,3.3,0.7,5,1.1c1.2,0.5,1.8,1.4,1.3,2.8c-0.6,0.7-1.9,1.4-0.2,2.4c0.8,0.5,1.5,1.2,0.5,2.2
		c-1,0.7-2.2,0.7-3.4,0.8c-1.2,0-2.4,0.2-3.6,0.2c-1.4-0.3-2.9-0.6-4.3-0.1c-9.3,3.3-18.8,5.7-27.8,9.8c-2,0.4-3.9,1.3-5.9,2
		c-4,0.5-8,3.4-12.2,0.6c0.8-2.5-1.2-3.4-2.6-4.6c-0.1-0.4-0.1-0.9,0-1.3c2.6-3,6.8-1.7,9.9-3.6c5.1-2.6,10.8-3.4,16.2-5.3
		c1.3-0.5,1.3-1.1,1.1-2.1c0.9-0.9,2-1.1,3.2-1c7.4,0.4,14.4-1.8,21.6-2.9C171.3,92.8,171.6,92.4,172,92.1z"/>
	<path class="st85" d="M172,92.1c0,0.3,0,0.6,0,0.9c-0.9,1.6-2.3,1.5-3.9,1.3c-3.8-0.4-7.6-0.9-11.4-1c-2.8,0.3-5.6-1.8-8.4,0
		c-1.2,0.5-2.4,0.1-3.4-0.5c-0.8-0.5-1.6-1-2.4-1.5c-1.7-1.4-3.4-0.6-5.1-0.2c-4.3,1.1-8.5,2.3-13,2.5c-2,0.1-3.9,0.2-5.4-1.6
		c-0.3-1.2,0.3-2,1.2-2.6c0.5-0.2,1-0.3,1.6-0.4c4.3-0.5,8.5-1.3,12.7-2.2c5.7-1.2,6-1.6,6.1-7.7c0-5.2,0-10.3,0-15.5
		c0-2-0.1-4,1.3-5.7c1.8,1.1,1.1,3,1.1,4.5c0.1,6.6,0,13.2,0.1,19.8c0,1.6-0.7,3.4,1,4.6C153.4,88.7,162.7,90.4,172,92.1z"/>
	<path class="st20" d="M177.9,96c-0.3-0.9-0.6-1.9-1-2.8c9,1,18,2.6,26.8,4.7c0,0.3,0.1,0.7,0.1,1c0.4,1.9-1,1.7-2,1.5
		c-1.4-0.3-2.7-0.8-4.1-0.8c-3-1.6-6-0.4-9.1-0.1c-2.8-0.8-5.6-1.5-8.6-1.8C179.1,97.5,177.6,97.9,177.9,96z"/>
	<path class="st21" d="M177.9,96c3.6,1.2,7.9-0.2,11,3c3-1.2,5.9,0.2,8.9,0.1c1-1.3,2.2-1.1,3.3-0.2c0.9,0.7,1.8,1.6,2.7,0.1
		c0.3,0.1,0.6,0.1,0.9,0.1c0.6,2.1,1.4,4.2-0.6,6.1c-1.3,0.6-4-1.3-3.5,2.2c-0.6,0.3-1.3,0.4-2,0.1c-2.6-2.6-5.9-3.2-9.3-3.4
		c-3.8-0.3-7.4-1.4-10.5-3.8c-0.6-0.4-1.3-0.9-1.9-1.3c-0.9-0.5-2.7-0.6-2.4-1.9C175,95.3,176.8,96.3,177.9,96z"/>
	<path class="st66" d="M203.8,105.1c1.3-1.9,0.4-4.1,1-6c0.3-0.3,0.7-0.7,1-1c0.1,0.7,0.1,1.4,0.2,2.1c0.2,0.8,1,0.9,1.7,1.1
		c0.5,0.8-0.1,1.5-0.3,2.2c0,1,0.6,1.8,0.8,2.7c0,0.7-0.3,1.2-0.7,1.7c-0.8,0.7-1.4,1.7-2.7,1.4c-0.9-0.8-1.1-1.8-1.3-2.9
		C203.4,105.8,203.5,105.4,203.8,105.1z"/>
	<path class="st86" d="M142,58.1c0.1,8.6,0.2,17.2,0.3,25.8c0,1.3,0.2,2.8-1.7,3.1c-6.4,1.3-12.7,3.8-19.4,3
		c1.3-2.2,0.6-3.5-1.8-4.2c0-9.5,0-19.1,0-28.6c2-0.1,3.9-0.3,5.9-0.4c4,0.1,7.9,0.1,11.9,0.2C138.6,58,140.3,57.8,142,58.1z"/>
	<path class="st38" d="M119.4,85.8c1.7-0.1,3.3-1.7,5.3-0.2c-0.3,2.1-2.1,3.1-3.5,4.4c-0.4,0-0.9,0.1-1.3,0.1
		c-0.6,0.1-1.1,0-1.5-0.4c-0.2-0.3-0.4-0.6-0.4-1c0.1-0.6,0.2-1.1,0.3-1.7C118.6,86.6,119,86.2,119.4,85.8z"/>
	<path class="st87" d="M38.3,132.1c-0.9-3.4-0.8-7.2-5-9c-1.3-0.6-0.7-2.7-0.7-4.1c0.9-0.7,1.6-0.4,2.2,0.5c0.4,2.7,2.1,2.7,4.2,1.9
		c5-0.6,9.6-2.7,14.6-3.2c4.4,0.5,8.6,0,12.8-1.6c-1.6,0.6-3.2,1-4.9,1.2c-0.9,0.1-2,1-2.4-0.6c-0.3-1.2,0.7-1.7,1.7-2.1
		c2.3-1,4.9-0.9,7-2.3c2.4-0.3,4.5-1.5,6.8-2.2c1.4,0.3,1.2,1.6,1.4,2.6c0.1,0.4,0.1,0.8,0.1,1.2c0.1,1.7,0.5,3.4-1.4,4.5
		c-0.4,0.2-0.8,0.4-1.2,0.6c-2.6,2.7-6,4.1-9.5,5.1c-3.2,1.2-6.8,1-9.6,3.2C48.9,128.8,43.8,131.3,38.3,132.1z"/>
	<path class="st88" d="M34.4,107.9c11.5-2.3,22.9-4.7,34.4-6.8c12.4-2.3,24.7-5.7,37.4-6.5c1.1-0.1,2.1-0.8,3.2-1.3
		c1.3,1.3,4.3-1.5,4.7,2c-3,2-6.4,2.1-9.8,2.5c-5.4-0.8-10.3,1.2-15.4,2.4c-15.3,2.6-30.5,5.7-45.8,8.7c-2.5,0.5-4.9,0.8-7.4,0.2
		C35.1,108.7,34.7,108.4,34.4,107.9z"/>
	<path class="st42" d="M34.4,107.9c0.3,0.1,0.6,0.2,1,0.1c1,1,2.9,0.7,3.4,2.4c-0.2,0.7-0.7,1.1-1.3,1.4c-0.9,0.5-1.8,1.1-1.2,2.3
		c0.6,1.1,1.7,0.9,2.6,0.7c3.4-0.8,6.8-1.4,10.2-2.2c2.1-0.5,4.2-1.1,6.4-0.4c0.5,0.2,0.8,0.5,1.1,0.9c-0.6,2.6-2.9,2.4-4.7,2.8
		c-4.9,1-9.8,2.4-14.8,3.4c-0.2,0.4-0.4,0.8-0.8,1.1c-0.7,0.2-1.3,0.2-1.8-0.5c-0.7-0.3-1.4-0.6-2-0.9c0-2.7,0.1-5.4,0.1-8.2
		C32.7,109.5,32.5,108.1,34.4,107.9z"/>
	<path class="st89" d="M38.3,132.1c4.8-3.3,10.6-3.6,16-5.2c1.1-0.5,1.3,0.1,1.1,1c-2.4,2.4-5.9,2.1-8.7,3.4
		c-2.5,0.2-4.9,1.1-7.3,1.8C39.1,132.7,38.7,132.4,38.3,132.1z"/>
	<path class="st38" d="M114.2,95c-1.2-1.9-3.6-0.2-4.9-1.8c3.7,0.1,6.2-2.1,8.6-4.5c0.2,0.2,0.4,0.4,0.5,0.6
		c-0.3,3.4,2.7,7.1-1.1,10.2c-2.2-0.3-2.3-2.4-3.2-3.8C114.2,95.5,114.2,95.2,114.2,95z"/>
	<path class="st90" d="M39.4,133.1c2.3-1.1,4.2-3.7,7.3-1.8c-0.5,0.5-1,0.9-1.5,1.4C43.3,132.5,41.4,133.8,39.4,133.1z"/>
	<path class="st91" d="M241.8,119.1c16.7,3.1,33,7.6,49.4,11.5c1.6,0.4,1.9,1,1.2,2.3c0,0,0-0.1,0-0.1c-3.7,2.6-7.3,5.4-11,8l0,0
		c-2.4,1.7-4.6,3.5-7.2,4.8c-5.1,4.9-10.7,7.5-18.2,6.9c-8.4-0.7-11.3-0.7-19.5-4c-4-1.6-8.4-2.1-12.6-3c-2.1-1.9-6-1.2-6.8-4.8
		c0.5-0.8,0.5-1.5-0.4-2.1c-1.2-3.3-0.4-6,2.5-7.8C226.6,126.6,233.8,122,241.8,119.1z"/>
	<path class="st92" d="M294.5,124c0.9,2.4,3.3,1.7,5.4,2.5c-2.4,2.8-4.6,3.8-8.4,2.8c-15.2-4-30.5-7.5-45.8-11.2
		c0.3-3,2.6-3,4.7-3.1c2.1-0.1,4.3,0.3,6.4,0.5c12,3.4,24.2,5.6,36.4,8C293.6,123.4,294.1,123.6,294.5,124z"/>
	<path class="st87" d="M294.5,124c-0.4,0-0.7,0-1.1,0c-9-1.2-17.7-3.7-26.6-5.4c-3.2-0.6-2.9-2-1.9-4.1c0.2-0.2,0.4-0.4,0.6-0.6
		c9.1,2,18.3,4,27.4,6c2.9,0.6,5.4-0.8,7.9-2.4C302.1,125.4,301.6,125.8,294.5,124z"/>
	<path class="st93" d="M241.8,119.1c-6.4,5-13.9,7.9-20.8,12c-3.3,2-4,4.3-3.1,7.6c-0.7,0.8-1.5,0.7-2.4,0.2c-1.7-3-1.3-6.1-0.6-9.2
		c4.5-4.9,10.9-6.7,16.5-9.9c1.7-1,3.6-1.8,5.4-2.5c1.1-0.3,2.1-0.2,2.9,0.6C240.1,118.8,241,119,241.8,119.1z"/>
	<path class="st94" d="M286.5,113.2c4.1,1.8,8.5,2.4,12.9,2.8c-2,2.3-4.2,3.1-7.4,2.2c-5.1-1.4-10.3-2.4-15.5-3.1
		c-2.5-0.3-2.5-1.4-2.1-3.1C278.5,112.4,282.5,112.8,286.5,113.2z"/>
	<path class="st95" d="M256.7,116c-1.7,1.2-3.4,0.7-5.2,0.2c-2.2-0.6-4.3-0.1-5.8,1.8c-1.4-0.1-2.4-0.8-3-2.1
		c-0.2-0.9,0.4-1.3,1.1-1.7c0.7-0.6,2.7-0.1,2.3-0.9c-2.2-4.7,1-3,3-2.8c4.1,0.2,7.9,1.8,11.9,2.3c1.5,1,2.7,2.7,1.5,4
		C260.6,118.6,258.6,116.5,256.7,116z"/>
	<path class="st96" d="M262.6,111.1c0.1-1.2,0.5-1.5,1.9-1.3c3.4,0.4,6.6,1.8,10.1,1.1c0,0.4,0,0.8,0,1.2c-2.6,2.6-6.1,0.7-9,1.9
		c0,0,0,0,0,0c-2.1,1-3.1,0.3-3-2C262.6,111.7,262.6,111.4,262.6,111.1z"/>
	<path class="st97" d="M243.7,115c-0.4,0.3-0.7,0.6-1.1,0.9c-1.4,0-2.4,0.7-2.9,2c-1,0.1-2,0.2-3,0.3
		C238,113.8,240.7,112.6,243.7,115z"/>
	<path class="st98" d="M243.7,115c-3.3-0.9-5.3,0.8-7,3.3c-6.8,3.9-13.5,7.8-20.8,10.6c-2.5-3-1.5-6.4-1.1-9.7
		c0.2-0.5,0.5-0.9,0.8-1.3c7.2-2.6,14-6,21-9c1.1-0.2,1.8-1.5,3.1-0.9c7,1.4,13.9,2.7,20.9,4.1c0.3,0.2,0.3,0.4,0.3,0.6
		c-0.1,0.2-0.2,0.3-0.2,0.3c-4.8-0.8-9.6-1.6-14.4-2.4c-0.5,2.3,1.9,2.5,2.8,4.4C247,115,245.4,115,243.7,115z"/>
	<path class="st99" d="M239.7,108c-0.7,0.7-1.4,1.3-2.1,2c-3.3-1.1-5.2,2.6-8.2,2.3c-3.5,0.5-6.5,2.4-9.7,3.6c-4,1.5-5,0.7-5.3-4
		c4.6-3.2,9.8-4.8,15.2-5.9C233.2,105.8,236.5,106.5,239.7,108z"/>
	<path class="st99" d="M206.7,107.2c0.4-0.4,0.7-0.7,1.1-1.1c1.6-1.8,3.6-1,5.5-0.8c2.3,0.3,4.7,1.3,7.1,0.1c0.6-0.4-0.3-1,0.1-0.5
		c0.1,0.2,0.1,0.4-0.2,0.4c-5,1-9.6-0.5-14.2-2.2c0.6-0.6,1.1-1.3,1.7-1.9c7.1,1.3,14.3,2.4,21.2,4.6c-5,2.7-10.6,3.9-15.7,6.4
		C210,111.8,207.6,110.4,206.7,107.2z"/>
	<path class="st100" d="M260.6,112.9c0-0.3,0-0.6,0-0.9c0.7,0,1.4-0.1,2-0.1c0.6,1.2,1.5,2,3,2c-1.2,4.9,2.6,4.4,5.3,5
		c7.5,1.7,15,3.4,22.6,5c-3.2,2-5.9-0.5-8.8-1c-8.1-1.5-16.1-3.3-24.2-4.9c-1.5-0.3-2.9-0.6-3.8-2c1.6,0.3,3.2,0.6,5,0.9
		C262.3,115.3,261.1,114.2,260.6,112.9z"/>
	<path class="st101" d="M212.7,112c5.1-2.8,10.5-4.7,16.1-6.2c0.3,0.1,0.5,0.1,0.8,0.2c-4.5,3-9.8,4.1-14.8,6.1
		c-0.5,0.4-1.1,0.6-1.7,0.3C213.1,112.3,212.9,112.2,212.7,112z"/>
	<path class="st102" d="M77.3,141c-0.8-1.6-1.9-2.8-3.7-3.1c-0.3-2.2,1.7-2,2.9-2.5c7-3.3,14.5-5.4,21.7-8.1c4.9-0.4,8.5,3.1,13,3.9
		c4.4,2.2,9,4.1,13.6,6c2.5,1.1,3.7,2.6,0.5,4.4c-2.8,1.4-6,2-8.8,3.6c-2,2.9-0.7,6.1-1,9.2c-0.3,3.1-1.3,4.7-4.7,3.5
		c-4.1-1.5-7.9-3.5-11.6-5.7c-4.6-3.6-10.3-5.3-15.2-8.3C81.4,143.9,79.9,141.2,77.3,141z"/>
	<path class="st103" d="M110.8,158c2.5-0.3,3.5-1.3,3.6-4.2c0.1-3.3-2-7.2,1.7-9.9c0.3,0.4,0.5,0.8,0.6,1.3
		c-0.1,1.7-0.3,3.3-0.9,4.9c0.2,1.4,0,3,2.4,2c3.2-1.4,6.5-2.6,10.2-4.1c-3.3,1.1-5.9,2.5-8.7,3.3c-1.6,0.5-3.2,1.4-3.7-1.3
		c2.3-3.2,6.2-3.3,9.4-4.9c1.9-0.9,4-1.4,5.8-2.6c1.6-0.5,3-0.1,4.2,1.1c1.6,3.3,0.3,5.3-2.7,6.7c-1.5,0.7-3,1.3-4.6,1.7
		c-5.2,1.5-9.8,4.1-13.7,7.9C113.2,159.2,112,158.6,110.8,158z"/>
	<path class="st104" d="M114.4,159.8c2.8-8.3,11.3-7.5,17.3-10.4c2.8-1.4,3.9-2.6,3.3-5.4c0.7-0.8,1.6-0.8,2.6-0.6
		c2.6,4.3-0.7,6.3-3.4,8.5c-4.7,1.9-9.3,3.7-14,5.7c-1.5,0.6-3.2,1.3-1.9,3.5C116.9,160.6,115.6,160.2,114.4,159.8z"/>
	<path class="st105" d="M84.1,143.9c5.5,1.5,10.3,4.7,15.4,7.2c0.1,0-0.1,0.7-0.2,1.1C94.1,149.6,88.4,148,84.1,143.9z"/>
	<path class="st106" d="M198.7,169.2c-8.6-3.4-17.1-6.9-25.7-10.3c0-0.3,0-0.7,0-1c0.2-0.2,0.4-0.3,0.6-0.5c4-0.7,6.9,1.9,10.2,3.2
		c5.2,1.9,10.7,3.6,15.1,7.3C199.1,168.4,199,168.8,198.7,169.2z"/>
	<path class="st107" d="M151,161.9c-0.3-1.5,0.4-2,1.8-2.1c3.1-4.6,8.2-5.2,12.8-6.7c2.5,0.3,4.6,1.6,6.7,3c0.5,0.5,1,1.1,0.6,1.9
		c0,0,0-0.1,0-0.1C164.5,152.8,158.3,160.2,151,161.9z"/>
	<path class="st108" d="M134.1,151.9c-0.1-0.2-0.2-0.4-0.2-0.4c2.1-2.1,2.9-5,4.2-7.5c1.9-1.8,4.5,0.9,6.4-0.9
		c1.8-0.1,3.5,0.3,4.7,1.8c0,3.5-3.9,2.5-5.2,4.6c-3,1.5-5.9,3-8.9,4.5C133.3,154.1,133.7,153,134.1,151.9z"/>
	<path class="st109" d="M166,154c-4.6,1.6-9.1,3.3-13.2,5.9c-0.5-5.5-1.9-6.7-8.7-6.8c1.1-3.7,4.8-3.4,7.4-4.8
		c1.8-1,3.8-1.5,2.7-4.2c1-1.3,2.3-1.6,3.8-1.4c1.3,2.2,2.9,3.4,5.5,1.7c0.8-0.5,1.9-0.2,2.8,0.3c0.9,0.8,1.3,1.9,1.6,3
		c0,1.6,0.9,2.6,2.3,3.3c1.2,0.6,2.7,1.3,1.9,3.2C169.9,155.9,168,153,166,154z"/>
	<path class="st110" d="M68.4,132.9c-0.4,0-0.8,0-1.2,0c0.1-1,0.2-2,0.3-3c1-2.4,3-3.3,5.3-4.1c3.8-1.2,7.5-2.4,11.3-3.8
		c1.6-0.6,3.2-1.1,3.3-3.2c0.1-0.7,0.2-1.4,0.4-2c0.3-0.6,0.7-1.2,1.2-1.7c3.8-1.9,7.6,0.1,8.9,4.5c-0.1,2,0.1,4.1-0.8,6
		c-0.2,0.4-0.5,0.8-0.8,1.1c-6.2,3.4-13.2,4.7-19.7,7.2c-2.1,0.8-4.4,1.4-6.1,3c-0.8,0-1.6-0.1-2-0.9C68.4,135,68.4,134,68.4,132.9
		c7.9-3.9,16.6-5.2,24.7-8.5C85,127.5,76.3,128.9,68.4,132.9z"/>
	<path class="st111" d="M70.4,137c-1.3-2.7,1.2-2.5,2.5-3c7.8-2.7,15.6-5.2,23.4-7.8c1.1,0,2.2,0,2,1.6c-7.7,4.5-16.7,5.9-24.6,10
		C72.5,137.9,71.2,138.2,70.4,137z"/>
	<path class="st112" d="M158.2,143.2c-1.4,0.3-2.7,0.5-4.1,0.8c-0.4,0-0.8,0.1-1.3,0.1c-1.1,0.8-2.1,2-3.7,1.1
		c-1.6-0.5-3.2-0.9-4.8-1.4c-3.6-1.1-8-0.9-9.7-5.5c1.3-3,4.8-2.6,6.8-4.5c0.1-0.7,0-1.4-0.5-2c-0.9-0.8-2.2-0.8-3.2-1.2
		c-0.6-0.3-1.1-0.8-1.4-1.4c-0.6-1.2-0.6-2.3,0.8-3c2-0.8,4.1-1.3,6.1-2.1c0.7-0.3,1.4-0.5,2.2-0.7c3.4-1,6.8-0.8,10.2-0.5
		c1.8,0.5,3.4,1.4,4.5,2.9c0.3,0.5,0.2,0.9,0,1.4c-1.8,1-3.7,0.8-5.6,0.2c1.8,0.8,3.7,0.8,5.5,0.2c3.8,0,7.5,0.1,11.3-0.6
		c2.9-0.6-0.8-1.6,0.3-2.2c0.1-0.5,0.3-0.9,0.7-1.2c2.6-0.9,5.3-1,8.1-0.9c3.3,0.6,6.6,1,9.5,2.7c0.6,0.5,0.8,1.2,0.7,2
		c-0.4,1.6-1.7,2-3,2.6c-1.1,0.5-0.2,0.8,0.3,1.1c0.3,0.1,0.7,0.3,0.8,0.6c0.1,1-1.1,2.5,1.4,2c1.7-0.3,3.5,0.2,5.2,1.1
		c0.9,0.5,1.6,1.1,2,2.1c-0.2,3.1-3.1,3.4-4.9,4.9c-3.8,2.2-7.5,5-12.3,3.6c-1.1,0-2,0.6-3,0.9c-0.9,0.1-1.7-0.2-2.5-0.6
		c-0.6-0.3-1.1-0.8-1.5-1.3c-2-1.9-4-2.3-6.3-0.6C163.7,145.5,161.1,141.9,158.2,143.2z"/>
	<path class="st113" d="M149.1,145.2c1.2-0.4,2.5-0.7,3.7-1.1c-1.6,4-5.8,3.5-8.8,5.3C144.8,146.9,148.1,147.5,149.1,145.2z"/>
	<path class="st114" d="M210.8,161.9c0.5,1,3.6,2.7-0.7,2.3c-1.3-0.1-2.3,0.8-2.5,1.9c-0.2,1.2,1.2,1.3,2,1.7c3,1.4,6,2.6,9,3.9
		c2.2,1,4.4,1.2,6.4-0.5c0.8-0.8,1.8-1.7,2.8-0.2c-2.6,1.8-5.2,3.5-7.7,5.3c-1.4,1-2.8,1.1-4.2,0.5c-5.7-2.5-11.4-5-17.1-7.5
		c0.1-0.1,0.2-0.3,0.3-0.4c1.1-2.1-1-1.9-1.8-2.5c-1.3-1-3.6-1-3.4-3.4c0.5-0.4,1.2-0.8,1.7-0.6c4.6,1.8,4.8-0.6,4-4.1
		c0.2-1.5,0.9-2.8,2.3-3.5c1.5-0.1,2.2,0.7,2.5,2.1C204.2,162.4,204.2,162.4,210.8,161.9z"/>
	<path class="st115" d="M199.8,192.2c-2.8,1.5-5.9,2-8.3-0.4c-1.6-1.5-1.1-4.2-0.4-6.1c1.2-2.8,3.7-4,6.8-3.8
		C202.5,186.2,202.6,187.2,199.8,192.2z"/>
	<path class="st116" d="M199.8,192.2c1.8-3.9,0.3-7.1-1.9-10.2C203.6,184.6,204.2,188.1,199.8,192.2z"/>
	<path class="st117" d="M223.8,145c7.2-0.3,13.7,1.5,19.3,6c1.9,1.5,3.5,2.3,5.8,1.5c0.9-0.3,2-0.5,2.9-0.4c8.6,1.1,16.3-1,22.8-6.9
		c0.3,0.2,0.4,0.4,0.3,0.7c-0.1,0.2-0.2,0.3-0.3,0.3c-4.7,4.9-11,7.7-16,12.1c-0.3,0.2-1.2-0.3-1.8-0.4c1.7-1.4,3.4-2.8,5.5-4.5
		c-5.3-1.3-9.9,0.5-14.6,0.6c-0.9,0-1.7,0.3-1.9,1.2c-0.3,1.3,0,2.3,1.4,2.7c0.9,0.3,2.1,0.6,1.6,2c-0.3,0.9-1.3,0.9-2.1,1
		c-2.3,0.4-4.5,0.8-6.8,1.2c-1.2-0.5-1.5-1.6-1.7-2.7c0-0.5,0-0.9,0.1-1.3c0.2-1.9,0.7-3.9-0.4-5.7c-5.7-1.1-11.2-3-16.7-4.9
		c-1.1-0.8-2.5-1.8-1.6-3.1C221,142.4,222.5,144.2,223.8,145z"/>
	<path class="st118" d="M281.5,141c3-3.6,6.7-6.2,11-8C289.5,136.6,285.8,139.2,281.5,141z"/>
	<path class="st119" d="M274.6,146.1c0-0.3,0-0.7,0-1c2.3-1.4,4.1-3.7,6.9-4.2C279.9,143.6,277.4,145.1,274.6,146.1z"/>
	<path class="st120" d="M223.8,145c-1.2,0.3-2.5-1.6-3.5-0.2c-0.6,0.9,1.2,1.3,1.5,2.2c0.5,0.5,0.9,1,1.3,1.5
		c4.4,2.5,8.8,5,14.1,4.3c0.6-0.8,0.9-2,2.3-1.8c-0.1,2.7,1.2,5.6-0.8,8.1c-4-2.4-8.8-2.5-12.8-4.7c4,2.3,8.8,2.5,12.8,4.7
		c0.4,1.1,0.8,2.1,1.2,3.2c-0.1,0.2-0.2,0.5-0.4,0.7c-3.6-1-7.2-2-10.8-3c-3.3,0.4-6.1-1-8.9-2.4c-1.2-1.5-0.3-3.2-0.3-4.8
		c-0.1-2.7-0.3-5.3-3.6-6.1c-0.5,0-0.9-0.1-1.4-0.3c-0.7-0.4-1.2-0.9-1.6-1.5c-0.2-4.6,0.5-5.2,5.1-4.7c-0.3,2.5,1.8,2.3,3.2,2.8
		C222.3,143.3,223.7,143.2,223.8,145z"/>
	<path class="st121" d="M210.8,161.9c-2.2,0.3-3.7,3.9-6,2.1c-2-1.6-3.1-4.3-1-7c1.6-2,1.2-4.4,1.6-6.7c-0.3-2.7,0.5-5.5-0.9-8
		c-0.8-1.7-0.5-3.3,0.8-4.7c0.8-0.6,1.6-1.1,2.6-0.7c1.5,1.9,1,4.3,1.4,6.5c0.5,2.5,1.3-0.8,1.8,0.2c1.5,0.5,2.3,1.6,2.4,3.2
		c-0.7,2.3,0.3,4.7-0.3,7c-2.6,1.2-1.9,4.3-3.3,6.1C210.2,160.5,210.5,161.2,210.8,161.9z"/>
	<path class="st3" d="M219.4,156.9c3.3,0.3,6.4,1.4,9.3,2.9c-0.3,1.1,2.3,0.8,1,2.3c-1,0.4-2.3,0.4-2.8,1.7c-1.8,2-2.8,1.1-3.3-1
		c-1-2.6-3.8-2.6-5.8-3.8c-0.4,0-0.7-0.1-1.1-0.1c-0.1-0.2-0.1-0.5-0.2-0.7C217.1,156.9,217.9,156.2,219.4,156.9z"/>
	<path class="st122" d="M212.8,154c0-2.4-2.4-4.9,0.3-7.2c0.3-0.5,0.2-1.4,1-1.6c0.3,0.3,0.6,0.5,0.8,0.8c1.2,5.4,2,10.8-1.2,15.9
		c-2.2,0-1.8-1.5-1.9-2.9C211,157.1,211.5,155.5,212.8,154z"/>
	<path class="st3" d="M213.7,161.8c0.4-5.3,0.8-10.6,1.2-15.9c0.3,0,0.6,0,0.9,0c3,4.1,1,8.6,1,13c0,0,0,0,0,0
		C215.6,159.8,216.6,162.9,213.7,161.8z"/>
	<path class="st123" d="M212.8,154c0.2,1.7,0.4,3.5-1,4.9c-0.6,0.3-1.3,0.6-1.9,0.9c0-1.7-0.1-3.3,0-5
		C210,151.6,211.6,153.5,212.8,154z"/>
	<path class="st124" d="M226.9,163.8c-0.8-3.3,1.4-1.9,2.8-1.8c0.8,1.2,2.7,1,3.2,2.6C230.7,165.5,229,163.6,226.9,163.8z"/>
	<path class="st125" d="M217.9,159c2.6,0.2,5.9-0.6,5.8,3.8C221.7,161.6,219,161.4,217.9,159z"/>
	<path class="st126" d="M217.6,169c-2.4-2.3-2-3.9-1.3-5.6c0.1-0.1,0.7-0.2,0.9-0.1C218.8,164.9,217.5,166.5,217.6,169z"/>
	<path class="st127" d="M88.3,119c0.4,2.7-1.2,3.3-3.4,4.1c-5.8,2.3-12.2,2.9-17.4,6.8c-0.7-1.7,1.4-4.6-2.2-5.1
		c-0.4-0.3-1.1-0.4-1.1-1.1c2.9-2.2,6.9-2.5,9.2-5.7c0.8,1.3,3.6,0.6,3.1,3.2c-1.7,0.8-3.6,1.2-5.3,1.9c4.3-1.1,8.4-3.6,13-4.3
		C85.5,118.5,87,117.8,88.3,119z"/>
	<path class="st128" d="M64.2,123.7c0.4,0.4,0.8,0.7,1.1,1.1c-3.3,1-6.6,2.1-9.9,3.1c-0.4-0.3-0.7-0.7-1.1-1
		C57.2,124.5,60.9,125,64.2,123.7z"/>
	<path class="st98" d="M145,91.9c1,0.4,2.1,0.7,3.1,1.1c2.6-1.5,5.6,1.1,8.1-0.9c3.8-0.4,7.5,0.6,11.2,1.4c1.7,0.4,3.2,0.5,4.6-0.4
		c-0.2,1.4-1,2-2.3,2c-7.4,0.2-14.4,3.4-21.9,2.1c-0.5-0.1-1.1,0.6-1.7,0.9c-5.8,3.5-12.6,4-19,5.7c-1,0.3-2.2,0.1-2.9,0.7
		c1.6,0,3.4-1.7,4.9,0.6c-2.8,2.6-6.9,1.1-9.9,3c-1.6-1.6-1.4-3.4-0.9-5.4c1.3-2.3,3.7-2.5,6-2.8c5.1-0.7,9.7-3,14.7-3.9
		C141.6,95.4,142.4,92.4,145,91.9z"/>
	<path class="st129" d="M134.3,112c1.5-1,3-1.9,4.9-1.1c5.1-3.4,11.2-4.1,16.8-6.3c3.3-1.3,6.8-2.4,10.2-3.4
		c1.5-0.5,3.1-1.6,4.2,0.6c-0.1,2-1.6,2.9-3.1,3.4c-12.1,3.8-23.6,9-35.8,12.4c-1.6,0-3.1-0.3-4.2-1.5
		C128.2,112.3,132.2,113.7,134.3,112z"/>
	<path class="st130" d="M129.1,105c-2.8-1.2-5.3,0.7-8.2,0.4c8-3.8,16.8-4.9,25.1-7.4c0.4,1.4,0.5,1.5-0.2,1.7
		c-4.1,1.4-8.1,3.2-12.3,4C131.9,104,130.7,105,129.1,105z"/>
	<path class="st131" d="M170,101.9c-1.6-1.6-3.1-0.3-4.6,0.2c-8.8,2.9-17.5,5.9-26.3,8.8c0-2.2,2-2,3.2-2.5
		c8.3-2.9,16.6-5.6,24.9-8.4c1.9-0.7,3.4-0.8,4.7,1.1c1.3-0.8,2.2-0.7,2,1.2C172.5,103.2,171.2,103.1,170,101.9z"/>
	<path class="st132" d="M178.9,100.2c5.4,1.6,10.9,2.9,16.6,3.5c2,0.2,2.3,2,3.2,3.3c-0.6,0.7-1.3,0.9-2.2,0.9
		c-6-1.4-12-3.2-18.1-4.5c-1.7-0.4-3.8-0.6-3.4-3.2C176.4,100.1,177.6,100.2,178.9,100.2z"/>
	<path class="st133" d="M119.2,102c0,2,0,4,0,6.1c-0.1,0.2-0.2,0.5-0.2,0.8c-2.1,0.2-2.3-1.8-3.3-2.9c0.3-2.3-2.5-4.9,0.5-7.1
		c2,0.3,2.3-1.1,1.9-2.4c-0.8-2.5,0-4.8,0.4-7.1c0.5,0.3,0.9,0.5,1.4,0.8c-0.2,0.6-0.3,1.3-0.5,1.9c1.4,1.8,1.1,3.9,1.2,5.9
		C120.6,99.4,121,101,119.2,102z"/>
	<path class="st134" d="M175.1,100.1c0.6,1.8,2.1,1.7,3.5,2c6.1,1.4,12.4,2.5,18.3,4.9c0.3,0.6,0.2,1-0.3,1.4
		c-7.4,0-14.3-2.8-21.4-4.5c-0.8-0.2-1.4-0.9-1.2-1.9c-0.4-0.8-1.2-0.9-2-1C172.7,99.8,173.9,100,175.1,100.1z"/>
	<path class="st135" d="M134.3,112c-1.9,2.3-5.4,1.6-7.2,4c-0.2,0.1-0.3,0.3-0.5,0.4c-1.7,0.8-3.8-0.5-5.4,0.9
		c-0.4,0.1-0.9,0.1-1.3-0.1c-2.6-1.6-4.4-3.5-2-6.6c1.7-0.2,2.6,0.8,3.1,2.3C125.7,115.5,129.9,111.9,134.3,112z"/>
	<path class="st136" d="M121,112.9c-1-0.7-1.9-1.5-2.9-2.2c-2.5-0.8-3.5-2.2-1.9-4.7c2.5-0.6,1.3,2.4,2.8,2.8c2-0.1,3,1.7,4.6,2.6
		C122.7,111.9,121.9,112.4,121,112.9z"/>
	<path class="st100" d="M119.4,99c0-2.3,0-4.7-0.1-7c6.9,1.7,13.2-0.9,19.7-2.6c2.2-0.6,3.3-0.7,4.1,1.5c0.4,2.1-1.3,3.4-2.6,3.7
		C133.5,96.2,126.8,99.4,119.4,99z"/>
	<path class="st137" d="M119.4,99c5.2-1.5,10.3-3.3,15.7-4c3.1-0.4,6.1-1.1,8-4c0.6,0.3,1.3,0.6,1.9,1c-1.3,3.7-4,4.9-7.8,5.8
		c-6,1.5-11.8,3.6-18,4.3C119.3,101,119.3,100,119.4,99z"/>
	<path class="st138" d="M156.2,92c-2.4,2.8-5.2,1.8-8.1,0.9c0.2-2.3,1.8-2.1,3.2-1.7C152.9,91.8,154.5,92,156.2,92z"/>
	<path class="st20" d="M197.8,99c-3,2.7-5.9-0.8-8.9-0.1C191.9,97.4,194.9,96.1,197.8,99z"/>
	<path class="st139" d="M203.8,105.1c0,0.3,0.1,0.6,0.2,0.9c0.4,1,0.5,2-0.8,2.3c-1.1,0.3-1.8-0.3-2.2-1.4c-0.9-1.1-1.8-2.2-2.8-3.5
		C200.8,102.1,202.2,104,203.8,105.1z"/>
	<path class="st20" d="M201,107c1.4,1,2.8,1.8,3-1c1,0.7,0.8,1.8,0.8,2.8c0.8,0.6,1.6,1.2,1,2.4c-0.4,0.3-0.9,0.4-1.4,0.4
		c-2.6-1.1-5.5-1.5-7.6-3.8c0-0.3,0-0.6,0-0.8c0.6,0,1.2,0,1.9-0.1C199.5,106.9,200.2,106.9,201,107z"/>
	<path class="st87" d="M206,103.1c5.2-0.5,9.9,1.8,15.5,2.2c-4.8,3.7-9.4,0-13.7,0.8C206.6,105.4,205.8,104.5,206,103.1z"/>
	<path class="st140" d="M205.7,111.1c-0.3-0.8-0.6-1.5-0.9-2.3c1.4,0.3,1-1.4,1.9-1.6c2,1.6,4,3.2,6.1,4.9c0,0,0.1-0.1,0.1-0.1
		c0.2,0.2,0.3,0.5,0.3,0.8c0,0.3-0.1,0.4-0.1,0.4c-0.8,0.9-1.9,1.3-3,1.5c-0.5,0-0.9-0.1-1.3-0.2
		C207.4,113.6,205.7,113.1,205.7,111.1z"/>
	<path class="st141" d="M89.3,116c-0.3,0.4-0.7,0.7-1,1.1c-4.5,1.7-8.3,0.3-12-2.2c-0.4-0.3-0.7-0.7-0.9-1.1c0-0.2,0-0.4,0-0.7
		c1-2.5,4.4-2.6,5.4-5.2c1.4-0.6,0.9-2.1,1.3-3.1c0.6-0.7,1.4-1.1,2.3-1.4c0.5-0.1,0.9-0.1,1.4,0c3.7,0.5,7.3,1.5,10.9,2.3
		c3.2,0.7,6-2.1,9-0.4c0.4,0.2,0.7,0.6,0.9,1c0,2.8,1.8,4.9,3.2,7.1c2.2,2.3,2.8,4.4-0.5,6.2c-2.8,0-5.7,0.2-7.7-2.4
		c-0.3-1.2,0-2.2,1.8-3.4c-5.9,1.1-10.8-0.4-15.7,0.2C88.7,114.4,89.7,114.6,89.3,116z"/>
	<path class="st142" d="M84.4,104.1c-0.5,0.8-1.3,0.8-2.1,0.8c-0.9,1.1-2,1.5-3.1,1.4c-0.9-0.1-0.3,0.6-0.2,0.5
		c1.2-0.7,2.4-0.8,2.6,1.1c0,4.2-4,3.6-6.2,5.1c-1.2-0.6-0.4-1.4-0.2-2.2c-3.2-5.6-8.5-3.6-13.3-3.8c-0.6-0.5-1-1.1-0.8-2
		c6-2,12.2-3,18.4-4c1.3,0.2,2.6,0.5,3.8,1C84.2,102.7,84.7,103.2,84.4,104.1z"/>
	<path class="st143" d="M62.6,107.1c3-1.6,5.9-1.8,9.3-0.9c2.8,0.8,3.5,2.3,3.4,4.7c-2.4,0.7-4.2,3.2-7.2,2.2
		c-0.9,0.7-1.8,0.7-2.8,0.4c-1-0.3-1.9-0.8-2.6-1.6C61.5,110.4,60.8,108.8,62.6,107.1z"/>
	<path class="st2" d="M65.4,112.9c0.9,0.1,1.8,0.2,2.8,0.3c-1.7,3.6-6,1.1-8.3,3.7c2.7,1.1,5-1.5,7.6-0.3c-4.6,1-8.8,4.2-14,2.4
		c-0.9-0.5-1.8-1.1-0.9-2.4C56.6,114.5,60.9,113.3,65.4,112.9z"/>
	<path class="st142" d="M76.3,114.1c3.7,2,7.9,2.6,12,3c0,0.6,0,1.3,0,1.9c-1.4,0.3-2.8,0.6-4.1,0.9c-2.8-0.8-5.2,1.7-7.9,0.9
		c-0.7-1.2-3.2-0.6-2.9-2.8c0.4,0.1,0.8,0.1,1.2,0.2C78.8,118.4,75,115.2,76.3,114.1z"/>
	<path class="st144" d="M52.5,117c0.3,0.6,0.7,1.3,1,1.9c-5,1.1-9.6,3.9-15,3.1c-1.1-0.1-2-0.4-2-1.7c0-0.4,0-0.8,0-1.2
		c3.9-0.2,7.6-1.6,11.4-2.4C49.5,116.4,51,115.6,52.5,117z"/>
	<path class="st145" d="M36.5,120.3c0.7,0.6,1.3,1.2,2,1.7c-0.8,1.9-2,1.7-3.4,0.8c-1.2-0.8-1.9-1.7-0.5-3
		C35.2,119.9,35.8,120.1,36.5,120.3z"/>
	<path class="st146" d="M76.3,114.1c0.1,2.1,1,3.3,3.4,3.4c-1.9-0.2-3.3,1.8-5.1,0.6c2.1-1.1-0.9-3.2,0.8-4.4
		C75.7,113.9,76,114,76.3,114.1z"/>
	<path class="st147" d="M80.3,102c-6.5,0.4-12.8,2.1-19.1,3.9c-0.3,0.4-0.7,0.8-1.2,1c-2.7,0.6-5.4,1.1-8,2.1
		c-3.9,0.6-7.6,1.7-11.5,2.1c-0.8-0.1-1.6-0.3-2.2-0.9c-1.4-0.2-2.3-1-3.1-2.1c5.9,0.4,11.4-1.6,17-2.5c12.3-2,24.4-5.4,36.9-6.5
		c0.5-0.5,0.9-0.4,1.3,0.1c-0.7,2.7-3.3,1.9-5,2.7C83.8,102.1,82.1,101.9,80.3,102z"/>
	<path class="st38" d="M85.1,100.8c1.4-1.6,3.8-0.1,5.2-1.8c4.5-0.8,8.8-3,13.6-2.2c3.4-0.6,6.8-1.2,10.3-1.8c0,0,0,0,0,0
		c1.1,2.6-0.6,4.3-1.8,6.2c-0.7,0.4-2,0.8-2.3,0.3c-2.1-4-5.1-2.1-7.9-1.5c-4.9,1-9.7,2.1-14.7,2.5
		C86.5,102.3,85.6,101.9,85.1,100.8z"/>
	<path class="st81" d="M103.9,96.8c-4.7-0.2-8.9,2.5-13.6,2.2c-0.4,0-0.7,0-1.1,0C94,97.5,98.7,95.1,103.9,96.8z"/>
	<path class="st99" d="M52.2,107.8c2.6-1.4,5.3-2,8.2-1.7c2.9,4.8,1.6,6.6-4.9,7c-5.3-0.1-10.2,2.2-15.4,2.8
		c-1.7,0.2-4.3,3.2-5.5-0.9c-1.1-3.7,1.6-4,3.9-4.7c0.7,0,1.5,0,2.2,0c3.6,0.4,7.2-1,10.8-0.4C52.3,109.8,53.2,109,52.2,107.8z"/>
	<path class="st95" d="M52.5,117c-3.6,0.8-7.3,1.5-10.8,2.5c-1.9,0.6-3.5,0.3-5.2-0.5c4-2.9,9-2.7,13.5-4c2.2-0.6,4.6-0.6,6.5-2
		c2.4-0.2,4.5-2.5,7.1-1c0.7,0,1.4,0.2,1.8,0.9C61.4,115.5,56.8,115.7,52.5,117z"/>
	<path class="st66" d="M63.6,112c-2.4,0.3-4.8,0.7-7.1,1c0,0-0.5,0-0.5,0s-0.5,0-0.5,0c2.3-1.9,8.4-1,4.9-7c0.3,0,0.6-0.1,0.9-0.1
		c0.4,0.4,0.8,0.8,1.3,1.3C62.3,108.9,62.4,110.6,63.6,112z"/>
	<path class="st148" d="M112.2,101c-0.4-2.4,1.9-3.8,2-6c0.7,1.3,3.3,1.6,1.9,3.8c-0.2,2.4,1.3,4.7,0.1,7.1c-0.3,2,0.8,3.3,1.9,4.7
		c-1.4,2.8,0.6,4.4,2.3,6.1c1.3,1.4,2.2,2.9,1.5,4.9c-0.3,0.7-0.8,1.2-1.5,1.6c-0.6,0.2-1.5,0.2-1.8-0.4c-1.5-3-3.7-2.1-5.9-1.1
		c-1.7-0.2-2.9-0.8-2.8-2.8c1.5-1.9-0.1-3.3-0.8-4.9c1.6-2.2,1.3-4.9,1.7-7.4c0-1,0-1.9,0.1-2.9C111.1,102.7,111.5,101.8,112.2,101z
		"/>
	<path class="st149" d="M254.6,139c-1.2,4-3.9,5.8-7.9,4.3c-2.7-1-5.1-2.8-2.8-6.4c2.8-2.1,5.6-1.5,8.5-0.2
		C253.3,137.3,253.8,138.2,254.6,139z"/>
	<path class="st150" d="M252.5,138c-2.7-1.7-5.7-0.7-8.6-1c-2.7-2.8,0-3.7,1.8-4.9c1.4,1.2,3.4,0.9,5,1.9
		C252.2,134.9,254,135.6,252.5,138z"/>
	<path class="st151" d="M252.5,138c0.4-2.2-1-2.6-2.8-3.2c-1.5-0.5-3.8-0.2-4-2.7c6.6-0.2,8.7,1.5,8.9,7
		C253.7,139,252.8,139,252.5,138z"/>
	<path class="st152" d="M214,145.2c-0.3,0.5-0.7,1.1-1,1.6c-0.2-1.2-0.7-2.3-2-2.9c-1.1-4.2,0-5.4,4.7-5.1c0.7,0,1.4,0,2.1,0
		c0.8,0.4,1.1,0.8,0,1.2C214.6,140.2,212.2,141.1,214,145.2z"/>
	<path class="st124" d="M215.7,138.8c-2.7,0.7-5,1.7-4.7,5.1c-1.1,0.8-2.4,2.2-2.9-0.4c-0.4-2.2-0.4-4.5-0.5-6.7
		c-0.4-0.4-0.6-0.8-0.8-1.3c-0.7-2.9,0.1-5.9-0.8-8.7c-2-5,0.7-8.8,3.5-12.5c1-0.4,2.1-0.8,3.1-1.2c2.2,0.9,3,2.8,3.2,5
		c0,3.6,0,7.2,0,10.9C215.9,132.2,215.8,135.5,215.7,138.8z"/>
	<path class="st124" d="M229.5,111.8c2.8,0,4.8-4,8.1-1.8c-6,2.6-12.1,5.3-18.1,7.8c-0.9,0.4-1.9,1.6-3,0.2
		C220,114.1,224.8,113,229.5,111.8z"/>
	<path class="st153" d="M229.5,111.8c-4.3,2.2-9.1,3.2-13.1,6.2c-0.2,0-0.4,0-0.6,0c-1.1-1.7-2.2-3.3-3.2-5c0.1-0.3,0.1-0.7,0.2-1
		c0.7,0,1.4,0.1,2.1,0.1c0.2,3.5,1.6,4,4.8,2.6C222.8,113.3,225.7,110.7,229.5,111.8z"/>
	<path class="st154" d="M135.2,138.4c2.2,3.2,6.5,3,9.1,5.4c-2,2.8-4.1,0.6-6.2,0.1c-1.1,0-2.1,0-3.2,0c-1.1-0.7-2.3-1.1-3.6-0.9
		c-0.5-0.3-0.7-0.9-1.1-1.4c-1.4-0.6-2.9,0.5-4.3,0c-0.4-0.2-0.7-0.4-1-0.8c1.2-0.9,1.8-1.6-0.3-2.4c-4.7-1.8-9.5-3.4-13.7-6.2
		c0.1-0.2,0.2-0.4,0.4-0.6c4.6-1,8,2.2,11.9,3.5c1.8,0.6,3.7,2.6,5.7,0.3c2.4-0.4,4.6,0,6.5,1.6C135.7,137.5,135.6,138,135.2,138.4z
		"/>
	<path class="st155" d="M98.2,127.9c-0.7-0.5-1.3-1.1-2-1.6c0.1-0.5,0.1-0.9,0.2-1.4c1-0.3,1.9-0.2,2.8,0.1c4,2.4,9.4,2.2,12.1,6.8
		c-0.1,0.1-0.3,0.3-0.4,0.4C106.8,130.8,102.5,129.3,98.2,127.9z"/>
	<path class="st156" d="M116.2,144.8c0-0.3-0.1-0.6-0.1-1c3-1,6-2,8.9-3.1c0,0,0.1,0.2,0.1,0.2c-1,4.4-5.4,3.5-8.1,5.3
		C116.3,146.1,115.5,145.9,116.2,144.8z"/>
	<path class="st157" d="M116.2,144.8c0.4,0.3,0.8,0.6,1.1,0.9c4.8-2,9.4-4.7,14.8-5c-0.2,0.8-0.5,1.5-0.7,2.3
		c-4.5,3.6-10.3,4.4-15.2,6.9c-0.3,0.5-0.5,0.5-0.7,0C115.4,148.2,114.7,146.3,116.2,144.8z"/>
	<path class="st104" d="M115.4,149.9c0.2,0,0.5,0,0.7,0c2.1,2.4,4,0,5.8-0.5c3.2-0.8,6.1-2.9,9.5-3.3c0.2,0.4,0.3,0.8,0.5,1.2
		c-5.1,2-10,4.2-15.2,5.7C114,153.8,116,150.9,115.4,149.9z"/>
	<path class="st158" d="M193.6,162.9c1.9,1.7,4.3,2.4,6.6,3.3c0.7,0.3,1.7,0.8,1.4,1.8c-0.4,1.3-1.6,0.8-2.5,0.8
		c-8.4-4.4-16.9-8.3-26-10.8c-0.3-0.4-0.6-0.7-0.9-1.1c-0.6-0.5-0.6-1.1-0.5-1.8c0.4-0.5,0.9-1,1.4-1.4c1.1-0.3,2.1,0.1,3.2,0.3
		c0.4,0.1,0.8,0.3,1.2,0.4c0.8,0.4,1.5,0.8,2.2,1.4c2.1,2.1,4.9,2.5,7.6,3.2C189.4,160,192,160.6,193.6,162.9z"/>
	<path class="st159" d="M172,154.9c0,0.7,0,1.3,0.1,2c-2-1-4-2-6-2.9c2-2.2,4,0.7,6,0c0.3,0.2,0.4,0.4,0.3,0.7
		C172.1,154.8,172.1,154.9,172,154.9z"/>
	<path class="st160" d="M172,154.9c0-0.3,0-0.7,0-1c-0.7-1.8-2.4-1.9-3.9-2.4c-2.1-0.8-2-2.1-1-3.7c2.5-1.3-1.1-1.4-0.4-2.3
		c0-0.5,0.2-0.8,0.7-1.1c2.2-0.1,4.3-1.4,6.6-0.5c0.3,0.3,0.6,0.7,0.9,1c-0.2,3.1,2.3,6.7-1.7,9C172.8,154.3,172.4,154.6,172,154.9z
		"/>
	<path class="st161" d="M158.2,143.2c1.1-2.2,2.7-1.5,4.4-0.9c1.1,0.4,2,2.1,3.4,0.6c1.7,0,1.7,0.8,0.9,2l0-0.1
		c-0.3,0.5-0.6,0.6-0.9,0.1c-2.8-0.4-4.8,1.9-7.4,2.3C157.2,146.1,159.5,144.5,158.2,143.2z"/>
	<path class="st158" d="M166,145c0.3-0.1,0.6-0.1,0.9-0.1c0.8,1.9,3.8,1.3,4.3,3.6c-1.6,1-2.9,0-4.1-0.7
		C166.8,146.9,166.4,145.9,166,145z"/>
	<path class="st162" d="M89.3,116c-0.9-1.7-3.3-0.4-4.4-2.6c7.3,0,14.5,0,22,0c-0.9,2.6-4.8,0.5-4.7,3.6c-0.6,1.4,0.4,3.2-1.1,4.3
		c-1.8,0.8-3.1,0.3-4.1-1.3C96.1,116.6,92,114.5,89.3,116z"/>
	<path class="st163" d="M68.4,132.9c2.3-4,6.8-3.2,10.3-4.5c5.2-2,10.4-3.8,16-4.4C86.3,127.9,77.3,130.3,68.4,132.9
		C68.5,132.9,68.4,132.9,68.4,132.9z"/>
	<path class="st164" d="M97.1,120.1c1.4,0.3,2.8,0.6,4.2,0.8c2.8,0.3,5.4,1,7.3,3.3c0.1,0.4,0.2,0.9,0.1,1.4c-0.2,0.4-0.5,0.7-1,0.8
		c-1.5,0-3,0.5-4.5,0.4c-1.6,0-2.8-1.9-4.7-1.1c-0.7-0.3-1.4-0.6-2.1-0.9C96.7,123.3,96.9,121.7,97.1,120.1z"/>
	<path class="st165" d="M196.9,107.8c2.8,0.6,5.6,1.2,7.9,3.2c-0.3,2-0.5,4.7-2.5,5.1c-7.3,1.4-13.5,5.9-20.9,6.8
		c-3.2-0.5-6.1,0.7-9.2,1L172,124c-2.2,5-5.9,1.3-8.9,1.5c-1.4-0.2-1.6-1.2-1.6-2.5c-0.1,1.1-0.4,1.9-1.1,2.7
		c-0.2,0.1-0.4,0.2-0.6,0.3c-1.7,0.1-2.5-1.5-3.9-2.1c-3.5-0.6-7-1.5-10.5-0.3c-3.4-0.7-7.5,0.5-9.4-3.8c0.4-0.3,0.8-0.4,1.3-0.5
		c0.2,0-0.2-0.2-0.3-0.2c-2.1-0.3-4.5,0.1-5.8-2.4c11.4-4.2,22.6-8.7,34.2-12.2c1.7-0.5,3.5-1.1,4.6-2.7c1.3,0,2.6,0.1,4,0.1
		C181.4,104.7,189.2,106,196.9,107.8z"/>
	<path class="st166" d="M209.5,114.2c1.8,3.1-3.6,3.9-2.3,7.2c0.2,0.5-0.3,3-0.2,4.6c0.9,3.3-0.3,6.8,0.7,10.2
		c-0.1,0.2-0.1,0.3-0.1,0.5c-0.6,0.5-1.1,1-1.6,1.4c-0.7-0.1-1.2-0.5-1.5-1.1c-0.2-0.4-0.3-0.8-0.3-1.2c-1-1.3-0.8-3.1-1.8-4.5
		c-3.2,0.5-5.1,2.9-7.5,4.4c-1.1-0.3-2.3-0.9-3.3-0.8c-2.7,0.3-4.3-0.5-4.6-3.3c-0.2-1.9,1.1-2.2,2.5-2.4c1,0.6,1.8-0.1,2.7-0.5
		c2.9-1.6,6.3-1.7,9.4-3.8c-1.6,0.7-2.8,1.7-4.4,1.6c-1.1-2.2-1.1-2.1,1.5-3.9c2.2-1.5,5.4-2.4,3.9-6.3c1.6-2,3.6-3,6.2-2.4
		C209,114.2,209.3,114.2,209.5,114.2z"/>
	<path class="st3" d="M202.9,116.8c2.5,1.8,2,3.4-0.4,4.8c-2,1.2-4,2.5-6,3.8c0,0,0,0.3,0.1,0.4c0.1,0.1,0.2,0.2,0.4,0.3
		c-0.7,2.5-3.9,1.8-5,3.8c-0.7,0.2-1.4,1.2-2.2,0c-0.5-0.7,0.1-1.4,0-2.1c0-0.7,0.1-1.3,0.1-2c-1.5-1.2-4.8-0.6-4.8-2.4
		c0-2.8,3.4-2.7,5.4-3.2C194.7,119.3,198.1,115.7,202.9,116.8z"/>
	<path class="st167" d="M121.2,122c-0.2-1.7-0.5-3.5-0.7-5.2c0.3,0.1,0.5,0.2,0.7,0.3c0.4-0.3,0.8-0.5,1.4-0.5
		c3.3,0.9,6.7,1.6,10,2.7c3,1.2,5.6,3.2,9,3.5c1.1,0.1,2.1,0.9,1.6,2.4c-1.8,1.4-3.8,2.1-6.1,1.8C130.6,128.8,125.4,126.9,121.2,122
		z"/>
	<path class="st87" d="M175.3,137.1c2.3,0,3.1,0,4,0c0.8,0.1,1.8,0.2,1.9,1.2c0.2,1.3-1,1.6-2,1.6c-2.8,0.1-5.6,0.2-8.4,0.1
		c-6.6-0.2-13.2,0.6-19.8,1c-1.1,0.1-2.7,0.2-2.6-1.4c0-1.6,1.5-1.4,2.7-1.5C159.6,137.8,168.2,138.6,175.3,137.1z"/>
	<path class="st168" d="M178.9,143.9c5,2.2,8.8-1.2,13-3c2.3-0.9,4.5-0.5,6.6,0.4c0.4,0.3,0.6,0.7,0.7,1.2c-0.4,1-1.3,1.9,0.3,2.7
		c1.2,0.6,2,1.6,1.7,3.1c-0.5,1-1.4,1.4-2.4,1.6c-2.4,0.2-4.5-0.7-6.7-1.4c-3-0.9-6-1.5-9.1-0.6c-1.7-0.1-3.2-0.5-4.4-1.8
		C178.3,145.4,178.4,144.7,178.9,143.9z"/>
	<path class="st84" d="M202.9,116.8c-5.8,2-11.6,4.1-17.7,6.2c1.4,1.8,4,0.8,4.7,2.9c-3.4-0.2-6.6-1.1-9.8-2.3c0-0.5,0.2-0.8,0.7-1
		c4.3-1,7.9-3.6,12.2-4.7c1.5-0.4,3.2-0.9,4.9-1.4c3-0.9,5.8-2.2,7-5.5c0.3,0.1,0.6,0.1,0.9,0.1c0.9,1.2,2.8,1.3,3.1,3.1
		C207,115.5,204.4,114.9,202.9,116.8z"/>
	<path class="st169" d="M163,124.9c0.8-1.2,2.2-1.4,2.9-0.7c2.3,2.6,4.1,1.2,6.1-0.3c0.1,3.2,3.4,1,5,3.5c-5.9,0.6-11.3,2.6-17,0.6
		c-0.5-0.4-0.5-0.9,0-1.3c0-0.3-0.1-0.6-0.1-0.8c0,0,0.5-0.1,0.5-0.1C160.9,124.9,162.3,125.7,163,124.9z"/>
	<path class="st110" d="M194.9,135.9c0.7-4,4.5-4.4,7.2-5.9c1.8-1.1,1.8,0.8,2,1.7c0.4,1.4,0.5,2.9,0.8,4.3c-2.4,2.4-5,4-8.1,1.1
		C196.1,136.6,195.5,136.2,194.9,135.9z"/>
	<path class="st71" d="M196.8,137c2.9,1.2,5.4-0.9,8.1-1.1c0,0.3-0.1,0.6-0.1,0.9c-1.1,2.7-2.4,5.2-5.9,5.1
		c-2.4,0.4-4.6-0.4-6.9-0.9C193.1,139.1,196.1,139.5,196.8,137z"/>
	<path class="st170" d="M178.9,143.9c0,0.6,0,1.3,0.1,1.9c0.1,1.5,1.5,2.7,1,4.3c-0.1,3.3,3,2.1,4.5,3.3c1.8,1.4,6,1.8,5,4.2
		c-1.1,2.7-4.2-0.2-6.5-0.6c-2.1-0.4-3.5-2.5-5.9-1.9c-0.4-0.1-0.8-0.1-1.1-0.2c-0.8-3.1-1.5-6.3,0.9-9.1
		C177.5,145.2,178.2,144.6,178.9,143.9z"/>
	<path class="st171" d="M121.2,122c2.6-0.4,3.4,2.4,5.6,3.1c3.4,1.1,6.8,1.2,10.2,1.8c-1.3,0.8,0.4,1.4,0.1,2.1
		c-0.3,0.7-0.7,1.3-1.5,1.5c-5.5-1.2-10.9-2.8-15.6-6.2c-0.2-0.5-0.2-1,0.2-1.4C120.5,122.6,120.8,122.3,121.2,122z"/>
	<path class="st172" d="M179.5,126c2.2,3.7,3.7,6.3,5.2,9c0.3,0.6,0.1,1.4-0.6,1.6c-0.3,0.1-1.1-0.1-1.3-0.4
		C181.4,133.4,178.9,131,179.5,126z"/>
	<path class="st173" d="M160,126.8c0,0.4,0,0.9,0,1.3c-2.6,2.8-5.4,0.4-8.1,0.4c-0.2,0-0.6-0.8-0.5-1.2c0.1-1,1-1.3,1.8-1.2
		C155.4,126.3,157.7,126.6,160,126.8z"/>
	<path class="st162" d="M166.9,144.9c-0.1-0.8-0.1-1.6-0.9-2c3.1-3.1,5.6-1.9,8,1C171.8,145.5,169.4,145.5,166.9,144.9z"/>
	<path class="st174" d="M145.2,139.3c0.5-3.4,0.7-5.9,1.2-8.4c0.1-0.8,0.6-1.7,1.7-1.4c1.1,0.2,1.1,1.3,0.7,2
		C147.5,133.6,148.9,136.8,145.2,139.3z"/>
	<path class="st175" d="M176.8,145.9c-1.5,2.9-0.4,6.1-0.9,9.1c-0.9-0.3-1.8-0.6-2.7-0.9c2.5-2.6-1-6.4,1.7-9
		C175.5,145.3,176.2,145.6,176.8,145.9z"/>
	<path class="st176" d="M143.1,125.1c-2.8-3.6-7.9-2.2-11.1-5.1c1.1-1.1,2.3-1.1,3.5-0.1c3,1.9,6.4,2.1,9.7,2.8
		c0.4,0.7,0.4,1.4-0.3,2C144.4,124.8,143.7,124.9,143.1,125.1z"/>
	<path class="st177" d="M145,124.7c0.1-0.7,0.2-1.3,0.3-2c3.7-1.2,7.2-0.3,10.6,1.3C152.3,124.5,148.5,123,145,124.7z"/>
	<path class="st178" d="M180.7,122.6c-0.2,0.3-0.4,0.6-0.7,1c-2.6,0.6-5.3,0.5-8,0.3C174.9,123.2,177.4,120.4,180.7,122.6z"/>
	<path class="st179" d="M135.2,138.4c-0.1-0.5-0.2-1.1-0.3-1.6c-0.2-0.3-0.3-0.7-0.3-1.1c0.1-0.2,0.1-0.4,0.2-0.6
		c0.1-0.1,0.3-0.3,0.5-0.4c0.9-0.3,1.9-0.3,2.8-0.6c0.4-0.1,0.8-0.1,1.1-0.2c1-0.1,1.9-0.1,2.9,0c0.6,0.2,1.4-0.3,1.6,0.6
		c0.3,1.2-0.8,1.4-1.5,1.4C139.5,135.6,137.4,137.2,135.2,138.4z"/>
	<path class="st180" d="M138.9,134.7c-0.2,0-0.4,0-0.6,0c-3.5-1.4-3.5-1.9-0.1-4.8c1.5-0.1,2.8,0.2,4,1.1
		C142,133.2,140.1,133.6,138.9,134.7z"/>
	<path class="st181" d="M189.8,127.9c1.4,0.7,0.1,1.4,0,2.1c-1.3,0-2.2,0.7-2.9,1.8c-1.1,0-2.5,0.9-2.8-0.9c-0.2-1.2,1-1.6,1.9-1.9
		C187.3,128.6,188.5,128.3,189.8,127.9z"/>
	<path class="st182" d="M138.2,129.9c0.3,1.6-3.9,3.2,0.1,4.8c-1,0.8-1.9,1.1-3.1,0.3c-2.3-2.1-1.8-3.7,0.9-4.9
		c0.3-0.4,0.6-0.8,1-1.2C137.4,129.3,137.8,129.6,138.2,129.9z"/>
	<path class="st182" d="M138.9,134.7c-0.4-2.6,2-2.6,3.3-3.6c1.6,1-0.1,1.9-0.1,2.9C141.2,135.1,140,135,138.9,134.7z"/>
	<path class="st183" d="M177.1,155.2c1.9-2.6,3.5,0,5.2,0.4c2.3,0.6,4.5,1.6,6.9,2.1c-2.9-2.5-6.5-3.7-10-4.8c-1-0.3-2-0.9-1.7-2
		c0.3-1.2,1.7-0.7,2.6-0.9c0.2,0,0.4,0,0.7,0c2.4,0.5,4.6,1.5,6.9,2.1c0.4,0.1,0.8,0.3,1.2,0.5c2.5,1.2,5.1,2,7.8,2.5
		c1.4,0.8,3.7,0.4,3.4,3c3.3,1.4-0.3,4.4,1.4,6.3c-1.8,1.3-3-0.5-4.4-0.8c-1.1-0.2-2.2-0.4-3.4-0.6c-2.4-0.4-4.3-1.8-6.4-2.9
		c-2.6-1.5-6-1.2-8-3.9C178.5,155.8,177.8,155.5,177.1,155.2z"/>
	<path class="st17" d="M182.8,147.1c3.7-2,7.2-0.4,10.7,0.6c1.7,0.5,3.4,0.9,5.1,1.3c2.7,0.4,5.3,1,8,0.8c0.5,2.4-1.1,4.6-0.7,7.1
		c0.2,1.3-1.4,0-2.2,0c-0.6-0.7-1.3-1.3-1.9-2C195.1,153.4,188.2,152.1,182.8,147.1z"/>
	<path class="st184" d="M182.8,147.1c6.2,3.1,13.1,4.3,19.1,7.9c-0.7,1-1.3,2.1-2,3.1c-0.8-1.5-2.7-1-3.7-2.1
		c-2.7-1.2-5.7-1.8-8.4-3l0,0c-2.5-1.4-5.3-2-8-3c0,0,0,0,0,0c-0.6-1.3-3.6-2-1-4.1C180.3,146.3,181.5,146.7,182.8,147.1z"/>
	<path class="st185" d="M204,167.3c5.2,2.1,10.4,4.1,16.1,6.5C215.6,175.1,207.4,172.1,204,167.3z"/>
	<path class="st186" d="M221.8,148.8c0-0.6,0-1.2,0-1.8c2.2,0.5,4.6,0.6,6.6,1.5c3.6,1.7,7.3,2,11.1,2.4c-0.6,0.8-1.2,1.5-1.9,2.3
		C231.8,153.7,226.9,150.6,221.8,148.8z"/>
	<path class="st180" d="M216.8,158.9c-2.1-4.2-0.3-8.7-1-13c0.5-2.7,1.6-1.9,2.7-0.4c2.7,3.6,3.2,7.3,0.9,11.3
		C218.1,157.1,217.2,157.7,216.8,158.9z"/>
	<path class="st187" d="M238.7,158.9c-6-0.2-11-3.3-16.5-5.2c3.7-1.8,6.4,0.9,9.4,1.8C234.1,156.3,237.6,155.4,238.7,158.9
		C238.7,159,238.7,158.9,238.7,158.9z"/>
	<path class="st103" d="M221.8,148.8c5.5,0.5,10.4,3.4,15.9,4.4c0.1,0.7,1.5,2.5,0.1,2C232.3,153.4,226.2,153.1,221.8,148.8z"/>
	<path class="st188" d="M206.7,149.9c-3,3.1-5.4,0-8-0.8c0.9-0.1,1.7-0.2,2.2-1.1c0.3-0.4,0.7-0.6,1.1-0.9c-4.9-4.2,0-3.5,2.1-4.4
		c0.6-0.3,1.3-0.2,1.8-0.7C207.7,144.4,206,147.3,206.7,149.9z"/>
	<path class="st189" d="M205.8,142c-0.4,0.4-0.8,0.8-1.2,1.2c-1.9,0.3-3.9,0.4-5.8-0.2c0-0.3,0-0.7-0.1-1c2-1.7,4-3.4,5.9-5.1
		c0.4,0.4,0.8,0.9,1.2,1.3C205.4,139.4,203.9,140.6,205.8,142z"/>
	<path class="st190" d="M76.2,120.8c2.6-0.3,5.1-2.5,7.9-0.9c-5,1.4-9.9,2.9-14.9,4.3C71.1,121.8,73.7,121.4,76.2,120.8z"/>
	<path class="st135" d="M135.6,119.9c-1.2,0-2.3,0.1-3.5,0.1c-3.5-0.7-7.1-0.9-10.1-3.2c1.5-1.7,3.8,0.9,5.3-0.9c0,0,0,0.1,0,0.1
		c1.4,0.3,2.7,0.5,4.1,0.8c2.6,0.8,5.2,1.7,8.7,2.8C137.9,119.8,136.7,119.8,135.6,119.9z"/>
	<path class="st148" d="M127.2,116c0,0.7,1.3,2.1-0.7,1.6c-1.5-0.4-3-0.8-4.6-0.7c-0.3,0-0.5,0.1-0.7,0.1
		C122.5,112.6,125.3,117.3,127.2,116z"/>
	<path class="st184" d="M136.1,130.1c-1.8,1.3-1.3,3.1-0.9,4.9c0,0-0.1-0.1-0.1-0.1c-0.9,0.6-1.9,0.5-2.9,0.2
		c-8.1-3.2-16.5-5.7-24-10.2c-1.8-2.3-5.5-1.2-7-3.9c0.2-1.4-0.5-2.9,1-3.9c2.4,1.4,5.1,1.4,7.7,1.9c0.7,1.2,1.6,2.1,3.1,2.1
		c2.6,0.3,5,1.3,7.1,2.9C125.5,126,130.8,128.1,136.1,130.1z"/>
	<path class="st191" d="M112.2,101c0,1,0,2,0,3c-1.3,2.2-3.2,2.4-5.4,1.8c-0.9-0.4-1.9-0.6-2.7-1.1c-0.5-0.4-0.9-0.9-1.1-1.5
		c-2.2-0.7-4.4,0.2-6.4,0.7c-3.9,1-7.6,1-11.5,0.2c-0.2,0.1-0.4,0.1-0.6,0.1c-0.4-0.4-0.8-0.8-1.1-1.1c0.7-2.6,2.5-1.4,3.9-1
		c6.6-2.5,13.8-2.3,20.4-4.8c1.1-0.4,4.3-1.4,2.3,2.4C109,101.3,111.3,100.7,112.2,101z"/>
	<path class="st41" d="M104.2,104c0.7,0.4,1.4,0.8,2.1,1.2c0.2,0.2,0.3,0.4,0.2,0.6c-0.1,0.2-0.2,0.3-0.2,0.3
		c-3.6-1.2-6.8,1.6-10.9,0.8c-3.6-0.6-6.8-2.4-10.3-2.9c6.9,0.3,13.4-2.4,21.1-3.1c-1.5,1-2.3,1.4-3,1.9c-2.2,2-5.3,0.8-7.9,2.1
		c-0.5,0.1,0.4,0.7,0,0.1c-0.1-0.2,0-0.4,0.3-0.4C98.5,104.6,101.2,103.3,104.2,104z"/>
	<path class="st192" d="M112.2,107.1c-1.5,2.1,1.3,6.1-3,6.9c-1.4-2.2-4.5-3.6-3.1-7C108.2,106.4,110.2,105.1,112.2,107.1z"/>
	<path class="st193" d="M112.2,107.1c-2-0.7-4.1,1-6.1-0.1c0.2-0.3,0.2-0.6,0.1-0.9c0-0.3,0-0.6,0-0.9c2-0.1,4.1,0,6-1.1
		C112.2,105,112.2,106.1,112.2,107.1z"/>
	<path class="st194" d="M81.6,108c-0.9-1.1-2.4-0.7-4.5-1.5c2.3-0.4,3.4-1.8,5.2-1.5C82.3,106.1,84.9,107.7,81.6,108z"/>
	<path class="st104" d="M87.2,102c-1.4,0.1-2.9-0.4-3.9,1c-1.1-0.1-2.2,0.1-2.9-1c1.3-1.5,3.2-0.7,4.8-1.2
		C85.9,101,86.8,101.1,87.2,102z"/>
	<path class="st42" d="M52.2,107.8c0.6,0.3,2,0.3,1.3,1.4c-0.6,1-1.6,3.3-2.5,2.5c-3.3-2.8-7.3,0.7-10.5-1.6
		C44.5,109.3,48.3,108.5,52.2,107.8z"/>
	<path class="st41" d="M120.2,123.9c-2.5-0.7-5.2-0.8-7.1-2.9c3.9-5.2,5-0.1,7,1.9C120.1,123.2,120.2,123.6,120.2,123.9z"/>
	<path class="st195" d="M244.5,139.8c4.7-0.4,4.7-0.4,7.4,0.6C248.4,142.5,248.4,142.5,244.5,139.8z"/>
	<path class="st121" d="M207.7,136.2c-1.5-3.3-0.8-6.8-0.7-10.2C208.6,129.3,207.6,132.8,207.7,136.2z"/>
	<path class="st196" d="M98.5,125.8c1.6-1.8,3,0.5,4.6,0.3c2.7,0.7,5.5,1.3,8.2,1.8c0.7,0.1,1.4,0.3,2,0.7c4.3,3.4,9.7,4.4,14.3,6.9
		c0.1,0.2,0.3,0.4,0.4,0.6c0.1,1.1,2.1,0.9,1.6,2.1c-0.6,1.3-1.7,0.3-2.5,0c-5.3-1.9-10.3-4.9-15.8-6.2
		C107.1,129.8,102.8,127.8,98.5,125.8z"/>
	<path class="st196" d="M113.4,129.1c-0.7,0-1.3-0.1-2-0.1c-1.4-1.2-4.2-0.4-4.3-3.3c0.4,0,0.8,0.1,1.2,0.1c4.5-0.3,7.9,2.6,11.8,4
		c5,1.8,10.1,3.6,14.9,6.2c0.1,0.2,0.1,0.4,0,0.7c-2.4,1.1-4.5-1.1-6.8-0.8c0,0,0,0,0,0C123.3,133.5,117.7,132.7,113.4,129.1z"/>
	<path class="st197" d="M132.1,140.7c-4.9,1.7-9.8,3.4-14.8,5c1.6-3.3,6.1-1.7,7.8-4.8C127.5,141.6,129.7,138.7,132.1,140.7z"/>
	<path class="st198" d="M179.2,156.1c2.5,1.8,5.8,1.6,8,3.9C184.2,159.3,180.6,159.9,179.2,156.1z"/>
	<path class="st199" d="M134.9,136.1c-8.9-3.4-17.8-6.8-26.7-10.2c0-0.3,0-0.7,0-1c9.3,2.3,17.7,7.1,26.8,10
		C135,135.3,135,135.7,134.9,136.1z"/>
	<path class="st200" d="M107.1,125.7c0.8,1.9,3.3,1.6,4.3,3.3c-3.1-0.1-5.8-1.2-8.3-3C104.4,126.4,105.6,124.4,107.1,125.7z"/>
	<path class="st201" d="M165,117.9c-1.2-2.7-3.5-5.3-0.5-8.4c2.4-2.5,4.8-2.3,7.4-0.5c2.8,3.5,2.7,6.7-1.2,9.4
		C168.7,119,166.8,119.3,165,117.9z"/>
	<path class="st202" d="M170.7,117.9c3.3-2.6,2.2-5.7,1.1-8.9c3.9,3.4,3.9,4.9,0.3,9.1C171.6,118.5,171.1,118.4,170.7,117.9z"/>
	<path class="st203" d="M163,124.9c-0.6,1.1-1.7,1-2.7,1c0.6-3.2,0.6-3.2,2.7-5.6C164.4,121.8,160.8,123.4,163,124.9z"/>
	<path class="st204" d="M170.7,117.9c0.5,0.1,1,0.1,1.4,0.2c-2.4,2.1-4.9,3.3-7.2-0.2C166.9,117.9,168.8,117.9,170.7,117.9z"/>
	<path class="st75" d="M191.9,129.9c0.2-3.2,3.6-2.1,5-3.8c2.4-1,4.7-2,7.1-2.9C200.7,126.9,196.4,128.6,191.9,129.9z"/>
	<path class="st205" d="M125.3,120c3.3,1.1,6.6,2.2,9.9,3.3C131.5,123.6,128.2,122.1,125.3,120z"/>
	<path class="st206" d="M198.9,142.9c2-0.8,3.9-0.7,5.8,0.2c-0.4,3.5-3.2-0.5-4.1,1.5c1.2,0.7,2.4,1.4,4,2.4
		c-1.2,1.4-2.6,0.8-3.7,0.9c-0.5-1.1-1.4-1.7-2.6-1.9c-1.1-0.1-2.5-0.1-2.1-1.8C196.4,142.6,197.9,143.2,198.9,142.9z"/>
	<path class="st207" d="M179.9,150c3.1-0.2,5.8,0.9,8,3C185,152.6,182.2,152,179.9,150z"/>
	<path class="st71" d="M187.9,152.9c3.1,0.3,5.9,1.1,8.4,3C193.2,155.8,190.2,155.2,187.9,152.9z"/>
	<path class="st208" d="M118.5,126.2c3.1-0.6,5,1,6.8,2.4C123,128.5,120.8,128,118.5,126.2z"/>
	<path class="st209" d="M104.2,104c-3,0.8-5.9,1.6-9.5,0.7c3-1.3,5.7-1.7,8.4-1.9C103.5,103.2,103.8,103.6,104.2,104z"/>
	<path class="st187" d="M113.4,129.1c4.7,2.8,10.4,3.3,14.8,6.9C122.7,134.7,117.3,133.6,113.4,129.1z"/>
</g>
</svg>
