<?xml version="1.0" encoding="utf-8"?>
<!-- Generator: Adobe Illustrator 24.0.1, SVG Export Plug-In . SVG Version: 6.00 Build 0)  -->
<svg version="1.1" id="Слой_1" xmlns="http://www.w3.org/2000/svg" xmlns:xlink="http://www.w3.org/1999/xlink" x="0px" y="0px"
	 viewBox="0 0 274 242" style="enable-background:new 0 0 274 242;" xml:space="preserve">
<style type="text/css">
	.st0{fill:#FEFEFE;}
	.st1{fill:#F9F9F9;}
	.st2{fill:#FDFDFD;}
	.st3{fill:#F5F5F5;}
	.st4{fill:#F6F6F6;}
	.st5{fill:#FAFAFA;}
	.st6{fill:#747474;}
	.st7{fill:#585858;}
	.st8{fill:#4F4F4F;}
	.st9{fill:#9B9B9B;}
	.st10{fill:#1C1C1C;}
	.st11{fill:#B0B0B0;}
	.st12{fill:#717171;}
	.st13{fill:#3C3C3C;}
	.st14{fill:#6C6C6C;}
	.st15{fill:#909090;}
	.st16{fill:#292929;}
	.st17{fill:#7B7B7B;}
	.st18{fill:#6A6A6A;}
	.st19{fill:#101010;}
	.st20{fill:#B2B2B2;}
	.st21{fill:#494949;}
	.st22{fill:#8B8B8B;}
	.st23{fill:#C4C4C4;}
	.st24{fill:#959595;}
	.st25{fill:#5A5A5A;}
	.st26{fill:#5F5F5F;}
	.st27{fill:#888888;}
	.st28{fill:#626262;}
	.st29{fill:#3B3B3B;}
	.st30{fill:#3A3A3A;}
	.st31{fill:#919191;}
	.st32{fill:#787878;}
	.st33{fill:#929292;}
	.st34{fill:#8A8A8A;}
	.st35{fill:#8E8E8E;}
	.st36{fill:#8D8D8D;}
	.st37{fill:#5C5C5C;}
	.st38{fill:#121212;}
	.st39{fill:#A4A4A4;}
	.st40{fill:#898989;}
	.st41{fill:#A6A6A6;}
	.st42{fill:#8F8F8F;}
	.st43{fill:#9C9C9C;}
	.st44{fill:#A8A8A8;}
	.st45{fill:#808080;}
	.st46{fill:#939393;}
	.st47{fill:#F2F2F2;}
	.st48{fill:#373737;}
	.st49{fill:#DCDCDC;}
	.st50{fill:#0E0E0E;}
	.st51{fill:#6E6E6E;}
	.st52{fill:#838383;}
	.st53{fill:#232323;}
	.st54{fill:#3F3F3F;}
	.st55{fill:#666666;}
	.st56{fill:#797979;}
	.st57{fill:#0D0D0D;}
	.st58{fill:#2B2B2B;}
	.st59{fill:#757575;}
	.st60{fill:#868686;}
	.st61{fill:#191919;}
	.st62{fill:#878787;}
	.st63{fill:#979797;}
	.st64{fill:#545454;}
	.st65{fill:#848484;}
	.st66{fill:#8C8C8C;}
	.st67{fill:#818181;}
	.st68{fill:#1A1A1A;}
	.st69{fill:#454545;}
	.st70{fill:#BFBFBF;}
	.st71{fill:#151515;}
	.st72{fill:#434343;}
	.st73{fill:#ECECEC;}
	.st74{fill:#737373;}
	.st75{fill:#2E2E2E;}
	.st76{fill:#7E7E7E;}
	.st77{fill:#E8E8E8;}
	.st78{fill:#636363;}
	.st79{fill:#1F1F1F;}
	.st80{fill:#C6C6C6;}
	.st81{fill:#565656;}
	.st82{fill:#363636;}
	.st83{fill:#606060;}
	.st84{fill:#575757;}
	.st85{fill:#202020;}
	.st86{fill:#C8C8C8;}
	.st87{fill:#7A7A7A;}
	.st88{fill:#515151;}
	.st89{fill:#343434;}
	.st90{fill:#2A2A2A;}
	.st91{fill:#161616;}
	.st92{fill:#424242;}
	.st93{fill:#262626;}
	.st94{fill:#4B4B4B;}
	.st95{fill:#DBDBDB;}
	.st96{fill:#242424;}
	.st97{fill:#777777;}
	.st98{fill:#767676;}
	.st99{fill:#4E4E4E;}
	.st100{fill:#D0D0D0;}
	.st101{fill:#676767;}
	.st102{fill:#F7F7F7;}
	.st103{fill:#DDDDDD;}
	.st104{fill:#F3F3F3;}
	.st105{fill:#0B0B0B;}
	.st106{fill:#EBEBEB;}
	.st107{fill:#BABABA;}
	.st108{fill:#5B5B5B;}
	.st109{fill:#FCFCFC;}
	.st110{fill:#707070;}
	.st111{fill:#EEEEEE;}
	.st112{fill:#D9D9D9;}
	.st113{fill:#E4E4E4;}
	.st114{fill:#CDCDCD;}
	.st115{fill:#C9C9C9;}
	.st116{fill:#D7D7D7;}
	.st117{fill:#B6B6B6;}
	.st118{fill:#AAAAAA;}
	.st119{fill:#C1C1C1;}
	.st120{fill:#2C2C2C;}
	.st121{fill:#DADADA;}
	.st122{fill:#272727;}
	.st123{fill:#4A4A4A;}
	.st124{fill:#D6D6D6;}
	.st125{fill:#CFCFCF;}
	.st126{fill:#C2C2C2;}
	.st127{fill:#C7C7C7;}
	.st128{fill:#F8F8F8;}
	.st129{fill:#B9B9B9;}
	.st130{fill:#858585;}
	.st131{fill:#6D6D6D;}
	.st132{fill:#EFEFEF;}
	.st133{fill:#353535;}
	.st134{fill:#050505;}
	.st135{fill:#DFDFDF;}
	.st136{fill:#D1D1D1;}
	.st137{fill:#D5D5D5;}
	.st138{fill:#282828;}
	.st139{fill:#F4F4F4;}
	.st140{fill:#E5E5E5;}
	.st141{fill:#727272;}
	.st142{fill:#E0E0E0;}
	.st143{fill:#252525;}
	.st144{fill:#323232;}
	.st145{fill:#313131;}
	.st146{fill:#7D7D7D;}
	.st147{fill:#B1B1B1;}
	.st148{fill:#DEDEDE;}
	.st149{fill:#3E3E3E;}
	.st150{fill:#B8B8B8;}
	.st151{fill:#CCCCCC;}
	.st152{fill:#EAEAEA;}
	.st153{fill:#A1A1A1;}
	.st154{fill:#6F6F6F;}
	.st155{fill:#484848;}
	.st156{fill:#CBCBCB;}
	.st157{fill:#1B1B1B;}
	.st158{fill:#222222;}
	.st159{fill:#4D4D4D;}
	.st160{fill:#D2D2D2;}
	.st161{fill:#131313;}
	.st162{fill:#656565;}
	.st163{fill:#969696;}
	.st164{fill:#7C7C7C;}
	.st165{fill:#F0F0F0;}
</style>
<g>
	<path class="st0" d="M189,241.9c-61.5,0-123.1,0-184.6,0.1c-3.5,0-4.4-0.6-4.4-4.3C0.2,189.1,0.1,140.6,0.1,92
		c1.5-1.3,3.3-1.4,5.1-1.4c12.7,0.4,25.5-0.9,38.2,0.9c6.4,0.9,12.7,2.2,18.6,4.9c0.8,0.3,1.4,0.7,2.1,1.2c1.9,2.6,5,3.2,7.6,4.6
		c0.4,0.3,0.7,0.6,1,0.9c1.4,2.1,3.5,3.5,5.3,5.2c0.4,0.3,0.7,0.7,1,1c1.6,1.9,3.4,3.6,4.8,5.7c3.5,5.1,3.3,5.6-1.7,8.9
		c-7.2,4.7-15.3,7.9-22.5,12.7c-2.6,1.7-5.5,3.1-8,5c-0.9,0.7-2,1.3-3.1,1.7c-3.3,2.1-7.8,2.7-9.1,7.2c0.4,5.4-1.2,11,1,16.3
		c1.2,1.6,2.4,3.1,3.3,4.9c2.9,4.4,6.4,8.3,10,12c1.1,1.1,2.1,2,3.8,1.9c27.1,0,54.2,0,81.2,0c10.4-3.1,20.2-7.4,29.4-13.1
		c3.8-2,7.3-4.6,11.8-4.7c3.5,0.2,7.4-1.1,9.7,2.9c0.6,1.6,0.5,3.3,0.5,4.9c0,20.1,0,40.2,0,60.2C190.4,237.9,190.6,240.1,189,241.9
		z"/>
	<path class="st0" d="M273.9,209.9c0,9.7-0.1,19.3,0.1,29c0,2.5-0.6,3.1-3.1,3.1c-26.6-0.1-53.3-0.1-79.9-0.1c-1.4-1.7-1-3.8-1-5.8
		c0-21.5,0-42.9,0-64.4c-0.2-3.2,2-4.6,4.4-5.9c3.8-1.9,7.8-3.5,11.5-5.6c0.9-0.5,1.7-0.8,2.6-1.2c3-0.9,5.7-2.3,8.2-4.3
		c1.5-0.2,2.9-0.5,4.3-1.2c8.9-3.7,17.6-7.6,26.2-12.1c2.1-1.2,4.2-2.6,6.7-3.1c2,0.1,4.1-2.1,6,0.3c0.3,0.8,0.5,1.6,0.5,2.4
		c0.1,6.5,0,13,0.1,19.5c0.2,14.9-0.5,29.8,0.3,44.7c2.9-2.5,4.7-5.9,7.3-8.6c1.3-1.4,2.6-3,4.7-3.4c0.5,0,0.9,0.2,1.3,0.6
		c0,3.3,0,6.7,0,10c-0.7,0.4-1.3,1-1.8,1.7C269.7,208.3,271.1,209.4,273.9,209.9z"/>
	<path class="st1" d="M59.1,0.1c70.3,0,140.6,0,210.9-0.1c3.6,0,4.1,0.9,4,4.2c-0.3,10-0.1,19.9-0.1,29.9c-0.3,0.3-0.6,0.6-0.9,1
		c-1.8,3.2-4.9,5.5-6.7,8.7c-0.7,0.9-1.2,1.9-2,2.7c-0.9,0.9-1.8,2.2-3.3,1.4c-1.3-0.7-1.1-2.2-0.8-3.5c2-2.1,3.4-4.8,5.5-6.6
		c-2.3,0.5-1.9,4.8-5.2,4c-0.3-0.4-0.5-0.9-0.6-1.4c-0.3-3.1-0.7-6.2,0.9-9.1c1.7-2.3,4.1-4,5.5-6.5c1.6-2.5,3.6-4.6,5.2-7.1
		c0.2-0.6,0.4-1.3,0.3-1.9c-1.6-3.6-4.7-6.1-6.7-8.4c1.1,1.9,4,3.3,5.2,6.1c0.5,1.1,1.9,2.2-0.1,3.2c-2.8,0.7-5.5,0.9-8.2-0.4
		c-2.4-3.3-5.2-6.4-7-8.9c1.5,1.4,2.9,4.2,5,6.4c0.8,0.8,0.6,1.8-0.3,2.6c-3.3-0.1-7.2,2.3-9.6-2.1c-2-2.6-3.6-5.5-6.4-8.1
		c2.8,2.8,4.5,5.7,6.6,8.4c-2.6,4-6,2.5-9.3,1.2c-2.3-2.8-4.1-5.9-6.8-8.1c2.3,2.3,4.9,4.6,5.9,8c-0.6,0.2-8.5,0.1-9.1-0.1
		c-1.3-3.5-5-5.1-5.9-7.5c0.5,1.1,2.3,2.7,3.9,4.4c1.1,1.2,2.4,2.5,0.3,4.1c-2.2,0.8-4.4,0.7-6.7,0.2c-4.2-3-6.4-7.9-9.7-10.9
		c1.5,2.6,4.6,4.6,6.3,7.8c0.5,1,1.6,1.9,0,2.9c-2.5,0.9-5,0.8-7.6,0.2c-0.5-0.2-0.8-0.5-1.2-0.9c-1.6-3.4-4.6-5.5-7.2-8
		c2.4,2.4,5.3,4.4,6.8,7.7c-0.5,1-1.5,1.3-2.5,1.5c-2.6,0.1-5.3,0.6-7.5-1.3c-2.2-4.5-6.9-7.2-8.4-10.6c1.2,1.7,3.2,4.3,5.6,6.7
		c1.2,1.2,3.1,2.3,1.4,4.5c-9,1-18.1,0.1-27.2,0.5c-1,0-1.9-0.5-2.6-1.3c-1.6-4-5.9-5.9-7-8.7c0.9,1.4,2.8,3.4,4.7,5.4
		c1.1,1.1,2.7,2.3,1.1,4.2c-4.5,0.6-9,0.8-13.5,0.1c-0.4-0.6,0,0.3-0.4-0.3c-0.4-0.7-0.6-1.4-0.9-2.1c-0.1,0.7,0.5,1.6-0.3,2.2
		c-1.5,0.7-2.8,0.4-3.8-0.9c-1.5-3.7-5.2-5.4-6.7-7.7c1,1.3,3,2.9,4.8,4.8c1.1,1.2,2.5,2.4,0.5,4.1c-1.9,0.8-3.9,0.7-5.9,0.2
		c-4.3-0.8-4.6-6.2-8.5-7.5c-0.6-0.5-1-1.2-1.6-1.8c0.5,1,1.1,1.9,2.2,2.3c2.2,1.7,4.9,3.1,3,6.6c-2.6,1.1-5.1,1.1-7.6-0.1
		c-2.2-3-4.6-5.8-7-7.8c0.9,2.6,6.2,3.1,4.7,7.8c-3,0.2-6.2,1.8-8.9-0.9c-1.5-3.9-5.7-5.5-7.3-9.2c1.1,2.5,3.4,4.1,5.2,6.1
		c1,1.2,2.7,2.3,1,4.2c-6.4,0.4-12.7,1.2-19.1-0.4c-2.7-4-6.2-7.5-8.8-11.1c1.9,2.3,3.7,5.2,6.1,7.6c1,1,2.3,2,1,3.7
		c-2.8,0.4-5.6,1.5-8.1-0.7c-1.8-3.8-5.8-5.7-7.9-8.7c1.5,3.3,6.6,4.3,7.2,8.9c-3.1,2-6.2,1.4-9.5,0.4c-1.9-3.2-4.6-5.7-7.3-8.2
		c1.8,1.6,3.5,3.4,5.1,5.2c1,1,1.6,2.1,0.2,3.4c-1.1,0.6-2.3,0.6-3.4,0.1c-1.7,0-1.1-4.7-4.1-1.9c-1.4,1.8-3.4,2.4-5.6,2.7
		c-2.7,0.5-4.4,2.7-6.6,4c-1.6,1-3.1,2.5-5.3,1.9c-2.3-2.2-0.4-3.7,1.1-4.8c4.5-3.5,6.8-7.6,4.9-13.4C56.2,2.8,57.3,1.3,59.1,0.1z"
		/>
	<path class="st2" d="M59.1,0.1c-0.8,1.9-1.7,3.8-0.8,6c2.2,5.7-0.8,9.5-4.9,12.8C52,20,49.8,20.5,51.1,23c0.6,1.8-0.9,2.1-1.4,2.6
		c4.7-2.3,8.2-7.7,14.4-8.5c18.1,0.1,36.2-0.6,54.2,0.4c2.2,3.5-1.8,3-2.9,4.3c0.4,1.7-0.5,4.1,2.4,4.6c3,1.2,3.3,2.7,0.4,4.4
		c-1.2,0.4-2.8,0.1-3.7,1.1c-5.1,4.8-10.9,6.2-17.6,4.4c-8.6,0.1-17.2,0.3-25.6,1.8c-3.7,1.3-7.6,1.4-11.4,1.5
		c-2.1,0.6-1.3,2.5-1.6,3.9c0,0.5-0.1,0.9-0.3,1.4c-0.8,2.3-2.8,2.4-4.8,2.6c-1.7,0.2-3.6-0.6-5.2,0.6c-1.2,2.8-0.5,5.9-1.5,8.7
		c-1,2.1-2.8,3.1-4.9,3.8c-2.7,1.1-5.5,1.2-8.3,0.8C25,60,16.8,60,8.6,61.1c-3.5,0.5-6-1.1-8.5-3.1c0-7,0-14,0-21
		c1.8-1.6,4.2-1.7,6.1-0.8c4.2,2,7.7,1.8,11.3-1.6c1.6-1.5,3.9-2.5,5.9-3.6c3.3-1.7,6.6-3.1,7.5-7.2c0.2-0.9,1.3-1.6,2.3-1.6
		c7.8,0,11.7-7.8,18.8-9.2c2-0.4,1.6-3,1.8-4.8C54,5.5,53,2.6,55.1,0.1C56.4,0.1,57.7,0.1,59.1,0.1z"/>
	<path class="st0" d="M55.1,0.1c0,0.5-0.1,1,0,1.5c1.8,8.4-1,14.1-9.7,16.3c-1.9,0.5-3.3,1.4-4.2,3.1c-1.2,2.2-2.9,2.8-5.4,2.2
		c-2.6-0.6-4.7,0.2-4.6,3.4c0,1.4-0.4,2.8-1.8,3.3c-5.6,2-10.3,5.5-15.2,8.9c-1,0.7-2.7,1.7-4.1,0.5c-2.9-2.6-6.4-2.3-9.9-2.2
		c0-11.3,0.1-22.6-0.1-34C0,0.6,0.6,0,3.1,0C20.4,0.2,37.7,0.1,55.1,0.1z"/>
	<path class="st3" d="M272.8,34.2c0.4,0,0.8-0.1,1.1-0.1c0,39,0,77.9,0,116.9c-0.3,0.3-0.6,0.5-1.1,0.5c-2.6,1.5-4.2,4-6,6.2
		c-0.2,0.4-0.5,0.8-0.8,1.1c-1,1.1-1.9,2.2-3.2,2.9c-2,1-2.6-0.2-2.6-2c0.1-0.5,0.3-0.9,0.5-1.3c2.5-2.2,4-5.1,6.2-7.4
		c1.2-2.1,2.3-4.3,4.4-5.8c-2.1,1.4-3.3,3.5-4.4,5.7c-2.2,1.8-2.9,5.2-6.2,6c-1.4-2.7-0.7-4.8,1.5-7c3.2-3,5.5-6.8,8.1-9.1
		c-1.2,1.9-4,3.6-5.6,6.3c-0.8,1.3-1.9,3.5-3.6,2.4c-1.9-1.2-1.5-3.4,0.1-5.1c3.9-2.2,6.1-5.9,8.8-9.2c-2.6,3.2-4.7,6.8-8.4,8.9
		c-1.4-0.6-1.5-1.8-1.2-3c2.5-4.2,5.6-8,8.7-11.8c0.6-1.1,2.3-1.8,1.4-3.3c-0.6-1-1.8-0.4-2.8-0.3c-1.2,0.2-2.3,0.2-3.4-0.4
		c-1.2-1.9,0.6-2.6,1.5-3.6c1.9-2,4-3.8,4.7-5.6c-1.6,3.1-5.3,5.6-7.9,9.1c-2.1,0.1-2.4-1.2-2.2-2.9c3.5-3.9,6.8-7.9,9.8-11.3
		c-2.2,1.7-3.9,4.8-6.3,7.3c-0.7,0.8-1.5,2.1-2.8,1.1c-0.9-0.6-0.8-1.7-0.5-2.7c2-2.6,4.1-5.1,5.6-6.9c0.9-1.3-0.3-1.1,0.4-0.9
		c0.1,0,0.1,0.2-0.1,0.5c-2,1.6-2.5,4.9-5.7,5.2c-1.3-2.6-0.5-4.5,1.5-6.6c3.2-3.4,6.3-7,8.5-9.8c-1.4,2.6-4.7,5.2-7.1,8.5
		c-1.8,2.4-3.1,1-3.5-1.3c-0.7-4.3-0.1-8.2,3.7-11c0.8-1.1,1.5-2.2,2.5-3.1c-1,0.7-1.6,1.8-2.2,2.7c-0.8,0.9-1.4,2.7-3,1.5
		c-1.2-0.9-0.9-2.4-0.3-3.6c0.7-1.5,2.2-2.1,3-3c-3.7,2.4-3.5-0.1-3.1-2.9c3.1-4.2,7.1-7.6,9.3-11c-1.3,2.8-5.1,5.1-7.4,8.6
		c-0.4,0.6-1.1,0.6-1.7,0.1c-0.7-1.1-0.7-2.3-0.4-3.5c1.5-2.4,4.3-3.7,5.7-6.3c1.3-2.1,3.2-3.6,4.8-5.4c-1.5,1.8-3.4,3.2-4.7,5.3
		c-1.6,1.6-2.3,4.3-5.2,4.1c-0.5-0.6-0.7-1.3-0.7-2c0-1.3,0.5-2.4,1.8-2.9c3.2-3.3,5.7-7.1,8.9-11.5c-3.4,4.3-5.5,8.7-9.4,11.6
		c-1.8-1.2-1.5-2.9-1.1-4.6c3.7-3.9,7-8.3,9.8-11.3c-1.2,2-4.2,4.1-6.2,7.2c-0.8,1.3-2.3,2.9-3.7,0.3c-0.8-4.5-0.6-9.1-0.2-13.6
		c1.5-3.2,5.1-4.8,6.6-8C267.7,39.6,271.8,38,272.8,34.2z"/>
	<path class="st4" d="M273.1,151c0.3,0,0.5,0,0.8,0c0,14.3,0,28.6,0,43c-0.4,0-0.9-0.1-1.3-0.1c-3.2,1.1-4.8,4-6.9,6.4
		c-1.4,1.6-2.1,4.3-5.1,3.7c-0.6-0.8-0.6-1.8-0.3-2.7c2.8-4.3,7-7.5,9.6-11.9c-2,3.4-5,6-7.4,9.1c-0.6,0.8-1.1,1.2-2,0.4
		c-0.8-1.4-0.5-2.8-0.3-4.3c1.3-2.3,3.9-3.5,5.3-5.7c1.1-2.2,3.1-3.7,4.7-5.5c0.5-0.5-0.1-0.4-0.1-0.4c-1.2,2.3-3.7,3.6-4.8,6
		c-1.2,1.3-2.1,3.3-4,3.1c-1.5-0.1-1.3-2-1.3-3.3c0.1-2-0.2-4,0.2-6c3.1-2.6,5.4-5.8,7.6-9.2c-1.5,2.3-3.2,4.6-5,6.7
		c-0.8,1-1.7,1.7-2.6,0.1c-0.4-2.8-0.2-5.5-0.1-8.3c3.6-5,7.8-9.6,10.7-14.3c-2.2,2.9-4.6,6.5-7.3,9.8c-0.8,1-1.2,2.6-3,1.3
		c-1.1-2.8-0.5-5,2-6.8c1.4-1,2.6-2.4,3.5-4l0,0C268,155.4,270.1,152.6,273.1,151z"/>
	<path class="st5" d="M0.1,86c0-8.3,0-16.7,0-25c4.3-1.1,8.8-0.7,13.2-0.9c7.8-0.3,15.6-0.4,23.3,0.6c0.8,4.4-3.3,4.4-5.6,6.1
		c-3.2,0.9-6.5,0.4-9.8,0.6c-1.7,0.1-3.8-0.6-4.7,1.7c-0.1,0.7-0.2,1.5-0.4,2.2c-0.1,0.5-0.3,1-0.6,1.4c-1.6,1.9-3.9,1.7-6,1.6
		c-3.3-0.2-4.6,1.2-4.2,4.4c0,1,0,2-0.1,3.1c-0.1,0.8-0.3,1.5-0.6,2.3C3.6,85.5,2.3,86.8,0.1,86z"/>
	<path class="st6" d="M190.5,169.9c0.1,17.5,0.2,35.1,0.3,52.6c0,6.5,0.1,12.9,0.1,19.4c-0.7,0-1.3,0-2,0c0-24,0-47.9,0-71.9
		c0.2-0.1,0.3-0.3,0.5-0.4C189.8,169.5,190.2,169.7,190.5,169.9z"/>
	<path class="st7" d="M63.4,98.3C43,89.1,21.3,92.8,0.1,92c0-0.3,0-0.7,0-1c2.1-0.1,0.2-2,1.2-2.6C3.4,87.6,5.1,84,8,87.3
		c1.5,1.9,3.6,1.3,5.6,1.3c10.4,0.3,20.9-0.6,31.3,1c5.1,0.8,10.1,1.7,14.8,4.2C61.4,94.8,63.6,95.5,63.4,98.3z"/>
	<path class="st8" d="M36.9,61.9c-2.4-1.7-5.1-0.7-7.6-0.7C19.6,61,9.8,61.1,0.1,61.1c0-1,0-2,0-3c10.9,2.8,22,0.8,33,1.5
		c3.1,0.2,6.3,0.3,9.3-0.7c-0.3,3.3-2.3,4.5-5.3,4.4C36.6,62.8,36.6,62.4,36.9,61.9z"/>
	<path class="st9" d="M273.9,209.9c-1.8,0.7-5,0.9-4.8-0.4c0.3-2.2,0.4-6.2,4.8-5.6C273.9,205.9,273.9,207.9,273.9,209.9z"/>
	<path class="st10" d="M1.1,89c0.4,0.6,0.8,1.1,1.2,1.7c-0.7,0.1-1.5,0.2-2.2,0.3c0-1.7,0-3.3,0-5c1.6-0.2,2.9-0.8,4-2.1
		c0.3,0.3,0.5,0.7,0.6,1.2C4.3,87.2,2.4,87.8,1.1,89z"/>
	<path class="st11" d="M63.4,98.3c-5.2-5.5-12.3-6.2-19.3-7.3c-12.8-1.9-25.6-0.4-38.9-1.1c0.8-1.3,1.4-2.2,2-3.1
		c0.7-2.3,2.7-3,4.6-3.9c4.4-1.8,7.8-5.2,11.8-7.6c4.2-2.7,8.5-5.3,12.4-8.5c0.4-0.3,0.7-0.5,1.1-0.8c6.7-3.7,13.2-7.9,19.1-12.9
		c1.4-1.4,3.2-2.4,5.1-2.9c0.8-0.1,1.6-0.1,2.3,0c5.4,0.6,10.8,0.5,16.2,0c0.6-0.1,1.1-0.1,1.7,0c8.6,0.5,17.2,0.6,25.7-0.1
		c1.1-0.3,2.2-0.3,3.3-0.1c2.2,0.7,4.7,0.5,6.9,1c6.4,1.8,12.3,4.9,18.2,8.1c1.2,1,2.3,2.2,3.6,3.2c1.5,1.6,3.4,2.7,4.9,4.3
		c0.9,1.2,1.4,2.6,2.6,3.6c1.7,1.4,3.3,2.8,4.1,5c0.6,1.4,1.7,2.5,2.7,3.6c1.7,2.3,3.5,4.7,4.3,7.5c0.4,1.3,1,2.5,1.8,3.6
		c1.5,2.2,2.4,4.6,3,7.1c0.3,1.4,0.4,2.8,0.9,4.2c1.1,3.6,2.1,7.2,2.7,10.9c-0.2,2.6,0.6,5.2,0.7,7.8c0,4.3,0.1,8.6-0.1,12.8
		c-0.1,0.9-0.4,1.7-0.9,2.4c-2.9,2.2-6.5,0.7-9.6,1.6c-0.8,0.1-1.5,0.1-2.2-0.2c-2-1.9-0.6-4.8-2-6.9c0-1.6-0.5-2.9-1.6-4.1
		c-1.1-1.5-0.8-3-0.1-4.6c0.4-0.8,0.8-1.6,1.2-2.4c1.3-2.5-0.4-4.3-1.6-6.1c-1.5-2.3-3-2.4-4.6-0.2c-0.4,0.5-1,1-1.6,1.3
		c-0.4,0.2-0.9,0.3-1.3,0.3c-4.5,1-8.2,3.8-12.5,5.6c-3,2-6.3,3.6-9.5,5.1c-1.4,0.6-2.9,1.9-4.4,0.1c-0.9-1.8-0.7-3.6-0.4-5.4
		c1.2-6.3,0.9-6.7-5.2-6.7c-2.5,0-5,0-7.5,0c-3.7,0.6-6.9,2.3-9.4,5.1c-0.5,0.5-1.1,0.9-1.8,1c-3.9,1.4-6.8,0.5-8.8-3.4
		c-1.2-2.4-3.4-4.3-5.5-6.1l0,0c-1.3-2.7-4.5-3.5-6-6l0,0c-2.2-2.3-5.4-2.6-8-4.1C63.7,98.8,63.5,98.6,63.4,98.3z"/>
	<path class="st0" d="M42.5,171.9c-0.8-1.3-1.6-2.7-2.5-4c-0.2-0.3-0.3-0.5-0.3-0.8c0-0.3,0.1-0.5,0.1-0.5
		c5.4-4.8,12.6-6.7,18.3-10.9c0.4-0.3,0.8-0.5,1.2-0.7c6.5-2.4,12.5-6,18.4-9.6c0.6-0.3,1.3-0.6,2-0.8c7.8-3,14.3-8.3,22.1-11.2
		c0.5,0,1,0.1,1.4,0.3c4.6,4.5,8.5,9.6,12.6,14.5c3.7,4.4,3.6,4.7-0.7,8.5c-2.5,0.5-4.9,1.5-7.1,2.8c-4.8,2.9-9.9,5.2-15.7,8.3
		c6.2-3.1,11.6-5.8,16.8-8.8c2-1.7,5.2-1,7-3.4c2.3-1.6,4.7-2.2,7.5-2.2c25.4,0,50.9,0,76.3,0c1.8,0,3.7-0.2,5.4,0.8
		c1.6,1.4,0.4,2.3-0.7,3c-1.9,1.3-4,2.2-6,3.2c-0.7,0.3-1.4,0.6-2.1,0.8c-5.6,1.7-10.5,5-16,6.9c-0.6,0.3-1.3,0.5-1.9,0.9
		c-3.6,0.3-6.2,3-9.6,3.9c-9.6,5.1-19.4,9.4-29.5,13.5c-25,0-50.1,0-75.1,0c-2.2,0-4.3,0.1-6.4-0.5c-3.5,0.3-5.1-2.6-7-4.7
		C48.2,178.1,45.7,174.7,42.5,171.9z"/>
	<path class="st2" d="M80.1,146c-0.5,0-1,0-1.5,0c-6.8,2.8-13,6.8-19.6,10l0.1-0.1c-6.8,3.1-12.8,7.8-20.1,9.9
		c-0.8-5.2-0.2-10.5-0.4-15.7c0.5-2.9,3.3-3.3,5.3-4.7c1.6-1.1,3.3-2.1,4.7-3.5c0.6-0.3,1.3-0.6,1.9-0.9
		c12.1-6.8,24.6-12.9,36.2-20.6c1.6-1.1,3.3-2.2,5.4-2.3c0.3-0.2,0.6-0.4,0.9-0.5c3-2,5.1-6.1,9.7-4c1.2,5.7,0.7,11.5,0.4,17.2
		c-1,3-3.8,3.9-6.2,5.2C91.2,139.1,85.1,141.6,80.1,146z"/>
	<path class="st12" d="M92.1,118.1c-12.7,8.7-26.7,15.1-39.8,23.2c-0.4,0.2-1.2-0.1-1.8-0.2c9.3-7.2,20.3-11.6,30.2-17.8
		c1.1-0.7,2.3-1.4,3.4-2c1.9-0.9,1.9-1.8,0.5-3.3c-2.4-2.8-5.1-5.4-6.7-8.9c2,0.4,3.4,1.6,4.3,3.5C84.3,116.6,87.4,118.9,92.1,118.1
		z"/>
	<path class="st13" d="M57.1,185c2.4-2.6,3.9,1.1,6.2,1c12.4-0.5,24.9-0.2,37.3-0.2c13.4,0,26.9,0.1,40.3,0.1
		c0.3,0.2,0.4,0.5,0.3,0.7c-0.1,0.2-0.2,0.3-0.3,0.3c-28.6,0-57.2-0.1-85.7-0.1C54.5,184.8,56.8,185.9,57.1,185z"/>
	<path class="st14" d="M141,186.9c0-0.3,0-0.7,0-1c9-5.1,18.3-9.4,28-12.9c-3.3,4.2-8.7,5-13.1,7.4C151.2,182.9,146,184.7,141,186.9
		z"/>
	<path class="st15" d="M57.1,185c-0.6,0.6-1.2,1.2-1.8,1.8c-4.8-4.5-9-9.5-12.7-14.9c4.7,1.6,6.4,6.3,9.7,9.4
		C53.7,182.7,54.4,185.1,57.1,185z"/>
	<path class="st16" d="M39,149c0.8,5.6-1.2,11.3,1.1,16.8c0.5,0.4,0.5,0.8,0.1,1.3c0,0.3-0.1,0.6-0.1,0.9c-2.2-0.2-2-1.9-2-3.4
		c0-5.2,0.1-10.3,0.2-15.5C38.5,148.6,38.7,148.6,39,149z"/>
	<path class="st17" d="M39,149l-0.4,0.2l-0.4,0c2.2-4.1,6.6-5.1,10.3-7.2C46.8,146.2,42.4,146.8,39,149z"/>
	<path class="st18" d="M64,99c3.3,0.1,6.4,0.7,8,4.1C68.9,102.6,66.1,101.5,64,99z"/>
	<path class="st18" d="M72,103.1c2.3,1.7,5.6,2.5,6,6C75.2,107.8,72.9,106.2,72,103.1z"/>
	<path class="st19" d="M178.6,169c0.4-0.4,0.8-0.8,1.2-1.2c1.3-0.5,2.6-0.7,4-0.9c1.9-0.3,3.9-0.5,5.7,0.4c1.3,1.2,0.6,1.9-0.7,2.3
		l0.1,0.3C185.6,168.3,182,169.6,178.6,169z"/>
	<path class="st20" d="M189.9,168c-2,0-3.9-0.1-5.9-0.1c0.2-2.9,3-2.7,4.6-3.6c2.4-1.3,5.2-1.9,7.1-4.1c0.6-0.1,1.3-0.1,1.9-0.2
		c3.1-1,5.9-2.5,8.8-4c0.9-1,2.2-1.4,3-2.5c0.4-0.5,0.9-1,1.5-1.5c5.5-2.9,8.9-8.2,13.3-12.3c1.3-1.2,2.5-2.6,4.4-2.9
		c6.9-0.4,13.9-0.2,20.8-0.1c1.6,0,4.2-0.7,4.3,2.4c-1.4,1.8-3.4,2.7-5.6,2.9c-9.1,4-18.6,7.4-27.1,12.8c-1.3,0.3-2.5,2-3.8,0
		c-2.3,2.4-5.9,2.5-8.2,4.9c-0.7,0.4-1.3,0.8-2,1.2c-5,0.6-8.9,4-13.5,5.6C192.3,167.1,191.3,168,189.9,168z"/>
	<path class="st21" d="M253.7,139.1c-0.2-1.4-1.3-1.2-2.2-1.2c-8.1,0.1-16.2,0.2-24.3,0.3c-1.4,0.5-2.9,0.1-4.3,0.6
		c-3.2-0.1-4.9,3.7-8.2,3.3c-3.6-0.7-4.8,2.1-6.7,4.2c-0.5,0.1-0.9,0-1.3-0.2c0-7.4-5.4-7.2-10.5-7.4c-1-0.6-1.8-0.1-2.7,0.3
		c-8.9,0.5-17.9,1.2-26.8-0.4c-0.8-2.3-0.8-2.3,3.2-3.5c0.9-0.2,1.8-0.2,2.7,0c6.7,0.6,13.4,1,20.1-0.4c21.5-0.5,43-0.5,64.5,0
		c1.1,0.3,2.2,0.6,3.3,0.9c1.4,2.1,0.9,2.9-1.6,2.5C257,137.8,255.7,140.5,253.7,139.1z"/>
	<path class="st22" d="M260.9,182c0,2.3,0,4.6,0,7c-1.2,1.8,0.1,3.4,0.3,5.1c0,1.5-0.1,3-0.1,4.5c0.6,0.8,0.5,1.7,0,2.5
		c0,0.9,0,1.8,0,2.6c0.8,1.1,0.6,2.1-0.1,3.2c-0.1,1,0.8,2.8-0.9,2.8c-1.6,0-1-1.8-1-2.9c0-15.3,0.1-30.6,0.1-45.9
		c0.6-0.7-0.1-2.6,1.9-1.9c0.6,0.5-1.4,3.9,1.7,1.6c1.1-0.8,1.4-2.6,3.2-2.7c0.2,2.1-1.5,3.1-2.7,4.2c-2,1.8-2.4,4-2.2,6.5
		c0.6,0.9,0.5,1.7,0,2.6c0,3.1,0,6.3,0,9.4C261.5,181.1,261.5,181.6,260.9,182z"/>
	<path class="st23" d="M258.8,138.2c1.8,0,2.1-0.9,1.3-2.3c-0.9-1.6-1.1-3.3-0.5-5.1c1.2-1.3,2.2-2.8,4-3.3c2.4,0.1,5-0.7,6.2,2.4
		c-2.9,3.7-5.1,8-8.6,11.3c-1,0.1-1.6-0.5-2.3-1.1C259,139.4,258.9,138.8,258.8,138.2z"/>
	<path class="st24" d="M259,140.1c1-0.1,1.8,0.1,2.3,1.1c-0.1,1-0.7,2.1,0.6,2.7c0.5,0.4,0.5,0.9,0,1.3c-1,1.3-0.8,2.8-0.7,4.8
		c3.9-4.5,7.5-8.6,11.1-12.7c0.4,0.3,0.7,0.6,1.1,0.9c-3.3,3.9-6.4,7.9-9.9,11.6c-1.8,2-2.8,4-2.4,6.6c0.5,0.9,0.3,1.8-0.1,2.7
		c0,0,0,0,0,0c-0.6,0.6-1.3,1.3-1.9,1.9C259.1,154,259,147,259,140.1z"/>
	<path class="st25" d="M221,154.9c0-2.2,1.8-2.5,3.3-3.1c6.9-3.1,13.8-6.3,20.7-9.4c0.9-0.4,1.9-1.6,3.1-0.3
		C239.5,147.3,230.1,150.8,221,154.9z"/>
	<path class="st26" d="M189.9,168c5.4-3.1,10.4-7.1,17.1-7c-4.2,2-8.4,4.1-12.7,6.1c-1.4,0.7-3.1,1-3.8,2.7
		c-0.6-0.1-1.1-0.2-1.7-0.2C189.2,169.1,189.6,168.6,189.9,168z"/>
	<path class="st15" d="M260.9,206.9c0-1.1,0.1-2.1,0.1-3.2c4.2-3.1,6.7-7.7,10.4-11.2c0.4-0.4,0.9-2,1.6-0.2
		c0.1,0.4-0.2,0.9-0.3,1.4C268.7,198.2,264.8,202.6,260.9,206.9z"/>
	<path class="st27" d="M272.8,197.6c-2.9,3.7-4.5,8.4-8.7,11.1C266.5,204.5,268.6,200.2,272.8,197.6z"/>
	<path class="st28" d="M209,159.9c1.5-3.6,5.4-3.3,8.2-4.9C215.8,158.8,212.2,158.9,209,159.9z"/>
	<path class="st29" d="M118,14.9c2.7,2.2,6-0.3,8.8,1c0.7-0.3,1-1.5,2.1-0.8c2.5,1.6,5.3,0.4,7.9,0.8c1.4-0.8,2.8-0.4,4.2,0
		c2.2,0,4.5,0,6.7,0c0.5-0.2,0.7-0.8,1.2-0.9c1.3,0.4,2.4,1.3,3.8,0.9c0.4-0.4,0.8-0.4,1.3,0c4.6-0.3,9.1-0.8,13.7,0
		c0.5-0.2,0.7-0.8,1.2-0.9c4.3,2.2,8.9,0.7,13.3,0.8c5.5,0.1,11,0.2,16.5,0.2c0.5-0.2,0.7-0.8,1.2-1c2.4,1.9,5.4,0.5,8,1.3
		c0.2,0.7,0,1.2-0.6,1.6c-0.6,0.3-1.2,0.5-1.9,0.6c-27.4,0.3-54.8,0.8-82.2-0.1c-20.1-0.7-40.1-0.1-60.2-0.7c-0.8,0-1.1-0.4-0.9-1.2
		c2-0.6,3.9-1.3,5.9-1.9c1.5,0.1,2.9,0.6,4.1,1.5c1.2,0,2.5,0,3.7,0c0.7-0.3,1-1.5,2.1-0.8c3.1,1,6.1,0.7,9.2-0.1
		c0.3-0.4,0.6-0.4,0.9,0c2.4,1.7,5.4-0.6,7.8,0.9c0.7-0.3,1-1.5,2.1-0.8c4.5,1.7,9.1,0,13.7,0.6c1.5,0.2,3.4,0.5,5.1,0.2
		C117.4,15.7,117.5,15.1,118,14.9z"/>
	<path class="st30" d="M261.8,15.2c2.9,1.6,6,0.3,8.9,0.7c0.8-0.4,1.5-0.3,2.3,0.2c-0.1,0.6-0.1,1.3-0.2,1.9
		c-0.8,0.5-1.6,0.4-2.5,0.4c-1.5-0.1-2.9,0.3-4.4,0.3c-1.7-0.3-3.3-0.4-4.9,0.3c-1.1,0.4-2.2,0.8-3.4,0.4c-0.9-0.5-1.8-0.9-2.9-0.8
		c-8.4,0.2-16.9,0.2-25.3,0c-5.5-0.1-10.9,0.4-16.2,1.4c-2-0.7-3.6-1.6-2.1-4c2.9,0,5.7,0,8.6,0c0.8-0.5,1.6-0.3,2.4,0
		c2.5,0,5.1,0.1,7.6,0.1c0.5-0.2,0.7-0.8,1.2-1c3,1,6,0.8,9,0.1c0.3-0.4,0.7-0.4,1,0c2.7,1.8,5.8-0.1,8.7,0.6
		c0.6,0.2,0.3-1.1,0.4-1.6l-0.1,0.1c2.9,2.6,6.5,1.4,9.9,1.8C260.4,15.7,260.8,14.5,261.8,15.2z"/>
	<path class="st31" d="M257.9,18.9c1-0.3,1.9-0.6,2.9-0.9c1,0.9,1.1,2,0.9,3.3c-0.2,6.6-2.2,13.1-1,19.7c0.2,0.2,0.2,0.5,0.2,0.8
		c0.6,0.8,0.5,1.6,0,2.4c0.1,1.1,0.1,2.3,0.2,3.5c2.4-1,2.8-3.9,5.2-4.6l0-0.1c0,3.6-3.3,4.8-5,7.2c-0.9,0.4-1.7,0.5-2.6,0.1
		c-2.4-4.5-1.4-9.3-1.4-14c-0.1-5.2,0.1-10.5-0.1-15.8C257.3,19.9,257.5,19.4,257.9,18.9z"/>
	<path class="st32" d="M62.2,16.3c0.1,0.3,0.1,0.6-0.1,0.9c0.3,0.2,0.4,0.4,0.4,0.6c-0.1,0.2-0.2,0.3-0.3,0.3
		c-5.2,3.5-10.4,7-16,10.7c0-3.7,4.1-3.3,4.9-5.8C55.4,21.8,57.8,17.5,62.2,16.3z"/>
	<path class="st31" d="M222.1,15.8c-0.8,0-1.6,0-2.4,0c-2.2-4.4-6.7-7.1-8-12.4C215.2,7.6,218.7,11.7,222.1,15.8z"/>
	<path class="st33" d="M88.1,15.1l-0.4,0.1c0,0-0.4-0.1-0.4-0.1c-3.3-3.2-7.2-5.8-8.9-10.3C81.5,8.3,86.1,10.4,88.1,15.1z"/>
	<path class="st31" d="M78,15.2c-0.7,0.3-1.4,0.5-2.1,0.8c-0.2-3.1-2.9-4.1-4.7-6c-1.4-1.5-2.6-3-3.4-5C71.6,8,75.6,10.8,78,15.2z"
		/>
	<path class="st34" d="M272.9,16.1c-0.8-0.1-1.5-0.1-2.3-0.2c-3-3.9-6-7.7-8.9-11.6c0.3-0.3,0.6-0.6,1-0.8
		C266.1,7.6,269.5,11.9,272.9,16.1z"/>
	<path class="st15" d="M200,14.9c-0.1,0.7-0.5,1-1.2,1c-1.7-4.8-6.7-7.2-8.3-12C194.1,7.2,197.7,10.4,200,14.9z"/>
	<path class="st15" d="M210.1,15.1c-3.6-2.8-7.1-5.7-9-10c3.4,3.2,7.6,5.6,9.7,10.1C210.5,15.6,210.3,15.5,210.1,15.1z"/>
	<path class="st35" d="M118,14.9c-0.1,0.7-0.5,1-1.2,1c-1.9-4.6-6.7-7.2-8.3-12.2C111.9,7.4,115.8,10.4,118,14.9z"/>
	<path class="st35" d="M261.8,15.2c-0.7,0.2-1.3,0.5-2,0.7c-1.5-4.7-6-7.2-7.9-11.7C255.8,7.3,259.1,11,261.8,15.2z"/>
	<path class="st34" d="M149,15c-0.1,0.7-0.5,1-1.2,0.9c-0.5-3.4-3.8-4.4-5.6-6.7c-1-1.3-2.2-2.6-2.8-4.3
		C142.9,8.1,147.2,10.4,149,15z"/>
	<path class="st34" d="M128.9,15.2c-0.7,0.3-1.4,0.5-2.1,0.8c0-3.4-3.3-4.2-5-6.3c-1.1-1.4-2.3-2.7-3-4.4
		C122.6,8.2,126.6,10.8,128.9,15.2z"/>
	<path class="st15" d="M169,15c-0.1,0.7-0.5,0.9-1.2,0.9c-1.4-4.4-6.5-6.4-7.4-11.2C163.6,7.8,167.1,10.8,169,15z"/>
	<path class="st22" d="M230.9,15c0,0.8-0.5,1.1-1.2,1c-1.5-4.7-6.5-7-7.9-11.9C225.1,7.5,229,10.4,230.9,15z"/>
	<path class="st36" d="M98,15.1c-0.7,0.3-1.4,0.5-2.1,0.8c-1.2-4.5-5.9-6.7-7.3-11.1C92.3,7.7,95.2,11.4,98,15.1z"/>
	<path class="st31" d="M240.9,15.1c-0.3,0-0.7,0-1,0c-3-3.1-6.1-6.1-8-10.3C235.2,8,238.8,10.9,240.9,15.1z"/>
	<path class="st37" d="M260.8,41c-1.5-6.6-1.4-13.2,0-19.8c0.9,0.6,1.1,1.5,1.3,2.5c0.1,0.7,0.1,1.4,0.1,2.1c-0.1,1.5,0,3.1-0.2,4.7
		c0,0.2,0,0.4-0.1,0.7C260.1,34.2,261.5,37.7,260.8,41z"/>
	<path class="st33" d="M261,44.2c0-0.8,0-1.6,0-2.4c2.4-2.6,4.8-5.2,7.2-7.9C266.8,38.2,263.9,41.2,261,44.2z"/>
	<path class="st22" d="M250,14.1c-4-2.2-5.2-6.7-7.8-10.1c3.3,2.8,6.6,5.6,7.7,10.1C249.9,14.2,250,14.1,250,14.1z"/>
	<path class="st33" d="M272.6,22.7c-0.6,3.8-3.9,5.4-6,8C267.5,27.2,270.1,25,272.6,22.7z"/>
	<path class="st33" d="M266.4,43.1C266.4,43.1,266.4,43.1,266.4,43.1c0.4-4.1,4.2-6,6.4-8.9C272.6,38.5,269,40.4,266.4,43.1z"/>
	<path class="st24" d="M141.1,16c-1.4,0-2.8,0-4.2,0c0.5-3.1-2.6-3.9-3.9-5.8c-0.4-0.5-0.4-1,0.1-1.4C136.8,10,137.9,14.2,141.1,16z
		"/>
	<path class="st38" d="M210.1,15.1c0.2,0.2,0.4,0.2,0.7,0.1c0.2,0.2,0.3,0.4,0.3,0.6c-0.1,1.4,0,2.7,1.6,3.2
		c1.1,1.9,0.4,3.2-1.3,4.3c-0.8-0.2-1.2-0.7-1.6-1.3c-0.7-1.6-2.8-2.7-1.8-4.9c0-0.3,0-0.6,0-0.9C208.7,15.9,209.7,16.1,210.1,15.1z
		"/>
	<path class="st39" d="M72.2,15.9c-1.6,0-3.7,1.6-4.1-1.5c0.4-1-0.4-3,1.1-2.8C71.3,11.8,72.1,13.7,72.2,15.9z"/>
	<path class="st40" d="M106.3,12.5c-3.5-1.5-5.7-4.1-6.6-7.8C101.9,7.2,104.1,9.9,106.3,12.5z"/>
	<path class="st24" d="M270.8,17.2c0.6,0.3,1.3,0.5,1.9,0.8c-1.9,2.5-3.8,5-5.6,7.4c-0.4-0.3-0.7-0.6-0.9-1.1
		C265.9,20.7,268.8,19.2,270.8,17.2z"/>
	<path class="st27" d="M150.4,4.8c1.8,2,3.7,3.9,6.3,6.7c-4.1-1.1-5.1-4.1-7.3-5.7C149.7,5.5,150.1,5.2,150.4,4.8z"/>
	<path class="st41" d="M204.7,13.7c-4,0-3.7-4.1-6-5.8C202.4,8,202.1,12.4,204.7,13.7z"/>
	<path class="st9" d="M133.1,8.7c0,0.5-0.1,0.9-0.1,1.4c-2-1.2-3.4-2.8-3.8-5.2C131.1,5.6,132.3,6.9,133.1,8.7z"/>
	<path class="st42" d="M174.8,9.9c-1.6-1.8-3.1-3.6-4.7-5.3c0.3-0.3,0.6-0.6,0.9-0.9C172.8,5.1,174.4,6.9,174.8,9.9z"/>
	<path class="st43" d="M88.6,10.6c-1-0.6-1.7-0.7-1.8-1.1c-0.7-1.8-3.8-1.7-3.3-4.4c0-0.2,0.7-0.5,0.8-0.5
		C85.6,6.4,87.9,7.5,88.6,10.6z"/>
	<path class="st44" d="M262.8,10.1c-1.7-0.5-3.6-0.8-3.8-2.9c0-0.2,0.4-0.7,0.5-0.7C261.7,6.7,261.9,8.7,262.8,10.1z"/>
	<path class="st45" d="M266.8,23.7c0.1,0.6,0.2,1.1,0.3,1.7c-1.3,2.3-2.6,4.6-5.2,5.7c0,0,0.1,0.1,0.1,0.1
		C261.1,27.1,263.9,25.4,266.8,23.7z"/>
	<path class="st22" d="M182.3,6.3c1.8,1.6,4,2.8,5.1,6.6C184.7,10.5,182.8,8.9,182.3,6.3z"/>
	<path class="st44" d="M124.3,5c1.6,0.6,3.5,1,3.8,3.6C125.8,8.2,124.6,7.2,124.3,5z"/>
	<path class="st46" d="M154.1,16c-0.4,0-0.8,0-1.3,0c-0.1-1.7-2.5-2.4-2.2-4.8C153,12.2,154,13.7,154.1,16z"/>
	<path class="st47" d="M61.1,51.1c-1.3,0.8-2.7,1.6-4,2.4c-6.4,5-13.3,9.1-20.1,13.5l0,0c-4.1,3-8.4,5.7-12.6,8.5
		C20,78,16,80.9,12,84c-1.6,0.9-3.1,1.9-4.7,2.8c-2.7-1-3.5,3.1-6.2,2.2c-0.5-2.5,2.3-2.4,3-3.9c1.3-2.3,3.3-3.7,5.6-4.8
		c3.1-1,4.3-4.3,6.9-5.9c1.1-0.6,2.3-1.1,3.6-1.5c1.2-0.4,2.3-0.8,3.3-1.6c0.7-0.5,1.4-1,2.1-1.4c1.3-0.8,2.5-1.7,3.8-2.5
		c0.8-0.4,1.6-0.7,2.4-1.2c1.7-1.1,3.3-2.4,5.2-3.2c2.2-0.9,4.3-1.8,5.3-4.1c1.4-0.6,2.4-1.6,3.3-2.8c3.5-2,6.3-5.1,10-6.7
		c1.5-0.9,2.3-2.6,4.1-3C63.4,47.4,63.6,48.2,61.1,51.1z"/>
	<path class="st48" d="M98,35.1c0.2-0.2,0.6-0.6,0.7-0.6c6.1,4.1,10.2,0.2,14.3-3.6c1.4-1.3,3.1-1.9,4.9-0.6c1,2.4,1.9,4.8,5.4,2.9
		c1.1-0.6,2.6-0.4,3.9,0.2c0.7,0.4,1.1,0.9,1,1.7c-1.1,1.6-2.6,2.3-4.6,2.1c1.9-0.1,3.7-0.5,5.6-0.4c2.3,0.2,4.5-0.6,6.7-0.6
		c1.3,0.1,2.6,0.5,4,0.5c4.6,0.4,9.3-1.1,13.8,1.1c0.9,2.2-1,2.5-2.2,3.2c-16.3-0.8-32.7-0.4-49-0.4c-0.6,0.1-1.1,0.2-1.7,0.1
		c-2.2-0.6-3-2.2-3.4-4.2C97.5,36,97.7,35.5,98,35.1z"/>
	<path class="st49" d="M62.2,18.1c0.1-0.3,0.1-0.6-0.1-0.9c48.2,0,96.4,0,144.7,0c0.2,2.2-1.2,2.4-2.9,2.4c-20.1,0.1-40.3,0-60.4,0
		c-1.7,0-3.3-0.3-4.9,0.4c-1.2,0.4-2.5,0.4-3.7,0.5c-5.2-0.3-10.6,1.4-15.7-1.3c-1.2-1.7-3-1.1-4.6-1.1C97,18.1,79.6,18.1,62.2,18.1
		z"/>
	<path class="st50" d="M119,19.2c5.3,0,10.6,0,15.9,0c1.6,1.7,2.2,3.6,1.7,5.9c-0.9,2-1.8,3.9-4.5,3.4c-1.7-2.7-4-3.8-7.1-2.7
		c-3.8,1.2-6.5-0.5-8.8-3.3c-1.1-0.3-2.3-0.5-3.1-1.4C114.6,18.7,117.7,21.5,119,19.2z"/>
	<path class="st51" d="M116.3,20.9c0.5,0.1,1.3,0,1.4,0.2c1,4.1,4.2,4,7.4,4.1c1,2.7,0.4,5.7,2.2,8.1c0,0.5-0.2,0.8-0.7,0.8
		c-1.1,0.1-2.4,0-3.4,0.3c-5.8,2.1-5.8,2.1-5.2-4.1c0.9-0.1,1.8-0.6,1.7-1.4c-0.2-1.2-1.3-1.8-2.6-1.7
		C115.9,25.1,115.7,23,116.3,20.9z"/>
	<path class="st52" d="M56.2,50.3c-3.9,1.3-5.8,6-10.5,5.8c0.1-3-0.2-6,1.2-8.8c2.4-1.5,5.1-0.4,7.6-0.7
		C58.4,46.3,57.7,48.2,56.2,50.3z"/>
	<path class="st53" d="M57.3,44.1c-0.2-0.3-0.2-0.6-0.1-0.9c0.4-0.4,0.8-0.7,1.2-0.9c0.5-0.2,1-0.3,1.5-0.4
		c4.8-0.3,9.6,0.1,14.3-0.2c0.3-0.1,0.6-0.3,0.7-0.6c-0.2-0.3-0.5-0.5-0.9-0.5c-4.9-0.4-9.8,0.5-14.7-0.5c-0.7-0.4-1.4-0.8-1.2-1.8
		c4.3-0.2,8.5-0.1,12.7-1.2c2.5-0.8,5-0.3,7.6-0.3c1.8,3.1,1.4,6.5,1.4,9.8c-1,0.5-1.9,0.4-2.9,0.1c-0.5-0.2-0.9-0.4-1.4-0.7
		c-5.6-1.1-11.3,0.3-16.9-0.8C58.2,44.8,57.7,44.5,57.3,44.1z"/>
	<path class="st54" d="M79,38c-2.5-1.8-5.5-0.4-8.2-1c8.9-2.3,18.1-1.4,27.2-1.9c0,0.3,0,0.6,0,0.9c-0.4,0.6-0.9,1.1-1.5,1.5
		c-0.9,0.7-2,1.7-3,1.4c-3.7-1.3-7.2,0.6-10.8,0.6C81.3,39.5,79.8,39.7,79,38z"/>
	<path class="st55" d="M76.9,40c0,0.4,0,0.8,0,1.2c-3.8,1.7-7.7,0.5-11.6,0.9c-2.4,0.2-4.9-0.7-7.2,0.9c-0.3,0.1-0.6,0.2-0.9,0.2
		c0-1.7-1.1-3.6,0.9-4.9c0.4,0.3,0.7,0.7,1.1,1C65.1,40.3,71.1,38.9,76.9,40z"/>
	<path class="st56" d="M16,48.9c3.5-3.3,7.3-6.1,11.8-8.1c0.6-0.2,0.8,0,0.6,0.6c-3.8,3.3-7.9,6.2-12.2,8.8
		C15.7,49.8,15.6,49.3,16,48.9z"/>
	<path class="st57" d="M57.3,44.1c0.2,0.1,0.4,0,0.7,0c0.5,0.4,1.2,0.6,1.5,1.3c0.2,0.7,0.1,1.3-0.4,1.9c-0.9,1.1-1.3,2.7-2.9,3.1
		c0.9-2.4,0.1-3.3-2.5-3.1c-2.3,0.2-4.6,0-6.8,0c-0.3-2.8,1.8-1,2.8-1.4C52.2,44.9,55.5,47.7,57.3,44.1z"/>
	<path class="st58" d="M116.3,20.9c1.1,2,1,4.1,0.7,6.2c-0.8,0.6-2.6,1.8-2.1,0.1c0.9-2.8-1-4.2-1.7-6.1
		C114.3,21,115.3,20.9,116.3,20.9z"/>
	<path class="st56" d="M39.6,33.3c-3.4,3.2-7.3,5.6-11.2,8.1c-0.2-0.2-0.4-0.4-0.6-0.6c2.8-3.5,6.5-5.6,10.3-7.7
		C38.6,32.7,39.1,32.7,39.6,33.3z"/>
	<path class="st59" d="M16,48.9c0,0.4,0.1,0.9,0.1,1.3c-2.6,1.9-5.2,3.8-7.8,5.7c-0.3-0.3-0.5-0.6-0.8-0.9
		C10,52.4,12.8,50.4,16,48.9z"/>
	<path class="st60" d="M39.6,33.3c-0.5-0.1-1-0.1-1.5-0.2c1.2-1.8,2.9-2.8,5.5-3.1C42.8,32.2,41.3,32.9,39.6,33.3z"/>
	<path class="st31" d="M259.1,50.1c0.7,0.1,1.5,0.1,2.2,0.2c-0.8,5.2-0.2,10.4-0.3,15.7c0,0.2-0.1,0.5-0.1,0.7
		c-1,3.1-0.5,6.2-0.1,9.3c0,0.7,0.1,1.5,0.1,2.2c0.6,0.7,0.6,1.4,0.1,2.1c0,1.2,0,2.4,0,3.5c0.5,0.8,0.4,1.5-0.1,2.2
		c0,1.1,0,2.3,0,3.4c2.6,0.1,2.7-3.5,5.8-3.1c-2,2.3-3.8,4.3-5.4,6.5c-0.4,0.6-0.9,2,0.4,2.4c0.4,0.1,1.2-0.9,1.9-1.4
		c0.6-0.2,0.8,0,0.6,0.6c-3.6,3.6-3.5,8.1-2.8,13.4c3.8-4.4,7.4-8.4,10.9-12.4c0.3,0.3,0.6,0.6,1,0.8c-3.2,3.8-6.2,7.8-9.6,11.4
		c-2,2.1-3,4.2-2.6,7.1c0.6,0.8,0.5,1.7-0.1,2.5c0.1,0.8,0.1,1.6,0.2,3.1c3.9-4.6,7.5-8.7,11-12.8c0.3,0.3,0.7,0.6,1,0.8
		c-3.7,4.8-7.5,9.6-12.1,13.8c-1.4-0.1-2.5-0.6-3.1-2c-0.8-2.1-0.7-4.2-0.7-6.4c0-18.8,0-37.5,0-56.3
		C257.3,54.9,256.8,52.1,259.1,50.1z"/>
	<path class="st13" d="M258.9,121c0.9,0.1,2-0.2,2.2,1.1c-0.7,1.6-1.1,3.1,1.6,2.7c0.5-0.4,0.9-0.4,1.4,0c1.2,0,2.5,0,3.7,0
		c0.2,3-2.7,1.8-3.9,3c-1.7,0.6-2,3-3.9,3.4c-1.6-1.1-1.2-2.8-1.4-4.3c-0.2-1,0.3-2.4-1.5-2.4c-1.1,0.3-2.2,0.6-3.4,0.4
		c-2-0.9-5.9,0.5-4.8-4.1C252.3,119.1,255.6,118.9,258.9,121z"/>
	<path class="st61" d="M264,127.8c-0.1-2.8,3.3-1.1,3.9-3c1.8-1.7,3.9-0.7,4.6,0.6c1.2,2.2-1.3,3.2-2.6,4.4
		C268.4,127.8,266,128.3,264,127.8z"/>
	<path class="st31" d="M261,65.9c3.7-4.2,7.5-8.3,11.2-12.5c-2.5,5.9-6.9,10.3-11.1,14.9c-0.9-0.5-0.8-1.3-0.4-2
		C260.8,66.2,261,65.9,261,65.9z"/>
	<path class="st36" d="M260.9,86c0-0.7,0.1-1.5,0.1-2.2c3.8-4.2,7.5-8.4,11.3-12.6C269.4,76.9,265.5,81.7,260.9,86z"/>
	<path class="st31" d="M273.2,47.9c-3.5,4.1-7,8.2-10.5,12.3c2.1-5.3,5.7-9.3,9.6-13.2C272.6,47.3,272.9,47.6,273.2,47.9z"/>
	<path class="st62" d="M261.9,73.1c2.6-5.3,6.2-9.8,10.7-13.7C268.9,63.8,267.2,69.8,261.9,73.1L261.9,73.1z"/>
	<path class="st22" d="M261.9,145.2c0-0.4,0-0.9,0-1.3c3.6-3.9,6.4-8.4,10.7-11.6C269.7,137.1,266.4,141.7,261.9,145.2z"/>
	<path class="st40" d="M264.1,124.8c-0.5,0-0.9,0-1.4,0c3.1-4,6.2-7.9,9.4-11.9C270.9,118,266.9,121,264.1,124.8z"/>
	<path class="st34" d="M261,117.2c0-0.8,0-1.7,0.1-2.5c3.2-2.2,4.2-6.5,8.5-9.4C267.2,110.6,264,113.8,261,117.2z"/>
	<path class="st36" d="M265.5,73.7c2.2-2.8,4.4-5.5,6.6-8.3c-0.5,4.1-3.4,6.3-5.9,8.9C265.7,74.4,265.5,74.2,265.5,73.7z"/>
	<path class="st22" d="M273.1,151c-2.6,2.1-4,5.6-7.2,7c0.9-3.7,4.2-5.6,6.4-8.3C272.5,149.3,273.1,150.4,273.1,151z"/>
	<path class="st36" d="M272.6,77c-0.9,3.4-3.6,5.3-5.9,7.6C267.3,81.1,270.3,79.4,272.6,77z"/>
	<path class="st63" d="M261,159.1c0-0.9,0.1-1.8,0.1-2.6c2.3-1.4,3-4.6,5.8-5.4l-0.1-0.1C266.2,154.6,263.2,156.6,261,159.1z"/>
	<path class="st36" d="M266.9,151c-0.1-4,3.3-5.4,5.7-7.6C271.4,146.6,269.2,148.8,266.9,151C266.9,151,266.9,151,266.9,151z"/>
	<path class="st52" d="M272.6,89.4c-0.9,2.8-3.1,4.6-5.3,6.3C268.2,93,270.2,91.1,272.6,89.4z"/>
	<path class="st64" d="M260.8,66.2c0.1,0.7,0.3,1.4,0.4,2c-0.2,1.7-1.2,3.5,0.8,4.8c0,0-0.1-0.1-0.1-0.1c-0.4,1-0.7,2-1.1,2.9
		C259.5,72.7,259.4,69.5,260.8,66.2z"/>
	<path class="st42" d="M261,80.2c0-0.7-0.1-1.4-0.1-2.1c1.6-1.5,3.1-2.9,4.7-4.4c0.2,0.2,0.4,0.4,0.7,0.6
		C264.9,76.7,263.2,78.6,261,80.2z"/>
	<path class="st65" d="M263.5,93.8c1.3-2.2,2.9-4.1,5.3-5.4c-1,2.4-2.7,4.3-4.6,6C264,94.2,263.8,93.9,263.5,93.8z"/>
	<path class="st40" d="M261,171.2c0-0.9,0-1.7,0-2.6c4.6-3.8,6.6-9.8,11.7-13.2C269.3,161.1,265.5,166.4,261,171.2z"/>
	<path class="st35" d="M261,201.1c0-0.8,0-1.6,0-2.5c3.7-4.2,7.5-8.4,11.2-12.6C269.5,191.9,265.1,196.4,261,201.1z"/>
	<path class="st42" d="M261.6,174c3.5-4.2,7-8.4,10.6-12.5c0.4,0.3,0.7,0.6,1.1,1c-3.5,4.2-7.1,8.3-10.6,12.5
		C262.3,174.6,262,174.3,261.6,174z"/>
	<path class="st66" d="M260.9,182c0-0.5,0.1-0.9,0.1-1.4c3.9-2.9,5.3-8,9.7-10.4C267.5,174.2,266.3,179.7,260.9,182z"/>
	<path class="st27" d="M273.1,174.9c-3.5,4-6.9,8.1-10.4,12.1c2.1-5.2,5.9-9.1,9.5-13C272.5,174.3,272.8,174.6,273.1,174.9z"/>
	<path class="st35" d="M265.1,188c2.4-2.9,4.7-5.9,7.1-8.8c-0.7,4.2-3.7,6.7-6.3,9.6C265.4,188.7,265.2,188.4,265.1,188z"/>
	<path class="st67" d="M265.1,188c0.3,0.3,0.5,0.6,0.8,0.8c-1.6,1.8-3.1,3.5-4.7,5.3c-1.8-1.6-1.7-3.3-0.3-5.1
		c0.1,0.8,0.2,1.6,0.3,2.4c0.6-0.4,1.3-0.7,1.9-1.2C263.8,189.5,264.4,188.7,265.1,188z"/>
	<path class="st51" d="M17.1,75.1c-2.6,1.7-3,6-7,6c-2,0.4-3.7,2.5-6,1c0-1.1,0.1-2.1,0.1-3.2c0-4,1.5-6.1,6-5.1
		C12.5,74.3,15.1,72.8,17.1,75.1z"/>
	<path class="st52" d="M30.2,68.1c-1.4,0.9-2.8,1.8-4.2,2.7c-3.1,0.4-6.3,0.5-9.4,0.7c-0.5,0-0.9-0.2-1.3-0.6c0-0.7,0.1-1.3,0.1-2
		c0.8-0.6,0.5-2.3,1.6-2.2C21.3,66.9,26,65.2,30.2,68.1z"/>
	<path class="st68" d="M17.1,75.1c-2.2-0.2-4.5-0.1-6.7-0.6c-3.8-0.8-5.6,0.9-6.1,4.4C3.1,74,4.9,72,10,72.8
		c1.6,0.3,3.6,0.7,5.2-0.6c2.2-0.4,4.7-1.6,5.8,1.8C19.7,74.4,18.4,74.7,17.1,75.1z"/>
	<path class="st69" d="M30.2,68.1c-3.6-1.6-7.4-0.8-11.1-1.2c-2.2-0.3-2.3,2-3.8,2.1c-0.6-2.1,0-3,2.3-2.9c4.4,0.1,8.9-0.1,13.3-0.2
		c1.1-0.3,1.3,0.2,1.1,1.1C31.4,67.4,30.8,67.7,30.2,68.1z"/>
	<path class="st70" d="M21,74c-1.5-2.1-4.3,0.1-5.8-1.8c0-0.4,0-0.8,0-1.3c0.4,0,0.7,0,1.1,0c2.7-0.1,5.7-1.7,7.9,1.3
		C23.3,73.2,22.3,73.9,21,74z"/>
	<path class="st45" d="M32.1,67c-0.1-0.7-0.5-1-1.1-1.1c2-1.3,4-2.7,6-4c0,0.4,0.1,0.7,0.1,1.1C36,65.1,33.8,65.8,32.1,67z"/>
	<path class="st71" d="M4.2,82.1c2-0.3,4-0.7,6-1c-1.8,1.7-3.7,3.2-6,4.1c0-0.4,0-0.8,0-1.1C4.1,83.3,4.1,82.7,4.2,82.1z"/>
	<path class="st72" d="M59.2,47.2c-0.1-0.6-0.1-1.3-0.2-1.9c6-1.4,12-0.8,18-0.3c0.1,0.3,0.1,0.6,0.1,0.9c-2.8,2.7-6.3,1-9.5,1.8
		c5.2-0.3,10.5,0.9,15.7-0.8c1-0.3,1.9-0.1,2.7,0.2c1.2,0.6,2.5,0.8,3.9,0.8c0.7,0,1.3,0,2,0c1.3,0,2.5-0.2,3.3-1.4
		c0.3-0.3,0.6-0.6,1-0.9c0.8-0.4,1.7-0.4,2.5-0.1c0.4,0.2,0.7,0.5,0.9,0.8c0.4,0.9,0.7,1.8,1.8,1.9c3,0.5,5.4-1.1,8-2.1
		c1.5-0.2,2.8,0.2,3.9,1.4c0.4,0.6,0.6,1.2,0.6,1.9c0,1.8-1.5,1.7-2.7,2c-1-0.6-2.1-0.4-3.2-0.2c-8.9,0.6-17.9,0.6-26.8,0
		c-0.4,0-0.8,0-1.2,0c-5.6,0.5-11.2,0.6-16.8,0c-0.7,0-1.4-0.1-2.1-0.1C62.1,48.9,63.1,46.9,59.2,47.2z"/>
	<path class="st53" d="M102,131.9c0-6.3,0-12.5,0-18.8c-0.6-0.7-0.5-1.3,0.1-1.9c3.3,0,6.6-0.1,9.9-0.1c6.8,0,7.6,1.2,5.1,8.1
		c-0.7,0.8-1.4,1.7-2.6,1.8c-2.1,0.1-4.2,0.2-6.3-0.1c-3-2.6-0.9-3.3,1.4-4c1.8-0.6,5.6,0.7,5.1-2c-0.5-2.7-4.2-1.2-6.5-1.3
		c-1.2-0.1-2.3,0.4-2.9,1.5c-0.7,2.2-2.4,4.6,1.3,5.8c0.7,0.2,1.4,0.2,2.2,0.2c2.1,0.1,4.2-0.2,6.4,0.2c1.9,2,2.9,3.7-1.1,4.2
		c-1.8,0-3.5-0.1-5.3-0.1c-1.4,0.2-3.1-0.6-4.1,1.1c-0.7,2.3,0.3,4.5,0,6.8c-0.3,0.7-0.8,1.2-1.7,1c-0.3-0.1-0.5-0.2-0.8-0.3
		C101.4,133.3,101.5,132.6,102,131.9z"/>
	<path class="st1" d="M153,129.1c1.2,2.1,1.5,4.4,0.9,6.7c-0.2,0.2-0.4,0.5-0.6,0.7c-4,0.9-8,2.1-11.7-1c0-3-0.5-6.2,2.6-8.2
		C147.3,127,150.8,124.9,153,129.1z"/>
	<path class="st73" d="M152,121.3c-1.2,1.2-1.7,2.4-0.2,3.7c1.2,1.6,0.3,2.3-1.2,2.5c-1.9,0.2-3.9,0.1-5.8,0c-1-0.1-1.4-0.8-1.5-1.7
		c-0.2-1.6,0.4-3.1,0.7-4.7c0.2-1,0.6-2,0.9-3c0.7-1.6,1.2-3.8,3.6-3.4c1.8,0.3,2.3,2.2,3,3.7C151.8,119.3,151.4,120.4,152,121.3z"
		/>
	<path class="st74" d="M152.8,79.2c-1.1-0.9-2.3-1.7-2.5-3.3c0.7-0.7,1.2-1.5,1.3-2.5c0.3-1.3,0.8-2.4,2.3-2.8
		c0.9-0.1,1.7,0.3,2.4,0.9c0.5,0.4,0.9,1,1.1,1.6c-1.6,1.6,0.2,1.3,0.9,1.6c0.9,0.6,1.7,1.3,2.1,2.3c0.1,1.5,0.7,2.8,1.7,3.8
		c0.5,0.9,0.5,1.7-0.2,2.5c-1.4,0.9-2.7,0.5-4.1,0C155.1,83.1,155.2,79.6,152.8,79.2z"/>
	<path class="st75" d="M135.9,60.3c-6.3-2.4-12-6.3-18.5-8.1c0.1-1.2,0.9-1.6,1.9-1.7c2.3,0.3,4.5,0.8,6.7,1.2
		c1.7,1.3,3.6,1.7,5.7,1.1c1.4,0.6,2.1,2,3.4,2.7c0.5,0.4,1,0.8,1.4,1.3c0.5,0.7,1,1.4,0.8,2.4C137,59.7,136.6,60.1,135.9,60.3z"/>
	<path class="st76" d="M153.9,71c-0.6,1.1-1.3,2.2-1.9,3.3c-2.8,0.4-3-4-6-3.3c-1.5-0.9-2.1-2.3-2.1-4c0.1-0.2,0.2-0.4,0.3-0.6
		c1.2-1.2,2-3,4.2-2.5c2.3,1.8,5.3,2.8,6.2,6C154.5,70.4,154.3,70.7,153.9,71z"/>
	<path class="st77" d="M151,112c2,1.8,3.7,3.7,2.1,6.7c-1.7,1.2-1.7-0.7-2.3-1.4c-0.9-1.1-1.1-3.1-3.1-2.7c-1.5,0.3-1.7,1.9-2.1,3.1
		c-0.3,0.7-0.2,1.7-1.5,1.3c-1.8-2-1.6-4.1,0-6.1c0.3-0.3,0.7-0.7,1-1C147.1,109,149.1,110.2,151,112z"/>
	<path class="st52" d="M115,120c0.7-0.3,1.4-0.6,2.1-0.9c0,1.9,0,3.8-0.1,5.8c0.7,0.7,1.8,0.3,2.5,1c1.2,1.5,2.4,2.9,2.3,5
		c-0.1,0.5-0.3,0.9-0.6,1.3c-1.8,1-3.1-0.2-4.4-1.2c-0.7-0.5-1.5-1-2.2-1.5c-1-0.6-1.9-1.2-2.2-2.5c-0.1-1.3,0.7-2.1,1.5-3
		c0.6,0.1,1.7,0.5,1.7,0.4c0.4-0.9,0.4-1.9-0.7-2.5C114.4,121.3,114.4,120.7,115,120z"/>
	<path class="st78" d="M37,67c6-5.4,13-9.6,20.1-13.5c-0.6,3.8-4.4,4-6.8,5.6C46,62,42.4,66.1,37,67z"/>
	<path class="st24" d="M120.1,51.3c-1-0.2-1.9,0.2-2.7,0.8c-2.1-0.3-4.3,0.6-6.2-0.8c-0.1-1.4,1.9-0.4,1.9-1.7
		c1.3-4.9,4.4-2.9,7.3-2C121.4,49,122.8,50.3,120.1,51.3z"/>
	<path class="st79" d="M165.9,112c-1.5-3.5-2.3-7.2-3-10.9c-0.3-0.8-0.7-1.7,0.3-2c1.4-0.5,1.7,1.1,2.5,1.7c0.3,0.3,0.6,0.7,0.9,1.1
		c0.9,1.4,1.4,2.9,1.5,4.5c0.1,0.6,0,1.3,0.1,1.9c0,0.4,0.1,0.8,0.1,1.3c0.1,0.6,0.2,1.3,0.1,1.9c-0.1,0.4-0.3,0.8-0.7,1
		C167,112.7,166.4,112.6,165.9,112z"/>
	<path class="st80" d="M81.1,51.2c8.9,0,17.9,0,26.8,0C99,52.6,90.1,52.6,81.1,51.2z"/>
	<path class="st81" d="M166.1,132.9c0-4.7,0-9.3,0-14c0.6-1.3,0.9-3,2.8-1.4c2,1.7,2.4,3.6,0.8,5.8c-0.3,0.4-0.6,0.8-0.9,1.2
		c-0.7,1.5-0.3,3.2-0.6,4.8C168,130.7,168.6,132.7,166.1,132.9z"/>
	<path class="st82" d="M170,136.1c-1,1.5-2.9,0.4-4,1.4c-0.2,0.6-0.6,1-1.2,1c-2.4-0.1-4.8,0-7.2-0.2c-1.5-0.1-3.4,0.1-3.5-2.3
		l-0.1-0.2c0.7,0,1.5-0.1,2.2-0.1c2.8-0.5,5.6-0.1,8.4-0.2c2.2,0.3,2.6-1.7,3.5-3c0.3-0.4,0.6-0.7,1-1c1-0.3,1.8-0.1,2.3,0.9
		C171.8,134.1,170.5,134.9,170,136.1z"/>
	<path class="st12" d="M12,84c2.9-4.5,7.7-6.5,12.1-8.9c0.5,0.5,0.5,1,0.1,1.5C20.1,79.1,16.6,82.5,12,84z"/>
	<path class="st83" d="M118.9,126c-0.8-0.1-1.6-0.1-1.9-1c4.3-2.3,8.7-4.5,13-6.8c0.7,0.3,1.3,0.7,1.2,1.5
		C127.8,123.1,124,125.8,118.9,126z"/>
	<path class="st37" d="M24.2,76.6c0-0.5,0-1-0.1-1.5c4.2-3,8-6.5,13-8.1C33.8,71.6,28.3,73.2,24.2,76.6z"/>
	<path class="st84" d="M131.1,119c-0.3-0.3-0.7-0.6-1-0.9c4.5-1.4,7.8-5.7,13.1-5.2c0.4,0.9-0.1,1.4-0.6,2
		C138.5,115.9,135.8,120.2,131.1,119z"/>
	<path class="st29" d="M144.7,118.9c0.3-2.1,0.2-4.6,3.1-5c2.6-0.3,3.3,1.8,3.9,3.7c0.2,0.7,0.5,1.2,1.4,1c-0.3,0.9-0.7,1.7-1,2.6
		c-0.5-0.8-1.1-1.6-1.4-2.5c-0.6-1.3-1-3.2-2.5-3.2c-1.5,0-2,1.9-2.4,3.3C145.4,119.3,145.1,119.3,144.7,118.9z"/>
	<path class="st85" d="M168,117.5c-1.6-0.7-0.9,1.5-1.9,1.4c-0.6-2.3-2-4.5-0.2-6.9c0.7,0,1.4,0,2.1,0c1.5,1,2.2,2.5,2.4,4.3
		C169.8,117.3,169.6,118.9,168,117.5z"/>
	<path class="st84" d="M164.9,102.1c-1.4-0.1-0.3-2.1-1.7-2.1c-0.1,0-0.3,0.8-0.4,1.2c-1.4-1.2-0.6-2.8-0.8-4.1
		c0.3-0.3,0.7-0.5,1.1-0.5c1.1,0.1,2-0.5,3-0.8c1,0,1.7,0.5,2.2,1.3c0.3,0.7,0.3,1.3,0,2C167.8,100.6,166,100.9,164.9,102.1z"/>
	<path class="st53" d="M152.8,79.2c0.3-1.4,0.8-3.1,2.1-0.7c0.8,1.5,0.5,3.7,3.1,3.6c0.3,1.1,0.4,2.2,0.7,3.3
		c-0.1,0.9-0.2,1.8-1.5,1.6C156.2,84.1,154.5,81.6,152.8,79.2z"/>
	<path class="st86" d="M63.1,51.2c5.6,0,11.2,0,16.8,0C74.3,52.6,68.7,52.6,63.1,51.2z"/>
	<path class="st59" d="M144.7,118.9c0.3,0,0.7,0,1,0c-0.2,0.7-0.5,1.4-0.7,2.1c-4.1-0.5-4.8-2-3-7c0.4-0.4,0.8-0.8,1.1-1.1
		c0.3,0,0.6,0,0.9,0.1C144.3,114.9,143.2,117.1,144.7,118.9z"/>
	<path class="st87" d="M168.9,132.8c-0.5,1.5-1.6,2.5-3,3c-0.3-0.2-0.4-0.3-0.3-0.5c0.1-0.2,0.2-0.3,0.3-0.3
		c0.1-0.7,0.2-1.5,0.2-2.2c2.5-2.9-0.8-7,2-9.8C170.4,126.2,168.9,129.6,168.9,132.8z"/>
	<path class="st88" d="M102.1,111.2c0,0.6-0.1,1.3-0.1,1.9c-3.5,0.4-5.7,3.5-8.9,4.4C94.6,113.3,98.9,113,102.1,111.2z"/>
	<path class="st89" d="M144.3,126.8c2.5-0.7,5.8,2.2,7.5-1.8c1.2,1.1,3.4,2,1.2,4.1c-2.7-2-5.9-0.5-8.8-0.9c-1,0.4-2.2,0.5-2.1-0.7
		C142.1,126.4,143.4,126.4,144.3,126.8z"/>
	<path class="st90" d="M146.1,71c0.9-1.5,2-1.6,2.8-0.1c0.8,1.4,1.7,2.7,3.1,3.4c0.4,1.6-0.6,1.7-1.8,1.5
		C149.4,73.7,147.8,72.3,146.1,71z"/>
	<path class="st91" d="M162.9,97l-0.4,0.1l-0.4,0c-1-2.3-2.1-4.6-3.1-6.9c0.2-2.5,1.6-0.9,2.6-0.8c0.7,0.5,1.1,1.1,1.4,1.8
		C163.1,93.1,164.4,95,162.9,97z"/>
	<path class="st92" d="M151,112c-2,0-3.9-2.4-5.9-0.1c-0.3-2.3,1.4-2.9,3.1-2.9C149.8,109.1,151.6,109.6,151,112z"/>
	<path class="st93" d="M143.9,67c-2.3-0.4-3.8-1.9-5-3.8c-0.5-0.7-0.6-1.4-0.1-2.1c3.2,0.5,5.7,1.7,5,5.7L143.9,67z"/>
	<path class="st94" d="M160.9,90.1c-0.7,0-1.3-1.1-2,0c-1.2-0.7-1.3-2.1-1.8-3.2c0.9-0.4,1-1.2,1-2C162,85,162.1,87.2,160.9,90.1z"
		/>
	<path class="st95" d="M165.8,135.1c0.1,0.3,0.1,0.5,0,0.8c-3.2-0.1-6.5-0.1-9.7-0.2C159.3,134.3,162.6,135.3,165.8,135.1z"/>
	<path class="st96" d="M139,61.2c0,0.7,0,1.3,0,2c-1-1-2.9-1-3.1-2.9c0.3-0.4,0.7-0.8,1-1.2C138,59.5,138.7,60.1,139,61.2z"/>
	<path class="st0" d="M75,165.9c-3.5,2-7.8,3.9-11.5,6.5c-3.1,2.1-8.8,3.3-11.4,1.2c-1.4-1.1-1.4-2.6,0.4-3.5
		c1.2-0.6,2.5-0.8,3.8-1.1c1.8-0.4,4.3-0.9,4.5-2.7c0.4-5.8,4.9-5.5,8.6-6.1c3.9-0.7,5.5-4.9,9.7-5.3c2.3-0.2,4.4-2.1,7.1-2
		c0.9,0,2.3-0.5,2.6-1.2c1.6-4.3,6.1-4,9.1-6c1.7-1.1,3.3-0.6,4.6,0.6c1.3,1.3,0.9,3,0.2,4.6c-1.7,3.8-5.3,5.8-8.7,7
		c-5.1,1.8-8.8,5.8-13.7,7.6C78.6,166,77.4,167.2,75,165.9z"/>
	<path class="st87" d="M102.8,134.2c0.4-0.4,0.8-0.8,1.3-1.3c0.5-0.2,0.9-0.2,1.3,0.2c4,5.9,9.3,10.7,13,16.2
		c-0.2-2.7-2.7-5.2-1.3-8.6c2.5-0.3,4.4,0.3,4.7,3.2c-0.3,1.8,0,3.4,1.6,4.6c0.5,0.5,0.9,1,1.1,1.7c0.2,1.1-0.2,2-1.1,2.5
		c4.4,0,8.7-0.1,13.1-0.1c1.1,0,2.2,0,3.3,0c22.3,0,44.7,0.1,67-0.1c1.4-0.2,2.5,0.2,3.1,1.5c-0.2,1.5-0.8,2.4-2.5,2
		c-0.6,0.4-1.1,0.4-1.6-0.1c-1.1-2-2.9-1.1-4.5-1.1c-25.3-0.1-50.6,0-75.9-0.1c-3.7,0-7.2,0.3-10.4,2.4l0,0.1
		c4.7-4.5,0.5-7.2-2-10.2C109.6,142.7,106.3,138.4,102.8,134.2z"/>
	<path class="st59" d="M102,131.9c0,0.7,0.1,1.3,0.1,2c-7.3,4-14.7,8-22,12c0-3.5,3.3-3.6,5.3-4.8C90.8,137.9,96.8,135.6,102,131.9z
		"/>
	<path class="st17" d="M62.2,183.2c6.6-4.9,13.9-8.5,21.7-11.4C77.5,177,69.6,179.6,62.2,183.2z"/>
	<path class="st59" d="M59,156c5.9-4.6,12.2-8.3,19.6-10C72.5,150.2,66.3,154.1,59,156z"/>
	<path class="st97" d="M40.2,167.1c0-0.4-0.1-0.8-0.1-1.3c5.8-4.3,12-7.8,19-9.9c-2.2,3.7-6.7,4-9.9,6.3
		C46.5,164.3,43.2,165.5,40.2,167.1z"/>
	<path class="st98" d="M109,159.9c-5.8,3.6-12,6.5-18.5,8.8c5.2-4.4,11.6-6.6,17.3-9.9C109,158.4,109.2,159,109,159.9z"/>
	<path class="st78" d="M195.8,160.2c0.4,2-1.1,2.3-2.4,3c-3.1,1.7-6.6,2.4-9.3,4.8c-1.4,0-2.8,0-4.2-0.1
		C184.8,164.6,190.4,162.6,195.8,160.2z"/>
	<path class="st99" d="M205.8,155.9c0.5,0,1.1,0.1,1.6,0.1c-3,1.8-5.8,4.3-9.7,4C199.9,157.6,203,157,205.8,155.9z"/>
	<path class="st65" d="M109,159.9c-0.4-0.4-0.8-0.7-1.2-1.1c2.2-1.7,4.5-2.6,7.2-1.8c0,0,0-0.1,0-0.1
		C113,157.9,111.4,159.7,109,159.9z"/>
	<path class="st100" d="M209.9,154c-0.7-0.3-1.4-0.6-2.1-0.9c-2.8,0.8-5.6,0.2-8.4,0.3c-3.4,0.1-4-1.7-2.8-4.5
		c4.5-2.4,9.2-1.6,13.9-0.7c0.6,0.3,1,0.8,1.2,1.5c0.3,1.3-0.1,2.5-0.8,3.6C210.5,153.6,210.2,153.8,209.9,154z"/>
	<path class="st101" d="M210.8,153.3c0-1.2,0-2.4,0-3.6c5.4-2.6,8.8-7.1,12-12c1.6-1.6,2.8,0,4.2,0.4
		C221.8,143.4,217.9,150,210.8,153.3z"/>
	<path class="st102" d="M164.9,137.4c0.4,0,0.7,0,1.1,0.1c9.7,0.2,19.3,0.3,29,0.5c1.9,6.6-0.1,9.4-6.8,9.5c-14.2,0.1-28.5,0-42.7,0
		c-7.1,0-8.1-1.1-8.1-8.5c1.1-2.3,3.1-2,5.1-2.1C149.9,136.8,157.4,137.9,164.9,137.4z"/>
	<path class="st85" d="M137.8,139c2,7.3,2,7.2,9.9,7.1c12.5-0.1,25.1-0.1,37.6,0c8.3,0.1,8.3,0.2,9.7-8.2c0.4-0.5,0.7-0.5,1,0
		c0.3,0.2,0.7,0.3,0.8,0.6c0.8,5.9,5.4,6.6,10,7.3c0.3,0.1,0.7,0.1,1,0.2c1.1-0.2,2.3-0.2,3.4,0.3c1.4,1,1.2,1.8-0.2,2.6
		c-4.7,0.4-9.3-0.9-14,0.1c-1,0.9-2.2,1.3-3.5,1.3c-16.4,0.1-32.8,0.1-49.2,0c-1.9,0.2-4.2-0.8-4.8,2.2c-0.1,0.4-0.3,0.8-0.6,1.1
		c-1,0-1.9,0-2.9,0c-0.4-0.3-0.7-0.7-1-1c-0.9-2.3-2.9-2.3-4.9-2.5c-2.1-0.1-4.3,0.9-6.3-0.4c-0.2-0.6-0.5-1.2-0.7-1.8
		c-0.4-0.4-0.4-0.9-0.2-1.4c1.2-1.1,2.6-1.4,4.1-1.8c4.6,0.4,8.1-0.9,9.4-5.8C136.9,138.8,137.3,138.8,137.8,139z"/>
	<path class="st103" d="M258.8,135.8c-21.1,0.1-42.2,0.1-63.4,0.2c-1.2,0-2.3,0.1-3.5,0.1c-2.5-0.8-1.8-2.2-0.6-3.7
		c1.7-1,3.5-0.8,5.3-0.8c18.9,0,37.7,0,56.6,0c1.8,0,3.7-0.1,5.3,0.8C259.8,133.4,259.7,134.6,258.8,135.8z"/>
	<path class="st104" d="M206.7,145.9c-0.8,0.1-1.6,0.2-2.4,0.3c-4.3,0.4-8.8,0.9-7.5-5.9c0.1-0.7-0.5-1.5-0.8-2.3
		c0.3-0.1,0.6-0.2,1-0.2C206,137.3,206,137.3,206.7,145.9z"/>
	<path class="st86" d="M210.9,148.9c-0.2-0.7,1.4-1.4,0-2.1c-1.7-3.8,1-4.9,3.8-5.9c3.4,0.6,4.3-5,8.2-3.2c0.6,0.4,2.7-0.1,1.5,1.3
		c-3.3,3.8-7,7.2-10.5,10.8c-1.2,1.2-2,0.3-3-0.1C210.9,149.5,210.9,149.2,210.9,148.9z"/>
	<path class="st95" d="M170,136.1c-0.9-1.4,0.5-2.1,1-3.1c1.3-2.2,3.5-1.7,5.5-1.7c2.7,0.5,5.5,0.2,8.2,0.3c1.8,0.1,3.6-0.1,4.7,1.8
		c0.4,2.2-0.5,3.1-2.6,3c-4.9-0.2-9.9,0.4-14.8-0.3C171.3,136.1,170.7,136.1,170,136.1z"/>
	<path class="st105" d="M258.8,135.8c0-0.9,0-1.7,0-2.6c-2.9-2-6.4,0.3-9.4-1.3c-0.2-0.2-0.4-0.3-0.6-0.5c-0.3-0.5-0.3-0.9-0.1-1.5
		c0.6-0.6,1.3-0.8,2-0.8c1,0,1.9,0.3,2.8,0.4c1.3-0.1,3.5,0.7,2.7-1.9c-0.5-1.8,1.2-3,0.6-4.6c2-1.9,2.8-1.1,2.9,1.3
		c0.1,2.3,0.2,4.5,0.3,6.8c0.3,1.5,1.3,3.1,0,4.6C259.6,136.6,259.2,136.8,258.8,135.8z"/>
	<path class="st82" d="M172,136.2c4.7,0,9.5-0.1,14.2-0.1c2.2,0,3.6-0.5,2.8-3.1c0.6-0.5,1.3-0.5,1.9,0c-0.2,1.2,0.1,2.3,1,3.1
		C185.3,137.5,178.7,137.3,172,136.2z"/>
	<path class="st106" d="M214.7,141c-2,1.5-4.1,2.9-3.8,5.9c-1.1,0.1-2.4,0.6-3.1-0.8c0.1-4.3,3.6-4.8,6.6-5.8c0.1,0,0.2,0.2,0.3,0.3
		C214.7,140.6,214.7,140.8,214.7,141z"/>
	<path class="st107" d="M213.1,138.3c-1.4,1.3-2.7,2.6-4.6,2.1c-0.2-0.1-0.4-1-0.2-1.3C209.5,136.8,211.5,138.6,213.1,138.3z"/>
	<path class="st108" d="M204.8,18.8c1-0.1,1.8-0.5,1.9-1.6c0.4,0,0.8-0.1,1.2-0.1c1,1.3,2,2.7,3,4c-3.2,1.1-4.1,3.7-4.7,6.7
		c-0.3,1.6,0.3,3.8-2,4.5c-0.5-0.2-0.9-0.6-1.1-1.1C202.8,27,200.7,22.4,204.8,18.8z"/>
	<path class="st109" d="M211,22.9c1.7-0.8,0.7-2.8,1.7-3.9c7-3.1,14.3-1.6,21.5-1.8c7.5-0.2,14.9,0,22.4,0c0.6,2.3-1.5,2.7-2.7,3.5
		c-4.8,3.1-9.6,6.3-14.5,9.2c-6.7,4.4-13.7,8.5-20.3,13.1c-3.3,0.9-5.5,5-9.7,2.9c-1.5-4.2-1.2-8.5-0.8-12.8
		c0.9-2.9,0.8-5.9,1.3-8.8C210.2,23.7,210.5,23.3,211,22.9z"/>
	<path class="st4" d="M266.8,23.7c-1.5,2.6-4.1,4.4-4.8,7.5c-1.8-1.4-1-3.1-0.7-4.8c0.6-2.7,2.5-4.7,3.7-7.1c0.3-0.4,0.6-0.7,1-0.9
		c1.5-1.1,3.2-1.4,5-1.2C270.9,20.2,267.4,21,266.8,23.7z"/>
	<path class="st110" d="M238.9,29.1c5.9-4,11.8-7.9,17.7-11.9c1.2,0,1.2,0.8,1.3,1.7c-0.1,0.3-0.1,0.6-0.1,0.9
		c-6,4-11.3,9.2-18.8,10.6C238.5,29.9,238.5,29.5,238.9,29.1z"/>
	<path class="st47" d="M265.9,18.3l0.1,0.2c-1.5,1.9-1.8,5-5,5.5c-0.1-1-0.1-1.9-0.2-2.9c0-1,0-2.1,0.1-3.1
		C262.6,16.8,264.3,16.3,265.9,18.3z"/>
	<path class="st0" d="M239.1,30.6c6.4-3.4,11.8-8.6,18.8-10.9c2.3,4.7,0.8,9.7,1.1,14.6c0.3,5.2,0.2,10.5,0.2,15.8
		c-0.1,23.6-0.1,47.3-0.2,70.9c-2.6,0-5.1,0-7.7,0.1c-1.4,0-2.2,0.5-1.3,2.1c-1,0.6-2.1,1-3.2,1.6c-0.7,0.3-1.5,0.5-2.3,0.6
		c-0.6,0.1-1.1,0.1-1.7,0.1c-6.3,0-12.6,0-19,0c-1.8,0-3.7,0.2-5.3-0.8c-0.4-0.3-0.7-0.8-0.7-1.3c2.6-2.4,1.9-5.4,1.4-8.3
		c-1.9-3.2-5.5-0.7-7.8-2.4c-4.8-5-3.8-11.8,2.9-16c-3.2-0.2-5.5-1.1-5.6-4.5c-0.1-3.3,0.4-6.1,5.2-6.6c-5.3-1.3-5.5-4.9-5.3-8.7
		c0.3-6-0.5-12-0.4-17.9c0.6-3.3-0.1-6.8,0.9-10.1c2.9-2.8,6.7-4.1,10.1-6.1C225.8,38.5,231.8,33.5,239.1,30.6z"/>
	<path class="st46" d="M261,24c2.4-1.1,2.3-4.6,5-5.5c-0.1,3.5-2.7,5.5-4.7,7.8C261.1,25.6,261,24.8,261,24z"/>
	<path class="st111" d="M211,22.9c0,0.4-0.1,0.9-0.1,1.3c-0.7,1.1-1.6,2-2.6,2.9c-1.7,1.7-0.7,4.3-2.2,6c-0.9,0.2-1.3-0.1-1.3-1
		c-0.6-3.4,1-6.6,0.8-10.1c-0.1-2,3.5-0.6,5.4-0.9C211,21.7,211,22.3,211,22.9z"/>
	<path class="st82" d="M24.1,72.2c-2.4-1.6-5.2-1.2-7.9-1.3c3.2-1.3,6.4-1.1,9.7-0.1C25.3,71.3,24.7,71.7,24.1,72.2z"/>
	<path class="st0" d="M204.8,18.8c-2.4,4.3-1,8.9-0.8,13.3c2.5,6.1,1.3,12.4,1,18.7c-1.9,3.8-6.6,4.4-8.9,7.8
		c-1.6,1.2-3.3,2-5.3,2.6c-5.3,0.1-10.7,1.2-15.9-0.7c-2.6-3.4-0.5-7.6-1.9-11.1c-0.4-1.4-0.4-2.9-0.4-4.4c-0.1-2.8-1.6-4.2-4.2-4.5
		c-3.3-0.3-6.4-1.3-9.8-1.1c-1.6,0.1-3.3,0.1-4.6-1.2c-4.9-0.1-9.9-0.1-14.8-0.2c-0.5-1.8,1.3-2.1,1.9-3.2c1.2-2.4,0.7-5,0.4-7.5
		c-3-1.1-6.5-2-2.8-6.3c0.5-0.6-1.2-1.1-0.6-2c0.8-1.1,2-1,3.2-1c20.3,0,40.6,0,60.8,0C203,18.1,204.1,18,204.8,18.8z"/>
	<path class="st72" d="M154,38.2c5.4-1,10.8,0.7,16.1,0.9c2.5,0.1,3.5,2.1,3.8,4.3c0.3,1.8,0.1,3.6,0.2,5.4c0.5,0.9,0,1.3-0.7,1.7
		c-0.5,0.1-1,0-1.4-0.2c-0.3-0.3-0.5-0.7-0.6-1.2c-0.1-2.1,1.2-4.2-0.5-6.2c-0.3-0.3-0.6-0.6-0.9-0.9c-1.4-0.9-2.4-0.7-2.7,1.1
		c-0.2,1.3,0.1,2.6,0.4,3.8c0.2,0.9,0.2,1.8-0.3,2.7c-0.3,0.4-0.8,0.6-1.2,0.6c-0.7-0.2-1.4-0.5-2-1c-0.4-0.3-0.9-0.5-1.3-0.7
		c-5.7-0.6-11.4-0.1-17.2-0.2c-7.2-0.3-14.3,0.5-21.5-0.4c-0.6-0.2-1-0.6-1.4-1.1c-0.1-0.7,0.2-1.1,0.8-1.5
		c3.9-1.4,7.9-0.6,11.8-0.7c8.8-0.2,17.6,0.2,26.3-0.3c0.9-1.3-0.7-1.6-1-2.4c-0.1-0.4,0-0.8,0.1-1.1c-3-0.5-6.2,1.5-8.9-1.1
		C152.6,39.3,153.3,38.7,154,38.2z"/>
	<path class="st112" d="M152,39.8c4.1,0.6,8.2-0.6,12.4,0.6c-1,1.3-2.4,0.2-3.3,0.8c-2.9,2-6.3,0.9-9.4,1.2c-0.9,0-1.7,0-2.6,0
		c-1.2,0-2.3-0.1-3.5-0.4c-8.9-1-17.8-0.6-26.8-0.2c-0.6,0.1-1.1,0.1-1.7,0.1c-4.9-0.8-9.7-0.4-14.6-0.3c-0.9-0.1-1.6-0.4-1.4-1.5
		c0.7-1,1.7-0.9,2.7-0.9c15.4,0.4,30.8-0.6,46.3,0.6C150.6,39.9,151.3,39.8,152,39.8z"/>
	<path class="st7" d="M101.1,40.1c0.4,0.3,0.7,0.5,1.1,0.8c5-0.4,9.9-0.5,14.9,0.1c0.4,0,0.7,0,1.1,0c9.3-0.7,18.6-0.4,27.8-0.2
		c1.1,0.2,2.1,0.4,3.2,0.6c0.8,0.9,0.7,1.8,0.1,2.8c-0.5,0.3-1,0.4-1.5,0.4c-1.1-0.2-2.1-0.5-3.2-0.8c-13.7-0.4-27.5-0.2-41.2-0.1
		c-1.8,0.3-3.3-0.3-4.3-1.9c-0.4-0.9-0.2-1.5,0.8-1.8C100.2,39.9,100.6,40,101.1,40.1z"/>
	<path class="st50" d="M99.8,39.9c-0.3,0.4-0.5,0.8-0.8,1.2c0.7,0.9,1.4,1.8,1.6,3c-0.2,1-0.6,1.7-1.8,1.9c-0.9,0-1.7,0-2.6,0
		c-1-0.6-1.2-1.6-1.4-2.6c-0.1-2.5,0.2-4.8,1.4-7c0.6-0.1,1.2-0.2,1.8-0.3C98.6,37.3,99.2,38.6,99.8,39.9z"/>
	<path class="st113" d="M135.8,36.8c-2.1,1.1-4.3,1.6-6.7,1.1c-0.4-1.1,0.2-1.8,0.9-2.5c1.4-0.9,2.9-1.7,4.5-2.2
		c1.3-0.3,2.6-0.2,3.6,0.7C139.1,36.3,137.5,36.6,135.8,36.8z"/>
	<path class="st114" d="M130.1,35.7c-0.4,0.7-0.7,1.5-1.1,2.2c-2,0-3.9,0-6.2,0c1.4-1.8,3.3-2.4,5.2-3.1
		C129,34.4,129.8,34.5,130.1,35.7z"/>
	<path class="st105" d="M130.1,35.7c-0.3-1.2-1.3-0.7-2.1-0.8c-0.5-0.3-1-0.5-1.5-0.8c0.2-0.3,0.3-0.7,0.5-1
		c0.2-0.2,0.4-0.4,0.6-0.6c2.4-0.8,4.8-1.3,6.3,1.6C133,35.5,131.7,36,130.1,35.7z"/>
	<path class="st74" d="M135.8,36.8c0.8-0.7,2.1-1.1,1.9-2.6c2.1-1.3,3.9-1.8,4.3,1.5c-1,0.8-1.9,1.5-2.9,2.3
		C138,37.6,136.9,37.2,135.8,36.8z"/>
	<path class="st96" d="M138,19.1c-0.1,1.5,4.5-0.6,1.9,2.5c-1,1.1-2.7,2-1.8,3.5c1.2,2.1,2.2-1.1,3.5-0.6c0.5,0.2,0.8,0.9,1.2,1.4
		c-1.7,2.4-4.5,3.6-6.5,5.7c-1.9,2-4.4,1.3-6.5-0.4c-0.2-0.5-0.2-0.9,0-1.4c2.2-1.6,6.3-0.8,6.2-5.2c-0.3-1.9-0.7-3.7-1-5.6
		C136,19.1,137,19.1,138,19.1z"/>
	<path class="st106" d="M130,30.2c0,0.3-0.1,0.6-0.1,1c0.1,2.3-2.5,0.4-3,1.9l0,0c-4-1.8-2.6-5-1.9-7.9c2.7,0,7.2-4,7,2.9
		C132.7,30,130.4,29.2,130,30.2z"/>
	<path class="st115" d="M130,30.2c0.7-0.7,1.3-1.4,2-2.1c2.3,0.1,2.8-2,3.9-3.3C136.8,28,135.5,29.2,130,30.2z"/>
	<path class="st116" d="M84.3,47.1c0,1.7-1,2.1-2.6,2.1c-5.3-0.1-10.6,0-15.9,0c-1,0-2.6,0.4-2.6-1.4c0-1.6,1.3-1.7,2.5-1.7
		c3.8-0.1,7.6-0.1,11.4-0.2c1,0.1,2,0.1,2.9,0.2c0.6-1.3,1.6-1.8,3-1.4C83.9,45.2,84.5,45.9,84.3,47.1z"/>
	<path class="st39" d="M83.2,45.1c-1.1,0.3-2.1,0.7-3.2,1c-1.9-2.5-2.7-5.1-1-8.1c0.9,0.5,1.8,0.9,2.8,0.1
		C86.3,40.7,86.4,41.1,83.2,45.1z"/>
	<path class="st117" d="M58.1,43c0.3-2.2,1.9-2,3.4-2c5.1,0,10.3,0.1,15.4,0.2c0.2,0.3,0.2,0.6,0,0.9C71,43.3,65,41.8,59.1,43
		C58.8,43,58.5,43,58.1,43z"/>
	<path class="st118" d="M77,45c-6,0.1-12,0.2-18,0.3c-0.3-0.4-0.7-0.8-1-1.2C64.3,44.6,70.7,43,77,45z"/>
	<path class="st1" d="M59.1,43c5.8-2,11.9-0.4,17.8-0.8C71.1,44.1,65.1,42.6,59.1,43z"/>
	<path class="st119" d="M76.9,40c-5.9-0.1-11.9,0.9-17.7-0.8C65.1,39.7,71.1,38,76.9,40z"/>
	<path class="st120" d="M83.2,45.1c1.8-2.8,0.5-4.9-1.4-6.9c2.3-0.4,5,0.9,6.9-1.5c0.5-0.7,1.5-0.4,2.2,0.3c2.1,2.5,3.7,0.5,5.4-0.7
		c-0.1,2.2-0.1,4.5-0.2,6.7c-1.3,1.1-2.1,0.3-2.9-0.7c-0.8-1.4-1.9-2.2-3.7-1.7c1.4,0.6,3.1,0.3,3.9,1.8c1.1,5.1-3.6,3-5.5,4.6
		c-0.6,0.4-1.1,0.8-1.8,1.1c-0.6-0.3-1.2-0.7-1.7-1C83.9,46.4,83.5,45.7,83.2,45.1z"/>
	<path class="st29" d="M246.9,124c0.3-2.6,1.6-2,3-0.9c1.2,0.3,2.4,0.5,3.6,0.8c2,2.4,0.9,4.7-0.4,7c-0.7-0.3-1.4-0.6-2.1-0.9
		c-0.5-0.4-1.1-0.8-1.8-0.8c-18.6,0.5-37.1,0-55.7,0.3c-0.7,0-1.3,0.1-1.9,0.4c-0.8,0.4-1.7,0.6-2.6,0.5c-4.3-1.8-8.9-0.4-13.3-1.3
		c-2.1-0.9-2.2-1.9-0.1-3c11.9-0.9,23.8-0.2,35.6-0.4c10.6,0.1,21.2,0.1,31.8,0C244.3,125.5,246.4,126.7,246.9,124z"/>
	<path class="st121" d="M253,130.9c-1-2.4-0.5-4.7,0.4-7c1.3,0.2,2.5,0.1,3.5-0.8c0.9,0.2,2.6,0.8,1.7,1.4c-2.4,1.6-2.1,2.4-0.1,4.1
		c1,0.8,0.5,2.2-1.1,2.3C256,131,254.5,130.9,253,130.9z"/>
	<path class="st122" d="M99.9,43.8c-0.3-0.9-0.6-1.8-0.9-2.7c1,0.7,2,1.3,3,2c5.9-1.1,11.8-0.5,17.7-0.4c8.7,0,17.5-0.5,26.2,0.3
		c0.8,0,1.6,0.1,2.1,1c-0.5,0.8-1.4,1-2.2,1.1c-9.1,0.3-18.1-0.4-27.2,0.5c-0.4,0.2-0.8,0.5-1.2,0.7c-1.2,1.1-3.1-0.3-4.2,1.3
		c-1.3-0.2-2.6-0.4-3.9-0.6C106.3,45.6,102.2,47.5,99.9,43.8z"/>
	<path class="st64" d="M99.9,43.8c2.7,2.3,7.2-0.6,9.3,3.2c-2.3,2.3-5.1,2.8-8.2,2.3c1-1.7,1.6-2.1,3.6-2.5c0.7-0.1-0.5-0.5-0.1,0
		c-1.9,0.3-3.7,0.7-5.4-0.6c0,0-0.4-0.2-0.4-0.2C99.2,45.2,99.6,44.5,99.9,43.8z"/>
	<path class="st123" d="M92.9,42c1.1,0.3,2.1,0.7,3.2,1c0.1,1,0.1,1.9,0.2,2.9c0,0-0.4,0.3-0.4,0.3c-1.1,1-2.7,1.4-3.5,2.7
		c-0.8,0-1.7,0.1-2.5,0.1c-0.9-1.4-2.5-1.7-3.7-2.7c0.9-2,2.8-1.2,4.3-1.2C92.8,45.1,93.1,43.8,92.9,42L92.9,42z"/>
	<path class="st19" d="M113.2,47.6c0.5-2.5,2.6-1.2,4-1.6c2-1.1,4-1.6,5.7,0.4l-0.2,0.5c-0.3,1.9-1.5,2-2.9,1.4
		c-2.3,0.2-5.3-2.8-6.8,1.4C113.1,49,113.1,48.3,113.2,47.6z"/>
	<path class="st23" d="M99.2,46.2c2.2-0.3,4.4-0.3,6.4,1c-1.2,1.5-3.5,0.5-4.6,2.1C98.9,49.2,98.5,48,99.2,46.2z"/>
	<path class="st124" d="M92.4,48.9c-1-3.7,1.7-2.6,3.5-2.7C96.9,49.9,94.5,49.3,92.4,48.9z"/>
	<path class="st125" d="M86.2,46.3c1.9,0,4.9-1.7,3.7,2.7c-1.4,0.3-2.8,0.4-3.8-0.9C86.1,47.5,86.2,46.9,86.2,46.3z"/>
	<path class="st126" d="M104,115c0-1.9,0.4-3.1,2.8-2.9c2.5,0.2,5,0.2,7.4,0c2.3-0.2,2.8,0.8,2.9,2.8c0.1,2.2-0.8,2.9-2.9,2.8
		c-2-0.1-4-0.3-5.9,0.1c-2.2,0.4-1.7,1.4-0.2,2.3c0.5,0.5,0.5,1.1,0,1.6c-0.7,0-1.4,0-2.1,0C104.3,119.9,104.1,117.4,104,115z"/>
	<path class="st127" d="M104.9,133.2c-0.3-0.1-0.5-0.2-0.8-0.3c-1.4-2.5-1.2-5.2-1-7.9c5.1-1.6,3.4,2.4,4,4.7c0,0.8-0.1,1.5-0.4,2.2
		C106.2,132.6,105.7,133.1,104.9,133.2z"/>
	<path class="st95" d="M104,115c1.6,2,2.1,4.4,2,6.9C102.5,121.2,102.2,120.2,104,115z"/>
	<path class="st32" d="M105.9,129.8c-2-1,3-6.1-2.8-4.8c1.4-2.2,3.4-0.3,5.1-0.8c0.4,0.4,0.6,0.8,0.8,1.4c0.3,1.3,0.2,2.7-0.4,3.9
		C107.8,130.4,106.9,130.9,105.9,129.8z"/>
	<path class="st109" d="M108.1,121.8c0-0.5,0-1.1,0-1.6c2.3-0.8,4.6-0.4,6.9-0.2c0,0.6,0,1.3,0,1.9
		C112.7,122.4,110.4,122.6,108.1,121.8z"/>
	<path class="st70" d="M108.1,125.1c0-0.3,0-0.6,0-0.8c1.9-0.1,3.9-0.1,5.8-0.2c-0.4,1-0.8,2-1.3,3.1
		C110.2,128.7,109.3,126.4,108.1,125.1z"/>
	<path class="st37" d="M144.3,126.8c-0.5,0.2-1.4-0.1-1.4,0.8c0,0.2,0.8,0.3,1.2,0.5c-2,1.8,0,5.1-2.4,6.8c-0.5,0.3-0.8,0.2-1.1-0.3
		c-0.1-2.2-0.4-4.1-3.3-2.3c-2.6,1.6-5.6,2.5-8.3,4.1c-0.7,0.5-1.1,1.3-1.5,2c-1.1,1.3-2.2,0.9-3.3,0.2c-0.8-0.7-0.5-1.9-1.3-2.6
		c-0.9-1.2-2.6-2-2-4c0-0.4,0-0.7,0-1.1c6.5,1.8,11.3-2.2,16.5-4.8c2.2-1.1,4.1-2.8,6.8-2C144.4,125,144.3,125.9,144.3,126.8z"/>
	<path class="st99" d="M141.3,135c0.2,0,0.4,0,0.6-0.1c3.9,2.3,8.1,0.5,12.1,1c3.4,2.2,7.4-0.2,10.9,1.4c-7.4,0.8-14.8,0.2-22.3,0.4
		c-1.6,0-3.7-1.1-4.8,1.2l-0.3,0l-0.3,0c-3.5,0.4-7,1.2-10.2-1c0-0.9,0.2-1.6,1-2.1C132.4,134.6,136.8,134,141.3,135z"/>
	<path class="st1" d="M144.4,124.1c-4.1,2-8.3,3.8-12.1,6.1c-3.8,2.3-7.2,4.6-11.2,0.7c0.3-2.1-2.6-2.8-2.1-5
		c4.1-2.3,8.5-3.9,12.2-6.9c3.6-1.7,7.3-3.3,10.9-5c0.9,2.4-1.1,6,3,7C144.8,122,144.6,123.1,144.4,124.1z"/>
	<path class="st28" d="M139,61.2c-1.3-0.1-2-0.9-2.1-2.2c-0.3-0.7-0.7-1.3-1-2c0.8-2,2.6-2.2,4.4-2.3c5,0.2,10.1-0.7,15.1,0.6
		c0.6,0.3,1,0.7,1.3,1.3c0.6,5.2,1.9,10.4-0.9,15.4c-0.6-0.3-1.3-0.7-1.9-1c0-0.4,0-0.7,0.1-1.1c-0.5-6.8-0.5-6.8-6-5.9
		c-1.8,0.3-1.9,3.2-4.2,2.7C143,64.2,140.7,63,139,61.2z"/>
	<path class="st128" d="M162.1,82.9c-0.4-0.6-0.8-1.2-1.1-1.9c-2.1-9.1-1.8-18.3-0.8-27.5c0.8-1.1,1.5-2.2,3.1-1.3
		c1.1,1.4,1.1,3.1,1.1,4.7c0,6.9,0,13.8,0,20.7c0,1.8,0.1,3.7-1.3,5.1C162.7,82.8,162.4,82.9,162.1,82.9z"/>
	<path class="st5" d="M159.9,76.9c-1-0.3-1.5-1-2-1.9c-1.3-6.6-1.7-13.3,0.1-19.9c1.3-0.6,2.5-0.4,2.4,1.2
		C160.2,63.1,161.2,70,159.9,76.9z"/>
	<path class="st96" d="M159.9,76.9c0-6.3,0.1-12.6,0.1-18.9c0-1.5,0.3-3.1-2.1-2.9c-0.1-0.2-0.3-0.4-0.4-0.6
		c-0.1-0.8,0.1-1.4,0.8-1.9c1-0.3,1.9-0.3,2.7,0.5c0,9.3,0,18.7,0,28C159,80.1,159.8,78.4,159.9,76.9z"/>
	<path class="st48" d="M157.9,55c0,6.7,0,13.3,0,20c-2.1,0.2-0.9-1.2-0.9-2c-1.4-5.5,0.4-11.2-0.9-16.7l-0.1-0.3
		c-0.3-0.3-0.5-0.7-0.6-1.1c0.1-0.4,0.3-0.8,0.6-1.1c1.1-0.3,1.5,0.6,2,1.2C158,55.1,157.9,55,157.9,55z"/>
	<path class="st34" d="M160.9,90.1c-0.9-1.8,0.1-4.5-2.8-5.2c-1.2-0.9-0.6-1.9-0.1-2.9c1.3,0.8,2.6,1.3,4.1,0.9c0,0-0.1,0-0.1,0
		c0.5,0.6,0.9,1.2,1.1,2c-0.1,2.2,2,4.1,0.8,6.5c-0.7,0.4-1.4,0.3-2.1-0.2C161.5,90.7,161.2,90.4,160.9,90.1z"/>
	<path class="st129" d="M156.1,56.4c2,5.5,0.4,11.1,0.9,16.7c-0.4-0.3-0.7-0.7-1.1-1C155.9,66.8,156,61.6,156.1,56.4z"/>
	<path class="st130" d="M161,53.1c-1,0-2,0-2.9,0c-0.4,0.4-0.9,0.5-1.4,0.2c-5.4,0.2-10.8-0.2-16.2,0.3c-0.6,0.3-1.3,0.6-2,0.8
		c-1.3,0.2-2.4,1-3.5,1.7c-2.1,0.1-3.1-0.8-3.1-2.9c-2.3-1.2-4.8-2.2-7.1-3.5c-0.3-0.8-0.2-1.5,0.6-2c6.7-0.4,13.4-0.1,20.1-0.1
		c6.4,0.3,12.9-0.5,19.3,0.3c0,0.4,0.1,0.8,0.1,1.2c0.5,1.9-0.6,2.7-2.2,3.2C162.2,52.6,161.6,52.8,161,53.1z"/>
	<path class="st37" d="M135,56.2c0-2.1,0.9-3,3.1-2.2c6-1.2,12-1.9,18,0.3c0,0.3-0.1,0.6-0.2,0.9c-5.3,1.1-10.7-0.5-16,0.9
		c-1.4-0.2-2.7,0.4-3.9,1C135.6,56.8,135.3,56.5,135,56.2z"/>
	<path class="st131" d="M125.8,50.7c3.4-2.5,4.3,1.1,6.2,2.5c-2.6,3.1-4.4,0.9-6.3-0.9C125.2,51.7,125.4,51.2,125.8,50.7z"/>
	<path class="st72" d="M125.8,50.7c0,0.5-0.1,1.1-0.1,1.6c-2,0.6-3.8-0.2-5.6-1c1.7-1.2,0.5-2.1-0.2-3c1.1-0.1,2.2-0.5,2.9-1.4
		c0.2,0.2,0.4,0.3,0.5,0.5c0.6,0.6,1.2,1,1.7,1.6C125.3,49.5,125.5,50.1,125.8,50.7z"/>
	<path class="st4" d="M148,64c0.7-3.8,3.6-1.5,5.4-1.8c2-0.3,1.7,1.6,1.6,2.8c-0.2,1.7,0.9,3.6-0.9,4.9C152.9,67,149.5,66.5,148,64z
		"/>
	<path class="st77" d="M121,132c1,1.3,2.1,2.7,3.1,4c-1.5,1.5-0.5,3.4-0.7,5.2c-0.2,1.7,0.3,3.7-1.7,4.7c-0.1,0.1-0.4,0-0.5-0.1
		c-0.2-0.2-0.2-0.5-0.1-0.8c0.5-3.1-2.4-3-4-4.2c-0.7,0-1.2-0.4-1.7-0.8c-1.7-1.4-2.7-3.3-4.2-4.8c-1.4-1.3-5.2-0.4-4-4.2
		c3.1-2.1,6.6-0.9,9.9-1.1C118.6,129.9,119.1,132.2,121,132z"/>
	<path class="st132" d="M108.1,125.1c1.9-0.2,2.5,2.5,4.6,2.1c0.7,0.6,1.5,1.2,2.2,1.7c-2.3,2-4.6,2.6-6.9,0
		C108.1,127.6,108.1,126.4,108.1,125.1z"/>
	<path class="st133" d="M108,128.9c2.3,2,4.6,0.8,6.9,0c0.7,0.3,1.3,0.6,2,0.9c-1.3,1.9-3.3,0.9-5,1.2c-1.6,0.3-3.6-1.1-4.8,1.1
		c-0.4,0.2-0.8,0.2-1.1-0.2c0-0.7-0.1-1.4-0.1-2.1C106.7,129.8,107.6,129.8,108,128.9z"/>
	<path class="st15" d="M164.9,102.1c-0.4-2.4,2.2-1.8,2.9-3.1c-0.7-9.7,0.3-19.5-0.8-29.2c-0.1-1.2,0-2.3,0.5-3.4
		c0.5-1.1,1.3-2,2.7-1.6c1.1,0.3,1.5,1.3,1.6,2.3c0.1,2.2,0.5,4.3,0.5,6.4c0.1,11.6,0,23.2,0,34.8c0,1.3,0,2.7-0.5,3.9
		c-0.9,1.4-1.9,1.3-2.5-0.1c-0.6-1.2-1.3-2.3-2.3-3.1c0-0.6,0-1.2,0-1.8c2.2-2.1,1.8-3.7-1-4.8C165.7,102.2,165.3,102.1,164.9,102.1
		z"/>
	<path class="st134" d="M166,102.3c2-1.6,3.2-0.8,3.8,1.3c0.6,2.3-0.2,3.7-2.8,3.5C166.7,105.5,166.4,103.9,166,102.3z"/>
	<path class="st91" d="M167,109c3.2-0.7,2.6,2.5,3.8,3.9c0.5-0.3,1-0.2,1.5,0.1c0.7,1,0.7,2,0.1,3c-0.7,0.6-1.4,0.7-2.1,0.2
		c-1.5-1-1.9-2.5-2.2-4.1c0,0,0-0.1,0-0.1c0.9-1.3-0.7-1.5-1-2.2C167,109.5,167,109.2,167,109z"/>
	<path class="st64" d="M166.9,109.8c1.2,0.4,2.8,0.5,1,2.2C167.6,111.3,167.3,110.5,166.9,109.8z"/>
	<path class="st67" d="M170.2,116.1c0.6,0,1.2-0.1,1.8-0.1c1.2,1,1.3,2.5,1.7,3.8c0.1,0.7,0.1,1.4-0.3,2c-1.5,1.2-2,2.8-2.3,4.9
		c0.9-0.8,1.5-1.6,2.6-1.5c0.5,0,0.9,0.2,1.3,0.4c0.3,0.4,0.3,0.8,0.1,1.3c-0.9,1.6,1,0.4,1,1c0.6,0.5,1.4,0.9,1.3,1.9
		c-0.4,1.1-1.3,1.6-2.3,2c-1.1,1.5-3-0.3-4,1.1c-0.2-1.1-1-1.1-1.8-0.9c-1.1-3-0.9-6.1-0.1-9.2c1.8-2.2-0.3-3.7-1-5.5
		C169.2,117.9,169.7,116.9,170.2,116.1z"/>
	<path class="st4" d="M169,122.9c0,3.1,0.1,6.1,0.1,9.2c-0.1,0.2-0.2,0.5-0.3,0.7c-1.8-3.1-0.6-6.5-0.8-9.8
		C168.4,122.9,168.7,122.9,169,122.9z"/>
	<path class="st135" d="M168.1,70.1c2,2.1,0.8,4.7,0.9,7c0.2,7.2,0,14.4,0,21.7c0,0.1-0.2,0.3-0.3,0.3c-0.3,0-0.5-0.1-0.8-0.2
		c-0.1-0.7-0.1-1.4-0.2-2.1c-0.5-1.2-1.1-2.3-1.1-3.6c-0.1-5.9-0.1-11.8,0-17.7C166.6,73.7,166.3,71.6,168.1,70.1z"/>
	<path class="st38" d="M167.7,94.1c0,0.9,0,1.9,0,2.8c-0.6-0.3-1.2-0.5-1.8-0.8c-2.1-1.1-3.1-2.7-2.2-5.1c-0.6-2-2.2-3.7-1.8-6
		c0.6-0.5,1.3-0.6,2-0.3c0.8,0.6,1,1.5,1.2,2.4c0.3,1.4,0.7,2.9,1.3,4.2c0.2,0.4,0.3,0.8,0.5,1.1C167.1,93.1,167.4,93.6,167.7,94.1z
		"/>
	<path class="st76" d="M163.8,91c0.1,2,1.3,3.5,2.2,5.1c-0.4,2.4-1.4,2.6-3,0.9c0.2-2.1-1.6-3.8-1.1-5.9C162.5,91,163.1,91,163.8,91
		z"/>
	<path class="st136" d="M106,132c0.4,0.1,0.7,0.1,1.1,0.2c1.3,1.7,3.7,0.7,5.1,2c-0.6,3.3,2.1,4.3,4,5.8c0.2,0.3,0.5,0.5,0.7,0.8
		c1.1,3,2.9,5.9,1.4,10.1c-4.2-6.5-10.6-10.7-13.5-17.7C105.3,132.8,105.7,132.4,106,132z"/>
	<path class="st82" d="M138.9,153.7c0-0.2,0-0.4,0-0.6c1.8-2.1,4.2-1.6,6.5-1.6c13.6,0,27.1,0,40.7,0c1.8,0,3.6,0.2,5.4-0.4
		c1-0.5,1.7-1.4,2.5-2.2c1,0,2,0,2.9,0c-0.5,3.2,0.7,4.4,4,4c2.3-0.3,4.6,0,6.9,0.1c-1.6,1.3-3.5,0.7-5.3,0.7
		C181.3,153.8,160.1,153.8,138.9,153.7z"/>
	<path class="st137" d="M123.9,149.9c3.3-2.3,6.9-1.1,10.4-1.1c3.1,0,1.3,2.6,1.6,4.1c-4.6,1.1-9.2,1-13.8,0
		C122.5,151.7,124.7,151.7,123.9,149.9z"/>
	<path class="st138" d="M121,145c2.3-1.5,0.3-3.6,0.9-5.4c0.4-1.4-0.6-3.6,2.2-3.5c-0.1,0.5-0.1,1.1-0.2,1.6c0,1.3,1.5,1.7,1.7,2.8
		c0.4,2.6-1.2,4.4-2.6,6.3c0,0.5,0,0.9,0,1.4c-1,1-1.7,0.5-2.1-0.6C120.8,146.7,118.9,145.9,121,145z"/>
	<path class="st82" d="M122.1,152.9c4.6,0,9.2,0,13.8,0c0.1,0.3,0.1,0.6,0.1,0.9c-4.9,0-9.8,0.1-14.7,0.1c-0.1,0-0.2-0.2-0.3-0.3
		C121.4,153.3,121.8,153.1,122.1,152.9z"/>
	<path class="st136" d="M193.8,152c-1.1,2-3,0.9-4.4,0.9c-16.8,0.1-33.6,0.2-50.4,0.2c-1.4-3.1-0.9-4.9,3-4.2
		c2.9,1.1,5.9,0.5,8.8,0.5c12.4,0.1,24.8,0.1,37.1,0C190.3,149.5,192.6,149.4,193.8,152z"/>
	<path class="st139" d="M124.8,140.1c-1.6-0.3-2.9-0.8-0.9-2.5c1,0,1.9,1.1,3.1,0.4c3.4,0.4,7-1.7,10.2,1c0,0.2-0.1,0.3-0.1,0.5
		c-2.3,7.1-2.3,7.1-10,6.3C124.9,144.5,127.1,141.4,124.8,140.1z"/>
	<path class="st140" d="M193.8,152c-2.4-1.6-5-2.1-7.9-2c-12.9,0.1-25.9,0.1-38.8,0c-1.7,0-3.7,0.7-5.1-1c17.3,0,34.7,0,52,0
		C194,150,193.9,151,193.8,152z"/>
	<path class="st127" d="M124.8,140.1c4,0.6,1.4,3.8,2.2,5.7c-1.3,0.5-2.4,1.4-3.9,0.9C121.5,144,125.8,142.7,124.8,140.1z"/>
	<path class="st92" d="M175,131.9c0.2-1.2,1-1.8,2.1-2.2c0.4-0.1,0.8-0.1,1.2,0.1c0.4,0.2,0.8,0.4,1.1,0.6c2.6,0.6,5.1,0.4,7.7,0.1
		c0.4-0.1,0.8-0.3,1.1-0.5c0.2-0.1,0.4-0.1,0.6-0.2c0.4-0.3,0.7-0.6,1.1-0.8c18.8-0.2,37.6-0.1,56.4,0c1,0,2,0.2,2.6,1.1
		c0,0.3,0,0.6-0.1,0.9c-4.9,1-9.9,0.4-14.9,0.4c-13.1,0.1-26.3,0-39.4,0.1c16.3,0,32.6,0,48.9,0c1.8,0,3.7,0.5,5.4-0.5
		c2.9,2.4,7-0.5,9.9,2.2c-22.6-0.1-45.2-0.2-67.8-0.3c-0.6,0-1.2,0-1.9,0C184.4,132.6,179.6,134.2,175,131.9z"/>
	<path class="st95" d="M249,130.2c-17.1-0.1-34.2-0.1-51.3-0.2c-2.6,0-5.2,0-7.8-0.9c0.8-2.1,2.6-1,3.9-1.1
		c17.8-0.1,35.6-0.1,53.4,0c1.3,0,4.1-1.6,3.7,2C250.3,130.1,249.6,130.1,249,130.2z"/>
	<path class="st105" d="M203.7,51.8c0.1-6.6,0.3-13.1,0.4-19.7c0.2,0.1,0.5,0.1,0.7,0c0.3,0.3,0.6,0.5,0.9,0.8
		c0.8-0.3,1.1-1.3,2.2-1.3c0.9,0.1,1.5,0.8,2.2,1.3c0,4.3,0.1,8.6,0.1,12.9c0.4,0.7-0.5,1.6,0.2,2.2c-1.3,3.6,1.2,7.6-1.2,11
		c-2,1.8-3.9,1.8-5.7-0.2c-0.8-1.5-0.9-3.2-0.7-4.8C202.9,53.3,203.3,52.6,203.7,51.8z"/>
	<path class="st87" d="M239.1,30.6c-6.4,4.1-12.8,8.2-19.1,12.3c-0.4-0.2-1-0.3-1.1-0.9c6.2-5,13.3-8.8,20.1-12.9
		C239,29.6,239,30.1,239.1,30.6z"/>
	<path class="st141" d="M218.8,42c0.4,0.3,0.7,0.6,1.1,0.9c-3.1,1.8-6,4.1-9.5,5.2c-0.8-0.2-2-0.1-2.2-0.5c-0.7-1.8,2.1-0.2,1.9-1.7
		C213.6,45.9,215.7,42.7,218.8,42z"/>
	<path class="st97" d="M210,33c-0.7-0.3-1.9,0.5-2.1-0.9c0-1.9-1.2-3.8,0-5.7c1-0.7,1.9-1.4,2.9-2.2C210.6,27.2,210.3,30.1,210,33z"
		/>
	<path class="st38" d="M204.1,59.1c1.7,0.6,3.4,0.3,5.1,0.1c1.2,5.5,1.1,11,0.9,16.6c-0.1,4.6-0.9,9.4,7,7.8c-2.6,1-2.4,4.3-6,3.9
		c-1.9-0.2-0.7,3.3-1,5.2c-0.2,1.2-0.2,2.7,1.9,2.8c1.5,0.1,3.3-0.8,4.7,0.9c-0.3,1.4-4.3,0.4-2.3,3.4c0.3,0.4-0.2,0.9-0.8,0.6
		c-5.6-2.8-3.1,2.1-3.3,3.7c-0.2,2.8-1.3,6,1.6,8.2c0.7,1.2-0.6,2-0.7,3.3c1.9,1,4.4-0.2,6.1,1.6c0.4,1,0.2,1.8-0.7,2.5
		c-2.3,1-4.6-0.1-6.8,0.1c-0.9,0-1.7-0.3-2.5-0.5c-1.2-0.5-1.7-0.3-1,1c-0.3,0.6-0.8,1-1.4,1.1c-0.7,0-1.2-0.4-1.6-1
		c-0.5-0.9-1.4-1.7-1.6-2.8c0.7-1.6,2.8-2.6,1.7-4.8c0.3-0.6,0.7-1.1,1.4-1.3c0-10-0.7-20,0.6-29.9c0,1.2-0.5,2.6-0.5,3.9
		c-0.1,0.5-0.2,0.9-0.5,1.3c-0.3,0.3-0.7,0.5-1.2,0.6c-0.9-0.1-1.7-0.5-2.6-0.8c-1.3-0.5-2.5-0.3-3.5,0.6c-1.1,0.8-2.1,1.6-2.9-0.3
		c-0.5-2.4,0.7-4,2.9-4.5c4.1-1,4.8-4,5.2-7.5c0.4-3.5,0.1-7,0.3-10.4C202.6,62.7,202.3,60.6,204.1,59.1z"/>
	<path class="st142" d="M246.9,124c1.4,0.6,2.7,1.3,4.1,1.9c-0.1,0.3-0.1,0.6-0.2,0.9c-12.9,0-25.8,0-38.8,0c0-1.7,1.4-1.8,2.6-2.1
		c8.4,0.4,16.9,0.2,25.3,0.2c1.8,0,3.7,0.4,5.2-1.1C245.7,123.9,246.3,124,246.9,124z"/>
	<path class="st7" d="M216.6,117.3c-2.8-0.2-5.6-0.5-8.9-0.8c1.7-1.8,3-3.1,4.2-4.5c2.3-0.1,4.5-0.1,6.8-0.2
		c2.8-0.1,2.4,1.4,1.4,3.1C219.1,116,218.2,117.3,216.6,117.3z"/>
	<path class="st143" d="M204.9,120.5c0.3-0.1,0.6-0.3,0.9-0.4c0.3-0.4,0.7-0.5,1.2-0.5c0.7,0.2,1.2,0.6,1.8,1.1
		c3.1,4.2,5-0.3,7.4-1.1c1.7,0.5,3,1.3,2.8,3.4l-0.2,0.2l-0.3,0c-1.2,0.3-0.8,2.4-2.5,2.3c-1,0-1.9,0-2.9,0
		c-3.1,0.4-6.1,1.1-9.1-0.2C202.6,123.3,203.9,121.9,204.9,120.5z"/>
	<path class="st107" d="M213.9,125.2c1-0.1,2-0.2,3-0.4c7.2-0.8,14.4-0.1,21.7-0.4c1.8-0.1,3.6,0.5,5.3-0.5c0.4,0,0.8-0.1,1.2-0.1
		c-0.5,2.7-2.6,2.1-4.3,2.1c-8.9,0-17.9,0-26.8,0c-0.3-0.1-0.4-0.3-0.4-0.5C213.7,125.3,213.8,125.2,213.9,125.2z"/>
	<path class="st144" d="M243.9,124c-1.9,2.1-4.4,0.9-6.5,0.9c-6.8,0.1-13.6,0-20.4-0.1c-0.7-1.7,0-2,1.5-1.7
		c5.3,1.9,10.7,0.4,16,0.8C237.6,124.2,240.7,124,243.9,124z"/>
	<path class="st101" d="M218.9,123c-1-1.1-2-2.1-3-3.2c-0.3-0.4-0.2-0.8,0.2-1.1c0.2-0.5,0.3-0.9,0.5-1.4c0.7-1.5,1.8-2.3,3.5-2.4
		C219.9,117.7,223.3,120.9,218.9,123z"/>
	<path class="st145" d="M208,26.4c-0.2,1.9,2.7,3.8,0,5.7c-0.7,0.3-1.5,0.6-2.2,0.9C207.2,31,203.9,27.4,208,26.4z"/>
	<path class="st128" d="M204.1,59.1c-0.7,6.7,0.3,13.4-0.9,20.1c-0.5,3.1-1.2,4-4.2,4.1c-2.4,0.1-5.3,1-3.8,4.8
		c2.9,2.5,5-2.4,7.7-0.9l0,0c3,6.1,1.7,8.4-5,9.5c-1.4,0.7-2,2-1,3.1c1.6,1.9,3.2-0.5,4.9-0.4c0.8,0,1.5,0.3,1.9,1.1
		c0.9,3.8,1.4,7.6-0.6,11.3c-1.9,1.7-4.8,1.9-6.5,3.9c-1.3,1-2.7,2-4.5,1.9c-1-0.1-1.6-0.8-2-1.7c-1-11.2-0.2-22.5-0.4-33.7
		c-0.1-5.5,0-10.9,0-16.4c0-2.4,0.3-4.6,2.5-6.1c1.1-0.5,2.3-1.1,3.4-1.6c2.7-1.5,4.4-5.3,8.4-4C203.9,55.8,204,57.4,204.1,59.1z"/>
	<path class="st6" d="M192,59.7c-0.2,1.4-1.3,2.5-1.2,4.2c0.2,17.7,0.2,35.4,0.3,53c-0.9,0.7-1.8,0.7-2.6-0.1
		c-1-1.5-1.1-3.1-1.1-4.8c0-16-0.3-32,0.1-47.9c-1.3-3.1-4-1.1-6-1.6c-2.3-0.6-5.4,1.2-6.6-2.4C180.7,60.1,186.4,60.6,192,59.7z"/>
	<path class="st98" d="M127,33c0.3-1.6,1.4-2.1,3-1.9c2.8,1.1,5.2,2.1,7-1.9c0.8-1.8,3.7-2.5,5.9-3.2c0,3.3,1.4,6.7-0.8,9.7
		c-0.9-2-2.8-1.1-4.3-1.5c-1.3,0-2.5-0.1-3.8-0.1C131.7,32.6,129.2,33.6,127,33z"/>
	<path class="st69" d="M175,60.1c4.4,2.3,9.2,0.5,13.7,1.1c0.1,0,0.4,0.2,0.3,0.2c0,0.3-0.1,0.5-0.2,0.7c-4.4,2.5-9.1,1.2-13.7,1.1
		c-1-0.2-1.8-0.5-2.5-1.3c-1.3-4-1.8-8.1,0.4-12c0.4-0.4,0.7-0.8,1.1-1.2C175.7,52.5,174.2,56.3,175,60.1z"/>
	<path class="st146" d="M203.8,54.2c-3.3,0.3-5.4,3.1-8.4,4c1.6-3.6,5-4.8,8.2-6.3C203.7,52.6,203.8,53.4,203.8,54.2z"/>
	<path class="st55" d="M163.8,85.2c-0.6-0.1-1.2-0.2-1.9-0.3c0-0.7,0.1-1.4,0.1-2.1c1.9-1.5,0.8-3.6,0.8-5.4
		c0.1-8.4,0-16.8-0.1-25.2c0.7-1.1,1.4-2.1,2.2-3.2c0.3,0.3,0.7,0.6,1,0.9c2.6,3.6,1.4,7.7,1.3,11.6c-0.3,8.6-0.3,17.2-0.3,25.8
		c0,1.6,0.4,3.4-1.1,4.7c-0.6-1.4-1.2-2.7-1.8-4.1c1-7.8,0.1-15.6,0.4-23.3c0.1-2-0.3-4,0-5C164,67.5,165.3,76.4,163.8,85.2z"/>
	<path class="st147" d="M122.9,46.4c-1.9-0.1-3.8-0.3-5.7-0.4c-0.1-0.3-0.2-0.5-0.3-0.8c6.2-1.4,12.4-0.2,18.7-0.6
		c3.5-0.2,6.9,0.4,10.4-0.3c0.7-0.1,1.4-0.2,2-0.3c0.4,0,0.7,0.1,1.1,0.1c5.3-0.6,10.7-0.7,16,0c-0.4,2.9-2.8,1.8-4.3,1.9
		C148.1,46.2,135.5,46.3,122.9,46.4z"/>
	<path class="st5" d="M165.9,92.1c0-14,0-28,0.1-42.1c0.3,0,0.7,0,1,0c0.2,0.2,0.4,0.5,0.7,0.7c1.4,3.5,1.1,7.3,0.6,10.8
		c-1.2,9.4-0.6,18.9-0.8,28.3c0,1,0.8,2.8-1.3,2.9C166.1,92.5,166.1,92.3,165.9,92.1z"/>
	<path class="st122" d="M165,44.1c-5.3,1.3-10.7,1.6-16,0c0-0.9,0.1-1.8,0.1-2.7c0.6,0,1.2-0.1,1.8-0.1c3.2,1.7,6.7,0.4,10,0.8
		C162.6,42.1,163.9,43,165,44.1z"/>
	<path class="st2" d="M125,48.9c-1.3,0.3-1.6-0.6-1.7-1.6c7.6,0,15.1-0.1,22.7-0.1c0.2,0.2,0.3,0.4,0.2,0.6
		c-0.1,0.2-0.2,0.3-0.2,0.3C139,48.5,131.9,47.2,125,48.9z"/>
	<path class="st3" d="M166.9,46.9c-1.9-0.9-0.6-2.5-0.9-3.7c1.4-1.3,2.9-2.5,4.9-1l-0.1,0.2c1.7,2.1,1.7,4.2-0.3,6.1
		C168.9,49.1,168.2,47.4,166.9,46.9z"/>
	<path class="st102" d="M146,48.2c0-0.3,0-0.6,0-0.9c6.3,0.1,12.6-1.1,18.8,0.7C158.5,48,152.3,48.1,146,48.2z"/>
	<path class="st28" d="M160.9,42c-3.4,0.9-6.9,2.8-10-0.8c3.4,0,6.7,0,10.1,0C161,41.5,161,41.8,160.9,42z"/>
	<path class="st148" d="M173,50.1c0.1,4,0.2,7.9,0.3,11.9c0.9,2.3,2.4,4.8-1.4,6.1c-1.6-5.1-1.4-10.4-1.2-15.7
		c0.1-1,0.5-1.8,1.2-2.5C172.3,49.9,172.6,50,173,50.1z"/>
	<path class="st149" d="M171.9,49.8c0,0.7-0.1,1.5-0.1,2.2c-2.6,1.9-3.6-0.3-4.8-2l0,0c0-1,0-2.1-0.1-3.1c0.2-0.7,0.6-1.2,1.4-0.9
		c1.2,0.4,0.4,1.4,0.7,2.1c0.7,1.1,2.6-0.3,3,1.4L171.9,49.8z"/>
	<path class="st11" d="M172,49.4c-0.9-0.7-2.4,0-3-1.4c3.8-0.9,1.2-3.8,1.8-5.7C175.3,44,173,46.8,172,49.4z"/>
	<path class="st12" d="M170.9,42.1c-1.6,0.3-3.3,0.7-4.9,1c0.2-1.3-0.3-3,1.9-3.1C169.5,40,170.9,40.1,170.9,42.1z"/>
	<path class="st106" d="M145.9,40.8c-9.3,0.1-18.6,0.1-27.8,0.2C127.3,39.4,136.6,39.8,145.9,40.8z"/>
	<path class="st106" d="M117,40.9c-5,0-9.9-0.1-14.9-0.1C107.1,39.6,112,39.6,117,40.9z"/>
	<path class="st150" d="M145.9,43c-14.6,0-29.3,0.1-43.9,0.1c0.5-1.2,1.6-1,2.5-1c12.9,0,25.8,0,38.7,0
		C144.2,42.1,145.3,41.8,145.9,43z"/>
	<path class="st142" d="M93,41.9c-0.8,0.1-1.7,0.3-2.5,0.1c-1.5-0.3-3.4,1.2-4.3-1c-0.3-0.8,0.3-1.9,1.3-1.7c2.1,0.4,4.6-1.3,6.3,1
		C93.9,40.6,93.2,41.4,93,41.9C92.9,42,93,41.9,93,41.9z"/>
	<path class="st151" d="M213.9,125.2c0,0.2,0,0.5,0.1,0.7c-0.7,0.3-1.3,0.6-2,0.9c-12.3,0-24.7,0.1-37,0.1c-0.1-0.3-0.1-0.6,0.1-0.9
		c3.8-2.6,8.1-1.7,12.3-1.5c4.8-0.9,9.8-0.1,14.6-0.7c0.8,0.1,1.4,0.5,2,0.9C207.3,125,210.6,125.1,213.9,125.2z"/>
	<path class="st116" d="M178,130.1c-0.3-0.1-0.5-0.3-0.8-0.3c-0.4-0.6-0.8-1.2-1.1-1.7c3,0,5.9,0,8.9-0.1c1.7-0.1,3.3,0,4,2
		c0,0,0-0.1,0-0.1C185.3,131.7,181.6,131.4,178,130.1z"/>
	<path class="st152" d="M145.9,44.3c-4.8,1.7-9.8,0.5-14.6,0.8c-4.8,0.2-9.6,0.1-14.4,0.1c-1-1.9,0.7-1.1,1.2-1.1
		C127.4,44.1,136.6,44.2,145.9,44.3z"/>
	<path class="st47" d="M141.3,135c-4.3,2.1-8.8,0.6-13.2,1c4.5-2.3,9-4.6,13.9-7.2C141.7,131.2,141.5,133.1,141.3,135z"/>
	<path class="st109" d="M142.4,57.3c3.9,0,7.1,0,10.4,0c1,0,2.1,0.1,2.1,1.5c0,1.4-1.1,1.5-2.1,1.4
		C149.4,59.8,145.5,61.8,142.4,57.3z"/>
	<path class="st33" d="M139.9,56.1c5.2-2.1,10.7-0.6,16-0.9c0,0.3,0.1,0.6,0.1,0.9C150.6,56.1,145.2,56.1,139.9,56.1z"/>
	<path class="st153" d="M156.1,54.3c-6-0.1-12-0.2-18-0.3c0.3-0.3,0.7-0.7,1-1c5.9-0.7,11.9-0.7,17.8,0c0.4,0,0.8,0.1,1.2,0.1
		c0,0.7,0,1.3-0.1,2C157.4,54.8,156.7,54.5,156.1,54.3z"/>
	<path class="st101" d="M156.9,53c-5.9,0-11.9,0-17.8,0C145,51.5,150.9,51.5,156.9,53z"/>
	<path class="st154" d="M116.3,140c-2.9-0.8-5.8-1.7-4-5.8C112.7,136.8,115.9,137.4,116.3,140z"/>
	<path class="st155" d="M167,50.1c1.6,0.8,2.8,2.3,4.8,2c0.1,5.2,0.2,10.5,0.3,15.7c0.4,0.5,0.7,1,0.9,1.6c0.2,0.6,0.2,1.3,0.3,1.9
		c0.1,11.9,0.1,23.8,0,35.7c0,2.1,0.4,4.4-1.5,6c-0.4-0.1-0.7-0.2-1.1-0.2c0.1-14.4,0.7-28.8-0.5-43.2c0-0.3-0.1-0.7-0.1-1
		c0.2-1.1,1.8-2.8-0.4-3.1c-1.9-0.2-0.8,2.1-1.5,3.2c-0.3,0.4-0.2,1-0.3,1.4c-0.1,8-0.2,16-0.3,24c-0.9,0-1.7-0.1-1.7-1.3
		c2-5.4,0.7-11,0.8-16.5C167.2,67.6,167,58.8,167,50.1z"/>
	<path class="st106" d="M171.8,113.1c0.1-14.3,0.1-28.6,0.2-42.9c3.1,0.8,2.2,3.4,2.2,5.3c0.1,9.8,0.1,19.6,0.1,29.4
		c-0.7,5,1.4,10.3-1.5,15.1c-1.4-1-0.3-2.7-0.9-3.9C171.9,115,171.9,114,171.8,113.1z"/>
	<path class="st101" d="M172.9,119.9c0.1-4.9,0.1-9.9,0.2-14.8c0.4-0.4,1-0.6,1.6-0.4c0.5,0.3,0.9,0.7,1.2,1.2
		c1,5.6,0.7,11.2,0.2,16.8c-0.2,0.5-0.4,1-0.8,1.5c-1.7,0.5-2.8,0.4-2.3-1.8C172.9,121.5,172.9,120.7,172.9,119.9z"/>
	<path class="st155" d="M188,125.9c-4.3,0-8.6,0.1-12.9,0.1c-0.4-0.1-0.8-0.1-1.1-0.2c-0.3-0.8,0.2-1.3,0.9-1.5
		c0.1-0.1,0.2-0.3,0.2-0.5c3.8-0.6,5.6-4.4,9.1-5.4c0.4,0.1,0.8,0.3,1.2,0.6c0.9,1.2-0.4,2.9,1,4c0.4,0.2,0.7,0.4,1,0.7
		C187.9,124.4,188.5,125,188,125.9z"/>
	<path class="st10" d="M174.8,124.3c-0.3,0.5-0.6,1-0.9,1.5c-0.6,0.3-1.8-0.2-1.8,1.1c0,1,1.6,2.9-0.9,2.7c-1.4-0.1-1.2-2-1.2-3.3
		c0.1-1.9,0.1-3.9,2.8-4C172.7,123.8,173.8,124,174.8,124.3z"/>
	<path class="st27" d="M163.8,85.2c0-9.4,0-18.8,0-28.2c0.4,0,0.8,0,1.3,0c-0.8,10.3,1.2,20.6-1,30.9
		C164,87.1,163.9,86.1,163.8,85.2z"/>
	<path class="st153" d="M248.9,131c-0.7,1.3-2,1-3.1,1c-17.1,0-34.2,0-51.3,0c-0.6,0-1.2-0.2-1.8-0.9C211.5,131,230.2,131,248.9,131
		C248.9,131,248.9,131,248.9,131z"/>
	<path class="st123" d="M178,130.1c3.6-0.1,7.3-0.2,10.9-0.2c0,0.4,0.1,0.8,0.1,1.2c-3.6,0.9-7.2,0.5-10.8,0.2
		C178.1,130.8,178,130.5,178,130.1z"/>
	<path class="st39" d="M178.1,131.2c3.6-0.1,7.2-0.1,10.8-0.2C185.4,132.7,181.8,132.3,178.1,131.2z"/>
	<path class="st156" d="M204.3,87c-0.2-3,0-6,1.6-8.8c0,11.3,0,22.6,0,33.9c0,0.1-0.3,0.3-0.4,0.3c-0.3,0-0.6-0.1-0.9-0.2
		c-0.9-0.6-1.2-1.5-1.1-2.5c0.6-4.3,0.2-8.6-0.7-12.9C204.5,93.6,202.7,90,204.3,87z"/>
	<path class="st85" d="M195.7,114.8c1.5-2.2,3.6-3.1,6.3-2.8c0.8,0,1.5,0.3,2,1c3.6,3.3-2.2,3.3-1.9,5.4c-1.6,2.1-3.2,4.3-6.3,2.6
		C194.1,118.9,195,116.9,195.7,114.8z"/>
	<path class="st157" d="M204,113c-0.8,0-1.6-0.1-2-1c2.1-3.9,0.6-8,0.9-12c-0.4-0.6-1.2-0.5-1.7-0.8c-0.4-0.2-0.7-0.6-1.2-0.8
		c0.1,0.7,0.9,0.9,1,1.5c-1.1,2.2-3.1,2.9-4.8,1.6c-1.8-1.4-2-3.6-0.1-5.5c2.6-0.8,5.2-0.8,7.8,0c1.6,5.3,0.2,10.7,0.8,16.1
		C204.4,112.4,204.2,112.7,204,113z"/>
	<path class="st74" d="M216.1,118.7c-0.1,0.4-0.1,0.7-0.2,1.1c-3.2,5.6-4.3,5.8-7.9,1.2c0-0.9,0-1.8,0.9-2.4
		C211.3,117.4,213.7,119.4,216.1,118.7z"/>
	<path class="st132" d="M197.1,121.2c1.7-0.9,3.3-1.9,5-2.8c1.2-0.1,2,0.4,2,1.8c-1.5,2.4-4.1,3.2-6.3,4.5c-1.2,0-2.4,0.2-3.6-0.3
		C193.5,121.7,195.5,121.7,197.1,121.2z"/>
	<path class="st158" d="M203.8,96c-2.6,0-5.2,0-7.8,0c0.1-0.1,0.1-0.4,0.3-0.4c6.9-1.4,6.9-1.4,6.6-8.5c0.5,0,0.9-0.1,1.4-0.1
		C204.3,90,204.7,93,203.8,96z"/>
	<path class="st159" d="M197.7,123.9c2.1-1.2,3.5-3.8,6.3-3.7c0.3,0.1,0.6,0.2,0.9,0.4c0.6,1.7-1,2.9-0.9,4.4c-0.7,0-1.4,0-2.1,0.1
		C200.8,123.5,198.8,125.4,197.7,123.9z"/>
	<path class="st158" d="M202.9,87.1c-2.1-0.4-2,2.3-3.6,2.6c-1.7,0.3-3.6,0.7-4.1-1.8c0.6-0.7,1.1-1.3,1.7-2c1.3,1,2.7-0.4,4,0
		C201.8,86,202.5,86.2,202.9,87.1z"/>
	<path class="st160" d="M200.9,86c-1.3,0.9-2.7,4.6-4,0C198.2,84.9,199.5,84.5,200.9,86z"/>
	<path class="st92" d="M208.9,118.6c0.1,0.9,0,1.8-0.9,2.4c-0.4-0.4-0.7-0.8-1.1-1.2c-0.5-0.6-0.5-1.2,0-1.8
		C207.6,118.2,208.2,118.4,208.9,118.6z"/>
	<path class="st113" d="M206.9,118c0,0.6,0,1.2,0,1.8c-0.4,0.1-0.8,0.1-1.1,0.2C204.9,118.7,204.4,117.5,206.9,118z"/>
	<path class="st45" d="M197.1,121.2c-1,0.9-2,1.8-3,2.7c-2.3,0.9-4.7,1.4-7.1,0.3l-0.1-0.4c-0.1-1.4,1-2.4,1.3-3.6
		c0.6-2.6,3-2.4,4.7-3.2c0.4-1.4,1.7-1.6,2.7-2.1C196.6,116.9,194.9,119.4,197.1,121.2z"/>
	<path class="st161" d="M193,116.9c-1.2,1.5-3.7,1.5-4,3.9c-2.5,1.8-2.8-1.1-4-1.9l0.1,0.1c0.2-2.5,2-2.4,3.8-2.2c0.8,0,1.5,0,2.3,0
		C191.7,116.9,192.3,116.9,193,116.9z"/>
	<path class="st151" d="M201,100c-0.3-0.2-0.6-0.3-0.8-0.5c-0.9-0.7-2.4,0.9-3-0.7c-0.1-0.4,0.4-1.3,0.8-1.5
		c1.1-0.5,2.3-0.6,2.9,0.9c0.4,1,1.9,0.6,2,1.9C202.2,100,201.6,100,201,100z"/>
	<path class="st0" d="M188.8,116.8c-1.3,0.7-2.5,1.5-3.8,2.2c-1.6-0.8-2.6,0.2-3,1.4c-1.2,3.6-4,3.6-6.9,3.4
		c-0.1-6.3-0.2-12.5-0.3-18.8c-1.4-2.6-0.7-5.5-0.8-8.3c-0.2-9.1,0.2-18.1-0.2-27.2c0.2-2.5-0.6-5.2,1.3-7.5c4.6,0,9.2,0,13.8,0.1
		C188.8,80.4,188.8,98.6,188.8,116.8z"/>
	<path class="st162" d="M175.1,62.1c-0.1,2-0.2,4-0.3,5.9c-0.3,0.5-0.5,1.1-1,1.5c-0.6,0.2-1.2,0.1-1.7-0.3c0-0.5,0-0.9,0-1.4
		c1.7-1.7,0.3-4,1.1-5.8C173.9,62,174.5,62.1,175.1,62.1z"/>
	<path class="st143" d="M187,124.2c2.4-0.1,4.7-0.2,7.1-0.3c1.2,0,2.4,0,3.7,0c1.4,0.5,3.4-1.4,4.2,1.1c-4.7,0.3-9.3,0.7-14,1
		C187.6,125.4,187.3,124.8,187,124.2z"/>
	<path class="st163" d="M172.1,69.2c0.6,0,1.2-0.1,1.9-0.1c0.8,12,0.9,23.9,0,35.9c-0.3,0-0.6,0-0.8,0.1c0-10.1,0-20.2-0.1-30.3
		c0-1.5,0.8-3.3-0.9-4.6C172,69.8,172,69.5,172.1,69.2z"/>
	<path class="st103" d="M168.1,63.6c0-3.6,0-6.3,0-8.9C170.3,56.6,170.6,60.2,168.1,63.6z"/>
	<path class="st164" d="M173.9,105c0-12,0-23.9,0-35.9c0.3-0.3,0.5-0.7,0.8-1c0,12.3,0,24.7,0,37C174.5,105.1,174.2,105,173.9,105z"
		/>
	<path class="st165" d="M184.9,118.9c2.2-1.2,1.9,3,4,1.9c0.7,1.9-1.2,2-2,2.9c-1.1,0.1-2.2,0.1-4,0.2
		C184,122.2,185.9,121,184.9,118.9z"/>
</g>
</svg>
