<?xml version="1.0" encoding="utf-8"?>
<!-- Generator: Adobe Illustrator 24.0.1, SVG Export Plug-In . SVG Version: 6.00 Build 0)  -->
<svg version="1.1" id="Слой_1" xmlns="http://www.w3.org/2000/svg" xmlns:xlink="http://www.w3.org/1999/xlink" x="0px" y="0px"
	 viewBox="0 0 142 200" style="enable-background:new 0 0 142 200;" xml:space="preserve">
<style type="text/css">
	.st0{fill:#FDFDFD;}
	.st1{fill:#EAEED7;}
	.st2{fill:#E8E7E4;}
	.st3{fill:#E8E8E7;}
	.st4{fill:#DDD96E;}
	.st5{fill:#86877E;}
	.st6{fill:#B5A656;}
	.st7{fill:#CFC75A;}
	.st8{fill:#D5D5D6;}
	.st9{fill:#B1B1B1;}
	.st10{fill:#E9E8E7;}
	.st11{fill:#818181;}
	.st12{fill:#9A9A9A;}
	.st13{fill:#E8E7E8;}
	.st14{fill:#CFCFCE;}
	.st15{fill:#484848;}
	.st16{fill:#E1E0E1;}
	.st17{fill:#A5A5A5;}
	.st18{fill:#D3D3D3;}
	.st19{fill:#272827;}
	.st20{fill:#A3A3A0;}
	.st21{fill:#97988F;}
	.st22{fill:#7C7C7C;}
	.st23{fill:#9C9C9C;}
	.st24{fill:#5C5C5C;}
	.st25{fill:#828282;}
	.st26{fill:#A4A4A2;}
	.st27{fill:#EBEBEB;}
	.st28{fill:#888A80;}
	.st29{fill:#F8FAF0;}
	.st30{fill:#FCFDF5;}
	.st31{fill:#FBFDF3;}
	.st32{fill:#9A9C93;}
	.st33{fill:#91928D;}
	.st34{fill:#989895;}
	.st35{fill:#9F9E9A;}
	.st36{fill:#9C9E94;}
	.st37{fill:#9A9B94;}
	.st38{fill:#A0A092;}
	.st39{fill:#9D9D9D;}
	.st40{fill:#989A90;}
	.st41{fill:#9E9F96;}
	.st42{fill:#6F6F6F;}
	.st43{fill:#CCCCCC;}
	.st44{fill:#69643E;}
	.st45{fill:#5C5C5A;}
	.st46{fill:#ABA699;}
	.st47{fill:#655827;}
	.st48{fill:#C2BA47;}
	.st49{fill:#7C6F33;}
	.st50{fill:#B8A64B;}
	.st51{fill:#68582D;}
	.st52{fill:#A3932D;}
	.st53{fill:#756736;}
	.st54{fill:#DBD869;}
	.st55{fill:#717170;}
	.st56{fill:#8E8E8E;}
	.st57{fill:#CECA74;}
	.st58{fill:#DEDE82;}
	.st59{fill:#C9C66B;}
	.st60{fill:#615F4A;}
	.st61{fill:#827F43;}
	.st62{fill:#DCE2BD;}
	.st63{fill:#B6B89D;}
	.st64{fill:#949295;}
	.st65{fill:#969497;}
	.st66{fill:#DFDEDF;}
	.st67{fill:#9F9F9F;}
	.st68{fill:#B3B3B3;}
	.st69{fill:#DEDEDE;}
	.st70{fill:#D6D6D6;}
	.st71{fill:#E4E9C3;}
	.st72{fill:#E3E6C7;}
	.st73{fill:#E0DEE0;}
	.st74{fill:#A1A296;}
	.st75{fill:#CDCDCD;}
	.st76{fill:#C8C8C8;}
	.st77{fill:#656565;}
	.st78{fill:#9D9D93;}
	.st79{fill:#B6B7AD;}
	.st80{fill:#B5B5B5;}
	.st81{fill:#5C5D5C;}
	.st82{fill:#DADBDA;}
	.st83{fill:#808080;}
	.st84{fill:#888888;}
	.st85{fill:#8F8F8E;}
	.st86{fill:#797979;}
	.st87{fill:#D7D7D7;}
	.st88{fill:#8B8B8B;}
	.st89{fill:#898989;}
	.st90{fill:#C5C5C5;}
	.st91{fill:#636363;}
	.st92{fill:#C7C7C7;}
	.st93{fill:#A09FA0;}
	.st94{fill:#EFEA7B;}
	.st95{fill:#BCAE2A;}
	.st96{fill:#59574F;}
	.st97{fill:#4E4B32;}
	.st98{fill:#B3B356;}
	.st99{fill:#70725C;}
	.st100{fill:#E6E4E7;}
	.st101{fill:#D0D0D0;}
	.st102{fill:#B3B2B5;}
	.st103{fill:#D1D1D0;}
	.st104{fill:#DADADA;}
	.st105{fill:#E8E475;}
	.st106{fill:#F1F4D7;}
	.st107{fill:#A8A8A8;}
	.st108{fill:#828280;}
	.st109{fill:#E8EBCC;}
	.st110{fill:#FAFCE2;}
	.st111{fill:#504E4D;}
	.st112{fill:#696868;}
	.st113{fill:#807F7B;}
	.st114{fill:#BEBEBF;}
	.st115{fill:#ACACAC;}
	.st116{fill:#CECECE;}
	.st117{fill:#DAD8DC;}
	.st118{fill:#C6C6C6;}
	.st119{fill:#E7E6E7;}
	.st120{fill:#B2B2B2;}
	.st121{fill:#989898;}
</style>
<g>
	<path class="st0" d="M35.2,0.1c34.4,0,68.8,0,103.3-0.1c3,0,3.6,0.6,3.6,3.6c-0.1,64.3-0.1,128.6,0,192.8c0,3-0.6,3.6-3.6,3.6
		c-44.9-0.1-89.8-0.1-134.7,0c-3,0-3.6-0.6-3.6-3.6c0.1-32.5,0.1-64.9,0.1-97.4c1.7-0.7,2.7,0.6,3.9,1.4c2.1,3.4,5.9,5.9,6.2,10.4
		c0,5.1-2.3,10.5,1.8,15.2c0.7,0.9-0.1,1.9-0.8,2.6c-0.9,0.8-2,1.2-3,1.7c-1.8,0.9-3.8,1.7-3.5,4.2c0.4,2.7,2.4,3.8,4.9,4.1
		c0.8,0.1,1.7,0.1,2.5,0.1c4.1,0.5,8.2-0.5,12.3-0.2c3.4,0.3,6.2,0.8,6.7,5c0.2,2.4,2.7,3.7,3.6,5.9c-0.2,4.1-0.7,8.1-3,11.7
		c-1.2,1-2.7,0.9-4.2,1.1c-2.5,0.3-4,1.7-3.8,4.2c0.3,2.8,2.3,3.8,4.9,3.9c1.8,0.1,3.3-1.4,5.2-0.9c2.8,2.2,4,0.8,4.8-2
		c1.6-5.8,1.7-5.9,7.3-3c1.4,0.7,2.8,0.8,4.2,1.1c5.8,5.8,9.9,12.9,14.7,19.6c0.7,1.4,0.8,3.3,3,3.3c1.1-0.6,2-1.5,3.4-1
		c2.5,1.3,3.6,3.9,5.5,5.8c1.3,1.4,2.3,3.5,4.7,1.6c3.9-0.9,7.7-2.1,11.1-4.5c1.1-0.1,2.1,0.2,3,0.6c7.6,0.8,15.3,0.1,22.9,0.3
		c1.7-0.2,3.2,0.2,4.8,1c2.1,1.1,4.2,0.7,6.3,0c1.8-0.6,2.6-2.1,2.5-3.9c-0.1-2-1.4-3-3.2-3.1c-3.5-0.2-7.2-0.9-7.9,4.2
		c-0.1,1.1-0.9,1.7-2.1,1.7c-7.1,0-14.3,0-21.4,0c-1.5,0-1.7-0.8-1.3-2.1c0.9-2,2.9-2,4.6-2.3c1.2-0.5,1.5-1.9,2.4-2.7
		c1-0.8,2.3-1.3,3-2.4c1.1-4,0.3-8.1,0.5-12.1c0-0.6,0-1.1,0-1.7c0.2-5.7-0.3-11.4,0.4-17c-0.7-25.6-0.1-51.2-0.4-76.8
		c-0.3-2.3-1.1-4.3-3.7-4.9c-1.2-0.7-2-1.7-2.8-2.8c-1.8-2.5-4.1-4.6-6.5-6.6c-0.5-0.4-1-0.9-1.4-1.4c-3.8-4.8-8.8-8.5-12.8-13.3
		c-0.6-3.3-4.9-1.9-6-4.6c-6.6-7.8-14.8-13.9-21.8-21.2c-2.1-2.2-4.4-4-6.2-6.5c-2.9-4.4-7.6-7.2-10.5-11.6
		C34.7,0.9,34.8,0.4,35.2,0.1z"/>
	<path class="st1" d="M64,185.7c-4.7-6.6-9.4-13.1-14.1-19.7c-4.8-2.6-6.7-7.7-9.8-11.7c-1.8-2.4-3.4-4.9-5.5-7.1
		c-2-3.9-5-7.1-7.4-10.7c-1.1-2.7-2.7-5.1-5-6.9c-2.6-3.6-4.9-7.4-8.9-9.6c-1.7-0.9-1.2-2.5-1.4-3.9c-0.4-2-1.6-3.5-2.8-5.1
		c0-4.4-4.6-6.1-5.6-10c-1.5-1.7-3.5-3.2-2.5-6C1.2,78.5,1.5,61.9,1,45.3c-0.4-2.4-0.3-4.8-0.1-7.3c0.6-9.4,0.6-18.7,0-28.1
		c0-3.3-0.6-6.6,0.4-9.9c0.3,0,0.7,0,1,0c0.5,0.5,0.9,1,1.1,1.7c0.6,2.3,2.5,3.7,3.9,5.3c0.3,0.3,0.6,0.7,0.8,1.1
		c1.2,2.1,2.9,3.7,4.7,5.2c0.9,0.7,1.7,1.4,2.3,2.4c1.1,2.4,3,4,4.9,5.5c1.9,1.9,3.6,4,4.9,6.4c1.2,2.4,3.2,4.1,5.2,5.7
		c3.9,4.7,8.4,8.9,11.9,14c0.9,2.7,3.3,4.3,5,6.4c0.5,0.6,0.8,1.4,0.9,2.2c0,0.6-0.1,1.1-0.2,1.7c-0.1,20.6-0.2,41.1,0.1,61.7
		c0.8,2.4,0.5,5.1,1.8,7.4c0.2,0.4,0.4,0.9,0.5,1.3c0.8,2.5,1.3,5.2,3.2,7.3c0.7,0.9,1,2,1.1,3.2c0.1,2.7,1.1,5.2,2.3,7.7
		c0.2,0.4,0.4,0.8,0.5,1.3c1.9,5.9,3.8,11.9,6.5,17.5c1,1.2,0.4,2.9,1.2,4.2c1,2.6,1.8,5.2,3,7.6c0.2,0.5,0.3,1,0.4,1.5
		c0.3,2.2,0.3,4.3,0.1,6.4c-0.1,1.1-0.2,2.6-1.4,3C65.3,188.4,64.8,186.7,64,185.7z"/>
	<path class="st2" d="M46.9,55c-0.3-0.1-0.5-0.3-0.7-0.6c-1.1-2.6-3.7-4-5.1-6.4c-3.9-4.6-7.7-9.2-11.6-13.8c-1.9-2-3.8-4-5.6-6.1
		c-1.5-2-2.9-3.9-4.4-5.9c-1.7-2.1-3.9-3.8-5.4-6.2c-0.6-0.5-1.3-1.1-1.9-1.6c-1.2-2.5-3.7-3.9-5-6.3l0,0.1c-1.3-2.4-4-3.8-5.1-6.4
		c0-0.5,0-1.1,0-1.6c0.7,0,1.3,0,2,0c1.6,1,3.3,2,4.8,3.2c2.2,1.7,3.4,4.3,5.7,6c0.8,0.7,1.7,1.4,2.3,2.4c1.1,2.4,3.1,4.1,4.9,5.8
		c2.3,1.8,3.8,4.3,6,6.2c1.2,2.5,3.5,4.1,5,6.4c1,1.6,2.4,3,3.7,4.3c1,1,2,2.1,3.1,3.1c1.2,1.2,2.4,2.4,3.3,3.8
		c0.4,0.5,0.8,1,1.2,1.5c2.4,2.4,4.6,4.9,6.6,7.7c0.6,0.8,1,1.7,0.9,2.7c-0.6,1.7-1.8,2.3-3.5,2.4C47.7,55.6,47.2,55.4,46.9,55z"/>
	<path class="st3" d="M35.2,0.1c0,0.3,0,0.6,0,0.9c3.1,4.4,7.2,7.8,11,11.4C54,20.2,61.8,27.9,70.2,35c1.7,1.4,2.7,3.3,4.1,4.9
		c0.4,1.7-0.9,2.1-2,2.7c-1.9,0.5-3.2-0.5-4.5-1.8c-1.2-2.5-4-3.3-5.6-5.4c-2-2.2-4.8-3.5-6.6-6c-3.2-2.6-5-6.6-8.7-8.8
		c-1.6-1.5-2.6-3.6-4.3-5c-1.2-1.3-2.5-2.5-3.4-4c-2.3-3-5-5.6-8-7.9c-1-1-2.2-2-1-3.6C31.8,0.1,33.5,0.1,35.2,0.1z"/>
	<path class="st4" d="M30.2,0.1c-0.2,1.5,0.6,2.4,1.8,3.2c0.8,0.3,0.9,1,1.2,1.6c0.4,1.1,0.8,2.2,0.6,3.4c-0.7,1.7-2.2,2-3.6,1.3
		c-2-0.9-1.5,0.9-2,1.6c-0.5,1.1-1.3,2-2.6,2.2c-0.9,0-1.9-0.2-2.8-0.4c-2.4-0.7-3.6-2.7-5.3-4.2c-2.2-2.5-5.2-4.1-7.5-6.4
		c-0.1-1.1,0.7-1.7,1.3-2.4c3.3,0,6.7,0,10,0c0.3,0.4,0.1,0.9,0.2,1.3c0.6-0.2,0.4-0.9,0.8-1.3C24.9,0.1,27.5,0.1,30.2,0.1z"/>
	<path class="st5" d="M1.2,0.1c0,3.4,0.1,6.7,0.1,10.1c0.6,9.3,0.5,18.5,0,27.8c0,2.4,0,4.8,0,7.2C2,62.1,1.9,79,1.4,95.9
		c-0.4,2.2,1.8,3.3,2.2,5.2c-1.7,0.2-1.8-2-3.3-2.1c0-31.6,0-63.3,0.1-94.9C0.3,2.8-0.8,1,1.2,0.1z"/>
	<path class="st6" d="M11.2,0.1c0.1,0.8,0.1,1.5-0.7,2C9.9,2.9,9.2,3.8,8.1,4C6.8,2.7,5.5,1.4,4.2,0.1C6.6,0.1,8.9,0.1,11.2,0.1z"/>
	<path class="st7" d="M22.2,0.1c1.2,1.6,0.7,2.5-1.1,3.1c-0.6,0.2-1.2,0.8-1.6,0c-0.9-1.7,1.2-2,1.7-3.2C21.5,0.1,21.9,0.1,22.2,0.1
		z"/>
	<path class="st8" d="M103,68.8c2.4-0.7,3.4,0.7,4,2.7c0.8,1.7,0.5,3.6,0.5,5.4c0,24.2,0,48.4,0,72.6c0,1.2-0.5,2.4-0.9,3.5
		c-0.9,1.3-2,2.4-3.8,2c-0.4-0.5-0.7-1-0.9-1.6c-0.7-13.3-0.1-26.7-0.3-40c0-0.6,0-1.2,0-1.9c0.1-11.4,0-22.8,0-34.1
		c0.1-1.3-0.2-2.7,0-4C105.8,73,101.8,70.1,103,68.8z"/>
	<path class="st9" d="M97,188.8c-0.3,0.6-0.6,1.3-0.9,1.9c-0.3,1-1.5,0.4-2,1.1c-0.7-0.3-1.4-0.6-2.1-0.9c-2.9,3.2-6.6,4-10.7,3.4
		c-1.4-0.9-1.9-2.2-1.8-3.9c1.2-2-0.2-4.5,1.3-6.5c2.4-0.7,3,1.6,4.2,2.7c2,1.7,3.9,2.4,6.3,0.6c-1.8-4.6-6.1-7.5-8-11.9
		c-0.2-1.7,0.3-3,2.3-3.2c0.8,0.1,1.4,0.4,1.9,1c2.5,4.5,5.6,8.6,9.1,12.3C97.4,186.6,98,187.6,97,188.8z"/>
	<path class="st10" d="M72.1,41.5c0.7-0.5,1.4-1.1,2.1-1.6c0.9,0.8,1.4,2.4,3.1,1.9c3.1-0.8,2.5,1.5,2.7,3.2c1.9,3.1,5,5.1,7.3,7.8
		c1.4,1.6,3.4,2.7,4,4.9c-0.3,1.3-1.1,2-2.3,2.6c-1,0.2-1.8-0.3-2.5-1c-0.9-1.3-2.4-1.9-3.4-3.1c-1.2-2.3-3-4.1-5.3-5.4
		c-0.6-0.3-1.2-0.7-1.7-1c-0.4-0.3-0.7-0.6-1.1-0.9C74,46.5,70.3,45.2,72.1,41.5z"/>
	<path class="st11" d="M106.8,150.9c0.1-26.5,0.1-52.9,0.2-79.4c1.6,1.7,1,3.8,1,5.7c0,22,0,43.9,0.1,65.9c0,2.1-1.2,4.6,1.4,6.3
		c0.5,0.4-0.8,1.1-1.4,1.6C107.6,151.4,107.2,151.3,106.8,150.9z"/>
	<path class="st12" d="M75.9,194c-1.6-2-3.2-4.1-4.8-6.1c-2.5-3.5,0.1-8-2.3-11.6c0.3-1.2,1.1-1.9,2-2.6c1.2-0.3,2.4-0.9,3.6-1.2
		c1.8,0.2,2.5,1.8,3.6,3c0.9,1.3,2.3,2.6,1.3,4.5c-0.4,0.2-0.9,0.3-1.4,0.3c-1.4-0.3-3.5-2-3.4,1.1c0,1.7-1.8,4.5,1.9,4.9
		c0.8,0.1,1.6,0.1,2.2,0.8C78.6,189.8,81.3,193.4,75.9,194z"/>
	<path class="st13" d="M89,60c0.6-0.6,1.2-1.3,1.8-1.9c0.7-0.7,1.4-0.6,2.2-0.1c0.4,0.4,0.7,0.7,1.1,1.1c1.8,2.8,4.4,5,7,7.1
		c0.6,0.9,1.3,1.7,1.9,2.6c-1.1,1.2,6.5,4.3-0.9,4.2c-0.6-0.1-1.2,0.5-1.8,0.3c-0.6-0.3-1-0.8-1.3-1.4c-1.8-3.1-4.4-5.4-7.3-7.4
		C90.4,63.2,88.4,62.4,89,60z"/>
	<path class="st14" d="M107.2,183.7c-1.3,0.4-2.7,0.8-4,1.2c-2.2-5-2.9-9.9,1-14.5c1.1-0.5,2.1-1.4,3.3-0.1
		C107.4,174.8,107.8,179.3,107.2,183.7z"/>
	<path class="st15" d="M75.9,194c3.6-1.6,1.8-4.7,1.9-7.2c-1.5-2.3-1.6-4.6,0.3-6.8c0.3-0.1,0.7-0.3,1-0.4c0.6-0.1,1.1,0.2,1.5,0.7
		c0.6,3.2-0.2,6.3-0.4,9.5c-1.1,1.5,1.8,2.9,0.2,4.4c0.6,0.4,1.1,0.8,1,1.6C79,198.2,79,198.2,75.9,194z"/>
	<path class="st16" d="M69.1,175.9c2.1,2.2,3.5,4.8,2.1,7.8c-0.8,1.6,0.5,2.8-0.1,4.2c-1.5-0.1-1.9,1.4-2.9,2
		c-1.6-4.2,0.5-8.8-1.1-13l0,0.1c-0.3-0.3-0.4-0.6-0.3-0.8c0.1-0.3,0.2-0.4,0.2-0.4C67.8,175.3,68.5,175.4,69.1,175.9z"/>
	<path class="st17" d="M93,58c-0.7,0-1.5,0-2.2,0.1c-3.5-5.4-8.6-9.2-13.5-13.3c1.2-1.2,1.8,0.4,2.7,0.3C84.6,49.1,89.3,53.1,93,58z
		"/>
	<path class="st18" d="M107.1,170c-0.7,0.3-1.5,0.7-2.2,1c-0.8,0.5-1.5,0.5-2.2-0.1c-1.1-1.8-1.1-3.6-0.2-5.5c0.4-1.1,2.7,0.3,2.4-2
		c-0.1-0.8,1-2.1,2.5-1.3c0.7,2.2-0.4,4.6,0.7,6.8c0,0.4,0,0.8,0,1.1C107.6,170.4,107.3,170.4,107.1,170z"/>
	<path class="st19" d="M103.1,170.8c0.6,0.1,1.2,0.1,1.8,0.2c-2.8,2-1.8,4.9-1.9,7.5c-0.1,2.1,0.1,4.3,0.1,6.5
		c-0.4,1.2,0.6,3.4-2.1,2.9c-0.3-0.4-0.4-0.9-0.4-1.4c0-4,0.6-7.9-0.4-11.9c-0.3-0.3-0.7-0.7-1-1c-0.3-0.4-0.5-0.8-0.5-1.3
		C99.8,170.6,101.1,169.8,103.1,170.8z"/>
	<path class="st20" d="M46.2,12.4c-4.5-3.1-8.9-6.1-11-11.4C39.1,4.6,43.4,7.8,46.2,12.4z"/>
	<path class="st21" d="M67.1,176.9c2.3,4.2,0.4,8.7,1.1,13c-3.3,0.4-3.4-2.1-4.1-4.2c0.8,0.5,1.6,1,3,1.9
		C67.1,183.8,67.1,180.4,67.1,176.9z"/>
	<path class="st22" d="M107.9,168.8c-1.9-2-0.4-4.6-1-6.8c-0.6-0.6-0.9-1.3-1.1-2.1c-0.3-2.3-0.3-4.7,0.1-7c-0.1-0.8,0-1.6,0.8-2.1
		c0.4,0,0.9,0.1,1.3,0.1C108,156.9,108,162.9,107.9,168.8z"/>
	<path class="st23" d="M101.3,186.9c-0.1,0.3-0.2,0.6-0.3,1c-1.1,1.5-2.7,0.4-4,1c-0.3-0.9-0.6-1.9-0.9-2.8
		c-0.7-0.8-0.9-1.8-0.5-2.8c1.7-1.8,3-0.5,4.3,0.6c0.6,0.7,1,1.5,1.2,2.4C101.2,186.5,101.2,186.7,101.3,186.9z"/>
	<path class="st24" d="M81.5,195.8c-0.5-0.4-1.3-0.7-1-1.6c4.1-0.4,8.1-0.8,11.5-3.3c-1.4,4-5.1,3.8-8.3,4.4
		C82.9,195.5,82.1,195.3,81.5,195.8z"/>
	<path class="st25" d="M107.1,170c0.3,0,0.6,0,0.9,0c-0.3,4.6,1,9.3-0.8,13.8C107.1,179.2,107.1,174.6,107.1,170z"/>
	<path class="st26" d="M101.1,66.2c-3.2-1.5-5.8-3.6-7-7.1C97,61,99.4,63.2,101.1,66.2z"/>
	<path class="st27" d="M69.1,175.9c-0.6,0-1.1,0-1.7,0c-2.5-1.7-1.6-5.2-3.7-7c-0.2-0.9-0.4-1.8-0.6-2.7c-2.5-6.4-4.6-12.9-7-19.3
		l0,0.1c-1.3-2.6-1.7-5.5-3-8.1c0-1,0.2-2-0.6-2.8c-1.9-2.4-1.8-5.6-3.4-8.1l0,0.1c-0.7-1.3-1-2.6-0.3-4.1c1.2-1.1,2.5-1.1,3.9-0.7
		c2.9,1.6,2.9,4.9,4.2,7.4c1.2,3.3,2.8,6.4,3.6,9.9c2.2,6.3,4.6,12.5,6.6,18.9c1.1,3.2,2.4,6.3,3.7,9.4c0.4,1.6,1.4,3.2,0.5,5
		C71,175.1,70.5,175.9,69.1,175.9z"/>
	<path class="st28" d="M49,124c0,1.3,0.1,2.7,0.1,4c-2.2-1.9-1.9-4.6-2.2-7.1c-0.7-13.3-0.2-26.6-0.3-39.8c0-8.3-0.3-16.6,0.2-24.9
		c0-0.4,0-0.8,0-1.2c0.4,0,0.8,0,1.2,0.1c1.8,1.7,1.8,3.9,1.8,6c-0.4,19.4-0.1,38.7-0.2,58.1C49.7,120.8,49.7,122.4,49,124z"/>
	<path class="st29" d="M46.9,56.1c0,21.6,0,43.2,0.1,64.7c-1.1-1.1-0.8-2.5-0.8-3.8c0-19.1,0-38.1,0-57.2
		C46.2,58.6,45.8,57.2,46.9,56.1z"/>
	<path class="st30" d="M1.4,95.9c0-16.9,0-33.9,0-50.8c1,0.9,0.9,2.1,0.9,3.2c0,14.8,0,29.6,0,44.3C2.2,93.8,2.4,95,1.4,95.9z"/>
	<path class="st31" d="M1.4,38c0-9.3,0-18.5,0-27.8C2.8,19.4,2.8,28.7,1.4,38z"/>
	<path class="st32" d="M56.1,146.9c3.3,6.1,5.6,12.5,7,19.3C59.8,160.1,57.5,153.7,56.1,146.9z"/>
	<path class="st33" d="M28.2,136.3c-2.5-1.9-3.9-4.7-5.5-7.3C26,130.3,27.4,133.1,28.2,136.3z"/>
	<path class="st34" d="M63.7,168.9c2.6,1.6,2.4,4.7,3.7,7c-0.1,0.4-0.2,0.7-0.3,1.1C64.9,174.7,64.6,171.6,63.7,168.9z"/>
	<path class="st35" d="M14.2,15.9c2.2,1.7,4.2,3.6,5.4,6.2C16.7,20.9,14.9,18.9,14.2,15.9z"/>
	<path class="st36" d="M41.1,48c2.3,1.7,4.7,3.3,5.1,6.4C44.2,52.5,41.8,50.9,41.1,48z"/>
	<path class="st37" d="M49.1,127.9c2.2,2.3,2.4,5.3,3.4,8.1C49.9,134,49.4,131,49.1,127.9z"/>
	<path class="st38" d="M7.2,8.1c2.3,1.6,4.5,3.2,5,6.3C10.2,12.6,7.8,11,7.2,8.1z"/>
	<path class="st39" d="M2.2,1.7c1.9,2,4.5,3.4,5.1,6.4C4.9,6.4,2.6,4.9,2.2,1.7z"/>
	<path class="st40" d="M53.1,138.9c1.9,2.4,2.9,5.1,3,8.1C54.1,144.7,53.3,141.9,53.1,138.9z"/>
	<path class="st41" d="M23.9,28c2.8,1.2,4.4,3.5,5.6,6.1C26.7,32.9,25.2,30.6,23.9,28z"/>
	<path class="st42" d="M59.3,140.9c-1.1-3.3-2.1-6.6-3.2-9.9c1.1-23,0.4-46.1,0.6-69.1c0-2,0.4-4-0.6-5.8c-0.5-0.4-1.2-0.5-1.8-0.4
		c-0.4,0.1-0.9,0-1.3,0c-1.4-0.4-1.3-1.7-1.6-2.7c-0.3-0.7-0.7-1.4-1-2.1c0-2.8,1.6-4.4,4-5.3c3.2-0.1,3.7,1.9,3.3,4.5
		c-0.1,0.6,0.6,0.1,0.6,0c-1.1-2.1,0.6-3.2,1.8-4.5c1.5-0.9,2.5-0.6,3.2,1c0.4,1.1,0.4,2.3,0.4,3.5c0,9,0,18,0,27
		c0,10.6,0,21.2,0,31.8c0,1.2-0.1,2.4,1.3,3c0.6,0.3,1.2,0.7,1.6,1.3c0.1,0.5-0.1,0.9-0.4,1.2c-1,0.5-1.9,0.8-2,2.3
		c-0.4,5-1.9,10,1.6,14.8c1.4,1.9,1.3,4.5-1.3,6c-1.1,0.6-1.5,1.7-2.3,2.6C61.2,140.7,60.4,141.3,59.3,140.9z"/>
	<path class="st43" d="M51.3,52.9c0.6,0.7,1.3,1.4,1.9,2.2c1.2,1.4,1.3,3,1.3,4.7c0,20.2,0.1,40.5,0,60.7c0,0.7-0.1,1.3-0.3,2
		c-0.2,0.6-0.6,1.2-1.1,1.6c-1.3,0-2.7,0-4,0c-1.5-1.4-0.8-3.1-0.8-4.7c0-21.4-0.1-42.8-0.1-64.2C49.3,54.4,50.6,54.1,51.3,52.9z"/>
	<path class="st44" d="M36.4,34.9c-1.8-0.8-3-2.3-4-4c0.2-1.3-0.5-2.7,0.2-4c0.5-1.1,1.1-2,2.4-2.3c2.4,0.6,3.4,2.8,4.8,4.4
		c0.8,0.9,0.8,2,0.3,3c-0.3,0.6-0.7,1.1-1.1,1.5C38.1,34.2,37.6,35.3,36.4,34.9z"/>
	<path class="st45" d="M54.1,46.2c-1.3,1.5-2.6,3.1-3.8,4.6c-2.4-2.6-4.8-5.2-7.2-7.8c3.5-3.4,6.1,0,9,1.2
		C52.9,44.7,53.7,45.2,54.1,46.2z"/>
	<path class="st46" d="M52,45.2c-3-0.5-5.4-3.8-9-2.1c-0.3-0.3-0.6-0.7-0.9-1c0.5-1.4,0.1-3.4,2.2-4c2.6-0.9,4.9,0.6,7.3,0.8
		c0.6,0.4,1.1,1,1.3,1.8C53.3,42.3,53.5,43.9,52,45.2z"/>
	<path class="st47" d="M8.1,4C8.5,2.8,9.2,2,10.5,2.1c3.1,1.2,5.4,3.6,7.7,6c-1,1.4-2.6,1.7-4,2.3C12.1,8.3,10.1,6.1,8.1,4z"/>
	<path class="st48" d="M14.1,10.4c0.6-2,2-2.6,4-2.3c1.7,1.3,2.7,3.6,5.1,4c0.5,0.6,0.7,1.4,0.6,2.2c-0.1,0.5-0.4,1-0.9,1.3
		c-3.8,1.7-4.8-1.9-6.8-3.6C15.5,11.4,14.8,10.9,14.1,10.4z"/>
	<path class="st49" d="M44.8,38.8c-2,0.2-0.9,2.9-2.7,3.2c-1-1.3-2-2.5-3-3.8c-0.4-0.7-0.6-1.5-0.6-2.3c0.4-1.5,1.6-2.2,3-2.5
		C44.5,34,47,35,44.8,38.8z"/>
	<path class="st50" d="M27.1,23.6c-3.7,0.1-3.4-4.2-6-5.3c-0.6-1.8,0.6-2.3,1.9-2.7c2.2-0.1,3.1,1.5,4.2,3c0.8,1.8,2.8,3.4,0.9,5.6
		C27.6,24.5,27.2,24.2,27.1,23.6z"/>
	<path class="st51" d="M27.1,23.6c0.4,0.1,0.7,0.2,1.1,0.4c1.1-1.5,2.2-1.4,3.4-0.2c0.7,1.1,1.3,2.2,1.7,3.5
		C33,28.6,33.6,30,32.4,31C30.7,28.5,27.4,27.1,27.1,23.6z"/>
	<path class="st52" d="M23.2,16c-1,0.4-1.6,1.3-2.1,2.3c-1.9-1.9-4.5-3.3-4.9-6.4c2.7,0.2,3.5,4.3,6.8,3.1c0.3,0.2,0.4,0.4,0.4,0.6
		C23.3,15.9,23.3,16,23.2,16z"/>
	<path class="st53" d="M39.2,36.2c0,0.7,0,1.3-0.1,2c-1.4-0.7-2.3-1.8-2.7-3.3c0.6-0.6,1.2-1.2,1.8-1.9
		C39.4,33.9,38.4,35.3,39.2,36.2z"/>
	<path class="st54" d="M44.8,38.8c-0.1-2.4-0.2-4.7-3.5-4.6c-1.9,0.6-1.6-1.1-2-2c-0.3-0.7,1.3-1.6-0.2-2.3c-1-1.6-0.3-3.1,0.4-4.6
		c1.1-1.3,2.9-0.6,4.1-1.6c1.7-0.9,1.5-3.8,4-3.8c4.6,1.2,5.3,6.3,8.6,8.7c0.2,0.6,0.6,1.7,0.2,1.8c-4.1,1.1-1.2,4-1.7,6.1
		c-0.3,2.4-1.9,2.5-3.7,2.2C48.9,41.5,46.8,37.7,44.8,38.8z"/>
	<path class="st55" d="M72.1,41.5c-0.1,3.3,4,4.3,4.1,7.5c-3.4,3.6-3.5,7.6-1.7,11.9c0.1,0.5,0,1-0.1,1.5c-0.2,0.5-0.3,1-0.5,1.5
		c-0.9,9.9-0.1,19.8-0.4,29.7c-0.6,3.7,1.4,7.9-2,11.2c-1,0.5-1.6-0.1-2.2-0.9c-1.3-7-0.4-14.1-0.5-21.2c-0.1-4.4,0-8.9-0.4-13.3
		c-0.5-0.8-1.2-1.5-1.7-2.3c-0.6-1.8-0.3-3.6,0.1-5.4c0.5-0.8,1.2-1.4,1.6-2.2c0.2-5,1-9.9,0.5-14.9c-1-1.5-2.4-2.8-0.8-4.7
		C69.4,40.5,70.3,42.3,72.1,41.5z"/>
	<path class="st56" d="M69.1,61c-0.3,0.8-1,1-1.8,1.1c-3.2-5-1.4-10.4-1.3-15.7c0-1.3,0.9-2.5,0.2-3.8c-0.6-0.7-1.1-1.5-2.3-2.2
		c-0.3,2.4,2.9,1.6,2.6,3.5c-0.7,2.6-1.9,3.8-4.5,2c-0.7-0.8-1.2,0.1-1.8,0.2c-2-1.8-1.4-4.1-1.5-6.3c0.1-0.8,0.2-1.7,0.5-2.4
		c0.8-1.5,1.8-2.7,3.8-2.7c0.8,2.6,4.9,2.1,5,5.4c-0.4,1.9,0.8,2.9,2,4C69,49.6,70.2,55.4,69.1,61z"/>
	<path class="st57" d="M63.1,34.7c-1,0.8-2,1.7-3,2.5c-2.5,1.9-4.5,0.6-6.4-1.1c-1.9-2.1,0.5-4.8-1.3-6.9c1.5-1.1,3.2,4,3.8-0.4
		C58.5,30.7,60.8,32.7,63.1,34.7z"/>
	<path class="st58" d="M20,6.1c-1-2-2.1-4-3.1-6c11.9-0.2,14.1,10.4,23.5,13c3.1,3.5,6.2,6.9,9.2,10.4c2.3,9.3-7.5,4.7-11.8,6.4
		c-5.4-6-10.7-12-16.5-17.7C20.1,10.3,21.9,8,20,6.1z"/>
	<path class="st59" d="M39.1,17.9c1.1-1.2,3.6-0.2,4-2.6c2.2,0.9,3.6,2.6,4.6,4.7c-1.6,1.3-1,4.3-3.5,5c-0.5-0.5-0.8-1-1.1-1.7
		c-0.3-2.5-3.3-2.8-4.1-4.8C39,18.3,39,18.1,39.1,17.9z"/>
	<path class="st60" d="M40,10.9c-4,0.1-4.4-4.9-7.8-5.5C32,4.7,32,4,31.9,3.3C35.4,5,37.5,8.1,40,10.9z"/>
	<path class="st61" d="M34.2,10.5c-2.4,0.2-4.7,0.3-7.1,0.5c0.5-2.1,0.3-5.3,3.8-2.1c0.5,0.5,1.9,0.3,2.3-1
		C34,8.6,34.2,9.5,34.2,10.5z"/>
	<path class="st62" d="M25.2,13c-0.5,0.3-1,0.6-1.5,0.8c-0.1-0.6-0.3-1.2-0.4-1.8C23.9,12.4,24.5,12.7,25.2,13z"/>
	<path class="st63" d="M100.7,72.9c0.5-0.6,0.9-0.5,1.4,0.1c0.5,1,1,2,0.7,3.2c-0.5,11.9-0.6,23.8,0.1,35.7c0,0.4,0,0.8,0,1.2
		c-0.7,14-0.7,27.9,0,41.9l0.3,0c-0.1,1.3-0.9,1.5-2.1,1.2c-1.3-1.1-1.5-2.6-1.5-4.1c0-25.8-0.3-51.6,0.2-77.3
		C100,74,100.3,73.4,100.7,72.9z"/>
	<path class="st64" d="M102.9,154.9c-0.9-0.7-0.9-1.7-0.9-2.7c0-12.2,0-24.3,0-36.5c0-1,0-2,0.9-2.7
		C102.9,127,102.9,141,102.9,154.9z"/>
	<path class="st65" d="M102.9,111.9c-1.7-3.3-0.9-6.8-0.8-10.1c0.2-8.5-1-17.1,0.7-25.5C102.8,88.1,102.8,100,102.9,111.9z"/>
	<path class="st66" d="M102,156.1c0.4-0.4,0.8-0.8,1.2-1.2c0.9-0.6,1.9-1.3,2.8-1.9c2.2,2.1,0.4,4.7,0.9,6.9
		c-0.2,0.3-0.3,0.6-0.5,0.9c-1,1.1-1.1,3.7-3.2,3.1c-1.6-0.4-1.3-2.5-1.5-3.9c-0.1-0.8-0.3-1.6-0.3-2.5
		C101.4,156.9,101.6,156.5,102,156.1z"/>
	<path class="st67" d="M84.1,176c4,3.4,6.9,7.6,9.3,12.3c-7.1,2.3-7.2,2.3-12.2-4.4c-1.1-1-0.4-2.3-0.6-3.4
		C78.9,176.8,81.7,176.5,84.1,176z"/>
	<path class="st68" d="M84.1,176c0.1,2.2-4.2,1-3,4c-0.3,0.5-0.7,0.5-1,0c-0.3-0.1-0.6-0.2-0.9-0.3c-0.7-1.2-1.4-2.5-2.1-3.7
		c-1.5-4.2-1.7-8.5-0.4-12.8c2.7-1.2,3.7,1.4,5.5,2.3c1.6,2,3.1,4,4.2,6.4c0.1,0.5-0.1,0.9-0.6,1.1C83.9,173.1,84,174.6,84.1,176z"
		/>
	<path class="st23" d="M85.9,172.9c0-0.3-0.1-0.6-0.1-0.9c0.3-1,1.1-1.5,2.1-1.8c2.2,0,4.5,0,6.3-1.7c1.4-1.3,3.2-1.4,4.9-1.5
		c0.9-0.2,1.3-1,1.8-1.6c0.7-0.6,1.4-1.1,2.3-0.4c0,1.9-0.1,3.9-0.1,5.8c-1.5,0.4-3,0.9-4.1,2.1c-1,3-4.9,3.1-5.8,6.1
		c-3.8,0.2-4.2-3.5-6.2-5.4C86.6,173.4,86.2,173.2,85.9,172.9z"/>
	<path class="st69" d="M87,173.7c2.7,0.9,3.4,4.2,6,5.3c2,0.6,2.9,1.9,2.9,4c0.1,1,0.1,2.1,0.2,3.1C92.1,182.6,88.9,178.7,87,173.7z
		"/>
	<path class="st70" d="M80,179.9c0.3,0,0.7,0,1,0c0,1.3,0.1,2.6,0.1,4c-1,1.9,1.4,4.3-0.9,6C80.2,186.6,80.1,183.2,80,179.9z"/>
	<path class="st71" d="M100.7,72.9c0,0.4,0.1,0.8,0.1,1.2c-0.2,0.5-0.4,0.9-0.4,1.4c0.1,26.7-0.2,53.5,0.1,80.2c0.6,1,0.9,2,0.2,3.1
		c-1,1.5-2.2,2.7-3.9,3.5c-3.9-0.1-4.8-4-7.3-5.9c-0.7-1.1-1.4-2.2-2.4-3.2c-1.9-2.2-3.5-4.6-5.3-6.9c-1.5-2.4-3.3-4.6-5.1-6.8
		c-0.7-1.3-0.9-2.6-0.5-4c0.4-22,0-44,0.2-65.9c0-2.6-0.4-5.3,0.9-7.8c2.7-2.5,5.6-4.2,9.5-2.9c0.7,0.3,1.3,0.6,2,0.9
		c1,1.3,2,2.6,3,3.9c2.9,2.6,5.9,5.1,8.1,8.4C100.2,72.6,100.4,72.8,100.7,72.9z"/>
	<path class="st72" d="M87,59.1c-2.7,0.5-5.1,2.2-8,2c-1.3,0.3-2.1-0.4-2.7-1.5c-0.9-2.7-0.6-5.5-0.4-8.3c0.1-0.9,0.6-1.5,1.2-2.2
		c0.3,0.3,0.7,0.7,1,1c2.3,1.7,4.3,3.7,6,6C85.5,56.5,87.3,56.8,87,59.1z"/>
	<path class="st73" d="M77.1,49c0,0.7,0,1.5-0.1,2.2c-0.9,2.5-0.3,5.1-0.4,7.7c-0.1,1.7-0.3,3-2.5,2.1c-3.3-4.5-2.4-10,2.1-12
		C76.5,49,76.8,49,77.1,49z"/>
	<path class="st74" d="M84,56c-2.4-1.6-4.5-3.5-6-6C81,51.1,83.1,53,84,56z"/>
	<path class="st75" d="M77,162.8c0,4.4,0,8.7,0,13.1c-1.3-0.6-1.4-2.7-3.2-2.8c-2.1,0-2.5-1.5-2.8-3.1c-0.2-2.3,0.4-4.6,0.3-6.9
		c-0.1-1.9,0.8-3.6,3.1-3.7C76.2,159.9,77.3,160.8,77,162.8z"/>
	<path class="st76" d="M78.1,180c-0.1,2.3-0.2,4.5-0.3,6.8c-1.4,0.5-2.8,0.9-4.2,1.4c-1-2.2-0.6-4.3-0.5-6.4c0-1.5-0.8-3.8,1.1-4.4
		C75.7,177,77.3,178.4,78.1,180z"/>
	<path class="st77" d="M72.1,170c0,1.4,0.7,2.4,1.9,3.1c-0.5,1.5-1.4,1.6-2.6,0.8c-0.5-1.6-1-3.3-1.5-4.9c0.3-0.3,0.7-0.4,1.1-0.4
		C71.5,168.9,71.7,169.5,72.1,170z"/>
	<path class="st78" d="M100.1,72.3c-2.9-2.6-6.1-4.9-8.1-8.4C95.6,65.8,98.7,68.2,100.1,72.3z"/>
	<path class="st79" d="M100,159c0.4-0.7,0.7-1.3,1.1-2c0.3-0.5,0.6-0.4,0.9,0c1.5,1.8,0.8,4.1,1.2,6.2c2.3-0.1,1.8-3,3.7-3.3
		c0,0.7,0,1.4,0,2.1c-1.8,0.3-0.7,4.2-3.7,2.9c-0.7,0.3-1.3,0.7-2,1C99,164,99.7,161.4,100,159z"/>
	<path class="st80" d="M95.9,182.9c-1-1.3-1.9-2.6-2.9-4c-0.5-4.5,3.4-4.6,6-6c0.3,0.1,0.7,0.1,1,0.2c1.3,4,1.7,7.9-0.2,11.9
		C98.6,184.2,97.7,182.7,95.9,182.9z"/>
	<path class="st81" d="M100.9,173c2,4.6,1.3,9.2,0.4,13.8c-0.2,0-0.3,0-0.5,0C100.4,182.3,100.3,177.7,100.9,173z"/>
	<path class="st82" d="M100.9,173c0,4.6,0,9.2-0.1,13.8c-0.3-0.6-0.6-1.2-1-1.9c0.1-4,0.1-7.9,0.2-11.9
		C100.3,173,100.6,173,100.9,173z"/>
	<path class="st83" d="M53.1,124c0-0.4,0.1-0.7,0.1-1.1c1.3-3.6-0.5-7.5,1-11.1c1.1,0,1.8,0.5,2.2,1.5c-1.1-2.4-0.8-4.9-0.8-7.4
		c0-15.2,0-30.4,0-45.7c0-2.1,0.2-4.3-0.5-6.4c2.8-1.7,3,0.1,3.1,2.2c0,5.5,0,11,0,16.5c0,15.8-0.1,31.6,0,47.4c0,3.8-0.1,7.6-2,11
		C55.1,128.6,54.1,126.3,53.1,124z"/>
	<path class="st84" d="M59.3,140.9c0.6-0.3,1.2-0.6,1.8-1c0.9-0.3,1.2,0.3,1.5,1c-0.1,2,0.8,3.6,2,4.9c3.5,4.1,3.7,8.9,2.9,13.9
		c-0.4,0.4-0.8,0.4-1.2,0.2C63.9,153.6,61.6,147.2,59.3,140.9z"/>
	<path class="st85" d="M66.2,159.9c0.3,0,0.6,0,0.9,0c2-0.2,2,1.7,2.7,2.8c0.9,2,1.7,3.9,1.2,6.2c-0.4,0-0.9,0-1.3,0.1
		C68.1,166.1,67,163.1,66.2,159.9z"/>
	<path class="st86" d="M62.2,140.7c-0.4-0.3-0.7-0.6-1.1-0.8c1.4-1.1-0.1-5.1,3.7-3.9c0.4-1.6,0.6-3.2-0.5-4.7
		c-2.3-3-3.1-13.7-1.4-16.8c0.8-1.3,2-0.3,3-0.7c0.5,0.3,0.8,0.8,1,1.3c1,7.1,0.1,14.2,0.5,21.3c0,0.3,0.2,0.6,0.5,0.5
		c0.5-0.1,0.5-0.5,0.6-1c0.3-9.5-0.3-18.9,0.3-28.4c0.3-1.2,0.9-2.2,2.1-2.6c1.9-3.6,0.6-7.5,1.1-11.2c0.7-0.2,1.2,0,1.5,0.6
		c0.5,0.8,0.7,1.7,0.8,2.6c0.2,5.2,0.1,10.4,0,15.7c0,2,0.3,4.4-2.2,5.5c-1.5-1.9-0.3-4.2-0.9-6.2c1.4,9.9,1.1,19.8,1,29.7
		c0,2.5,0.1,5-2,7c-0.4,0.4-0.9,0.6-1.4,0.8C65.2,147.8,63.1,144.7,62.2,140.7z"/>
	<path class="st87" d="M55.1,53.9c2.5,0.1,2.3,1.9,2.3,3.6c0,19.8,0,39.5,0,60.2c-1.9-2.2-0.9-4.9-3.1-5.8c-0.2-0.3-0.5-0.6-0.5-0.9
		c0.1-18.7-0.5-37.3,0.3-56C54.4,54.7,54.7,54.3,55.1,53.9z"/>
	<path class="st88" d="M69.1,138.9c-0.7,0.3-1.4,0.6-2.2,0.9c-0.8-6.5-0.1-13.1-0.4-19.7c-0.1-1.8,0.5-3.6-0.5-5.3
		c0-0.3,0-0.7-0.1-1c0-0.3,0-0.6,0-0.9c-0.6-2.8-0.3-5.7-0.3-8.5c-0.2-8.3,0.4-16.5-0.3-24.8c-0.1-0.6-0.1-1.2-0.1-1.8
		c1-3.6-0.8-7.6,1.8-10.9c0.7,0.4,1.4,0.7,2.1,1.1c1,10,0.1,20.1,0.4,30.1c0.1,1.9-0.5,4,0.5,5.8c0.3,0.4,0.6,0.7,1,1.1
		c-0.3,0.6-0.6,1.2-0.9,1.8c-1.2,6.6-0.2,13.2-0.6,19.7C69.3,130.7,70.1,134.8,69.1,138.9z"/>
	<path class="st89" d="M67.1,104.9c-0.4,2.7,1.1,5.7-1.1,8.1c-0.6,0-1.3-0.1-1.9-0.1c-1.2-9.8-0.1-19.5-0.4-29.3
		c-0.4,2.4-0.1,4.9-0.1,7.3c-0.1,5.6,0,11.3-0.1,16.9c0,1.1,0.8,2.8-1.4,3c0-11.3,0-22.7,0.1-34c0.9-7.7,0.1-15.3,0.5-23
		c0.1-1.4-1.1-3.4,1.5-4c1.8,1.9,1.3,4.3,1.5,6.6c0.4,7.2-0.6,14.5,0.5,21.7c0,0.4,0,0.7,0.1,1.1C66.2,87.8,65.5,96.4,67.1,104.9z"
		/>
	<path class="st90" d="M66.1,78.2c-2.6-0.6-1.9-2.7-1.9-4.4C64.1,65.9,64.1,58,64,50.2c-0.5-0.7-1.5-0.4-1.9-1.1c0-1.1,0-2.1,0-3.2
		c2.1,0.1,4.2,0.1,4.1-2.9c-0.6-0.6-0.5-1.3,0-1.9c2,4.1,0.6,8.4,0.9,12.6c0.2,2.8,0.2,5.6,0.3,8.5c1.5,1.7-0.4,3.3-0.2,4.9
		C66.6,70.7,68.2,74.6,66.1,78.2z"/>
	<path class="st91" d="M54,55.1c0.1,18.9,0.1,37.9,0.2,56.8c-0.8,3.6,1.1,7.5-1,11c0-22.6,0-45.3,0-67.9C53.5,55,53.7,55,54,55.1z"
		/>
	<path class="st92" d="M60.1,39.1c0.1,2.3,0.1,4.7,0.2,7c0.1,2.1-3.5,2.2-2.5,4.9c-0.6-2.2-0.2-5-3.7-4.9c-0.8-0.2-1.7,0-2.1-1
		c0.1-1.6,0.1-3.3,0.2-4.9C54.5,37.7,57.2,37.4,60.1,39.1z"/>
	<path class="st86" d="M62.1,110.9c2.1-3.6,0.7-7.4,0.9-11.2c0.3-5.5,0.1-10.9,1.1-16.4c0,9.9,0,19.8,0,29.6
		C62.8,113,62.1,112.3,62.1,110.9z"/>
	<path class="st93" d="M62.1,49.1c0.8,0.1,1.7,0.1,1.9,1.1c-1.9,4.1-0.5,8.4-0.9,12.6c-0.5,4.7,0.9,9.5-0.9,14.1
		C62.2,67.6,62.1,58.3,62.1,49.1z"/>
	<path class="st94" d="M40.2,25c-0.3,1.6-0.7,3.3-1,4.9c-1.3-1.6-2.7-3.2-4-4.9c-0.4-0.8,0.1-1.3,0.7-1.6c0.4-0.2,0.9-0.3,1.3-0.4
		c0.5,0,0.9,0,1.4,0.1C39.5,23.5,40.4,23.7,40.2,25z"/>
	<path class="st59" d="M36.2,24.1c-0.3,0.3-0.7,0.7-1,1c-1.3,0.1-0.9,1.8-2,2.2c-2.1-0.2-2-1.7-2-3.2c-0.2-2.2,1.8-2.2,3.1-3
		c0.3-0.1,0.6-0.2,0.9-0.3C36.5,21.5,37.2,22.5,36.2,24.1z"/>
	<path class="st95" d="M39.3,32.2c0.7,0.7,1.3,1.3,2,2c-0.7,0.7-1.4,1.4-2.1,2c-1.2-0.8-1-2-1-3.2C38.6,32.8,38.9,32.5,39.3,32.2z"
		/>
	<path class="st96" d="M60.1,39.1c-2.7,0.1-5.4-0.2-7.9,1.1c-0.4-0.5-0.8-1-1.2-1.5c0.4-1.5,3.8,0.2,2.8-2.7
		c2.1,0.4,4.2,0.7,6.3,1.1C60.1,37.8,60.1,38.5,60.1,39.1z"/>
	<path class="st97" d="M34.3,21.1c-1,1-2.1,2-3.1,3c-1-0.7-2-0.6-3-0.1c0.9-2.3-2.2-2.9-1.9-4.9C28.7,20.5,31.4,21.1,34.3,21.1z"/>
	<path class="st98" d="M40.2,25c-0.7-0.3-1.3-0.7-2-1c0.7-3.3,3.1-1.1,4.7-1.6c0.4,0.1,0.8,0.2,1.2,0.5c0,0.7,0,1.3,0,2
		C42.8,26,41.5,26,40.2,25z"/>
	<path class="st99" d="M74.1,61c2.6-0.2,1.8-2.2,2.1-3.7c0.3-2-0.9-4.2,0.8-6c0.1,2.9,0.2,5.9,0.3,8.8c0.7,3.8,0.3,7.6,0.3,11.4
		c0,20,0,40,0,59.9c0,1.8,0.3,3.7-0.3,5.4c-0.3,1.2,0.5,1.9,1,2.8c0.3,0.9,0.3,1.8,0.2,2.7c-0.1,0.9-0.1,1.8-0.1,2.7
		c-0.4,3.1,0.9,6.2,0.4,9.3c-0.1,0.4-0.2,0.8-0.4,1.2c-0.5,1.5,1,3-0.1,4.4c-1.8,0.6-2.6-0.9-3.8-1.7c-0.5-0.6-0.9-1.3-1-2.1
		c-0.1-0.9,0.1-1.7,0.5-2.5c1.5-5.5,0.5-11.1,0.7-16.7c0.2-4.4,0-8.9,0.1-13.4c-0.1-9.1-0.1-18.2,0-27.2c0.1-2.2-0.1-4.3,0-6.5
		c-0.4-9.3,0.6-18.7-0.5-28.1C74.1,61.6,74.1,61.3,74.1,61z"/>
	<path class="st100" d="M74.1,61.9c2.2,0.1,2,1.7,2,3.2C76,73.4,76,81.7,75.9,89.9c-1.8,0.3-3.7,0.8-3.3-2.2
		c0.4-8.5-0.7-17.1,0.6-25.6C73.5,62,73.8,62,74.1,61.9z"/>
	<path class="st101" d="M70.1,104c-1.4-0.7-1-2-1-3.1c0-10.9,0-21.9,0.1-32.8c2.9,2.1,1,5.1,1,7.6C70.4,85.1,70.1,94.5,70.1,104z"/>
	<path class="st102" d="M73.2,62.2c0,9.2,0,18.5,0.1,27.7c1.1,1.5,1,2.9-0.2,4.2c-0.3,0-0.6-0.1-0.8-0.2c0-9.1,0-18.1,0-27.2
		C72.2,65.2,71.4,63.3,73.2,62.2z"/>
	<path class="st103" d="M69.1,61c0.6-5.6-1.2-11.4,1-17C70.5,49.7,71.2,55.4,69.1,61z"/>
	<path class="st104" d="M66.1,41c0,0.6,0,1.3,0,1.9c-1.3-0.6-3.3,1.6-3.9-0.9c-0.3-1.2-0.8-3.2,1-3.8C65.4,37.5,65.7,39.5,66.1,41z"
		/>
	<path class="st105" d="M44.1,23c-0.3,0-0.6,0.1-1,0.1c-2.1-0.6-4.3-1.6-5.9,1c-0.4,0-0.7,0-1.1,0c-0.3-1.1-0.7-2.2-1-3.3
		c1.3-0.9,2.6-1.8,3.8-2.7C40.9,19.5,43.9,19.8,44.1,23z"/>
	<path class="st106" d="M102,157l-0.5-0.1c0,0-0.5,0-0.5,0c-0.6-0.1-1.4-0.2-1.4-1.1c0.1-26.4,0.2-52.7,0.3-79.1c0-1,0-2,0.9-2.7
		c0.1,25.4,0.1,50.9,0.2,76.3c0,1.9-0.8,4,0.9,5.7C102,156.4,102,156.7,102,157z"/>
	<path class="st107" d="M78.1,160.2c1-2-3.5-3-0.9-5.2c1.2,0.9,2.6,1.4,3.5,2.7c0.3,0.3,0.6,0.6,0.9,0.9c1.9,1.2,3.6,0.4,5.1-0.7
		c3.7-2.6,5.4,0.6,7.2,2.7c2,2.3,1.5,4.4-0.6,6.5c-1.7,1.6-3.5,3-5.6,4c-0.6,0.4-1.2,0.7-1.8,1.1c-1.7-1.8-3.3-3.6-3.7-6.1
		C80.1,164.4,78,163,78.1,160.2z"/>
	<path class="st104" d="M78.1,160.2c1.3,1.9,2.6,3.8,4,5.8c-2.5,0.3-3.1-2.5-5-3.1c-0.7-1-1.3-1.9-2-2.9c-0.6-0.8-0.6-1.6,0.1-2.4
		C76.1,158.4,77.1,159.3,78.1,160.2z"/>
	<path class="st108" d="M87.6,170.9c0.7-2.5,3.2-3.2,4.8-4.8c2-2,2.7-3.6,0.6-5.8c-1.7-1.8-3.1-3.9-6-1.4c-2.1,1.8-4.6,2.7-6.8-0.1
		c3.2-2,5.7-6.5,10.4-3c2.5,1.6,3.2,5.2,6.4,6c2.1,1.8,3.5,4,3.3,6.9c-1.7-0.5-3.6-1.5-5,0.1C93.1,171.6,90.4,171.1,87.6,170.9z"/>
	<path class="st109" d="M100.3,168.8c-0.5-2.6-3.5-4-3.3-6.9c0.6-1.3,1.7-2.3,3-3c2.1,2.1,0.5,4.8,1.2,7.1
		C100.9,167,101.4,168.1,100.3,168.8z"/>
	<path class="st110" d="M77.2,136.9c0-25.6,0-51.2,0-76.8c0.6,0.3,1.2,0.6,1.7,1c-1.2,2-0.9,4.2-0.9,6.3c0,21.4,0,42.9,0,64.3
		C78,133.4,78.7,135.3,77.2,136.9z"/>
	<path class="st111" d="M80.1,158c-1.3-0.7-2.4-1.6-2.9-3c0.3,0,0.7,0,1,0c0.5-0.7,0.9-1.4,1.4-2.2c1.1-2.3-0.1-5.7,3.4-6.7
		c1.7,2.3,3.5,4.5,5.2,6.8C86.4,156,82.4,155.8,80.1,158z"/>
	<path class="st112" d="M80.1,158c1.3-3.9,5.3-3.5,8.1-5.1c0.8,1,1.6,2.1,2.4,3.1c-4.3-1.9-6.7,3-10.4,3
		C80.1,158.6,80,158.3,80.1,158z"/>
	<path class="st113" d="M82.9,146.1c-2.2,2.2-1,5.6-2.7,8c-1.6-1.3-1.2-3.2-1.3-4.9c1-2.7-0.3-4.9-1.7-7c0.4-0.8,0.7-1.6,1.1-2.4
		C80.2,141.5,81.8,143.6,82.9,146.1z"/>
	<path class="st114" d="M75.1,157.6c0,0.8,0,1.6-0.1,2.4c-1.9,0.1-2.9,1.7-2.5,2.9c0.9,2.6-0.5,4.8-0.4,7.1
		c-0.3-0.4-0.6-0.7-0.9-1.1c-0.7-2-1.3-4-2-5.9c1.5-4.8-2.1-9.2-1-13.9c0.3,0,0.6,0.1,0.8,0.2c2.3,0.1,2.9,1.9,3.3,3.7
		c0.4,1.5,0.6,2.9,1.9,3.9C74.4,157.1,74.8,157.3,75.1,157.6z"/>
	<path class="st115" d="M68.1,149c0.6,4.6,5.2,8.9,1,13.9c-0.7-1-1.3-2-2-3c-0.5-5.7-0.9-11.3-5.2-15.8c-1-1.1-1.2-2.3,0.2-3.4
		C63.9,143.6,67,145.7,68.1,149z"/>
	<path class="st102" d="M75.9,95.9c0,9.4,0,18.8,0,28.2c-0.9,0.3-1.8,0.6-2-0.8c1.2,9.6,0.6,19.2,0.5,28.9c0,1.2-0.6,2.2-1.5,3.1
		c-2.4-1.4-1.8-4.1-1.7-5.8c0.9-10,0.1-20,0.4-29.9c0-0.5,0.3-0.9,0.5-1.4c1.9-7.3,0.1-14.8,1-22.1C74,94.6,74.9,94.2,75.9,95.9z"/>
	<path class="st55" d="M72.1,118.1c0,10.8,0,21.5,0,32.3c0,1.6-0.8,3.3,0.9,4.6c0.4-0.4,0.8-0.3,1.1,0.2c0,0.5,0,1.1,0,1.6
		c-2.4,0.2-3.2-1.2-2.9-3.2c0.3-2.1-1-3.2-2.3-4.4c1.8-2.1,2.3-4.6,2.2-7.3c-0.1-10.9-0.1-21.8,1-32.7
		C72.1,112.1,72.1,115.1,72.1,118.1z"/>
	<path class="st18" d="M69.1,138.9c0-9.3,0-18.7,0-28c0-1.4-0.6-3,1-4c0,9.5,0.1,19.1,0.1,28.6C70.2,136.7,70.8,138.2,69.1,138.9z"
		/>
	<path class="st116" d="M66.1,114.9c2.2,3.3,0.8,7,0.9,10.6c0.3,4.8,0,9.6,0,14.4c-2-5.1-0.6-10.3-1-15.5
		C65.8,121.2,66,118.1,66.1,114.9z"/>
	<path class="st117" d="M75.9,95.9c-1-0.6-1.9-0.4-2.8,0.1c0-0.6-0.1-1.3-0.1-1.9c0.1-1.4,0.2-2.8,0.2-4.2c0.9-1.4,1.8-1.3,2.7,0
		C75.9,91.9,75.9,93.9,75.9,95.9z"/>
	<path class="st118" d="M67.1,104.9c-2.5-2.2-1.3-5.3-1.7-7.9c-0.8-5.2-0.6-10.6-0.6-15.9c0-0.6,0.9-1.2,1.4-1.8
		c2,4,0.7,8.3,0.9,12.4C67.3,96.1,67.1,100.5,67.1,104.9z"/>
	<path class="st59" d="M37.2,24c1.7-2.3,3.3-4.5,5.9-1c-1.3,2.1-3.7-1.5-4.9,0.9c0,0-0.5,0-0.5,0L37.2,24z"/>
	<path class="st119" d="M74.1,155.2c-0.4-0.1-0.7-0.1-1.1-0.2c0-11.3,0-22.6,0-34.1c1.6,0.8,0.8,3.3,2.9,3.2
		c0.1,8.9,0.1,17.7,0.2,26.6C76.2,152.5,76.2,154.3,74.1,155.2z"/>
	<path class="st120" d="M80,148c0.1,2,0.1,4,0.2,6.1c-0.5,0.8-1.2,0.9-2.1,0.8c-0.9-3.2-1.2-6.5-1-9.8C79.7,144.5,79.4,146.7,80,148
		z"/>
	<path class="st121" d="M80,148c-1.1-0.8-1.3-2.5-2.8-2.9c0-1,0-2,0-3C79.1,143.6,82,144.6,80,148z"/>
</g>
</svg>
