<?xml version="1.0" encoding="utf-8"?>
<!-- Generator: Adobe Illustrator 24.0.1, SVG Export Plug-In . SVG Version: 6.00 Build 0)  -->
<svg version="1.1" id="Слой_1" xmlns="http://www.w3.org/2000/svg" xmlns:xlink="http://www.w3.org/1999/xlink" x="0px" y="0px"
	 viewBox="0 0 131.2 187.5" style="enable-background:new 0 0 131.2 187.5;" xml:space="preserve">
<style type="text/css">
	.st0{fill:#FDFDFD;}
	.st1{fill:#FDFDFC;}
	.st2{fill:#FCFDFC;}
	.st3{fill:#FCFCFC;}
	.st4{fill:#FAFAFA;}
	.st5{fill:#F3F4EF;}
	.st6{fill:#975D03;}
	.st7{fill:#8B6445;}
	.st8{fill:#EB6E37;}
	.st9{fill:#ADC8A3;}
	.st10{fill:#ACC6A2;}
	.st11{fill:#AFBFA8;}
	.st12{fill:#8A3F12;}
	.st13{fill:#91543B;}
	.st14{fill:#B48459;}
	.st15{fill:#F6A136;}
	.st16{fill:#E0DBD8;}
	.st17{fill:#8F6C3A;}
	.st18{fill:#8E6F44;}
	.st19{fill:#A9834E;}
	.st20{fill:#90713D;}
	.st21{fill:#906A36;}
	.st22{fill:#E8A94F;}
	.st23{fill:#F4F5F1;}
	.st24{fill:#ACC8A9;}
	.st25{fill:#96924F;}
	.st26{fill:#EEEB5F;}
	.st27{fill:#9D9F90;}
	.st28{fill:#959885;}
	.st29{fill:#2B2421;}
	.st30{fill:#ECE5DF;}
	.st31{fill:#E1D8D1;}
	.st32{fill:#7E614A;}
	.st33{fill:#E8DBD2;}
	.st34{fill:#D5D390;}
	.st35{fill:#795F4C;}
	.st36{fill:#856E5D;}
	.st37{fill:#AFC3AA;}
	.st38{fill:#ED6E37;}
	.st39{fill:#C8C0B8;}
	.st40{fill:#CBC2C1;}
	.st41{fill:#884B31;}
	.st42{fill:#85442A;}
	.st43{fill:#D1CBBE;}
	.st44{fill:#7A3D1A;}
	.st45{fill:#EC6F36;}
	.st46{fill:#C1BFBD;}
	.st47{fill:#C9C2BE;}
	.st48{fill:#7E3916;}
	.st49{fill:#87513A;}
	.st50{fill:#7D3B1D;}
	.st51{fill:#EC6E37;}
	.st52{fill:#834A2F;}
	.st53{fill:#CAC3BC;}
	.st54{fill:#F5A237;}
	.st55{fill:#EB6F37;}
	.st56{fill:#907043;}
	.st57{fill:#ED6E38;}
	.st58{fill:#C1B9B8;}
	.st59{fill:#83462B;}
	.st60{fill:#090918;}
	.st61{fill:#F5A335;}
	.st62{fill:#EFA469;}
	.st63{fill:#8A553B;}
	.st64{fill:#C8B9B0;}
	.st65{fill:#EFF0D9;}
	.st66{fill:#F5F7E8;}
	.st67{fill:#9A9C99;}
	.st68{fill:#B0B1A8;}
	.st69{fill:#8D9D82;}
	.st70{fill:#737B72;}
	.st71{fill:#EAEDE7;}
	.st72{fill:#96979B;}
	.st73{fill:#09120B;}
	.st74{fill:#9DA69B;}
	.st75{fill:#ECAA78;}
	.st76{fill:#DDD9A0;}
	.st77{fill:#A9A9A7;}
	.st78{fill:#A7A284;}
	.st79{fill:#919B86;}
	.st80{fill:#E0B28F;}
	.st81{fill:#F0A46B;}
	.st82{fill:#8D6437;}
	.st83{fill:#956C49;}
	.st84{fill:#91733E;}
	.st85{fill:#EDA542;}
	.st86{fill:#1D0E0D;}
	.st87{fill:#7E7166;}
	.st88{fill:#413C3A;}
	.st89{fill:#E5AC8E;}
	.st90{fill:#EEB187;}
	.st91{fill:#C5BCB0;}
	.st92{fill:#936B50;}
	.st93{fill:#8A644C;}
	.st94{fill:#856A4F;}
	.st95{fill:#E4A660;}
	.st96{fill:#EDA238;}
	.st97{fill:#EEF1DB;}
	.st98{fill:#F6F5F4;}
	.st99{fill:#F2F3EF;}
	.st100{fill:#888662;}
	.st101{fill:#AEAFA1;}
	.st102{fill:#80807A;}
	.st103{fill:#919396;}
	.st104{fill:#909193;}
	.st105{fill:#070706;}
	.st106{fill:#84896F;}
	.st107{fill:#D5A273;}
	.st108{fill:#A9A161;}
	.st109{fill:#D9D585;}
	.st110{fill:#726D22;}
	.st111{fill:#B7AD50;}
	.st112{fill:#E2DF8A;}
	.st113{fill:#9B9632;}
	.st114{fill:#F0A368;}
	.st115{fill:#F1A46C;}
	.st116{fill:#C2B5B2;}
	.st117{fill:#99714F;}
	.st118{fill:#86603F;}
	.st119{fill:#F0A56B;}
	.st120{fill:#736C68;}
	.st121{fill:#AC9D6F;}
	.st122{fill:#BC9275;}
	.st123{fill:#DFD4CB;}
	.st124{fill:#8D9B83;}
	.st125{fill:#8C9C80;}
	.st126{fill:#905431;}
	.st127{fill:#EB814F;}
	.st128{fill:#7B3712;}
	.st129{fill:#C5B8B8;}
	.st130{fill:#915B41;}
	.st131{fill:#EC6F38;}
	.st132{fill:#ECA268;}
	.st133{fill:#EDA36C;}
	.st134{fill:#8D5237;}
	.st135{fill:#863E16;}
	.st136{fill:#7D3714;}
	.st137{fill:#875139;}
	.st138{fill:#834D32;}
	.st139{fill:#C5C2BF;}
	.st140{fill:#EBE4DD;}
	.st141{fill:#8A503B;}
	.st142{fill:#EC7E52;}
	.st143{fill:#8A390B;}
	.st144{fill:#EC6F35;}
	.st145{fill:#EFA468;}
	.st146{fill:#EAE8DF;}
	.st147{fill:#8B543B;}
	.st148{fill:#8A6C4F;}
	.st149{fill:#DD754B;}
	.st150{fill:#8B5137;}
	.st151{fill:#EADFD2;}
	.st152{fill:#CDC5CA;}
	.st153{fill:#845641;}
	.st154{fill:#8C3B10;}
	.st155{fill:#EFA36B;}
	.st156{fill:#9C490B;}
	.st157{fill:#E9A96A;}
	.st158{fill:#8A3F15;}
	.st159{fill:#DC785B;}
	.st160{fill:#D5785D;}
	.st161{fill:#955612;}
	.st162{fill:#D89F70;}
	.st163{fill:#B1B1AA;}
	.st164{fill:#9B9B92;}
	.st165{fill:#F9F8F8;}
	.st166{fill:#B2B2AA;}
	.st167{fill:#BBBCB3;}
	.st168{fill:#F8F8F7;}
	.st169{fill:#68665F;}
	.st170{fill:#8A8856;}
	.st171{fill:#F4F7F4;}
	.st172{fill:#D2D3D3;}
	.st173{fill:#F5F5F5;}
	.st174{fill:#E3E2E5;}
	.st175{fill:#D9D9D5;}
	.st176{fill:#F0F2F1;}
	.st177{fill:#0B0C0B;}
	.st178{fill:#DAD692;}
	.st179{fill:#9D9475;}
	.st180{fill:#E5E45A;}
	.st181{fill:#B3B5B5;}
	.st182{fill:#E6AC81;}
	.st183{fill:#E1A771;}
	.st184{fill:#E6A16E;}
	.st185{fill:#EAE4DE;}
	.st186{fill:#CECFCF;}
	.st187{fill:#685A4F;}
	.st188{fill:#7A797E;}
	.st189{fill:#AAA6AB;}
	.st190{fill:#E2E1DD;}
	.st191{fill:#4C4646;}
	.st192{fill:#E6A56C;}
	.st193{fill:#060800;}
	.st194{fill:#4B4A3A;}
	.st195{fill:#C0BEB8;}
	.st196{fill:#F7F7F7;}
	.st197{fill:#E2E2E2;}
	.st198{fill:#F3F3F2;}
	.st199{fill:#878834;}
	.st200{fill:#BBBD58;}
	.st201{fill:#787343;}
	.st202{fill:#E2DF80;}
	.st203{fill:#B8B46C;}
	.st204{fill:#7A5740;}
	.st205{fill:#816148;}
	.st206{fill:#58525C;}
	.st207{fill:#060805;}
	.st208{fill:#CCC76B;}
	.st209{fill:#C9BFBE;}
	.st210{fill:#E6A573;}
	.st211{fill:#E8A871;}
	.st212{fill:#EBA974;}
	.st213{fill:#EDE8E1;}
	.st214{fill:#836B4F;}
	.st215{fill:#8D6A52;}
	.st216{fill:#E8DDD3;}
	.st217{fill:#FEFAED;}
	.st218{fill:#9F7C5F;}
	.st219{fill:#EEA26B;}
	.st220{fill:#C48964;}
	.st221{fill:#A27B63;}
	.st222{fill:#A1A099;}
	.st223{fill:#957059;}
	.st224{fill:#765E4D;}
	.st225{fill:#8F3C0E;}
	.st226{fill:#D1CAC5;}
	.st227{fill:#EBA36B;}
	.st228{fill:#95725B;}
	.st229{fill:#7D604F;}
	.st230{fill:#EFA672;}
	.st231{fill:#E7E07D;}
	.st232{fill:#3B311B;}
	.st233{fill:#EFEFEF;}
	.st234{fill:#8A8A89;}
	.st235{fill:#E9E9E9;}
	.st236{fill:#BCBCBC;}
	.st237{fill:#ACACAB;}
	.st238{fill:#544E36;}
	.st239{fill:#585859;}
	.st240{fill:#5A5655;}
	.st241{fill:#D5D6D9;}
	.st242{fill:#CDC34E;}
	.st243{fill:#E3DF4F;}
	.st244{fill:#D1CB4F;}
	.st245{fill:#08050F;}
	.st246{fill:#D9DA24;}
	.st247{fill:#E2DA64;}
	.st248{fill:#A09B5A;}
	.st249{fill:#8A6F61;}
	.st250{fill:#E1DED6;}
	.st251{fill:#1A1A1D;}
	.st252{fill:#AB745A;}
	.st253{fill:#D2CFD0;}
	.st254{fill:#D6D1CF;}
	.st255{fill:#D29D74;}
	.st256{fill:#76685E;}
	.st257{fill:#989637;}
	.st258{fill:#D1D25C;}
	.st259{fill:#8D884E;}
	.st260{fill:#A49F61;}
	.st261{fill:#736E3D;}
	.st262{fill:#DDDD7A;}
	.st263{fill:#DDDDDC;}
	.st264{fill:#939793;}
	.st265{fill:#959595;}
	.st266{fill:#0C0C0C;}
	.st267{fill:#5F582A;}
	.st268{fill:#9C9AA0;}
	.st269{fill:#767973;}
	.st270{fill:#AFAC6A;}
	.st271{fill:#F6F4F3;}
	.st272{fill:#E0DD82;}
	.st273{fill:#D2CC7D;}
	.st274{fill:#E3DE74;}
	.st275{fill:#E7E196;}
	.st276{fill:#7B614A;}
	.st277{fill:#110904;}
	.st278{fill:#9D8458;}
	.st279{fill:#B09E95;}
	.st280{fill:#8E664C;}
	.st281{fill:#D3BB7C;}
	.st282{fill:#958859;}
	.st283{fill:#EEE8E6;}
	.st284{fill:#B5B0A2;}
	.st285{fill:#AA8D5B;}
	.st286{fill:#C7C66A;}
	.st287{fill:#98918B;}
	.st288{fill:#AA9E5D;}
	.st289{fill:#F3EC72;}
	.st290{fill:#ABA532;}
	.st291{fill:#CABF6C;}
	.st292{fill:#B0B2AF;}
	.st293{fill:#CDCECB;}
	.st294{fill:#CBCCCB;}
	.st295{fill:#B6B8B9;}
	.st296{fill:#D2D0D3;}
	.st297{fill:#AFA635;}
	.st298{fill:#D2CF59;}
	.st299{fill:#72711B;}
	.st300{fill:#8A8787;}
	.st301{fill:#9E9CA2;}
	.st302{fill:#F2EA48;}
	.st303{fill:#8F8981;}
	.st304{fill:#D0D2D1;}
	.st305{fill:#171513;}
	.st306{fill:#373333;}
	.st307{fill:#D4D054;}
	.st308{fill:#928D3E;}
	.st309{fill:#CFD1D2;}
	.st310{fill:#C8C677;}
	.st311{fill:#87825E;}
	.st312{fill:#878639;}
	.st313{fill:#4F4B37;}
	.st314{fill:#EEEAA1;}
	.st315{fill:#BDB985;}
	.st316{fill:#F5F4AD;}
	.st317{fill:#6C6524;}
	.st318{fill:#D7D6A0;}
	.st319{fill:#EFE485;}
	.st320{fill:#908F64;}
	.st321{fill:#817A39;}
	.st322{fill:#C4BE48;}
	.st323{fill:#8A843D;}
	.st324{fill:#E7E39E;}
	.st325{fill:#8E8A55;}
	.st326{fill:#595C33;}
	.st327{fill:#3F2B1C;}
	.st328{fill:#CFD2D2;}
	.st329{fill:#777477;}
	.st330{fill:#E9E861;}
	.st331{fill:#AAA62D;}
	.st332{fill:#DEDBC1;}
	.st333{fill:#E8E4E2;}
	.st334{fill:#9C9DA1;}
	.st335{fill:#E7E6E9;}
	.st336{fill:#E4EB63;}
</style>
<g>
	<path class="st0" d="M130.9,180.4c0,2.2,0.9,5.3-0.2,6.5c-1.1,1.1-4.2,0.3-6.5,0.3c-40.4,0-80.8,0-121.2,0.1c-2.7,0-3.1-0.7-3-3.1
		c0.2-7.7,0.1-15.4,0.1-23.1c0.4-0.2,0.7-0.1,1,0.1c5,4.3,6.7,4,9.9-2c1.3-1.4,3.1-2.3,4.8-2.7c6.4-1.6,12.5-4.1,18.9-5.4
		c2.9-0.6,5.4-2.7,8.5-2.4c0.6,0.1,1,0.4,1.4,0.8c6,9.6,11,19.8,16.3,29.8c1.4,2.7,2.7,3.5,5.8,2.3c6.9-2.5,13.9-4.6,20.8-7
		c1.1-0.6,2.1-1.4,3.3-1.7c0.3-0.1,0.7-0.2,1.1-0.2c0.4-0.1,0.7-0.1,1.1-0.2c2.4-0.6,4.9-0.6,7.3-0.8c0.4,0.1,0.8,0.2,1.1,0.4
		c8.6,3.2,16.6,8.3,26.3,7.4C128.9,179.3,130,179.6,130.9,180.4z"/>
	<path class="st0" d="M62.9,0.1c21.8,0,43.6,0,65.4-0.1c2.2,0,2.8,0.4,2.7,2.7c-0.2,4.9-0.1,9.7-0.1,14.6c-0.5,0.2-0.9,0-1.4-0.2
		c-4.8-3-6.8-2.3-8.6,3.2c-2.4,3.6-6.3,5.5-9.6,8c-5.2,4-10.5,7.9-15.9,11.7c-0.3,0.1-0.7,0.1-1,0.1c-1-0.6-2.3-0.3-3.2-1
		c-0.6-1,0.2-2.2-0.7-3.1c-1-1.1-2.2-1.9-3.4-2.7c-3.2-3.2-6.6-6.3-9.8-9.6c-2-2.1-4.1-3.9-6.8-5.1C70,18.1,70,17.5,70,16.8
		c-0.1-0.5-0.2-0.9-0.4-1.3c-0.5-1-1.3-1.8-1.1-3.1c1.4-2,0.6-3.5-1.3-4.5C64.1,6.2,63.4,3.2,62.9,0.1z"/>
	<path class="st0" d="M0.1,108.6c0-9.5,0-19,0-28.4c1.7-0.3,1.8,1.4,2.7,2.1c1.9,1.7,4.3,1.8,5.9,0c1.6-1.8,1.9-3.8,0.2-5.6
		c-1.7-1.9-3.7-2.2-5.9-0.5c-0.9,0.7-1.3,2.3-2.9,1.8c0-7.2,0-14.5,0-21.7c1.7-0.3,1.8,1.4,2.7,2.1c1.9,1.7,3.8,1.8,5.6,0.2
		C10.1,57,11,55,9.2,53c-1.6-1.9-3.5-2.6-5.9-1.1c-1.1,0.7-1.5,2.4-3.2,2.1c0-7.2,0-14.5,0-21.7c0.4-0.2,0.8-0.1,1,0.2
		c2.3,3.9,5.4,3.8,8.8,1.6c2.3-0.3,3.9,1.5,6,1.8c5.8,3.2,12.2,5.1,17.3,9.5c0.1,0.6-0.1,1.1-0.3,1.6c-0.3,0.6-0.7,1.2-1.1,1.8
		c-1.5,2-0.3,4.5-1.4,6.6c-1.6,0.6-3.2,1.8-5,0.5c-0.7-0.5-1.4-0.3-1.9,0.4c-0.4,0.6-0.2,1.2,0.2,1.7c0.8,0.9,1.8,1.7,1.5,3.2
		c-0.1,6.6,0,13.2,0,19.8c-0.2,4.2,0.3,8.4-0.3,12.6c-0.8,2.1-2.9,2.1-4.5,2.7c-2.7,0.9-3.8,2.1-1.9,4.7c0.6,0.9,1.1,1.9,0.8,3.1
		c-1.9,3.5-5.7,2.6-8.6,3.7c-0.9,0-1.7-0.4-2.4-0.9c-2.2-1.6-4.1-1.3-5.8,0.7C1.9,108.1,1.3,109,0.1,108.6z"/>
	<path class="st0" d="M33,45.5c-5.8-2.9-11.5-5.9-17.3-8.8c-1.6-1.5-4.2-1.6-5.5-3.7c0.1-2.2-0.3-4.4-2.5-5.4c-2.2-1-4.1,0-5.7,1.7
		c-0.5,0.5-1.1,1.1-1.9,0.7c0-9.2,0.1-18.5-0.1-27.7C0,0.4,0.4,0,2.3,0c12,0.1,23.9,0.1,35.9,0.1C40,2.9,39.1,6,39.1,9
		c-0.4,1.6,0.2,3.2,0.1,4.9c0.1,3.5-0.3,7,0.4,10.5c0.1,0.8-0.2,1.7-0.3,2.5c-0.1,2.7,0,5.4-0.1,8.1c0,0.8,0,1.7,0,2.5
		c-0.1,1.8,0.2,3.7-0.4,5.5c-0.6,1.4-2,1.9-3.2,2.6C34.7,46,33.8,46.6,33,45.5z"/>
	<path class="st0" d="M43.3,149c-8.4,3.1-16.8,5.7-25.5,7.7c-2.2,0.5-4.3,1.8-6.4,2.7c-0.5-0.1-0.9-0.4-1.3-0.7
		c-3.8-3.6-4.4-3.6-8.7-0.4c-0.4,0.3-0.8,0.6-1.3,0.3c0-7.7,0-15.5,0-23.2c0.5-0.2,0.9,0,1.3,0.4c3.7,3.5,4.9,3.6,8.7,0.4
		c0.5-0.4,1-0.7,1.6-0.9c8.3-0.3,16.6-0.5,25,0.1c3.3,3.7,5.3,8.1,7.2,12.6C43.9,148.4,43.6,148.8,43.3,149z"/>
	<path class="st0" d="M10.5,107.1c2.4-1.8,6-0.7,8.2-3c0.6,0,1.1,0.1,1.6,0.5c4.2,6.8,7.8,14,11.7,21c1.2,2.2,2.8,4.1,3.7,6.4
		c0.5,1.3,2,3-0.7,3.9c-6.9,0-13.9,0-20.8,0c-1.6,0-3.3,0.3-4-1.8c-2.9-4.6-4.3-4.8-8.6-1.3c-0.5,0.4-1,0.8-1.6,0.4
		c0-7.5,0-15,0-22.5c0.9-0.3,1.3,0.4,1.8,0.9c1.4,1.9,3.3,2.6,5.5,1.8c2.1-0.7,2.8-2.6,2.7-4.7C10,108.2,10,107.6,10.5,107.1z"/>
	<path class="st1" d="M130.9,94.4c0,11.5,0,23,0,34.4c-1.3,0.5-2-0.5-2.9-1.1c-3.2-2.1-5.5-1.3-6.5,2.4c-0.2,0.8-0.2,1.7-0.5,2.5
		c-1.3,2.1-3.4,3.1-5.4,4.4c-1.2,0.7-2.5,1.1-3.7-0.2c-1.4-2.7,0.2-5.8-1.4-8.4c-0.3-0.5-0.4-1.1-0.3-1.7c0-0.4,0.2-0.8,0.3-1.1
		c1.3-3.6,0.9-7.2,0.3-10.9c-0.4-0.7-0.6-1.3-0.4-2.1c0.2-0.7,0.7-1.3,0.8-2c-0.1-3.3,0.7-6.6-0.7-9.7c-0.2-0.5-0.3-1-0.2-1.6
		c3-2.5,6.5-3.8,10.3-4.3c1,0.5,1.7,1.4,2.6,1.9c1.8,1.1,3.4,0.9,4.9-0.6C129,95.5,129.3,93.9,130.9,94.4z"/>
	<path class="st2" d="M120.3,95.1c-3.1,1.2-6.1,2.5-9.2,3.7c-0.3,0.3-0.7,0.4-1.1,0.2c-0.5-0.8,0-1.5,0.4-2.2
		c1.6-3.1,0.5-6.3,0.7-9.5c-0.4-1.6-1.7-3.1-0.8-5c1.3-3.6,1.4-7.3,0-10.9c-0.2-0.5-0.3-1.1-0.2-1.7c0.7-1.5,1.1-3.2,1.8-4.8
		c2.3-2.1,5.3-1.8,8.1-2.4c0.9,0.2,1.2,1.1,1.8,1.7c2.2,2.3,4.9,2.2,7.1-0.1c0.5-0.6,0.7-1.7,1.9-1.4c0,9.5,0,19,0,28.4
		c-1.1,0.5-1.8-0.4-2.6-0.8c-3.7-2-5.5-1.2-6.9,2.8C121.1,94,121.1,94.8,120.3,95.1z"/>
	<path class="st3" d="M130.9,180.4c-6.9,1-13.3-1.5-20-2.3c-2.2-3.8-6.9-3-9.8-5.4c-0.1-0.1-0.1-0.2-0.1-0.4c1-2.7,3.7-2.8,5.8-3.8
		c0.5-0.2,1-0.4,1.6-0.5c2.1-0.5,3.1-1.7,2.9-4c-0.3-2.5,0.6-5.2-0.9-7.5c-0.3-0.7-0.3-1.4,0-2.2c0.3-0.5,0.7-0.8,1.2-1.1
		c3-1.2,5.6-3.4,9.2-3c3.6,4.4,4.4,4.4,8.6,0.6c0.5-0.4,1-0.8,1.6-0.5c0,5.5,0,11,0,16.5c-1.4,0.5-2-0.7-2.8-1.3
		c-2.1-1.6-4-1-5.6,0.6c-1.6,1.6-1.4,4.4,0.3,6c1.8,1.7,3.6,1,5.4-0.2c1-0.6,1-2.4,2.7-2.2C130.9,173.5,130.9,177,130.9,180.4z"/>
	<path class="st3" d="M120.3,62.9c-2.3,1.6-5.3,1-7.7,2.2c-0.4,0-0.7-0.2-0.9-0.6c-0.7-1.8-0.4-3.7-0.5-5.6c0.2-1.6-0.6-2.8-1.7-3.9
		c-2.4-2.3-4.6-4.9-7.3-6.8c-0.5-0.6-0.9-1.2-0.6-2c1.7-2.3,4.5-3.1,6.9-4.3c3.6-1.8,7.2-3.7,11.1-4.9c0.9,0.3,1.4,1,1.9,1.6
		c2.9,3.7,4.7,3.8,7.9,0.3c0.4-0.4,0.7-1,1.5-0.7c0,7.2,0,14.5,0,21.7c-1,0.5-1.6-0.2-2.4-0.6c-4-2.2-5.6-1.6-7.4,2.5
		C121,62.2,120.8,62.7,120.3,62.9z"/>
	<path class="st4" d="M119.8,37.5c-6,3-12,6-18,9c-0.3,0.2-0.6,0.3-0.9,0.1c-1.8-2.5-4.8-4-5.8-7c8-7,17.2-12.5,25.4-19.3
		c0.7,0.3,1.1,1,1.6,1.5c2.4,2.4,3.8,2.4,6.4,0.3c0.8-0.7,1.1-2.1,2.5-1.8c0,5,0,10,0,15c-0.8,0.4-1.4-0.1-2-0.5
		c-3.6-2.6-5.1-2.2-7.6,1.6C121,36.9,120.7,37.7,119.8,37.5z"/>
	<path class="st3" d="M120.4,150.5c-2.8,1.1-5.6,2-8.2,3.7c-0.3-0.3-0.5-0.6-0.7-1c-0.9-3.5,0.2-7.2-0.7-10.7
		c-0.5-0.8-0.8-1.7-0.8-2.7c0.1-1.2,0.7-2.1,1.7-2.7c0.2,0,0.4-0.1,0.5-0.1c3.5-0.1,5.5-2.9,8.1-4.5c0.9,0.2,1.4,1,2.1,1.5
		c2.2,1.6,4.4,1.5,6.3-0.6c0.6-0.7,0.7-2,2.1-1.7c0,5.2,0,10.5,0,15.7c-1.1,0.5-1.8-0.4-2.7-0.8c-3.7-2-5.1-1.5-6.9,2.3
		C121.2,149.6,121,150.1,120.4,150.5z"/>
	<path class="st5" d="M62.9,0.1c1.5,3.2,2.9,6.5,6.4,8.4c2.6,1.4,1.5,3.1-0.4,4.4c-2.5,0.2-3.2-2.3-5-3.1c-2.8-2.9-6-5.2-8.1-8.7
		c0-0.4,0.2-0.7,0.4-0.9C58.4,0.1,60.6,0.1,62.9,0.1z"/>
	<path class="st6" d="M56.2,0.1c0,0.3-0.1,0.5-0.1,0.8c-1.6,1.5-3.6,1.8-5.6,1.6c-3.3-0.3-6.7,0.2-10-0.8c-0.4-0.5-0.5-1.1-0.1-1.6
		C45.7,0.1,50.9,0.1,56.2,0.1z"/>
	<path class="st7" d="M40.5,0.1c0,0.5,0,0.9,0,1.4c0,0.2-0.1,0.3-0.1,0.5c-1.5,3.4,0.8,6.6,0.4,9.9c-2.1,0.7-1.8-1.2-2.4-2.1
		c0-3.2-0.1-6.5-0.1-9.7C39,0.1,39.7,0.1,40.5,0.1z"/>
	<path class="st8" d="M108.5,168.9c-0.5,0.1-0.9,0.2-1.4,0.4c-2.5,0.4-4.9,1.3-7.1,2.6c-2,2-4.9,0.4-7.1,1.6
		c-2.1-3.3-0.8-6.8-1-10.3c0.5-2.7,3.1-2.8,4.9-3.8c2.2-0.2,3.9-2.1,6.2-1.5c1.8,0.9,3.4-0.3,5-0.7c3.3-0.8,3.7-0.5,3.8,2.8
		c0,1.1-0.2,2.3,0,3.3C112.4,166.2,111.3,168,108.5,168.9z"/>
	<path class="st9" d="M88.2,175.2c-7.9,2.7-15.8,5.4-23.7,8.2c-1.5,0.5-2.3,0-3-1.2c-5.8-10.8-11.6-21.6-17.4-32.4
		c-0.2-2.2,1.4-1.8,2.7-1.8c1.2,0.6,1.4,1.9,1.8,3c0.5,1.8,1.4,3.4,2.5,4.9c0.2,0.3,0.4,0.6,0.5,0.9c1.8,3.8,3.8,7.6,6.3,11.1
		c1.1,1.2,1.9,2.5,2.9,3.7c0.4,0.4,0.9,0.7,1.5,0.8c0.8,0.1,1.4-0.3,2.2-0.4c0.9,0.1,1.3,0.8,1.8,1.5c0.4,0.6,0.8,0.8,1.5,0.5
		c1.9-0.4,2.6,1.1,3.6,2.1c0.3,0.4,0.7,0.7,1,1.1c1.9,1.5,3.5-0.3,5.2-0.4c1.4-0.1,2.2-1.2,3.3-1.9C83.4,175,85.9,172.7,88.2,175.2z
		"/>
	<path class="st10" d="M88.2,175.2c-2.5-1.1-5,1.4-7.5,0c-0.8-0.3-1.2-0.9-1.4-1.7c-0.9-2.6,1.3-4.1,2.1-6.2
		c0.7-1.6,1.9-2.4,3.6-2.6c0.6,0,1.1,0.1,1.7,0.3c2,1.2,3,3.1,3.9,5.1c0.3,1.2,1.2,2.2,0.7,3.5C90.3,174.2,89.3,174.7,88.2,175.2z"
		/>
	<path class="st11" d="M46.6,148c-0.5,1-2.3,0.3-2.4,1.8c-0.3-0.3-0.6-0.5-0.9-0.8c-1-3.2-3-5.8-4.5-8.8c-0.6-1.2-1.5-2.3-1.4-3.8
		c0.7-1,1.7-1,2.8-0.6c0.5,0.3,0.8,0.8,1,1.4c0.4,2.7,2,4.8,3.4,7C45.3,145.4,47.3,146.1,46.6,148z"/>
	<path class="st12" d="M92.9,162.5c0,3.7,0,7.3-0.1,11c-0.3,0-0.5,0.1-0.8,0.1c-1.3-1.8-0.9-4-1.1-6c-0.3-1.6-0.8-3.2-0.1-4.8
		c0.2-0.4,0.6-0.6,1-0.7C92.2,162.1,92.6,162.2,92.9,162.5z"/>
	<path class="st13" d="M100,171.9c1.8-2.6,4.5-2.5,7.1-2.6c-2,1-4.1,2.1-6.1,3.1C100.7,172.2,100.3,172.1,100,171.9z"/>
	<path class="st14" d="M91.9,167c0,2.2,0.1,4.4,0.1,6.6c0,0-0.3,0.1-0.3,0.1s-0.4-0.1-0.4-0.1c-0.5-0.9-0.9-1.8-1.4-2.8
		C91.1,169.8,89.5,167.4,91.9,167z"/>
	<path class="st15" d="M70.6,18.1c3,0.2,4.9,2.2,6.8,4.1c3.5,3.5,6.8,7.1,10.2,10.6c3.2,3.1,3.1,3.6-1.1,5.2
		c-0.9,0.3-1.8,0.6-2.8,0.9c-1.7,0.4-3.4,0.8-5,1.4c-3.3,1.3-6.3,1-8.7-1.9c-4.2-4.9-8.9-9.3-12.4-14.7c-0.2-0.5-0.4-1-0.3-1.6
		c2.9-2.1,6.5-1.9,9.7-3.1c0.6-0.2,1.3-0.5,1.9-0.7C69.6,18,70.1,18,70.6,18.1z"/>
	<path class="st16" d="M91.2,35.3c1.6,1.2,0.7,2.4,0.1,3.6c-0.5,1.7-2,1.6-3.3,2.1c-3.5,1.3-7.3,1.7-10.5,3.6
		c-0.2,0.3-0.4,0.5-0.6,0.8c-1,2.2-0.9,4.6-0.4,6.9c0.1,0.5-0.1,1-0.4,1.4c-0.6,0.6-1.1,1.3-2,1.5c-0.3,0-0.7,0-1-0.2
		c-2.3-1.4-3.7-3.8-5.4-5.7c-0.9-1.1-2.5-0.4-3.5-1.2c-0.3-0.4-0.4-0.9-0.4-1.4c0.1-0.5,0.3-1,0.7-1.4c0.6-0.6,1.2-1.3,2.1-1.4
		c0.3,0,0.7,0.1,1,0.2c1.3,1.4,2.5,2.9,3.9,4.2c0.2,0.1,0.4,0.2,0.7,0.2c-0.5-5.8,2.3-8.6,7.8-9.1c1.2-0.1,2.3-1,3.6-0.8
		C86.1,37.3,89.1,37.4,91.2,35.3z"/>
	<path class="st17" d="M70.6,18.1c-0.3,0.2-0.6,0.5-0.9,0.7c-2.4-0.2-4.6,0.4-6.9,0.9c-5.6,1.1-5.6,1.1-6.4,6.5
		c-0.2,1.5-0.4,3.8-2.8,1.5c-0.4-3.5-0.3-7-0.4-10.5c3.6,0.7,7.1,0.1,10.6-0.8c2.4-0.5,4.8-1.4,7.2,0C70.9,17,70.7,17.5,70.6,18.1z"
		/>
	<path class="st18" d="M76.4,44.4c0.8-2.2,3-1.8,4.6-2.4c3.4-1.2,6.8-2.1,10.3-3.2c0.9,0.6,2.7-2.1,3,0.8c0.2,0.4,0.2,0.8-0.1,1.1
		c-0.7,0.5-1.5,0.6-2.3,0.7c-3.9,0.3-7.5,1.9-11.2,2.8C79.3,44.6,77.9,45.4,76.4,44.4z"/>
	<path class="st19" d="M91.2,35.3c-1.4,3.4-5,2.3-7.4,3.5c-0.2-0.2-0.3-0.3-0.2-0.5c0.1-0.2,0.2-0.3,0.2-0.3
		c1.8-0.7,3.6-1.4,5.4-2.2c0.2-1.5-1.6-1.9-1.6-3.1C89.4,32.7,90,34.5,91.2,35.3z"/>
	<path class="st20" d="M94.3,40.3c0-0.2,0-0.5,0-0.7c0.2,0.1,0.5,0.1,0.7-0.1c2.3,2.1,4.9,3.9,6.1,6.9c0,1-0.6,1.1-1.4,1.1
		c-1.8-1.8-3.3-3.9-5-5.8C94.5,41.4,94.3,40.9,94.3,40.3z"/>
	<path class="st21" d="M64.2,9.1c2.1,0.5,2.8,2.9,4.7,3.7c0.5,1,1.8,1.6,1.5,3c-1.2,0.3-2-0.4-2.9-1C66,13.1,63.7,11.9,64.2,9.1z"/>
	<path class="st22" d="M68.1,14.3c0.8,0.5,1.5,1,2.3,1.5c0.2,0.2,0.4,0.4,0.6,0.6c-2.4,0.3-4.9,0.5-7.3,0.8
		C63.8,14.2,66.6,15.3,68.1,14.3z"/>
	<path class="st23" d="M24.7,59.7c-1.3-0.6-2.8-1.2-2.9-3c-0.1-1.4,1-1.9,2.1-2.3c0.3-0.2,0.9-0.4,1-0.3c1.4,1.5,3.5,0.5,5.1,1.3
		c0.6,0.1,1,0.5,1.2,1c0.4,1.3-0.1,2.4-0.5,3.6c-0.7,1.6,0.1,2.8,1,4.1c1.6,2.5,3.6,4.7,4.9,7.3c0.7,1.9,1.9,3.5,3.2,5
		c0.2,0.3,0.4,0.5,0.6,0.8c1,1.7,2,3.4,3.7,4.6c1.4,1.7,2.6,3.5,3.8,5.4c0.8,2.1,2.6,3.5,3.4,5.6c0,0.4,0,0.7-0.2,1
		c-0.7,0.6-1.5,1-2.5,0.8c-4.2-2.7-6.1-7.2-8.7-11.1c-1.3-2.8-3.1-5.3-5.1-7.6c-3.2-4.3-6.3-8.7-9-13.3
		C25.3,61.7,24.8,60.8,24.7,59.7z"/>
	<path class="st24" d="M19.5,104.8c-0.3-0.2-0.6-0.5-0.8-0.7c0-0.4,0-0.8-0.1-1.1c-0.6-2.1-3.7-4-2.4-5.8c1.6-2.2,4.9-2.5,7.7-2.9
		c2,1.9,0.8,4.5,1.3,6.7c0.1,0.4,0.1,0.7,0.1,1.1c-0.1,0.2-0.1,0.4-0.2,0.5c-0.2,0.3-0.5,0.5-0.8,0.6
		C22.6,103.6,21.1,104.3,19.5,104.8z"/>
	<path class="st25" d="M31.2,48.1c0.3-0.6,0.7-1.1,1-1.7c2.7,0.1,5.3,0.7,7.6,2.2c0.3,0.5,0.3,1,0.2,1.5c-0.3,0.8-0.9,1.4-1.7,1.9
		c-1.4,0.5-1.4,2.6-3,2.9c-0.3,0.1-0.7,0-1-0.1c-0.7-1-0.6-2.2-1-3.3c0-0.3,0.1-0.6,0.4-0.9c0.3-0.2,0.6-0.4,1-0.4
		c-0.6-0.2-1,0.3-1.5,0.4C31.7,50.5,30.9,49.8,31.2,48.1z"/>
	<path class="st26" d="M33.7,50.8c0,0.3,0,0.6,0,0.9c0.8,0.9,0,1.8,0,2.7c0,1.4,0.1,2.9-1.9,2.9c-0.6-0.2-0.8-0.8-1.2-1.2
		c-0.2-0.2-0.4-0.5-0.6-0.7c0.8-2.4-1.2-5.2,1.2-7.3c0.5,1.1,1,2.2,2.5,2.2C33.7,50.5,33.7,50.6,33.7,50.8z"/>
	<path class="st27" d="M24.7,59.7c0.8,0.6,1.5,1.3,1.5,2.4c-0.9,4.3-0.1,8.6-0.4,12.9c-0.1,1.8,0.2,3.7-0.6,5.5
		c-0.3,0.4-0.6,0.5-1.1,0.3c0-6.5-0.1-13.1-0.1-19.6C24,60.7,24.1,60.1,24.7,59.7z"/>
	<path class="st28" d="M24.1,80.9c0.2,0,0.3,0,0.5,0c0.6,0.5,1,1.1,1.1,1.9c0.4,5.7,0.4,11.4,0,17.1c-0.1,0.7-0.4,1.4-1.1,1.9
		c-1.4-2.4-0.2-5.1-0.8-7.6C23.9,89.8,24,85.3,24.1,80.9z"/>
	<path class="st29" d="M39.5,48.6c-2.6-0.1-5-0.8-7.2-2.1c-0.1-0.6,0.3-0.8,0.7-0.9c0.8-0.1,1.5-0.3,2.3-0.4
		c0.6,0.2,1.2,0.6,1.7,0.9C37.8,46.8,39.7,46.7,39.5,48.6z"/>
	<path class="st30" d="M53.9,26.9c0.3,0.4,0.4,1.4,1.2,0.7c0.2-0.2,0.1-0.7,0.1-1.1c0.6-2.2-1.3-5.7,1.2-6.3c4.2-1,8.5-3.6,13.1-1.4
		c-0.5,0.3-1,0.5-1.5,0.8c-3.7,0.5-7.6,0.6-10.9,2.9c0,3.1-0.9,6.4,0.9,9.4c2.7,2.9,5,6.1,7.5,9.2c0.7,0.9,1.9,1.8,0.9,3.2
		c-0.5,0.5-1.1,1-1.6,1.5c-1.5-1.5-2.4-3.5-4.2-4.9c-4.2-4.2-7.9-8.9-11.4-13.7c-0.3-0.7-0.7-1.3-1.4-1.8c-1.1-0.7-1.5-2-2.4-2.8
		c-0.3-0.2-0.5-0.4-0.7-0.6c-2-2.3-4.1-4.5-5.8-7c0-0.8-0.6-1.1-1.1-1.5c0.3-1.2-0.7-2.4,0.2-3.6c1.2,0.3,0.8,2.1,2.1,2.2
		c1-0.4,1.7,0.3,2.2,0.9C46.4,17.6,50.2,22.2,53.9,26.9z"/>
	<path class="st31" d="M38.3,37.7c0-0.8-0.1-1.6-0.1-2.4c0.3-0.3,0.6-0.4,1-0.4c4.8,4.6,8.5,10.2,12.6,15.4c0.5,0.6,0.5,1.4,0.2,2.1
		c-0.4,0.7-1,1.2-1.8,1.4c-0.8,0.2-1.5,0.2-2.3,0c-0.5-0.2-1-0.6-1.2-1.1c0-3.9-2.7-6.4-4.9-9.1c-0.8-1-1.9-1.9-2.5-3.1
		C38.9,39.6,39,38.5,38.3,37.7z"/>
	<path class="st32" d="M38.2,13.3c1.3-0.7,1.6,0,1.6,1.1c-0.2,3.6,0.8,7.2,1,10.8c-0.9,0.9-1.3,0.2-1.7-0.6
		C37.3,21,38.5,17.1,38.2,13.3z"/>
	<path class="st33" d="M39,24.7c0.5,0.4,1,0.7,1.4,1.1c1.9,0.4,2.4,1.9,2.8,3.5c0,0.5-0.1,1.1-0.4,1.5c-1.7,0.5-2.4-0.9-3.4-1.8
		c-0.6-0.8-0.5-1.9-1.2-2.7C38.5,25.7,38.8,25.2,39,24.7z"/>
	<path class="st34" d="M36.8,46.5c-0.8-0.1-1.5-0.3-1.5-1.4c0.5-1.3,2-0.9,2.8-1.6c0.8,0.4,1.2,1.1,1.3,1.9
		C39.1,47.1,38.1,47.1,36.8,46.5z"/>
	<path class="st35" d="M38.2,26.3c1.4,0.2,1.7,1.1,1.3,2.3c0.6,2.3,0.9,4.7-0.2,6.9c-0.4-0.1-0.8-0.1-1.1-0.2
		C38.2,32.3,38.2,29.3,38.2,26.3z"/>
	<path class="st36" d="M39,45c-0.3-0.5-0.6-1-0.9-1.5c0.1-1.9,0.1-3.8,0.2-5.8c0.9,0.4,1.5,1,1.4,2.1C39.7,41.6,40.6,43.4,39,45z"/>
	<path class="st37" d="M39.7,135.5c-1.3,0-2.5,0-3.8,0c-2.6-6.8-7-12.7-10.2-19.3c-1.9-3.9-4.2-7.6-6.3-11.3c1-1.7,2.6-2.2,4.5-2.2
		c1.9,1.9,0.3,4.5,1.4,6.5c1.3,1.5,1.7,3.3,2.4,5c0.4,2,1.4,3.6,2.8,5c1.8,1.6,2.4,3.9,3.1,6.1c1.2,2.4,2,5,4.2,6.7
		C38.9,132.9,40,133.8,39.7,135.5z"/>
	<path class="st38" d="M112.1,111.7c-0.4,0.2-0.8,0.5-1.2,0.7c-1,0.7-1.9,1.4-3.1,1.5c-2.3,0.1-4.5,0.9-6.8,1.4
		c-0.4,0.1-0.8,0.2-1.2,0.2c-7.4,1.1-7.4,1.1-7.3-6.5c0-0.5,0-1,0.1-1.5c0.1-0.6,0.2-1.2,0.6-1.7c0.3-0.3,0.6-0.5,1-0.6
		c4.5,0,8.3-2.4,12.5-3.6c0.5-0.1,1-0.2,1.4-0.4c3.7-0.8,3.7-0.7,3.8,3C111.9,106.8,111.6,109.3,112.1,111.7z"/>
	<path class="st39" d="M107.9,113.1c1-0.2,2-0.4,3-0.6c-0.1,0.6,0.1,1.1,0.7,1.5c-0.4,1.9-2.1,1.9-3.4,2.3c-2.9,0.8-5.7,1.7-8.4,2.9
		c-2.1,1.1-4.3,2.3-6.8,1.1c-0.3-0.2-0.6-0.6-0.7-1c-0.1-0.6,0-1.2,0.3-1.7c2.4-1.6,5.4-1.5,7.9-2.8c0.1,0,0.3,0,0.4,0
		C103.4,114.9,105.5,113.5,107.9,113.1z"/>
	<path class="st40" d="M110.8,126.6c0,0.5,0,0.9,0,1.4c-0.1,0.2-0.1,0.4-0.2,0.5c-2.2,2.1-5.1,2.5-7.8,3.2c-3.2,0.9-6.3,2.3-9.6,2.9
		c-0.8,0-1.5-0.3-2-1c-0.2-0.4-0.2-0.7-0.1-1.1c0.3-0.7,0.9-1.1,1.6-1.4c2.9-0.8,5.7-1.8,8.5-2.8c0.3-0.1,0.7-0.3,1-0.4
		C105.2,127.6,107.6,124.9,110.8,126.6z"/>
	<path class="st41" d="M99.4,118.3c3.8-2.2,8.3-2.5,12.2-4.4c1.4,3.8,0.6,7.6,0.6,11.5c0,0.2-0.8,0.4-1.2,0.6
		c-0.1-0.1-0.3-0.3-0.4-0.4c-0.3-2,0-3.9,0-5.9c0-2.3-0.8-2.7-3-2.2C104.9,118.2,102.3,120.1,99.4,118.3z"/>
	<path class="st42" d="M112.1,111.7c-1.3-2.2-0.6-4.6-0.5-6.9c0.1-3.1-0.8-3.7-3.5-2.5c-0.5,0.2-1.2,0.1-1.8,0.2
		c-0.2-0.3-0.2-0.7,0-1c1.3-1.1,2.7-1.8,4.5-1.3c1-0.1,1.6,0.3,1.5,1.5C112.2,105.1,112.2,108.4,112.1,111.7z"/>
	<path class="st43" d="M110.8,100.3c-1.5,0.6-3,1.2-4.5,1.8c-0.6,0.2-1.1,0.3-1.6-0.1c-0.3-0.5-0.4-1.1-0.1-1.7
		c0.6-0.8,1.5-1.2,2.5-1.6c1.1-0.3,2.3-0.8,3.4,0.1c0.3,0,0.5,0,0.8,0C111,99.3,110.9,99.8,110.8,100.3z"/>
	<path class="st41" d="M110.8,126.6c-3.1,0.2-5.8,2.3-9,2.3c1.7-3,5.4-4.2,9-3.1c0,0,0.2,0.2,0.2,0.2
		C110.9,126.2,110.9,126.4,110.8,126.6z"/>
	<path class="st44" d="M110.7,128c1.3-0.1,1.6,0.6,1.6,1.7c-0.1,2.4,0,4.9,0,7.3c0,0-0.3-0.1-0.3-0.1c-2.9-2-1-5-1.6-7.5
		c0-0.4,0.1-0.8,0.3-1.1l0.1-0.2L110.7,128z"/>
	<path class="st45" d="M110.3,98.8c-1.1,0.2-2.2,0.4-3.3,0.7c-3.9,0.5-7.3,2.4-11,3.4c-1.4,0.4-2.7,0.8-4-0.1
		c-0.2-0.3-0.4-0.7-0.4-1.2c0.4-2.7-0.1-5.4,0.5-8c0.4-1.1,1.1-2,2.3-2.3c4.6-1.4,9-3.4,13.9-3.9c2.5,0,3.4,1.4,3.3,3.8
		c-0.1,1.7,0.1,3.4-0.1,5.1c-0.1,0.4-0.3,0.9-0.6,1.2C110.6,98,110.5,98.4,110.3,98.8z"/>
	<path class="st46" d="M110.7,82.6c-0.6,1.8,1.5,2.7,1.5,4.4c-0.2,0.2-0.5,0.4-0.8,0.4c-1.4,0.2-2.8,0.8-4.3,0.7
		c-5,1.1-9.7,2.7-14.5,4.4c-0.6,0.1-1.1-0.2-1.4-0.7c-0.2-0.3-0.3-0.7-0.2-1.1c0.2-0.8,0.5-1.4,1-2c3.6-2,7.6-2.6,11.4-3.9
		c1.5-0.5,3.1-0.9,4.4-1.8c0.8-0.4,1.6-0.8,2.5-0.7C110.4,82.3,110.6,82.4,110.7,82.6z"/>
	<path class="st47" d="M110.6,69.5c0.1,0.5,0.1,1,0.2,1.6c0,0.6-0.3,1.1-0.8,1.5c-0.8,0.6-1.7,0.9-2.6,1.1c-4,0.5-7.5,2.3-11.3,3.4
		c-1.4,0.4-2.8,1.2-4.2,0.3c-0.7-0.9-0.7-1.8-0.2-2.8c4.1-2.6,8.9-3.1,13.5-4.3C106.9,69.9,108.6,68.4,110.6,69.5z"/>
	<path class="st48" d="M110,71.9c0.3-0.3,0.6-0.6,0.8-0.9c0.4,0.1,1.3,0.3,1.3,0.4c0.1,3.5,0.1,6.9,0.1,10.4c0,0.8-0.9,0.6-1.5,0.7
		c0,0,0-0.3,0-0.3C110,78.9,110.9,75.3,110,71.9z"/>
	<path class="st49" d="M110.6,69.5c-1.7,0.5-3.3,0.9-5,1.4c-0.9-1.9,0.9-2,1.8-2.4c1.6-0.7,3.1-1.5,3.8-3.2c0.3-0.2,0.6-0.3,1-0.2
		c0.1,0.1,0.3,0.2,0.4,0.2C112.2,66.7,112.8,68.8,110.6,69.5z"/>
	<path class="st50" d="M111.4,86.7c0.3,0.1,0.6,0.1,0.9,0.2c0,2.8,0.1,5.6,0.1,8.4c0,1.1,0.2,2.3-1.5,2.2c0-0.3,0-0.5,0-0.8
		C111.8,93.4,110.5,90,111.4,86.7z"/>
	<path class="st51" d="M112.2,153.8c0,0.1,0.1,0.3,0.1,0.4c-0.4,0-0.9,0.1-1.3,0.1c-0.7,1.5-1.9,2-3.5,1.7c-4.2,0.5-8.2,1.8-11.8,4
		c-1.1,0.1-2.3,1.2-3.4-0.1c-0.9-3.4-0.6-6.8-0.3-10.3c1.2-2.7,3.4-4.1,6.3-4.5c0.4-0.1,0.8-0.1,1.2-0.1c2.8-0.2,5.2-2,8-2.2
		c4.3-0.3,4.3-0.3,4.4,4.2C111.9,149.2,111.5,151.5,112.2,153.8z"/>
	<path class="st52" d="M108.5,168.9c4.2-2.4,2.8-6.4,2.9-10c0-1.5-0.8-1.6-1.9-1.2c-1.4,0.5-2.8,1-4.2,1.4c-1.2,0.4-2.5,0.8-3.1-0.8
		c0.2-1.2,1.1-1.5,2.1-1.7c2.2,0.6,4.3-1.1,6.5-0.4c1,0,1.5,0.4,1.5,1.5c-0.1,2.1-0.2,4.2,0.1,6.3
		C112.8,167.3,111.6,168.8,108.5,168.9z"/>
	<path class="st53" d="M110.8,156.3c-2.1,0.1-3.9,2.8-6.3,0.9c0.1-2.2,2.6-1,3.3-2.3c1.2,0.4,2.1-0.2,3.1-0.6
		C110.9,155,110.9,155.7,110.8,156.3z"/>
	<path class="st54" d="M99.5,47.2c0.7,0,1.4-0.1,1.7-0.8c0.2,0,0.4,0,0.6,0c0.3,0.4,0.5,0.9,0.8,1.3c2.2,2.1,4.5,4.2,6.5,6.5
		c0.9,1,2.5,1.9,1.5,3.7c-4.9,1.9-10,3.3-15,5.1c-2,0.7-3.8,0.5-5.3-1c-2-2.3-4.7-4.1-5.4-7.4c0.7-2.3,3-2.7,4.7-3.9
		c2.5-1,4.9-2.1,7.3-3.2C97.7,47.1,98.5,46.3,99.5,47.2z"/>
	<path class="st55" d="M112.2,65c-0.3,0.1-0.5,0.1-0.8,0.2c-1.5,2.9-4.4,2.1-6.8,2.5c-2.7-0.1-5.2,0.9-7.8,1.5
		c-1.7,0.4-3.4,0.7-4.5-1.2c-1-2.7,0.3-4.3,2.7-5.2c5.2-1.4,10.2-3.6,15.5-4.7c0.6-0.1,1.2-0.1,1.6,0.4
		C112.1,60.7,112.2,62.8,112.2,65z"/>
	<path class="st56" d="M112.1,58.5c-0.5,0-1-0.1-1.4-0.1c-0.2-0.2-0.3-0.3-0.2-0.5c0.1-0.2,0.1-0.3,0.2-0.3c-1.8-3.9-5.9-6-8-9.8
		C106.4,50.8,110.7,53.3,112.1,58.5z"/>
	<path class="st57" d="M110.9,128.8c1.6,2.5-0.4,5.6,1.2,8.1c-0.4,0.9-0.7,1.8-1.1,2.7c-0.8,0.2-1.5,0.9-2.4,0.8
		c-2.8-0.5-4.7,1.5-7,2.5c-2.8,1-5.5,2.4-8.6,2.6c-0.4-0.2-0.7-0.5-0.9-0.9c-0.6-3.2-0.7-6.3,0.1-9.5
		C98.1,131.9,104.7,131,110.9,128.8z"/>
	<path class="st58" d="M108.5,139.9c0.8-0.2,1.6-0.7,2.5-0.2c-0.1,0.8-0.3,1.6,0.6,2c-1,2.1-3.3,1.2-4.9,2.2
		c-2.6,0.5-4.8,2.4-7.7,2.2c-0.3-2.8,2.5-2.6,3.7-4C104.8,141.5,106.1,139.3,108.5,139.9z"/>
	<path class="st59" d="M106.7,143.8c1.6-0.7,3.2-1.4,4.9-2.2c1.5,4,0.5,8.1,0.6,12.2c-1.4-1.6-0.6-3.5-0.7-5.3
		C111.4,143.6,111.5,143.6,106.7,143.8z"/>
	<path class="st60" d="M4.4,134.4c-0.2,0.1-0.4,0.3-0.6,0.3c-0.2,0-0.4-0.2-0.6-0.3c0.2-0.1,0.4-0.3,0.6-0.3
		C4,134.1,4.2,134.3,4.4,134.4z"/>
	<path class="st61" d="M68.1,14.3c-0.4,2.7-3.9,0.5-4.4,2.9c-3.5,0.6-7,3.1-10.5,0c-3.7-2.4-6.2-5.9-8.8-9.3C43.6,6,42,4.7,40.8,3.1
		c-0.3-0.4-0.5-0.9-0.4-1.4c0,0,0-0.3,0-0.3c2.7-0.1,5.3-0.8,8,0.1c2.5,0.8,5-0.9,7.6-0.6c2.7,2.7,5.4,5.5,8.1,8.2
		C65.1,11.1,66.5,12.8,68.1,14.3z"/>
	<path class="st62" d="M40.5,1.7c0.2,0.2,0.5,0.4,0.7,0.6c0.5,2.3,2.6,3.4,3.8,5.2c2.7,3.2,5.5,6.4,8.2,9.7c2,3.1,1.3,6.4,0.8,9.6
		c-5-3.2-7.6-8.5-11.4-12.8c-0.6-0.8-1.2-1.6-2.1-2c-0.7-2.8-2.1-5.4-1.5-8.5C39.1,2.6,39,1.5,40.5,1.7z"/>
	<path class="st63" d="M107.9,154.9c0.1,2.6-2.8,0.7-3.3,2.3c-0.8,0.4-1.6,0.7-2.3,1.1c-1.5,0.7-2.6,2.4-4.6,1.4
		c-0.6-0.4-1.5,0.6-1.9-0.5C99.3,156.5,103.5,155.6,107.9,154.9z"/>
	<path class="st64" d="M95.7,159.2c0.6,0.1,1.5-0.3,1.9,0.5c-0.7,2.4-3.8,0.6-4.6,2.8c-0.3,0-0.6,0-1,0c-1.3-0.5-2.5-1.1-1.7-2.9
		c0.4-0.5,0.9-0.6,1.5-0.5c0.5,0.2,0.7,0.8,1.3,0.9C93.9,159.7,94.8,159.5,95.7,159.2z"/>
	<path class="st65" d="M39.7,135.5c-0.7-1-1.4-1.9-2-2.9c-2.4-2-2.9-5.2-4.8-7.6c-0.6-1.8-1.2-3.7-2.7-5.2c-1-1.8-2.2-3.6-3.2-5.4
		c-0.7-1.7-1.4-3.4-2.2-5.1c-0.9-2.2-0.5-4.4-0.2-6.7l0.3,0c0.4-1.4,1.7-1.7,2.9-2.1c5.8-1.9,11.5-3.9,17.3-5.8
		c1.4-0.5,2.6-0.6,3.9,0c1.1,0.3,1.6,1.2,1.9,2.2c1.6,3.1,2,6.3,1.9,9.7c-0.1,4,0.2,8-0.1,11.9c-0.7,11,0.8,21.7,4.1,32.2
		c1,4.9,2.4,9.7,3.4,14.6c0.4,1.8,0.8,3.7,1,5.6c0,0.4-0.2,0.7-0.4,1c-1.6-0.6-1.9-2.4-3-3.5c-2.3-4-4.5-8-6.7-12l0,0
		c-1.2-1.7-2.1-3.7-3-5.6c-0.5-1-0.9-1.9-1.4-2.9c-0.1-1.6-2.3-1.9-2.4-3.5c-1.2-2.3-2.7-4.4-3.7-6.8c0-0.4,0-0.9,0-1.3
		c1.9,0.2,4.2-1.2,5.7,1.2c0.2,0.3,0.5,0.8,1,0.1c0.6-0.7,1-1.5,0.7-2.4c-0.3-0.7-1.2-0.7-1.6-0.4C44.1,136.2,41.9,135.3,39.7,135.5
		z"/>
	<path class="st66" d="M65.8,173.6c-0.5-0.5-0.9-1-1.4-1.5c-1.3-0.4-1.6-1.5-1.7-2.6c-0.5-6.7-2.8-13.1-4.3-19.6c-0.4-2-1-3.9-1.2-6
		c-0.7-3.4-1.5-6.8-2.3-10.2c-0.2-1-0.5-1.9-0.3-2.9c0.1-0.8,0.2-1.9,1.3-2c0.8,0,1.1,0.9,1.3,1.6c1.1,3.9,2.2,7.9,3.2,11.9
		c1.5,5.8,2.9,11.5,4.3,17.3c0.7,2.6,1.2,5.2,2,7.7C66.8,169.5,67.5,171.7,65.8,173.6z"/>
	<path class="st67" d="M71.1,176.7c-1.5-0.4-1.8-2.8-3.8-2.3c0-0.2-0.1-0.3-0.1-0.5c0.7-2.1,1.1-4.1,0.2-6.2
		c-0.2-0.3-0.3-0.6-0.3-0.9c0-0.9,0.4-1.6,0.9-2.3c1-2.3-0.2-4.4-0.7-6.5c-0.3-1.5-1.2-3.1,0.1-4.6c1.1-0.2,1.7,0.6,2.2,1.4
		c1.1,2,0.8,4.3,1.3,6.5c0.5,1.5,1.6,2.7,2.1,4.2c0.3,1.6-1.5,2.4-1.3,3.9c-0.1,0.3-0.3,0.6-0.5,0.8c-1.4,2.1,1.6,4,0.3,6.1
		C71.4,176.4,71.3,176.5,71.1,176.7z"/>
	<path class="st68" d="M59.1,149.7c2.3,6,3.6,12.2,4.5,18.5c0.2,1.3-0.1,2.7,0.8,3.9c-0.6,0.8-0.9,2.2-2.3,0.9
		c0-0.2-0.1-0.5-0.1-0.7c0.6-2.4-1-0.4-1.4-0.7c-0.5-1.8-0.9-3.6-1.4-5.4c0.2-0.4,0.4-0.9,0.9-1.1c1.6-1.1,0.3-2.5,0.2-3.7
		c-0.3-2.7-1.3-5.3-1.8-7.9C58.3,152.2,58,150.8,59.1,149.7z"/>
	<path class="st69" d="M50.9,156.5c2.7,3.7,5.2,7.6,6.7,12C54.6,164.9,52.4,160.9,50.9,156.5z"/>
	<path class="st70" d="M77.9,177.4c-1.2,0.5-2.5,1-3.7,1.4c-1.1,0.3-2.3,0.4-2.3-1.3c0.2-1.6-0.8-3.4,1-4.6c1.6,1.3,1.9,4.1,4.8,3.6
		c0.2,0.2,0.3,0.4,0.3,0.6C78,177.3,78,177.4,77.9,177.4z"/>
	<path class="st71" d="M60.6,171.5c1.3-0.9-0.9-3.8,1.3-3.4c2,0.3,0.8,2.8,0.7,4.3c0,0.2-0.3,0.4-0.5,0.5c-0.7,0-1.3-0.2-1.5-1
		C60.6,171.9,60.6,171.7,60.6,171.5z"/>
	<path class="st72" d="M73.2,173c-1.2,1.3,0.2,3.2-1.2,4.4c-0.3-0.3-0.5-0.5-0.8-0.8c0,0,0.1-0.1,0.1-0.1c1.2-2.2-1.2-4.3-0.2-6.5
		l0.1-0.1c0.5-0.4,1-0.5,1.5-0.2c0.6,0.5,1,1.1,1.1,1.9C73.8,172.2,73.7,172.7,73.2,173z"/>
	<path class="st73" d="M77.9,177.4c-0.1-0.3-0.1-0.5-0.2-0.8c-0.7-1.3,0.3-1.9,1-2.6c0.4-0.2,0.8-0.7,1.2,0c0.3,0.4,0.5,0.8,0.8,1.2
		C80.8,177.2,79.6,177.6,77.9,177.4z"/>
	<path class="st74" d="M65.8,173.6c0-2.2,0-4.4,0.1-6.6c0.2-0.2,0.5-0.4,0.8-0.4c0.3,0,0.6,0.2,0.7,0.4l0-0.1c0.9,2.5,0,4.9,0,7.4
		c0,0,0,0,0,0c0,0.4,0,1.1-0.6,1C65.9,175.2,65.9,174.3,65.8,173.6z"/>
	<path class="st69" d="M48,150.9c1.4,1.6,2.5,3.4,3,5.6C49,155.1,48.3,153.1,48,150.9z"/>
	<path class="st75" d="M91.9,167c-1.4,0.9,0.3,3.4-1.9,3.9c-0.6-2.1-2.1-3.6-3.2-5.3c-0.5-1.4,0.6-2,1.4-2.7c1-0.4,2-0.9,3.2-0.2
		C91.3,164.1,91.1,165.6,91.9,167z"/>
	<path class="st76" d="M88.4,163.3c-0.6,0.7-1.1,1.5-1.7,2.2c-0.6,0-1.1-0.1-1.7-0.1c-2-0.8-4.8-1.2-2.5-4.4
		c1.9-0.1,3.3-3.1,5.6-0.8C88.9,161.2,89.2,162.2,88.4,163.3z"/>
	<path class="st77" d="M80,174c-0.2,0.1-0.4,0.3-0.6,0.4c-1.3-1.5-4.3-1.2-4.4-4.1c0-0.3,0.1-0.7,0.2-1c0.2-0.3,0.4-0.5,0.7-0.7
		c0.6-0.3,1.2-0.5,1.7-0.8c0.7-0.4,1.4-0.7,2.2-0.6c0.8,0.2,1.8-0.3,2.5,0.6C81.6,169.9,79.3,171.4,80,174z"/>
	<path class="st78" d="M82.3,167.8c-0.7-0.3-1.7,1-2.3-0.3c-1.2-1.7-1.5-3.5-0.3-5.3c1-0.8,1.7-2.2,3.3-1.2c-2.3,2.9,1.3,3,2,4.5
		C83.8,165.7,82.6,166.2,82.3,167.8z"/>
	<path class="st79" d="M40.5,137.7c1.7,2,3,4.2,3.7,6.8C42.3,142.6,40.7,140.5,40.5,137.7z"/>
	<path class="st80" d="M88.4,163.3c-0.3-1-0.6-2-0.9-3.1c-0.4-1.2-0.2-2.3,0.8-3.2c1.6,0.1,2.6,0.7,2.2,2.6c-0.4,1.4,0.7,2,1.4,2.8
		c-0.2,0-0.4,0.1-0.6,0.1C90.4,162.8,89.4,163.1,88.4,163.3z"/>
	<path class="st81" d="M66.6,44.2c-2.3-4.5-5.8-7.9-9-11.7c-1.1-2.5-0.6-5.2-0.6-7.8c0-0.7,0.4-1.4,1.4-1.3
		c3.9,4.7,7.8,9.5,11.8,14.2c4.2,3.2,2.8,7.5,2.6,11.7c0,0.4-0.6,0.3-0.9,0.3l0,0c-1.3-2-3.2-3.5-4.7-5.3l-0.2,0L66.6,44.2z"/>
	<path class="st82" d="M71.8,49.5c1.7-4.3,1.2-8.3-1.7-12c2.9,3.4,6.5,2.7,10.1,1.4c1.1-0.4,2.4-0.6,3.5-0.8c0,0.3,0,0.5,0,0.8
		c-0.7,0.2-1.4,0.4-2.1,0.6c-2.5,0.7-5.5,0.8-7.3,2.3c-2,1.6-0.5,4.8-0.9,7.3c-0.1,0.6,0.4,1.7-0.8,1.6
		C72.4,50.5,72.1,49.9,71.8,49.5z"/>
	<path class="st83" d="M58.4,23.3c-1.7,2.9-0.4,6.1-0.7,9.2c-2.5-3.2-1.4-6.6-0.7-9.9c0.2-0.4,0.5-0.4,0.8-0.1
		C58,22.7,58.2,23,58.4,23.3z"/>
	<path class="st84" d="M57.8,22.4c-0.3,0-0.6,0.1-0.8,0.1c-0.1-1.9,1.7-1.7,2.6-1.8c2.9-0.2,5.5-2.4,8.6-1.1
		C64.7,20.5,61.3,21.5,57.8,22.4z"/>
	<path class="st85" d="M76.4,44.4c5.2-1.1,10.1-3.7,15.5-3.7c0.2,3.3-2.6,3.7-4.7,4.7c-2,0.2-3.8,0.9-4.5,3
		c-0.2,0.3-0.4,0.5-0.7,0.7c-0.7,0.3-1.4,0.3-2.1,0.2c-1.6-0.5-2.7-1.7-3.5-3.1c-0.2-0.5-0.2-1-0.2-1.6L76.4,44.4z"/>
	<path class="st86" d="M73.4,54.7c0.2,0,0.4,0,0.6,0.1c0.7,1.3,1.7,1.9,3.2,1.5c0.5,0,1,0.1,1.4,0.5c0.2,0.3,0.2,0.6,0.1,1
		c-0.4,0.6-1,1-1.4,1.4c-1.4,1.5-0.2,3.7-1.6,5.3c-0.6,0.3-1,0-1.3-0.5c-0.4-0.8-0.4-1.7-0.6-2.5c-0.8-1.7-1.8-3.2-2.2-5
		c-0.1-0.3,0-0.7,0.1-1C72.1,54.8,72.6,54.3,73.4,54.7z"/>
	<path class="st87" d="M64.5,47.8c1.4-0.3,3-1.6,3.7,0.8c0,0.7-0.2,1.3-0.6,1.9c-0.9,1-1.5,2.4-3.2,2.3c-0.4,0-0.7-0.1-1-0.2
		c-0.5-0.3-0.8-0.7-0.9-1.3C62.4,49.7,62.9,48.4,64.5,47.8z"/>
	<path class="st88" d="M67.3,50.3c0-0.7,0-1.4,0.9-1.6c1.7,2,3.5,4,5.2,6c-0.6,0.3-1.2,0.5-1.8,0.8C69,54.7,67.8,52.8,67.3,50.3z"/>
	<path class="st89" d="M78.7,56.9c-0.5,0-1-0.1-1.5-0.1c-1.2-0.9-2.5-1.7-1.5-3.5c0.2-0.3,0.4-0.7,0.6-1c0.2,0,0.3-0.1,0.5-0.1
		c0.3,0.1,0.6,0.2,0.9,0.4c1.1,1.2,3.4,0.3,4.1,2.3C81.5,56.7,80.2,57.1,78.7,56.9z"/>
	<path class="st90" d="M64.5,47.8c-0.4,1.3-1.6,2.3-1.5,3.8c-0.3,0.3-0.6,0.4-1,0.3c-0.7-0.4-1-1-1-1.8c1.2-2.4-0.3-5.2,1.3-7.5
		c2.4,0.5,1.5,2.6,2.1,4C64.4,47,64.5,47.4,64.5,47.8z"/>
	<path class="st91" d="M75.7,53.3c-0.2,1.5,1.6,2.1,1.5,3.5c-2.4,1.3-3.7,1.1-3.2-2.1C74.5,54.3,75.1,53.8,75.7,53.3z"/>
	<path class="st92" d="M76.4,44.7c0.2,0.4,0.5,0.9,0.7,1.3c0,2.1,1,4.4-0.8,6.3c0,0,0,0,0,0C74.3,49.8,74.9,47.2,76.4,44.7z"/>
	<path class="st93" d="M64.4,46.5c-1.1-1.1-0.5-3.2-2.2-4c-1.2-0.4-1.5-1.2-0.8-2.2c1.8,1.4,3.5,2.9,3.6,5.4
		C64.8,46,64.6,46.2,64.4,46.5z"/>
	<path class="st94" d="M67.1,44.2c2.2,1.2,4,2.8,4.7,5.3C69.8,48.1,68.3,46.3,67.1,44.2z"/>
	<path class="st95" d="M86.9,45c1.9-1.1,4.1-2.1,5.1-4.3c0.8-0.1,1.6-0.2,2.4-0.3c0.3,0.3,0.5,0.5,0.8,0.8c0.3,0.7-0.2,1.1-0.7,1.6
		c-2.7,2.4-5.8,4.1-8.7,6.3c-1,0.7-2.6,2-3.6-0.3l0.1,0C83.4,46.9,84.7,45.4,86.9,45z"/>
	<path class="st96" d="M82.2,48.7c1.8,1.3,3.2-0.3,4.1-1.2c2.7-2.5,6-4.1,8.8-6.4c1.7,1.9,4.1,3.2,4.4,6.1c-3.2,1.2-5.9,3.8-9.6,3.7
		c-2.2,0.7-4,2.5-6.5,2.5c-1.7-0.9-2.8-2.3-3.5-4c0-0.4,0.1-0.7,0.5-0.8C80.9,48.7,81.5,48.7,82.2,48.7z"/>
	<path class="st97" d="M48.7,95.1c-3.6,0-6.6,1.9-10,2.8c-4.7,1.3-9.2,3.1-13.8,4.7c-0.1-0.3-0.2-0.5-0.3-0.8c0-7,0-13.9,0-20.9
		c0-5.7,0.1-11.4,0.2-17.1c0-0.8-0.8-2.6,1.4-1.7c3,4.5,6,8.9,9,13.4c1.8,2.5,3.3,5.2,5.2,7.6c2.6,3.8,5,7.8,8.2,11.2
		c0.2,0.1,0.3,0.3,0.2,0.5C48.9,95,48.8,95.1,48.7,95.1z"/>
	<path class="st98" d="M35.9,71.7c-1.9-2.6-3.8-5.2-5.7-7.8c-0.9-1.2-1.7-2.5-0.4-4c1.7-0.6,2.7,0.2,3.6,1.5
		c4.2,7.9,10.1,14.6,15,21.9c0.7,1.1,1.6,2.2,2.2,3.4c0.4,0.9,1.2,1.5,2,2.1c0.8,0.7,1.3,1.6,1.5,2.6c0,0.4-0.2,0.7-0.4,0.9
		c-0.7,0.4-1.4,0.4-2.1,0.1c-1.8-1.4-3.2-3.2-4.6-5c-1.2-1.7-2.4-3.4-3.6-5.1c-1.5-1.6-2.5-3.6-3.9-5.3l0,0
		C38.4,75.4,37.2,73.6,35.9,71.7z"/>
	<path class="st99" d="M48.7,95.1c0-0.2,0-0.5,0-0.7c0.7-0.2,1.5-0.5,2.2-0.7c0.8-0.5,1.4,0,2,0.5c1,1.3,2.4,2.4,1.8,4.4
		c-2.6,2-3.7,0.6-4.4-1.9C49.7,96.1,49.2,95.6,48.7,95.1z"/>
	<path class="st100" d="M32.5,61.5c-0.9-0.5-1.8-1-2.7-1.5c0.4-1.2,0.9-2.5,0.7-3.8c0.3,0.2,0.7,0.3,1,0.5c0.3,1.2,1.5,1.1,2.3,1.6
		c0.8,0.6,1.8,1,2.4,1.9c0.1,0.4,0.1,0.7,0,1.1c-0.2,0.4-0.5,0.6-0.9,0.8C34.3,62.4,33.4,61.9,32.5,61.5z"/>
	<path class="st101" d="M40.5,83.1c-2.5-2-4.1-4.6-5.2-7.6C37.7,77.6,39.2,80.3,40.5,83.1z"/>
	<path class="st102" d="M47.2,87.6c1.9,1.1,3.2,2.9,4.5,4.6c0.1,0.6,0,1.1-0.8,0.7C49.2,91.4,47.9,89.7,47.2,87.6z"/>
	<path class="st103" d="M39.7,77.1c2.1,1.2,3.1,3.2,3.9,5.3C41.5,81.2,40.3,79.4,39.7,77.1z"/>
	<path class="st104" d="M35.9,71.7c2,1.3,3.1,3.2,3.8,5.4C37.8,75.8,36.6,74,35.9,71.7z"/>
	<path class="st105" d="M50.8,92.9c0.5,0.1,0.8-0.2,0.8-0.7c0.7,0,1.5,0,2.2,0c0.3,0.3,0.5,0.6,0.5,1c-0.1,1.2-0.7,1.8-2,1.3
		c-0.5-0.3-1-0.6-1.6-0.9C50.9,93.4,50.9,93.1,50.8,92.9z"/>
	<path class="st106" d="M24.7,102.6c0.1,2.2,0.1,4.4,0.2,6.7c-1.8-2-0.3-4.5-0.9-6.7C24.2,102.6,24.4,102.6,24.7,102.6z"/>
	<path class="st107" d="M39,45c0-1.7,0.1-3.5,0.7-5.2c2.1,2.4,4.1,4.8,6.2,7.1c1.6,1.7,1.3,3.6,1,5.5c-1.6,1.4-2.8,0-4.2-0.5
		c-0.9-0.6-2-1-2.8-1.8c-0.1-0.5-0.2-1-0.3-1.6c-0.5-1.3-2.1-1.1-2.7-2.1C37.9,46.5,38.9,46.4,39,45z"/>
	<path class="st108" d="M39.8,50.1c1.3-0.9,1.9,0.4,2.8,0.8c0.4,0.4,0.5,0.9,0.4,1.4c-0.9,1.4-0.8,3.4-2.7,4.1
		c-1.8-1-3.1-2.3-2.2-4.5C38.4,51,39.1,50.5,39.8,50.1z"/>
	<path class="st109" d="M38.1,51.9c0.7,1.5,0.7,3.3,2.3,4.3c0.6,0,0.9,0.4,1.1,0.9c0,0.4-0.1,0.6-0.4,0.9c-0.5,0.3-1,0.3-1.5,0.2
		c-0.7-0.2-1.2-0.6-1.7-1.1c-0.6-1.1-2.2-1.2-2.6-2.6C37.1,54.5,35.4,50.9,38.1,51.9z"/>
	<path class="st110" d="M35.3,54.6c0.9,0.8,3.2,0,2.9,2.3c-0.1,0.1-0.2,0.2-0.3,0.3c-0.8,0.7-0.5,2.4-2,2.6c-1.2,0.2-2.1,0-2.1-1.4
		c0-0.4,0.1-0.8,0.2-1.3c0.3-0.8-0.3-1.8,0.6-2.4C34.8,54.7,35.1,54.7,35.3,54.6z"/>
	<path class="st111" d="M34.5,54.7c-0.5,1,1.3,2.1-0.1,3.1c-2.4-0.5-0.4-2.7-1.4-3.8c0.2-0.8,0.4-1.5,0.6-2.3
		C35.5,52.3,34.5,53.7,34.5,54.7z"/>
	<path class="st112" d="M33.7,50.8c0-0.2,0-0.3,0-0.5c0.4-0.4,0.9-0.8,1.3-1.1c0.7-0.5,1.5-0.5,1.8,0.3c0.3,1-0.8,1-1.4,1.3
		C35,51,34.3,50.8,33.7,50.8z"/>
	<path class="st113" d="M33.1,54c1.2,1,0.1,2.8,1.4,3.8c-0.3,0.2-0.5,0.4-0.8,0.6c-2,0.9-2.2-0.3-2.1-1.8
		C33.7,56.6,32.5,54.8,33.1,54z"/>
	<path class="st114" d="M61.4,40.3c0.3,0.7,0.5,1.5,0.8,2.2c-0.2,2.5,1.6,5.3-0.8,7.6c-1.2,0.5-2-0.3-2.5-1
		c-3.3-4.2-7.3-7.9-9.7-12.7c-1.6-2.5-1.6-5.3-1.3-8.1c0.1-1.1,0.1-2.7,2.1-2.1C53.4,31.2,57.3,35.8,61.4,40.3z"/>
	<path class="st115" d="M42.7,29.2c-0.7-1.1-1.5-2.3-2.2-3.4c-1.2-3.7-2.6-7.4-0.7-11.3c2,2.4,3.9,4.8,5.9,7.2
		c1.5,2.9,1.2,6,0.7,9.1C44,32.9,43.7,30.3,42.7,29.2z"/>
	<path class="st116" d="M46.4,21.8c1,0.9,1,2.7,2.5,3.3c-1.2,2.8-0.1,5.8-0.8,8.7c-2,0.1-1.7-1.5-2-2.7C46.3,28,45.6,24.8,46.4,21.8
		z"/>
	<path class="st117" d="M47.7,33.8c0.7-2.9-0.9-6,1.1-8.7c0.6,0.2,1,0.5,1,1.2c-2.3,2.6-1.1,5.5-0.6,8.3c0.2,0.8,0.6,1.6,0.9,2.3
		C48.2,36.8,47.2,35.9,47.7,33.8z"/>
	<path class="st118" d="M46.4,21.8c0,3.2,0,6.5,0,9.7c0,0.3,0.2,0.7-0.3,0.7c-0.6,0-0.6-0.4-0.6-0.9c0.1-3.2,0.1-6.4,0.2-9.6
		C45.9,21.7,46.2,21.7,46.4,21.8z"/>
	<path class="st119" d="M39.3,35.5c-0.4-2.3-0.7-4.6,0.2-6.9c1,0.8,2.1,1.5,3.1,2.3c0.3,0.2,0.5,0.4,0.7,0.7
		c0.9,1.7,2.3,2.9,3.6,4.2c2.9,3,5.7,6,7.8,9.5c0.8,2.5,1.4,5.1-0.4,7.4c-1.1,0.8-2.2,1.3-2.8-0.6c-0.9-3.3-3.6-5.5-5.6-7.9
		C43.6,41.4,41.5,38.4,39.3,35.5z"/>
	<path class="st120" d="M51.6,52.1c0.6,0.7,1.4,1,2.2,0.3c0.5-0.3,1.2-0.2,1.6-0.6c0.6-1.2,0.7-2.8,2.5-2.7c1.3,0.1,2.1,1.1,2.3,2.5
		C60,53,59,53.7,58,54.5c-0.6,0.4-1.2,0.8-2,1c-1.3,0.3-2.5,0.8-3.9,0.5c-1.4-0.5-2.5-1.3-2.3-3C50.4,52.7,51,52.4,51.6,52.1z"/>
	<path class="st121" d="M42.7,52.5c0-0.5,0-1,0-1.5c1.4,0.5,2.5,1.7,4.2,1.4c0.4,0.3,0.7,0.5,1.1,0.8c0.8,1,0.3,1.7-0.4,2.5
		c-0.7,0.6-1.6,0.9-2.6,0.9c-0.8-0.1-1.4-0.5-2-1C42.2,54.6,41.9,53.6,42.7,52.5z"/>
	<path class="st122" d="M47.2,55.5c0.3-0.8,0.5-1.5,0.8-2.3c0.6-0.1,1.3-0.1,1.9-0.2c0.7,1,1.3,2,2.4,2.5c0.2,0.2,0.3,0.4,0.3,0.6
		c0,0.2,0,0.3-0.1,0.3c-0.6,1-0.6,2.3-1.7,3C48.9,58.7,47.2,57.9,47.2,55.5z"/>
	<path class="st123" d="M59.8,51.4c-3.5-4.8-2.8,0.9-4.1,1.7c-1.4-1-0.5-2.5-0.6-3.7c-0.1-1.6,0-3.2-1.2-4.4c-2.5-3-5-6-7.5-8.9
		c-0.8-1.9-2.8-2.9-3.7-4.7c0-0.2,0-0.3,0-0.5c0-0.6,0.1-1.1,0.1-1.7c0.9,0.7,1.8,1.4,2.7,2.2c0.2,0.5,0.5,1,0.9,0.2
		c1.1,0.4,0.5,1.7,1.3,2.3c0.5,1.3,1.3,2.4,2.4,3.1c3.5,4.6,6.9,9.4,11.2,13.3c0.2,0.5,0.5,1,0.7,1.6c-0.3,0.7-0.9,1.2-1.7,1
		C59.7,52.6,59.4,52.2,59.8,51.4z"/>
	<path class="st124" d="M32.9,125c2.4,2,3.2,5.1,4.8,7.6C34.6,131,34.1,127.7,32.9,125z"/>
	<path class="st125" d="M27,114.4c1.7,1.4,2.8,3.2,3.2,5.4C28.5,118.4,27.3,116.6,27,114.4z"/>
	<path class="st126" d="M104.8,101.8c0.5,0.1,1,0.2,1.5,0.2c0,0.2,0,0.4,0,0.5c-3,1.7-6.4,2.3-9.6,3.6c-0.9,0.4-1.9,0.4-2.7-0.5
		c0.9-2,3-2.2,4.7-3.1C100.7,102.1,102.5,100.4,104.8,101.8z"/>
	<path class="st127" d="M100.4,114.7c-1.8,2.6-4.8,2.2-7.4,2.9c-2-3.5-1.8-8.5,0.6-10.4c0,1.7,0.2,3.5-0.1,5.1
		c-0.4,3.3,0.9,3.9,3.7,2.7C98.2,114.6,99.3,114.5,100.4,114.7z"/>
	<path class="st128" d="M93.6,107.1c-1.6,3.4-0.6,7-0.6,10.5c-0.2,0.6-0.3,1.1-0.5,1.7c-1.6-0.2-2.4-1.1-2.4-2.7
		c1.2-2.8,1.3-5.6,0.6-8.5c-0.2-0.8-0.5-1.6,0.2-2.4c0.6-0.6,1.3-0.7,2.1-0.6c0.4,0.1,0.7,0.3,0.9,0.7
		C93.7,106.2,93.6,106.6,93.6,107.1z"/>
	<path class="st129" d="M98.8,103.5c-1.6,0.7-3.2,1.5-4.8,2.2c0,0-0.3,0-0.3,0c-0.2,0-0.3-0.1-0.3-0.3c-1.3-0.6-2.1-1.4-1.3-2.9
		c1.3,0.1,2.5,0,3.7-0.6c1,1.1,2.2-1,3.3,0.2C99.3,102.6,99.2,103.1,98.8,103.5z"/>
	<path class="st130" d="M107.9,113.1c-2.3,1-4.3,2.8-7.1,1.6C103.1,113.9,105.4,112.8,107.9,113.1z"/>
	<path class="st131" d="M110.7,125.8c-3.2,0.3-6.3,1-9,3.1c0,0,0,0,0,0c-2.4,0.6-4.7,1.4-7,2.2c-0.8,0.3-1.6,0.7-2.4-0.1
		c-1.1-3.2-0.7-6.5-0.3-9.8c0.2-0.4,0.4-0.8,0.8-1.1c2.4,0.3,4.5-0.7,6.6-1.6c3.3,0.1,6.3-1.3,9.3-2.3c2.2-0.8,3-0.2,2.7,2.1
		C111.2,120.7,112.1,123.3,110.7,125.8z"/>
	<path class="st132" d="M92.8,120l0,0.3c-0.8,2.8-0.2,5.7-0.5,8.6c-0.1,0.9-0.1,1.7-0.8,2.3c-2,0.5-2.8-0.7-3.3-2.3
		c-0.2-2.4-2.4-3.7-3.4-5.6c-0.8-1.1-1.7-2.1-2.2-3.4c-0.9-2.4-2.2-4.4-4.4-5.8c-0.5-0.6-0.8-1.2-0.8-1.9c1.2-2.6,3.7-2.8,6-3.5
		c0.4,0,0.7,0,1.1,0.1c2.6,1.1,3.2,3.8,4.6,5.8c0.2,0.3,0.3,0.6,0.4,0.9c0.2,0.5,0.2,0.9,0.1,1.4c0.5,1.3,2,1.6,2.9,2.5
		C92.6,119.5,92.7,119.7,92.8,120z"/>
	<path class="st133" d="M91.3,132.7c0,0.2,0,0.4,0,0.7c2.1,3.6,0.9,7.3,0.5,11.1c-1,0.7-1.7,0.2-2.1-0.7c-1.1-2.2-2.9-4-3.9-6.3
		c-2-3.6-1.7-7.3-1-11.1c0.3-0.5,0.7-0.8,1.4-0.5c1.8,2,2.3,5,5,6.4C91.1,132.4,91.2,132.5,91.3,132.7z"/>
	<path class="st134" d="M110.9,128.8c-5.7,2.8-12.1,3.7-18,6.2c-0.4-0.3-0.4-0.6-0.1-0.9c6-1.9,12-3.8,18-5.7
		C110.8,128.5,110.9,128.7,110.9,128.8z"/>
	<path class="st135" d="M92.8,134.1c0,0.3,0.1,0.6,0.1,0.9c0,3.4,0,6.7,0,10.1c-0.4,0.6-1,0.6-1.6,0.4c-0.3-0.3-0.4-0.7-0.3-1.1
		c1.4-3.6,1-7.3,0.2-11C91.8,133.6,92.3,133.8,92.8,134.1z"/>
	<path class="st136" d="M91.3,130.8c0.7-2.4,0.6-4.8,0.7-7.2c0-1.2-0.5-2.5,0.9-3.4c0,3.5,0,7.1,0,10.6c0.4,0.3,0.4,0.6,0,0.9
		c-0.5,0.3-1,0.6-1.5,0.9c0,0,0.1-0.2,0.1-0.2C90.8,132,90.8,131.4,91.3,130.8z"/>
	<path class="st137" d="M92.8,131.8c0-0.3,0-0.6,0-0.9c3.1-0.2,5.7-2.4,9-2C99,130.6,95.9,131.1,92.8,131.8z"/>
	<path class="st138" d="M98.8,102c-1-0.1-2,1.2-3-0.1c2.6-0.8,5.3-1.7,7.9-2.5c1.1-0.4,2.2-1,3.3,0.1c-0.8,0.3-1.5,0.7-2.3,1
		C102.8,101.3,101,102.5,98.8,102z"/>
	<path class="st139" d="M98.8,102c2-0.6,3.8-1.7,6-1.5c0,0.4,0,0.9,0,1.3c-2,0.6-4,1.1-5.9,1.7C98.8,103,98.8,102.5,98.8,102z"/>
	<path class="st140" d="M84.5,109.3c-0.3,0-0.5,0-0.8,0c-2.1-0.7-3.2-2.1-3.1-4.4c0.2-0.3,0.5-0.5,0.7-0.7c1.6-2.9,0.5-6,0.6-9.1
		c-2.9-4-6.2-7.7-9.1-11.8c-0.5-0.8-0.8-1.6-0.8-2.6c0.3-1.2,1.1-1.9,2.4-1.9c2.6,0.9,1.5,4.4,3.9,5.4c4.5,5.5,8.5,11.4,13.2,16.8
		c0.2,0.3,0.4,0.6,0.6,0.9c0,0.2,0,0.4,0.1,0.6c0.4,1,0.9,1.9,1.3,2.9c-0.8,0-1.5,0-2.3,0c-2.6-1.1-3.7-3.7-5.6-5.5
		c-1.7,1.2-0.6,2.9-0.8,4.4c-0.2,1.3,0.2,2.7,0.3,4.1C85,108.8,84.8,109,84.5,109.3z"/>
	<path class="st141" d="M91.8,91.5c3.9,0.1,7.2-2.1,10.9-2.9c1.7-0.4,3.2-1.4,5-0.9c0.2,0.1,0.3,0.3,0.2,0.4
		c-0.1,0.1-0.2,0.2-0.3,0.2c-5.1,1.4-10.5,2.1-15,5.3c-0.3,0.2-0.7,0.3-1,0.2C90.7,93,91.2,92.3,91.8,91.5z"/>
	<path class="st142" d="M107.7,88.4c0-0.2,0-0.4,0-0.7c1.3,0,2.2-1.4,3.6-1c-0.1,3.3,0.9,6.7-0.6,10c0-1.8-0.1-3.7,0-5.5
		C111,88.8,109.8,88.1,107.7,88.4z"/>
	<path class="st143" d="M92,93.7c0.3,0,0.5,0,0.8,0c-0.3,2.7,0.8,5.6-0.6,8.2c-0.2-0.1-0.5-0.2-0.7-0.3C90.6,98.9,90.4,96.2,92,93.7
		z"/>
	<path class="st144" d="M110,71.9c0.8,0.1,1.5,0.3,1.5,1.2c-0.1,3,0.8,6.2-0.7,9.1c-0.8,0.3-1.6,0.7-2.4,1
		c-4.3,2.2-9.1,2.9-13.6,4.4c-1.2,0.4-2.2,0.3-2.7-1.1c-0.4-2.8-0.6-5.5,0.2-8.3c4.8-2.9,10.3-4,15.6-5.6
		C108.6,72.5,109.3,72.2,110,71.9z"/>
	<path class="st145" d="M92,93.7c-0.2,2.6-0.4,5.3-0.6,7.9c-3.2-1.3-4-4.8-6.2-7.1c-2.8-3-5-6.6-7.4-10c-2.2-2.5-2.4-5.5-2.2-8.7
		c0.3-0.8,0.8-1.4,1.7-1.4c3.6,1.8,5.5,5.3,7.9,8.3c1.7,3.2,4.3,5.7,6.5,8.6c0,0,0.1,0.1,0.1,0.1C91.9,92.2,91.4,93,92,93.7z"/>
	<path class="st146" d="M84.5,82.9c-2.3-2.7-4.6-5.3-6.9-8c0.2-0.7,0.8-1,1.5-1.2c0.9,0,1.9,0.1,2.7-0.5c0.5-0.3,1-0.9,1.7-0.9
		c0.3,0.1,0.6,0.3,0.8,0.6c0.8,2.9,0.1,6.3,2.9,8.6c1.3,1.6,2.9,2.9,3.8,4.8c0.4,0.9,1,1.7,1,2.8c0,0.6,0,1.1-0.6,1.3
		C88.3,88.8,86.9,85.5,84.5,82.9z"/>
	<path class="st147" d="M92,89.2c-0.9-0.6-1.5-1.4-1.7-2.5c0.5-0.3,1-0.2,1.5-0.2c0.3,0,0.5,0.1,0.7,0.2c3.7,1.2,6.7-1.4,10.1-1.9
		c1.9-0.3,3.8-1,5.7-1.6c-3.2,2.8-7.5,2.7-11.1,4.3C95.5,88.3,93.7,88.7,92,89.2z"/>
	<path class="st148" d="M84.5,82.9c2.8,2.1,4.5,5.1,6.8,7.7c0.1,0.3,0.2,0.5,0.3,0.8C88.3,89.4,86.1,86.4,84.5,82.9z"/>
	<path class="st149" d="M104.8,66.7c2.3,0,4.7,0,6.7-1.5c0.4,1.9-0.5,2.8-2.3,3.6c-1.2,0.5-3.1,0.2-3.5,2.1
		c-3.6,1.5-7.7,1.4-11.2,3.4c-0.8,0.5-1.7,0.3-2.5-0.2c-1-0.3-1.3-1.1-1.1-2.1c0.2-0.5,0.6-0.9,1-1.2c0.3-0.2,0.6-0.4,0.9-0.5
		C96.7,68.5,101,68.7,104.8,66.7z"/>
	<path class="st150" d="M107.9,72.8c-5,1.7-10,3.5-14.9,5.2c-0.7,0.3-0.3,1.4-1.2,1.6c-1.1-0.5-1.1-1.3-0.7-2.3
		c0.3-0.3,0.6-0.4,1-0.2c4.1-1.3,8.2-2.5,12.3-3.8C105.5,72.9,106.6,72.4,107.9,72.8z"/>
	<path class="st151" d="M92,77c-0.3,0-0.5,0-0.8,0.1c-2-0.7-3-2.2-3.3-4.3c0.1-0.7,0.4-1.3,1-1.8c1-0.3,1.7,0.1,2.2,0.9
		c0,0.8,0.4,1.5,0.9,2.1C92,75.1,92,76.1,92,77z"/>
	<path class="st152" d="M91.3,145.2c0.5,0,1.1-0.1,1.6-0.1c0.1,0.1,0.3,0.1,0.4,0.1c1.1-0.4,2.3-0.6,3.5-0.9
		c1.5-0.4,2.4,0.1,2.3,1.8c-2.9-0.3-4.6,1.6-6.3,3.4c-0.3,0.1-0.6,0-0.9-0.1c-0.3-0.2-0.5-0.4-0.7-0.6c-0.5-0.7-0.7-1.4-0.6-2.3
		C90.7,145.9,90.9,145.5,91.3,145.2z"/>
	<path class="st153" d="M99.1,146c0-1.7-1.1-1.7-2.2-1.3c-1.2,0.4-2.3,0.9-3.5,0.5c2.5-1.8,5.6-2.1,8.4-3.1c0.6-0.2,1.1-0.3,1.6,0.1
		C102.1,143.7,99.6,143.7,99.1,146C99.1,146,99.1,146,99.1,146z"/>
	<path class="st154" d="M92.1,149.2c0.3,0.1,0.5,0.2,0.8,0.2c0.1,3.5-0.3,7.1,0.2,10.6c-0.5-0.2-0.9-0.3-1.4-0.5
		C90.5,156,90.4,152.6,92.1,149.2z"/>
	<path class="st155" d="M91.1,71.9c-0.7-0.3-1.3-0.6-2-1C84.8,67.2,81,63,78.7,57.7c0-0.2,0-0.5,0-0.7c0.8-1,2.6-0.7,3-2.2
		c0.4-0.5,0.9-0.7,1.5-0.7c0.8-0.1,1.6,0.1,2.1,0.7c1.7,2.2,3.5,4.4,5.2,6.6c2.5,3,2.4,6.4,1.6,9.9C91.8,71.4,91.5,71.7,91.1,71.9z"
		/>
	<path class="st156" d="M110.6,57.6c0,0.3,0,0.5,0,0.8c-5.3,1.2-10.2,3.7-15.6,4.5c-0.2-0.1-0.3-0.2-0.2-0.4
		c0.1-0.1,0.1-0.2,0.2-0.2C100.2,60.6,105.3,58.7,110.6,57.6z"/>
	<path class="st157" d="M85.3,54.7c-0.7,0-1.5,0-2.2,0c-0.5-0.5-0.4-1,0-1.5c2.2-0.9,4.1-2.6,6.7-2.2C89.2,53.3,86.4,53,85.3,54.7z"
		/>
	<path class="st158" d="M95,62.3c0,0.2,0,0.4,0,0.5c-2,1.3-2.6,3.1-2.2,5.3c0.5,1,0.9,2-0.3,2.9c-0.2,0-0.3,0-0.5,0.1
		c-0.6-3.3,0.4-6.8-1.6-9.9C91.8,62.5,93.2,63.6,95,62.3z"/>
	<path class="st159" d="M92.6,71.1c0.1-1,0.2-1.9,0.3-2.9c2.6,1.5,4.8-0.6,7.3-1c1.5-0.2,3.1-0.7,4.7-0.6c-0.2,1.9-1.9,1.9-3.1,2.1
		C98.6,69.2,95.6,70.3,92.6,71.1z"/>
	<path class="st160" d="M103.4,142.3c-0.5,0-1.1-0.1-1.6-0.1c2-1.3,3.8-3.6,6.7-2.3C106.8,140.7,105.1,141.5,103.4,142.3z"/>
	<path class="st161" d="M45,7.5c-1.7-1.4-3.8-2.5-3.8-5.2C42.5,4,44.3,5.3,45,7.5z"/>
	<path class="st162" d="M92.1,149.2c-0.1,3.4-0.3,6.9-0.4,10.3c-0.4,0-0.7,0.1-1.1,0.1c-0.5-1-1.2-1.9-2.2-2.4
		c-0.4,0-0.8-0.2-1.1-0.5c-0.3-0.4-0.7-0.8-1.2-1.1c-0.1-0.1-0.3-0.1-0.4-0.2c-0.1-0.1-0.3-0.1-0.4-0.2c-0.7-0.3-1.6-0.5-1.8-1.4
		c-0.1-1.3,0.7-2,1.7-2.5c2.5-0.2,4.1-3,6.8-2.4C92,149,92.1,149.2,92.1,149.2z"/>
	<path class="st163" d="M50.2,96.6c1,2,2.3,3.2,4.5,1.4c0.1,0.2,0.2,0.4,0.3,0.6c0.2,0.7,0,1.3-0.5,1.9c-1.3,1.2-1,2.7-1,4.2
		c-0.1,9.3,0,18.7,0,28c0.7,4.6,2,9.1,3.2,13.6c0.4,1.6,1.2,3.3,0.4,5c-0.3,0.3-0.7,0.4-1.1,0.1c-2.3-7.9-4.8-15.8-4.5-24.2
		c0.3-7.1,0-14.1,0-21.2c0-2.9,0.3-5.7-1.9-8.1C49.4,97.4,49.6,96.8,50.2,96.6z"/>
	<path class="st164" d="M56,151.3c0.3,0,0.5,0,0.8,0c2.5,4.4,4,8.9,3.2,14c-0.3,0.3-0.5,0.6-0.8,0.8C58.2,161.2,57.1,156.2,56,151.3
		z"/>
	<path class="st165" d="M60,165.3c-1.1-4.7-2.1-9.4-3.2-14c-1.4-6-2.8-12-4.2-18c0.7-0.7,1.4-0.6,2.1-0.2c1.5,2.6,1.7,5.6,2.4,8.4
		c0.2,0.8,0.1,1.7,1.1,2.1c0.3,2,0.5,4,0.8,6c0.2,4.9,2,9.5,2.9,14.3c0.2,0.9,0.6,2.1-0.5,2.6C60.6,167,60.6,165.7,60,165.3z"/>
	<path class="st166" d="M58.3,143.6c-1.2,0.2-1.3-0.7-1.5-1.5c-0.7-2.9-1.5-5.9-2.3-8.8c-0.5-0.6-1.9-0.4-1.4-1.7
		c0.8-1.8,0.1-4,1.2-5.8c0.3-0.3,0.7-0.4,1.1-0.4c0.4,0,0.8,0.2,1.1,0.5c0.9,1,1.2,2.2,1.5,3.4c2.3,8.9,4.5,17.8,6.7,26.7
		c0.3,1.3,0.7,2.7,0.1,4c-0.3,0.4-0.6,0.5-1,0.3c-2.6-10.2-5.1-20.4-7.7-30.6C55.6,134.5,57.3,139,58.3,143.6z"/>
	<path class="st167" d="M63.7,160.2c0.3,0,0.6,0,0.9,0c2.4,1.7,2.9,4,2.1,6.7c-0.3,0-0.6,0-0.8,0.1
		C64.5,164.9,64.7,162.4,63.7,160.2z"/>
	<path class="st168" d="M66.7,166.9c-0.7-2.2-1.4-4.5-2.1-6.7c-2.8-11.5-5.6-22.9-8.4-34.4c0.2-0.7,0.7-1.1,1.4-1.2
		c0.3,0,0.7,0.1,1,0.2c0.6,0.4,1,0.9,1.3,1.5c0.3,0.6,0.5,1.3,0.5,1.9c0.1,2.1,0.8,4,1.3,6c0.9,3.2,1.5,6.5,2.7,9.6
		c0.6,2.5,1.3,4.9,1.8,7.4c0.2,3.8,1.7,7.3,2.4,11c0.2,0.9,0.4,1.7-0.1,2.4c-0.3,0.8-0.6,1.6-1,2.3C67.2,167,66.9,167,66.7,166.9z"
		/>
	<path class="st169" d="M68.4,164.7c-1.1-4.5-2.1-9-3.2-13.4c0.6-1.5-0.5-3.4,1.3-4.6c1.5-0.2,2,0.7,2.1,1.9
		c-0.1,0.9-0.4,1.7-0.6,2.5c-0.2,0.8-0.5,1.6-0.7,2.4c0.7,3.2,1.5,6.4,2,9.7C69.4,163.6,70.7,165.4,68.4,164.7z"/>
	<path class="st170" d="M67.3,153.4c-0.9-0.8-0.8-1.5,0.2-2.2c1.6-0.5,2.3,1.7,3.9,1.2c3.2,1.3,4,3.6,2.4,6.6
		c-0.1,0.3-0.4,0.6-0.7,0.7c-0.5,0.2-1,0.1-1.5-0.2c-1.4-1.2-1.5-3.2-2.8-4.6C68.7,154.2,68,153.8,67.3,153.4z"/>
	<path class="st171" d="M67.3,174.4c-1.3-2.5-0.9-4.9,0-7.4C69.5,168.9,69.5,171.9,67.3,174.4z"/>
	<path class="st172" d="M72.6,169.9c-0.5,0-1,0-1.4,0c-0.1-1.6-1-3.5,1.4-4.3c0.2-1.7,1.3-2.1,2.8-1.9c0.7,0.4,0.8,1,0.7,1.7
		c-0.5,1.2-1.3,2.4-1.6,3.7C73.9,169.8,73.3,170,72.6,169.9z"/>
	<path class="st173" d="M74.8,164c-0.8,0.5-1.6,1.1-2.3,1.6c-0.9-1.2-2-2.2-2.1-3.9c0.1-0.1,0.2-0.3,0.3-0.4
		c0.7-0.5,1.5-0.8,2.4-0.6C74.2,161.6,75.4,162.3,74.8,164z"/>
	<path class="st174" d="M71,170.1c0.5,2.1,1.9,4.2,0.2,6.5c0-1.9-1.1-3.6-1.5-5.4C69.5,170.1,69.6,169.3,71,170.1z"/>
	<path class="st175" d="M68.9,155.1c1.5,1.1,2.6,2.5,3,4.3c-0.2,0.9-0.8,1.6-1.5,2.3c0,0,0,0.1,0,0.1
		C68.8,159.8,70,157.2,68.9,155.1z"/>
	<path class="st176" d="M75.6,170.1c0.7,0.5-0.7,3.8,2.3,1.4c1.2-1-0.1,2.4,1.4,3c0,1.1-2.1,0.6-1.6,2.2c-4.1,1.3-4.1,1.3-4.6-3.6
		c0.1-0.5,0.2-1,0.3-1.4C73.9,170.7,74.1,169.5,75.6,170.1z"/>
	<path class="st177" d="M75.6,170.1c-1,0.1-0.7,2.1-2.2,1.5c-0.9-0.2-0.8-1-0.9-1.6c0.2-0.8,1-0.6,1.5-0.8c0.5-0.4,1-0.3,1.5,0.1
		C75.6,169.5,75.6,169.8,75.6,170.1z"/>
	<path class="st178" d="M87.5,156.4c0.3,0.3,0.6,0.5,0.8,0.8c-0.3,1-0.5,2-0.8,3c-1.8-1.5-2.7,2.3-4.5,0.8c-1,0.5-2,1-3,1.4
		c-0.7,0.4-1.3,0-1.9-0.4c-0.9-1.2-2.3-2-2.4-3.7c0.3-1.6,2-1.5,2.8-2.5c1.6-0.9,2.8-2.9,5.1-1.6c0.8,0.1,1.8-0.2,2.3,0.8
		c-0.6,1.1-2.4,1.2-2.5,2.8c-0.1,1.1-0.8,1.7-1.8,1.8c0.9,0.2,1.4-0.6,2.1-0.9c1.4-0.8,1-2.7,2.2-3.6c0.2,0,0.4,0,0.5-0.1
		C87.2,155.3,87.1,156,87.5,156.4z"/>
	<path class="st179" d="M74.8,164c-0.6-1.1-1.1-2.2-2.1-3c-0.6-0.8,0-1.1,0.5-1.5l0.3-0.1c0.3-0.2,0.7-0.1,1,0.1
		c1.1,1.9,2.9,3,4,4.9c0.5,1.3,0.2,2.6-0.4,3.9c-0.5,0.7-1.1,0.9-1.9,0.9c-0.9-1.1-0.9-2.4-0.6-3.7C75.6,164.8,75.4,164.3,74.8,164z
		"/>
	<path class="st180" d="M78.1,168.3c-0.1-1.4-0.2-2.8-0.4-4.2c0-0.9,0-1.8,0.9-2.4c0.5,0.3,1,0.5,1.4,0.8c-0.7,1.7,0.4,3.4,0,5.1
		C79.4,167.8,78.7,168.1,78.1,168.3z"/>
	<path class="st181" d="M75.6,165.5c0.8,1.1,0.9,2.4,0.6,3.7c0,0-0.3,0-0.3,0s-0.3,0-0.3,0c-0.5,0-1-0.1-1.5-0.1
		C72.7,167.1,74.8,166.6,75.6,165.5z"/>
	<path class="st182" d="M80.3,48.7c0,0.2,0,0.4,0,0.6c0.5,2.5-1.1,3.1-3.1,3.1c-0.3,0-0.6-0.1-0.9-0.2c0.4-2.1-0.7-4.4,0.8-6.3
		C78,47,78.8,48.3,80.3,48.7z"/>
	<path class="st183" d="M86.9,45c-1.5,1.3-3,2.5-4.6,3.8C82,45.3,84.4,45.1,86.9,45z"/>
	<path class="st184" d="M82.4,74c-1,0.3-1.9,1.8-3.1,0.3c-1.7-1.6-2.6-3.6-3.3-5.7c0.9-1.5,0.1-2.9-0.4-4.3c1-1.8-1.3-4.4,1.5-5.7
		c2.7,2.1,4.7,4.8,6.1,8C83.6,69.2,83.4,71.6,82.4,74z"/>
	<path class="st185" d="M82.3,66c-1.8-2.5-3.5-4.9-5.3-7.4c0.1-1.1,1-0.8,1.6-0.9c3.5,4.4,7,8.9,10.5,13.3c-0.1,0.7-0.2,1.3-0.8,1.7
		c-0.6,0.2-1-0.1-1.4-0.4c-0.9-0.8-1.9-3.3-2.8,0c-0.1,0.1-0.3,0.2-0.4,0.3c-0.2,0-0.4,0-0.6,0C82,70.5,83.4,68.1,82.3,66z"/>
	<path class="st186" d="M67.3,50.3c1.5,1.7,2.4,3.8,4.3,5.2c0,0.2,0.1,0.5,0.2,0.7c-0.1,0.1-0.2,0.2-0.3,0.4c-1.7-0.3-2.1,1-2.6,2.1
		c-1.7,0.1-2.5-1.3-3.5-2.3c-0.8-1.2-2.2-2.3-0.9-3.9C66.3,53.1,65.4,49.7,67.3,50.3z"/>
	<path class="st187" d="M75.5,64.3c1.5,1,3.9,1.8,1,3.9c-1.2,0.7-2.6,0.2-3.8,1c-1.2,0.5-2.4,0.8-3.6,0.1c-0.5-0.5-0.3-1,0.1-1.4
		c1.9-1,2-3,2.5-4.7c1.5-1.2,2.4-0.2,3.4,0.8C75.2,63.9,75.4,64.1,75.5,64.3z"/>
	<path class="st188" d="M75,63.9c-1.1,0-2-1.6-3.2-0.1c-1.5,0.1-1.7-1.1-2-2.1c0-0.4,0-0.7,0-1.1c0.3-0.9,0.9-1.5,1.9-1.6
		c1,0.5,1.6,1.7,2.9,1.7C74.7,61.7,74.9,62.8,75,63.9z"/>
	<path class="st189" d="M74.6,60.7c-1.8,0.9-2.4-0.2-2.9-1.6c-0.7-1-0.5-2,0.2-2.9c0,0-0.1,0-0.1,0C73.6,57.1,72.8,59.7,74.6,60.7z"
		/>
	<path class="st190" d="M59.8,51.4c0.6,1.5,1.5,0.6,2.3,0.3c0.3,0,0.5-0.1,0.8-0.1c0.3,0.3,0.5,0.6,0.8,0.9c0,1.6,0.7,3,1,4.5
		c0,0.4-0.2,0.7-0.4,0.9c-0.4,0.3-0.9,0.4-1.5,0.5c-1.6-0.6-4,1.5-4.9-1.4c-0.4-1-0.7-2-0.2-3.1C58.4,53.1,59.7,52.8,59.8,51.4z"/>
	<path class="st191" d="M64.4,57.2c-2.1-1.3-0.9-3.1-0.6-4.7c0.2,0,0.4,0,0.7,0c-0.7,1.6,1.8,2.1,1.3,3.7
		C65.6,56.9,65.2,57.3,64.4,57.2z"/>
	<path class="st192" d="M77.2,52.5c1.1-1,2.8-1.4,3.1-3.1c1.2,1.1,2.2,2.3,2.8,3.8c0,0.5,0,1,0,1.5c-0.5,0-1,0-1.5,0
		C80.5,53.3,77.2,56.1,77.2,52.5z"/>
	<path class="st193" d="M27.9,82.3c2.4,0.4,4.3-0.7,5,0.8c0.7,1.5-1,2.1-1.8,1.2C30.4,83.5,29.7,83.3,27.9,82.3z"/>
	<path class="st194" d="M32.5,61.5c1.2,0,2.3,0,3.5,0c0.6-0.2,0.9,0.2,1,0.7c0.1,1.3,0.5,2.5,1.7,3.3c0.9,0.8,1.3,2,1.6,3.1
		c0.2,2.1,1.7,3.2,3.3,4.3c-0.2,2.6,2.5,3.4,3.2,5.4c1,1.3,1.5,3,3.2,3.7c0.7,0.4,1.2,0.9,1.5,1.7c0.1,1.5,1,3.3-1.3,4
		c-4.8-6.8-9.6-13.6-14.5-20.3C34.5,65.4,33.3,63.6,32.5,61.5z"/>
	<path class="st195" d="M50.2,87.5c1.6-1.3,0.3-2.9,0.5-4.3c-1.9-3.5-1.1-7.3-1.1-11.1c0.6-2.8-0.6-5.9,1.2-8.5c1.3-0.7,2.1,0,2.8,1
		c0.9,2.5,0.6,5,0.6,7.6c0.3,4.2-0.1,8.5,0,12.7c0,1.6,0.4,3.6-1.8,4.5C51.4,89.2,50.5,88.7,50.2,87.5z"/>
	<path class="st196" d="M52.5,89.4c1.5-5.8,0.2-11.6,0.7-17.4c1.5,0,2.5-3.2,4.4-0.7c0.5,2.7,0.5,5.4,0,8.1
		c-0.1,0.7-2.4,1.4-0.1,2.2c0.5,1.9,0.5,3.7,0,5.5c-1.6,1.1-2.8,2.5-3.6,4.3C53.4,90.7,53,90,52.5,89.4z"/>
	<path class="st197" d="M53.9,91.4c0.5-1.6-1.6-5.2,2.9-3.8c1.7,1.6,1,3.5,1,5.4c-0.2,0.6-0.4,1.2-1,1.5c-1.6,0.5-2.2-0.5-2.7-1.7
		c-0.1-0.2-0.2-0.5-0.2-0.7C53.9,91.9,53.9,91.7,53.9,91.4z"/>
	<path class="st198" d="M54,92.9c0.7,0.5,1.5,1,2.2,1.5c0.6,0.4,1,1,1.3,1.6c0.6,1.3,1.1,2.6,0.6,4c-2.2,2.8-2.3,0.2-2.8-1.1
		c-0.2-0.2-0.5-0.4-0.7-0.6c0.1-0.1,0.1-0.3,0-0.4c-0.7-1.2-1.5-2.3-2.2-3.5C53.5,94.5,54.1,94,54,92.9z"/>
	<path class="st199" d="M36.6,61.9c-0.2-0.1-0.4-0.3-0.6-0.4c0-0.3,0-0.5,0-0.8c0.9-1.2,1.7-2.4,2.2-3.8c0,0,0,0,0,0
		c0.5,0.3,1,0.6,1.5,0.8c2.2,1.7,0.4,2.9-0.5,4.2C38.3,62.4,37.4,63.2,36.6,61.9z"/>
	<path class="st200" d="M38.2,56.9c0.9,2.2-0.9,2.9-2.2,3.8c-0.1-0.3-0.1-0.5-0.2-0.8c0.4-0.7,0.8-1.2,0.6-2.2
		C36.2,56.5,36.4,56.5,38.2,56.9z"/>
	<path class="st201" d="M42.7,52.5c0,1,0.1,2,0.7,2.9c-0.3,1.2-0.8,2-2.2,1.6c-0.3-0.2-0.6-0.5-0.8-0.7
		C41.8,55.4,40.8,53.1,42.7,52.5z"/>
	<path class="st202" d="M41.2,56.9c0.7-0.5,1.4-1.1,2.2-1.6c0.5,0.3,1.1,0.5,1.6,0.8c1.7,2.6,1.2,3.5-2.7,5c-2.6-0.5-1-2.2-1.1-3.4
		C41.2,57.4,41.2,57.2,41.2,56.9z"/>
	<path class="st203" d="M41.2,57.7c1.4,0.7-0.8,2.3,0.8,3c0.4,0.2,0.8,0.5,1,1c0,0.3,0,0.6-0.2,0.9c-0.6,0.7-1.3,1-2.2,0.9
		c-0.3,0-0.6-0.2-0.9-0.3c-0.5-0.5-0.9-1-0.5-1.7c0.3-1.2,1.7-2.3,0.6-3.7C40.2,57.8,40.7,57.7,41.2,57.7z"/>
	<path class="st204" d="M53.9,45c2.1,0.8,1.4,2.6,1.5,4.1c0.1,1.3,0.2,2.7,0.3,4c-0.6-0.2-1.2-0.5-1.9-0.7
		C55.4,50,54.7,47.5,53.9,45z"/>
	<path class="st205" d="M42.7,31.3c1.5,1.4,3.4,2.5,3.7,4.7C44.8,34.7,43,33.6,42.7,31.3z"/>
	<path class="st206" d="M57.7,53.9c1,0.8,0.3,2.1,0.7,3c0.6,2-0.5,1.8-1.8,1.4c-0.4-0.2-0.6-0.4-0.9-0.8c-0.4-1-0.4-1.9,0.2-2.8
		C56.6,54.5,57.1,54.2,57.7,53.9z"/>
	<path class="st207" d="M56,54.8c0,0.9,0,1.8,0.1,2.8c-0.2,0.3-0.4,0.5-0.7,0.6c-1.3,0.2-2.1-0.7-2.8-1.5c-0.1-0.1-0.1-0.3-0.2-0.4
		c0-0.2,0-0.5-0.1-0.7C53.5,55.4,54.7,54.5,56,54.8z"/>
	<path class="st208" d="M42.8,62.3c-0.3-0.5-0.6-1.1-0.9-1.6c1.6-1.1,4.6-1.3,3-4.6c0.7-0.2,1.5-0.4,2.2-0.6
		c1.2,1.2,2.4,2.4,3.7,3.7c0.7,0.5,0.7,1.2,0.6,1.9c-0.3,2.8-3,1.2-4.3,2.3C45.5,63.9,43.8,64.8,42.8,62.3z"/>
	<path class="st209" d="M50.9,61.4c0-0.8,0-1.5-0.1-2.3c0.2-1.1-0.4-2.7,1.5-3c0,0,0.1,0,0.1,0c0.7,0.9,1.1,1.9,1.5,3
		c0.2,1.5,0.3,3-0.1,4.5c-0.2,0.4-0.4,0.6-0.8,0.8c-0.7-0.2-1.4-0.5-2.1-0.7c-0.1-0.1-0.2-0.3-0.3-0.4C50.5,62.7,50.4,62,50.9,61.4z
		"/>
	<path class="st210" d="M85.9,99.6c2.5,1.3,3.7,3.7,5.3,5.8c0.8,2.7,0.8,5.4,0.8,8.2c0,1.8-0.7,2.7-2.3,3.2
		c-0.2-0.3-0.4-0.5-0.6-0.8c0.2-0.2,0.2-0.3,0.1-0.5c-0.1-0.1-0.2-0.2-0.2-0.2c-2.2-1.5-2.3-4.6-4.5-6.1c0-0.2,0-0.4,0.1-0.6
		c0.1-2.1-0.3-4.2-0.3-6.2C84.3,101.2,84.1,99.9,85.9,99.6z"/>
	<path class="st211" d="M77.8,112.3c0.2,0.4,0.5,0.8,0.7,1.2c1.5,1.8,2.8,3.8,3.7,5.9c1.2,3.6,1.9,7.2,0.1,10.8
		c-1.2,0.4-1.8-0.3-2.5-1.1c-0.9-1.5-0.8-3.4-1.8-4.8c-0.4-0.5-0.9-1-1.2-1.5c-0.2-1,0.1-1.9-0.1-2.9c0-2.3-2.4-4.2-1.4-6.7
		c0.2-0.3,0.3-0.6,0.6-0.9c0.3-0.2,0.6-0.4,0.9-0.4C77.3,111.9,77.6,112.1,77.8,112.3z"/>
	<path class="st212" d="M77.8,112.3c-0.3-0.1-0.5-0.1-0.8-0.2c-0.9-0.7-1.4-1.6-1.5-2.7c-0.1-2.7-0.6-5.5,0.4-8.2
		c0.6-0.8,1.4-0.9,2.2-0.9c2.1,0.6,3,2.1,2.6,4.2c0.6,1.8,1.7,3.3,3,4.6C81.7,110.3,79.3,110.4,77.8,112.3z"/>
	<path class="st213" d="M91.3,145.2c0,0.6,0,1.2-0.1,1.8c-3.3-1.3-4.7-4.5-6.7-7.1c-0.5-0.8-1-1.5-1.5-2.3c-0.8-2-3.3-3.4-1.9-6.1
		c2-1.3,1.4-3.4,1.4-5.3c0-1.8,0.1-3.6-0.1-5.4c0.1-0.4,0.3-0.7,0.7-1c0.7,1,1.5,1.9,2.2,2.9c0.4,1,0.3,1.9-0.4,2.8
		c-0.7,4.4-1.4,8.8,1.8,12.6c1.4,2.1,2.8,4.2,4.2,6.3C91.1,144.6,91.2,144.9,91.3,145.2z"/>
	<path class="st214" d="M81.5,119.1c-1.3-1.7-2.3-3.5-2.9-5.6c2.7,1.2,4.2,3.4,4.7,6.3c0,0-0.2,0-0.2,0
		C82.2,120.3,82,119.4,81.5,119.1z"/>
	<path class="st215" d="M91.3,130.8c0,0.6,0,1.1,0,1.7c-3.3-0.7-4.1-3.6-5.4-6.1c1.6-0.4,2.3,0.9,3.1,1.9
		C88.9,129.9,89.8,130.6,91.3,130.8z"/>
	<path class="st216" d="M89,128.3c-1.5,0.2-1.8-1.7-3.1-1.9c-0.3-0.1-0.5-0.2-0.8-0.3c-0.4-0.2-0.6-0.6-0.6-1
		c0.3-0.8,0.6-1.6,0.8-2.5C86.2,124.8,89,125.6,89,128.3z"/>
	<path class="st217" d="M89,115.3c0.5,0.1,0.9,0.3,0.1,0.7C89,115.8,89,115.6,89,115.3z"/>
	<path class="st218" d="M84.6,125.1c0.2,0.3,0.4,0.7,0.6,1c0.3,4-0.6,8.2,1.6,11.9C82.2,134.4,83.7,129.7,84.6,125.1z"/>
	<path class="st219" d="M80.7,104.6c-0.7-1.2-1.4-2.3-2-3.5c-0.7-0.5-1.3-1.1-1.6-1.9c-0.7-1.6-2.1-2.6-2.8-4.1
		c-0.4-0.8-0.7-1.6-0.9-2.5c-0.3-1.6-0.1-3.3-0.5-4.9c0.1-1.6-0.6-3.3,0.6-4.7c1.7,2,3.7,3.9,5.1,6.1c1.3,1.9,2.8,3.5,4.4,5.2
		c-0.4,2.2-0.1,4.4-0.2,6.6c0,1.4,0.1,2.7-1.2,3.7l-0.4,0.1L80.7,104.6z"/>
	<path class="st220" d="M73.4,83c-0.2,1.5,0.6,3.1,0,4.6c-0.3,0.2-0.6,0.4-0.9,0.4c-4.2-1.9-6.3-5.4-7-9.9c0.9-2.2,2.6-2.6,4.7-2
		c0.3,0.2,0.6,0.4,0.8,0.7c0.8,1.3,1.2,2.7,1.4,4.1C72.9,81.5,73.4,82.1,73.4,83z"/>
	<path class="st221" d="M85.9,99.6c-1.8,1.6-0.6,3.7-0.7,5.6c-0.1,1.2,0.5,2.5-0.5,3.5c-1.5-3.1-0.6-6.5-0.8-9.7
		c0-0.6,0-1.6,1.2-1.3C86.1,97.9,86.3,98.7,85.9,99.6z"/>
	<path class="st222" d="M72.4,80.9c-1.5-0.8-1.2-2.5-2-3.7c1-1.1,2-2.4,3.8-1.9c0.5,0.3,0.9,0.7,1.2,1.2c0.3,1,0.3,1.9-0.4,2.8
		C73.8,79.4,73,80.1,72.4,80.9z"/>
	<path class="st223" d="M74.9,79.3c0-0.8,0-1.7,0-2.5c0-1,0.4-1.4,1.4-1c-0.1,3-0.3,6.1,1.4,8.8C75.1,83.8,75.6,81.2,74.9,79.3z"/>
	<path class="st224" d="M81.5,104.6c1.8-3.3-0.1-7,1.4-10.3c0.1,3.2,0.1,6.4,0.2,9.6C83.1,105.6,82.2,104.9,81.5,104.6z"/>
	<path class="st225" d="M92,79.5c0.1-0.6,0.2-1.3,1-1.5c-0.1,2.9-0.3,5.9-0.4,8.8c0,0-0.3,0.1-0.3,0.1C89.9,84.5,90.8,82,92,79.5z"
		/>
	<path class="st226" d="M76.4,75.7c-0.8-0.1-1,0.7-1.4,1c-0.4-0.4-0.8-0.9-1.1-1.3c-1.1-2.3-1.3-4.7-1-7.2c1.2-1.3,2.4-1.2,3.7-0.1
		c0.9,2,2.5,3.8,2.8,6.1c-0.5,0.2-1.1,0.4-1.6,0.7C77.1,75,76.6,75.2,76.4,75.7z"/>
	<path class="st227" d="M92,79.5c0.2,2.4-0.7,4.9,0.2,7.4c-0.7,0.6-1.3,0-1.9-0.1c-1.1-1.4-2.3-2.7-3.4-4.1
		c-1.7-3.1-3.5-6.1-2.1-9.9c0.6-0.9,1.3-1.6,2.5-0.9c0.3,0.3,0.7,0.5,1,0.8c0.5,1.8,1.9,3,2.9,4.4C91.5,77.9,91.7,78.7,92,79.5z"/>
	<path class="st228" d="M85.4,72.7c-1.7,3.6,0.8,6.7,1.4,10c-3.5-2.6-2.9-6.4-3.1-10c0,0,0.2,0.1,0.2,0.1
		C84.4,72.2,84.9,72.3,85.4,72.7z"/>
	<path class="st229" d="M82.3,66c1.6,2.1,0.3,4.5,0.8,6.7c-0.2,0.5,0.1,1.2-0.7,1.3C82.3,71.3,82.3,68.6,82.3,66z"/>
	<path class="st230" d="M85.4,139.3c2,2.6,3.9,5.1,5.9,7.7c0.2,0.7,0.5,1.3,0.7,2c-2.3,0.8-3.9,3.3-6.7,2.8c-0.2-0.3-0.2-0.6-0.2-1
		c0.2-1.7-0.5-3.3-0.9-5c-0.4-1.3-0.8-2.6-0.9-3.9C83.2,140.5,83.3,139.1,85.4,139.3z"/>
	<path class="st231" d="M85.3,151.6c0,0,0,0.2,0,0.2c-0.7,0.7-1.6,1.3-1.6,2.4c-2.1-0.2-3.2,1.8-5,2.3c-2.9-1.7-2.3-5-3.3-7.5
		c-0.1-0.9-0.5-1.8-0.1-2.8c0.4-0.7,0.9-1.1,1.7-1.1c1.6,1.3,3.2,0.8,4.8,0.1C81.8,147.9,85.6,148.6,85.3,151.6z"/>
	<path class="st232" d="M87.5,156.4c-1-0.1-0.6-1-0.9-1.5C87.5,155.1,87.7,155.7,87.5,156.4z"/>
	<path class="st233" d="M54.7,125.8c0,2.5-0.1,5-0.1,7.5c-0.6,0-1.3,0-1.9,0c-0.1-10.3-0.1-20.6-0.2-30.9c0-1.5,0.3-2.7,2.2-2.7
		C56.4,108.4,56.3,117.1,54.7,125.8z"/>
	<path class="st234" d="M54.7,125.8c0-8.7-0.1-17.4-0.1-26.1c0-0.4,0-0.9,0-1.3c0.3-0.1,0.5-0.2,0.8-0.3c2.1,8.5,0.8,17.1,1,25.6
		c0,0.8-0.4,1.4-0.8,2.1C55.3,125.8,55,125.8,54.7,125.8z"/>
	<path class="st235" d="M55.7,125.8c-0.1-9.2-0.2-18.4-0.2-27.7c1,0.1,1.5,0.4,1.1,1.6c-0.5,1.4,0.4,0.9,1.1,0.6
		c1,0.8,1.1,1.9,1.1,3c0.1,6.3,0.1,12.6,0,18.9c0,1-0.2,2-0.9,2.7c-0.5,0.3-1,0.5-1.5,0.8c0,0-0.3,0-0.3,0L55.7,125.8z"/>
	<path class="st236" d="M56.8,95.9c-0.6-0.3-0.6-0.9-0.6-1.5c0.2-0.2,0.4-0.5,0.6-0.7c0.2-0.2,0.5-0.5,0.7-0.7
		c1.2-2.8,0.5-5.8,0.5-8.6c0-1.2-0.4-2.4,0.2-3.6c0.2-0.4,0.4-0.7,0.7-1c1-0.9,2.1-1.3,3.3-0.4c0.7,0.9,0.7,1.9,0.5,3
		c-0.2,0.6-0.5,1.2-0.7,1.8c-1.4,4.4-0.2,8.8-0.2,13.2c0,7.3-0.4,14.6,0.2,21.9c0.1,0.6,0.2,1.3,0.1,1.9c-0.9,1.8,0.6,4.9-2.9,5.4
		c-0.2-0.5-0.5-1-0.7-1.5c-0.1-8,0-16,0-23.9C58.4,99.2,58.3,97.3,56.8,95.9z"/>
	<path class="st237" d="M56.8,95.9c2.1,0.2,2.1,2.1,2.2,3.4c0.1,8.3,0.1,16.6,0,24.8c0,0.3-0.4,0.6-0.6,0.9c0,0-0.4,0-0.4,0
		s-0.4,0-0.4,0c-0.1-8.2-0.1-16.4-0.2-24.7C57.9,98.8,57.2,97.3,56.8,95.9z"/>
	<path class="st238" d="M66.6,147c-0.6,1.4-0.4,3-1.5,4.2c-0.6-2.5-1.2-4.9-1.8-7.4c0.2-0.7,0.2-1.4,0.2-2.1
		c-0.2-1.3-0.3-2.6,0.5-3.8c0.3-0.3,0.6-0.4,1-0.3c1,0.8,1,2,1.4,3.1c0.1,0.4,0.2,0.7,0.2,1.1C66.9,143.6,67,145.3,66.6,147z"/>
	<path class="st239" d="M64.4,142.2c0,0.7-0.2,1.3-1,1.6c-1.3-3.2-2-6.5-2.7-9.8c0.7-0.7-0.1-1.8,0.8-2.4c0.4-0.1,0.7,0.1,1,0.3
		c0.2,0.3,0.4,0.7,0.5,1C63.9,136,63.9,139.1,64.4,142.2z"/>
	<path class="st240" d="M61.4,131.7c-0.1,0.8,0.1,1.8-0.7,2.4c-0.4-2-1.8-3.9-0.9-6.1c0.6-0.2,1.1,0,1.5,0.3
		c0.3,0.3,0.5,0.6,0.6,0.9C62.2,130.1,62.1,130.9,61.4,131.7z"/>
	<path class="st241" d="M61.2,129c-0.5-0.4-0.9-0.8-1.4-1.1c-0.2-0.4-0.5-0.9-0.7-1.3c2.6-0.9,0.6-3.9,2.2-5.2
		C62.9,123.9,63,126.5,61.2,129z"/>
	<path class="st242" d="M66.6,147c-1-1.7-1.1-3.6-0.8-5.5c2.4,0.1,3.3-3.8,6.2-2.2c0.2,0.3,0.4,0.6,0.5,0.9c0.3,0.9,0.3,1.8,0.3,2.7
		c0,2.2,0.7,4.7-2,5.9c-0.9,0.3-1.8,0.7-2.7,0.1C68,148,67.6,147.3,66.6,147z"/>
	<path class="st243" d="M68.1,149c0.8-0.2,1.5-0.4,2.3-0.7c1,0.7,1.4,1.8,1.5,3c0,0.6-0.3,1.1-0.7,1.5c-0.2,0.9-0.3,2-1.5,0.8
		c-0.7-0.8-1.1-1.9-2.2-2.3C67.4,150.4,67.2,149.5,68.1,149z"/>
	<path class="st244" d="M71.1,152.8c0-0.5,0-1,0-1.6c1-1.3,1.2-3.1,3.1-3.5c0.8-0.2,1.5,0,2.1,0.5c0.5,2.8,1.1,5.6,2.3,8.2
		c-0.2,1.4-1.4,1.2-2.3,1.6c-0.7,0.7-0.8,2.2-2.4,1.6c-0.2,0-0.3,0-0.5-0.1C73.4,157,74.5,154.1,71.1,152.8z"/>
	<path class="st245" d="M73.2,159.6c-0.2,0.5-0.3,1-0.5,1.5c-0.5,1.2-1.5,0.5-2.3,0.7c0-1.1-0.3-2.4,1.5-2.3
		C72.3,159.5,72.8,159.5,73.2,159.6z"/>
	<path class="st246" d="M74,159.5c0.8-0.5,1.6-1,2.4-1.6c0.8,1.2,1.5,2.5,2.3,3.7c-0.1,0.9,0.1,1.8-0.9,2.4
		C75.8,163.1,74.3,161.9,74,159.5z"/>
	<path class="st247" d="M83.2,157.4c-0.2-1.6-0.1-1.7,2.8-2.4c0,0,0.1,0.1,0.1,0.1c-0.6,1.4,0.6,3.6-1.7,4.3
		C83.9,158.8,83.6,158.1,83.2,157.4z"/>
	<path class="st248" d="M83.2,157.4c0.8,0.4,1.3,1,1.2,2c-1.1,0.1-2,1.4-3.1,0.5c-0.5-0.4-1.2-1.2-0.6-1.9c0.9-0.9,0.7,0.6,1,0.7
		C83,159.3,82.9,158.1,83.2,157.4z"/>
	<path class="st249" d="M85.4,72.7c-0.5,0-1,0-1.5,0c0-1.4,0-2.9,0-4.9c1.8,1.4,2.7,2.6,3.3,4C86.6,72.2,86,72.4,85.4,72.7z"/>
	<path class="st250" d="M64.4,57.2c0.4-0.4,0.9-0.7,1.3-1.1c1,0.8,2,1.6,3,2.3c1.1,0.3,1.3,1.3,1.7,2.1c0,0.3-0.1,0.6-0.1,0.9
		c-0.3,1.2-0.7,2.2-2.2,1.7c-1.5-1.7-4.1-2.7-3.6-5.7L64.4,57.2z"/>
	<path class="st251" d="M70.4,60.6c-1.1-0.3-1.5-1.1-1.7-2.1c-0.3-2.6,1.4-2.5,3.2-2.3c-0.1,1-0.1,1.9-0.2,2.9
		C71.2,59.6,70.8,60.1,70.4,60.6z"/>
	<path class="st252" d="M72.8,68.3c1.3,2.2,1,4.7,1,7.2c-1.2,0.6-2,1.8-3.4,1.7c-0.1-0.2-0.1-0.4-0.1-0.6c-1.4-2.4-4-4.1-3.9-7.3
		c0.7-1,1.5-1.2,2.5-0.5C70.2,69.2,71.5,68.6,72.8,68.3z"/>
	<path class="st253" d="M68.8,68.9c-0.8,0.2-1.6,0.3-2.4,0.5c0,0.4-0.2,0.6-0.6,0.6c-0.6-0.1-0.9-0.4-1.1-1c-0.1-0.3-0.1-0.7-0.1-1
		c0.3-2.1-2.8-0.9-2.7-2.8c0.7-1.1,1.8-1.7,3-2.2c0.9-0.3,1.8-0.6,2.7-0.1c1.4,1.4,3.9,2.3,2,5C69,68,68.9,68.4,68.8,68.9z"/>
	<path class="st254" d="M69.6,67.9c0.6-2.2-1.3-3.2-2.2-4.6c0.1-0.5,0.4-0.7,0.9-0.4c1.1,0.1,1.3-1,2-1.5c0.8,0.6,0.5,1.9,1.6,2.3
		C72.2,65.7,72.4,67.6,69.6,67.9z"/>
	<path class="st255" d="M68.2,62.9c-0.3,0.1-0.6,0.3-0.9,0.4c-0.8,0.1-1.5,0.2-2.3,0.3c-2.2-0.1-4.6,0.6-6-2
		c-1.5-3.8,2.5-2.5,3.7-3.9c0.5-0.1,1.1-0.1,1.6-0.2C65.2,59.7,67.7,60.6,68.2,62.9z"/>
	<path class="st256" d="M62.8,57.7c-0.5,0.9-1.5,1.2-2.3,1.4c-1.8,0.4-1.2,1.3-0.7,2.3c-0.4,1.4-1.2,2.5-2.8,2.5
		c-0.5-0.2-0.9-0.6-1.1-1.1c-0.1-0.4-0.1-0.7-0.1-1.1c0.3-1.4,0-2.9,1.1-4c0.8,0.3,1.6,0.5,1.5-0.8C59.5,59.7,61.5,56.3,62.8,57.7z"
		/>
	<path class="st257" d="M50.2,72.3c0.7,3.6,0.5,7.3,0.6,10.9c-0.4-0.3-0.9-0.6-1.3-0.9c-1.3-1.3-1.3-3.4-3-4.4
		c-0.9-0.8-0.8-1.8-0.4-2.8c2.5-1.5-0.7-3.2,0.2-4.7c0.2-0.3,0.5-0.4,0.9-0.5C48.7,70,49.7,70.9,50.2,72.3z"/>
	<path class="st258" d="M39.7,63c0.3,0,0.6,0.1,0.9,0.1c0.8,0.9,1.3,2,1.8,3.1c0.2,0.5,0.2,1,0.1,1.5c-0.1,0.3-0.3,0.6-0.5,0.9
		c-0.7,0.5-1.4,1.1-2.2,0.2c-0.5-1-1-2-1.6-3C37.8,64.4,38.4,63.5,39.7,63z"/>
	<path class="st259" d="M39.8,68.8c0.9,0.3,1.5-0.2,2.1-0.7c1.3,0.9,2.2,2.1,2,3.8c-0.1,0.3-0.3,0.6-0.6,0.8
		C40.4,73,39.8,71.2,39.8,68.8z"/>
	<path class="st259" d="M46.4,74.9c0.1,1-0.3,2.2,0.7,3c0.3,0.7,0,1-0.8,0.8c-1.6-1.7-3.3-3.3-3.1-6c0,0,0.3-0.2,0.3-0.2
		C45.3,72.4,46.3,73.2,46.4,74.9z"/>
	<path class="st260" d="M39.7,63c-0.5,0.9-1,1.9-1.4,2.8c-2.8-0.4-2-2.2-1.6-3.9c0.8-0.1,1.6-0.3,2.4-0.4C39.2,62,39.5,62.5,39.7,63
		z"/>
	<path class="st261" d="M46.4,78.7c0.3-0.3,0.5-0.5,0.8-0.8c1.8,1,2.4,2.5,2.3,4.4C47.3,82.1,47.4,79.9,46.4,78.7z"/>
	<path class="st262" d="M50.2,72.3c-0.9-0.7-1.9-1.3-2.8-2c-1.3-1.2-2-2.8-3.1-4c-0.4-1.4-2.6-2.1-1.6-4c0,0,0.2,0,0.2,0
		c1.2,1.5,2.8,0.7,4.3,0.6c1.3-0.2,2.5,0.5,3.7,0.8c0,0,0,0,0,0C50.6,66.6,51.8,69.6,50.2,72.3z"/>
	<path class="st263" d="M56.2,62.8c0.3,0.3,0.6,0.5,0.8,0.8c0.5,0.5,0.6,1,0.7,1.6c0.1,0.4,0.1,0.8,0.1,1.2c-0.1,1.4,0.2,2.9-1.1,4
		c-1,1-1.6,2.9-3.6,1.5c-0.1-2.5-0.2-5-0.2-7.5c0,0,0.2,0,0.2,0C54,63.6,54.9,62.8,56.2,62.8z"/>
	<path class="st264" d="M56.8,70.5c0-1.5,0.1-3.1,0.1-4.6c0.5-0.2,0.9,0,1.2,0.4c0.9,4.5,1,9.1-0.1,13.6c-0.4,0.4-0.7,0.5-1.2,0.1
		C56.8,76.8,56.8,73.6,56.8,70.5z"/>
	<path class="st265" d="M57.6,93.6c-0.3,0-0.5,0-0.8,0c0-2-0.1-4-0.1-6c0-2.2,0-4.4,0.1-6.6c0.5-0.4,0.8-0.3,1.1,0.2
		C58.2,85.4,59.2,89.5,57.6,93.6z"/>
	<path class="st266" d="M57.7,81c-0.3,0-0.6,0-0.9,0c-0.8,0.4-1.1,2-2.4,1.3c-0.3-0.2-0.5-0.8-0.5-1.2c0.3-2,2-0.5,2.9-1.1
		c0.3,0,0.6,0,0.9,0c0.3-0.3,0.7-0.3,1.1-0.1c0.1,0.1,0.2,0.2,0.3,0.3c0.1,0.2,0.1,0.4,0,0.7C58.7,81.4,58.2,81.3,57.7,81z"/>
	<path class="st267" d="M42.6,62.3c-0.6,2,2.8,1.6,2.2,3.6c-0.8,0.8-1.2,2.9-2.8,0.8c-0.9-1-2.1-1.9-1.4-3.6
		C41.3,62.8,41.9,62.5,42.6,62.3z"/>
	<path class="st268" d="M56.9,57.7c-0.2,1.5,0.5,3.1-0.7,4.5c-0.8,0.2-1.1-0.3-1.4-0.9c-0.4-1.3-0.3-2.5,0.7-3.5
		c0.2-0.1,0.4-0.1,0.6-0.2C56.3,57.6,56.6,57.7,56.9,57.7z"/>
	<path class="st269" d="M55.4,57.8c0,1.2,0,2.4,0,3.6c-1.9,0.2-1.5-1.6-2.2-2.5c-0.5-0.8-1-1.6-0.8-2.6C53.8,55.9,54,58.1,55.4,57.8
		z"/>
	<path class="st270" d="M50.9,63.8c-1.5,1-2.6,0.2-3.7-0.8c0.2-1.1,0.9-2.1,1.9-1.1c1.1,1.1,1.3-0.3,1.9-0.4
		C50.9,62.2,50.9,63,50.9,63.8z"/>
	<path class="st271" d="M53.2,58.8c0.7,0.8,1.5,1.7,2.2,2.5c0,0.5,0.3,0.8,0.8,0.8c0,0.2,0,0.4,0,0.6c-0.8,1-1.8,1.5-3.1,1.6
		C53.2,62.6,53.2,60.7,53.2,58.8z"/>
	<path class="st272" d="M76.3,110.5c0.2,0.6,0.4,1.1,0.7,1.7c-0.1,0.1-0.3,0.1-0.4,0.1c-1.1,1.2-2.9,0.6-4,1.8
		c-1.5,1.2-2.8,2.9-5,2.9c-1.1-0.7-1.1-1.8-1.2-2.9c0.2-2.2-0.9-4.1-1.7-6c-0.2-0.5-0.2-1.1,0-1.6c0.2-0.3,0.4-0.6,0.6-0.8
		c1.9-0.7,1.6-2.4,1.8-3.9c0.3-0.2,0.6-0.3,0.9-0.3c1.1,0.2,1.7,0.9,2.3,1.8c0.8,1.3,1.9,0,2.9,0.4c0.5,0.2,0.9,0.5,1.1,0.9
		c0.2,0.4,0.4,0.9,0.5,1.4c0.1,1.1,0.4,2.1,0.9,3.1C76,109.6,76.2,110,76.3,110.5z"/>
	<path class="st273" d="M71.9,140.1c0-0.2,0-0.5,0-0.7c0-0.2,0.1-0.3,0.1-0.5c0.5-1.1,0.5-2.4,1.2-3.4c1.3-0.5,1.7-1.5,1.8-2.8
		c-0.8-0.2-1.4,0.5-2.1,0.3c-2-0.5-2.7-1.8-2.4-3.7c0.7-1.8,1.6-3.4,4.1-2.6c1.3,0.5,1-0.6,1.2-1.2c0.2-1.1,0.1-2.3,1.4-2.8
		c0.5,0.2,1,0.4,1.4,0.7c0.7,1.7,0.4,3.7,1.6,5.3c0.5,0.4,0.9,0.8,1.4,1.2c0,0.4-0.1,0.6-0.5,0.8c-0.5,0.2-0.9,0.3-1.4,0.5
		c-2.7,1.3-2.2,3.9-2.2,6.1c0,2.5-0.6,4-3.4,3.8C73.1,141.2,72.5,140.7,71.9,140.1z"/>
	<path class="st274" d="M77.2,122.8c-0.2,1.1-0.4,2.1-0.6,3.2c-0.3,1.4-0.1,3.1-2.4,1.3c-1.3-1.1-2,0.8-2.9,1.5
		c-0.5-0.3-0.7-0.7-0.8-1.2c-0.2-0.7-0.4-1.3-0.6-2c-0.1-0.5-0.2-1.1-0.1-1.6c0.5-1.9,1-3.9,2.6-5.3c2.1-0.8,3.7,0.2,5.4,1.2
		C78,120.9,77.6,121.8,77.2,122.8z"/>
	<path class="st275" d="M77.6,119.8c-1.8,0.8-3.1-1.4-4.9-0.8c-1.3-2.1,1.5-3.3,1-5.2c0.6-1.4,1.6-1.4,2.7-0.7
		C74.7,115.7,77.6,117.5,77.6,119.8z"/>
	<path class="st276" d="M81.5,119.1c0.5,0.2,1,0.5,1.5,0.7c0,3.1,0,6.1,0,9.2c0,1.3,0,2.5-1.8,2.6c-1.1-0.7,0.2-0.9,0.2-1.3
		c0,0,0.1-0.2,0.1-0.2C83.2,126.4,82,122.7,81.5,119.1z"/>
	<path class="st277" d="M76.4,113.1c-1,0.1-2.5-0.6-2.4,1.4c-1.1,0.7-1.9,0.8-2.3-0.7c1-2.7,3.2-1.1,4.9-1.5
		C76.5,112.6,76.4,112.9,76.4,113.1z"/>
	<path class="st278" d="M80.2,128.8c-2-1.3-1.4-3.4-1.6-5.3C79.9,125,79.9,126.9,80.2,128.8z"/>
	<path class="st279" d="M75.3,109.4c-1.2-0.9-1.3-2.2-1.1-3.5c0.6-1.7-0.7-3.4-0.3-5.1c0.2-1.2-0.2-2.7,1.1-3.4
		c1.2-0.6,1.8,1.1,2.8,1.3c0.3,0.8,0.6,1.5,0.9,2.3c-0.8,0-1.6,0-2.4,0C75.2,103.8,76.9,106.8,75.3,109.4z"/>
	<path class="st280" d="M75.3,109.4c1.1-2.7-0.6-5.7,1-8.3c0,3.1,0,6.2,0,9.3C75.4,110.7,75.4,110,75.3,109.4z"/>
	<path class="st281" d="M85.4,139.3c-3.1,2.2-0.2,4.5-0.1,6.8c-0.3,0.4-0.6,0.8-0.6,1.3c0.1,1.4-0.9,1.4-1.7,1.2
		c-1.1-0.2-0.7-1.1-0.5-1.8c0.2-0.5-0.1-1-0.3-1.4c-0.3-0.7-1-1-1.5-1.5c-2.2-2.2-1.3-4.3,0-6.5c1.1-1,2.2-2.5,3,0.2
		C84.2,138.3,84.8,138.8,85.4,139.3z"/>
	<path class="st282" d="M83.7,137.7c-0.7-1.1-1.3-1-2,0c-2.2-2.1-3-4.5-1.7-7.4c0.5,0,1-0.1,1.5-0.1c-0.1,0.4-0.2,0.9-0.2,1.3
		C80.6,134.2,84.4,135.1,83.7,137.7z"/>
	<path class="st283" d="M77.8,98.8c-1,0.1-2,0.2-2.6-1.1c-0.9,3,0.5,5.8-1,8.2c-0.1-0.4-0.1-0.7-0.2-1.1c-1.3-2.4-1-5-0.8-7.6
		c0.1-1.1,0.2-2.3,1.8-2.3C75.9,96.3,76.9,97.5,77.8,98.8z"/>
	<path class="st284" d="M75,95c-2,3.1-0.3,6.6-1,9.8c-0.2-0.3-0.5-0.5-0.7-0.8c-2-2.9-0.4-6.2-1.2-9.3c-0.1-0.6,0-1.3,0.3-1.8
		c0.5-0.5,1.1-0.6,1.7-0.2C74.4,93.5,74.7,94.3,75,95z"/>
	<path class="st285" d="M74.1,92.8c-0.5,0-0.9,0.1-1.4,0.1c-1-0.7-1.2-1.9-1.8-2.8c-0.6-1.7,0.9-1.8,1.8-2.4c0.3,0,0.5,0,0.8,0
		C74.7,89.2,73.9,91.1,74.1,92.8z"/>
	<path class="st286" d="M72.6,87.7c0.5,1.4-1.9,0.8-1.5,2.1c-0.2,0.3-0.5,0.5-0.8,0.6c-1.6,0.1-3.1,0.2-4.4-0.9
		c-0.5-0.5-0.8-1.2-1-1.9C64,84.7,64,81.8,64.4,79c0.1-0.4,0.3-0.7,0.5-1c0.4-0.3,0.7-0.2,0.9,0.2C66.9,82.1,69.6,85.1,72.6,87.7z"
		/>
	<path class="st287" d="M65.8,78.2c-0.2-0.1-0.5-0.1-0.7-0.2c-1.4-2.9-1.7-5.7,0.8-8.2c0.2-0.1,0.4-0.2,0.6-0.3c0.7,2.7,4,4,3.8,7.2
		C68.6,76.6,66.9,76.7,65.8,78.2z"/>
	<path class="st288" d="M82.3,145.3c1.4,0.6,0.2,2,0.8,2.8c1.8,0.3,0.2-2.6,2.2-2.1c-0.2,1.8,1.8,3.7,0,5.5c-1-0.4-0.1-2.7-2.8-1.9
		c-1.5,0.5,0.1-2.9-0.8-4.4C81.9,145,82.1,145,82.3,145.3z"/>
	<path class="st289" d="M80,130.4c0.6,2.5,1.1,4.9,1.7,7.4c-1.3,2-2.6,4-0.2,6c-1.1,1.7-2.8,1.4-4.4,1.5c-0.5,0.2-0.9,0.5-1.4,0.7
		c-1.7-1.3-1.2-3.4-1.6-5.1c3-1.1,2.2-3.6,2.5-6C76.8,133.2,76.3,129.9,80,130.4z"/>
	<path class="st290" d="M74.1,140.9c0.5,1.7,1.1,3.4,1.6,5.1c0.2,0.8,0.4,1.5,0.6,2.3c-0.7,0-1.4-0.1-2.1-0.1
		c-1.2-1.6-0.6-4-2.3-5.3c0-0.9,0-1.9,0-2.8C72.7,140,73.4,140.5,74.1,140.9z"/>
	<path class="st291" d="M77.1,145.3c1.2-1.4,3.1-0.6,4.4-1.5c0.6,0.3,0.8,0.9,0.8,1.5c0,0-0.3,0-0.3,0s-0.3,0-0.3,0
		C80.1,147.3,78.1,147.3,77.1,145.3z"/>
	<path class="st292" d="M61.2,129c0-2.6,0.1-5.1,0.1-7.7c0-0.5,0-1,0-1.5c-0.8-6.5-0.4-13.1-0.3-19.7c0.1-5.7-0.9-11.4,0.3-17
		c0.2-0.2,0.5-0.5,0.7-0.7c2.1,2.7,0.4,6.1,1.4,9c0.1,0.7,0.1,1.4-0.1,2.1c-0.7,10.3-0.1,20.6-0.3,30.9
		C63.1,126,63.8,128.2,61.2,129L61.2,129z"/>
	<path class="st293" d="M61.4,83.2c0,12.2,0,24.4,0,36.7c-1.2-1.1-0.7-2.6-0.7-3.9c0-7.5,0.2-14.9-0.1-22.4
		C60.4,90,59.8,86.5,61.4,83.2z"/>
	<path class="st294" d="M57.7,81c0.5-0.1,1-0.1,1.4-0.2c0,3.6,0,7.3,0,10.9c0,0.9,0.7,2.6-1.5,1.9C57.7,89.4,57.7,85.2,57.7,81z"/>
	<path class="st295" d="M62.2,79.4c-1.1-0.2-2.1,0.2-3.1,0.8c0,0,0,0,0,0c-1.4-2.7-0.4-5.6-0.8-8.3c0.8-0.6,1.6-0.6,2.4-0.1
		c1,1.7-0.1,3.5,0.3,5c0,0.8,0.8,0.1,0.4,0.3c-0.1,0-0.2,0-0.2-0.2c-0.2-1.2-0.3-2.3,0.5-3.6c2,1.9,1.7,3.8,1,5.8
		C62.5,79.1,62.3,79.3,62.2,79.4z"/>
	<path class="st296" d="M62.9,91.4c-1.6-2.9-0.3-6-0.8-8.9c0-1,0-2,0.1-3c0,0,0.1,0,0.1,0c0.5-0.2,0.9-0.1,1.2,0.4
		C64,83.7,64.7,87.6,62.9,91.4z"/>
	<path class="st297" d="M71.9,139.4c-2.3-0.5-2.7,3-5,2.5c-0.3-0.1-0.7-0.2-1-0.4c0-0.3,0-0.5,0.1-0.7c1.2-1.9,0.6-4.3,1.7-6.2
		c0.8-1.1,0.9-2.9,2.9-2.9c0.8,0.6,1.3,1.4,1.4,2.4C72,135.8,72.5,137.6,71.9,139.4L71.9,139.4z"/>
	<path class="st298" d="M68.1,134.8c-1.4,1.7,1.6,5.1-2.2,5.9c-1.1-0.7-0.6-2-0.9-3c-0.6-0.8-0.8-1.7-0.4-2.6
		c0.2-0.3,0.4-0.5,0.8-0.6c0.7,2,1.5,0,2.2,0.1C67.8,134.7,68,134.7,68.1,134.8z"/>
	<path class="st299" d="M65.3,134.8c-0.1,1-0.2,2-0.2,3c-0.2,0-0.4,0-0.6,0.1c-0.5-0.5-0.7-1.2-0.9-1.9c-0.1-4.6-0.9-9.2,0.6-13.8
		c0.4-0.4,0.8-0.4,1.3,0C66.6,126.4,66.7,130.6,65.3,134.8z"/>
	<path class="st300" d="M64.3,136.2c0.1,0.6,0.1,1.1,0.2,1.7c0,1.5-0.1,2.9-0.1,4.4c-0.6-3.3-2.2-6.3-2.3-9.7c0.8-0.5,1.3,0,1.7,0.6
		C64.2,134.1,63.7,135.2,64.3,136.2z"/>
	<path class="st301" d="M63.5,133.4c-0.5-0.3-0.9-0.5-1.4-0.8c-0.1-0.2-0.1-0.4-0.1-0.6c1.1-11.7,0.2-23.4,0.5-35.1
		c0-1.3-0.3-2.7,0.3-4c0-0.5,0-1,0-1.5c0-4,0-8,0-12c-0.3-0.5-0.2-0.8,0.4-0.9c0.4,0.1,0.7,0.4,0.9,0.8c0.1,0.4,0.2,0.9,0.2,1.3
		c0.3,9.1,0.6,18.2,0.1,27.3C65.2,116.5,64.2,124.9,63.5,133.4z"/>
	<path class="st241" d="M62.9,92.9c0,11.8,0,23.5,0,35.3c0,1.3,0.5,2.8-0.8,3.8c-0.2-0.1-0.4-0.2-0.6-0.3c0-0.9-0.1-1.8-0.1-2.7
		c1.3-1.1,0.8-2.5,0.8-3.8c0-9.4,0-18.9,0.1-28.3C62.2,95.5,61.7,94,62.9,92.9z"/>
	<path class="st302" d="M71.9,142.9c3.7,0.5,2,3.3,2.3,5.3c-1.4,0.6-1.3,2.9-3.1,3.1c-0.2-1-0.5-2-0.7-3
		C73.2,147.1,71.5,144.7,71.9,142.9z"/>
	<path class="st303" d="M57,65.3c0-0.6,0.1-1.1,0.1-1.7c0.9-0.7,1.8-1.5,2.7-2.2c1.2,0.5,2,3,3.8,0.5c0.4-0.6,1.5,0.7,1.5,1.8
		c-1,0.4-1.5,1.8-2.9,1.6C60.5,66.7,58.7,66.1,57,65.3z"/>
	<path class="st304" d="M65.1,68.5L65.1,68.5c-0.4,1-0.2,2.3-1.6,2.8c-1.2,0.3-2.4-0.1-3.5-0.3c-2.3-1.5-2-3.3-0.5-5.1
		C61.8,65.9,64,66.2,65.1,68.5z"/>
	<path class="st305" d="M65.1,68.5c-1.8-0.7-3.2-2.2-5.2-2.5c-0.4,0.2-0.9,0.4-1.4,0.4c-0.3-0.1-0.6-0.2-0.9-0.4
		c-0.2,0-0.5-0.1-0.7-0.1c-0.1-0.2-0.1-0.4,0-0.6c1.7,0,3.5-0.1,5.2-0.1c0.2,1.1,1.1,0.8,1.7,0.7C67.3,65.4,65.9,67.1,65.1,68.5z"/>
	<path class="st306" d="M63.7,71.2c0.5-0.9,1-1.8,1.5-2.6c-0.1,0.6,0.1,1,0.7,1.2c-1.1,2.7-0.6,5.5-0.8,8.2c0,0-0.2,0-0.2,0
		C64.5,78,64.2,78,64,77.6c-0.8-1.9-0.5-3.9-0.4-5.9C63.6,71.5,63.7,71.3,63.7,71.2z"/>
	<path class="st307" d="M46.4,74.9c-0.9-0.8-1.9-1.6-2.8-2.4c0.2-1.7-1.7-2.7-1.7-4.4c0,0,0,0,0,0c2.2-0.7,3.8-0.1,4.4,2.3
		c0.1,1.2,0.9,1.8,1.8,2.5c0.6,0.5,0.6,1.3,0.1,1.9C47.7,75.7,47,75.1,46.4,74.9z"/>
	<path class="st308" d="M46.4,70.5c-1.5-0.7-2.6-2.2-4.4-2.3c0-0.5,0.1-1,0.1-1.6c1.3,1.2,1.7-1.1,2.8-0.8c0.9,1.5,3,2.2,2.5,4.5
		C47,70.4,46.7,70.4,46.4,70.5z"/>
	<path class="st309" d="M57.7,66c0.2-0.1,0.4-0.1,0.7,0c0.6,2,0.7,3.9,0.1,5.9c1.4,2.7,0.5,5.5,0.7,8.3c-0.5-0.1-1-0.1-1.4-0.2
		C57.7,75.3,57.7,70.7,57.7,66z"/>
	<path class="st310" d="M71.7,113.8c0.5,1.1,1.5,0.5,2.3,0.7c1.9,2.2-2.1,2.6-1.3,4.5c-1.1,1.6-1.9,3.5-2.4,5.4
		c-1.4-0.1-2.4-1-2.2-2.3c0.3-1.6-0.6-2.8-0.6-4.3c0.1-0.3,0.2-0.7,0.4-0.9C69.2,115.9,70.4,114.9,71.7,113.8z"/>
	<path class="st311" d="M72.7,94.4c1.1,3.1,0.5,6.4,0.6,9.6c-1.2-0.2-2.3,2.5-3.6,0.1c2.2-1.7-0.6-3.5,0-5.3c0.2-1,0.9-1.8,1.5-2.6
		C71.7,95.7,71.9,94.8,72.7,94.4z"/>
	<path class="st312" d="M65,122.1l-0.3,0l-0.3,0c-1-4.5-0.3-9.1-0.4-13.7c0.2-0.5,0.6-0.7,1.1-0.5c1.6,1.7,2.2,3.7,2.1,6
		c-0.5,0.4-1,0.4-1.5,0c-0.4-0.6,0-1.4-0.4-2.1c0.2,2.3,1,4.3,0.8,6.6c0,1,0,1.9-0.3,2.9C65.6,121.6,65.4,121.9,65,122.1z"/>
	<path class="st313" d="M65.2,107.9c-0.2,0-0.4,0-0.6,0c-0.2-0.2-0.3-0.3-0.5-0.5c-0.2-5.5,0-11.1-0.1-16.6c0-0.4,0.1-0.8,0.5-1.1
		c1.8,0.2,1.6,2,2.5,3c0.2,0.6,0.2,1.2,0,1.8c-0.1,0.4-0.3,0.7-0.5,1.1c-0.7,2.3-0.2,4.6-0.3,7c-0.1,1.4,0,2.7-0.9,3.9
		C65.2,106.9,65.2,107.4,65.2,107.9z"/>
	<path class="st314" d="M66,94.5c0.2-0.2,0.4-0.3,0.6-0.4c2.9-0.1,3.6,1.5,3.1,4c-0.2,1-0.5,1.9-0.8,2.8c-0.2,0.4-0.4,0.7-0.7,0.9
		c-0.3,0-0.6,0-0.9-0.1c-1,0.1-1.1-0.7-1.2-1.4C66.8,98.5,64.5,96.5,66,94.5z"/>
	<path class="st315" d="M66,94.5c-1.1,2.1,2.5,3.6,0.7,5.8c-0.9,1.9,1.1,4.2-0.7,6c-0.2,0-0.4,0.1-0.7,0.1
		C65.5,102.5,64.2,98.4,66,94.5z"/>
	<path class="st316" d="M65.9,106.3c0-2,0.1-4.1,0.1-6.1c0,0,0.2-0.1,0.3-0.1c0.1,0,0.2,0.1,0.3,0.2c0,0.6,0.1,1.2,0.6,1.5
		C68.6,103.9,68.1,105.4,65.9,106.3z"/>
	<path class="st317" d="M66,113.9c0.4,0,0.8,0,1.2,0c0.6,0.9-0.5,2.3,0.7,3c0.1,0.2,0,0.4,0,0.7c-0.4,0.9,0.3,2.5-1.4,2.5
		c-1.2,0-1-1.1-1.1-1.9C65.8,116.7,65,115.2,66,113.9z"/>
	<path class="st318" d="M68.1,101.9c0-0.2,0-0.5,0-0.7c1.2-0.3,0.3-2.6,2.2-2.1c0.2,0.7,0.1,1.7,0.6,2c2.6,2.2,0.6,2.6-1.2,3.1
		C69.7,103,68.7,102.6,68.1,101.9z"/>
	<path class="st319" d="M73.4,132.5c1.2,0,1-2.1,2.4-1.5c0.3,0.1,0.6,1.3,0.3,1.6c-0.7,1.1-0.2,3.3-2.6,2.8c-0.8,0-1.1-0.6-1.2-1.3
		C72.4,133.4,72.8,133,73.4,132.5z"/>
	<path class="st320" d="M72.7,134.1c0.3,0.5,0.5,0.9,0.8,1.4c-0.7,1.2,0.8,3.4-1.6,3.8c-1.1-1.6-0.7-3.5-0.8-5.3
		C71.7,133.6,72.2,133.6,72.7,134.1z"/>
	<path class="st321" d="M72.7,134.1c-0.6,0-1.1-0.1-1.7-0.1c-0.3-0.7-0.5-1.4-0.8-2.2c-0.9-0.9-1.2-2.1-1.1-3.3c0-1,0.4-2,1.8-1.1
		c0.1,0.5,0.1,0.9,0.2,1.4c-0.2,1.8,0.1,3.3,2.2,3.8C73.2,133.1,73.4,133.8,72.7,134.1z"/>
	<path class="st322" d="M71,127.4c-2.7,1.1,0.4,3.1-0.7,4.4c-0.7,1-1.5,2-2.2,3c0,0,0,0,0,0c-1.3-1,0.2-3.8-2.6-4
		c-0.1-1.5,0.2-2.9,0.7-4.2c1.2-1.4,2.4-2.6,4.1-0.8C71,126.2,71.1,126.8,71,127.4z"/>
	<path class="st323" d="M70.3,125.8c-1.4-0.9-2.4,0.8-3.6,0.6c-1.8-1.3,0.2-3.8-1.6-5.1c0-1.1,0-2.1,0-3.2c0.2-0.2,0.4-0.2,0.6,0
		c0.2,0.5,0.2,1.5,0.9,1.2c0.6-0.3,0.9-1.2,1.3-1.9c1.7,2,0.3,5,2.3,6.9C70.3,124.9,70.3,125.4,70.3,125.8z"/>
	<path class="st324" d="M72.7,94.4c-0.3,0.8,0.3,1.8-0.9,2.2c-3.5,0.2-1.8-3.1-2.9-4.5c-0.9-1.2,0.3-1.9,1.4-2.3
		c0.3,0,0.5-0.1,0.8-0.1c2.2,0.2,1.2,2,1.5,3.1C72.7,93.4,72.7,93.9,72.7,94.4z"/>
	<path class="st325" d="M70.3,89.9c-1.5,2.7-0.1,4.8,1.5,6.8c-0.5,0.8-1,1.6-1.6,2.3c-1.2,0.2,0.2,3.1-2.2,2.1
		c0.1-0.6-0.1-1.3,0.2-1.8c1.8-2.6,0.8-4.2-1.8-5.3c0-0.4,0-0.7,0-1.1c0.3-1.3-0.8-2.7,0.1-4C67.7,90.1,69.2,89.1,70.3,89.9z"/>
	<path class="st326" d="M65,89.9c-0.2,0-0.3,0-0.5,0c-1.3-3.5,0.3-7.1-0.9-10.6c0.1-0.2,0.1-0.3,0.1-0.5c0-0.2,0-0.3,0-0.5
		c0.2-0.3,0.4-0.4,0.8-0.4c0,0,0.3,0,0.3,0c0.7,3.2-0.4,6.5,0.9,9.6C65.2,88.2,66,89.3,65,89.9z"/>
	<path class="st315" d="M65,89.9c0.2-0.8-0.3-1.8,0.8-2.4c0.1,0.6,0.2,1.3,0.8,1.6c0.1,1.3,2.7,2.7-0.1,4
		C64.8,92.6,65.2,91.1,65,89.9z"/>
	<polygon class="st327" points="67.6,75.2 67.8,75.1 67.8,75.4 	"/>
	<path class="st328" d="M63,78.7c0,0.2-0.1,0.5-0.1,0.7c-0.2,0-0.4,0-0.6,0c0-1.7,0-3.4,0-5.1c-0.2,0-0.4,0-0.6-0.1
		c-0.1,1.2-0.3,2.4-0.4,3.6c-0.2,0-0.4,0-0.6,0c0-1.9,0-3.9,0-5.8c-0.3-0.5-0.2-0.8,0.3-1.1C64,72.2,64.4,73.9,63,78.7z"/>
	<path class="st329" d="M60.9,71.4c-0.1,0.2-0.1,0.4-0.2,0.6c-0.7,0-1.5,0-2.2,0c0-2,0-3.9-0.1-5.9c0.5,0,1.1,0.1,1.6,0.1
		c-0.4,1.6-1.8,3.3,0.6,4.5C61,70.7,61.1,70.9,60.9,71.4z"/>
	<path class="st330" d="M65.2,121.4c0.8-0.5,1.7-0.9,1.7,0.6c0,1.5-0.1,3-0.2,4.4c-0.3,1.5-0.5,3.1-0.8,4.6c0.5,1.3,3.4,2.5,0.1,3.8
		c-0.2,0-0.5-0.1-0.7-0.1c-0.1-4.2-0.2-8.4-0.3-12.7C65.1,121.9,65.2,121.6,65.2,121.4z"/>
	<path class="st331" d="M66,134.9c2.3-1.3-0.9-2.5-0.1-3.8c0.9-0.2,1.4-1.7,2.4-1.1c0.8,0.5-0.9,1.4,0,2.4c0.4,0.4-0.1,1.6-0.2,2.4
		c-0.7,0.5-1.4,1-2.1,1.5C66,135.8,66,135.3,66,134.9z"/>
	<path class="st332" d="M64.5,107.9c0,4.7,0,9.5-0.1,14.2c-0.1,4.7-0.1,9.4-0.2,14.1c-0.8-0.8-0.5-1.9-0.8-2.8
		c0.1-8.5,0.2-17,0.3-25.5c0.2-0.4,0.4-0.3,0.6,0L64.5,107.9z"/>
	<path class="st333" d="M64.3,107.9c-0.2,0-0.4,0-0.6,0c0-9.5-0.1-19-0.1-28.6c1.7,3.4,0.1,7.1,0.9,10.6
		C64.4,95.9,64.4,101.9,64.3,107.9z"/>
	<path class="st334" d="M60.9,71.4c-0.1-0.3-0.2-0.5-0.3-0.8c1.1-0.3,2.1,0.1,3.1,0.6c0,0-0.1,0-0.1,0c0.6,2.5,0.6,5.1,0,7.6
		c0,0,0.1,0.1,0.1,0.1c-0.3,0-0.5-0.1-0.8-0.1c0-1.6-0.1-3.2-0.1-4.8C62.9,72.4,62.5,71.4,60.9,71.4z"/>
	<path class="st335" d="M63.6,78.7c0-2.5,0-5.1,0-7.6c1.6,2.1,0.2,4.6,0.9,6.8C64.3,78.2,64,78.4,63.6,78.7z"/>
	<path class="st336" d="M65.8,118.2l-0.3,0c0,0-0.3-0.1-0.3-0.1c0-2.4,0-4.9,0-7.5c1.1,1,0.5,2.2,0.9,3.2
		C66,115.3,65.9,116.8,65.8,118.2z"/>
</g>
</svg>
