<svg xmlns="http://www.w3.org/2000/svg" width="47" height="48" viewBox="0 0 47 48"><g><g><g><path fill="#ffc05c" d="M19.132 34.947c-1.435-1.07-3.35-.595-4.276 1.06.927-1.655.515-3.863-.92-4.933-1.434-1.07-3.348-.594-4.275 1.06.927-1.654.515-3.863-.92-4.932-1.434-1.07-3.348-.595-4.275 1.06l-3.17 5.66c-.928 1.656-.516 3.865.919 4.934 1.434 1.07 3.348.595 4.275-1.06-.927 1.655-.515 3.863.92 4.933 1.434 1.07 3.348.595 4.275-1.06-.927 1.655-.515 3.863.92 4.933 1.434 1.069 3.348.594 4.275-1.06l3.17-5.662c.928-1.655.516-3.864-.918-4.933"/></g><g><path fill="#fff" d="M40.142 25.188l-.083-.062L24.3 13.29l-2.51 4.397c-1.123 1.991-3.02 3.18-5.082 3.18-1.166 0-2.302-.387-3.284-1.12-2.804-2.09-3.612-6.423-1.802-9.655l1.508-2.702L7.84 5.92 0 24.593l1.922 1.909.052-.093c1.121-2.001 3.024-3.196 5.09-3.195 1.166 0 2.302.387 3.284 1.118.93.693 1.66 1.644 2.139 2.76 1.086.047 2.138.43 3.056 1.114.929.692 1.66 1.643 2.138 2.758 1.087.047 2.139.43 3.056 1.114 2.805 2.091 3.613 6.425 1.8 9.66l-1.68 3.002 2.601 1.99c1.435 1.07 3.35.596 4.277-1.06.926-1.654.515-3.863-.92-4.933l1.052.785c1.435 1.07 3.35.594 4.276-1.06.927-1.656.516-3.864-.919-4.934l1.052.784c1.435 1.07 3.349.595 4.276-1.06.927-1.655.516-3.863-.919-4.933l1.052.784c1.435 1.07 3.349.595 4.276-1.06.905-1.616.534-3.759-.82-4.855"/></g><g><path fill="#ffc05c" d="M23.449 8.568l.906.68 16.331 12.269 6.389-5.459L42.944 0 20.317.832l-6.201 11.11c-.928 1.655-.516 3.864.919 4.933 1.434 1.07 3.348.595 4.275-1.06"/></g></g></g></svg>