<svg xmlns="http://www.w3.org/2000/svg" width="48" height="46" viewBox="0 0 48 46"><defs><clipPath id="mtz2a"><path d="M47.432 46.026V.39H.16v45.636z"/></clipPath></defs><g><g><g><path fill="#fff" d="M9.7 20.81v11.556l8.743-1.284L37.7 25.048V12.85l-6.747.385z"/></g><g><g/><g clip-path="url(#mtz2a)"><path fill="#ffc05c" d="M13.82 35.177c6.335-1.783 12.569-4.037 18.892-5.876l-.807 10.646c-.132 2.794-1.256 6.079-3.524 6.079H17.706c-2.272 0-3.395-3.285-3.524-6.079zM34.207 9.624c-7.315 2.026-14.488 4.741-21.819 6.702l-.822-10.873C11.432 2.659 13.166.39 15.438.39h15.21c2.269 0 4.003 2.269 3.875 5.063zm-27.193 27.2c.513-.084.77-.134 1.284-.232 1.04-.229 2.068-.491 3.1-.754v5.068C6.903 42.01 4.655 42.43.16 42.43c1.86-3.061 2.79-4.656 4.648-7.941A213.516 213.516 0 0 1 .16 27.13c2.79 0 4.717-.164 6.853-.55zm40.42-20.369a248.403 248.403 0 0 0-4.649 7.941c1.858 2.833 2.79 4.3 4.649 7.36-4.806 0-7.206.481-12.012 1.72v-4.934a95.214 95.214 0 0 1 3.874-.941c.57-.114.855-.164 1.422-.258V16.965c2.051-.356 3.997-.51 6.716-.51zm-14.565 10.78c-6.427 1.857-12.761 4.165-19.2 5.973-.755.213-1.513.41-2.272.609-.911.233-1.823.475-2.741.678V19.28c1.3-.291 2.597-.619 3.885-.965 7.222-1.95 14.3-4.621 21.51-6.632a98.867 98.867 0 0 1 5.025-1.283v15.215c-1.224.272-2.441.575-3.654.896-.855.228-1.702.476-2.553.724zm-16.257-1.07l2.721-2.439h-3.36l-1.04-3.944-1.035 3.944h-3.36l2.589 2.324.129.114-.093.352-.947 3.593 1.14-1.02 1.578-1.417 2.718 2.437zm8.795-3.04l2.718-2.438h-3.36l-1.035-3.945-1.04 3.945h-3.357l2.714 2.438-1.036 3.94 2.719-2.434 2.717 2.433zm10.008.503l.437.397-.437-1.67-.598-2.275.598-.536 2.113-1.897.004-.005h-3.356l-.453-1.72-.585-2.22-1.035 3.94h-3.356l2.715 2.438-1.04 3.945 2.716-2.438.143.133z"/></g></g></g></g></svg>