<svg xmlns="http://www.w3.org/2000/svg" width="48" height="48" viewBox="0 0 48 48"><defs><clipPath id="o6xsa"><path d="M23.38.4H.47v23.4h22.91V.4z"/></clipPath></defs><g><g><g><g/><g clip-path="url(#o6xsa)"><path fill="#ffc05c" d="M9.473 18.816c.945 0 1.873-.151 2.768-.442l5.317 5.426 5.823-5.945-5.314-5.432c1.024-3.27.182-6.893-2.205-9.33A8.85 8.85 0 0 0 9.497.4C8.154.4 6.808.71 5.6 1.299a.643.643 0 0 0-.172 1.019l5.594 5.714c.414.422.64.982.64 1.575 0 .595-.227 1.153-.64 1.575-.821.842-2.258.842-3.082-.002L2.345 5.466a.613.613 0 0 0-.997.175C-.295 9.158.41 13.37 3.104 16.12c1.701 1.738 3.963 2.695 6.369 2.695"/></g></g><g><path fill="#ffc05c" d="M37.88 29.382c-.947 0-1.878.153-2.773.444l-5.88-6.006-5.827 5.95 5.882 6.007c-1.023 3.27-.181 6.89 2.205 9.33a8.85 8.85 0 0 0 6.365 2.693 8.955 8.955 0 0 0 3.896-.9.633.633 0 0 0 .344-.464.645.645 0 0 0-.172-.555l-5.595-5.716a2.234 2.234 0 0 1-.64-1.572c0-.595.228-1.153.641-1.575.825-.842 2.258-.842 3.081 0l5.595 5.714a.613.613 0 0 0 .998-.174c1.643-3.518.94-7.73-1.756-10.482-1.7-1.736-3.96-2.694-6.365-2.694"/></g><g><path fill="#fff" d="M17.677 27.309a1.4 1.4 0 0 0-1.903-.07L.587 41.145a1.236 1.236 0 0 0-.067 1.807l4.137 4.223c.506.516 1.3.487 1.768-.064l13.62-15.515c.466-.551.436-1.424-.069-1.94z"/></g><g><path fill="#fff" d="M35.49 15.84s.973.871 1.775.464c.907-.466 3.462 2.107 4.277 2.709.002.002.008.002.018.007l-.446.457a1.543 1.543 0 0 0-.001 2.16c.586.596 1.53.595 2.118 0l3.528-3.6a1.557 1.557 0 0 0 0-2.164 1.477 1.477 0 0 0-2.118 0l-.588.6c-.486-.685-1.296-1.851-1.193-2.239.43-1.693-2.95-5.693-2.95-5.693C31.515-.033 25.908.162 23.24 1.099c-1.07.376-.872.615.24.815 8.093 1.443 9.098 6.318 7.726 8.199-.528.726.242 1.602.242 1.602l.29.294L18.07 25.964c.185.115.365.244.524.407l2.299 2.346c.156.16.284.342.394.531l13.667-13.956z"/></g></g></g></svg>