<svg xmlns="http://www.w3.org/2000/svg" width="48" height="48" viewBox="0 0 48 48"><defs><clipPath id="wkdza"><path d="M47.194.4H0v46.964h47.194V.4z"/></clipPath></defs><g><g><g><path fill="#fff" d="M27.98 43.515h16.855V33.75H27.98z"/></g><g><g><g/><g clip-path="url(#wkdza)"><path fill="#ffc05c" d="M24.036 3.755c1.358 0 2.459.892 2.459 1.992v.04c0 1.101-1.1 1.993-2.459 1.993H13.223c-1.358 0-2.46-.892-2.46-1.993v-.04c0-1.1 1.102-1.992 2.46-1.992h1.275c.681 0 1.234-.448 1.234-1v-.034C15.732 1.44 17.014.4 18.596.4h.067c1.582 0 2.864 1.04 2.864 2.321v.034c0 .552.552 1 1.234 1h1.275m-5.407 0c.686 0 1.243-.45 1.243-1.007 0-.555-.557-1.006-1.243-1.006s-1.242.45-1.242 1.006.556 1.007 1.242 1.007m5.53 38.913H3.312C1.482 42.668 0 41.466 0 39.984V7.78c0-1.482 1.483-2.683 2.484-2.683h6.71a2.844 2.844 0 0 0-.086.69c0 1.84 1.846 3.335 4.115 3.335h10.813c2.269 0 4.115-1.496 4.115-3.375 0-.222-.03-.44-.081-.65h5.05c2.656 0 4.139 1.201 4.139 2.683v20.162c-.275-.014-.549-.035-.828-.035-1.146 0-2.252.131-3.312.354V12.477H4.14v26.836h19.085c.091 1.18.409 2.308.934 3.355M36.426 29.92c5.941 0 10.758 3.905 10.758 8.722s-4.817 8.722-10.758 8.722c-5.942 0-10.759-3.905-10.759-8.722s4.817-8.722 10.759-8.722m7.028 6.93c.607-.554.546-1.402-.137-1.895-.683-.492-1.73-.442-2.336.111l-5.575 5.087-2.91-1.888c-.714-.463-1.756-.37-2.326.21-.571.579-.455 1.423.258 1.886l4.137 2.683c.304.198.67.294 1.033.294.457 0 .91-.152 1.237-.45l6.619-6.038M28.989 23.882H15.732c-.458 0-.828-.3-.828-.67v-.672c0-.37.37-.67.828-.67H28.99c.457 0 .828.3.828.67v.671c0 .37-.37.671-.828.671m0-6.038H15.732c-.458 0-.828-.3-.828-.671v-.67c0-.372.37-.672.828-.672H28.99c.457 0 .828.3.828.671v.67c0 .371-.37.672-.828.672m-4.14 11.405h-9.116c-.459 0-.83-.3-.83-.67v-.672c0-.37.371-.67.83-.67h9.116c.457 0 .828.3.828.67v.671c0 .371-.37.671-.828.671m-1.666 6.049h-7.451c-.458 0-.828-.302-.828-.675v-.674c0-.372.37-.674.828-.674h7.451c.458 0 .829.302.829.674v.674c0 .373-.371.675-.829.675m-9.865-19.935l-3.049 2.78a.85.85 0 0 1-.57.206.878.878 0 0 1-.476-.135L7.317 16.98c-.329-.213-.382-.602-.119-.868.263-.267.743-.31 1.072-.097l1.34.87 2.569-2.342c.28-.255.761-.278 1.076-.052.315.227.343.618.063.873m0 5.969l-3.049 2.78a.852.852 0 0 1-.57.207.878.878 0 0 1-.476-.136l-1.906-1.235c-.329-.213-.382-.602-.119-.868.263-.267.743-.31 1.072-.097l1.34.87 2.569-2.342c.28-.255.761-.278 1.076-.052.315.227.343.618.063.873m0 5.708l-3.049 2.78a.852.852 0 0 1-.57.207.878.878 0 0 1-.476-.135l-1.906-1.236c-.329-.213-.382-.601-.119-.868s.743-.31 1.072-.096l1.34.869 2.569-2.342c.28-.255.761-.278 1.076-.051.315.227.343.617.063.872m0 5.749l-3.049 2.78a.85.85 0 0 1-.57.207.879.879 0 0 1-.476-.135l-1.906-1.236c-.329-.213-.382-.602-.119-.868.263-.267.743-.31 1.072-.096l1.34.869 2.569-2.342c.28-.255.761-.278 1.076-.051.315.227.343.617.063.872"/></g></g><g><path fill="#fff" d="M13.22 7.78c-1.358 0-2.46-.892-2.46-1.993v-.04c0-1.1 1.102-1.992 2.46-1.992h1.274c.682 0 1.234-.448 1.234-1V2.72C15.728 1.439 17.01.4 18.593.4h.066c1.582 0 2.865 1.04 2.865 2.321v.034c0 .552.552 1 1.233 1h1.276c1.358 0 2.459.892 2.459 1.992v.04c0 1.101-1.101 1.993-2.46 1.993H13.22m5.412-6.038c-.689 0-1.247.45-1.247 1.006s.558 1.007 1.247 1.007c.689 0 1.247-.451 1.247-1.007 0-.556-.558-1.006-1.247-1.006"/></g><g><path fill="#fff" d="M7.316 16.974l1.906 1.236c.14.091.308.135.476.135.21 0 .42-.07.57-.207l3.05-2.78c.28-.255.25-.645-.064-.872-.315-.226-.797-.204-1.076.051L9.609 16.88l-1.34-.87c-.329-.212-.809-.17-1.072.097s-.21.655.12.868"/></g><g><path fill="#fff" d="M7.316 22.944l1.906 1.236c.14.09.308.135.476.135.21 0 .42-.07.57-.207l3.05-2.78c.28-.255.25-.645-.064-.872-.315-.227-.797-.204-1.076.051L9.609 22.85l-1.34-.87c-.329-.212-.809-.17-1.072.097s-.21.655.12.868"/></g><g><path fill="#fff" d="M7.316 28.655l1.906 1.235c.14.091.308.135.476.135.21 0 .42-.07.57-.207l3.05-2.78c.28-.255.25-.645-.064-.872-.315-.227-.797-.204-1.076.052l-2.569 2.34-1.34-.868c-.329-.213-.809-.17-1.072.096-.263.267-.21.656.12.869"/></g><g><path fill="#fff" d="M7.316 34.404l1.906 1.236c.14.09.308.135.476.135.21 0 .42-.07.57-.207l3.05-2.78c.28-.255.25-.645-.064-.872-.315-.227-.797-.204-1.076.051L9.609 34.31l-1.34-.869c-.329-.213-.809-.17-1.072.097-.263.266-.21.655.12.867"/></g></g></g></g></svg>