<svg xmlns="http://www.w3.org/2000/svg" width="48" height="48" viewBox="0 0 48 48"><g><g><g><path fill="#fff" d="M42.88 35.267c1.006 1 1.534 2.191 1.534 3.431 0 1.23-.517 2.43-1.503 3.46-.429.45-.867.88-1.295 1.29-.628.61-1.225 1.181-1.742 1.811-.01.02-.03.03-.04.05-1.514 1.651-3.446 2.48-5.746 2.48-.2 0-.418-.009-.628-.02-3.415-.219-6.473-1.51-8.762-2.6-5.995-2.91-11.243-7.041-15.605-12.272C5.5 28.556 3.09 24.505 1.476 20.134.818 18.354-.038 15.633.2 12.712c.16-1.81.886-3.37 2.16-4.65L5.749 4.63l.02-.02c.995-.96 2.17-1.47 3.385-1.47 1.215 0 2.37.51 3.337 1.47.647.6 1.274 1.24 1.871 1.861.299.32.618.64.926.95l2.72 2.73c2.09 2.101 2.09 4.822 0 6.922-.28.28-.559.57-.838.85-.737.75-1.494 1.531-2.31 2.281.608 1.35 1.444 2.68 2.688 4.26 2.57 3.171 5.248 5.622 8.196 7.502.289.18.628.35.986.53.249.13.507.26.767.4l3.147-3.15c1.005-1.01 2.18-1.54 3.405-1.54 1.235 0 2.4.54 3.366 1.55zm-1.901 5.021c1.016-1.06 1.016-2.11-.01-3.13l-5.507-5.532c-.309-.34-.816-.73-1.434-.73-.627 0-1.165.41-1.504.75l-3.405 3.421c-.17.17-.687.69-1.514.69a2.15 2.15 0 0 1-.986-.25c-.04-.02-.08-.05-.119-.07-.289-.18-.627-.35-.986-.53-.398-.2-.816-.41-1.225-.67-3.197-2.03-6.094-4.681-8.842-8.082l-.01-.01c-1.514-1.93-2.51-3.55-3.217-5.271l-.03-.09c-.179-.57-.338-1.41.518-2.27.01-.02.03-.03.05-.05.866-.78 1.663-1.581 2.5-2.441.288-.28.567-.57.856-.86 1.055-1.06 1.055-2.04 0-3.101l-2.719-2.73c-.318-.33-.637-.65-.946-.97a50.737 50.737 0 0 0-1.792-1.791l-.03-.03c-.319-.32-.827-.7-1.454-.7-.508 0-1.026.25-1.513.71L4.264 9.96c-.827.83-1.275 1.8-1.374 2.971-.15 1.83.189 3.771 1.115 6.262 1.504 4.08 3.774 7.881 7.17 11.992 4.112 4.931 9.061 8.822 14.698 11.563 2.06.99 4.81 2.15 7.767 2.34.149.01.308.01.458.01 1.553 0 2.738-.51 3.744-1.59.617-.73 1.275-1.38 1.922-2 .428-.42.826-.8 1.215-1.221-.01.01-.01 0 0 0z"/></g><g><path fill="#ffc05c" d="M25.617 11.669c2.608.44 4.979 1.68 6.87 3.58a12.77 12.77 0 0 1 3.566 6.902c.11.66.677 1.12 1.324 1.12.08 0 .15-.01.23-.02a1.351 1.351 0 0 0 1.104-1.56A15.45 15.45 0 0 0 34.4 13.34a15.339 15.339 0 0 0-8.315-4.331 1.353 1.353 0 0 0-1.554 1.1c-.13.73.349 1.44 1.086 1.56"/></g><g><path fill="#ffc05c" d="M47.253 21.305c-.886-5.22-3.336-9.972-7.1-13.753C36.39 3.772 31.66 1.31 26.461.42c-.727-.13-1.414.37-1.543 1.1-.12.74.368 1.43 1.105 1.56 4.64.79 8.873 3.001 12.239 6.372 3.365 3.38 5.556 7.632 6.343 12.292.109.66.677 1.12 1.324 1.12.08 0 .15-.01.229-.02a1.324 1.324 0 0 0 1.095-1.54"/></g></g></g></svg>