<svg xmlns="http://www.w3.org/2000/svg" width="48" height="48" viewBox="0 0 48 48"><g><g><g><path fill="#ffc05c" d="M9.924 23.87l13.851 14.034H9.925zM.16 0v47.789h47.18z"/></g><g><g><path fill="#fff" d="M4.189 7.576a.833.833 0 0 0 0 1.167.808.808 0 0 0 1.152 0l1.723-1.746L5.916 5.83z"/></g><g><path fill="#fff" d="M5.918 12.83a.82.82 0 0 0 .575.24.828.828 0 0 0 .577-.24l2.876-2.913L8.794 8.75l-2.876 2.913a.834.834 0 0 0 0 1.167"/></g><g><path fill="#fff" d="M9.949 14.573a.8.8 0 0 0 1.148 0l1.727-1.746-1.152-1.167-1.723 1.751a.826.826 0 0 0 0 1.162"/></g><g><path fill="#fff" d="M11.668 18.65a.803.803 0 0 0 1.152 0l2.876-2.913-1.152-1.167-2.876 2.913a.833.833 0 0 0 0 1.167"/></g><g><path fill="#fff" d="M15.698 20.403a.807.807 0 0 0 1.148 0l1.728-1.747-1.151-1.166-1.725 1.75a.83.83 0 0 0 0 1.163"/></g><g><path fill="#fff" d="M17.419 23.313a.833.833 0 0 0 0 1.167.81.81 0 0 0 1.15 0l2.877-2.914-1.152-1.166z"/></g><g><path fill="#fff" d="M21.449 26.223a.803.803 0 0 0 1.15 0l1.725-1.746-1.152-1.167-1.723 1.75a.828.828 0 0 0 0 1.163"/></g><g><path fill="#fff" d="M23.169 30.3a.81.81 0 0 0 1.152 0l2.875-2.913-1.152-1.167-2.875 2.917a.828.828 0 0 0 0 1.163"/></g><g><path fill="#fff" d="M27.199 32.053c.158.156.369.24.575.24a.831.831 0 0 0 .577-.24l1.723-1.75-1.148-1.163-1.727 1.746a.833.833 0 0 0 0 1.167"/></g><g><path fill="#fff" d="M28.929 36.126a.805.805 0 0 0 1.148 0l2.875-2.913-1.148-1.163-2.875 2.913a.828.828 0 0 0 0 1.163"/></g><g><path fill="#fff" d="M32.948 36.717a.833.833 0 0 0 0 1.166.808.808 0 0 0 1.152 0l1.724-1.75-1.148-1.163z"/></g><g><path fill="#fff" d="M34.678 41.956a.8.8 0 0 0 1.148 0l2.876-2.913-1.148-1.163-2.876 2.913a.83.83 0 0 0 0 1.163"/></g><g><path fill="#fff" d="M38.698 43.704c.159.16.37.241.577.241.21 0 .417-.08.575-.241l1.724-1.751-1.148-1.163-1.728 1.747a.834.834 0 0 0 0 1.167"/></g></g></g></g></svg>