<svg version="1.1" id="Слой_1" xmlns="http://www.w3.org/2000/svg" x="0" y="0" viewBox="0 0 325 224" xml:space="preserve"><style>.st0{fill:#fdfdfd}.st1{fill:#f7f6f4}.st2{fill:#787878}.st3{fill:#979797}.st4{fill:#5a5a5a}.st5{fill:#292929}.st6{fill:#fbfbfb}.st7{fill:#8c8c8b}.st8{fill:#cdcdce}.st9{fill:#605f5f}.st10{fill:gray}.st11{fill:#93938c}.st12{fill:#333434}.st13{fill:#a5a6a5}.st14{fill:#777776}.st15{fill:#4c4c4c}.st16{fill:#7a7a79}.st17{fill:#9e9e9e}.st18{fill:#a2a3a3}.st19{fill:#8e8e8d}.st20{fill:#919191}.st21{fill:#9a9a9a}.st22{fill:#a4a39c}.st23{fill:#8e8d8e}.st24{fill:#949493}.st25{fill:#757574}.st26{fill:#3d3d3d}.st27{fill:#a3a2a2}.st28{fill:#a4a4a4}.st29{fill:#878787}.st30{fill:#828181}.st31{fill:#595959}.st32{fill:#858585}.st33{fill:#4a4a49}.st34{fill:#4d4d4d}.st35{fill:#848483}.st36{fill:#5a5b5a}.st37{fill:#6d6d6e}.st38{fill:#969696}.st39{fill:#707070}.st40{fill:#919291}.st41{fill:#7a7a7a}.st42{fill:#7f7f7f}.st43{fill:#555}.st44{fill:#494948}.st45{fill:#7c7c7c}.st46{fill:#ececee}.st47{fill:#626263}.st48{fill:#5d5d5e}.st49{fill:#5c5c5d}.st50{fill:#5a5958}.st51{fill:#747474}.st52{fill:#4b4a4b}.st53{fill:#515151}.st54{fill:#565656}.st55{fill:#3c3c3c}.st56{fill:#474848}.st57{fill:#4f4f4f}.st58{fill:#353534}.st59{fill:#93938f}.st60{fill:#d0d0d0}.st61{fill:#a4a3a3}.st62{fill:#a6a6a5}.st63{fill:#a2a2a2}.st64{fill:#a6a6a6}.st65{fill:#959595}.st66{fill:#737373}.st67{fill:#aaa}.st68{fill:#e7e7e7}.st69{fill:#e7e6e7}.st70{fill:#c3c3ad}.st71{fill:#9f9f9f}.st72{fill:#c2d5e1}.st73{fill:#c0c1bf}.st74{fill:#b3b3b3}.st75{fill:#bfbfbf}.st76{fill:#5b5f63}.st77{fill:#656566}.st78{fill:#5e6567}.st79{fill:#a2a198}.st80{fill:#f4efcf}.st81{fill:#cdcdcd}.st82{fill:#f1edd1}.st83{fill:#b2b2b2}.st84{fill:#646463}.st85{fill:#989898}.st86{fill:#ecebed}.st87{fill:#b4b4b4}.st88{fill:#a1a1a1}.st89{fill:#505050}.st90{fill:#444}.st91{fill:#ece7cc}.st92{fill:#ccc}.st93{fill:#b6b6a5}.st94{fill:#cfcfcf}.st95{fill:#b5b5b4}.st96{fill:#cfcece}.st97{fill:#6f6f6c}.st98{fill:#7c7c7b}.st99{fill:#999}.st100{fill:#929292}.st101{fill:#5d5d5d}.st102{fill:#eee9cd}.st103{fill:#afafaf}.st104{fill:#7b7b7b}.st105{fill:#a9a79f}.st106{fill:#9f9e93}.st107{fill:#7c7c77}.st108{fill:#909090}.st109{fill:#8c8c8c}.st110{fill:#80807e}.st111{fill:#c3c2ae}.st112{fill:#e7e6e6}.st113{fill:#6c6c6b}.st114{fill:#9c9c98}.st115{fill:#c3d9e6}.st116{fill:#8a918c}.st117{fill:#b2b29f}.st118{fill:#a1a198}.st119{fill:#a0a099}.st120{fill:#838382}.st121{fill:#bebebe}.st122{fill:#dedede}.st123{fill:#7a7a7b}.st124{fill:#cbcbcb}.st125{fill:#cecece}.st126{fill:#6b6b6b}.st127{fill:#717171}.st128{fill:#535353}.st129{fill:#b8b7ab}.st130{fill:#9c9c9c}.st131{fill:#787875}.st132{fill:#cdcccc}.st133{fill:#434342}.st134{fill:#999895}.st135{fill:#737371}.st136{fill:#d2d2d2}.st137{fill:#a2a3a0}.st138{fill:#b1b0b1}.st139{fill:#e6e6e6}.st140{fill:#e2e2e1}.st141{fill:#e0e0e0}.st142{fill:#8f8f8f}.st143{fill:#c8c8c8}.st144{fill:#8f908c}.st145{fill:#e1e1e0}.st146{fill:#616162}.st147{fill:#cececf}.st148{fill:#c4c4c4}.st149{fill:#868e8f}.st150{fill:#818b93}.st151{fill:#bed0db}.st152{fill:#676767}.st153{fill:#767676}.st154{fill:#9c9c99}.st155{fill:#98988f}.st156{fill:#9a9a92}.st157{fill:#636363}.st158{fill:#d9d9d8}.st159{fill:#b6b6b5}.st160{fill:#ababab}.st161{fill:#747473}.st162{fill:#d3d3d3}.st163{fill:#959695}.st164{fill:#b3b2b1}.st165{fill:#e1e0cc}.st166{fill:#6e6e6e}.st167{fill:#a4a3a4}.st168{fill:#7b7c7c}.st169{fill:#b8b8b8}.st170{fill:#a3a4a4}.st171{fill:#606060}.st172{fill:#b6b6b6}.st173{fill:#b6b5b4}.st174{fill:#bababa}.st175{fill:#d5d5d5}.st176{fill:#686868}.st177{fill:#838279}.st178{fill:#716e67}.st179{fill:#6f6f6f}.st180{fill:#c7c7c7}.st181{fill:#636362}.st182{fill:#939393}.st183{fill:#d8d8d8}.st184{fill:#d6d6d6}.st185{fill:#cbcbcc}.st186{fill:#585958}.st187{fill:#b0b0b0}.st188{fill:#757575}.st189{fill:#50514f}.st190{fill:#b7b7b6}.st191{fill:#9b9b9b}.st192{fill:#d1d1d0}.st193{fill:#777673}.st194{fill:#e8e8e9}.st195{fill:#c8d9e7}.st196{fill:#e1e0e0}.st197{fill:#bbb}.st198{fill:#a5a5a3}.st199{fill:#aeaeae}.st200{fill:#b1b1b1}.st201{fill:#c3d6e2}.st202{fill:#7f8686}.st203{fill:#8b8b7d}.st204{fill:#7e8684}.st205{fill:#848484}.st206{fill:#a9a9a9}.st207{fill:#a4a4a3}.st208{fill:#adaeae}.st209{fill:#b7b7b7}</style><path class="st0" d="M65.4 144.9c-.3 3.1.2 6.1 1 9.1.3.6.5 1.1.6 1.6.3 1 .6 2.1.7 3.2.2.7.4 1.4.6 2.2.4.1.9.1 1.3.2 2.6.4 4.2 3.8 3.5 6.2-.8 2.8-.4 3.2 2.4 4.2 4.1 1.4 8.8 1.2 13 1 6.3-.3 12.9-1.1 19.1-2.6 1.7-.9 3.6-1.3 5.7-1.4 1.5-.1 2.6.4 3.4 1.1.3-.4.5-.9.6-1.4-.4-1.4-1.5-2.1-2.7-2.8-16.3-9.1-33.1-17.3-49.4-26.2-1.4-.8-3.4-2-4.5.7v.2c2.7.1 4.9 1.9 4.7 4.7z"/><path class="st0" d="M315.5 16.6c0-3-.6-3.6-3.6-3.6-31.4.1-62.8.1-94.1.1-2.3 1.7-.9 2.9.7 3.7 1.5.8 3 1.4 3.7 3 1.4 1.6 3.4 2 5.3 2.5 1.9.4 3.8 1.1 5.8.8 4.7-.7 9.4-1.7 12.6 3.3.4.2.8.4 1.3.6 2 .7 4 1.3 6 2.1 5.3 2.1 11 2.5 16.3 4.8 1 .3 1.9.5 2.9.7 2 .6 3.9.9 6 .4 5.1-1.3 9.7-1.1 13.3 3.4 1.4 1.2 3.2 1.9 4.6 2.9 1.7.6 3.5.7 5.3 1.1 2.9.8 5.9.9 8.7 2.1 0 1.5-2.1 1.7-2 3.3-.4 2.5-.2 5-.2 7.4v95c0 1.5.1 3-.1 4.5-.3 2.7-1.8 2.9-3.8 1.9-1-.5-2-1-3-1.2-3.5.2-6.6-1.2-9.7-2.5-4.7-1.7-9.3-3.6-14.4-3.7-5.6 3.1-10.2 7.7-15.6 11.1-3.5 2.9-7.4 5.3-11 8.1-3.5 2.8-7.2 5.3-10.7 8.1.5 2.1-1.4 1.4-2.3 1.9-1.9 1.1-3.7 2.5-5.7 3.6-.4.2-.7.5-1.1.8-3.2 3.2-7.2 5.4-10.7 8.1-.4.2-.7.5-1.1.8-1.8 1.7-3.9 2.9-5.7 4.5-1.9 1.6-4.3 2.2-6 4.1-2.9 2.4-5.6 5.1-9.2 6.5-1.9.9-3.5-.1-5.2-.9-18.9-9.6-37.5-19.7-56.2-29.5-5.8-3-11.2-7-17.9-8.1-.6.4-1.2.9-1.7 1.3.4.4.7.8.9 1.3l.1.1c3.7 2.7 2.9 9.5-2.5 9.3-.4 0-.8 0-1.2.1-.8 4.7-4.5 8.2-9.8 9.4a6.96 6.96 0 01-4 2c-1.6.2-3.6-1.1-4.3-2.5-1.1-2.2-1.6-4-1.7-6.5 0-.3 0-.6.1-.8-14.6 1.4-30.8 0-31.7-11.4-.5-.1-1.1-.3-1.5-.6-3.6-.2-7.2-.4-10.8-.9-4-.6-4.5-5.9-2.2-8.4 2-2.2 4.9-4.2 8-5-.3-1.1-.6-2.1-.9-3-1.3-3.8-1.1-7 .7-10.5.9-1.8 2.9-2.5 4.8-2.4-.4-1.8-1.9-2-4.1-1.1-2.9 1.2-5.1.8-6.8-2.1-.5-.9-1.4-1.4-2.3-1.8-5.7-.7-10.4 2.8-15.8 3.5-1.9.4-3.7 1.1-5.6 1.7-1.3.4-2.6.9-3.1-1-.2-26.7 0-53.4-.1-80.1 0-2.4.4-5-1.1-7.2-3.1-1.9-6.2-1.8-9.3.1v160.9c99.6 0 199.2 0 298.8.1 3.4 0 4.1-.7 4.1-4.1-.3-63.9-.3-128-.2-192.1zm-46.9 179.9c-1.2 1.7-2.7 3-4.4 4-1.2 2.4-4.3 3.8-6.7 2.6-1.1.3-2.3.5-3.4.7-5.5 1-8.8-6-3.9-9.1 1.4-.9 2.9-1.5 4.6-2-1.5-.8-2.6-2.2-2.6-4-1.6-.2-3.2-.5-4.8-.9-3.6-1-4.9-5.7-2.2-8.4 3.4-3.3 7.7-2.7 11.8-3.3.8-.4 1.7-.6 2.6-.6 1.4-.4 3.2.1 4.5 1.1 3.1-1.5 6.9.1 7.2 4.3.5 5.3.5 11.1-2.7 15.6z"/><path class="st1" d="M308.7 43.5c-2.3-.8-5-.3-6.9-2.2-1.7.2-3.4-1.3-5.2-.1-1.7-1.7-4.1-1.8-6.3-2.4.9.2 1.6.1 2.2-.6-4.3-5.5-8.1-6.5-14-3.8-2.4 1.7-4.2.5-5.9-1.2h-2.5c-6-1.5-12-2.9-17.8-4.7-2.1-1.1-4.6-1-6.7-2.1-5.7-2.8-12-2.8-17.9-4.6-3.1-.4-5.8-2.1-8.8-3-8.2-2.5-16.6-4.3-25-5.7h-1c-2.3 2.7-5.9 1.3-8.6 2.6-2.5.3-4.9 1.1-7.4 1.5-2.8.6-5.5 1.4-8.4 1.6-6.6 1-13 3.1-19.7 4-6.6 1-13.1 2.8-19.7 4-2.7 0-5.2 1-7.8 1.4-3 .8-6.1 1.4-9.1 2-2.7.9-5.7.4-8.4 1.4-2.6.3-5 1.1-7.6 1.6-2.8.6-5.5 1.4-8.4 1.6-5.6.8-10.9 2.6-16.5 3.4-7.7 1.2-15.2 3.4-22.9 4.6-4.1.2-7.8 1.7-11.8 2.4-2.8.7-5.7 1.4-8.6 1.6-2.7.4-5.7.2-7.7 2.7.9 2.1 2.9 1.9 4.6 2 2.3.1 4.6-.1 6.8.7 5.5.9 11.2-.5 16.7 1.1 3.8.4 7.7.1 11.5.2 2.3-.2 4.6.2 6.8.8 3.2.3 6.4.1 9.6.2h6.1c4.9.3 9.9-.6 14.8.6 4.3.9 8.7-.4 12.9 1 2.5.4 4.9.6 7.3-.2 1.4-.8 1.7-1.9 1.7-3.2.4 2.5 2.2 4 5.8 3.8.8 0 1.6.5 2.4.6 3.1.5 6.3.2 9.4.3 3.3.1 6.6-.3 9.8.4 3.2-.1 6.4 0 9.5-.7 4.3-1.4 8.7-.1 13-1 7.5-.9 15-.7 22.5-.9 2.6.2 5-.6 7.5-.9 2-.9 4.5-.4 6.1-2.2 0-2.2-.2-4.4-.2-6.6.1 1.8.2 3.5.4 5.3 0 .6.1 1.1.3 1.7 2.2 2.1 4.8.8 7.2.6 7.6-.5 15.2-1.6 22.9-1.5 4.3.3 8.5-.4 12.8-1 4.7.4 9.4-.7 14.1-.7 2.5-.1 5-.3 7.5-.7 4.1-1.3 8.4-.2 12.5-1.1 3-1 6.1-.5 9.2-.6 4.9.4 9.7-.6 14.5-1 1.4.1 2.6-.7 4-1 1-2-.7-1.7-1.6-2zm-189.6 6.7v-.4c.1.1.1.2 0 .4zm121.2-11.6h-.4c-.8 1.3-2.1 2.4-4.1 2.5-2.3.2-4.4 0-6.4-.5-1.8-.2-3.5-.6-5.2-1-.7.1-1.4.1-2.3-.2-.9-.3-1.9-.6-2.8-.8h-.9c-1.5 0-2.7-.6-3.5-1.4-1-.4-2-.8-3-1.3-1.7-.9-2.4-2.4-2.4-4-.7.1-1.4.3-2 .5-1.4.8-1.7 2.1-1.9 3.7-.3 1.8-.4 3.5-.4 5.3 0-2.4.2-4.8.5-7.1.3-2.1 1.8-2.3 3.6-2.5h.3c.1-2.6 2-5.2 5-5.2 2.3 0 4.6.2 6.8.8.8-1 2.1-1.7 3.8-1.8 5.9-.3 11.4 1.1 16.9 3.2 4.8 1.9 4.4 9.8-1.6 9.8z"/><path class="st0" d="M12.6 50.1c0-11.2.1-22.3-.1-33.5-.1-3 .6-3.6 3.6-3.6 57.9.1 115.9.1 173.8.1-.8 3.4-4.3 1.9-6.2 3.4-2.6-.1-4.9 1-7.4 1.4-.7.2-1.4.2-2.1.2-3.6-2.3-6.2-.1-8.9 1.8-6.1 1.4-12.2 2.8-18.5 3.6-6.5 1.4-12.9 3.2-19.6 3.9-2.3.3-4.5 1.1-6.8 1.5-1.9.4-3.8.8-5.8 1.2-1.9.1-3.8 0-5.7-.6-2.3-.7-4.1.1-5.1 2.3-.3.4-.7.6-1.2.8-2.5 0-4.8 1.3-7.3 1.4-3 1-6.2.8-9.3 1.5-5.2 1.4-10.4 2.3-15.6 3.4-5.4.5-10.6 2.4-16.1 3.1-3.4.3-7.2-1.8-10.1 1.6-3 1.3-6.2 1.7-9.4 2.4-2.7.8-5.5.9-8.3 1.4-2.5.5-4.9.9-7.3 1.9-2.1.6-4.3 1.7-6.6.8z"/><path class="st1" d="M217.8 13.1c-.9 1.8-.2 2.8 1.7 3 2.1.2 3.3 1.1 3.1 3.4-1.3.7-2.6 0-3.9-.1-5.2-1.4-10.4-2.9-15.6-4.4-1.1-.3-3.3.5-3.3-2 6 .1 12 .1 18 .1z"/><path class="st2" d="M199.9 13.1c6.3 2 12.6 3.9 18.9 5.9.3.2.4.4.3.6-.1.2-.2.3-.3.3-5.3-1.3-10.5-2.6-15.8-3.9-2.4-.6-4.7-1.4-7.3-.9-1.4.3-2.2-.4-1.9-2h6.1z"/><path class="st3" d="M20.7 49.3c3.4 2 7.5-.3 10.9 1.6-.7 1.2-1.9 1.5-3 1.9-1.4.4-2.8.5-4.1.2-1.1-.1-2-.7-3.1-.8-2.9-.1-5.9-.1-8.8-.2v-1c1.6-1.4 3.8-.6 5.5-1.7.9-.1 1.7-1 2.6 0z"/><path class="st4" d="M183.6 15.8c1.8-1.6 5-.1 6.3-2.7h3c-.9 5.1-5.5 2.2-8 3.8-.5-.3-1.2-.4-1.3-1.1z"/><path class="st5" d="M18.5 49.9c-1.7 1.5-3.9 1-5.9 1.2v-1c2-.6 4-1.2 5.9-1.8.7.5.7 1.1 0 1.6z"/><path class="st6" d="M308.4 46.7c-.4-.5-.9-.8-1.5-.9-4 .6-8.1.9-12.2.9-3.4.8-6.8.2-10.2.4-5 .5-10 .8-15.1.9-2.2.2-4.6-.4-6.6 1-4.6.5-9.3.5-13.9.6-4.3 1.1-8.6.8-13 1-8.1.6-16.1 1-24.2 1.4-1.8-.5-3.6 1.2-5.4 0-2.1 1.5-1.7 3.8-1.8 5.9-.1 6.6 0 13.2 0 19.8.2 6.2-.4 12.3.4 18.5.2.6.5 1.1.9 1.6 1.9 1.8 4.3 2.2 6.8 2.7 15.6 2.9 31.2 5.6 46.7 8.5.5.2 1.1.3 1.6.3 4.5.2 8.8 2.7 13.5 1.5.7-.3 1.1-.9 1.3-1.5l-1.2-.6c-2.5-1.4-2.9-4.3-1.9-6.5-.1-2.6 1.4-5.2 4.1-7.3-1.9-1.7-2.6-4.8-.3-7.1 2-2 4.5-3.1 6.9-3.4 1.1-.5 2.1-1.1 3.1-1.9 2.2-1.7 5.6-.3 6.8 1.8 1 1.6 1.4 3.2 1.5 4.7 1.1.8 1.9 2.1 1.7 3.8-.2 2.1-.6 4.2-1.7 6-1.2 1.9-3.4 2.5-5.4 2.2-1.3.9-2.6 1.7-3.8 2.7.9 2.9-.7 6.6-4.6 6.5-1.7 0-3.2-.3-4.7-.8 2.2 3.8 6.7 3 10.2 4.1 4.3 1.4 9 1.2 13.3 2.7 3 4.1.9 8.8 1.4 13.2-1.8 4-5.9 5.4-8.9 8-4.5 3.8-10.1 6.2-13.7 11.1 4 3.2 9.3 2.9 13.6 5.2 2.8.9 5.6 2.1 8.6 2.2.5.3 1 .6 1.6.9 6.7 2.1 6.7 2.1 6.7-4.7V52.5c-.1-1.9.3-3.9-.6-5.8zm-70.8 28.2c-.3-.2-.6-.4-.8-.6h-5.5c-.9 0-1.7-.2-2.3-.5-2.5.1-5 .4-7.4.9-5.3 1-9.2-6.4-3.9-9.1-1.4-2.7.5-5.9 3.2-7 5.3-2.2 11.5-.3 16.4 2 1.9.9 2.6 2.7 2.4 4.4.5.3.9.6 1.2 1 1.4.2 2.6.7 3.6 1.7.6.6 1.2 1.4 1.6 2.2.5.8.7 1.6.7 2.5-.1.4-.1.9-.2 1.3-.3 1.3-1.2 2.3-2.3 3-.6.4-1.2.6-1.9.6-.7.1-1.3.1-2-.1s-1.2-.5-1.7-.9c-.4-.5-.8-.9-1.1-1.4zm23.8 17.9c-.1 0-.1.1-.2.1-.4.5-.9 1-1.5 1.3.3 3.1-2.6 6-6.2 5.4-3.3-.6-6.3-1.8-9.2-3.5-.7-.4-1.2-1-1.6-1.6-2.3-.5-3.3-2.5-3.2-4.6-.2-.8-.2-1.6 0-2.3-.5-1.2-.8-2.4-1-3.5-.4-2.7.7-5.4 3.5-6.2 2.4-.7 5.7.8 6.2 3.5 0 .2.1.5.2.8.4.1.9.3 1.2.5v-.2c-1.6-6.2 8-8.9 9.6-2.7.5 1.7.9 3.2 1 4.6.2.2.4.4.6.7 2.3 1.8 2.9 5.6.6 7.7z"/><path class="st7" d="M198.8 207.8c-2.4 2.8-4.5.5-6.5-.6-22.9-11.9-45.7-23.9-68.6-35.9-1.6-.8-3.3-1.4-5-2.1-.6.2-1.1.1-1.6-.3-2.5-3.6-6.8-4.5-10.3-6.4-14.1-7.6-28.4-15-42.6-22.4-.9-.4-1.8-.7-2.8-1-1-1-.6-1.7.4-2.4 3.7.4 6.6 2.9 9.9 4.2 15.4 8.4 30.8 16.9 46.7 24.2 1.4-2-.9-2.7-.5-4 .7-1.1 1.8-1.8 2.9-1.3 3.2 1.6 5.6-.4 8.3-1.3 1.1.3 1.5 1.1 1.5 2.1.8 1.1-2.9 2.3 0 3.2 1.8.6 3.3 0 3.7-2.1.2-1.1-.5-1.9-.8-2.8.1-2 1-3.6 2.2-5.2.9-.6 1.8-.6 2.8-.4 2.4.7 3.3 2.3 2.9 4.8-.1.5-1.2 2.1.9 1.7 1.5.5 2.6 1.4 2.8 3.1-1.7 1.7 1.7 1.3 1 2.6-2.2 3.4-6.2 4-9.3 6.1-4.7-.1-8.1-4.2-12.9-4.3 0 1.9 1.3 2 2.3 2.5 22.1 11.4 44.1 22.9 66 34.6 1.2.6 2.4 1.1 3.7 1.3.5.1.9.2 1.4.3.5.1.9.4 1.2.6.2.3.3.5.2.8.3.2.2.4.1.4z"/><path class="st8" d="M198.9 207c-.3 0-.6-.1-.9-.1-2.4-3.3-1.3-5.9 1.6-8.1 3.2-2.4 6.6-4.4 9.6-7.1 3.8-2 7.1-4.8 10.5-7.4 4.4-3 8.8-5.9 13.1-9 3.5-2.5 5-2 7 1.9 1.5 2.6-.7 1.6-1.7 1.9-3.1-.2-4 3-6.3 4-4 3-8.2 5.7-12 9-1.9 1.8-4.9 2.3-5.9 5.1-1.3 2.2-4.3 2-5.8 3.9-3.3 1.5-5.9 4.3-9.2 5.9z"/><path class="st9" d="M21.4 52.2c.8-1.5 1.5-1.5 2.3 0 1.6 1.8 1.5 4 1.5 6.1v76.8c0 1.7 0 3.3-.6 4.9-.4 1-1.2 1.6-2.1 2.1-1.3-1.8-.7-3.8-.7-5.8V57.1c-.1-1.6-.3-3.2-.4-4.9z"/><path class="st10" d="M302.2 156.9c1.1.1 2.4-.1 3.4.3 2.1.8 2.7-.1 2.6-2v-1.5V51c0-1.6.3-3.4-1-4.8.8-.8 1.6-.8 2.4 0 0 35.8 0 71.6-.1 107.4 0 1.9 1.1 4.8-.8 5.5-2.1.8-4.8-.2-6.5-2.2z"/><path class="st11" d="M239.7 177.1c-2.3-3.1-4.5-2.3-7.2-.3-4 3-7.9 6.3-12.7 8.2l-.3-.6c1.9-4.5 6.6-5.7 10-8.3 2.7-2.1 2.7-3.3-.2-4.7-.8-.9-1.6-1.9-.6-3 1.1-1.3 2.4 0 3.5.3 3.3 1.8 6.1 1.1 9.1-1.2 2.8-2.1 5.2-5.3 9.3-4.7.8 2.6-1.3 3.4-2.8 4.5-2.4 1.7-4.8 3.4-7.5 5.7 4.2-.7 6-5.2 10.1-4.3l.5.5c-3.4 3-6.8 6.1-11.2 7.9z"/><path class="st12" d="M48.7 136.4c1.2 6.6 5.1 5.4 9.3 3.3.7-.3 1.4-.8 2.4-.1v.3c.4 0 .7.1 1.1.1v-1.1c-.1-.9-.4-1.8 1-2 .4.3.8.3 1.2-.1 0-1.4-1-2.1-1.9-2.8-2.4-.7-4.3 3.6-6.1 1.3-2.5-3.3-5.5-1.7-8.3-2.1-.5.2-.8.5-1 .9 0 .8.5 1.3 1.2 1.5.3.3 1 .5 1.1.8z"/><path class="st1" d="M233.5 22.2c5.2-1.4 10.2-2.3 13.2 3.8-4.8.3-9.2-1.2-13.2-3.8z"/><path class="st13" d="M276.6 150c-4.3 4.4-9.4 7.8-14.6 11.1-.4.3-.9.3-1.4.1-.2-.5-.3-1.1 0-1.4 4.9-4.2 9.5-8.9 15.9-11 .3.3.4.5.3.8-.1.3-.2.4-.2.4z"/><path class="st14" d="M233.5 22.2c4.3 1.7 8.6 3.1 13.2 3.8l-.2.2c.3.9 0 1.4-1 1-6-1.7-11.9-3.3-17.9-5-.3-.3-.4-.5-.3-.7.1-.2.2-.3.4-.3 2 .3 3.9.6 5.8 1z"/><path class="st15" d="M46.5 134.1c.3.5.6 1.1.9 1.6-5.3 1.4-10.6 2.8-15.9 4.3-.4-.4-.5-.9-.4-1.5 4.8-2.9 9.6-5.4 15.4-4.4z"/><path class="st16" d="M270.1 33.1c-6.5.1-12.3-2.8-18.4-4.1-.2-.9 0-1.4 1.1-1.1 5.7 1.9 11.9 2.2 17.3 5.2z"/><path class="st10" d="M276.6 150c.1-.3.1-.6.1-1 .2-.8.7-1.2 1.4-1.3.2.1.4.2.6.2 4.1 2.9 9.3 3.1 13.7 5.1.1.9 0 1.5-1.1 1-4.9-1.2-9.8-2.6-14.7-4z"/><path class="st17" d="M219.8 192c3.1-4.1 7.1-7.2 12-9-3.2 4.1-7.7 6.4-12 9z"/><path class="st18" d="M260.7 161c.4 0 .8.1 1.3.1-3.3 3.2-7 5.9-11.1 8l-.2-.1c1.1-5.4 5.3-7 10-8z"/><path class="st19" d="M296.6 41.1c-3.2-.8-6.4-1.7-10.6-2.7 2.9-1.5 4.7.2 6.5-.3 1.1 1.4 4.3-.1 4.1 3z"/><path class="st20" d="M310.2 44.8c-2.6-1.6-6.7.1-8.4-3.6 3.3.8 6.8.6 9.7 2.7.1 1.2-.1 1.8-1.3.9z"/><path class="st21" d="M291.3 154.1c.4-.3.7-.7 1.1-1 2.7 1 5.8.8 8.2 2.9-3.5 1.6-6.3-1-9.3-1.9z"/><path class="st22" d="M198.9 207c2.7-2.7 5.5-5.1 9.3-6-2.8 2.8-5.7 5.3-9.3 6.8-.1-.3-.1-.6 0-.8z"/><path class="st23" d="M278.5 34.3c.6 1.1 2.7.1 2.9 2.6-3.1-1.3-6.9.1-8.8-3.8 2 .4 3.9.8 5.9 1.2z"/><path class="st24" d="M231.7 183c.6-2 2.8-2.8 3.8-4.5 1.3-2.2 1.5 1.1 2.5.5-1.8 1.7-3.6 3.5-6.3 4z"/><path class="st25" d="M227.7 21.2c0 .4 0 .7-.1 1.1-3-.8-5.9-1.6-8.9-2.4V19c1.3.1 2.6.3 3.8.4 1.8.6 3.5 1.2 5.2 1.8z"/><path class="st26" d="M31.5 138.9v1.1c-3 .7-5.7 2.7-9 2.2l1.3-1.3c2.2-2.1 4.5-3.6 7.7-2z"/><path class="st4" d="M310.2 44.8l1.2-.9c1 .2 3-.2 2.6 1.1-.6 2-2.9.6-4.4 1.2h-2.4l-.4.1-.4-.1c-.2-.2-.3-.4-.2-.7.1-.2.2-.3.2-.3 1.3-.1 2.6-.2 3.8-.4z"/><path class="st27" d="M252.8 27.9l-1.1 1.1c-2-.8-4.3-.3-6.1-1.8l1-1c2.2-.1 4.3.6 6.2 1.7z"/><path class="st28" d="M213.9 197.1c.1-3.9 3.5-3.9 5.9-5.1-1.3 2.4-3.9 3.4-5.9 5.1z"/><path class="st6" d="M147.3 57.1c2.3-1.6 5.1-.2 7.5-1 5.1-.2 10.1-.4 15.2-.8 7.2.1 14.4-.7 21.6-1.1 2.4-.4 4.8-.7 7.1-1.1 6.1.1 6.1.1 6.1 6.2-.1 12.8.5 25.6-.4 38.3-1.8 2-4 .9-6 .5-7.1-1.5-14.2-2.5-21.3-3.7-1.9-.2-3.8-.9-5.8-1.1-7-1.8-14.3-2.2-21.4-3.9-2.4-.6-5-.6-6.7-2.8-1.4-8.7-.6-17.4-.5-26.1.2-2.7 2.2-3.6 4.6-3.4z"/><path class="st29" d="M203.8 97.9c.1-13.9.2-27.9.4-41.8 0-1.5-.5-2.1-2-2.1-1.2 0-2.7.8-3.5-.9 1.9-.4 3.8-.7 5.7-1.1.5-.5.9-.4 1.3.2.2-.1.3-.1.5-.1-.2 8.7-.3 17.4-.5 26.1-.6 6.3-.9 12.6.1 18.9l.2-.1c.2.4.2.8.1 1.2-.3.6-.8 1-1.4 1.2-.4 0-.8-.1-1.2-.4-.1-.4 0-.8.3-1.1z"/><path class="st30" d="M147.3 57.1c-2.5.8-3.4 2.2-3.3 5 .3 8.3.1 16.6.2 24.9-3.2-.5-2.3-3.1-2.4-5.1-.4-7.1.6-14.2-.6-21.3-.9-1.6-3-1.6-4.1-3.1-.3-.5-.3-.9 0-1.4 3.4.2 6.9-.5 10.2 1z"/><path class="st31" d="M118.1 54.8c0-2.7 0-5.5.1-8.2 0-1.2.8-1.8 1.9-1.5 1.4.4 1.2 1.2.1 1.9-1.1 3.5-.5 7 .4 10.5.1 9.4.9 18.8-.4 28.2-.5.8-1 1.8-2.2 1-1-1.2-1.2-2.7-1.2-4.2.1-8.7-.6-17.4.4-26.1.2-.5.5-1 .9-1.6z"/><path class="st32" d="M191.6 54.1c-7.1 1.9-14.4 1.9-21.7 1.8-.4-.3-1.1-.4-1.2-1 7.6-.8 15.2-2 22.9-.8z"/><path class="st31" d="M53.8 41.2c5.5-1 11.1-1.9 16.6-2.9.5.3 1.2.3 1.3 1-7.8 1.5-15.5 3.1-23.3 4.6-.7-.3-1.4-.7-1.1-1.7 2-1.8 4.4-.2 6.5-1z"/><path class="st10" d="M235.8 51.2c-8 .9-16.1 1.8-24.2.8 8-1.5 16-1.6 24.1-1.9.3.2.5.4.4.7-.1.3-.2.4-.3.4z"/><path class="st33" d="M127.1 27.1c6.6-1.3 13.3-2.7 19.9-4 1-.6 1.9-.9 2 .9-6.6 1.3-13.3 2.6-19.9 3.9-.6-.5-1.5-.1-2-.8z"/><path class="st34" d="M149 23.9c-.7-.3-1.3-.6-2-.9 6.3-1.4 12.6-2.8 18.9-4.1.6-.4 1.3-.6 2-.5.7.3 1.2.7 1 1.5-6.6 1.4-13.2 2.7-19.9 4z"/><path class="st35" d="M205.7 52.1c-.4-.1-.9-.1-1.3-.2-.2-6.3-.5-12.5.3-18.7 1.2-1 2.3-1 3.4.1-1.8.9-2.2 2.5-2.2 4.4.1 4.8-.1 9.6-.2 14.4z"/><path class="st36" d="M209.4 30.9c-.5 0-.9-.1-1.4-.1-1.8-.2-3.9-.7-3.3 2.4 1.1 0 2.3.1 3.4.1.4-.2.9-.3 1.3-.4-.2-.7-.1-1.3 0-2z"/><path class="st37" d="M28.6 51.9c.8-1.1 2.1-.6 3.1-1 5.6.5 11.3-.8 16.8 1.3.2.7 0 1.2-.6 1.5-6.6.6-13.1.7-19.3-1.8z"/><path class="st38" d="M97.2 53.8c4.4.7 8.9-.5 13.2 1.1-1.4 1.8-3.6 1.4-5.3 2.1-3.6.3-7.3 1.3-10.7-.9-.6-.9-.2-1.6.5-2.2.7-.4 1.5-.4 2.3-.1z"/><path class="st34" d="M71.7 39.3c-.4-.3-.9-.7-1.3-1 5.3-1.1 10.6-2.1 15.9-3.2 1.1-.6 2-.9 2 .9-5.5 1.1-11.1 2.2-16.6 3.3z"/><path class="st39" d="M95.2 54.1c-.4.3-.7.7-1.1 1-5.9 2.2-11.7 2.2-17.4-.4-.5-.4-.6-1-.4-1.6h5.8c4.3 1.3 8.8-.5 13.1 1z"/><path class="st40" d="M119.4 57.3c0-3.4-1.7-7 .8-10.2-.5 6.8-.5 6.8 7.1 8.9-.5 1-1.4 1.6-2.5 1.9-1.9.4-3.8.7-5.4-.6z"/><path class="st39" d="M306.5 45.2v1c-3.8 1.5-7.9.6-11.8 1-1.1 0-2.7 1.4-3-1 4.9-.3 9.8-.7 14.8-1z"/><path class="st41" d="M284.5 48c-5-.4-10 2-15.1.1 4.2-1.7 8.6-.7 13-1.2.9-.2 2.2-.9 2.1 1.1z"/><path class="st17" d="M284.5 48c-.7-.4-1.4-.7-2.1-1.1 3-1.4 6.2-.7 9.3-.7.8 1 2 .6 3 1-3.4 1.4-6.8.8-10.2.8z"/><path class="st42" d="M168.7 54.9c.4.3.8.7 1.2 1-5-.2-10 2-15.1.1 4.6-1.7 9.3-.8 13.9-1.1z"/><path class="st43" d="M262.8 49.1c-4.6 1.6-9.4.8-14.1 1.1-.2-.2-.3-.4-.2-.7.1-.2.2-.3.3-.3 4.6.6 9.3-1.7 14-.1z"/><path class="st44" d="M47.2 42.9c.4.3.8.7 1.2 1-3.9.7-7.8 1.5-11.7 2.2-1 .3-2 .9-2.1-.9 3.3-.8 6.6-1.5 9.9-2.3.9-.6 1.8-.7 2.7 0z"/><path class="st45" d="M248.7 49.2v1c-4.2 1.6-8.6.7-12.9 1v-1c4.3-.4 8.6-.7 12.9-1z"/><path class="st46" d="M95.2 54.1c-4.3-.7-8.8.6-13.1-1 5 .2 10.1-1 15.1.7-.7.1-1.3.2-2 .3z"/><path class="st47" d="M34.6 45.3l2.1.9c-2.6 1.3-5.4 1.5-8.2 1.7-.6-.5-1.5-.1-2-.9 2.5-1.4 5.4-.9 8.1-1.7z"/><path class="st48" d="M88.3 36c-.7-.3-1.3-.6-2-.9l9-1.8c.4.3 1.1.4 1.2 1.1-2.6 1.1-5.4 1.3-8.2 1.6z"/><path class="st49" d="M169 20c-.4-.4-.8-.7-1.2-1.1 1.4-3.7 4.6-.5 6.6-1.7h1.7c.4.3 1 .4 1.2 1-2.7 1.3-5.6 1.4-8.3 1.8z"/><path class="st15" d="M114.3 29.1c2-.3 3.9-.6 5.9-.9.4.3 1 .3 1.2.9-2.8 1.3-5.9 1.8-8.9 2-1 .5-1.3 0-1.4-.9.7-1.2 2.3-.2 3.2-1.1z"/><path class="st50" d="M111.2 30.2c.4.3.8.7 1.2 1-2.8.6-5.5 1.1-8.3 1.7-.4-.3-1.1-.4-1.2-1 .1-.2.2-.5.3-.7 2.5-1.8 5.1-2.8 8-1z"/><path class="st51" d="M105.3 55.9c1.5-1.4 3.4-.4 5.1-1 2.6 0 5.1-.1 7.7-.1 0 .5-.1 1-.1 1.6-4.4 1.6-8.6 2.2-12.7-.5z"/><path class="st52" d="M26.4 47c.7.3 1.3.6 2 .9-2.6.5-5.2.9-7.7 1.4-.8.2-1.5.4-2.3.6v-1.6c2.8-.5 5.4-.9 8-1.3z"/><path class="st53" d="M48.5 52.9v-.7h11.8c.1 1.2-.8 1.5-1.6 1.8-3.5.4-7.1 1.5-10.2-1.1z"/><path class="st42" d="M59.3 53.1c.3-.3.6-.6 1-.9 2.1-.3 4.1-.3 6.1.8.3.6.2 1.1-.3 1.5-2.5.8-5.2 2.1-6.8-1.4z"/><path class="st54" d="M125.2 56.9c.7-.3 1.3-.6 2-.9 3.3.1 6.5.2 9.8.2 0 .3 0 .6.1.9-4 2.2-7.9 2.4-11.9-.2z"/><path class="st55" d="M177.2 18.2c-.4-.3-.8-.7-1.2-1 2.5-.5 5.1-.9 7.6-1.4.4.4.8.7 1.3 1.1-2.6.5-5.2.9-7.7 1.3z"/><path class="st56" d="M121.4 29.2l-1.2-.9 6.9-1.2c.7.3 1.3.5 2 .8-2.6.4-5.2.8-7.7 1.3z"/><path class="st57" d="M66.4 53.9c0-.3 0-.6-.1-.9 3.3.1 6.6.1 9.9.2v.9c-3.2 2.1-6.5 2.2-9.8-.2z"/><path class="st58" d="M103 31.9c.4.3.8.7 1.2 1-2.5.5-5.1.9-7.6 1.4-.4-.4-.8-.7-1.2-1.1 2.5-.4 5-.9 7.6-1.3z"/><path class="st1" d="M111.2 30.2c-2.6.3-5.3.7-7.9 1 .6-3.7 3.2-3.8 5.8-3 1.7.5 3.4.9 5.2 1-1 .3-2 .6-3.1 1zM174.3 17.2c-2.2.6-4.4 1.1-6.6 1.7H166c1.9-4.6 5-3.9 8.3-1.7zM47.2 42.9h-2.7c-.1-2.4.8-3 3.3-2.5 1.9.4 4.1-.1 6.1.7-2.3.7-4.5 1.2-6.7 1.8z"/><path class="st46" d="M66.4 53.9c3.3.1 6.6.1 9.9.2 5.8 1.6 11.9.7 17.8 1.1 3.6 1.4 7.4.7 11.2.7 4.2.2 8.4.4 12.6.5.1 10.2.2 20.4.2 30.6.6.7.6 1.4.4 2.2-2 3.7-5.5 4.8-9.3 5.4-11.6 2.5-23.4 4.2-35 6.7-12.9 2.7-25.9 4.8-38.8 7.7-3 2.8-.9 6.4-1.5 9.6 0 1.7-.2 3.6 1.5 4.4 3.3 1.6 3.4 4.6 3.7 7.5.3.5.6 1 1.1 1.4 1.8.5 3.7-.5 5.5.4.6.4 1.1.8.8 1.6l.1.2c-5.1 1.3-10.2 2.7-15 4.8-2.6.7-5.2 1.3-7.7 2 0-29.5 0-59.1-.1-88.6 1.6-.1 3.3-.2 4.9-.3 6.6.3 13.3.6 19.9.9 3.6.1 7.2.2 10.9.2 2.1 1.3 4.5 1 6.9.8z"/><path class="st59" d="M300.5 115c2.2-.1 2.1 1.5 2.1 3-.1 4.3-.2 8.6-.3 12.8-.3.4-.7.4-1.1.2-1.7-1.2-2.7.2-4 .9-1.6.9-3 2.2-5 1-7.3-3.5-15.3-4.3-22.9-6.2-9.1-2.3-18.2-4.8-27.5-6.5-1.1-.3-2-.8-2.4-1.9 0-2 1.1-2.9 3-2.9 1.5.3 2.7 1.3 4.2 1.6 16.4 4.1 32.8 8.3 50.2 11.6-.5-2.5-3.1-2.9-2.3-4.8 1.5-1.6 5.8 1 5.2-2.7-.3-2-3.3.5-5.2.1-9.7-1.9-19.6-2.4-28.7-6.8-.6-2 .9-2.4 2.1-2.1 2.2.5 4-.6 6-.9.5.1.8.4 1.1.7.5 1.5 1.8 1.7 3.1 2 4.7.9 9.3 1.8 13.9 2.8 2.4.5 4.5.1 6.5-1.2.6-.3 1.4-.3 2-.7z"/><path class="st60" d="M260.1 107.9c1.8.5 2.2 2.1 2.8 3.6-.1.5-.4.9-.8 1.1-.7.3-1.4.5-2.2.5-6.7-1.5-13.5-2.2-20.1-4.1-3.2-1-6.5-1.4-9.9-1.9-.5-.1-1-.2-1.6-.3-7-1.8-14.1-2.9-21-4.7-.9-.6-2.2-.9-1.4-2.5 4.9-1.1 9.4.7 14.1 1.5 13.5 2.1 26.6 5.4 40.1 6.8z"/><path class="st61" d="M260.1 107.9c-6.6 1.2-12.8-1.5-19.2-2.4-11.7-1.5-23.1-5.1-35-5.5-.8-.6-.7-1.3-.2-2.1.1-.4.2-.8.2-1.1 7.3 3.1 15.3 3.5 22.9 5.1 10.5 2.1 21.1 3.4 31.3 6z"/><path class="st62" d="M292.8 138.2c-4.6 3.4-8.6 7.6-14.1 9.7l-.2.1c-.7-2.3 1.3-3.3 2.6-4.3 3.2-2.5 6.4-5.3 10.6-6.3.5.1.8.4 1.1.8z"/><path class="st63" d="M277.5 109.9c-.8-.2-1.6-.5-2.4-.9-.2.4-.3.9-.5 1.3-.3.2-.5.5-.6.9.1.4.2.6.5.9 3.6 2.1 7.4 3 11.4 1.6.6-.3.8-.8.5-1.4-2.9-.9-6.2-.6-8.9-2.4z"/><path class="st64" d="M286.5 113.2v-.9c4.7.9 9.3 1.9 14 2.8-.3.3-.7.6-1 1-4.8 1-9.4 1.2-13-2.9z"/><path class="st65" d="M274.6 110.2c-.1.2-.1.4 0 .6-3.9 2.5-8-.1-12 .2-2.4.3-1.5-2.2-2.5-3.1 4.8.8 9.7 1.6 14.5 2.3z"/><path class="st66" d="M205.9 97c-1.7-6.3-1.4-12.6-.1-18.9 0 6.3 0 12.6.1 18.9z"/><path class="st67" d="M301.5 131c.3 0 .5-.1.8-.1-2.7 3-6.1 5.2-9.5 7.3l-.3-.3c1.3-4.6 4.6-7.2 9-6.9z"/><path class="st68" d="M196.7 206.8c-7.5-1.8-13.7-6.4-20.4-9.8-17.2-8.7-34.3-17.8-51.4-26.8-1.3-.7-4.2-.7-3.1-3.3 1.2-2.9 3.5-1.4 5.4-.5 3.3 1.6 6.5 3.1 9.8 4.6.8 0 1.5 0 2.2.3 18.1 8.8 35.9 18 53.9 26.9 4.2 1.9 5.3 4.6 3.6 8.6z"/><path class="st69" d="M118 161.1c.2.2.4.5.6.7.9 1.1 3.9.5 2.8 3.1-1 2.3-3 2-5 .9-15-8-30-15.9-45-23.9.6-4.5 3.6-2.3 5.9-2.2 2.6.7 4.8 2.4 7.2 3.6 4.7 3.2 9.9 5.3 14.9 7.9 3.8 2.1 7.7 3.9 11.6 5.9 1.1.6 2.2 1.3 3.5 1.7 1.2.4 2.4.8 3.3 1.8.1.1.1.3.2.5z"/><path class="st70" d="M138.1 171.9c-.3-.3-.7-.6-1-.9 2.1-3.4 6.4-3.4 9-5.9.9-1.8 2.9-2.3 4.3-3.5.4-.3.8-.5 1.2-.8 2.5-1.3 5.1-2.4 7.5-3.8 4.8-2.9 9.4-2.6 13.8.8.3.5.3.9.1 1.4-6.7 3.6-13.3 7.4-19.7 11.5-4.3 2.7-8.7.3-13.1.8-.7 0-1.4 0-2.1.4z"/><path class="st22" d="M138.1 171.9l1-1c2.5-.4 4.5 1 6.5 2 15.3 7.7 30.6 15.2 45.8 23.1 4.1 2.1 7.3 2.1 10.8-.9 1.9-1.7 3.9-3.8 6.9-3.6.2.1.4.3.6.4-1.5 3.2-4.7 4.5-7.4 6.2-3.4 2.1-5.4 4.6-4.4 8.8h-1.2c.8-4-1-6.1-4.6-7.9-18.1-8.9-36-18.1-54-27.1z"/><path class="st71" d="M136.2 154c.4 2.1-1.2 3.4-2 5-.6 2-1.5.7-2.3.2-.8-2-1.9-.8-3-.3-1.8 2.5-3.9 4.2-7 2.1-1.4-1-2.5.1-3.8.1h.1c-2.8-2.7-.1-3.8 1.6-4.6 4.2-2.1 8.5-4.1 13.2-5.1 1.2 0 1.6 1.2 2.4 1.8.3.2.6.5.8.8z"/><path class="st72" d="M145.2 162.8l-3-3c-1.7-2.7-.7-5 1.1-7.1.4-.3.9-.6 1.4-.7 6.3-.2 8.5 1.6 9 7.3-.5 1.3-1.9 1.6-2.7 2.6-1.8 1-3.5 3-5.8.9z"/><path class="st73" d="M77.3 141c-2-.1-4.4-2.3-5.9.9-3.2-1.3-6.3-2.7-9-4.8.3 0 .5-.1.8-.2 1.1-1.8 2.7-2 4.5-1.7.9.2 1.8.6 2.7 1 1.1.4 2.2.6 3.4.8 2 .6 3.9 1.3 3.5 4z"/><path class="st74" d="M132.2 159c.6.1 1.2 1.1 1.9 0 2.5.3 2.1 2.1 1.9 3.7-.3 1.9-2 2.6-3.6 2.9-1.7.3-3.5-.7-4.3-1.9-1.1-1.6 1.7-1.4 2-2.6.8-.7 1-1.9 2.1-2.1z"/><path class="st75" d="M136.2 154c-.3 0-.7-.1-1-.1 1.6-3.8 5.8-3.6 8.6-5.6 3.4-1 6.4-2.7 9.3-4.7.5-.1.9 0 1.4.3 2.1 2.8.1 4-2 5.1-2.7 1.4-5.8 2-8.3 3.9l.1-.1c-1.5 1.3-3.3 1.1-5.1 1-1.1.1-2.1.2-3 .2z"/><path class="st76" d="M139 153.9c1.5-1.4 3.4-.5 5.1-1-1.8 2-2.5 4.3-2 7-1.3.6-2.3 0-1.9-1.4.5-2 .6-3.4-1.2-4.6z"/><path class="st77" d="M132.2 159c0 1.4-.8 2-2.1 2 0-1-.3-1.8-1.3-2.1.7-1.1.6-3.2 2.2-3.1 1.4.1.8 2.1 1.2 3.2z"/><path class="st78" d="M145.2 162.8c2.1.5 3.9-.5 5.9-.9-.9 2.3-3.2 2.3-4.9 3.2-.8-.6-2.2-.4-2.2-1.8-.1-.2.7-.3 1.2-.5z"/><path class="st79" d="M219.8 185c-2.8 3.1-5.8 5.9-10 6.9v-.1c1.9-4.3 5-6.8 9.8-7.1l.2.3z"/><path class="st80" d="M219.5 184.8c-3.7 1.8-6.9 4.2-9.8 7.1-3.5 1-5.9 3.6-8.6 5.6-2.7 2-4.9 2.2-8 .6-17.9-9.2-36-18.2-53.9-27.2.6-1.1 1.7-1.2 2.6-.9 9.1 3.2 15-3.4 21.8-7.1 3-1.6 5.7-3.9 9.4-4 1.9-1.3 3.5 0 5.1.7 6.9 2.8 13.7 5.9 20.7 8.5 5 2.5 10.4 4.2 15.5 6.7 2.3 1.1 4.3.8 6.5-.5 2.3-1.3 4.4-3 6.9-3.8.8-.1 1.5.1 2.1.5 1.6.7 3.2 1.4 5.2 2.2-5.5 4.1-10.5 7.8-15.5 11.6z"/><path class="st81" d="M301.5 131c-4.2.8-6.7 3.8-9 7-5.3 2.5-10.3 5.4-14 10.1-.6.3-1.3.7-1.9 1-5.5 3.7-11.1 7.4-16 11.9-3.5 2.5-7.6 4.1-10 8-3.7.4-5.7 3.7-8.8 5.2-1.2.6-2.5 1.4-3.4-.2-.7-1.4.8-1.9 1.6-2.6 3.5-2.9 7.9-4.7 10.7-8.5.9-3 3.6-3.9 5.8-5.4 6.3-3.3 11.7-7.9 17.5-11.9 2.3-1.4 4.5-2.8 6.5-4.7.3-.3.7-.6 1.1-.8 3.6-1.9 6.5-4.9 10.1-6.9.2 0 .5-.1.7-.1 2.6-.3 4.3-2.3 6.3-3.6 2.1-1.5 3.1-1 2.8 1.5z"/><path class="st74" d="M229.8 170.9c-.7 0-1.3.1-2 .1-5.6 4.3-10.9 1.6-16.1-.8-6-2.7-6.2-3.5-1.9-8-.2-.8-.5-1.6-.2-2.4.5-.8 1.2-1.2 2.2-1.1.9.5 1.2 1.6 2.1 2 1.4-.1 1.7-1.6 2.8-2 .4-.1.9-.2 1.3-.1 2.1 1.1 4.3 2.2 6.1 3.8.9.8 1.9 1 3.1.7.6-.1 1.2-.1 1.8.1.4.1.8.4 1.2.5 0-.6-.8-.6-.8-1.2.7-1.1-2-2-.2-3.2 3.9-.5 7.2 1 10.4 3.1 1 2.5-1.1 3-2.5 3.9-1.7 1.2-3.5 2.3-5.2 3.4-1.1.2-1.5-1.8-2.8-.9-.1.2.4 1.4.7 2.1z"/><path class="st82" d="M231.9 169.8c1-4 5.9-3.7 7.6-7-.2-.5 0-1 .4-1.3 1-.7 2.1-1 3.2-1.2 1.8-.4 3.1-.7 2-3.2-.9-1.9.1-3.7 2.3-4.1 3.9-.6 7.7-1.7 11.7-1.3 1.3.1 2.9.1 3.4 1.5.5 1.7-1.3 2-2.3 2.7-1 .9-2 1.7-3.4 1.9-2 1.7-4 3.3-6.1 5-3.3.9-5.9 3.1-8.3 5.2-3.3 3-6.5 4.1-10.5 1.8z"/><path class="st83" d="M46.4 133.9l-1.2-1.2c-.1-1.1.4-1.8 1.2-2.4 3.1-1 6.3-2 9.1-3.6 3.3-1.5 6.7-2.7 10.4-2.6 2.8.9 2.7 3.3 2.7 5.5 0 1.2-.2 2.3-.7 3.3-1.8 2-3.7 3.4-6.5 1.8-1.8.6-2.8 2.7-5 2.7-.8 0-1.5.4-2.3-.2-2.5-2-5-3.1-7.7-3.3z"/><path class="st84" d="M61.5 134.8c2.2.3 4-.8 5.7-1.9l.6-.3c.5.1.8.4 1.1.9.3 1 .2 1.9-.6 2.7-1.7.2-3.4.5-5.1.7-.3-.9-1.8-.9-1.7-2.1z"/><path class="st20" d="M172 92.1c1.8-.4 3.3.7 5 1.1 1.2.5 1.8 1.4 1.3 2.8-.6.7-1.9 1.4-.2 2.4.8.5 1.5 1.2.5 2.2-1 .7-2.2.7-3.4.8-1.2 0-2.4.2-3.6.2-1.4-.3-2.9-.6-4.3-.1-9.3 3.3-18.8 5.7-27.8 9.8-2 .4-3.9 1.3-5.9 2-4 .5-8 3.4-12.2.6.8-2.5-1.2-3.4-2.6-4.6-.1-.4-.1-.9 0-1.3 2.6-3 6.8-1.7 9.9-3.6 5.1-2.6 10.8-3.4 16.2-5.3 1.3-.5 1.3-1.1 1.1-2.1.9-.9 2-1.1 3.2-1 7.4.4 14.4-1.8 21.6-2.9.5-.3.8-.7 1.2-1z"/><path class="st85" d="M172 92.1v.9c-.9 1.6-2.3 1.5-3.9 1.3-3.8-.4-7.6-.9-11.4-1-2.8.3-5.6-1.8-8.4 0-1.2.5-2.4.1-3.4-.5l-2.4-1.5c-1.7-1.4-3.4-.6-5.1-.2-4.3 1.1-8.5 2.3-13 2.5-2 .1-3.9.2-5.4-1.6-.3-1.2.3-2 1.2-2.6.5-.2 1-.3 1.6-.4 4.3-.5 8.5-1.3 12.7-2.2 5.7-1.2 6-1.6 6.1-7.7V63.6c0-2-.1-4 1.3-5.7 1.8 1.1 1.1 3 1.1 4.5.1 6.6 0 13.2.1 19.8 0 1.6-.7 3.4 1 4.6 9.3 1.9 18.6 3.6 27.9 5.3z"/><path class="st20" d="M177.9 96c-.3-.9-.6-1.9-1-2.8 9 1 18 2.6 26.8 4.7 0 .3.1.7.1 1 .4 1.9-1 1.7-2 1.5-1.4-.3-2.7-.8-4.1-.8-3-1.6-6-.4-9.1-.1-2.8-.8-5.6-1.5-8.6-1.8-.9-.2-2.4.2-2.1-1.7z"/><path class="st21" d="M177.9 96c3.6 1.2 7.9-.2 11 3 3-1.2 5.9.2 8.9.1 1-1.3 2.2-1.1 3.3-.2.9.7 1.8 1.6 2.7.1.3.1.6.1.9.1.6 2.1 1.4 4.2-.6 6.1-1.3.6-4-1.3-3.5 2.2-.6.3-1.3.4-2 .1-2.6-2.6-5.9-3.2-9.3-3.4-3.8-.3-7.4-1.4-10.5-3.8-.6-.4-1.3-.9-1.9-1.3-.9-.5-2.7-.6-2.4-1.9.5-1.8 2.3-.8 3.4-1.1z"/><path class="st66" d="M203.8 105.1c1.3-1.9.4-4.1 1-6l1-1c.1.7.1 1.4.2 2.1.2.8 1 .9 1.7 1.1.5.8-.1 1.5-.3 2.2 0 1 .6 1.8.8 2.7 0 .7-.3 1.2-.7 1.7-.8.7-1.4 1.7-2.7 1.4-.9-.8-1.1-1.8-1.3-2.9-.1-.6 0-1 .3-1.3z"/><path class="st86" d="M142 58.1l.3 25.8c0 1.3.2 2.8-1.7 3.1-6.4 1.3-12.7 3.8-19.4 3 1.3-2.2.6-3.5-1.8-4.2V57.2c2-.1 3.9-.3 5.9-.4 4 .1 7.9.1 11.9.2 1.4 1 3.1.8 4.8 1.1z"/><path class="st38" d="M119.4 85.8c1.7-.1 3.3-1.7 5.3-.2-.3 2.1-2.1 3.1-3.5 4.4-.4 0-.9.1-1.3.1-.6.1-1.1 0-1.5-.4-.2-.3-.4-.6-.4-1 .1-.6.2-1.1.3-1.7.3-.4.7-.8 1.1-1.2z"/><path class="st87" d="M38.3 132.1c-.9-3.4-.8-7.2-5-9-1.3-.6-.7-2.7-.7-4.1.9-.7 1.6-.4 2.2.5.4 2.7 2.1 2.7 4.2 1.9 5-.6 9.6-2.7 14.6-3.2 4.4.5 8.6 0 12.8-1.6-1.6.6-3.2 1-4.9 1.2-.9.1-2 1-2.4-.6-.3-1.2.7-1.7 1.7-2.1 2.3-1 4.9-.9 7-2.3 2.4-.3 4.5-1.5 6.8-2.2 1.4.3 1.2 1.6 1.4 2.6.1.4.1.8.1 1.2.1 1.7.5 3.4-1.4 4.5l-1.2.6c-2.6 2.7-6 4.1-9.5 5.1-3.2 1.2-6.8 1-9.6 3.2-5.5 1-10.6 3.5-16.1 4.3z"/><path class="st88" d="M34.4 107.9c11.5-2.3 22.9-4.7 34.4-6.8 12.4-2.3 24.7-5.7 37.4-6.5 1.1-.1 2.1-.8 3.2-1.3 1.3 1.3 4.3-1.5 4.7 2-3 2-6.4 2.1-9.8 2.5-5.4-.8-10.3 1.2-15.4 2.4-15.3 2.6-30.5 5.7-45.8 8.7-2.5.5-4.9.8-7.4.2-.6-.4-1-.7-1.3-1.2z"/><path class="st42" d="M34.4 107.9c.3.1.6.2 1 .1 1 1 2.9.7 3.4 2.4-.2.7-.7 1.1-1.3 1.4-.9.5-1.8 1.1-1.2 2.3.6 1.1 1.7.9 2.6.7 3.4-.8 6.8-1.4 10.2-2.2 2.1-.5 4.2-1.1 6.4-.4.5.2.8.5 1.1.9-.6 2.6-2.9 2.4-4.7 2.8-4.9 1-9.8 2.4-14.8 3.4-.2.4-.4.8-.8 1.1-.7.2-1.3.2-1.8-.5-.7-.3-1.4-.6-2-.9 0-2.7.1-5.4.1-8.2.1-1.3-.1-2.7 1.8-2.9z"/><path class="st89" d="M38.3 132.1c4.8-3.3 10.6-3.6 16-5.2 1.1-.5 1.3.1 1.1 1-2.4 2.4-5.9 2.1-8.7 3.4-2.5.2-4.9 1.1-7.3 1.8-.3-.4-.7-.7-1.1-1z"/><path class="st38" d="M114.2 95c-1.2-1.9-3.6-.2-4.9-1.8 3.7.1 6.2-2.1 8.6-4.5.2.2.4.4.5.6-.3 3.4 2.7 7.1-1.1 10.2-2.2-.3-2.3-2.4-3.2-3.8.1-.2.1-.5.1-.7z"/><path class="st90" d="M39.4 133.1c2.3-1.1 4.2-3.7 7.3-1.8-.5.5-1 .9-1.5 1.4-1.9-.2-3.8 1.1-5.8.4z"/><path class="st91" d="M241.8 119.1c16.7 3.1 33 7.6 49.4 11.5 1.6.4 1.9 1 1.2 2.3v-.1c-3.7 2.6-7.3 5.4-11 8-2.4 1.7-4.6 3.5-7.2 4.8-5.1 4.9-10.7 7.5-18.2 6.9-8.4-.7-11.3-.7-19.5-4-4-1.6-8.4-2.1-12.6-3-2.1-1.9-6-1.2-6.8-4.8.5-.8.5-1.5-.4-2.1-1.2-3.3-.4-6 2.5-7.8 7.4-4.2 14.6-8.8 22.6-11.7z"/><path class="st92" d="M294.5 124c.9 2.4 3.3 1.7 5.4 2.5-2.4 2.8-4.6 3.8-8.4 2.8-15.2-4-30.5-7.5-45.8-11.2.3-3 2.6-3 4.7-3.1 2.1-.1 4.3.3 6.4.5 12 3.4 24.2 5.6 36.4 8 .4-.1.9.1 1.3.5z"/><path class="st87" d="M294.5 124h-1.1c-9-1.2-17.7-3.7-26.6-5.4-3.2-.6-2.9-2-1.9-4.1l.6-.6c9.1 2 18.3 4 27.4 6 2.9.6 5.4-.8 7.9-2.4 1.3 7.9.8 8.3-6.3 6.5z"/><path class="st93" d="M241.8 119.1c-6.4 5-13.9 7.9-20.8 12-3.3 2-4 4.3-3.1 7.6-.7.8-1.5.7-2.4.2-1.7-3-1.3-6.1-.6-9.2 4.5-4.9 10.9-6.7 16.5-9.9 1.7-1 3.6-1.8 5.4-2.5 1.1-.3 2.1-.2 2.9.6.4.9 1.3 1.1 2.1 1.2z"/><path class="st94" d="M286.5 113.2c4.1 1.8 8.5 2.4 12.9 2.8-2 2.3-4.2 3.1-7.4 2.2-5.1-1.4-10.3-2.4-15.5-3.1-2.5-.3-2.5-1.4-2.1-3.1 4.1.4 8.1.8 12.1 1.2z"/><path class="st95" d="M256.7 116c-1.7 1.2-3.4.7-5.2.2-2.2-.6-4.3-.1-5.8 1.8-1.4-.1-2.4-.8-3-2.1-.2-.9.4-1.3 1.1-1.7.7-.6 2.7-.1 2.3-.9-2.2-4.7 1-3 3-2.8 4.1.2 7.9 1.8 11.9 2.3 1.5 1 2.7 2.7 1.5 4-1.9 1.8-3.9-.3-5.8-.8z"/><path class="st96" d="M262.6 111.1c.1-1.2.5-1.5 1.9-1.3 3.4.4 6.6 1.8 10.1 1.1v1.2c-2.6 2.6-6.1.7-9 1.9-2.1 1-3.1.3-3-2v-.9z"/><path class="st97" d="M243.7 115c-.4.3-.7.6-1.1.9-1.4 0-2.4.7-2.9 2l-3 .3c1.3-4.4 4-5.6 7-3.2z"/><path class="st98" d="M243.7 115c-3.3-.9-5.3.8-7 3.3-6.8 3.9-13.5 7.8-20.8 10.6-2.5-3-1.5-6.4-1.1-9.7.2-.5.5-.9.8-1.3 7.2-2.6 14-6 21-9 1.1-.2 1.8-1.5 3.1-.9 7 1.4 13.9 2.7 20.9 4.1.3.2.3.4.3.6-.1.2-.2.3-.2.3l-14.4-2.4c-.5 2.3 1.9 2.5 2.8 4.4h-5.4z"/><path class="st99" d="M239.7 108c-.7.7-1.4 1.3-2.1 2-3.3-1.1-5.2 2.6-8.2 2.3-3.5.5-6.5 2.4-9.7 3.6-4 1.5-5 .7-5.3-4 4.6-3.2 9.8-4.8 15.2-5.9 3.6-.2 6.9.5 10.1 2z"/><path class="st99" d="M206.7 107.2l1.1-1.1c1.6-1.8 3.6-1 5.5-.8 2.3.3 4.7 1.3 7.1.1.6-.4-.3-1 .1-.5.1.2.1.4-.2.4-5 1-9.6-.5-14.2-2.2.6-.6 1.1-1.3 1.7-1.9 7.1 1.3 14.3 2.4 21.2 4.6-5 2.7-10.6 3.9-15.7 6.4-3.3-.4-5.7-1.8-6.6-5z"/><path class="st100" d="M260.6 112.9v-.9c.7 0 1.4-.1 2-.1.6 1.2 1.5 2 3 2-1.2 4.9 2.6 4.4 5.3 5 7.5 1.7 15 3.4 22.6 5-3.2 2-5.9-.5-8.8-1-8.1-1.5-16.1-3.3-24.2-4.9-1.5-.3-2.9-.6-3.8-2 1.6.3 3.2.6 5 .9.6-1.6-.6-2.7-1.1-4z"/><path class="st101" d="M212.7 112c5.1-2.8 10.5-4.7 16.1-6.2.3.1.5.1.8.2-4.5 3-9.8 4.1-14.8 6.1-.5.4-1.1.6-1.7.3 0-.1-.2-.2-.4-.4z"/><path class="st102" d="M77.3 141c-.8-1.6-1.9-2.8-3.7-3.1-.3-2.2 1.7-2 2.9-2.5 7-3.3 14.5-5.4 21.7-8.1 4.9-.4 8.5 3.1 13 3.9 4.4 2.2 9 4.1 13.6 6 2.5 1.1 3.7 2.6.5 4.4-2.8 1.4-6 2-8.8 3.6-2 2.9-.7 6.1-1 9.2-.3 3.1-1.3 4.7-4.7 3.5-4.1-1.5-7.9-3.5-11.6-5.7-4.6-3.6-10.3-5.3-15.2-8.3-2.6 0-4.1-2.7-6.7-2.9z"/><path class="st103" d="M110.8 158c2.5-.3 3.5-1.3 3.6-4.2.1-3.3-2-7.2 1.7-9.9.3.4.5.8.6 1.3-.1 1.7-.3 3.3-.9 4.9.2 1.4 0 3 2.4 2 3.2-1.4 6.5-2.6 10.2-4.1-3.3 1.1-5.9 2.5-8.7 3.3-1.6.5-3.2 1.4-3.7-1.3 2.3-3.2 6.2-3.3 9.4-4.9 1.9-.9 4-1.4 5.8-2.6 1.6-.5 3-.1 4.2 1.1 1.6 3.3.3 5.3-2.7 6.7-1.5.7-3 1.3-4.6 1.7-5.2 1.5-9.8 4.1-13.7 7.9-1.2-.7-2.4-1.3-3.6-1.9z"/><path class="st104" d="M114.4 159.8c2.8-8.3 11.3-7.5 17.3-10.4 2.8-1.4 3.9-2.6 3.3-5.4.7-.8 1.6-.8 2.6-.6 2.6 4.3-.7 6.3-3.4 8.5-4.7 1.9-9.3 3.7-14 5.7-1.5.6-3.2 1.3-1.9 3.5-1.4-.5-2.7-.9-3.9-1.3z"/><path class="st105" d="M84.1 143.9c5.5 1.5 10.3 4.7 15.4 7.2.1 0-.1.7-.2 1.1-5.2-2.6-10.9-4.2-15.2-8.3z"/><path class="st106" d="M198.7 169.2c-8.6-3.4-17.1-6.9-25.7-10.3v-1c.2-.2.4-.3.6-.5 4-.7 6.9 1.9 10.2 3.2 5.2 1.9 10.7 3.6 15.1 7.3.2.5.1.9-.2 1.3z"/><path class="st107" d="M151 161.9c-.3-1.5.4-2 1.8-2.1 3.1-4.6 8.2-5.2 12.8-6.7 2.5.3 4.6 1.6 6.7 3 .5.5 1 1.1.6 1.9v-.1c-8.4-5.1-14.6 2.3-21.9 4z"/><path class="st108" d="M134.1 151.9l-.2-.4c2.1-2.1 2.9-5 4.2-7.5 1.9-1.8 4.5.9 6.4-.9 1.8-.1 3.5.3 4.7 1.8 0 3.5-3.9 2.5-5.2 4.6-3 1.5-5.9 3-8.9 4.5-1.8.1-1.4-1-1-2.1z"/><path class="st109" d="M166 154c-4.6 1.6-9.1 3.3-13.2 5.9-.5-5.5-1.9-6.7-8.7-6.8 1.1-3.7 4.8-3.4 7.4-4.8 1.8-1 3.8-1.5 2.7-4.2 1-1.3 2.3-1.6 3.8-1.4 1.3 2.2 2.9 3.4 5.5 1.7.8-.5 1.9-.2 2.8.3.9.8 1.3 1.9 1.6 3 0 1.6.9 2.6 2.3 3.3 1.2.6 2.7 1.3 1.9 3.2-2.2 1.7-4.1-1.2-6.1-.2z"/><path class="st110" d="M68.4 132.9h-1.2l.3-3c1-2.4 3-3.3 5.3-4.1 3.8-1.2 7.5-2.4 11.3-3.8 1.6-.6 3.2-1.1 3.3-3.2.1-.7.2-1.4.4-2 .3-.6.7-1.2 1.2-1.7 3.8-1.9 7.6.1 8.9 4.5-.1 2 .1 4.1-.8 6-.2.4-.5.8-.8 1.1-6.2 3.4-13.2 4.7-19.7 7.2-2.1.8-4.4 1.4-6.1 3-.8 0-1.6-.1-2-.9-.1-1-.1-2-.1-3.1 7.9-3.9 16.6-5.2 24.7-8.5-8.1 3.1-16.8 4.5-24.7 8.5z"/><path class="st111" d="M70.4 137c-1.3-2.7 1.2-2.5 2.5-3 7.8-2.7 15.6-5.2 23.4-7.8 1.1 0 2.2 0 2 1.6-7.7 4.5-16.7 5.9-24.6 10-1.2.1-2.5.4-3.3-.8z"/><path class="st112" d="M158.2 143.2c-1.4.3-2.7.5-4.1.8-.4 0-.8.1-1.3.1-1.1.8-2.1 2-3.7 1.1-1.6-.5-3.2-.9-4.8-1.4-3.6-1.1-8-.9-9.7-5.5 1.3-3 4.8-2.6 6.8-4.5.1-.7 0-1.4-.5-2-.9-.8-2.2-.8-3.2-1.2-.6-.3-1.1-.8-1.4-1.4-.6-1.2-.6-2.3.8-3 2-.8 4.1-1.3 6.1-2.1.7-.3 1.4-.5 2.2-.7 3.4-1 6.8-.8 10.2-.5 1.8.5 3.4 1.4 4.5 2.9.3.5.2.9 0 1.4-1.8 1-3.7.8-5.6.2 1.8.8 3.7.8 5.5.2 3.8 0 7.5.1 11.3-.6 2.9-.6-.8-1.6.3-2.2.1-.5.3-.9.7-1.2 2.6-.9 5.3-1 8.1-.9 3.3.6 6.6 1 9.5 2.7.6.5.8 1.2.7 2-.4 1.6-1.7 2-3 2.6-1.1.5-.2.8.3 1.1.3.1.7.3.8.6.1 1-1.1 2.5 1.4 2 1.7-.3 3.5.2 5.2 1.1.9.5 1.6 1.1 2 2.1-.2 3.1-3.1 3.4-4.9 4.9-3.8 2.2-7.5 5-12.3 3.6-1.1 0-2 .6-3 .9-.9.1-1.7-.2-2.5-.6-.6-.3-1.1-.8-1.5-1.3-2-1.9-4-2.3-6.3-.6-3.1 1.7-5.7-1.9-8.6-.6z"/><path class="st113" d="M149.1 145.2c1.2-.4 2.5-.7 3.7-1.1-1.6 4-5.8 3.5-8.8 5.3.8-2.5 4.1-1.9 5.1-4.2z"/><path class="st114" d="M210.8 161.9c.5 1 3.6 2.7-.7 2.3-1.3-.1-2.3.8-2.5 1.9-.2 1.2 1.2 1.3 2 1.7 3 1.4 6 2.6 9 3.9 2.2 1 4.4 1.2 6.4-.5.8-.8 1.8-1.7 2.8-.2-2.6 1.8-5.2 3.5-7.7 5.3-1.4 1-2.8 1.1-4.2.5l-17.1-7.5c.1-.1.2-.3.3-.4 1.1-2.1-1-1.9-1.8-2.5-1.3-1-3.6-1-3.4-3.4.5-.4 1.2-.8 1.7-.6 4.6 1.8 4.8-.6 4-4.1.2-1.5.9-2.8 2.3-3.5 1.5-.1 2.2.7 2.5 2.1-.2 5.5-.2 5.5 6.4 5z"/><path class="st115" d="M199.8 192.2c-2.8 1.5-5.9 2-8.3-.4-1.6-1.5-1.1-4.2-.4-6.1 1.2-2.8 3.7-4 6.8-3.8 4.6 4.3 4.7 5.3 1.9 10.3z"/><path class="st116" d="M199.8 192.2c1.8-3.9.3-7.1-1.9-10.2 5.7 2.6 6.3 6.1 1.9 10.2z"/><path class="st117" d="M223.8 145c7.2-.3 13.7 1.5 19.3 6 1.9 1.5 3.5 2.3 5.8 1.5.9-.3 2-.5 2.9-.4 8.6 1.1 16.3-1 22.8-6.9.3.2.4.4.3.7-.1.2-.2.3-.3.3-4.7 4.9-11 7.7-16 12.1-.3.2-1.2-.3-1.8-.4 1.7-1.4 3.4-2.8 5.5-4.5-5.3-1.3-9.9.5-14.6.6-.9 0-1.7.3-1.9 1.2-.3 1.3 0 2.3 1.4 2.7.9.3 2.1.6 1.6 2-.3.9-1.3.9-2.1 1-2.3.4-4.5.8-6.8 1.2-1.2-.5-1.5-1.6-1.7-2.7 0-.5 0-.9.1-1.3.2-1.9.7-3.9-.4-5.7-5.7-1.1-11.2-3-16.7-4.9-1.1-.8-2.5-1.8-1.6-3.1 1.4-2 2.9-.2 4.2.6z"/><path class="st118" d="M281.5 141c3-3.6 6.7-6.2 11-8-3 3.6-6.7 6.2-11 8z"/><path class="st119" d="M274.6 146.1v-1c2.3-1.4 4.1-3.7 6.9-4.2-1.6 2.7-4.1 4.2-6.9 5.2z"/><path class="st120" d="M223.8 145c-1.2.3-2.5-1.6-3.5-.2-.6.9 1.2 1.3 1.5 2.2.5.5.9 1 1.3 1.5 4.4 2.5 8.8 5 14.1 4.3.6-.8.9-2 2.3-1.8-.1 2.7 1.2 5.6-.8 8.1-4-2.4-8.8-2.5-12.8-4.7 4 2.3 8.8 2.5 12.8 4.7.4 1.1.8 2.1 1.2 3.2-.1.2-.2.5-.4.7l-10.8-3c-3.3.4-6.1-1-8.9-2.4-1.2-1.5-.3-3.2-.3-4.8-.1-2.7-.3-5.3-3.6-6.1-.5 0-.9-.1-1.4-.3-.7-.4-1.2-.9-1.6-1.5-.2-4.6.5-5.2 5.1-4.7-.3 2.5 1.8 2.3 3.2 2.8 1.1.3 2.5.2 2.6 2z"/><path class="st121" d="M210.8 161.9c-2.2.3-3.7 3.9-6 2.1-2-1.6-3.1-4.3-1-7 1.6-2 1.2-4.4 1.6-6.7-.3-2.7.5-5.5-.9-8-.8-1.7-.5-3.3.8-4.7.8-.6 1.6-1.1 2.6-.7 1.5 1.9 1 4.3 1.4 6.5.5 2.5 1.3-.8 1.8.2 1.5.5 2.3 1.6 2.4 3.2-.7 2.3.3 4.7-.3 7-2.6 1.2-1.9 4.3-3.3 6.1.3.6.6 1.3.9 2z"/><path class="st3" d="M219.4 156.9c3.3.3 6.4 1.4 9.3 2.9-.3 1.1 2.3.8 1 2.3-1 .4-2.3.4-2.8 1.7-1.8 2-2.8 1.1-3.3-1-1-2.6-3.8-2.6-5.8-3.8-.4 0-.7-.1-1.1-.1-.1-.2-.1-.5-.2-.7.6-1.3 1.4-2 2.9-1.3z"/><path class="st122" d="M212.8 154c0-2.4-2.4-4.9.3-7.2.3-.5.2-1.4 1-1.6.3.3.6.5.8.8 1.2 5.4 2 10.8-1.2 15.9-2.2 0-1.8-1.5-1.9-2.9-.8-1.9-.3-3.5 1-5z"/><path class="st3" d="M213.7 161.8l1.2-15.9h.9c3 4.1 1 8.6 1 13-1.2.9-.2 4-3.1 2.9z"/><path class="st123" d="M212.8 154c.2 1.7.4 3.5-1 4.9-.6.3-1.3.6-1.9.9 0-1.7-.1-3.3 0-5 .1-3.2 1.7-1.3 2.9-.8z"/><path class="st124" d="M226.9 163.8c-.8-3.3 1.4-1.9 2.8-1.8.8 1.2 2.7 1 3.2 2.6-2.2.9-3.9-1-6-.8z"/><path class="st125" d="M217.9 159c2.6.2 5.9-.6 5.8 3.8-2-1.2-4.7-1.4-5.8-3.8z"/><path class="st126" d="M217.6 169c-2.4-2.3-2-3.9-1.3-5.6.1-.1.7-.2.9-.1 1.6 1.6.3 3.2.4 5.7z"/><path class="st127" d="M88.3 119c.4 2.7-1.2 3.3-3.4 4.1-5.8 2.3-12.2 2.9-17.4 6.8-.7-1.7 1.4-4.6-2.2-5.1-.4-.3-1.1-.4-1.1-1.1 2.9-2.2 6.9-2.5 9.2-5.7.8 1.3 3.6.6 3.1 3.2-1.7.8-3.6 1.2-5.3 1.9 4.3-1.1 8.4-3.6 13-4.3 1.3-.3 2.8-1 4.1.2z"/><path class="st128" d="M64.2 123.7c.4.4.8.7 1.1 1.1-3.3 1-6.6 2.1-9.9 3.1-.4-.3-.7-.7-1.1-1 2.9-2.4 6.6-1.9 9.9-3.2z"/><path class="st98" d="M145 91.9c1 .4 2.1.7 3.1 1.1 2.6-1.5 5.6 1.1 8.1-.9 3.8-.4 7.5.6 11.2 1.4 1.7.4 3.2.5 4.6-.4-.2 1.4-1 2-2.3 2-7.4.2-14.4 3.4-21.9 2.1-.5-.1-1.1.6-1.7.9-5.8 3.5-12.6 4-19 5.7-1 .3-2.2.1-2.9.7 1.6 0 3.4-1.7 4.9.6-2.8 2.6-6.9 1.1-9.9 3-1.6-1.6-1.4-3.4-.9-5.4 1.3-2.3 3.7-2.5 6-2.8 5.1-.7 9.7-3 14.7-3.9 2.6-.6 3.4-3.6 6-4.1z"/><path class="st129" d="M134.3 112c1.5-1 3-1.9 4.9-1.1 5.1-3.4 11.2-4.1 16.8-6.3 3.3-1.3 6.8-2.4 10.2-3.4 1.5-.5 3.1-1.6 4.2.6-.1 2-1.6 2.9-3.1 3.4-12.1 3.8-23.6 9-35.8 12.4-1.6 0-3.1-.3-4.2-1.5.9-3.8 4.9-2.4 7-4.1z"/><path class="st130" d="M129.1 105c-2.8-1.2-5.3.7-8.2.4 8-3.8 16.8-4.9 25.1-7.4.4 1.4.5 1.5-.2 1.7-4.1 1.4-8.1 3.2-12.3 4-1.6.3-2.8 1.3-4.4 1.3z"/><path class="st131" d="M170 101.9c-1.6-1.6-3.1-.3-4.6.2-8.8 2.9-17.5 5.9-26.3 8.8 0-2.2 2-2 3.2-2.5 8.3-2.9 16.6-5.6 24.9-8.4 1.9-.7 3.4-.8 4.7 1.1 1.3-.8 2.2-.7 2 1.2-1.4.9-2.7.8-3.9-.4z"/><path class="st132" d="M178.9 100.2c5.4 1.6 10.9 2.9 16.6 3.5 2 .2 2.3 2 3.2 3.3-.6.7-1.3.9-2.2.9-6-1.4-12-3.2-18.1-4.5-1.7-.4-3.8-.6-3.4-3.2 1.4-.1 2.6 0 3.9 0z"/><path class="st133" d="M119.2 102v6.1c-.1.2-.2.5-.2.8-2.1.2-2.3-1.8-3.3-2.9.3-2.3-2.5-4.9.5-7.1 2 .3 2.3-1.1 1.9-2.4-.8-2.5 0-4.8.4-7.1.5.3.9.5 1.4.8-.2.6-.3 1.3-.5 1.9 1.4 1.8 1.1 3.9 1.2 5.9 0 1.4.4 3-1.4 4z"/><path class="st134" d="M175.1 100.1c.6 1.8 2.1 1.7 3.5 2 6.1 1.4 12.4 2.5 18.3 4.9.3.6.2 1-.3 1.4-7.4 0-14.3-2.8-21.4-4.5-.8-.2-1.4-.9-1.2-1.9-.4-.8-1.2-.9-2-1 .7-1.2 1.9-1 3.1-.9z"/><path class="st135" d="M134.3 112c-1.9 2.3-5.4 1.6-7.2 4-.2.1-.3.3-.5.4-1.7.8-3.8-.5-5.4.9-.4.1-.9.1-1.3-.1-2.6-1.6-4.4-3.5-2-6.6 1.7-.2 2.6.8 3.1 2.3 4.7 2.6 8.9-1 13.3-.9z"/><path class="st136" d="M121 112.9c-1-.7-1.9-1.5-2.9-2.2-2.5-.8-3.5-2.2-1.9-4.7 2.5-.6 1.3 2.4 2.8 2.8 2-.1 3 1.7 4.6 2.6-.9.5-1.7 1-2.6 1.5z"/><path class="st100" d="M119.4 99c0-2.3 0-4.7-.1-7 6.9 1.7 13.2-.9 19.7-2.6 2.2-.6 3.3-.7 4.1 1.5.4 2.1-1.3 3.4-2.6 3.7-7 1.6-13.7 4.8-21.1 4.4z"/><path class="st137" d="M119.4 99c5.2-1.5 10.3-3.3 15.7-4 3.1-.4 6.1-1.1 8-4 .6.3 1.3.6 1.9 1-1.3 3.7-4 4.9-7.8 5.8-6 1.5-11.8 3.6-18 4.3.1-1.1.1-2.1.2-3.1z"/><path class="st138" d="M156.2 92c-2.4 2.8-5.2 1.8-8.1.9.2-2.3 1.8-2.1 3.2-1.7 1.6.6 3.2.8 4.9.8z"/><path class="st20" d="M197.8 99c-3 2.7-5.9-.8-8.9-.1 3-1.5 6-2.8 8.9.1z"/><path class="st139" d="M203.8 105.1c0 .3.1.6.2.9.4 1 .5 2-.8 2.3-1.1.3-1.8-.3-2.2-1.4-.9-1.1-1.8-2.2-2.8-3.5 2.6-1.3 4 .6 5.6 1.7z"/><path class="st20" d="M201 107c1.4 1 2.8 1.8 3-1 1 .7.8 1.8.8 2.8.8.6 1.6 1.2 1 2.4-.4.3-.9.4-1.4.4-2.6-1.1-5.5-1.5-7.6-3.8v-.8c.6 0 1.2 0 1.9-.1.8 0 1.5 0 2.3.1z"/><path class="st87" d="M206 103.1c5.2-.5 9.9 1.8 15.5 2.2-4.8 3.7-9.4 0-13.7.8-1.2-.7-2-1.6-1.8-3z"/><path class="st140" d="M205.7 111.1c-.3-.8-.6-1.5-.9-2.3 1.4.3 1-1.4 1.9-1.6 2 1.6 4 3.2 6.1 4.9l.1-.1c.2.2.3.5.3.8 0 .3-.1.4-.1.4-.8.9-1.9 1.3-3 1.5-.5 0-.9-.1-1.3-.2-1.4-.9-3.1-1.4-3.1-3.4z"/><path class="st141" d="M89.3 116c-.3.4-.7.7-1 1.1-4.5 1.7-8.3.3-12-2.2-.4-.3-.7-.7-.9-1.1v-.7c1-2.5 4.4-2.6 5.4-5.2 1.4-.6.9-2.1 1.3-3.1.6-.7 1.4-1.1 2.3-1.4.5-.1.9-.1 1.4 0 3.7.5 7.3 1.5 10.9 2.3 3.2.7 6-2.1 9-.4.4.2.7.6.9 1 0 2.8 1.8 4.9 3.2 7.1 2.2 2.3 2.8 4.4-.5 6.2-2.8 0-5.7.2-7.7-2.4-.3-1.2 0-2.2 1.8-3.4-5.9 1.1-10.8-.4-15.7.2 1 .4 2 .6 1.6 2z"/><path class="st142" d="M84.4 104.1c-.5.8-1.3.8-2.1.8-.9 1.1-2 1.5-3.1 1.4-.9-.1-.3.6-.2.5 1.2-.7 2.4-.8 2.6 1.1 0 4.2-4 3.6-6.2 5.1-1.2-.6-.4-1.4-.2-2.2-3.2-5.6-8.5-3.6-13.3-3.8-.6-.5-1-1.1-.8-2 6-2 12.2-3 18.4-4 1.3.2 2.6.5 3.8 1 .9.7 1.4 1.2 1.1 2.1z"/><path class="st143" d="M62.6 107.1c3-1.6 5.9-1.8 9.3-.9 2.8.8 3.5 2.3 3.4 4.7-2.4.7-4.2 3.2-7.2 2.2-.9.7-1.8.7-2.8.4-1-.3-1.9-.8-2.6-1.6-1.2-1.5-1.9-3.1-.1-4.8z"/><path class="st2" d="M65.4 112.9c.9.1 1.8.2 2.8.3-1.7 3.6-6 1.1-8.3 3.7 2.7 1.1 5-1.5 7.6-.3-4.6 1-8.8 4.2-14 2.4-.9-.5-1.8-1.1-.9-2.4 4-2.1 8.3-3.3 12.8-3.7z"/><path class="st142" d="M76.3 114.1c3.7 2 7.9 2.6 12 3v1.9c-1.4.3-2.8.6-4.1.9-2.8-.8-5.2 1.7-7.9.9-.7-1.2-3.2-.6-2.9-2.8.4.1.8.1 1.2.2 4.2.2.4-3 1.7-4.1z"/><path class="st144" d="M52.5 117c.3.6.7 1.3 1 1.9-5 1.1-9.6 3.9-15 3.1-1.1-.1-2-.4-2-1.7v-1.2c3.9-.2 7.6-1.6 11.4-2.4 1.6-.3 3.1-1.1 4.6.3z"/><path class="st145" d="M36.5 120.3c.7.6 1.3 1.2 2 1.7-.8 1.9-2 1.7-3.4.8-1.2-.8-1.9-1.7-.5-3 .6.1 1.2.3 1.9.5z"/><path class="st146" d="M76.3 114.1c.1 2.1 1 3.3 3.4 3.4-1.9-.2-3.3 1.8-5.1.6 2.1-1.1-.9-3.2.8-4.4.3.2.6.3.9.4z"/><path class="st147" d="M80.3 102c-6.5.4-12.8 2.1-19.1 3.9-.3.4-.7.8-1.2 1-2.7.6-5.4 1.1-8 2.1-3.9.6-7.6 1.7-11.5 2.1-.8-.1-1.6-.3-2.2-.9-1.4-.2-2.3-1-3.1-2.1 5.9.4 11.4-1.6 17-2.5 12.3-2 24.4-5.4 36.9-6.5.5-.5.9-.4 1.3.1-.7 2.7-3.3 1.9-5 2.7-1.6.2-3.3 0-5.1.1z"/><path class="st38" d="M85.1 100.8c1.4-1.6 3.8-.1 5.2-1.8 4.5-.8 8.8-3 13.6-2.2 3.4-.6 6.8-1.2 10.3-1.8 1.1 2.6-.6 4.3-1.8 6.2-.7.4-2 .8-2.3.3-2.1-4-5.1-2.1-7.9-1.5-4.9 1-9.7 2.1-14.7 2.5-1-.2-1.9-.6-2.4-1.7z"/><path class="st81" d="M103.9 96.8c-4.7-.2-8.9 2.5-13.6 2.2h-1.1c4.8-1.5 9.5-3.9 14.7-2.2z"/><path class="st99" d="M52.2 107.8c2.6-1.4 5.3-2 8.2-1.7 2.9 4.8 1.6 6.6-4.9 7-5.3-.1-10.2 2.2-15.4 2.8-1.7.2-4.3 3.2-5.5-.9-1.1-3.7 1.6-4 3.9-4.7h2.2c3.6.4 7.2-1 10.8-.4.8-.1 1.7-.9.7-2.1z"/><path class="st95" d="M52.5 117c-3.6.8-7.3 1.5-10.8 2.5-1.9.6-3.5.3-5.2-.5 4-2.9 9-2.7 13.5-4 2.2-.6 4.6-.6 6.5-2 2.4-.2 4.5-2.5 7.1-1 .7 0 1.4.2 1.8.9-4 2.6-8.6 2.8-12.9 4.1z"/><path class="st66" d="M63.6 112c-2.4.3-4.8.7-7.1 1H56h-.5c2.3-1.9 8.4-1 4.9-7 .3 0 .6-.1.9-.1l1.3 1.3c-.3 1.7-.2 3.4 1 4.8z"/><path class="st148" d="M112.2 101c-.4-2.4 1.9-3.8 2-6 .7 1.3 3.3 1.6 1.9 3.8-.2 2.4 1.3 4.7.1 7.1-.3 2 .8 3.3 1.9 4.7-1.4 2.8.6 4.4 2.3 6.1 1.3 1.4 2.2 2.9 1.5 4.9-.3.7-.8 1.2-1.5 1.6-.6.2-1.5.2-1.8-.4-1.5-3-3.7-2.1-5.9-1.1-1.7-.2-2.9-.8-2.8-2.8 1.5-1.9-.1-3.3-.8-4.9 1.6-2.2 1.3-4.9 1.7-7.4 0-1 0-1.9.1-2.9.2-1 .6-1.9 1.3-2.7z"/><path class="st149" d="M254.6 139c-1.2 4-3.9 5.8-7.9 4.3-2.7-1-5.1-2.8-2.8-6.4 2.8-2.1 5.6-1.5 8.5-.2.9.6 1.4 1.5 2.2 2.3z"/><path class="st150" d="M252.5 138c-2.7-1.7-5.7-.7-8.6-1-2.7-2.8 0-3.7 1.8-4.9 1.4 1.2 3.4.9 5 1.9 1.5.9 3.3 1.6 1.8 4z"/><path class="st151" d="M252.5 138c.4-2.2-1-2.6-2.8-3.2-1.5-.5-3.8-.2-4-2.7 6.6-.2 8.7 1.5 8.9 7-.9-.1-1.8-.1-2.1-1.1z"/><path class="st152" d="M214 145.2c-.3.5-.7 1.1-1 1.6-.2-1.2-.7-2.3-2-2.9-1.1-4.2 0-5.4 4.7-5.1h2.1c.8.4 1.1.8 0 1.2-3.2.2-5.6 1.1-3.8 5.2z"/><path class="st124" d="M215.7 138.8c-2.7.7-5 1.7-4.7 5.1-1.1.8-2.4 2.2-2.9-.4-.4-2.2-.4-4.5-.5-6.7-.4-.4-.6-.8-.8-1.3-.7-2.9.1-5.9-.8-8.7-2-5 .7-8.8 3.5-12.5 1-.4 2.1-.8 3.1-1.2 2.2.9 3 2.8 3.2 5V129c.1 3.2 0 6.5-.1 9.8zM229.5 111.8c2.8 0 4.8-4 8.1-1.8-6 2.6-12.1 5.3-18.1 7.8-.9.4-1.9 1.6-3 .2 3.5-3.9 8.3-5 13-6.2z"/><path class="st153" d="M229.5 111.8c-4.3 2.2-9.1 3.2-13.1 6.2h-.6c-1.1-1.7-2.2-3.3-3.2-5 .1-.3.1-.7.2-1 .7 0 1.4.1 2.1.1.2 3.5 1.6 4 4.8 2.6 3.1-1.4 6-4 9.8-2.9z"/><path class="st154" d="M135.2 138.4c2.2 3.2 6.5 3 9.1 5.4-2 2.8-4.1.6-6.2.1h-3.2c-1.1-.7-2.3-1.1-3.6-.9-.5-.3-.7-.9-1.1-1.4-1.4-.6-2.9.5-4.3 0-.4-.2-.7-.4-1-.8 1.2-.9 1.8-1.6-.3-2.4-4.7-1.8-9.5-3.4-13.7-6.2.1-.2.2-.4.4-.6 4.6-1 8 2.2 11.9 3.5 1.8.6 3.7 2.6 5.7.3 2.4-.4 4.6 0 6.5 1.6.3.5.2 1-.2 1.4z"/><path class="st155" d="M98.2 127.9c-.7-.5-1.3-1.1-2-1.6.1-.5.1-.9.2-1.4 1-.3 1.9-.2 2.8.1 4 2.4 9.4 2.2 12.1 6.8l-.4.4c-4.1-1.4-8.4-2.9-12.7-4.3z"/><path class="st156" d="M116.2 144.8c0-.3-.1-.6-.1-1 3-1 6-2 8.9-3.1l.1.2c-1 4.4-5.4 3.5-8.1 5.3-.7-.1-1.5-.3-.8-1.4z"/><path class="st157" d="M116.2 144.8c.4.3.8.6 1.1.9 4.8-2 9.4-4.7 14.8-5-.2.8-.5 1.5-.7 2.3-4.5 3.6-10.3 4.4-15.2 6.9-.3.5-.5.5-.7 0-.1-1.7-.8-3.6.7-5.1z"/><path class="st104" d="M115.4 149.9h.7c2.1 2.4 4 0 5.8-.5 3.2-.8 6.1-2.9 9.5-3.3.2.4.3.8.5 1.2-5.1 2-10 4.2-15.2 5.7-2.7.8-.7-2.1-1.3-3.1z"/><path class="st158" d="M193.6 162.9c1.9 1.7 4.3 2.4 6.6 3.3.7.3 1.7.8 1.4 1.8-.4 1.3-1.6.8-2.5.8-8.4-4.4-16.9-8.3-26-10.8-.3-.4-.6-.7-.9-1.1-.6-.5-.6-1.1-.5-1.8.4-.5.9-1 1.4-1.4 1.1-.3 2.1.1 3.2.3.4.1.8.3 1.2.4.8.4 1.5.8 2.2 1.4 2.1 2.1 4.9 2.5 7.6 3.2 2.1 1 4.7 1.6 6.3 3.9z"/><path class="st159" d="M172 154.9c0 .7 0 1.3.1 2-2-1-4-2-6-2.9 2-2.2 4 .7 6 0 .3.2.4.4.3.7-.3.1-.3.2-.4.2z"/><path class="st160" d="M172 154.9v-1c-.7-1.8-2.4-1.9-3.9-2.4-2.1-.8-2-2.1-1-3.7 2.5-1.3-1.1-1.4-.4-2.3 0-.5.2-.8.7-1.1 2.2-.1 4.3-1.4 6.6-.5.3.3.6.7.9 1-.2 3.1 2.3 6.7-1.7 9-.4.4-.8.7-1.2 1z"/><path class="st161" d="M158.2 143.2c1.1-2.2 2.7-1.5 4.4-.9 1.1.4 2 2.1 3.4.6 1.7 0 1.7.8.9 2v-.1c-.3.5-.6.6-.9.1-2.8-.4-4.8 1.9-7.4 2.3-1.4-1.1.9-2.7-.4-4z"/><path class="st158" d="M166 145c.3-.1.6-.1.9-.1.8 1.9 3.8 1.3 4.3 3.6-1.6 1-2.9 0-4.1-.7-.3-.9-.7-1.9-1.1-2.8z"/><path class="st162" d="M89.3 116c-.9-1.7-3.3-.4-4.4-2.6h22c-.9 2.6-4.8.5-4.7 3.6-.6 1.4.4 3.2-1.1 4.3-1.8.8-3.1.3-4.1-1.3-.9-3.4-5-5.5-7.7-4z"/><path class="st163" d="M68.4 132.9c2.3-4 6.8-3.2 10.3-4.5 5.2-2 10.4-3.8 16-4.4-8.4 3.9-17.4 6.3-26.3 8.9.1 0 0 0 0 0z"/><path class="st164" d="M97.1 120.1c1.4.3 2.8.6 4.2.8 2.8.3 5.4 1 7.3 3.3.1.4.2.9.1 1.4-.2.4-.5.7-1 .8-1.5 0-3 .5-4.5.4-1.6 0-2.8-1.9-4.7-1.1l-2.1-.9c.3-1.5.5-3.1.7-4.7z"/><path class="st165" d="M196.9 107.8c2.8.6 5.6 1.2 7.9 3.2-.3 2-.5 4.7-2.5 5.1-7.3 1.4-13.5 5.9-20.9 6.8-3.2-.5-6.1.7-9.2 1l-.2.1c-2.2 5-5.9 1.3-8.9 1.5-1.4-.2-1.6-1.2-1.6-2.5-.1 1.1-.4 1.9-1.1 2.7l-.6.3c-1.7.1-2.5-1.5-3.9-2.1-3.5-.6-7-1.5-10.5-.3-3.4-.7-7.5.5-9.4-3.8.4-.3.8-.4 1.3-.5.2 0-.2-.2-.3-.2-2.1-.3-4.5.1-5.8-2.4 11.4-4.2 22.6-8.7 34.2-12.2 1.7-.5 3.5-1.1 4.6-2.7 1.3 0 2.6.1 4 .1 7.4 2.8 15.2 4.1 22.9 5.9z"/><path class="st166" d="M209.5 114.2c1.8 3.1-3.6 3.9-2.3 7.2.2.5-.3 3-.2 4.6.9 3.3-.3 6.8.7 10.2-.1.2-.1.3-.1.5-.6.5-1.1 1-1.6 1.4-.7-.1-1.2-.5-1.5-1.1-.2-.4-.3-.8-.3-1.2-1-1.3-.8-3.1-1.8-4.5-3.2.5-5.1 2.9-7.5 4.4-1.1-.3-2.3-.9-3.3-.8-2.7.3-4.3-.5-4.6-3.3-.2-1.9 1.1-2.2 2.5-2.4 1 .6 1.8-.1 2.7-.5 2.9-1.6 6.3-1.7 9.4-3.8-1.6.7-2.8 1.7-4.4 1.6-1.1-2.2-1.1-2.1 1.5-3.9 2.2-1.5 5.4-2.4 3.9-6.3 1.6-2 3.6-3 6.2-2.4.2.3.5.3.7.3z"/><path class="st3" d="M202.9 116.8c2.5 1.8 2 3.4-.4 4.8-2 1.2-4 2.5-6 3.8 0 0 0 .3.1.4.1.1.2.2.4.3-.7 2.5-3.9 1.8-5 3.8-.7.2-1.4 1.2-2.2 0-.5-.7.1-1.4 0-2.1 0-.7.1-1.3.1-2-1.5-1.2-4.8-.6-4.8-2.4 0-2.8 3.4-2.7 5.4-3.2 4.2-.9 7.6-4.5 12.4-3.4z"/><path class="st167" d="M121.2 122c-.2-1.7-.5-3.5-.7-5.2.3.1.5.2.7.3.4-.3.8-.5 1.4-.5 3.3.9 6.7 1.6 10 2.7 3 1.2 5.6 3.2 9 3.5 1.1.1 2.1.9 1.6 2.4-1.8 1.4-3.8 2.1-6.1 1.8-6.5 1.8-11.7-.1-15.9-5z"/><path class="st87" d="M175.3 137.1h4c.8.1 1.8.2 1.9 1.2.2 1.3-1 1.6-2 1.6-2.8.1-5.6.2-8.4.1-6.6-.2-13.2.6-19.8 1-1.1.1-2.7.2-2.6-1.4 0-1.6 1.5-1.4 2.7-1.5 8.5-.3 17.1.5 24.2-1z"/><path class="st168" d="M178.9 143.9c5 2.2 8.8-1.2 13-3 2.3-.9 4.5-.5 6.6.4.4.3.6.7.7 1.2-.4 1-1.3 1.9.3 2.7 1.2.6 2 1.6 1.7 3.1-.5 1-1.4 1.4-2.4 1.6-2.4.2-4.5-.7-6.7-1.4-3-.9-6-1.5-9.1-.6-1.7-.1-3.2-.5-4.4-1.8-.3-.7-.2-1.4.3-2.2z"/><path class="st84" d="M202.9 116.8c-5.8 2-11.6 4.1-17.7 6.2 1.4 1.8 4 .8 4.7 2.9-3.4-.2-6.6-1.1-9.8-2.3 0-.5.2-.8.7-1 4.3-1 7.9-3.6 12.2-4.7 1.5-.4 3.2-.9 4.9-1.4 3-.9 5.8-2.2 7-5.5.3.1.6.1.9.1.9 1.2 2.8 1.3 3.1 3.1-1.9 1.3-4.5.7-6 2.6z"/><path class="st169" d="M163 124.9c.8-1.2 2.2-1.4 2.9-.7 2.3 2.6 4.1 1.2 6.1-.3.1 3.2 3.4 1 5 3.5-5.9.6-11.3 2.6-17 .6-.5-.4-.5-.9 0-1.3 0-.3-.1-.6-.1-.8l.5-.1c.5-.9 1.9-.1 2.6-.9z"/><path class="st110" d="M194.9 135.9c.7-4 4.5-4.4 7.2-5.9 1.8-1.1 1.8.8 2 1.7.4 1.4.5 2.9.8 4.3-2.4 2.4-5 4-8.1 1.1-.7-.5-1.3-.9-1.9-1.2z"/><path class="st71" d="M196.8 137c2.9 1.2 5.4-.9 8.1-1.1 0 .3-.1.6-.1.9-1.1 2.7-2.4 5.2-5.9 5.1-2.4.4-4.6-.4-6.9-.9 1.1-1.9 4.1-1.5 4.8-4z"/><path class="st170" d="M178.9 143.9c0 .6 0 1.3.1 1.9.1 1.5 1.5 2.7 1 4.3-.1 3.3 3 2.1 4.5 3.3 1.8 1.4 6 1.8 5 4.2-1.1 2.7-4.2-.2-6.5-.6-2.1-.4-3.5-2.5-5.9-1.9-.4-.1-.8-.1-1.1-.2-.8-3.1-1.5-6.3.9-9.1.6-.6 1.3-1.2 2-1.9z"/><path class="st171" d="M121.2 122c2.6-.4 3.4 2.4 5.6 3.1 3.4 1.1 6.8 1.2 10.2 1.8-1.3.8.4 1.4.1 2.1-.3.7-.7 1.3-1.5 1.5-5.5-1.2-10.9-2.8-15.6-6.2-.2-.5-.2-1 .2-1.4.3-.3.6-.6 1-.9z"/><path class="st172" d="M179.5 126c2.2 3.7 3.7 6.3 5.2 9 .3.6.1 1.4-.6 1.6-.3.1-1.1-.1-1.3-.4-1.4-2.8-3.9-5.2-3.3-10.2z"/><path class="st173" d="M160 126.8v1.3c-2.6 2.8-5.4.4-8.1.4-.2 0-.6-.8-.5-1.2.1-1 1-1.3 1.8-1.2 2.2.2 4.5.5 6.8.7z"/><path class="st162" d="M166.9 144.9c-.1-.8-.1-1.6-.9-2 3.1-3.1 5.6-1.9 8 1-2.2 1.6-4.6 1.6-7.1 1z"/><path class="st174" d="M145.2 139.3c.5-3.4.7-5.9 1.2-8.4.1-.8.6-1.7 1.7-1.4 1.1.2 1.1 1.3.7 2-1.3 2.1.1 5.3-3.6 7.8z"/><path class="st175" d="M176.8 145.9c-1.5 2.9-.4 6.1-.9 9.1l-2.7-.9c2.5-2.6-1-6.4 1.7-9 .6.2 1.3.5 1.9.8z"/><path class="st176" d="M143.1 125.1c-2.8-3.6-7.9-2.2-11.1-5.1 1.1-1.1 2.3-1.1 3.5-.1 3 1.9 6.4 2.1 9.7 2.8.4.7.4 1.4-.3 2-.5.1-1.2.2-1.8.4z"/><path class="st177" d="M145 124.7c.1-.7.2-1.3.3-2 3.7-1.2 7.2-.3 10.6 1.3-3.6.5-7.4-1-10.9.7z"/><path class="st178" d="M180.7 122.6c-.2.3-.4.6-.7 1-2.6.6-5.3.5-8 .3 2.9-.7 5.4-3.5 8.7-1.3z"/><path class="st179" d="M135.2 138.4c-.1-.5-.2-1.1-.3-1.6-.2-.3-.3-.7-.3-1.1.1-.2.1-.4.2-.6.1-.1.3-.3.5-.4.9-.3 1.9-.3 2.8-.6.4-.1.8-.1 1.1-.2 1-.1 1.9-.1 2.9 0 .6.2 1.4-.3 1.6.6.3 1.2-.8 1.4-1.5 1.4-2.7-.3-4.8 1.3-7 2.5z"/><path class="st180" d="M138.9 134.7h-.6c-3.5-1.4-3.5-1.9-.1-4.8 1.5-.1 2.8.2 4 1.1-.2 2.2-2.1 2.6-3.3 3.7z"/><path class="st181" d="M189.8 127.9c1.4.7.1 1.4 0 2.1-1.3 0-2.2.7-2.9 1.8-1.1 0-2.5.9-2.8-.9-.2-1.2 1-1.6 1.9-1.9 1.3-.4 2.5-.7 3.8-1.1z"/><path class="st182" d="M138.2 129.9c.3 1.6-3.9 3.2.1 4.8-1 .8-1.9 1.1-3.1.3-2.3-2.1-1.8-3.7.9-4.9.3-.4.6-.8 1-1.2.3.4.7.7 1.1 1zM138.9 134.7c-.4-2.6 2-2.6 3.3-3.6 1.6 1-.1 1.9-.1 2.9-.9 1.1-2.1 1-3.2.7z"/><path class="st183" d="M177.1 155.2c1.9-2.6 3.5 0 5.2.4 2.3.6 4.5 1.6 6.9 2.1-2.9-2.5-6.5-3.7-10-4.8-1-.3-2-.9-1.7-2 .3-1.2 1.7-.7 2.6-.9h.7c2.4.5 4.6 1.5 6.9 2.1.4.1.8.3 1.2.5 2.5 1.2 5.1 2 7.8 2.5 1.4.8 3.7.4 3.4 3 3.3 1.4-.3 4.4 1.4 6.3-1.8 1.3-3-.5-4.4-.8-1.1-.2-2.2-.4-3.4-.6-2.4-.4-4.3-1.8-6.4-2.9-2.6-1.5-6-1.2-8-3.9-.8-.4-1.5-.7-2.2-1z"/><path class="st17" d="M182.8 147.1c3.7-2 7.2-.4 10.7.6 1.7.5 3.4.9 5.1 1.3 2.7.4 5.3 1 8 .8.5 2.4-1.1 4.6-.7 7.1.2 1.3-1.4 0-2.2 0-.6-.7-1.3-1.3-1.9-2-6.7-1.5-13.6-2.8-19-7.8z"/><path class="st184" d="M182.8 147.1c6.2 3.1 13.1 4.3 19.1 7.9-.7 1-1.3 2.1-2 3.1-.8-1.5-2.7-1-3.7-2.1-2.7-1.2-5.7-1.8-8.4-3-2.5-1.4-5.3-2-8-3-.6-1.3-3.6-2-1-4.1 1.5.4 2.7.8 4 1.2z"/><path class="st185" d="M204 167.3c5.2 2.1 10.4 4.1 16.1 6.5-4.5 1.3-12.7-1.7-16.1-6.5z"/><path class="st186" d="M221.8 148.8V147c2.2.5 4.6.6 6.6 1.5 3.6 1.7 7.3 2 11.1 2.4-.6.8-1.2 1.5-1.9 2.3-5.8.5-10.7-2.6-15.8-4.4z"/><path class="st180" d="M216.8 158.9c-2.1-4.2-.3-8.7-1-13 .5-2.7 1.6-1.9 2.7-.4 2.7 3.6 3.2 7.3.9 11.3-1.3.3-2.2.9-2.6 2.1z"/><path class="st187" d="M238.7 158.9c-6-.2-11-3.3-16.5-5.2 3.7-1.8 6.4.9 9.4 1.8 2.5.8 6-.1 7.1 3.4 0 .1 0 0 0 0z"/><path class="st103" d="M221.8 148.8c5.5.5 10.4 3.4 15.9 4.4.1.7 1.5 2.5.1 2-5.5-1.8-11.6-2.1-16-6.4z"/><path class="st188" d="M206.7 149.9c-3 3.1-5.4 0-8-.8.9-.1 1.7-.2 2.2-1.1.3-.4.7-.6 1.1-.9-4.9-4.2 0-3.5 2.1-4.4.6-.3 1.3-.2 1.8-.7 1.8 2.4.1 5.3.8 7.9z"/><path class="st189" d="M205.8 142l-1.2 1.2c-1.9.3-3.9.4-5.8-.2 0-.3 0-.7-.1-1 2-1.7 4-3.4 5.9-5.1.4.4.8.9 1.2 1.3-.4 1.2-1.9 2.4 0 3.8z"/><path class="st190" d="M76.2 120.8c2.6-.3 5.1-2.5 7.9-.9-5 1.4-9.9 2.9-14.9 4.3 1.9-2.4 4.5-2.8 7-3.4z"/><path class="st135" d="M135.6 119.9c-1.2 0-2.3.1-3.5.1-3.5-.7-7.1-.9-10.1-3.2 1.5-1.7 3.8.9 5.3-.9v.1c1.4.3 2.7.5 4.1.8 2.6.8 5.2 1.7 8.7 2.8-2.2.2-3.4.2-4.5.3z"/><path class="st148" d="M127.2 116c0 .7 1.3 2.1-.7 1.6-1.5-.4-3-.8-4.6-.7-.3 0-.5.1-.7.1 1.3-4.4 4.1.3 6-1z"/><path class="st184" d="M136.1 130.1c-1.8 1.3-1.3 3.1-.9 4.9l-.1-.1c-.9.6-1.9.5-2.9.2-8.1-3.2-16.5-5.7-24-10.2-1.8-2.3-5.5-1.2-7-3.9.2-1.4-.5-2.9 1-3.9 2.4 1.4 5.1 1.4 7.7 1.9.7 1.2 1.6 2.1 3.1 2.1 2.6.3 5 1.3 7.1 2.9 5.4 2 10.7 4.1 16 6.1z"/><path class="st191" d="M112.2 101v3c-1.3 2.2-3.2 2.4-5.4 1.8-.9-.4-1.9-.6-2.7-1.1-.5-.4-.9-.9-1.1-1.5-2.2-.7-4.4.2-6.4.7-3.9 1-7.6 1-11.5.2-.2.1-.4.1-.6.1l-1.1-1.1c.7-2.6 2.5-1.4 3.9-1 6.6-2.5 13.8-2.3 20.4-4.8 1.1-.4 4.3-1.4 2.3 2.4-1 1.6 1.3 1 2.2 1.3z"/><path class="st41" d="M104.2 104l2.1 1.2c.2.2.3.4.2.6-.1.2-.2.3-.2.3-3.6-1.2-6.8 1.6-10.9.8-3.6-.6-6.8-2.4-10.3-2.9 6.9.3 13.4-2.4 21.1-3.1-1.5 1-2.3 1.4-3 1.9-2.2 2-5.3.8-7.9 2.1-.5.1.4.7 0 .1-.1-.2 0-.4.3-.4 2.9 0 5.6-1.3 8.6-.6z"/><path class="st192" d="M112.2 107.1c-1.5 2.1 1.3 6.1-3 6.9-1.4-2.2-4.5-3.6-3.1-7 2.1-.6 4.1-1.9 6.1.1z"/><path class="st193" d="M112.2 107.1c-2-.7-4.1 1-6.1-.1.2-.3.2-.6.1-.9v-.9c2-.1 4.1 0 6-1.1v3z"/><path class="st194" d="M81.6 108c-.9-1.1-2.4-.7-4.5-1.5 2.3-.4 3.4-1.8 5.2-1.5 0 1.1 2.6 2.7-.7 3z"/><path class="st104" d="M87.2 102c-1.4.1-2.9-.4-3.9 1-1.1-.1-2.2.1-2.9-1 1.3-1.5 3.2-.7 4.8-1.2.7.2 1.6.3 2 1.2z"/><path class="st42" d="M52.2 107.8c.6.3 2 .3 1.3 1.4-.6 1-1.6 3.3-2.5 2.5-3.3-2.8-7.3.7-10.5-1.6 4-.8 7.8-1.6 11.7-2.3z"/><path class="st41" d="M120.2 123.9c-2.5-.7-5.2-.8-7.1-2.9 3.9-5.2 5-.1 7 1.9 0 .3.1.7.1 1z"/><path class="st195" d="M244.5 139.8c4.7-.4 4.7-.4 7.4.6-3.5 2.1-3.5 2.1-7.4-.6z"/><path class="st121" d="M207.7 136.2c-1.5-3.3-.8-6.8-.7-10.2 1.6 3.3.6 6.8.7 10.2z"/><path class="st196" d="M98.5 125.8c1.6-1.8 3 .5 4.6.3 2.7.7 5.5 1.3 8.2 1.8.7.1 1.4.3 2 .7 4.3 3.4 9.7 4.4 14.3 6.9.1.2.3.4.4.6.1 1.1 2.1.9 1.6 2.1-.6 1.3-1.7.3-2.5 0-5.3-1.9-10.3-4.9-15.8-6.2-4.2-2.2-8.5-4.2-12.8-6.2z"/><path class="st196" d="M113.4 129.1c-.7 0-1.3-.1-2-.1-1.4-1.2-4.2-.4-4.3-3.3.4 0 .8.1 1.2.1 4.5-.3 7.9 2.6 11.8 4 5 1.8 10.1 3.6 14.9 6.2.1.2.1.4 0 .7-2.4 1.1-4.5-1.1-6.8-.8-4.9-2.4-10.5-3.2-14.8-6.8z"/><path class="st197" d="M132.1 140.7c-4.9 1.7-9.8 3.4-14.8 5 1.6-3.3 6.1-1.7 7.8-4.8 2.4.7 4.6-2.2 7-.2z"/><path class="st198" d="M179.2 156.1c2.5 1.8 5.8 1.6 8 3.9-3-.7-6.6-.1-8-3.9z"/><path class="st199" d="M134.9 136.1l-26.7-10.2v-1c9.3 2.3 17.7 7.1 26.8 10 0 .4 0 .8-.1 1.2z"/><path class="st200" d="M107.1 125.7c.8 1.9 3.3 1.6 4.3 3.3-3.1-.1-5.8-1.2-8.3-3 1.3.4 2.5-1.6 4-.3z"/><path class="st201" d="M165 117.9c-1.2-2.7-3.5-5.3-.5-8.4 2.4-2.5 4.8-2.3 7.4-.5 2.8 3.5 2.7 6.7-1.2 9.4-2 .6-3.9.9-5.7-.5z"/><path class="st202" d="M170.7 117.9c3.3-2.6 2.2-5.7 1.1-8.9 3.9 3.4 3.9 4.9.3 9.1-.5.4-1 .3-1.4-.2z"/><path class="st203" d="M163 124.9c-.6 1.1-1.7 1-2.7 1 .6-3.2.6-3.2 2.7-5.6 1.4 1.5-2.2 3.1 0 4.6z"/><path class="st204" d="M170.7 117.9c.5.1 1 .1 1.4.2-2.4 2.1-4.9 3.3-7.2-.2h5.8z"/><path class="st75" d="M191.9 129.9c.2-3.2 3.6-2.1 5-3.8 2.4-1 4.7-2 7.1-2.9-3.3 3.7-7.6 5.4-12.1 6.7z"/><path class="st205" d="M125.3 120l9.9 3.3c-3.7.3-7-1.2-9.9-3.3z"/><path class="st206" d="M198.9 142.9c2-.8 3.9-.7 5.8.2-.4 3.5-3.2-.5-4.1 1.5 1.2.7 2.4 1.4 4 2.4-1.2 1.4-2.6.8-3.7.9-.5-1.1-1.4-1.7-2.6-1.9-1.1-.1-2.5-.1-2.1-1.8.2-1.6 1.7-1 2.7-1.3z"/><path class="st207" d="M179.9 150c3.1-.2 5.8.9 8 3-2.9-.4-5.7-1-8-3z"/><path class="st71" d="M187.9 152.9c3.1.3 5.9 1.1 8.4 3-3.1-.1-6.1-.7-8.4-3z"/><path class="st208" d="M118.5 126.2c3.1-.6 5 1 6.8 2.4-2.3-.1-4.5-.6-6.8-2.4z"/><path class="st209" d="M104.2 104c-3 .8-5.9 1.6-9.5.7 3-1.3 5.7-1.7 8.4-1.9.4.4.7.8 1.1 1.2z"/><path class="st187" d="M113.4 129.1c4.7 2.8 10.4 3.3 14.8 6.9-5.5-1.3-10.9-2.4-14.8-6.9z"/></svg>