<svg width="72" height="56" viewBox="0 0 72 56" xmlns="http://www.w3.org/2000/svg"><title>card</title><g fill="none" fill-rule="evenodd"><path fill="#FFC05C" d="M.266 24.423h71.507V12.036H.266z"/><path d="M65.855.816H6.184C2.916.816.266 3.48.266 6.762v42.613c0 3.283 2.65 5.946 5.918 5.946h59.671c3.268 0 5.918-2.663 5.918-5.946V6.762c0-3.283-2.65-5.946-5.918-5.946m0 4.026c1.054 0 1.912.861 1.912 1.92v42.613c0 1.059-.858 1.92-1.912 1.92H6.184a1.918 1.918 0 01-1.911-1.92V6.762c0-1.059.857-1.92 1.911-1.92h59.671" fill="#000"/></g></svg>