<svg xmlns="http://www.w3.org/2000/svg" viewBox="0 0 512 512"><path d="M287 150h-60c-24.902 0-47 20.099-47 45v30c0 8.399 6.599 15 15 15h122c8.401 0 15-6.601 15-15v-30c0-24.901-20.098-45-45-45z" fill="#e50027"/><path d="M317 240h-60v-90h30c24.902 0 45 20.099 45 45v30c0 8.399-6.599 15-15 15z" fill="#c1001f"/><path d="M150 165c0 24.814-20.186 45-45 45H45c-24.814 0-45-20.186-45-45v-30c0-8.291 6.709-15 15-15h120c8.291 0 15 6.709 15 15v30z" fill="#e50027"/><path d="M512 165c0 24.814-20.186 45-45 45h-60c-24.814 0-45-20.186-45-45v-30c0-8.291 6.709-15 15-15h120c8.291 0 15 6.709 15 15v30z" fill="#c1001f"/><path d="M476.302 420.2l-77.703-188c-8.101-13.801-22.5-22.2-38.701-22.2H152.102c-16.201 0-30.601 8.399-39.602 24L35.698 420.2C32.102 428.899 30 439.1 30 448.999V467c0 24.899 20.098 45 45 45h362c24.902 0 45-20.101 45-45v-18.001c0-9.899-2.102-20.1-5.698-28.799z" fill="#fd003a"/><path d="M476.302 420.2c3.596 8.699 5.698 18.9 5.698 28.799V467c0 24.899-20.098 45-45 45H257V210h102.898c16.201 0 30.601 8.399 38.701 22.2l77.703 188z" fill="#e50027"/><path d="M377 0H135C60.601 0 0 60.599 0 135v15h150v-15c0-8.401 6.599-15 15-15h182c8.401 0 15 6.599 15 15v15h150v-15C512 60.599 451.399 0 377 0z" fill="#fd003a"/><path d="M512 135v15H362v-15c0-8.401-6.599-15-15-15h-90V0h120c74.399 0 135 60.599 135 135z" fill="#e50027"/><path d="M257 272c-49.501 0-90 40.499-90 90 0 49.499 40.499 90 90 90s90-40.501 90-90c0-49.501-40.499-90-90-90z" fill="#cae8f9"/><path d="M347 362c0 49.499-40.499 90-90 90V272c49.501 0 90 40.499 90 90z" fill="#b7e0f6"/><path d="M257 332c-16.501 0-30 13.5-30 30s13.499 30 30 30 30-13.5 30-30-13.499-30-30-30z" fill="#e50027"/><path d="M287 362c0 16.5-13.499 30-30 30v-60c16.501 0 30 13.5 30 30z" fill="#c1001f"/></svg>