<svg width="470" height="513" viewBox="0 0 470 513"><g fill="none" fill-rule="evenodd"><path d="M127.702 442v56.536h9.962l65.92-78.976L235 442c119.846 0 217-95.587 217-213.5S354.846 15 235 15 18 110.587 18 228.5l17.43 109.51 35.268 52.65" fill="#FFF"/><g fill="#8E24AA" fill-rule="nonzero"><path d="M464.64 296.717c15.275-128.576-7.339-209.749-48.128-246.464l.021-.021C350.7-12.467 128.363-21.747 49.6 53.048 14.23 89.635 1.77 143.331.405 209.805-.96 276.301-2.58 400.867 113.493 434.66h.107l-.107 51.605s-.789 20.907 12.566 25.11c15.274 4.949 22.186-4.758 69.696-61.505 79.445 6.891 140.458-8.896 147.392-11.2 16.042-5.376 106.816-17.386 121.493-141.952zM203.584 413.56s-50.283 62.699-65.92 78.976c-5.12 5.29-10.73 4.8-10.645-5.696 0-6.89.384-85.675.384-85.675-98.411-28.202-92.608-134.272-91.542-189.76 1.067-55.509 11.222-100.97 41.174-131.584 69.098-64.789 264.021-50.304 313.685-3.626 60.715 53.824 39.104 205.888 39.232 211.072-12.48 103.978-86.037 110.57-99.563 115.072-5.781 1.92-59.434 15.722-126.805 11.221z"/><path d="M231.403 92.003c-8.214 0-8.214 12.8 0 12.906 63.722.491 116.202 44.907 116.778 126.379 0 8.597 12.587 8.49 12.481-.107h-.022c-.683-87.786-57.984-138.688-129.237-139.178z"/><path d="M315.221 217.784c-.192 8.49 12.374 8.896 12.48.299 1.046-48.406-28.8-88.278-84.885-92.48-8.213-.598-9.067 12.309-.875 12.906 48.64 3.691 74.262 36.886 73.28 79.275zM301.781 272.845c-10.538-6.101-21.269-2.304-25.706 3.691l-9.28 12.01c-4.715 6.102-13.526 5.291-13.526 5.291-64.298-17.002-81.493-84.288-81.493-84.288s-.79-9.109 5.099-13.994l11.605-9.6c5.803-4.608 9.472-15.702 3.563-26.603-15.787-28.523-26.39-38.357-31.787-45.91-5.675-7.103-14.208-8.703-23.083-3.903h-.192c-18.453 10.794-38.656 30.997-32.192 51.797 11.03 21.93 31.296 91.84 95.894 144.661 30.357 24.982 78.4 50.582 98.794 56.491l.192.299c20.096 6.698 39.638-14.294 50.07-33.302v-.149c4.629-9.195 3.093-17.899-3.67-23.595-11.989-11.69-30.08-24.597-44.288-32.896z"/><path d="M251.605 173.219c20.502 1.194 30.443 11.904 31.51 33.898.384 8.598 12.864 8 12.48-.597-1.366-28.715-16.342-44.715-43.307-46.208-8.213-.49-8.981 12.416-.683 12.907z"/></g></g></svg>