<?xml version="1.0" encoding="UTF-8"?>
<svg width="190px" height="48px" viewBox="0 0 190 48" version="1.1" xmlns="http://www.w3.org/2000/svg" xmlns:xlink="http://www.w3.org/1999/xlink">
    <!-- Generator: Sketch 60.1 (88133) - https://sketch.com -->
    <title>logo</title>
    <desc>Created with Sketch.</desc>
    <defs>
        <polygon id="path-1" points="24.6747256 48 49.3493279 48 49.3493279 0.567703704 24.6747256 0.567703704 0.000123308583 0.567703704 0.000123308583 48"></polygon>
        <polygon id="path-3" points="44.0967468 47.9998815 44.0967468 0.567703704 0.27030237 0.567703704 0.27030237 47.9998815 44.0967468 47.9998815"></polygon>
    </defs>
    <g id="Page-3" stroke="none" stroke-width="1" fill="none" fill-rule="evenodd">
        <g id="iPhone-SE" transform="translate(-17.000000, -367.000000)">
            <g id="logo" transform="translate(17.000000, 367.000000)">
                <g id="Page-1">
                    <g id="Group-3">
                        <mask id="mask-2" fill="white">
                            <use xlink:href="#path-1"></use>
                        </mask>
                        <g id="Clip-2"></g>
                        <path d="M45.0336508,48 L4.3159237,48 C1.9323688,48 0.000123308583,46.1428148 0.000123308583,43.8518519 L0.000123308583,4.71585185 C0.000123308583,2.42488889 1.9323688,0.567703704 4.3159237,0.567703704 L45.0336508,0.567703704 C47.4172057,0.567703704 49.3494512,2.42488889 49.3494512,4.71585185 L49.3494512,43.8518519 C49.3494512,46.1428148 47.4172057,48 45.0336508,48" id="Fill-1" fill="#000000" mask="url(#mask-2)"></path>
                    </g>
                    <path d="M9.74145281,39.1578947 L9.97125027,39.1578947 C10.2709667,39.1578947 10.5136792,38.8338831 10.5136792,38.4343678 L10.5136792,8.3030688 C10.5136792,7.90295901 10.2709667,7.57894737 9.97125027,7.57894737 L9.19946926,7.57894737 L9.19946926,38.4343678 C9.19946926,38.8338831 9.4421817,39.1578947 9.74145281,39.1578947" id="Fill-4" fill="#FFB32C"></path>
                    <path d="M28.0996408,46.7368421 L6.57104947,1.26315789 L45.549723,1.26315789 C47.2460612,1.26315789 48.6257661,2.57758281 48.6257661,4.19293565 L48.6257661,43.8070643 C48.6257661,45.4230061 47.2460612,46.7368421 45.549723,46.7368421 L28.0996408,46.7368421 Z" id="Fill-6" fill="#FFB32C"></path>
                    <g id="Group-10" transform="translate(5.256840, 0.000000)">
                        <mask id="mask-4" fill="white">
                            <use xlink:href="#path-3"></use>
                        </mask>
                        <g id="Clip-9"></g>
                        <path d="M40.1876456,0.567585185 L2.07660286,0.567585185 L0.27030237,0.567585185 L22.35785,47.9998815 L24.1641505,47.9998815 L40.1876456,47.9998815 C42.3465144,47.9998815 44.097114,46.3056593 44.097114,44.2155852 L44.097114,4.35247407 C44.097114,2.26180741 42.3465144,0.567585185 40.1876456,0.567585185 M40.1876456,2.24106667 C41.3904177,2.24106667 42.3685499,3.18802963 42.3685499,4.35247407 L42.3685499,44.2155852 C42.3685499,45.379437 41.3904177,46.3264 40.1876456,46.3264 L24.1641505,46.3264 L23.4749284,46.3264 L2.94578168,2.24106667 L40.1876456,2.24106667" id="Fill-8" fill="#000000" mask="url(#mask-4)"></path>
                    </g>
                    <path d="M38.6540705,39.1578947 L38.8838679,39.1578947 C39.1835844,39.1578947 39.4262968,38.8338831 39.4262968,38.4343678 L39.4262968,8.3030688 C39.4262968,7.90295901 39.1835844,7.57894737 38.8838679,7.57894737 L38.6540705,7.57894737 C38.3547994,7.57894737 38.1120869,7.90295901 38.1120869,8.3030688 L38.1120869,38.4343678 C38.1120869,38.8338831 38.3547994,39.1578947 38.6540705,39.1578947" id="Fill-11" fill="#000000"></path>
                    <path d="M24.1738757,39.1578947 L25.1656179,39.1578947 L39.379779,8.29355653 C39.5346438,7.95884359 39.2838235,7.57894737 38.9085041,7.57894737 L38.2513914,7.57894737 C38.0479416,7.57894737 37.8633184,7.69606717 37.7795092,7.87739479 L23.7019935,38.4432856 C23.547736,38.778593 23.7985563,39.1578947 24.1738757,39.1578947" id="Fill-13" fill="#000000"></path>
                </g>
                <text id="Монтажник" font-family="RobotoCondensed-Bold, Roboto Condensed" font-size="24" font-style="condensed" font-weight="bold" fill="#FFFFFF">
                    <tspan x="59.7792969" y="32">Монтажник</tspan>
                </text>
                <polygon id="Rectangle" points="2 0 104.330644 0 192 0 192 48 2 48"></polygon>
            </g>
        </g>
    </g>
</svg>