<?xml version="1.0" encoding="UTF-8"?>
<svg width="32px" height="32px" viewBox="0 0 32 32" version="1.1" xmlns="http://www.w3.org/2000/svg" xmlns:xlink="http://www.w3.org/1999/xlink">
    <!-- Generator: Sketch 60.1 (88133) - https://sketch.com -->
    <title>Page 1</title>
    <desc>Created with Sketch.</desc>
    <defs>
        <polygon id="path-1" points="15.8108049 32 31.6215309 32 31.6215309 0.378469136 15.8108049 0.378469136 7.90123457e-05 0.378469136 7.90123457e-05 32"></polygon>
        <polygon id="path-3" points="28.2558385 31.999921 28.2558385 0.378469136 0.173201442 0.378469136 0.173201442 31.999921 28.2558385 31.999921"></polygon>
    </defs>
    <g id="Page-3" stroke="none" stroke-width="1" fill="none" fill-rule="evenodd">
        <g id="iPhone-SE" transform="translate(-23.000000, -12.000000)">
            <g id="Page-1" transform="translate(23.000000, 12.000000)">
                <g id="Group-3">
                    <mask id="mask-2" fill="white">
                        <use xlink:href="#path-1"></use>
                    </mask>
                    <g id="Clip-2"></g>
                    <path d="M28.8561778,32 L2.76551111,32 C1.23820247,32 7.90123457e-05,30.7618765 7.90123457e-05,29.2345679 L7.90123457e-05,3.14390123 C7.90123457e-05,1.61659259 1.23820247,0.378469136 2.76551111,0.378469136 L28.8561778,0.378469136 C30.3834864,0.378469136 31.6216099,1.61659259 31.6216099,3.14390123 L31.6216099,29.2345679 C31.6216099,30.7618765 30.3834864,32 28.8561778,32" id="Fill-1" fill="#000000" mask="url(#mask-2)"></path>
                </g>
                <path d="M6.24202322,26.1052632 L6.38927036,26.1052632 C6.58131945,26.1052632 6.73684211,25.8892554 6.73684211,25.6229119 L6.73684211,5.5353792 C6.73684211,5.26863934 6.58131945,5.05263158 6.38927036,5.05263158 L5.89473684,5.05263158 L5.89473684,25.6229119 C5.89473684,25.8892554 6.0502595,26.1052632 6.24202322,26.1052632" id="Fill-4" fill="#FFB32C"></path>
                <path d="M18.0053852,31.1578947 L4.21052632,0.842105263 L29.186861,0.842105263 C30.2738223,0.842105263 31.1578947,1.71838854 31.1578947,2.79529044 L31.1578947,29.2047096 C31.1578947,30.2820041 30.2738223,31.1578947 29.186861,31.1578947 L18.0053852,31.1578947 Z" id="Fill-6" fill="#FFB32C"></path>
                <g id="Group-10" transform="translate(3.368421, 0.000000)">
                    <mask id="mask-4" fill="white">
                        <use xlink:href="#path-3"></use>
                    </mask>
                    <g id="Clip-9"></g>
                    <path d="M25.7510068,0.378390123 L1.33062322,0.378390123 L0.173201442,0.378390123 L14.3262224,31.999921 L15.4836441,31.999921 L25.7510068,31.999921 C27.1343435,31.999921 28.2560738,30.8704395 28.2560738,29.4770568 L28.2560738,2.90164938 C28.2560738,1.5078716 27.1343435,0.378390123 25.7510068,0.378390123 M25.7510068,1.49404444 C26.5217061,1.49404444 27.1484632,2.12535309 27.1484632,2.90164938 L27.1484632,29.4770568 C27.1484632,30.252958 26.5217061,30.8842667 25.7510068,30.8842667 L15.4836441,30.8842667 L15.0420118,30.8842667 L1.88756626,1.49404444 L25.7510068,1.49404444" id="Fill-8" fill="#000000" mask="url(#mask-4)"></path>
                </g>
                <path d="M24.768339,26.1052632 L24.9155862,26.1052632 C25.1076352,26.1052632 25.2631579,25.8892554 25.2631579,25.6229119 L25.2631579,5.5353792 C25.2631579,5.26863934 25.1076352,5.05263158 24.9155862,5.05263158 L24.768339,5.05263158 C24.5765753,5.05263158 24.4210526,5.26863934 24.4210526,5.5353792 L24.4210526,25.6229119 C24.4210526,25.8892554 24.5765753,26.1052632 24.768339,26.1052632" id="Fill-11" fill="#000000"></path>
                <path d="M15.4898758,26.1052632 L16.1253536,26.1052632 L25.2333507,5.52903769 C25.3325833,5.30589572 25.1718654,5.05263158 24.9313722,5.05263158 L24.5103147,5.05263158 C24.3799502,5.05263158 24.2616494,5.13071145 24.2079471,5.25159653 L15.1875081,25.6288571 C15.0886647,25.8523954 15.2493826,26.1052632 15.4898758,26.1052632" id="Fill-13" fill="#000000"></path>
            </g>
        </g>
    </g>
</svg>