<?xml version="1.0" encoding="UTF-8"?>
<svg width="190px" height="48px" viewBox="0 0 190 48" version="1.1" xmlns="http://www.w3.org/2000/svg" xmlns:xlink="http://www.w3.org/1999/xlink">
    <!-- Generator: Sketch 60.1 (88133) - https://sketch.com -->
    <title>logo</title>
    <desc>Created with Sketch.</desc>
    <defs>
        <polygon id="path-1" points="25.0489394 48 50.0977537 48 50.0977537 0.567703704 25.0489394 0.567703704 0.000125178665 0.567703704 0.000125178665 48"></polygon>
        <polygon id="path-3" points="44.7655126 47.9998815 44.7655126 0.567703704 0.274401743 0.567703704 0.274401743 47.9998815 44.7655126 47.9998815"></polygon>
    </defs>
    <g id="Welcome" stroke="none" stroke-width="1" fill="none" fill-rule="evenodd">
        <g id="Mobile" transform="translate(-18.000000, -12.000000)">
            <g id="header">
                <g id="logo" transform="translate(18.000000, 12.000000)">
                    <g id="Page-1">
                        <g id="Group-3">
                            <mask id="mask-2" fill="white">
                                <use xlink:href="#path-1"></use>
                            </mask>
                            <g id="Clip-2"></g>
                            <path d="M45.7166256,48 L4.38137847,48 C1.96167487,48 0.000125178665,46.1428148 0.000125178665,43.8518519 L0.000125178665,4.71585185 C0.000125178665,2.42488889 1.96167487,0.567703704 4.38137847,0.567703704 L45.7166256,0.567703704 C48.1363292,0.567703704 50.0978789,2.42488889 50.0978789,4.71585185 L50.0978789,43.8518519 C50.0978789,46.1428148 48.1363292,48 45.7166256,48" id="Fill-1" fill="#000000" mask="url(#mask-2)"></path>
                        </g>
                        <path d="M9.88919048,39.1578947 L10.122473,39.1578947 C10.4267349,39.1578947 10.6731283,38.8338831 10.6731283,38.4343678 L10.6731283,8.3030688 C10.6731283,7.90295901 10.4267349,7.57894737 10.122473,7.57894737 L9.33898728,7.57894737 L9.33898728,38.4343678 C9.33898728,38.8338831 9.58538066,39.1578947 9.88919048,39.1578947" id="Fill-4" fill="#FFB32C"></path>
                        <path d="M28.5257965,46.7368421 L6.6707052,1.26315789 L46.2405245,1.26315789 C47.9625891,1.26315789 49.3632185,2.57758281 49.3632185,4.19293565 L49.3632185,43.8070643 C49.3632185,45.4230061 47.9625891,46.7368421 46.2405245,46.7368421 L28.5257965,46.7368421 Z" id="Fill-6" fill="#FFB32C"></path>
                        <g id="Group-10" transform="translate(5.336564, 0.000000)">
                            <mask id="mask-4" fill="white">
                                <use xlink:href="#path-3"></use>
                            </mask>
                            <g id="Clip-9"></g>
                            <path d="M40.7971265,0.567585185 L2.10809636,0.567585185 L0.274401743,0.567585185 L22.6969264,47.9998815 L24.530621,47.9998815 L40.7971265,47.9998815 C42.9887364,47.9998815 44.7658854,46.3056593 44.7658854,44.2155852 L44.7658854,4.35247407 C44.7658854,2.26180741 42.9887364,0.567585185 40.7971265,0.567585185 M40.7971265,2.24106667 C42.0181397,2.24106667 43.0111062,3.18802963 43.0111062,4.35247407 L43.0111062,44.2155852 C43.0111062,45.379437 42.0181397,46.3264 40.7971265,46.3264 L24.530621,46.3264 L23.8309463,46.3264 L2.99045704,2.24106667 L40.7971265,2.24106667" id="Fill-8" fill="#000000" mask="url(#mask-4)"></path>
                        </g>
                        <path d="M39.2402934,39.1578947 L39.4735759,39.1578947 C39.7778378,39.1578947 40.0242312,38.8338831 40.0242312,38.4343678 L40.0242312,8.3030688 C40.0242312,7.90295901 39.7778378,7.57894737 39.4735759,7.57894737 L39.2402934,7.57894737 C38.9364835,7.57894737 38.6900902,7.90295901 38.6900902,8.3030688 L38.6900902,38.4343678 C38.6900902,38.8338831 38.9364835,39.1578947 39.2402934,39.1578947" id="Fill-11" fill="#000000"></path>
                        <path d="M24.5404937,39.1578947 L25.5472765,39.1578947 L39.9770079,8.29355653 C40.1342214,7.95884359 39.8795972,7.57894737 39.4985857,7.57894737 L38.8315073,7.57894737 C38.624972,7.57894737 38.4375488,7.69606717 38.3524686,7.87739479 L24.061455,38.4432856 C23.9048581,38.778593 24.1594822,39.1578947 24.5404937,39.1578947" id="Fill-13" fill="#000000"></path>
                    </g>
                    <path d="M75.97485,32 L75.97485,27.3828125 L75.6584438,20.2695312 L79.0686,32 L81.41235,32 L84.8225063,20.2695312 L84.5061,27.3828125 L84.5061,32 L87.9631313,32 L87.9631313,14.9375 L83.4631313,14.9375 L80.2521938,27.2773438 L77.0295375,14.9375 L72.5295375,14.9375 L72.5295375,32 L75.97485,32 Z M95.3225063,32.234375 C96.9396938,32.234375 98.1975063,31.6914062 99.0959438,30.6054688 C99.9943813,29.5195312 100.4436,28.0117188 100.4436,26.0820312 L100.4436,26.0820312 L100.4436,25.2734375 C100.4436,23.3359375 99.990475,21.8203125 99.084225,20.7265625 C98.177975,19.6328125 96.9162563,19.0859375 95.2990688,19.0859375 C93.6975063,19.0859375 92.4436,19.6328125 91.53735,20.7265625 C90.6311,21.8203125 90.177975,23.328125 90.177975,25.25 L90.177975,25.25 L90.177975,26.0585938 C90.177975,27.9960938 90.6291469,29.5097656 91.5314907,30.5996094 C92.4338344,31.6894531 93.6975063,32.234375 95.3225063,32.234375 Z M95.3225063,29.4804688 C94.1115688,29.4804688 93.5061,28.3476562 93.5061,26.0820312 L93.5061,26.0820312 L93.5061,25.25 C93.5061,24.09375 93.6643032,23.2363281 93.9807094,22.6777344 C94.2971157,22.1191406 94.7365688,21.8398438 95.2990688,21.8398438 C95.8850063,21.8398438 96.3381313,22.1191406 96.6584438,22.6777344 C96.9787563,23.2363281 97.1389125,24.09375 97.1389125,25.25 L97.1389125,25.25 L97.1271938,26.6445312 C97.0412563,28.5351562 96.4396938,29.4804688 95.3225063,29.4804688 Z M105.822506,32 L105.822506,27.1367188 L108.740475,27.1367188 L108.740475,32 L112.056881,32 L112.056881,19.3203125 L108.740475,19.3203125 L108.740475,24.3945312 L105.822506,24.3945312 L105.822506,19.3203125 L102.494381,19.3203125 L102.494381,32 L105.822506,32 Z M120.353756,32 L120.353756,22.0507812 L123.611569,22.0507812 L123.611569,19.3203125 L113.802975,19.3203125 L113.802975,22.0507812 L117.03735,22.0507812 L117.03735,32 L120.353756,32 Z M128.709225,32.234375 C129.72485,32.234375 130.529538,31.828125 131.123288,31.015625 C131.217038,31.4765625 131.310788,31.8046875 131.404538,32 L131.404538,32 L134.744381,32 L134.744381,31.8007812 C134.447506,31.1835938 134.291256,30.328125 134.275631,29.234375 L134.275631,29.234375 L134.275631,23.2695312 C134.275631,21.9257812 133.894772,20.8925781 133.133053,20.1699219 C132.371334,19.4472656 131.295163,19.0859375 129.904538,19.0859375 C128.560788,19.0859375 127.449459,19.4667969 126.570553,20.2285156 C125.691647,20.9902344 125.252194,21.9570312 125.252194,23.1289062 L125.252194,23.1289062 L128.5686,23.1289062 C128.5686,22.1601562 128.982663,21.6757812 129.810788,21.6757812 C130.185788,21.6757812 130.470944,21.7929688 130.666256,22.0273438 C130.861569,22.2617188 130.959225,22.6640625 130.959225,23.234375 L130.959225,23.234375 L130.959225,24.2539062 L129.951413,24.2539062 C128.357663,24.2695312 127.136959,24.640625 126.289303,25.3671875 C125.441647,26.09375 125.017819,27.1210938 125.017819,28.4492188 C125.017819,29.5664062 125.367428,30.4765625 126.066647,31.1796875 C126.765866,31.8828125 127.646725,32.234375 128.709225,32.234375 Z M129.447506,29.6328125 C128.713131,29.6328125 128.345944,29.1640625 128.345944,28.2265625 C128.345944,27.625 128.508053,27.1445312 128.832272,26.7851562 C129.156491,26.4257812 129.59985,26.2460938 130.16235,26.2460938 L130.16235,26.2460938 L130.959225,26.2460938 L130.959225,28.8828125 C130.834225,29.0859375 130.642819,29.2617188 130.385006,29.4101562 C130.127194,29.5585938 129.814694,29.6328125 129.447506,29.6328125 Z M140.09985,32 L141.775631,27.3125 L142.900631,27.3125 L142.900631,32 L146.205319,32 L146.205319,27.3125 L147.342038,27.3125 L149.0061,32 L153.072506,32 L149.9436,25.0859375 L153.084225,19.3203125 L148.982663,19.3203125 L147.142819,24.0429688 L146.205319,24.0429688 L146.205319,19.3203125 L142.900631,19.3203125 L142.900631,24.0429688 L141.963131,24.0429688 L140.146725,19.3203125 L136.045163,19.3203125 L139.232663,25.1679688 L136.127194,32 L140.09985,32 Z M158.064694,32 L158.064694,27.1367188 L160.982663,27.1367188 L160.982663,32 L164.299069,32 L164.299069,19.3203125 L160.982663,19.3203125 L160.982663,24.3945312 L158.064694,24.3945312 L158.064694,19.3203125 L154.736569,19.3203125 L154.736569,32 L158.064694,32 Z M170.041256,32 L172.994381,24.2070312 L172.994381,32 L176.299069,32 L176.299069,19.3203125 L172.994381,19.3203125 L170.041256,27.1015625 L170.041256,19.3203125 L166.713131,19.3203125 L166.713131,32 L170.041256,32 Z M182.252194,32 L182.252194,27.3476562 L183.119381,27.3476562 L185.017819,32 L189.41235,32 L185.814694,25.1679688 L189.154538,19.3203125 L184.994381,19.3203125 L183.072506,24.078125 L182.252194,24.078125 L182.252194,19.3203125 L178.947506,19.3203125 L178.947506,32 L182.252194,32 Z" id="Монтажник" fill="#FFFFFF" fill-rule="nonzero"></path>
                    <rect id="Rectangle" x="0" y="0" width="200" height="48"></rect>
                </g>
            </g>
        </g>
    </g>
</svg>