
<svg width="470px" height="513px" viewBox="0 0 470 513" >
    <g id="Page-4" stroke="none" stroke-width="1" fill="none" fill-rule="evenodd">
        <g id="Mobile" transform="translate(-1296.000000, -255.000000)">
            <g id="Group" transform="translate(1296.000000, 255.000000)">
                <path d="M127.702063,442 L127.702063,498.536 L137.664,498.536 L203.584,419.56 L235,442 C354.845791,442 452,346.412794 452,228.5 C452,110.587206 354.845791,15 235,15 C115.154209,15 18,110.587206 18,228.5 L35.4292735,338.009643 L70.6983445,390.660771" id="Oval" fill="#FFFFFF"></path>
                <g id="viber" fill="#8E24AA" fill-rule="nonzero">
                    <path d="M464.64,296.717333 C479.914667,168.141333 457.301333,86.968 416.512,50.2533333 L416.533333,50.232 C350.698667,-12.4666667 128.362667,-21.7466667 49.6,53.048 C14.2293333,89.6346667 1.77066667,143.330667 0.405333333,209.805333 C-0.96,276.301333 -2.58133333,400.866667 113.493333,434.658667 L113.6,434.658667 L113.493333,486.264 C113.493333,486.264 112.704,507.170667 126.058667,511.373333 C141.333333,516.322667 148.245333,506.616 195.754667,449.869333 C275.2,456.76 336.213333,440.973333 343.146667,438.669333 C359.189333,433.293333 449.962667,421.282667 464.64,296.717333 Z M203.584,413.56 C203.584,413.56 153.301333,476.258667 137.664,492.536 C132.544,497.826667 126.933333,497.336 127.018667,486.84 C127.018667,479.949333 127.402667,401.165333 127.402667,401.165333 C28.992,372.962667 34.7946667,266.893333 35.8613333,211.405333 C36.928,155.896 47.0826667,110.434667 77.0346667,79.8213333 C146.133333,15.032 341.056,29.5173333 390.72,76.1946667 C451.434667,130.018667 429.824,282.082667 429.952,287.266667 C417.472,391.245333 343.914667,397.837333 330.389333,402.338667 C324.608,404.258667 270.954667,418.061333 203.584,413.56 Z" id="Shape"></path>
                    <path d="M231.402667,92.0026667 C223.189333,92.0026667 223.189333,104.802667 231.402667,104.909333 C295.125333,105.4 347.605333,149.816 348.181333,231.288 C348.181333,239.885333 360.768,239.778667 360.662007,231.181333 L360.64,231.181333 C359.957333,143.394667 302.656,92.4933333 231.402667,92.0026667 L231.402667,92.0026667 Z" id="Path"></path>
                    <path d="M315.221333,217.784 C315.029333,226.274667 327.594667,226.68 327.701333,218.082667 C328.746667,169.677333 298.901333,129.805333 242.816,125.602667 C234.602667,125.005333 233.749333,137.912 241.941333,138.509333 C290.581333,142.2 316.202667,175.394667 315.221333,217.784 L315.221333,217.784 Z" id="Path"></path>
                    <path d="M301.781333,272.845333 C291.242667,266.744 280.512,270.541333 276.074667,276.536 L266.794667,288.546667 C262.08,294.648 253.269333,293.837333 253.269333,293.837333 C188.970667,276.834667 171.776,209.549333 171.776,209.549333 C171.776,209.549333 170.986667,200.44 176.874667,195.554667 L188.48,185.954667 C194.282667,181.346667 197.952,170.253333 192.042667,159.352 C176.256,130.829333 165.653333,120.994667 160.256,113.442667 C154.581333,106.338667 146.048,104.738667 137.173333,109.538667 L136.981333,109.538667 C118.528,120.333333 98.3253333,140.536 104.789333,161.336 C115.818667,183.266667 136.085333,253.176 200.682667,305.997333 C231.04,330.978667 279.082667,356.578667 299.477333,362.488 L299.669333,362.786667 C319.765333,369.485333 339.306667,348.493333 349.738667,329.485333 L349.738667,329.336 C354.368,320.141333 352.832,311.437333 346.069333,305.741333 C334.08,294.050667 315.989333,281.144 301.781333,272.845333 Z" id="Path"></path>
                    <path d="M251.605333,173.218667 C272.106667,174.413333 282.048,185.122667 283.114667,207.117333 C283.498667,215.714667 295.978667,215.117333 295.594667,206.52 C294.229333,177.805333 279.253333,161.805333 252.288,160.312 C244.074667,159.821333 243.306667,172.728 251.605333,173.218667 L251.605333,173.218667 Z" id="Path"></path>
                </g>
            </g>
        </g>
    </g>
</svg>