<svg xmlns="http://www.w3.org/2000/svg" width="66" height="36" viewBox="0 0 66 36"><g><g><g><path fill="#ffc05c" d="M23.88 24.909h41.383V.21H23.88z"/></g><g><path d="M12.668 27.797c1.485 0 2.693 1.174 2.693 2.615 0 1.443-1.208 2.616-2.693 2.616s-2.693-1.173-2.693-2.616c0-1.441 1.208-2.615 2.693-2.615m0-2.217c-2.744 0-4.968 2.164-4.968 4.832 0 2.67 2.224 4.833 4.968 4.833 2.744 0 4.968-2.164 4.968-4.833 0-2.668-2.224-4.832-4.968-4.832"/></g><g><path d="M47.168 27.797c1.485 0 2.693 1.174 2.693 2.615 0 1.443-1.208 2.616-2.693 2.616s-2.693-1.173-2.693-2.616c0-1.441 1.208-2.615 2.693-2.615m0-2.217c-2.744 0-4.968 2.164-4.968 4.832 0 2.67 2.224 4.833 4.968 4.833 2.744 0 4.968-2.164 4.968-4.833 0-2.668-2.224-4.832-4.968-4.832"/></g><g><path d="M65.258 26.39H52.46a6.399 6.399 0 0 1 1.43 4.027h6.418l4.95-1.41z"/></g><g><path d="M41.87 26.385a6.399 6.399 0 0 0-1.43 4.027H19.393c0-3.608-3.017-6.544-6.727-6.544-3.71 0-6.728 2.936-6.728 6.544H.47V19.54l6.228-2.751 3.588-10.46V3.7h11.385v22.685zM18.36 8.902h-6.28l-2.622 7.852h8.901z"/></g></g></g></svg>