<svg xmlns="http://www.w3.org/2000/svg" width="64" height="58" viewBox="0 0 64 58"><g><g><g><path fill="#ffc05c" d="M31.776 55.61c-12.079 0-21.906-9.492-21.906-21.16 0-11.667 9.827-21.16 21.906-21.16 12.08 0 21.907 9.493 21.907 21.16 0 11.668-9.828 21.16-21.907 21.16"/></g><g><path d="M31.775 15.204c10.982 0 19.917 8.63 19.917 19.237 0 10.608-8.935 19.238-19.917 19.238-10.982 0-19.917-8.63-19.917-19.238 0-10.608 8.935-19.238 19.917-19.238m0-3.843C18.578 11.36 7.88 21.694 7.88 34.441c0 12.748 10.698 23.081 23.895 23.081S55.67 47.19 55.67 34.442c0-12.748-10.698-23.082-23.895-23.082"/></g><g><path d="M56.15 16.642L45.98 9.922c-1.6-1.057-2.013-3.187-.919-4.732l2.033-2.87c1.095-1.547 3.3-1.946 4.9-.889l10.168 6.72c1.6 1.057 2.014 3.186.92 4.732l-2.034 2.87c-1.095 1.547-3.3 1.946-4.9.889"/></g><g><path d="M7.405 16.642l10.168-6.72c1.6-1.057 2.014-3.187.92-4.732l-2.034-2.87c-1.094-1.547-3.3-1.946-4.9-.889L1.393 8.151c-1.6 1.057-2.015 3.186-.92 4.732l2.033 2.87c1.095 1.547 3.3 1.946 4.9.889"/></g><g><path d="M32.093 31.25h-.622c-.688 0-1.251.544-1.251 1.208v15.524c0 .664.563 1.207 1.25 1.207h.623c.688 0 1.25-.543 1.25-1.207V32.458c0-.664-.562-1.208-1.25-1.208"/></g><g><path d="M30.665 33.09l.44.425c.486.47 1.282.47 1.768 0l7.96-7.69a1.182 1.182 0 0 0 0-1.708l-.439-.425a1.286 1.286 0 0 0-1.768 0l-7.961 7.69a1.182 1.182 0 0 0 0 1.708"/></g></g></g></svg>