<?xml version="1.0" encoding="iso-8859-1"?>
<!-- Generator: Adobe Illustrator 16.0.0, SVG Export Plug-In . SVG Version: 6.00 Build 0)  -->
<!DOCTYPE svg PUBLIC "-//W3C//DTD SVG 1.1//EN" "http://www.w3.org/Graphics/SVG/1.1/DTD/svg11.dtd">
<svg version="1.1" id="Capa_1" xmlns="http://www.w3.org/2000/svg" xmlns:xlink="http://www.w3.org/1999/xlink" x="0px" y="0px"
	 width="290.271px" height="290.271px" viewBox="0 0 290.271 290.271" style="enable-background:new 0 0 290.271 290.271;"
	 xml:space="preserve">
<g>
	<circle cx="145.021" cy="58.522" r="24.005"/>
	<path d="M236.647,21.025h2.566V0H50.829v21.025h2.796c-0.736,0.827-1.384,1.752-1.84,2.825c-0.501,1.167-11.994,28.886,4.09,53.216
		c10.559,15.976,29.997,26.058,57.951,30.128v79.641v22.699v67.646c0,7.231,5.862,13.09,13.091,13.09
		c7.229,0,13.093-5.858,13.093-13.09v-67.648h10.474v67.642c0,7.235,5.861,13.094,13.093,13.094c7.228,0,13.093-5.858,13.093-13.094
		v-67.642v-22.696v-79.678c27.826-4.093,47.192-14.161,57.726-30.091c16.084-24.327,4.589-52.046,4.093-53.216
		C238.029,22.774,237.379,21.852,236.647,21.025z M216.854,65.471c-9.85,14.894-34.612,22.768-71.612,22.768
		c-0.038,0-0.073,0.011-0.111,0.011c-0.039,0-0.073-0.011-0.109-0.011c-36.879,0-61.609-7.826-71.518-22.627
		c-9.84-14.698-2.538-33.127-2.359-33.571c1.615-3.842,0.746-8.085-1.839-11.015H220.96c-2.594,2.943-3.46,7.209-1.824,11.064
		C219.215,32.268,226.62,50.704,216.854,65.471z"/>
</g>
<g>
</g>
<g>
</g>
<g>
</g>
<g>
</g>
<g>
</g>
<g>
</g>
<g>
</g>
<g>
</g>
<g>
</g>
<g>
</g>
<g>
</g>
<g>
</g>
<g>
</g>
<g>
</g>
<g>
</g>
</svg>
