<svg id="Layer_3" enable-background="new 0 0 64 64" height="512" viewBox="0 0 64 64" width="512" xmlns="http://www.w3.org/2000/svg"><g fill="#f0bc5e"><path d="m20 25c-4.962 0-9-4.038-9-9s4.038-9 9-9 9 4.038 9 9-4.038 9-9 9z"/><path d="m55 12h-2c0 2.206-1.794 4-4 4v2c2.206 0 4 1.794 4 4h2c0-2.206 1.794-4 4-4v-2c-2.206 0-4-1.794-4-4z"/><path d="m35 18h-2c0 2.206-1.794 4-4 4v2c2.206 0 4 1.794 4 4h2c0-2.206 1.794-4 4-4v-2c-2.206 0-4-1.794-4-4z"/></g><path d="m58 1h-12c-1.641 0-3.088.806-4 2.031-.912-1.225-2.359-2.031-4-2.031h-12c-1.641 0-3.088.806-4 2.031-.912-1.225-2.359-2.031-4-2.031h-12c-2.757 0-5 2.243-5 5v52c0 2.757 2.243 5 5 5h12c1.641 0 3.088-.806 4-2.031.912 1.225 2.359 2.031 4 2.031h12c1.641 0 3.088-.806 4-2.031.912 1.225 2.359 2.031 4 2.031h12c2.757 0 5-2.243 5-5v-52c0-2.757-2.243-5-5-5zm-32 2h12c1.654 0 3 1.346 3 3v21.647c-2.057.89-3.695 2.645-4.335 4.886l-2.543 8.901-.545-1.333c-1.765-4.314-5.917-7.101-10.577-7.101v-27c0-1.654 1.346-3 3-3zm-3 32c3.845 0 7.27 2.299 8.725 5.857l.452 1.104c-.614.634-1.202 1.039-2.181 1.039-1.237 0-1.822-.599-2.75-1.659-.911-1.041-2.047-2.337-4.246-2.34zm-2 4.433c-.992.469-1.674 1.239-2.26 1.908-.927 1.06-1.511 1.659-2.747 1.659-.976 0-1.561-.404-2.171-1.034l.453-1.109c1.196-2.924 3.729-4.973 6.725-5.62zm-7.988 4.513c.707.571 1.649 1.054 2.981 1.054 2.204 0 3.339-1.298 4.252-2.341.273-.312.516-.579.755-.808v13.149h-12.51zm9.988-2.946c1.232.003 1.817.601 2.742 1.658.913 1.044 2.05 2.342 4.254 2.342 1.336 0 2.281-.486 2.99-1.059l4.524 11.059h-.422-14.088zm12.346 3.427 1.554-5.437c.032.001.061.01.093.01 2.013 0 3.132-1.082 4.007-2.065v18.065h-1.328zm7.654-9.25c.289-.112.607-.177.992-.177 1.237 0 1.822.599 2.75 1.659.913 1.043 2.05 2.341 4.254 2.341.036 0 .068-.01.104-.011l4.574 16.011h-12.674zm5.247.164c-.914-1.043-2.05-2.341-4.255-2.341-.361 0-.685.045-.992.108v-4.012c.327-.059.66-.096 1-.096 2.5 0 4.725 1.679 5.412 4.083l1.109 3.881c-.928-.14-1.475-.709-2.274-1.623zm-7.247-1.271c-.49.399-.895.854-1.26 1.271-.795.909-1.341 1.476-2.261 1.62l1.108-3.879c.387-1.355 1.273-2.465 2.412-3.189v4.177zm-23 26.93h-12c-1.654 0-3-1.346-3-3v-52c0-1.654 1.346-3 3-3h12c1.654 0 3 1.346 3 3v27.181c-3.819.672-7.069 3.236-8.576 6.92l-6.914 16.899h15.49v1c0 1.654-1.346 3-3 3zm20 0h-12c-1.654 0-3-1.346-3-3v-1h14.088 3.401.511v1c0 1.654-1.346 3-3 3zm23-3c0 1.654-1.346 3-3 3h-12c-1.654 0-3-1.346-3-3v-1h15.326l-6.991-24.467c-.931-3.258-3.947-5.533-7.335-5.533-.339 0-.67.039-1 .083v-21.083c0-1.654 1.346-3 3-3h12c1.654 0 3 1.346 3 3z"/><path d="m7 7h4v-2h-4c-1.103 0-2 .897-2 2v15h2z"/><path d="m5 24h2v2h-2z"/><path d="m5 28h2v2h-2z"/><path d="m45 5h2v2h-2z"/><path d="m49 5h2v2h-2z"/><path d="m53 5h2v2h-2z"/></svg>