<svg display="none" xmlns="http://www.w3.org/2000/svg">
    <symbol id="card" viewBox="0 0 65 49">
        <g>
            <path fill="#ffc05c" d="M.24 21.316h64.555V10.28H.24z" />
        </g>
        <g>
            <path d="M59.452 3.866a1.72 1.72 0 0 1 1.725 1.71v37.956a1.72 1.72 0 0 1-1.725 1.71H5.583a1.72 1.72 0 0 1-1.726-1.71V5.577c0-.943.775-1.71 1.726-1.71h53.869m0-3.587H5.582C2.632.28.24 2.652.24 5.577v37.964c0 2.926 2.392 5.298 5.342 5.298h53.87c2.95 0 5.343-2.372 5.343-5.298V5.577c0-2.925-2.392-5.297-5.343-5.297" />
        </g>
    </symbol>
    <symbol id="car" viewBox="0 0 65 36">
        <g>
            <path fill="#ffc05c" d="M23.88 24.909h41.383V.21H23.88z" />
        </g>
        <g>
            <path d="M12.668 27.797c1.485 0 2.693 1.174 2.693 2.615 0 1.443-1.208 2.616-2.693 2.616s-2.693-1.173-2.693-2.616c0-1.441 1.208-2.615 2.693-2.615m0-2.217c-2.744 0-4.968 2.164-4.968 4.832 0 2.67 2.224 4.833 4.968 4.833 2.744 0 4.968-2.164 4.968-4.833 0-2.668-2.224-4.832-4.968-4.832" />
        </g>
        <g>
            <path d="M47.168 27.797c1.485 0 2.693 1.174 2.693 2.615 0 1.443-1.208 2.616-2.693 2.616s-2.693-1.173-2.693-2.616c0-1.441 1.208-2.615 2.693-2.615m0-2.217c-2.744 0-4.968 2.164-4.968 4.832 0 2.67 2.224 4.833 4.968 4.833 2.744 0 4.968-2.164 4.968-4.833 0-2.668-2.224-4.832-4.968-4.832" />
        </g>
        <g>
            <path d="M65.258 26.39H52.46a6.399 6.399 0 0 1 1.43 4.027h6.418l4.95-1.41z" />
        </g>
        <g>
            <path d="M41.87 26.385a6.399 6.399 0 0 0-1.43 4.027H19.393c0-3.608-3.017-6.544-6.727-6.544-3.71 0-6.728 2.936-6.728 6.544H.47V19.54l6.228-2.751 3.588-10.46V3.7h11.385v22.685zM18.36 8.902h-6.28l-2.622 7.852h8.901z" />
        </g>
    </symbol>
    <symbol id="clock" viewBox="0 0 64 58">
        <g>
            <path fill="#ffc05c" d="M31.776 55.61c-12.079 0-21.906-9.492-21.906-21.16 0-11.667 9.827-21.16 21.906-21.16 12.08 0 21.907 9.493 21.907 21.16 0 11.668-9.828 21.16-21.907 21.16" />
        </g>
        <g>
            <path d="M31.775 15.204c10.982 0 19.917 8.63 19.917 19.237 0 10.608-8.935 19.238-19.917 19.238-10.982 0-19.917-8.63-19.917-19.238 0-10.608 8.935-19.238 19.917-19.238m0-3.843C18.578 11.36 7.88 21.694 7.88 34.441c0 12.748 10.698 23.081 23.895 23.081S55.67 47.19 55.67 34.442c0-12.748-10.698-23.082-23.895-23.082" />
        </g>
        <g>
            <path d="M56.15 16.642L45.98 9.922c-1.6-1.057-2.013-3.187-.919-4.732l2.033-2.87c1.095-1.547 3.3-1.946 4.9-.889l10.168 6.72c1.6 1.057 2.014 3.186.92 4.732l-2.034 2.87c-1.095 1.547-3.3 1.946-4.9.889" />
        </g>
        <g>
            <path d="M7.405 16.642l10.168-6.72c1.6-1.057 2.014-3.187.92-4.732l-2.034-2.87c-1.094-1.547-3.3-1.946-4.9-.889L1.393 8.151c-1.6 1.057-2.015 3.186-.92 4.732l2.033 2.87c1.095 1.547 3.3 1.946 4.9.889" />
        </g>
        <g>
            <path d="M32.093 31.25h-.622c-.688 0-1.251.544-1.251 1.208v15.524c0 .664.563 1.207 1.25 1.207h.623c.688 0 1.25-.543 1.25-1.207V32.458c0-.664-.562-1.208-1.25-1.208" />
        </g>
        <g>
            <path d="M30.665 33.09l.44.425c.486.47 1.282.47 1.768 0l7.96-7.69a1.182 1.182 0 0 0 0-1.708l-.439-.425a1.286 1.286 0 0 0-1.768 0l-7.961 7.69a1.182 1.182 0 0 0 0 1.708" />
        </g>
    </symbol>
    <symbol id="molot" viewBox="0 0 66 47">
        <g>
            <g>
                <g>
                    <path fill="#ffc05c" d="M27.077 30.78l-9.06 6.49L.72 24.88l9.06-6.49z" />
                </g>
                <g>
                    <path d="M65.758 40.397l-9.06 6.49L13.34 15.83l9.06-6.49z" />
                </g>
                <g>
                    <path fill="#ffc05c" d="M52.327 12.68l-9.06 6.49L25.97 6.78 35.03.29z" />
                </g>
                <g>
                    <path d="M.53 46.884h32.615V43.51H.53z" />
                </g>
            </g>
        </g>
    </symbol>
    <symbol id="comerc2" viewBox="0 0 47 48">
        <g>
            <path fill="#ffc05c" d="M19.132 34.947c-1.435-1.07-3.35-.595-4.276 1.06.927-1.655.515-3.863-.92-4.933-1.434-1.07-3.348-.594-4.275 1.06.927-1.654.515-3.863-.92-4.932-1.434-1.07-3.348-.595-4.275 1.06l-3.17 5.66c-.928 1.656-.516 3.865.919 4.934 1.434 1.07 3.348.595 4.275-1.06-.927 1.655-.515 3.863.92 4.933 1.434 1.07 3.348.595 4.275-1.06-.927 1.655-.515 3.863.92 4.933 1.434 1.069 3.348.594 4.275-1.06l3.17-5.662c.928-1.655.516-3.864-.918-4.933" />
        </g>
        <g>
            <path fill="#fff" d="M40.142 25.188l-.083-.062L24.3 13.29l-2.51 4.397c-1.123 1.991-3.02 3.18-5.082 3.18-1.166 0-2.302-.387-3.284-1.12-2.804-2.09-3.612-6.423-1.802-9.655l1.508-2.702L7.84 5.92 0 24.593l1.922 1.909.052-.093c1.121-2.001 3.024-3.196 5.09-3.195 1.166 0 2.302.387 3.284 1.118.93.693 1.66 1.644 2.139 2.76 1.086.047 2.138.43 3.056 1.114.929.692 1.66 1.643 2.138 2.758 1.087.047 2.139.43 3.056 1.114 2.805 2.091 3.613 6.425 1.8 9.66l-1.68 3.002 2.601 1.99c1.435 1.07 3.35.596 4.277-1.06.926-1.654.515-3.863-.92-4.933l1.052.785c1.435 1.07 3.35.594 4.276-1.06.927-1.656.516-3.864-.919-4.934l1.052.784c1.435 1.07 3.349.595 4.276-1.06.927-1.655.516-3.863-.919-4.933l1.052.784c1.435 1.07 3.349.595 4.276-1.06.905-1.616.534-3.759-.82-4.855" />
        </g>
        <g>
            <path fill="#ffc05c" d="M23.449 8.568l.906.68 16.331 12.269 6.389-5.459L42.944 0 20.317.832l-6.201 11.11c-.928 1.655-.516 3.864.919 4.933 1.434 1.07 3.348.595 4.275-1.06" />
        </g>
    </symbol>
    <symbol id="cup2" viewBox="0 0 48 46">
        <defs>
            <clipPath id="mtz2a">
                <path d="M47.432 46.026V.39H.16v45.636z" />
            </clipPath>
        </defs>
        <g>
            <g>
                <g>
                    <path fill="#fff" d="M9.7 20.81v11.556l8.743-1.284L37.7 25.048V12.85l-6.747.385z" />
                </g>
                <g>
                    <g />
                    <g clip-path="url(#mtz2a)">
                        <path fill="#ffc05c" d="M13.82 35.177c6.335-1.783 12.569-4.037 18.892-5.876l-.807 10.646c-.132 2.794-1.256 6.079-3.524 6.079H17.706c-2.272 0-3.395-3.285-3.524-6.079zM34.207 9.624c-7.315 2.026-14.488 4.741-21.819 6.702l-.822-10.873C11.432 2.659 13.166.39 15.438.39h15.21c2.269 0 4.003 2.269 3.875 5.063zm-27.193 27.2c.513-.084.77-.134 1.284-.232 1.04-.229 2.068-.491 3.1-.754v5.068C6.903 42.01 4.655 42.43.16 42.43c1.86-3.061 2.79-4.656 4.648-7.941A213.516 213.516 0 0 1 .16 27.13c2.79 0 4.717-.164 6.853-.55zm40.42-20.369a248.403 248.403 0 0 0-4.649 7.941c1.858 2.833 2.79 4.3 4.649 7.36-4.806 0-7.206.481-12.012 1.72v-4.934a95.214 95.214 0 0 1 3.874-.941c.57-.114.855-.164 1.422-.258V16.965c2.051-.356 3.997-.51 6.716-.51zm-14.565 10.78c-6.427 1.857-12.761 4.165-19.2 5.973-.755.213-1.513.41-2.272.609-.911.233-1.823.475-2.741.678V19.28c1.3-.291 2.597-.619 3.885-.965 7.222-1.95 14.3-4.621 21.51-6.632a98.867 98.867 0 0 1 5.025-1.283v15.215c-1.224.272-2.441.575-3.654.896-.855.228-1.702.476-2.553.724zm-16.257-1.07l2.721-2.439h-3.36l-1.04-3.944-1.035 3.944h-3.36l2.589 2.324.129.114-.093.352-.947 3.593 1.14-1.02 1.578-1.417 2.718 2.437zm8.795-3.04l2.718-2.438h-3.36l-1.035-3.945-1.04 3.945h-3.357l2.714 2.438-1.036 3.94 2.719-2.434 2.717 2.433zm10.008.503l.437.397-.437-1.67-.598-2.275.598-.536 2.113-1.897.004-.005h-3.356l-.453-1.72-.585-2.22-1.035 3.94h-3.356l2.715 2.438-1.04 3.945 2.716-2.438.143.133z" />
                    </g>
                </g>
            </g>
        </g>
    </symbol>
    <symbol id="montag2" viewBox="0 0 48 48">
        <defs>
            <clipPath id="o6xsa">
                <path d="M23.38.4H.47v23.4h22.91V.4z" />
            </clipPath>
        </defs>
        <g>
            <g>
                <g>
                    <g />
                    <g clip-path="url(#o6xsa)">
                        <path fill="#ffc05c" d="M9.473 18.816c.945 0 1.873-.151 2.768-.442l5.317 5.426 5.823-5.945-5.314-5.432c1.024-3.27.182-6.893-2.205-9.33A8.85 8.85 0 0 0 9.497.4C8.154.4 6.808.71 5.6 1.299a.643.643 0 0 0-.172 1.019l5.594 5.714c.414.422.64.982.64 1.575 0 .595-.227 1.153-.64 1.575-.821.842-2.258.842-3.082-.002L2.345 5.466a.613.613 0 0 0-.997.175C-.295 9.158.41 13.37 3.104 16.12c1.701 1.738 3.963 2.695 6.369 2.695" />
                    </g>
                </g>
                <g>
                    <path fill="#ffc05c" d="M37.88 29.382c-.947 0-1.878.153-2.773.444l-5.88-6.006-5.827 5.95 5.882 6.007c-1.023 3.27-.181 6.89 2.205 9.33a8.85 8.85 0 0 0 6.365 2.693 8.955 8.955 0 0 0 3.896-.9.633.633 0 0 0 .344-.464.645.645 0 0 0-.172-.555l-5.595-5.716a2.234 2.234 0 0 1-.64-1.572c0-.595.228-1.153.641-1.575.825-.842 2.258-.842 3.081 0l5.595 5.714a.613.613 0 0 0 .998-.174c1.643-3.518.94-7.73-1.756-10.482-1.7-1.736-3.96-2.694-6.365-2.694" />
                </g>
                <g>
                    <path fill="#fff" d="M17.677 27.309a1.4 1.4 0 0 0-1.903-.07L.587 41.145a1.236 1.236 0 0 0-.067 1.807l4.137 4.223c.506.516 1.3.487 1.768-.064l13.62-15.515c.466-.551.436-1.424-.069-1.94z" />
                </g>
                <g>
                    <path fill="#fff" d="M35.49 15.84s.973.871 1.775.464c.907-.466 3.462 2.107 4.277 2.709.002.002.008.002.018.007l-.446.457a1.543 1.543 0 0 0-.001 2.16c.586.596 1.53.595 2.118 0l3.528-3.6a1.557 1.557 0 0 0 0-2.164 1.477 1.477 0 0 0-2.118 0l-.588.6c-.486-.685-1.296-1.851-1.193-2.239.43-1.693-2.95-5.693-2.95-5.693C31.515-.033 25.908.162 23.24 1.099c-1.07.376-.872.615.24.815 8.093 1.443 9.098 6.318 7.726 8.199-.528.726.242 1.602.242 1.602l.29.294L18.07 25.964c.185.115.365.244.524.407l2.299 2.346c.156.16.284.342.394.531l13.667-13.956z" />
                </g>
            </g>
        </g>
    </symbol>
    <symbol id="smeta2" viewBox="0 0 48 48">
        <defs>
            <clipPath id="wkdza">
                <path d="M47.194.4H0v46.964h47.194V.4z" />
            </clipPath>
        </defs>
        <g>
            <g>
                <g>
                    <path fill="#fff" d="M27.98 43.515h16.855V33.75H27.98z" />
                </g>
                <g>
                    <g>
                        <g />
                        <g clip-path="url(#wkdza)">
                            <path fill="#ffc05c" d="M24.036 3.755c1.358 0 2.459.892 2.459 1.992v.04c0 1.101-1.1 1.993-2.459 1.993H13.223c-1.358 0-2.46-.892-2.46-1.993v-.04c0-1.1 1.102-1.992 2.46-1.992h1.275c.681 0 1.234-.448 1.234-1v-.034C15.732 1.44 17.014.4 18.596.4h.067c1.582 0 2.864 1.04 2.864 2.321v.034c0 .552.552 1 1.234 1h1.275m-5.407 0c.686 0 1.243-.45 1.243-1.007 0-.555-.557-1.006-1.243-1.006s-1.242.45-1.242 1.006.556 1.007 1.242 1.007m5.53 38.913H3.312C1.482 42.668 0 41.466 0 39.984V7.78c0-1.482 1.483-2.683 2.484-2.683h6.71a2.844 2.844 0 0 0-.086.69c0 1.84 1.846 3.335 4.115 3.335h10.813c2.269 0 4.115-1.496 4.115-3.375 0-.222-.03-.44-.081-.65h5.05c2.656 0 4.139 1.201 4.139 2.683v20.162c-.275-.014-.549-.035-.828-.035-1.146 0-2.252.131-3.312.354V12.477H4.14v26.836h19.085c.091 1.18.409 2.308.934 3.355M36.426 29.92c5.941 0 10.758 3.905 10.758 8.722s-4.817 8.722-10.758 8.722c-5.942 0-10.759-3.905-10.759-8.722s4.817-8.722 10.759-8.722m7.028 6.93c.607-.554.546-1.402-.137-1.895-.683-.492-1.73-.442-2.336.111l-5.575 5.087-2.91-1.888c-.714-.463-1.756-.37-2.326.21-.571.579-.455 1.423.258 1.886l4.137 2.683c.304.198.67.294 1.033.294.457 0 .91-.152 1.237-.45l6.619-6.038M28.989 23.882H15.732c-.458 0-.828-.3-.828-.67v-.672c0-.37.37-.67.828-.67H28.99c.457 0 .828.3.828.67v.671c0 .37-.37.671-.828.671m0-6.038H15.732c-.458 0-.828-.3-.828-.671v-.67c0-.372.37-.672.828-.672H28.99c.457 0 .828.3.828.671v.67c0 .371-.37.672-.828.672m-4.14 11.405h-9.116c-.459 0-.83-.3-.83-.67v-.672c0-.37.371-.67.83-.67h9.116c.457 0 .828.3.828.67v.671c0 .371-.37.671-.828.671m-1.666 6.049h-7.451c-.458 0-.828-.302-.828-.675v-.674c0-.372.37-.674.828-.674h7.451c.458 0 .829.302.829.674v.674c0 .373-.371.675-.829.675m-9.865-19.935l-3.049 2.78a.85.85 0 0 1-.57.206.878.878 0 0 1-.476-.135L7.317 16.98c-.329-.213-.382-.602-.119-.868.263-.267.743-.31 1.072-.097l1.34.87 2.569-2.342c.28-.255.761-.278 1.076-.052.315.227.343.618.063.873m0 5.969l-3.049 2.78a.852.852 0 0 1-.57.207.878.878 0 0 1-.476-.136l-1.906-1.235c-.329-.213-.382-.602-.119-.868.263-.267.743-.31 1.072-.097l1.34.87 2.569-2.342c.28-.255.761-.278 1.076-.052.315.227.343.618.063.873m0 5.708l-3.049 2.78a.852.852 0 0 1-.57.207.878.878 0 0 1-.476-.135l-1.906-1.236c-.329-.213-.382-.601-.119-.868s.743-.31 1.072-.096l1.34.869 2.569-2.342c.28-.255.761-.278 1.076-.051.315.227.343.617.063.872m0 5.749l-3.049 2.78a.85.85 0 0 1-.57.207.879.879 0 0 1-.476-.135l-1.906-1.236c-.329-.213-.382-.602-.119-.868.263-.267.743-.31 1.072-.096l1.34.869 2.569-2.342c.28-.255.761-.278 1.076-.051.315.227.343.617.063.872" />
                        </g>
                    </g>
                    <g>
                        <path fill="#fff" d="M13.22 7.78c-1.358 0-2.46-.892-2.46-1.993v-.04c0-1.1 1.102-1.992 2.46-1.992h1.274c.682 0 1.234-.448 1.234-1V2.72C15.728 1.439 17.01.4 18.593.4h.066c1.582 0 2.865 1.04 2.865 2.321v.034c0 .552.552 1 1.233 1h1.276c1.358 0 2.459.892 2.459 1.992v.04c0 1.101-1.101 1.993-2.46 1.993H13.22m5.412-6.038c-.689 0-1.247.45-1.247 1.006s.558 1.007 1.247 1.007c.689 0 1.247-.451 1.247-1.007 0-.556-.558-1.006-1.247-1.006" />
                    </g>
                    <g>
                        <path fill="#fff" d="M7.316 16.974l1.906 1.236c.14.091.308.135.476.135.21 0 .42-.07.57-.207l3.05-2.78c.28-.255.25-.645-.064-.872-.315-.226-.797-.204-1.076.051L9.609 16.88l-1.34-.87c-.329-.212-.809-.17-1.072.097s-.21.655.12.868" />
                    </g>
                    <g>
                        <path fill="#fff" d="M7.316 22.944l1.906 1.236c.14.09.308.135.476.135.21 0 .42-.07.57-.207l3.05-2.78c.28-.255.25-.645-.064-.872-.315-.227-.797-.204-1.076.051L9.609 22.85l-1.34-.87c-.329-.212-.809-.17-1.072.097s-.21.655.12.868" />
                    </g>
                    <g>
                        <path fill="#fff" d="M7.316 28.655l1.906 1.235c.14.091.308.135.476.135.21 0 .42-.07.57-.207l3.05-2.78c.28-.255.25-.645-.064-.872-.315-.227-.797-.204-1.076.052l-2.569 2.34-1.34-.868c-.329-.213-.809-.17-1.072.096-.263.267-.21.656.12.869" />
                    </g>
                    <g>
                        <path fill="#fff" d="M7.316 34.404l1.906 1.236c.14.09.308.135.476.135.21 0 .42-.07.57-.207l3.05-2.78c.28-.255.25-.645-.064-.872-.315-.227-.797-.204-1.076.051L9.609 34.31l-1.34-.869c-.329-.213-.809-.17-1.072.097-.263.266-.21.655.12.867" />
                    </g>
                </g>
            </g>
        </g>
    </symbol>
    <symbol id="tel2" viewBox="0 0 48 48">
        <g>
            <path fill="#fff" d="M42.88 35.267c1.006 1 1.534 2.191 1.534 3.431 0 1.23-.517 2.43-1.503 3.46-.429.45-.867.88-1.295 1.29-.628.61-1.225 1.181-1.742 1.811-.01.02-.03.03-.04.05-1.514 1.651-3.446 2.48-5.746 2.48-.2 0-.418-.009-.628-.02-3.415-.219-6.473-1.51-8.762-2.6-5.995-2.91-11.243-7.041-15.605-12.272C5.5 28.556 3.09 24.505 1.476 20.134.818 18.354-.038 15.633.2 12.712c.16-1.81.886-3.37 2.16-4.65L5.749 4.63l.02-.02c.995-.96 2.17-1.47 3.385-1.47 1.215 0 2.37.51 3.337 1.47.647.6 1.274 1.24 1.871 1.861.299.32.618.64.926.95l2.72 2.73c2.09 2.101 2.09 4.822 0 6.922-.28.28-.559.57-.838.85-.737.75-1.494 1.531-2.31 2.281.608 1.35 1.444 2.68 2.688 4.26 2.57 3.171 5.248 5.622 8.196 7.502.289.18.628.35.986.53.249.13.507.26.767.4l3.147-3.15c1.005-1.01 2.18-1.54 3.405-1.54 1.235 0 2.4.54 3.366 1.55zm-1.901 5.021c1.016-1.06 1.016-2.11-.01-3.13l-5.507-5.532c-.309-.34-.816-.73-1.434-.73-.627 0-1.165.41-1.504.75l-3.405 3.421c-.17.17-.687.69-1.514.69a2.15 2.15 0 0 1-.986-.25c-.04-.02-.08-.05-.119-.07-.289-.18-.627-.35-.986-.53-.398-.2-.816-.41-1.225-.67-3.197-2.03-6.094-4.681-8.842-8.082l-.01-.01c-1.514-1.93-2.51-3.55-3.217-5.271l-.03-.09c-.179-.57-.338-1.41.518-2.27.01-.02.03-.03.05-.05.866-.78 1.663-1.581 2.5-2.441.288-.28.567-.57.856-.86 1.055-1.06 1.055-2.04 0-3.101l-2.719-2.73c-.318-.33-.637-.65-.946-.97a50.737 50.737 0 0 0-1.792-1.791l-.03-.03c-.319-.32-.827-.7-1.454-.7-.508 0-1.026.25-1.513.71L4.264 9.96c-.827.83-1.275 1.8-1.374 2.971-.15 1.83.189 3.771 1.115 6.262 1.504 4.08 3.774 7.881 7.17 11.992 4.112 4.931 9.061 8.822 14.698 11.563 2.06.99 4.81 2.15 7.767 2.34.149.01.308.01.458.01 1.553 0 2.738-.51 3.744-1.59.617-.73 1.275-1.38 1.922-2 .428-.42.826-.8 1.215-1.221-.01.01-.01 0 0 0z" />
        </g>
        <g>
            <path fill="#ffc05c" d="M25.617 11.669c2.608.44 4.979 1.68 6.87 3.58a12.77 12.77 0 0 1 3.566 6.902c.11.66.677 1.12 1.324 1.12.08 0 .15-.01.23-.02a1.351 1.351 0 0 0 1.104-1.56A15.45 15.45 0 0 0 34.4 13.34a15.339 15.339 0 0 0-8.315-4.331 1.353 1.353 0 0 0-1.554 1.1c-.13.73.349 1.44 1.086 1.56" />
        </g>
        <g>
            <path fill="#ffc05c" d="M47.253 21.305c-.886-5.22-3.336-9.972-7.1-13.753C36.39 3.772 31.66 1.31 26.461.42c-.727-.13-1.414.37-1.543 1.1-.12.74.368 1.43 1.105 1.56 4.64.79 8.873 3.001 12.239 6.372 3.365 3.38 5.556 7.632 6.343 12.292.109.66.677 1.12 1.324 1.12.08 0 .15-.01.229-.02a1.324 1.324 0 0 0 1.095-1.54" />
        </g>
    </symbol>
    <symbol id="zamer2" viewBox="0 0 48 48">
        <g>
            <path fill="#ffc05c" d="M9.924 23.87l13.851 14.034H9.925zM.16 0v47.789h47.18z" />
        </g>
        <g>
            <g>
                <path fill="#fff" d="M4.189 7.576a.833.833 0 0 0 0 1.167.808.808 0 0 0 1.152 0l1.723-1.746L5.916 5.83z" />
            </g>
            <g>
                <path fill="#fff" d="M5.918 12.83a.82.82 0 0 0 .575.24.828.828 0 0 0 .577-.24l2.876-2.913L8.794 8.75l-2.876 2.913a.834.834 0 0 0 0 1.167" />
            </g>
            <g>
                <path fill="#fff" d="M9.949 14.573a.8.8 0 0 0 1.148 0l1.727-1.746-1.152-1.167-1.723 1.751a.826.826 0 0 0 0 1.162" />
            </g>
            <g>
                <path fill="#fff" d="M11.668 18.65a.803.803 0 0 0 1.152 0l2.876-2.913-1.152-1.167-2.876 2.913a.833.833 0 0 0 0 1.167" />
            </g>
            <g>
                <path fill="#fff" d="M15.698 20.403a.807.807 0 0 0 1.148 0l1.728-1.747-1.151-1.166-1.725 1.75a.83.83 0 0 0 0 1.163" />
            </g>
            <g>
                <path fill="#fff" d="M17.419 23.313a.833.833 0 0 0 0 1.167.81.81 0 0 0 1.15 0l2.877-2.914-1.152-1.166z" />
            </g>
            <g>
                <path fill="#fff" d="M21.449 26.223a.803.803 0 0 0 1.15 0l1.725-1.746-1.152-1.167-1.723 1.75a.828.828 0 0 0 0 1.163" />
            </g>
            <g>
                <path fill="#fff" d="M23.169 30.3a.81.81 0 0 0 1.152 0l2.875-2.913-1.152-1.167-2.875 2.917a.828.828 0 0 0 0 1.163" />
            </g>
            <g>
                <path fill="#fff" d="M27.199 32.053c.158.156.369.24.575.24a.831.831 0 0 0 .577-.24l1.723-1.75-1.148-1.163-1.727 1.746a.833.833 0 0 0 0 1.167" />
            </g>
            <g>
                <path fill="#fff" d="M28.929 36.126a.805.805 0 0 0 1.148 0l2.875-2.913-1.148-1.163-2.875 2.913a.828.828 0 0 0 0 1.163" />
            </g>
            <g>
                <path fill="#fff" d="M32.948 36.717a.833.833 0 0 0 0 1.166.808.808 0 0 0 1.152 0l1.724-1.75-1.148-1.163z" />
            </g>
            <g>
                <path fill="#fff" d="M34.678 41.956a.8.8 0 0 0 1.148 0l2.876-2.913-1.148-1.163-2.876 2.913a.83.83 0 0 0 0 1.163" />
            </g>
            <g>
                <path fill="#fff" d="M38.698 43.704c.159.16.37.241.577.241.21 0 .417-.08.575-.241l1.724-1.751-1.148-1.163-1.728 1.747a.834.834 0 0 0 0 1.167" />
            </g>
    </symbol>
    <!-- потолки -->



</svg>