<svg width="256" height="49" viewBox="0 0 256 49" xmlns="http://www.w3.org/2000/svg" xmlns:xlink="http://www.w3.org/1999/xlink"><defs><path id="a" d="M23.75 48.75h23.749V.577H0V48.75z"/><path id="c" d="M42.443 48.75V.577H.26V48.75h42.183z"/></defs><g fill="none" fill-rule="evenodd"><g transform="translate(.102 .125)"><mask id="b" fill="#fff"><use xlink:href="#a"/></mask><path d="M43.345 48.75H4.155C1.86 48.75 0 46.864 0 44.537V4.79C0 2.463 1.86.577 4.154.577h39.19C45.64.577 47.5 2.463 47.5 4.79v39.747c0 2.327-1.86 4.213-4.154 4.213" fill="#000" mask="url(#b)"/></g><path d="M9.478 39.895h.22c.29 0 .523-.33.523-.735V8.558c0-.407-.234-.736-.522-.736h-.743V39.16c0 .406.234.735.522.735" fill="#FFB32C"/><path d="M27.147 47.592L6.427 1.408h37.516a2.971 2.971 0 012.96 2.975v40.234a2.971 2.971 0 01-2.96 2.975H27.147z" fill="#FFB32C"/><g transform="translate(5.161 .125)"><mask id="d" fill="#fff"><use xlink:href="#c"/></mask><path d="M38.68.576H.26L21.52 48.75H38.68c2.078 0 3.762-1.72 3.762-3.844V4.42c0-2.123-1.684-3.844-3.762-3.844m0 1.7c1.157 0 2.099.962 2.099 2.144v40.486c0 1.182-.942 2.144-2.1 2.144H22.596L2.835 2.276h35.846" fill="#000" mask="url(#d)"/></g><path d="M37.306 39.895h.221c.289 0 .522-.33.522-.735V8.558c0-.407-.233-.736-.522-.736h-.22c-.289 0-.523.33-.523.736V39.16c0 .406.234.735.522.735" fill="#000"/><path d="M23.369 39.895h.954L38.005 8.548c.149-.34-.093-.726-.454-.726h-.632a.498.498 0 00-.455.303L22.914 39.17c-.148.34.094.726.455.726" fill="#000"/><path d="M84.455 36.688v-7.146l-.473-11.009 5.096 18.154h3.501l5.096-18.154-.473 11.009v7.145h5.165V10.282h-6.723L90.846 29.38 86.031 10.28h-6.724v26.407h5.148zm28.457 0c2.369 0 4.212-.84 5.528-2.517 1.316-1.678 1.974-4.007 1.974-6.988v-1.25c0-2.992-.664-5.334-1.991-7.023-1.328-1.69-3.176-2.535-5.546-2.535-2.346 0-4.183.845-5.51 2.535-1.328 1.69-1.992 4.019-1.992 6.988v1.249c0 2.993.661 5.331 1.983 7.015 1.322 1.684 3.173 2.526 5.554 2.526zm-.017-4.063c-1.671 0-2.507-1.656-2.507-4.97V26.44c0-1.69.218-2.944.655-3.76.437-.817 1.043-1.226 1.82-1.226.808 0 1.433.409 1.875 1.225.442.817.663 2.07.663 3.761l-.016 2.04c-.119 2.764-.949 4.146-2.49 4.146zm16.415 4.063v-7.402h4.283v7.401h4.868V17.392h-4.868v7.722h-4.283V17.39h-4.886v19.297h4.886zm22.203 0V21.546h4.995v-4.155h-15.04v4.155h4.96v15.142h5.085zm11.705 0c1.57 0 2.815-.628 3.733-1.883.145.712.29 1.219.434 1.52h5.164v-.307c-.459-.954-.7-2.275-.724-3.965v-9.215c0-2.076-.59-3.672-1.767-4.788-1.178-1.117-2.842-1.675-4.992-1.675-2.078 0-3.796.588-5.155 1.765-1.359 1.177-2.038 2.67-2.038 4.48H163c0-1.496.64-2.244 1.92-2.244.58 0 1.021.181 1.323.543.302.362.453.984.453 1.865v1.575h-1.558c-2.465.024-4.352.597-5.663 1.72-1.31 1.122-1.966 2.71-1.966 4.761 0 1.726.541 3.132 1.622 4.218 1.081 1.086 2.443 1.63 4.086 1.63zm1.999-4.063c-1.127 0-1.691-.703-1.691-2.109 0-.902.249-1.622.746-2.16.498-.54 1.178-.81 2.042-.81h1.222V31.5c-.191.305-.485.569-.88.791-.396.223-.876.334-1.44.334zm15.54 4.063l2.565-7.134h1.72v7.134h5.056v-7.134h1.74l2.545 7.134h6.221l-4.786-10.523 4.804-8.774h-6.275l-2.814 7.187h-1.435V17.39h-5.055v7.187h-1.435l-2.778-7.187h-6.275l4.876 8.899-4.75 10.398h6.077zm27.758 0v-7.402h4.284v7.401h4.868V17.392h-4.868v7.722h-4.284V17.39h-4.885v19.297h4.885zm18.035 0l4.325-11.86v11.86h4.839V17.39h-4.84l-4.324 11.842V17.39h-4.873v19.297h4.873zm18.24 0v-7.08h1.33l2.91 7.08h6.736L250.25 26.29l5.12-8.9h-6.378l-2.946 7.241h-1.257v-7.24h-5.066v19.297h5.066z" fill="#FFF" fill-rule="nonzero"/><path d="M5.115.125h260v48.75h-260z"/></g></svg>